%TF.GenerationSoftware,KiCad,Pcbnew,8.0.8-8.0.8-0~ubuntu24.04.1*%
%TF.CreationDate,2025-02-14T12:47:57-06:00*%
%TF.ProjectId,edge_human_detection_board,65646765-5f68-4756-9d61-6e5f64657465,rev?*%
%TF.SameCoordinates,Original*%
%TF.FileFunction,Copper,L1,Top*%
%TF.FilePolarity,Positive*%
%FSLAX46Y46*%
G04 Gerber Fmt 4.6, Leading zero omitted, Abs format (unit mm)*
G04 Created by KiCad (PCBNEW 8.0.8-8.0.8-0~ubuntu24.04.1) date 2025-02-14 12:47:57*
%MOMM*%
%LPD*%
G01*
G04 APERTURE LIST*
G04 Aperture macros list*
%AMRoundRect*
0 Rectangle with rounded corners*
0 $1 Rounding radius*
0 $2 $3 $4 $5 $6 $7 $8 $9 X,Y pos of 4 corners*
0 Add a 4 corners polygon primitive as box body*
4,1,4,$2,$3,$4,$5,$6,$7,$8,$9,$2,$3,0*
0 Add four circle primitives for the rounded corners*
1,1,$1+$1,$2,$3*
1,1,$1+$1,$4,$5*
1,1,$1+$1,$6,$7*
1,1,$1+$1,$8,$9*
0 Add four rect primitives between the rounded corners*
20,1,$1+$1,$2,$3,$4,$5,0*
20,1,$1+$1,$4,$5,$6,$7,0*
20,1,$1+$1,$6,$7,$8,$9,0*
20,1,$1+$1,$8,$9,$2,$3,0*%
%AMFreePoly0*
4,1,5,0.675000,-1.175000,-0.675000,-1.175000,-0.675000,1.175000,0.675000,1.175000,0.675000,-1.175000,0.675000,-1.175000,$1*%
G04 Aperture macros list end*
%TA.AperFunction,SMDPad,CuDef*%
%ADD10R,0.700000X0.700000*%
%TD*%
%TA.AperFunction,SMDPad,CuDef*%
%ADD11RoundRect,0.208750X-0.208750X-0.431250X0.208750X-0.431250X0.208750X0.431250X-0.208750X0.431250X0*%
%TD*%
%TA.AperFunction,SMDPad,CuDef*%
%ADD12R,1.475000X0.450000*%
%TD*%
%TA.AperFunction,SMDPad,CuDef*%
%ADD13RoundRect,0.250000X-0.325000X-0.450000X0.325000X-0.450000X0.325000X0.450000X-0.325000X0.450000X0*%
%TD*%
%TA.AperFunction,SMDPad,CuDef*%
%ADD14RoundRect,0.208750X0.431250X-0.208750X0.431250X0.208750X-0.431250X0.208750X-0.431250X-0.208750X0*%
%TD*%
%TA.AperFunction,ComponentPad*%
%ADD15R,1.700000X1.700000*%
%TD*%
%TA.AperFunction,ComponentPad*%
%ADD16O,1.700000X1.700000*%
%TD*%
%TA.AperFunction,ComponentPad*%
%ADD17C,5.500000*%
%TD*%
%TA.AperFunction,ComponentPad*%
%ADD18R,1.524000X1.524000*%
%TD*%
%TA.AperFunction,ComponentPad*%
%ADD19C,1.524000*%
%TD*%
%TA.AperFunction,SMDPad,CuDef*%
%ADD20RoundRect,0.250000X0.350000X0.450000X-0.350000X0.450000X-0.350000X-0.450000X0.350000X-0.450000X0*%
%TD*%
%TA.AperFunction,SMDPad,CuDef*%
%ADD21FreePoly0,0.000000*%
%TD*%
%TA.AperFunction,SMDPad,CuDef*%
%ADD22FreePoly0,270.000000*%
%TD*%
%TA.AperFunction,SMDPad,CuDef*%
%ADD23FreePoly0,180.000000*%
%TD*%
%TA.AperFunction,ViaPad*%
%ADD24C,0.533400*%
%TD*%
%TA.AperFunction,Conductor*%
%ADD25C,0.152400*%
%TD*%
%TA.AperFunction,Conductor*%
%ADD26C,0.508000*%
%TD*%
G04 APERTURE END LIST*
D10*
%TO.P,D3,1,DO*%
%TO.N,/RGB Signalling/SIG_IN_RGB3*%
X123950000Y-101415000D03*
%TO.P,D3,2,GND*%
%TO.N,GND*%
X125050000Y-101415000D03*
%TO.P,D3,3,DI*%
%TO.N,/RGB Signalling/SIG_IN_RGB2*%
X125050000Y-99585000D03*
%TO.P,D3,4,VDD*%
%TO.N,/Coral Micro Breakouts/+5VDC*%
X123950000Y-99585000D03*
%TD*%
D11*
%TO.P,C3,1*%
%TO.N,GND*%
X117245000Y-99000000D03*
%TO.P,C3,2*%
%TO.N,/Coral Micro Breakouts/+5VDC*%
X118500000Y-99000000D03*
%TD*%
D10*
%TO.P,D4,1,DO*%
%TO.N,unconnected-(D4-DO-Pad1)*%
X123950000Y-109915000D03*
%TO.P,D4,2,GND*%
%TO.N,GND*%
X125050000Y-109915000D03*
%TO.P,D4,3,DI*%
%TO.N,/RGB Signalling/SIG_IN_RGB3*%
X125050000Y-108085000D03*
%TO.P,D4,4,VDD*%
%TO.N,/Coral Micro Breakouts/+5VDC*%
X123950000Y-108085000D03*
%TD*%
D12*
%TO.P,IC1,1,A1*%
%TO.N,/RGB Signalling/SIG_IN_PWM0*%
X119062000Y-77575000D03*
%TO.P,IC1,2,VCCA*%
%TO.N,/Coral Micro Breakouts/+1.8VDC_RGB*%
X119062000Y-78225000D03*
%TO.P,IC1,3,A2*%
%TO.N,unconnected-(IC1-A2-Pad3)*%
X119062000Y-78875000D03*
%TO.P,IC1,4,A3*%
%TO.N,unconnected-(IC1-A3-Pad4)*%
X119062000Y-79525000D03*
%TO.P,IC1,5,A4*%
%TO.N,unconnected-(IC1-A4-Pad5)*%
X119062000Y-80175000D03*
%TO.P,IC1,6,A5*%
%TO.N,unconnected-(IC1-A5-Pad6)*%
X119062000Y-80825000D03*
%TO.P,IC1,7,A6*%
%TO.N,unconnected-(IC1-A6-Pad7)*%
X119062000Y-81475000D03*
%TO.P,IC1,8,A7*%
%TO.N,unconnected-(IC1-A7-Pad8)*%
X119062000Y-82125000D03*
%TO.P,IC1,9,A8*%
%TO.N,unconnected-(IC1-A8-Pad9)*%
X119062000Y-82775000D03*
%TO.P,IC1,10,OE*%
%TO.N,/Coral Micro Breakouts/+1.8VDC_RGB*%
X119062000Y-83425000D03*
%TO.P,IC1,11,GND*%
%TO.N,GND*%
X124938000Y-83425000D03*
%TO.P,IC1,12,B8*%
%TO.N,unconnected-(IC1-B8-Pad12)*%
X124938000Y-82775000D03*
%TO.P,IC1,13,B7*%
%TO.N,unconnected-(IC1-B7-Pad13)*%
X124938000Y-82125000D03*
%TO.P,IC1,14,B6*%
%TO.N,unconnected-(IC1-B6-Pad14)*%
X124938000Y-81475000D03*
%TO.P,IC1,15,B5*%
%TO.N,unconnected-(IC1-B5-Pad15)*%
X124938000Y-80825000D03*
%TO.P,IC1,16,B4*%
%TO.N,unconnected-(IC1-B4-Pad16)*%
X124938000Y-80175000D03*
%TO.P,IC1,17,B3*%
%TO.N,unconnected-(IC1-B3-Pad17)*%
X124938000Y-79525000D03*
%TO.P,IC1,18,B2*%
%TO.N,unconnected-(IC1-B2-Pad18)*%
X124938000Y-78875000D03*
%TO.P,IC1,19,VCCB*%
%TO.N,/Coral Micro Breakouts/+5VDC*%
X124938000Y-78225000D03*
%TO.P,IC1,20,B1*%
%TO.N,/RGB Signalling/SIG_IN_RGB1*%
X124938000Y-77575000D03*
%TD*%
D13*
%TO.P,D1,1,K*%
%TO.N,GND*%
X119975000Y-69500000D03*
%TO.P,D1,2,A*%
%TO.N,Net-(D1-A)*%
X122025000Y-69500000D03*
%TD*%
D11*
%TO.P,C4,1*%
%TO.N,GND*%
X117372500Y-107500000D03*
%TO.P,C4,2*%
%TO.N,/Coral Micro Breakouts/+5VDC*%
X118627500Y-107500000D03*
%TD*%
%TO.P,C2,1*%
%TO.N,GND*%
X117372500Y-91000000D03*
%TO.P,C2,2*%
%TO.N,/Coral Micro Breakouts/+5VDC*%
X118627500Y-91000000D03*
%TD*%
D14*
%TO.P,C1,1*%
%TO.N,GND*%
X130000000Y-87627500D03*
%TO.P,C1,2*%
%TO.N,/Coral Micro Breakouts/+5VDC*%
X130000000Y-86372500D03*
%TD*%
D15*
%TO.P,J1,1,Pin_1*%
%TO.N,GND*%
X122000000Y-54000000D03*
D16*
%TO.P,J1,2,Pin_2*%
%TO.N,/Coral Micro Breakouts/DEBUG_TX*%
X122000000Y-56540000D03*
%TO.P,J1,3,Pin_3*%
%TO.N,/Coral Micro Breakouts/DEBUG_RX*%
X122000000Y-59080000D03*
%TD*%
D10*
%TO.P,D2,1,DO*%
%TO.N,/RGB Signalling/SIG_IN_RGB2*%
X123950000Y-93415000D03*
%TO.P,D2,2,GND*%
%TO.N,GND*%
X125050000Y-93415000D03*
%TO.P,D2,3,DI*%
%TO.N,/RGB Signalling/SIG_IN_RGB1*%
X125050000Y-91585000D03*
%TO.P,D2,4,VDD*%
%TO.N,/Coral Micro Breakouts/+5VDC*%
X123950000Y-91585000D03*
%TD*%
D17*
%TO.P,U1,*%
%TO.N,*%
X159513240Y-53551320D03*
X136513240Y-53551320D03*
X159513240Y-111551320D03*
X136513240Y-111551320D03*
D18*
%TO.P,U1,1,GND*%
%TO.N,GND*%
X162000000Y-58060000D03*
D19*
%TO.P,U1,2,1.8V*%
%TO.N,/Coral Micro Breakouts/+1.8VDC_TOF*%
X162000000Y-60600000D03*
%TO.P,U1,3,3.3V*%
%TO.N,/Coral Micro Breakouts/+3.3VDC*%
X162000000Y-63140000D03*
%TO.P,U1,4,RTC_3V*%
%TO.N,unconnected-(U1-RTC_3V-Pad4)*%
X162000000Y-65680000D03*
%TO.P,U1,5,SPI6_CS0*%
%TO.N,unconnected-(U1-SPI6_CS0-Pad5)*%
X162000000Y-68220000D03*
%TO.P,U1,6,SPI6_SCK*%
%TO.N,unconnected-(U1-SPI6_SCK-Pad6)*%
X162000000Y-70760000D03*
%TO.P,U1,7,SPI6_SDO*%
%TO.N,unconnected-(U1-SPI6_SDO-Pad7)*%
X162000000Y-73300000D03*
%TO.P,U1,8,SPI6_SDI*%
%TO.N,unconnected-(U1-SPI6_SDI-Pad8)*%
X162000000Y-75840000D03*
%TO.P,U1,9,DAC_OUT*%
%TO.N,unconnected-(U1-DAC_OUT-Pad9)*%
X162000000Y-78380000D03*
%TO.P,U1,10,I2C6_SDA*%
%TO.N,unconnected-(U1-I2C6_SDA-Pad10)*%
X162000000Y-80920000D03*
%TO.P,U1,11,I2C1_SCL*%
%TO.N,/Coral Micro Breakouts/SCL*%
X162000000Y-83460000D03*
%TO.P,U1,12,I2C1_SDA*%
%TO.N,/Coral Micro Breakouts/SDA*%
X162000000Y-86000000D03*
D18*
%TO.P,U1,13,GND*%
%TO.N,GND*%
X134060000Y-58060000D03*
D19*
%TO.P,U1,14,1.8V*%
%TO.N,/Coral Micro Breakouts/+1.8VDC_RGB*%
X134060000Y-60600000D03*
%TO.P,U1,15,ADC1_CH0A*%
%TO.N,unconnected-(U1-ADC1_CH0A-Pad15)*%
X134060000Y-63140000D03*
%TO.P,U1,16,ADC1_CH0B*%
%TO.N,unconnected-(U1-ADC1_CH0B-Pad16)*%
X134060000Y-65680000D03*
%TO.P,U1,17,UART6_TX*%
%TO.N,/Coral Micro Breakouts/DEBUG_TX*%
X134060000Y-68220000D03*
%TO.P,U1,18,UART6_RX*%
%TO.N,/Coral Micro Breakouts/DEBUG_RX*%
X134060000Y-70760000D03*
%TO.P,U1,19,UART6_CTX*%
%TO.N,unconnected-(U1-UART6_CTX-Pad19)*%
X134060000Y-73300000D03*
%TO.P,U1,20,UART6_RTS*%
%TO.N,unconnected-(U1-UART6_RTS-Pad20)*%
X134060000Y-75840000D03*
%TO.P,U1,21,PWM_B*%
%TO.N,/Coral Micro Breakouts/PWM_1*%
X134060000Y-78380000D03*
%TO.P,U1,22,PWM_A*%
%TO.N,/RGB Signalling/SIG_IN_PWM0*%
X134060000Y-80920000D03*
%TO.P,U1,23,I2C6_SCL*%
%TO.N,unconnected-(U1-I2C6_SCL-Pad23)*%
X134060000Y-83460000D03*
%TO.P,U1,24,VSYS*%
%TO.N,/Coral Micro Breakouts/+5VDC*%
X134060000Y-86000000D03*
%TD*%
D20*
%TO.P,R2,1*%
%TO.N,/Coral Micro Breakouts/+5VDC*%
X127500000Y-69500000D03*
%TO.P,R2,2*%
%TO.N,Net-(D1-A)*%
X125500000Y-69500000D03*
%TD*%
D21*
%TO.P,U2,1,SDA*%
%TO.N,/Coral Micro Breakouts/SDA*%
X155600000Y-47500000D03*
D22*
%TO.P,U2,2,SCL*%
%TO.N,/Coral Micro Breakouts/SCL*%
X140557478Y-46652777D03*
%TO.P,U2,3,+1.8VDC*%
%TO.N,/Coral Micro Breakouts/+1.8VDC_TOF*%
X140570916Y-42077518D03*
D23*
%TO.P,U2,4,Lpn*%
%TO.N,/Coral Micro Breakouts/PWM_1*%
X141578177Y-35864590D03*
%TO.P,U2,5,GND*%
%TO.N,GND*%
X145770295Y-35864590D03*
%TO.P,U2,6,+3.3VDC*%
%TO.N,/Coral Micro Breakouts/+3.3VDC*%
X150990985Y-35864590D03*
%TD*%
D24*
%TO.N,GND*%
X127500000Y-101500000D03*
X161500000Y-117500000D03*
X150800000Y-57600000D03*
X169500000Y-87500000D03*
X121400000Y-104000000D03*
X169500000Y-74500000D03*
X158400000Y-102400000D03*
X120000000Y-110500000D03*
X126500000Y-116500000D03*
X127400000Y-63600000D03*
X139000000Y-90799996D03*
X120500000Y-96500000D03*
X118500000Y-75000000D03*
X168500000Y-110000000D03*
X153400000Y-39800000D03*
X125000000Y-85000000D03*
X121000000Y-75000000D03*
X128000000Y-76000000D03*
X129000000Y-94500000D03*
X131000000Y-90500000D03*
X140400000Y-80400000D03*
X144200000Y-39800000D03*
X129600000Y-56200000D03*
X118800000Y-48800000D03*
X138000000Y-102800000D03*
X148000000Y-47200000D03*
X169000000Y-99000000D03*
X159800000Y-91400000D03*
%TO.N,/RGB Signalling/SIG_IN_RGB1*%
X130000000Y-91500000D03*
X126500000Y-76000000D03*
%TO.N,/Coral Micro Breakouts/+1.8VDC_RGB*%
X122600000Y-65000000D03*
X117000000Y-75000000D03*
%TO.N,/RGB Signalling/SIG_IN_PWM0*%
X121500000Y-76000000D03*
%TO.N,/Coral Micro Breakouts/PWM_1*%
X138000000Y-36400000D03*
%TO.N,/Coral Micro Breakouts/SCL*%
X137800000Y-46000000D03*
%TD*%
D25*
%TO.N,/Coral Micro Breakouts/PWM_1*%
X138000000Y-36400000D02*
X138035410Y-36364590D01*
X138035410Y-36364590D02*
X141578177Y-36364590D01*
D26*
%TO.N,/Coral Micro Breakouts/+3.3VDC*%
X150990985Y-36364590D02*
X162564590Y-36364590D01*
X162564590Y-36364590D02*
X168800000Y-42600000D01*
X168800000Y-42600000D02*
X168800000Y-59800000D01*
X168800000Y-59800000D02*
X165460000Y-63140000D01*
X165460000Y-63140000D02*
X162000000Y-63140000D01*
%TO.N,GND*%
X125000000Y-85000000D02*
X125000000Y-83487000D01*
X125000000Y-83487000D02*
X124938000Y-83425000D01*
X122000000Y-54000000D02*
X122000000Y-53500000D01*
X131000000Y-88627500D02*
X130000000Y-87627500D01*
X127415000Y-101415000D02*
X127500000Y-101500000D01*
X125050000Y-101415000D02*
X127415000Y-101415000D01*
X131000000Y-90500000D02*
X131000000Y-88627500D01*
%TO.N,/Coral Micro Breakouts/+5VDC*%
X122785000Y-108085000D02*
X123950000Y-108085000D01*
X130000000Y-78800000D02*
X128300000Y-78800000D01*
X118627500Y-100127500D02*
X118627500Y-107500000D01*
X118777500Y-107350000D02*
X122050000Y-107350000D01*
X119212500Y-91585000D02*
X118627500Y-91000000D01*
X122050000Y-107350000D02*
X122785000Y-108085000D01*
X130000000Y-72000000D02*
X127500000Y-69500000D01*
X122050000Y-98850000D02*
X122785000Y-99585000D01*
X128000000Y-78500000D02*
X128000000Y-85500000D01*
X123950000Y-91585000D02*
X119212500Y-91585000D01*
X128000000Y-78500000D02*
X127725000Y-78225000D01*
X118627500Y-107500000D02*
X118777500Y-107350000D01*
X128300000Y-78800000D02*
X128000000Y-78500000D01*
X128000000Y-85500000D02*
X127000000Y-86500000D01*
X122785000Y-99585000D02*
X123950000Y-99585000D01*
X118650000Y-98850000D02*
X118500000Y-99000000D01*
X130000000Y-86372500D02*
X130000000Y-78800000D01*
X134060000Y-86000000D02*
X132500000Y-86000000D01*
X130127500Y-86500000D02*
X130000000Y-86372500D01*
X130000000Y-78500000D02*
X130000000Y-72000000D01*
X132000000Y-86500000D02*
X130127500Y-86500000D01*
X118627500Y-98872500D02*
X118500000Y-99000000D01*
X127000000Y-86500000D02*
X122000000Y-86500000D01*
X118500000Y-99000000D02*
X118500000Y-100000000D01*
X118627500Y-89872500D02*
X118627500Y-91000000D01*
X127725000Y-78225000D02*
X124938000Y-78225000D01*
X122050000Y-98850000D02*
X118650000Y-98850000D01*
X130000000Y-78800000D02*
X130000000Y-78500000D01*
X118500000Y-100000000D02*
X118627500Y-100127500D01*
X122000000Y-86500000D02*
X118627500Y-89872500D01*
X118627500Y-91000000D02*
X118627500Y-98872500D01*
X132500000Y-86000000D02*
X132000000Y-86500000D01*
D25*
%TO.N,/RGB Signalling/SIG_IN_RGB1*%
X130000000Y-91500000D02*
X129915000Y-91585000D01*
X124938000Y-77062000D02*
X126000000Y-76000000D01*
X126000000Y-76000000D02*
X126500000Y-76000000D01*
X129915000Y-91585000D02*
X125050000Y-91585000D01*
X124938000Y-77575000D02*
X124938000Y-77062000D01*
D26*
%TO.N,/Coral Micro Breakouts/+1.8VDC_RGB*%
X119062000Y-78225000D02*
X117275000Y-78225000D01*
X116500000Y-82850000D02*
X117075000Y-83425000D01*
X127100000Y-60500000D02*
X122600000Y-65000000D01*
X119062000Y-83425000D02*
X117075000Y-83425000D01*
X117275000Y-78225000D02*
X116500000Y-79000000D01*
X116500000Y-79000000D02*
X116500000Y-75500000D01*
X116500000Y-79000000D02*
X116500000Y-82850000D01*
X133960000Y-60500000D02*
X127100000Y-60500000D01*
X116500000Y-75500000D02*
X117000000Y-75000000D01*
%TO.N,Net-(D1-A)*%
X125500000Y-69500000D02*
X122025000Y-69500000D01*
D25*
%TO.N,/RGB Signalling/SIG_IN_RGB2*%
X123950000Y-93415000D02*
X123950000Y-94550000D01*
X125050000Y-97000000D02*
X125050000Y-99585000D01*
X125050000Y-95650000D02*
X125050000Y-97000000D01*
X123950000Y-94550000D02*
X125050000Y-95650000D01*
%TO.N,/RGB Signalling/SIG_IN_RGB3*%
X123950000Y-101415000D02*
X125500000Y-102965000D01*
X125500000Y-107635000D02*
X125050000Y-108085000D01*
X125500000Y-102965000D02*
X125500000Y-107635000D01*
%TO.N,/RGB Signalling/SIG_IN_PWM0*%
X121500000Y-76000000D02*
X120637000Y-76000000D01*
X120637000Y-76000000D02*
X119062000Y-77575000D01*
D26*
%TO.N,/Coral Micro Breakouts/+1.8VDC_TOF*%
X165000000Y-50200000D02*
X165000000Y-57600000D01*
X165000000Y-57600000D02*
X162000000Y-60600000D01*
X159800000Y-45000000D02*
X165000000Y-50200000D01*
X143993398Y-45000000D02*
X159800000Y-45000000D01*
X141070916Y-42077518D02*
X143993398Y-45000000D01*
D25*
%TO.N,/Coral Micro Breakouts/SDA*%
X155600000Y-47000000D02*
X155600000Y-79600000D01*
X155600000Y-79600000D02*
X162000000Y-86000000D01*
%TO.N,/Coral Micro Breakouts/SCL*%
X141057478Y-46652777D02*
X138452777Y-46652777D01*
X138452777Y-46652777D02*
X137800000Y-46000000D01*
%TD*%
%TA.AperFunction,Conductor*%
%TO.N,GND*%
G36*
X121907654Y-99251185D02*
G01*
X121928296Y-99267819D01*
X122479724Y-99819247D01*
X122550753Y-99890276D01*
X122637746Y-99940501D01*
X122734775Y-99966500D01*
X122991474Y-99966500D01*
X123058513Y-99986185D01*
X123104268Y-100038989D01*
X123107656Y-100047167D01*
X123156202Y-100177328D01*
X123156206Y-100177335D01*
X123242452Y-100292544D01*
X123242455Y-100292547D01*
X123357664Y-100378793D01*
X123357666Y-100378794D01*
X123357669Y-100378796D01*
X123365629Y-100381765D01*
X123371133Y-100383818D01*
X123427066Y-100425690D01*
X123451483Y-100491154D01*
X123436631Y-100559427D01*
X123387225Y-100608832D01*
X123371133Y-100616182D01*
X123357670Y-100621203D01*
X123357664Y-100621206D01*
X123242455Y-100707452D01*
X123242452Y-100707455D01*
X123156206Y-100822664D01*
X123156202Y-100822671D01*
X123105908Y-100957517D01*
X123099501Y-101017116D01*
X123099500Y-101017135D01*
X123099500Y-101812870D01*
X123099501Y-101812876D01*
X123105908Y-101872483D01*
X123156202Y-102007328D01*
X123156206Y-102007335D01*
X123242452Y-102122544D01*
X123242455Y-102122547D01*
X123357664Y-102208793D01*
X123357671Y-102208797D01*
X123492517Y-102259091D01*
X123492516Y-102259091D01*
X123495307Y-102259391D01*
X123552127Y-102265500D01*
X124347872Y-102265499D01*
X124407483Y-102259091D01*
X124407485Y-102259090D01*
X124407487Y-102259090D01*
X124415031Y-102257308D01*
X124415523Y-102259391D01*
X124474264Y-102255185D01*
X124535590Y-102288665D01*
X125259981Y-103013056D01*
X125293466Y-103074379D01*
X125296300Y-103100737D01*
X125296300Y-107110500D01*
X125276615Y-107177539D01*
X125223811Y-107223294D01*
X125172300Y-107234500D01*
X124652129Y-107234500D01*
X124652123Y-107234501D01*
X124592516Y-107240908D01*
X124543332Y-107259253D01*
X124473640Y-107264237D01*
X124456667Y-107259253D01*
X124407482Y-107240908D01*
X124407483Y-107240908D01*
X124347883Y-107234501D01*
X124347881Y-107234500D01*
X124347873Y-107234500D01*
X124347864Y-107234500D01*
X123552129Y-107234500D01*
X123552123Y-107234501D01*
X123492516Y-107240908D01*
X123357671Y-107291202D01*
X123357664Y-107291206D01*
X123242455Y-107377452D01*
X123242452Y-107377455D01*
X123156206Y-107492664D01*
X123156203Y-107492669D01*
X123108446Y-107620713D01*
X123066574Y-107676646D01*
X123001110Y-107701063D01*
X122932837Y-107686211D01*
X122904583Y-107665060D01*
X122284248Y-107044725D01*
X122284247Y-107044724D01*
X122197254Y-106994499D01*
X122197255Y-106994499D01*
X122172996Y-106987999D01*
X122100225Y-106968500D01*
X122100222Y-106968500D01*
X119639138Y-106968500D01*
X119572099Y-106948815D01*
X119526344Y-106896011D01*
X119520758Y-106881407D01*
X119487765Y-106775527D01*
X119398660Y-106628130D01*
X119398658Y-106628128D01*
X119398657Y-106628126D01*
X119276873Y-106506342D01*
X119276870Y-106506340D01*
X119129473Y-106417235D01*
X119129467Y-106417233D01*
X119096109Y-106406838D01*
X119037961Y-106368100D01*
X119009988Y-106304075D01*
X119009000Y-106288453D01*
X119009000Y-100148453D01*
X119028685Y-100081414D01*
X119068850Y-100042336D01*
X119149370Y-99993660D01*
X119271160Y-99871870D01*
X119360265Y-99724473D01*
X119411506Y-99560035D01*
X119418000Y-99488572D01*
X119418000Y-99355500D01*
X119437685Y-99288461D01*
X119490489Y-99242706D01*
X119542000Y-99231500D01*
X121840615Y-99231500D01*
X121907654Y-99251185D01*
G37*
%TD.AperFunction*%
%TA.AperFunction,Conductor*%
G36*
X123058513Y-91986185D02*
G01*
X123104268Y-92038989D01*
X123107656Y-92047167D01*
X123156202Y-92177328D01*
X123156206Y-92177335D01*
X123242452Y-92292544D01*
X123242455Y-92292547D01*
X123357664Y-92378793D01*
X123357666Y-92378794D01*
X123357669Y-92378796D01*
X123365629Y-92381765D01*
X123371133Y-92383818D01*
X123427066Y-92425690D01*
X123451483Y-92491154D01*
X123436631Y-92559427D01*
X123387225Y-92608832D01*
X123371133Y-92616182D01*
X123357670Y-92621203D01*
X123357664Y-92621206D01*
X123242455Y-92707452D01*
X123242452Y-92707455D01*
X123156206Y-92822664D01*
X123156202Y-92822671D01*
X123105908Y-92957517D01*
X123099501Y-93017116D01*
X123099500Y-93017135D01*
X123099500Y-93812870D01*
X123099501Y-93812876D01*
X123105908Y-93872483D01*
X123156202Y-94007328D01*
X123156206Y-94007335D01*
X123242452Y-94122544D01*
X123242455Y-94122547D01*
X123357664Y-94208793D01*
X123357671Y-94208797D01*
X123402618Y-94225561D01*
X123492517Y-94259091D01*
X123552127Y-94265500D01*
X123622300Y-94265499D01*
X123689338Y-94285183D01*
X123735094Y-94337986D01*
X123746300Y-94389499D01*
X123746300Y-94590517D01*
X123746301Y-94590522D01*
X123777308Y-94665384D01*
X123852049Y-94740125D01*
X123852055Y-94740130D01*
X124809981Y-95698056D01*
X124843466Y-95759379D01*
X124846300Y-95785737D01*
X124846300Y-98610500D01*
X124826615Y-98677539D01*
X124773811Y-98723294D01*
X124722302Y-98734500D01*
X124652130Y-98734500D01*
X124652123Y-98734501D01*
X124592516Y-98740908D01*
X124543332Y-98759253D01*
X124473640Y-98764237D01*
X124456667Y-98759253D01*
X124407482Y-98740908D01*
X124407483Y-98740908D01*
X124347883Y-98734501D01*
X124347881Y-98734500D01*
X124347873Y-98734500D01*
X124347864Y-98734500D01*
X123552129Y-98734500D01*
X123552123Y-98734501D01*
X123492516Y-98740908D01*
X123357671Y-98791202D01*
X123357664Y-98791206D01*
X123242455Y-98877452D01*
X123242452Y-98877455D01*
X123156206Y-98992664D01*
X123156203Y-98992669D01*
X123108446Y-99120713D01*
X123066574Y-99176646D01*
X123001110Y-99201063D01*
X122932837Y-99186211D01*
X122904583Y-99165060D01*
X122284248Y-98544725D01*
X122284247Y-98544724D01*
X122236225Y-98516999D01*
X122236225Y-98516997D01*
X122236222Y-98516997D01*
X122197259Y-98494501D01*
X122197258Y-98494500D01*
X122189301Y-98492368D01*
X122100225Y-98468500D01*
X122100222Y-98468500D01*
X119511638Y-98468500D01*
X119444599Y-98448815D01*
X119398844Y-98396011D01*
X119393258Y-98381407D01*
X119360265Y-98275527D01*
X119271160Y-98128130D01*
X119271158Y-98128128D01*
X119271157Y-98128126D01*
X119149374Y-98006343D01*
X119149370Y-98006340D01*
X119068849Y-97957662D01*
X119021662Y-97906134D01*
X119009000Y-97851546D01*
X119009000Y-92211546D01*
X119028685Y-92144507D01*
X119081489Y-92098752D01*
X119096105Y-92093162D01*
X119129473Y-92082765D01*
X119276870Y-91993660D01*
X119276877Y-91993652D01*
X119277857Y-91992886D01*
X119278713Y-91992544D01*
X119283289Y-91989779D01*
X119283749Y-91990540D01*
X119342771Y-91967040D01*
X119354327Y-91966500D01*
X122991474Y-91966500D01*
X123058513Y-91986185D01*
G37*
%TD.AperFunction*%
%TA.AperFunction,Conductor*%
G36*
X116525722Y-33519685D02*
G01*
X116571477Y-33572489D01*
X116581421Y-33641647D01*
X116552396Y-33705203D01*
X116506136Y-33738561D01*
X116401954Y-33781714D01*
X116401943Y-33781719D01*
X116197545Y-33899730D01*
X116010302Y-34043406D01*
X116010295Y-34043412D01*
X115843412Y-34210295D01*
X115843406Y-34210302D01*
X115699730Y-34397545D01*
X115581719Y-34601943D01*
X115581714Y-34601954D01*
X115491394Y-34820006D01*
X115430306Y-35047989D01*
X115399501Y-35281979D01*
X115399500Y-35281995D01*
X115399500Y-35518004D01*
X115399501Y-35518020D01*
X115430306Y-35752010D01*
X115491394Y-35979993D01*
X115581714Y-36198045D01*
X115581719Y-36198056D01*
X115643767Y-36305525D01*
X115699727Y-36402450D01*
X115699729Y-36402453D01*
X115699730Y-36402454D01*
X115843406Y-36589697D01*
X115843412Y-36589704D01*
X116010295Y-36756587D01*
X116010302Y-36756593D01*
X116043946Y-36782409D01*
X116197550Y-36900273D01*
X116328918Y-36976118D01*
X116401943Y-37018280D01*
X116401948Y-37018282D01*
X116401951Y-37018284D01*
X116620007Y-37108606D01*
X116847986Y-37169693D01*
X117081989Y-37200500D01*
X117081996Y-37200500D01*
X117318004Y-37200500D01*
X117318011Y-37200500D01*
X117552014Y-37169693D01*
X117779993Y-37108606D01*
X117998049Y-37018284D01*
X118202450Y-36900273D01*
X118389699Y-36756592D01*
X118556592Y-36589699D01*
X118700273Y-36402450D01*
X118701690Y-36399996D01*
X137227945Y-36399996D01*
X137227945Y-36400003D01*
X137247301Y-36571795D01*
X137304402Y-36734983D01*
X137396382Y-36881367D01*
X137518632Y-37003617D01*
X137575885Y-37039592D01*
X137665018Y-37095598D01*
X137828202Y-37152698D01*
X137885468Y-37159150D01*
X137999996Y-37172055D01*
X138000000Y-37172055D01*
X138000004Y-37172055D01*
X138098170Y-37160993D01*
X138171798Y-37152698D01*
X138334982Y-37095598D01*
X138481368Y-37003617D01*
X138603617Y-36881368D01*
X138695598Y-36734982D01*
X138724866Y-36651335D01*
X138765587Y-36594560D01*
X138830540Y-36568812D01*
X138841908Y-36568290D01*
X140273677Y-36568290D01*
X140340716Y-36587975D01*
X140386471Y-36640779D01*
X140397677Y-36692290D01*
X140397677Y-37039592D01*
X140402821Y-37111530D01*
X140443359Y-37249584D01*
X140521144Y-37370620D01*
X140521148Y-37370624D01*
X140629396Y-37464422D01*
X140629883Y-37464844D01*
X140670351Y-37483325D01*
X140760757Y-37524613D01*
X140760760Y-37524613D01*
X140760761Y-37524614D01*
X140903177Y-37545090D01*
X140903180Y-37545090D01*
X142253177Y-37545090D01*
X142325117Y-37539945D01*
X142463169Y-37499409D01*
X142584209Y-37421621D01*
X142678431Y-37312884D01*
X142738201Y-37182006D01*
X142758677Y-37039592D01*
X144590295Y-37039592D01*
X144595435Y-37111460D01*
X144635929Y-37249371D01*
X144713640Y-37370293D01*
X144822271Y-37464422D01*
X144822272Y-37464423D01*
X144953016Y-37524133D01*
X144953020Y-37524134D01*
X145095296Y-37544589D01*
X145095298Y-37544590D01*
X145520295Y-37544590D01*
X146020295Y-37544590D01*
X146445295Y-37544590D01*
X146445297Y-37544589D01*
X146517165Y-37539449D01*
X146655076Y-37498955D01*
X146775998Y-37421244D01*
X146870127Y-37312613D01*
X146870128Y-37312612D01*
X146929838Y-37181868D01*
X146929839Y-37181864D01*
X146950294Y-37039588D01*
X146950295Y-37039587D01*
X146950295Y-36114590D01*
X146020295Y-36114590D01*
X146020295Y-37544590D01*
X145520295Y-37544590D01*
X145520295Y-36114590D01*
X144590295Y-36114590D01*
X144590295Y-37039592D01*
X142758677Y-37039592D01*
X142758677Y-37039590D01*
X142758677Y-34689591D01*
X144590295Y-34689591D01*
X144590295Y-35614590D01*
X145520295Y-35614590D01*
X146020295Y-35614590D01*
X146950295Y-35614590D01*
X146950295Y-34689590D01*
X146950294Y-34689587D01*
X146945154Y-34617719D01*
X146904660Y-34479808D01*
X146826949Y-34358886D01*
X146718318Y-34264757D01*
X146718317Y-34264756D01*
X146587573Y-34205046D01*
X146587569Y-34205045D01*
X146445293Y-34184590D01*
X146020295Y-34184590D01*
X146020295Y-35614590D01*
X145520295Y-35614590D01*
X145520295Y-34184590D01*
X145095292Y-34184590D01*
X145023424Y-34189730D01*
X144885513Y-34230224D01*
X144764591Y-34307935D01*
X144670462Y-34416566D01*
X144670461Y-34416567D01*
X144610751Y-34547311D01*
X144610750Y-34547315D01*
X144590295Y-34689591D01*
X142758677Y-34689591D01*
X142758677Y-34689590D01*
X142753532Y-34617650D01*
X142712996Y-34479598D01*
X142635208Y-34358558D01*
X142576786Y-34307935D01*
X142526476Y-34264340D01*
X142526474Y-34264338D01*
X142526471Y-34264336D01*
X142526467Y-34264334D01*
X142395596Y-34204566D01*
X142395591Y-34204565D01*
X142253177Y-34184090D01*
X140903177Y-34184090D01*
X140903174Y-34184090D01*
X140831236Y-34189234D01*
X140693182Y-34229772D01*
X140572146Y-34307557D01*
X140572142Y-34307561D01*
X140477927Y-34416290D01*
X140477921Y-34416299D01*
X140418153Y-34547170D01*
X140418152Y-34547175D01*
X140397677Y-34689589D01*
X140397677Y-36036890D01*
X140377992Y-36103929D01*
X140325188Y-36149684D01*
X140273677Y-36160890D01*
X138817128Y-36160890D01*
X138750089Y-36141205D01*
X138704334Y-36088401D01*
X138700086Y-36077843D01*
X138695598Y-36065019D01*
X138695598Y-36065018D01*
X138603617Y-35918632D01*
X138481368Y-35796383D01*
X138481367Y-35796382D01*
X138334983Y-35704402D01*
X138171795Y-35647301D01*
X138000004Y-35627945D01*
X137999996Y-35627945D01*
X137828204Y-35647301D01*
X137665016Y-35704402D01*
X137518632Y-35796382D01*
X137396382Y-35918632D01*
X137304402Y-36065016D01*
X137247301Y-36228204D01*
X137227945Y-36399996D01*
X118701690Y-36399996D01*
X118818284Y-36198049D01*
X118908606Y-35979993D01*
X118969693Y-35752014D01*
X119000500Y-35518011D01*
X119000500Y-35281989D01*
X118969693Y-35047986D01*
X118908606Y-34820007D01*
X118818284Y-34601951D01*
X118818282Y-34601948D01*
X118818280Y-34601943D01*
X118768613Y-34515919D01*
X118700273Y-34397550D01*
X118631219Y-34307557D01*
X118556593Y-34210302D01*
X118556587Y-34210295D01*
X118389704Y-34043412D01*
X118389697Y-34043406D01*
X118202454Y-33899730D01*
X118202453Y-33899729D01*
X118202450Y-33899727D01*
X118120957Y-33852677D01*
X117998056Y-33781719D01*
X117998045Y-33781714D01*
X117893864Y-33738561D01*
X117839461Y-33694720D01*
X117817396Y-33628426D01*
X117834675Y-33560727D01*
X117885812Y-33513116D01*
X117941317Y-33500000D01*
X169458683Y-33500000D01*
X169525722Y-33519685D01*
X169571477Y-33572489D01*
X169581421Y-33641647D01*
X169552396Y-33705203D01*
X169506136Y-33738561D01*
X169401954Y-33781714D01*
X169401943Y-33781719D01*
X169197545Y-33899730D01*
X169010302Y-34043406D01*
X169010295Y-34043412D01*
X168843412Y-34210295D01*
X168843406Y-34210302D01*
X168699730Y-34397545D01*
X168581719Y-34601943D01*
X168581714Y-34601954D01*
X168491394Y-34820006D01*
X168430306Y-35047989D01*
X168399501Y-35281979D01*
X168399500Y-35281995D01*
X168399500Y-35518004D01*
X168399501Y-35518020D01*
X168430306Y-35752010D01*
X168491394Y-35979993D01*
X168581714Y-36198045D01*
X168581719Y-36198056D01*
X168643767Y-36305525D01*
X168699727Y-36402450D01*
X168699729Y-36402453D01*
X168699730Y-36402454D01*
X168843406Y-36589697D01*
X168843412Y-36589704D01*
X169010295Y-36756587D01*
X169010302Y-36756593D01*
X169043946Y-36782409D01*
X169197550Y-36900273D01*
X169328918Y-36976118D01*
X169401943Y-37018280D01*
X169401948Y-37018282D01*
X169401951Y-37018284D01*
X169620007Y-37108606D01*
X169847986Y-37169693D01*
X170081989Y-37200500D01*
X170081996Y-37200500D01*
X170318004Y-37200500D01*
X170318011Y-37200500D01*
X170552014Y-37169693D01*
X170779993Y-37108606D01*
X170998049Y-37018284D01*
X171202450Y-36900273D01*
X171389699Y-36756592D01*
X171556592Y-36589699D01*
X171700273Y-36402450D01*
X171768613Y-36284080D01*
X171819180Y-36235865D01*
X171887787Y-36222642D01*
X171952652Y-36248611D01*
X171993180Y-36305525D01*
X172000000Y-36346081D01*
X172000000Y-117053918D01*
X171980315Y-117120957D01*
X171927511Y-117166712D01*
X171858353Y-117176656D01*
X171794797Y-117147631D01*
X171768613Y-117115919D01*
X171700273Y-116997550D01*
X171700267Y-116997542D01*
X171556593Y-116810302D01*
X171556587Y-116810295D01*
X171389704Y-116643412D01*
X171389697Y-116643406D01*
X171202454Y-116499730D01*
X171202453Y-116499729D01*
X171202450Y-116499727D01*
X171120957Y-116452677D01*
X170998056Y-116381719D01*
X170998045Y-116381714D01*
X170779993Y-116291394D01*
X170552010Y-116230306D01*
X170318020Y-116199501D01*
X170318017Y-116199500D01*
X170318011Y-116199500D01*
X170081989Y-116199500D01*
X170081983Y-116199500D01*
X170081979Y-116199501D01*
X169847989Y-116230306D01*
X169620006Y-116291394D01*
X169401954Y-116381714D01*
X169401943Y-116381719D01*
X169197545Y-116499730D01*
X169010302Y-116643406D01*
X169010295Y-116643412D01*
X168843412Y-116810295D01*
X168843406Y-116810302D01*
X168699730Y-116997545D01*
X168581719Y-117201943D01*
X168581714Y-117201954D01*
X168491394Y-117420006D01*
X168430306Y-117647989D01*
X168399501Y-117881979D01*
X168399500Y-117881995D01*
X168399500Y-118118004D01*
X168399501Y-118118020D01*
X168430306Y-118352010D01*
X168491394Y-118579993D01*
X168581714Y-118798045D01*
X168581719Y-118798056D01*
X168643767Y-118905525D01*
X168699727Y-119002450D01*
X168699729Y-119002453D01*
X168699730Y-119002454D01*
X168843406Y-119189697D01*
X168843412Y-119189704D01*
X169010295Y-119356587D01*
X169010301Y-119356592D01*
X169197550Y-119500273D01*
X169328918Y-119576118D01*
X169401943Y-119618280D01*
X169401948Y-119618282D01*
X169401951Y-119618284D01*
X169620007Y-119708606D01*
X169797726Y-119756225D01*
X169857385Y-119792590D01*
X169887914Y-119855437D01*
X169879619Y-119924813D01*
X169835134Y-119978691D01*
X169768582Y-119999965D01*
X169765631Y-120000000D01*
X117634369Y-120000000D01*
X117567330Y-119980315D01*
X117521575Y-119927511D01*
X117511631Y-119858353D01*
X117540656Y-119794797D01*
X117599434Y-119757023D01*
X117602231Y-119756237D01*
X117779993Y-119708606D01*
X117998049Y-119618284D01*
X118202450Y-119500273D01*
X118389699Y-119356592D01*
X118556592Y-119189699D01*
X118700273Y-119002450D01*
X118818284Y-118798049D01*
X118908606Y-118579993D01*
X118969693Y-118352014D01*
X119000500Y-118118011D01*
X119000500Y-117881989D01*
X118976231Y-117697648D01*
X141299500Y-117697648D01*
X141299500Y-117902351D01*
X141331522Y-118104534D01*
X141394781Y-118299223D01*
X141487715Y-118481613D01*
X141608028Y-118647213D01*
X141752786Y-118791971D01*
X141879567Y-118884081D01*
X141918390Y-118912287D01*
X142034607Y-118971503D01*
X142100776Y-119005218D01*
X142100778Y-119005218D01*
X142100781Y-119005220D01*
X142205137Y-119039127D01*
X142295465Y-119068477D01*
X142396557Y-119084488D01*
X142497648Y-119100500D01*
X142497649Y-119100500D01*
X142702351Y-119100500D01*
X142702352Y-119100500D01*
X142904534Y-119068477D01*
X143099219Y-119005220D01*
X143281610Y-118912287D01*
X143404997Y-118822642D01*
X143447213Y-118791971D01*
X143447215Y-118791968D01*
X143447219Y-118791966D01*
X143591966Y-118647219D01*
X143591968Y-118647215D01*
X143591971Y-118647213D01*
X143644732Y-118574590D01*
X143712287Y-118481610D01*
X143805220Y-118299219D01*
X143868477Y-118104534D01*
X143900500Y-117902352D01*
X143900500Y-117897648D01*
X152299500Y-117897648D01*
X152299500Y-118102351D01*
X152331522Y-118304534D01*
X152394781Y-118499223D01*
X152487715Y-118681613D01*
X152608028Y-118847213D01*
X152752786Y-118991971D01*
X152858090Y-119068477D01*
X152918390Y-119112287D01*
X153034607Y-119171503D01*
X153100776Y-119205218D01*
X153100778Y-119205218D01*
X153100781Y-119205220D01*
X153205137Y-119239127D01*
X153295465Y-119268477D01*
X153396557Y-119284488D01*
X153497648Y-119300500D01*
X153497649Y-119300500D01*
X153702351Y-119300500D01*
X153702352Y-119300500D01*
X153904534Y-119268477D01*
X154099219Y-119205220D01*
X154281610Y-119112287D01*
X154374590Y-119044732D01*
X154447213Y-118991971D01*
X154447215Y-118991968D01*
X154447219Y-118991966D01*
X154591966Y-118847219D01*
X154591968Y-118847215D01*
X154591971Y-118847213D01*
X154644732Y-118774590D01*
X154712287Y-118681610D01*
X154805220Y-118499219D01*
X154868477Y-118304534D01*
X154900500Y-118102352D01*
X154900500Y-117897648D01*
X154868477Y-117695466D01*
X154805220Y-117500781D01*
X154805218Y-117500778D01*
X154805218Y-117500776D01*
X154771503Y-117434607D01*
X154712287Y-117318390D01*
X154699490Y-117300776D01*
X154591971Y-117152786D01*
X154447213Y-117008028D01*
X154281613Y-116887715D01*
X154281612Y-116887714D01*
X154281610Y-116887713D01*
X154224653Y-116858691D01*
X154099223Y-116794781D01*
X153904534Y-116731522D01*
X153729995Y-116703878D01*
X153702352Y-116699500D01*
X153497648Y-116699500D01*
X153473329Y-116703351D01*
X153295465Y-116731522D01*
X153100776Y-116794781D01*
X152918386Y-116887715D01*
X152752786Y-117008028D01*
X152608028Y-117152786D01*
X152487715Y-117318386D01*
X152394781Y-117500776D01*
X152331522Y-117695465D01*
X152299500Y-117897648D01*
X143900500Y-117897648D01*
X143900500Y-117697648D01*
X143868477Y-117495466D01*
X143805220Y-117300781D01*
X143805218Y-117300778D01*
X143805218Y-117300776D01*
X143754865Y-117201954D01*
X143712287Y-117118390D01*
X143665446Y-117053918D01*
X143591971Y-116952786D01*
X143447213Y-116808028D01*
X143281613Y-116687715D01*
X143281612Y-116687714D01*
X143281610Y-116687713D01*
X143194653Y-116643406D01*
X143099223Y-116594781D01*
X142904534Y-116531522D01*
X142729995Y-116503878D01*
X142702352Y-116499500D01*
X142497648Y-116499500D01*
X142473329Y-116503351D01*
X142295465Y-116531522D01*
X142100776Y-116594781D01*
X141918386Y-116687715D01*
X141752786Y-116808028D01*
X141608028Y-116952786D01*
X141487715Y-117118386D01*
X141394781Y-117300776D01*
X141331522Y-117495465D01*
X141299500Y-117697648D01*
X118976231Y-117697648D01*
X118969693Y-117647986D01*
X118908606Y-117420007D01*
X118818284Y-117201951D01*
X118818282Y-117201948D01*
X118818280Y-117201943D01*
X118768613Y-117115919D01*
X118700273Y-116997550D01*
X118556592Y-116810301D01*
X118556587Y-116810295D01*
X118389704Y-116643412D01*
X118389697Y-116643406D01*
X118202454Y-116499730D01*
X118202453Y-116499729D01*
X118202450Y-116499727D01*
X118120957Y-116452677D01*
X117998056Y-116381719D01*
X117998045Y-116381714D01*
X117779993Y-116291394D01*
X117552010Y-116230306D01*
X117318020Y-116199501D01*
X117318017Y-116199500D01*
X117318011Y-116199500D01*
X117081989Y-116199500D01*
X117081983Y-116199500D01*
X117081979Y-116199501D01*
X116847989Y-116230306D01*
X116620006Y-116291394D01*
X116401954Y-116381714D01*
X116401943Y-116381719D01*
X116197545Y-116499730D01*
X116010302Y-116643406D01*
X116010295Y-116643412D01*
X115843412Y-116810295D01*
X115843406Y-116810302D01*
X115699730Y-116997545D01*
X115581719Y-117201943D01*
X115581714Y-117201954D01*
X115491394Y-117420006D01*
X115430306Y-117647989D01*
X115399501Y-117881979D01*
X115399500Y-117881995D01*
X115399500Y-118118004D01*
X115399501Y-118118020D01*
X115430306Y-118352010D01*
X115491394Y-118579993D01*
X115581714Y-118798045D01*
X115581719Y-118798056D01*
X115643767Y-118905525D01*
X115699727Y-119002450D01*
X115699729Y-119002453D01*
X115699730Y-119002454D01*
X115843406Y-119189697D01*
X115843412Y-119189704D01*
X116010295Y-119356587D01*
X116010301Y-119356592D01*
X116197550Y-119500273D01*
X116328918Y-119576118D01*
X116401943Y-119618280D01*
X116401948Y-119618282D01*
X116401951Y-119618284D01*
X116620007Y-119708606D01*
X116797726Y-119756225D01*
X116857385Y-119792590D01*
X116887914Y-119855437D01*
X116879619Y-119924813D01*
X116835134Y-119978691D01*
X116768582Y-119999965D01*
X116765631Y-120000000D01*
X115124000Y-120000000D01*
X115056961Y-119980315D01*
X115011206Y-119927511D01*
X115000000Y-119876000D01*
X115000000Y-111551317D01*
X133257966Y-111551317D01*
X133257966Y-111551322D01*
X133277048Y-111903274D01*
X133334073Y-112251113D01*
X133334074Y-112251116D01*
X133428366Y-112590728D01*
X133428367Y-112590730D01*
X133558828Y-112918164D01*
X133558837Y-112918182D01*
X133723935Y-113229589D01*
X133921738Y-113521326D01*
X133921745Y-113521336D01*
X134149925Y-113789969D01*
X134149926Y-113789970D01*
X134405820Y-114032366D01*
X134686422Y-114245674D01*
X134988442Y-114427394D01*
X134988446Y-114427395D01*
X134988450Y-114427398D01*
X135308328Y-114575390D01*
X135308332Y-114575390D01*
X135308339Y-114575394D01*
X135642362Y-114687939D01*
X135986595Y-114763711D01*
X136337003Y-114801820D01*
X136337009Y-114801820D01*
X136689471Y-114801820D01*
X136689477Y-114801820D01*
X137039885Y-114763711D01*
X137384118Y-114687939D01*
X137718141Y-114575394D01*
X137718148Y-114575390D01*
X137718151Y-114575390D01*
X138038029Y-114427398D01*
X138038038Y-114427394D01*
X138340058Y-114245674D01*
X138620660Y-114032366D01*
X138876554Y-113789970D01*
X139104741Y-113521328D01*
X139302545Y-113229589D01*
X139467647Y-112918174D01*
X139598111Y-112590734D01*
X139692408Y-112251108D01*
X139749431Y-111903277D01*
X139768514Y-111551320D01*
X139768514Y-111551317D01*
X156257966Y-111551317D01*
X156257966Y-111551322D01*
X156277048Y-111903274D01*
X156334073Y-112251113D01*
X156334074Y-112251116D01*
X156428366Y-112590728D01*
X156428367Y-112590730D01*
X156558828Y-112918164D01*
X156558837Y-112918182D01*
X156723935Y-113229589D01*
X156921738Y-113521326D01*
X156921745Y-113521336D01*
X157149925Y-113789969D01*
X157149926Y-113789970D01*
X157405820Y-114032366D01*
X157686422Y-114245674D01*
X157988442Y-114427394D01*
X157988446Y-114427395D01*
X157988450Y-114427398D01*
X158308328Y-114575390D01*
X158308332Y-114575390D01*
X158308339Y-114575394D01*
X158642362Y-114687939D01*
X158986595Y-114763711D01*
X159337003Y-114801820D01*
X159337009Y-114801820D01*
X159689471Y-114801820D01*
X159689477Y-114801820D01*
X160039885Y-114763711D01*
X160384118Y-114687939D01*
X160718141Y-114575394D01*
X160718148Y-114575390D01*
X160718151Y-114575390D01*
X161038029Y-114427398D01*
X161038038Y-114427394D01*
X161340058Y-114245674D01*
X161620660Y-114032366D01*
X161876554Y-113789970D01*
X162104741Y-113521328D01*
X162302545Y-113229589D01*
X162467647Y-112918174D01*
X162598111Y-112590734D01*
X162692408Y-112251108D01*
X162749431Y-111903277D01*
X162768514Y-111551320D01*
X162749431Y-111199363D01*
X162692408Y-110851532D01*
X162649944Y-110698591D01*
X162598113Y-110511911D01*
X162598112Y-110511909D01*
X162596190Y-110507086D01*
X162518806Y-110312866D01*
X162467651Y-110184475D01*
X162467642Y-110184457D01*
X162457327Y-110165000D01*
X162302545Y-109873051D01*
X162104741Y-109581312D01*
X162104737Y-109581307D01*
X162104734Y-109581303D01*
X161876554Y-109312670D01*
X161620660Y-109070274D01*
X161620653Y-109070268D01*
X161620650Y-109070266D01*
X161430463Y-108925690D01*
X161340058Y-108856966D01*
X161340055Y-108856964D01*
X161038042Y-108675248D01*
X161038029Y-108675241D01*
X160718151Y-108527249D01*
X160718146Y-108527248D01*
X160718143Y-108527247D01*
X160718141Y-108527246D01*
X160586443Y-108482872D01*
X160384120Y-108414701D01*
X160039883Y-108338928D01*
X159689478Y-108300820D01*
X159689477Y-108300820D01*
X159337003Y-108300820D01*
X159337001Y-108300820D01*
X158986596Y-108338928D01*
X158642359Y-108414701D01*
X158308333Y-108527248D01*
X158308328Y-108527249D01*
X157988450Y-108675241D01*
X157988437Y-108675248D01*
X157686424Y-108856964D01*
X157405829Y-109070266D01*
X157405820Y-109070274D01*
X157149925Y-109312670D01*
X156921745Y-109581303D01*
X156921738Y-109581313D01*
X156723935Y-109873050D01*
X156558837Y-110184457D01*
X156558828Y-110184475D01*
X156428367Y-110511909D01*
X156428366Y-110511911D01*
X156334074Y-110851523D01*
X156334073Y-110851526D01*
X156277048Y-111199365D01*
X156257966Y-111551317D01*
X139768514Y-111551317D01*
X139749431Y-111199363D01*
X139692408Y-110851532D01*
X139649944Y-110698591D01*
X139598113Y-110511911D01*
X139598112Y-110511909D01*
X139596190Y-110507086D01*
X139518806Y-110312866D01*
X139467651Y-110184475D01*
X139467642Y-110184457D01*
X139457327Y-110165000D01*
X139302545Y-109873051D01*
X139104741Y-109581312D01*
X139104737Y-109581307D01*
X139104734Y-109581303D01*
X138876554Y-109312670D01*
X138620660Y-109070274D01*
X138620653Y-109070268D01*
X138620650Y-109070266D01*
X138430463Y-108925690D01*
X138340058Y-108856966D01*
X138340055Y-108856964D01*
X138038042Y-108675248D01*
X138038029Y-108675241D01*
X137718151Y-108527249D01*
X137718146Y-108527248D01*
X137718143Y-108527247D01*
X137718141Y-108527246D01*
X137586443Y-108482872D01*
X137384120Y-108414701D01*
X137039883Y-108338928D01*
X136689478Y-108300820D01*
X136689477Y-108300820D01*
X136337003Y-108300820D01*
X136337001Y-108300820D01*
X135986596Y-108338928D01*
X135642359Y-108414701D01*
X135308333Y-108527248D01*
X135308328Y-108527249D01*
X134988450Y-108675241D01*
X134988437Y-108675248D01*
X134686424Y-108856964D01*
X134405829Y-109070266D01*
X134405820Y-109070274D01*
X134149925Y-109312670D01*
X133921745Y-109581303D01*
X133921738Y-109581313D01*
X133723935Y-109873050D01*
X133558837Y-110184457D01*
X133558828Y-110184475D01*
X133428367Y-110511909D01*
X133428366Y-110511911D01*
X133334074Y-110851523D01*
X133334073Y-110851526D01*
X133277048Y-111199365D01*
X133257966Y-111551317D01*
X115000000Y-111551317D01*
X115000000Y-107988535D01*
X116455000Y-107988535D01*
X116461489Y-108059945D01*
X116512692Y-108224264D01*
X116601738Y-108371563D01*
X116723436Y-108493261D01*
X116870736Y-108582307D01*
X116870735Y-108582307D01*
X117035055Y-108633510D01*
X117035053Y-108633510D01*
X117106465Y-108640000D01*
X117122500Y-108640000D01*
X117122500Y-107750000D01*
X116455000Y-107750000D01*
X116455000Y-107988535D01*
X115000000Y-107988535D01*
X115000000Y-107011464D01*
X116455000Y-107011464D01*
X116455000Y-107250000D01*
X117122500Y-107250000D01*
X117122500Y-106360000D01*
X117106465Y-106360000D01*
X117035054Y-106366489D01*
X116870735Y-106417692D01*
X116723436Y-106506738D01*
X116601738Y-106628436D01*
X116512692Y-106775735D01*
X116461489Y-106940054D01*
X116455000Y-107011464D01*
X115000000Y-107011464D01*
X115000000Y-99488535D01*
X116327500Y-99488535D01*
X116333989Y-99559945D01*
X116385192Y-99724264D01*
X116474238Y-99871563D01*
X116595936Y-99993261D01*
X116743236Y-100082307D01*
X116743235Y-100082307D01*
X116907555Y-100133510D01*
X116907553Y-100133510D01*
X116978965Y-100140000D01*
X116995000Y-100140000D01*
X116995000Y-99250000D01*
X116327500Y-99250000D01*
X116327500Y-99488535D01*
X115000000Y-99488535D01*
X115000000Y-98511464D01*
X116327500Y-98511464D01*
X116327500Y-98750000D01*
X116995000Y-98750000D01*
X116995000Y-97860000D01*
X117495000Y-97860000D01*
X117495000Y-100140000D01*
X117511035Y-100140000D01*
X117582445Y-100133510D01*
X117746763Y-100082307D01*
X117807867Y-100045369D01*
X117875421Y-100027533D01*
X117936166Y-100045368D01*
X117998027Y-100082765D01*
X118025751Y-100091404D01*
X118084964Y-100109856D01*
X118143111Y-100148593D01*
X118155460Y-100166241D01*
X118194721Y-100234243D01*
X118194725Y-100234248D01*
X118209681Y-100249204D01*
X118243166Y-100310527D01*
X118246000Y-100336885D01*
X118246000Y-106288453D01*
X118226315Y-106355492D01*
X118173511Y-106401247D01*
X118158891Y-106406838D01*
X118125530Y-106417233D01*
X118063666Y-106454631D01*
X117996111Y-106472466D01*
X117935368Y-106454630D01*
X117874268Y-106417694D01*
X117874264Y-106417692D01*
X117709944Y-106366489D01*
X117709946Y-106366489D01*
X117638535Y-106360000D01*
X117622500Y-106360000D01*
X117622500Y-108640000D01*
X117638535Y-108640000D01*
X117709945Y-108633510D01*
X117874263Y-108582307D01*
X117935367Y-108545369D01*
X118002921Y-108527533D01*
X118063666Y-108545368D01*
X118124769Y-108582307D01*
X118125529Y-108582766D01*
X118183693Y-108600890D01*
X118289965Y-108634006D01*
X118361428Y-108640500D01*
X118361431Y-108640500D01*
X118893569Y-108640500D01*
X118893572Y-108640500D01*
X118965035Y-108634006D01*
X119129473Y-108582765D01*
X119276870Y-108493660D01*
X119398660Y-108371870D01*
X119487765Y-108224473D01*
X119539006Y-108060035D01*
X119545500Y-107988572D01*
X119545500Y-107855500D01*
X119565185Y-107788461D01*
X119617989Y-107742706D01*
X119669500Y-107731500D01*
X121840615Y-107731500D01*
X121907654Y-107751185D01*
X121928296Y-107767819D01*
X122479724Y-108319247D01*
X122550753Y-108390276D01*
X122637746Y-108440501D01*
X122734775Y-108466500D01*
X122835225Y-108466500D01*
X122991474Y-108466500D01*
X123058513Y-108486185D01*
X123104268Y-108538989D01*
X123107656Y-108547167D01*
X123156202Y-108677328D01*
X123156206Y-108677335D01*
X123242452Y-108792544D01*
X123242455Y-108792547D01*
X123357664Y-108878793D01*
X123357666Y-108878794D01*
X123357669Y-108878796D01*
X123365629Y-108881765D01*
X123371133Y-108883818D01*
X123427066Y-108925690D01*
X123451483Y-108991154D01*
X123436631Y-109059427D01*
X123387225Y-109108832D01*
X123371133Y-109116182D01*
X123357670Y-109121203D01*
X123357664Y-109121206D01*
X123242455Y-109207452D01*
X123242452Y-109207455D01*
X123156206Y-109322664D01*
X123156202Y-109322671D01*
X123105908Y-109457517D01*
X123099501Y-109517116D01*
X123099500Y-109517135D01*
X123099500Y-110312870D01*
X123099501Y-110312876D01*
X123105908Y-110372483D01*
X123156202Y-110507328D01*
X123156206Y-110507335D01*
X123242452Y-110622544D01*
X123242455Y-110622547D01*
X123357664Y-110708793D01*
X123357671Y-110708797D01*
X123492517Y-110759091D01*
X123492516Y-110759091D01*
X123499444Y-110759835D01*
X123552127Y-110765500D01*
X124347872Y-110765499D01*
X124407483Y-110759091D01*
X124457382Y-110740479D01*
X124527069Y-110735494D01*
X124544048Y-110740479D01*
X124592628Y-110758598D01*
X124592627Y-110758598D01*
X124652155Y-110764999D01*
X124652172Y-110765000D01*
X124800000Y-110765000D01*
X125300000Y-110765000D01*
X125447828Y-110765000D01*
X125447844Y-110764999D01*
X125507372Y-110758598D01*
X125507379Y-110758596D01*
X125642086Y-110708354D01*
X125642093Y-110708350D01*
X125757187Y-110622190D01*
X125757190Y-110622187D01*
X125843350Y-110507093D01*
X125843354Y-110507086D01*
X125893596Y-110372379D01*
X125893598Y-110372372D01*
X125899999Y-110312844D01*
X125900000Y-110312827D01*
X125900000Y-110165000D01*
X125300000Y-110165000D01*
X125300000Y-110765000D01*
X124800000Y-110765000D01*
X124800000Y-110324167D01*
X124800427Y-110316188D01*
X124800322Y-110316183D01*
X124800497Y-110312898D01*
X124800500Y-110312873D01*
X124800499Y-110038997D01*
X124820183Y-109971961D01*
X124872987Y-109926206D01*
X124924499Y-109915000D01*
X125050000Y-109915000D01*
X125050000Y-109789000D01*
X125069685Y-109721961D01*
X125122489Y-109676206D01*
X125174000Y-109665000D01*
X125900000Y-109665000D01*
X125900000Y-109517172D01*
X125899999Y-109517155D01*
X125893598Y-109457627D01*
X125893596Y-109457620D01*
X125843354Y-109322913D01*
X125843350Y-109322906D01*
X125757190Y-109207812D01*
X125757187Y-109207809D01*
X125642093Y-109121649D01*
X125642083Y-109121644D01*
X125628150Y-109116447D01*
X125572217Y-109074575D01*
X125547801Y-109009111D01*
X125562654Y-108940838D01*
X125612059Y-108891433D01*
X125628156Y-108884083D01*
X125642327Y-108878798D01*
X125642329Y-108878796D01*
X125642331Y-108878796D01*
X125757546Y-108792546D01*
X125843796Y-108677331D01*
X125894091Y-108542483D01*
X125900500Y-108482873D01*
X125900499Y-107687128D01*
X125894091Y-107627517D01*
X125891553Y-107620713D01*
X125843797Y-107492671D01*
X125843793Y-107492664D01*
X125757547Y-107377455D01*
X125757545Y-107377453D01*
X125753383Y-107374337D01*
X125711515Y-107318401D01*
X125703700Y-107275075D01*
X125703700Y-102924482D01*
X125703698Y-102924477D01*
X125672691Y-102849615D01*
X125608322Y-102785246D01*
X125608315Y-102785240D01*
X125299756Y-102476681D01*
X125266271Y-102415358D01*
X125271255Y-102345666D01*
X125313127Y-102289733D01*
X125378591Y-102265316D01*
X125387437Y-102265000D01*
X125447828Y-102265000D01*
X125447844Y-102264999D01*
X125507372Y-102258598D01*
X125507379Y-102258596D01*
X125642086Y-102208354D01*
X125642093Y-102208350D01*
X125757187Y-102122190D01*
X125757190Y-102122187D01*
X125843350Y-102007093D01*
X125843354Y-102007086D01*
X125893596Y-101872379D01*
X125893598Y-101872372D01*
X125899999Y-101812844D01*
X125900000Y-101812827D01*
X125900000Y-101665000D01*
X125174000Y-101665000D01*
X125106961Y-101645315D01*
X125061206Y-101592511D01*
X125050000Y-101541000D01*
X125050000Y-101289000D01*
X125069685Y-101221961D01*
X125122489Y-101176206D01*
X125174000Y-101165000D01*
X125900000Y-101165000D01*
X125900000Y-101017172D01*
X125899999Y-101017155D01*
X125893598Y-100957627D01*
X125893596Y-100957620D01*
X125843354Y-100822913D01*
X125843350Y-100822906D01*
X125757190Y-100707812D01*
X125757187Y-100707809D01*
X125642093Y-100621649D01*
X125642083Y-100621644D01*
X125628150Y-100616447D01*
X125572217Y-100574575D01*
X125547801Y-100509111D01*
X125562654Y-100440838D01*
X125612059Y-100391433D01*
X125628156Y-100384083D01*
X125642327Y-100378798D01*
X125642329Y-100378796D01*
X125642331Y-100378796D01*
X125757546Y-100292546D01*
X125843796Y-100177331D01*
X125894091Y-100042483D01*
X125900500Y-99982873D01*
X125900499Y-99187128D01*
X125894091Y-99127517D01*
X125891553Y-99120713D01*
X125843797Y-98992671D01*
X125843793Y-98992664D01*
X125757547Y-98877455D01*
X125757544Y-98877452D01*
X125642335Y-98791206D01*
X125642328Y-98791202D01*
X125507482Y-98740908D01*
X125507483Y-98740908D01*
X125447883Y-98734501D01*
X125447881Y-98734500D01*
X125447873Y-98734500D01*
X125447865Y-98734500D01*
X125377700Y-98734500D01*
X125310661Y-98714815D01*
X125264906Y-98662011D01*
X125253700Y-98610500D01*
X125253700Y-95704961D01*
X125253701Y-95704952D01*
X125253701Y-95609482D01*
X125253700Y-95609478D01*
X125232129Y-95557403D01*
X125232128Y-95557400D01*
X125232128Y-95557401D01*
X125222689Y-95534614D01*
X125222689Y-95534613D01*
X125165387Y-95477311D01*
X125158322Y-95470246D01*
X125158315Y-95470240D01*
X124190019Y-94501944D01*
X124156534Y-94440621D01*
X124153700Y-94414263D01*
X124153700Y-94389499D01*
X124173385Y-94322460D01*
X124226189Y-94276705D01*
X124277700Y-94265499D01*
X124347871Y-94265499D01*
X124347872Y-94265499D01*
X124407483Y-94259091D01*
X124457382Y-94240479D01*
X124527069Y-94235494D01*
X124544048Y-94240479D01*
X124592628Y-94258598D01*
X124592627Y-94258598D01*
X124652155Y-94264999D01*
X124652172Y-94265000D01*
X124800000Y-94265000D01*
X125300000Y-94265000D01*
X125447828Y-94265000D01*
X125447844Y-94264999D01*
X125507372Y-94258598D01*
X125507379Y-94258596D01*
X125642086Y-94208354D01*
X125642093Y-94208350D01*
X125757187Y-94122190D01*
X125757190Y-94122187D01*
X125843350Y-94007093D01*
X125843354Y-94007086D01*
X125893596Y-93872379D01*
X125893598Y-93872372D01*
X125899999Y-93812844D01*
X125900000Y-93812827D01*
X125900000Y-93665000D01*
X125300000Y-93665000D01*
X125300000Y-94265000D01*
X124800000Y-94265000D01*
X124800000Y-93824167D01*
X124800427Y-93816188D01*
X124800322Y-93816183D01*
X124800497Y-93812898D01*
X124800500Y-93812873D01*
X124800499Y-93538997D01*
X124820183Y-93471961D01*
X124872987Y-93426206D01*
X124924499Y-93415000D01*
X125050000Y-93415000D01*
X125050000Y-93289000D01*
X125069685Y-93221961D01*
X125122489Y-93176206D01*
X125174000Y-93165000D01*
X125900000Y-93165000D01*
X125900000Y-93017172D01*
X125899999Y-93017155D01*
X125893598Y-92957627D01*
X125893596Y-92957620D01*
X125843354Y-92822913D01*
X125843350Y-92822906D01*
X125757190Y-92707812D01*
X125757187Y-92707809D01*
X125642093Y-92621649D01*
X125642083Y-92621644D01*
X125628150Y-92616447D01*
X125572217Y-92574575D01*
X125547801Y-92509111D01*
X125562654Y-92440838D01*
X125612059Y-92391433D01*
X125628156Y-92384083D01*
X125642327Y-92378798D01*
X125642329Y-92378796D01*
X125642331Y-92378796D01*
X125757546Y-92292546D01*
X125843796Y-92177331D01*
X125894091Y-92042483D01*
X125900500Y-91982873D01*
X125900500Y-91912700D01*
X125920185Y-91845661D01*
X125972989Y-91799906D01*
X126024500Y-91788700D01*
X129206788Y-91788700D01*
X129273827Y-91808385D01*
X129311782Y-91846728D01*
X129396382Y-91981367D01*
X129518632Y-92103617D01*
X129635952Y-92177335D01*
X129665018Y-92195598D01*
X129828202Y-92252698D01*
X129885468Y-92259150D01*
X129999996Y-92272055D01*
X130000000Y-92272055D01*
X130000004Y-92272055D01*
X130098170Y-92260993D01*
X130171798Y-92252698D01*
X130334982Y-92195598D01*
X130481368Y-92103617D01*
X130603617Y-91981368D01*
X130695598Y-91834982D01*
X130752698Y-91671798D01*
X130772055Y-91500000D01*
X130770767Y-91488572D01*
X130752698Y-91328204D01*
X130752698Y-91328202D01*
X130695598Y-91165018D01*
X130672034Y-91127517D01*
X130603617Y-91018632D01*
X130481367Y-90896382D01*
X130334983Y-90804402D01*
X130192103Y-90754407D01*
X130171798Y-90747302D01*
X130171797Y-90747301D01*
X130171795Y-90747301D01*
X130000004Y-90727945D01*
X129999996Y-90727945D01*
X129828204Y-90747301D01*
X129665016Y-90804402D01*
X129518632Y-90896382D01*
X129396382Y-91018632D01*
X129304402Y-91165016D01*
X129257781Y-91298254D01*
X129217059Y-91355030D01*
X129152106Y-91380778D01*
X129140739Y-91381300D01*
X126024499Y-91381300D01*
X125957460Y-91361615D01*
X125911705Y-91308811D01*
X125900499Y-91257300D01*
X125900499Y-91187129D01*
X125900498Y-91187123D01*
X125900142Y-91183815D01*
X125894091Y-91127517D01*
X125843796Y-90992669D01*
X125843795Y-90992668D01*
X125843793Y-90992664D01*
X125757547Y-90877455D01*
X125757544Y-90877452D01*
X125642335Y-90791206D01*
X125642328Y-90791202D01*
X125507482Y-90740908D01*
X125507483Y-90740908D01*
X125447883Y-90734501D01*
X125447881Y-90734500D01*
X125447873Y-90734500D01*
X125447864Y-90734500D01*
X124652129Y-90734500D01*
X124652123Y-90734501D01*
X124592516Y-90740908D01*
X124543332Y-90759253D01*
X124473640Y-90764237D01*
X124456667Y-90759253D01*
X124407482Y-90740908D01*
X124407483Y-90740908D01*
X124347883Y-90734501D01*
X124347881Y-90734500D01*
X124347873Y-90734500D01*
X124347864Y-90734500D01*
X123552129Y-90734500D01*
X123552123Y-90734501D01*
X123492516Y-90740908D01*
X123357671Y-90791202D01*
X123357664Y-90791206D01*
X123242455Y-90877452D01*
X123242452Y-90877455D01*
X123156206Y-90992664D01*
X123156202Y-90992671D01*
X123107656Y-91122833D01*
X123065785Y-91178767D01*
X123000321Y-91203184D01*
X122991474Y-91203500D01*
X119669500Y-91203500D01*
X119602461Y-91183815D01*
X119556706Y-91131011D01*
X119545500Y-91079500D01*
X119545500Y-90511430D01*
X119545500Y-90511428D01*
X119539006Y-90439965D01*
X119487765Y-90275527D01*
X119398660Y-90128130D01*
X119398658Y-90128128D01*
X119398657Y-90128126D01*
X119276873Y-90006342D01*
X119276870Y-90006340D01*
X119260439Y-89996407D01*
X119213254Y-89944881D01*
X119201415Y-89876022D01*
X119228683Y-89811693D01*
X119236900Y-89802622D01*
X121145988Y-87893535D01*
X128860000Y-87893535D01*
X128866489Y-87964945D01*
X128917692Y-88129264D01*
X129006738Y-88276563D01*
X129128436Y-88398261D01*
X129275736Y-88487307D01*
X129275735Y-88487307D01*
X129440055Y-88538510D01*
X129440053Y-88538510D01*
X129511465Y-88545000D01*
X129750000Y-88545000D01*
X130250000Y-88545000D01*
X130488535Y-88545000D01*
X130559945Y-88538510D01*
X130724264Y-88487307D01*
X130871563Y-88398261D01*
X130993261Y-88276563D01*
X131082307Y-88129264D01*
X131133510Y-87964945D01*
X131140000Y-87893535D01*
X131140000Y-87877500D01*
X130250000Y-87877500D01*
X130250000Y-88545000D01*
X129750000Y-88545000D01*
X129750000Y-87877500D01*
X128860000Y-87877500D01*
X128860000Y-87893535D01*
X121145988Y-87893535D01*
X122121704Y-86917819D01*
X122183027Y-86884334D01*
X122209385Y-86881500D01*
X127050222Y-86881500D01*
X127050225Y-86881500D01*
X127147254Y-86855501D01*
X127234247Y-86805276D01*
X127305276Y-86734247D01*
X127305276Y-86734246D01*
X128224037Y-85815483D01*
X128224042Y-85815480D01*
X128234245Y-85805276D01*
X128234247Y-85805276D01*
X128305276Y-85734247D01*
X128355501Y-85647254D01*
X128355502Y-85647253D01*
X128381501Y-85550225D01*
X128381501Y-85449775D01*
X128381501Y-85442180D01*
X128381500Y-85442162D01*
X128381500Y-79305500D01*
X128401185Y-79238461D01*
X128453989Y-79192706D01*
X128505500Y-79181500D01*
X129494500Y-79181500D01*
X129561539Y-79201185D01*
X129607294Y-79253989D01*
X129618500Y-79305500D01*
X129618500Y-85331527D01*
X129598815Y-85398566D01*
X129546011Y-85444321D01*
X129505723Y-85455018D01*
X129439963Y-85460994D01*
X129275530Y-85512233D01*
X129128126Y-85601342D01*
X129006342Y-85723126D01*
X128917233Y-85870530D01*
X128865994Y-86034963D01*
X128859500Y-86106430D01*
X128859500Y-86638568D01*
X128865994Y-86710036D01*
X128917233Y-86874470D01*
X128917235Y-86874474D01*
X128954630Y-86936333D01*
X128972466Y-87003887D01*
X128954631Y-87064630D01*
X128917693Y-87125733D01*
X128917692Y-87125735D01*
X128866489Y-87290054D01*
X128860000Y-87361464D01*
X128860000Y-87377500D01*
X131140000Y-87377500D01*
X131140000Y-87361464D01*
X131133510Y-87290054D01*
X131082307Y-87125736D01*
X131048402Y-87069650D01*
X131030566Y-87002096D01*
X131052083Y-86935622D01*
X131106124Y-86891334D01*
X131154519Y-86881500D01*
X132050222Y-86881500D01*
X132050225Y-86881500D01*
X132147254Y-86855501D01*
X132234247Y-86805276D01*
X132305276Y-86734247D01*
X132621704Y-86417819D01*
X132683027Y-86384334D01*
X132709385Y-86381500D01*
X132765885Y-86381500D01*
X132832924Y-86401185D01*
X132878267Y-86453096D01*
X132962464Y-86633658D01*
X132962468Y-86633666D01*
X133089170Y-86814615D01*
X133089175Y-86814621D01*
X133245378Y-86970824D01*
X133245384Y-86970829D01*
X133426333Y-87097531D01*
X133426335Y-87097532D01*
X133426338Y-87097534D01*
X133626550Y-87190894D01*
X133839932Y-87248070D01*
X133997123Y-87261822D01*
X134059998Y-87267323D01*
X134060000Y-87267323D01*
X134060002Y-87267323D01*
X134115017Y-87262509D01*
X134280068Y-87248070D01*
X134493450Y-87190894D01*
X134693662Y-87097534D01*
X134874620Y-86970826D01*
X135030826Y-86814620D01*
X135157534Y-86633662D01*
X135250894Y-86433450D01*
X135308070Y-86220068D01*
X135327323Y-86000000D01*
X135308070Y-85779932D01*
X135250894Y-85566550D01*
X135157534Y-85366339D01*
X135030826Y-85185380D01*
X134874620Y-85029174D01*
X134874616Y-85029171D01*
X134874615Y-85029170D01*
X134693666Y-84902468D01*
X134693658Y-84902464D01*
X134564811Y-84842382D01*
X134512371Y-84796210D01*
X134493219Y-84729017D01*
X134513435Y-84662135D01*
X134564811Y-84617618D01*
X134570802Y-84614824D01*
X134693662Y-84557534D01*
X134874620Y-84430826D01*
X135030826Y-84274620D01*
X135157534Y-84093662D01*
X135250894Y-83893450D01*
X135308070Y-83680068D01*
X135323780Y-83500499D01*
X135327323Y-83460002D01*
X135327323Y-83459997D01*
X135318360Y-83357546D01*
X135308070Y-83239932D01*
X135250894Y-83026550D01*
X135157534Y-82826339D01*
X135063453Y-82691977D01*
X135030827Y-82645381D01*
X135026061Y-82640615D01*
X134874620Y-82489174D01*
X134874616Y-82489171D01*
X134874615Y-82489170D01*
X134693666Y-82362468D01*
X134693658Y-82362464D01*
X134564811Y-82302382D01*
X134512371Y-82256210D01*
X134493219Y-82189017D01*
X134513435Y-82122135D01*
X134564811Y-82077618D01*
X134570802Y-82074824D01*
X134693662Y-82017534D01*
X134874620Y-81890826D01*
X135030826Y-81734620D01*
X135157534Y-81553662D01*
X135250894Y-81353450D01*
X135308070Y-81140068D01*
X135327323Y-80920000D01*
X135308070Y-80699932D01*
X135250894Y-80486550D01*
X135157534Y-80286339D01*
X135030826Y-80105380D01*
X134874620Y-79949174D01*
X134874616Y-79949171D01*
X134874615Y-79949170D01*
X134693666Y-79822468D01*
X134693658Y-79822464D01*
X134564811Y-79762382D01*
X134512371Y-79716210D01*
X134493219Y-79649017D01*
X134513435Y-79582135D01*
X134564811Y-79537618D01*
X134611975Y-79515625D01*
X134693662Y-79477534D01*
X134874620Y-79350826D01*
X135030826Y-79194620D01*
X135157534Y-79013662D01*
X135250894Y-78813450D01*
X135308070Y-78600068D01*
X135327323Y-78380000D01*
X135308070Y-78159932D01*
X135250894Y-77946550D01*
X135157534Y-77746339D01*
X135030826Y-77565380D01*
X134874620Y-77409174D01*
X134874616Y-77409171D01*
X134874615Y-77409170D01*
X134693666Y-77282468D01*
X134693658Y-77282464D01*
X134564811Y-77222382D01*
X134512371Y-77176210D01*
X134493219Y-77109017D01*
X134513435Y-77042135D01*
X134564811Y-76997618D01*
X134575889Y-76992452D01*
X134693662Y-76937534D01*
X134874620Y-76810826D01*
X135030826Y-76654620D01*
X135157534Y-76473662D01*
X135250894Y-76273450D01*
X135308070Y-76060068D01*
X135327323Y-75840000D01*
X135308070Y-75619932D01*
X135250894Y-75406550D01*
X135157534Y-75206339D01*
X135030826Y-75025380D01*
X134874620Y-74869174D01*
X134874616Y-74869171D01*
X134874615Y-74869170D01*
X134693666Y-74742468D01*
X134693658Y-74742464D01*
X134564811Y-74682382D01*
X134512371Y-74636210D01*
X134493219Y-74569017D01*
X134513435Y-74502135D01*
X134564811Y-74457618D01*
X134570802Y-74454824D01*
X134693662Y-74397534D01*
X134874620Y-74270826D01*
X135030826Y-74114620D01*
X135157534Y-73933662D01*
X135250894Y-73733450D01*
X135308070Y-73520068D01*
X135327323Y-73300000D01*
X135308070Y-73079932D01*
X135250894Y-72866550D01*
X135157534Y-72666339D01*
X135030826Y-72485380D01*
X134874620Y-72329174D01*
X134874616Y-72329171D01*
X134874615Y-72329170D01*
X134693666Y-72202468D01*
X134693658Y-72202464D01*
X134564811Y-72142382D01*
X134512371Y-72096210D01*
X134493219Y-72029017D01*
X134513435Y-71962135D01*
X134564811Y-71917618D01*
X134570802Y-71914824D01*
X134693662Y-71857534D01*
X134874620Y-71730826D01*
X135030826Y-71574620D01*
X135157534Y-71393662D01*
X135250894Y-71193450D01*
X135308070Y-70980068D01*
X135327323Y-70760000D01*
X135322117Y-70700499D01*
X135308070Y-70539937D01*
X135308070Y-70539932D01*
X135250894Y-70326550D01*
X135157534Y-70126339D01*
X135068302Y-69998901D01*
X135030827Y-69945381D01*
X134966946Y-69881500D01*
X134874620Y-69789174D01*
X134874616Y-69789171D01*
X134874615Y-69789170D01*
X134693666Y-69662468D01*
X134693658Y-69662464D01*
X134564811Y-69602382D01*
X134512371Y-69556210D01*
X134493219Y-69489017D01*
X134513435Y-69422135D01*
X134564811Y-69377618D01*
X134570802Y-69374824D01*
X134693662Y-69317534D01*
X134874620Y-69190826D01*
X135030826Y-69034620D01*
X135157534Y-68853662D01*
X135250894Y-68653450D01*
X135308070Y-68440068D01*
X135327323Y-68220000D01*
X135308070Y-67999932D01*
X135250894Y-67786550D01*
X135157534Y-67586339D01*
X135030826Y-67405380D01*
X134874620Y-67249174D01*
X134874616Y-67249171D01*
X134874615Y-67249170D01*
X134693666Y-67122468D01*
X134693658Y-67122464D01*
X134564811Y-67062382D01*
X134512371Y-67016210D01*
X134493219Y-66949017D01*
X134513435Y-66882135D01*
X134564811Y-66837618D01*
X134570802Y-66834824D01*
X134693662Y-66777534D01*
X134874620Y-66650826D01*
X135030826Y-66494620D01*
X135157534Y-66313662D01*
X135250894Y-66113450D01*
X135308070Y-65900068D01*
X135322509Y-65735017D01*
X135327323Y-65680002D01*
X135327323Y-65679997D01*
X135308070Y-65459937D01*
X135308070Y-65459932D01*
X135250894Y-65246550D01*
X135157534Y-65046339D01*
X135030826Y-64865380D01*
X134874620Y-64709174D01*
X134874616Y-64709171D01*
X134874615Y-64709170D01*
X134693666Y-64582468D01*
X134693658Y-64582464D01*
X134564811Y-64522382D01*
X134512371Y-64476210D01*
X134493219Y-64409017D01*
X134513435Y-64342135D01*
X134564811Y-64297618D01*
X134570802Y-64294824D01*
X134693662Y-64237534D01*
X134874620Y-64110826D01*
X135030826Y-63954620D01*
X135157534Y-63773662D01*
X135250894Y-63573450D01*
X135308070Y-63360068D01*
X135327323Y-63140000D01*
X135308070Y-62919932D01*
X135250894Y-62706550D01*
X135157534Y-62506339D01*
X135030826Y-62325380D01*
X134874620Y-62169174D01*
X134874616Y-62169171D01*
X134874615Y-62169170D01*
X134693666Y-62042468D01*
X134693658Y-62042464D01*
X134564811Y-61982382D01*
X134512371Y-61936210D01*
X134493219Y-61869017D01*
X134513435Y-61802135D01*
X134564811Y-61757618D01*
X134570802Y-61754824D01*
X134693662Y-61697534D01*
X134874620Y-61570826D01*
X135030826Y-61414620D01*
X135157534Y-61233662D01*
X135250894Y-61033450D01*
X135308070Y-60820068D01*
X135327323Y-60600000D01*
X135308070Y-60379932D01*
X135250894Y-60166550D01*
X135157534Y-59966339D01*
X135030826Y-59785380D01*
X134874620Y-59629174D01*
X134874616Y-59629171D01*
X134874615Y-59629170D01*
X134758085Y-59547575D01*
X134714460Y-59492998D01*
X134707266Y-59423500D01*
X134738789Y-59361145D01*
X134799019Y-59325731D01*
X134829208Y-59322000D01*
X134869828Y-59322000D01*
X134869844Y-59321999D01*
X134929372Y-59315598D01*
X134929379Y-59315596D01*
X135064086Y-59265354D01*
X135064093Y-59265350D01*
X135179187Y-59179190D01*
X135179190Y-59179187D01*
X135265350Y-59064093D01*
X135265354Y-59064086D01*
X135315596Y-58929379D01*
X135315598Y-58929372D01*
X135321999Y-58869844D01*
X135322000Y-58869827D01*
X135322000Y-58310000D01*
X134502251Y-58310000D01*
X134533381Y-58256081D01*
X134568000Y-58126880D01*
X134568000Y-57993120D01*
X134533381Y-57863919D01*
X134502251Y-57810000D01*
X135322000Y-57810000D01*
X135322000Y-57250172D01*
X135321999Y-57250155D01*
X135315598Y-57190627D01*
X135315596Y-57190620D01*
X135265354Y-57055913D01*
X135265350Y-57055906D01*
X135179190Y-56940812D01*
X135179187Y-56940809D01*
X135064093Y-56854649D01*
X135064086Y-56854645D01*
X134929379Y-56804403D01*
X134929372Y-56804401D01*
X134869844Y-56798000D01*
X134310000Y-56798000D01*
X134310000Y-57617748D01*
X134256081Y-57586619D01*
X134126880Y-57552000D01*
X133993120Y-57552000D01*
X133863919Y-57586619D01*
X133810000Y-57617748D01*
X133810000Y-56798000D01*
X133250155Y-56798000D01*
X133190627Y-56804401D01*
X133190620Y-56804403D01*
X133055913Y-56854645D01*
X133055906Y-56854649D01*
X132940812Y-56940809D01*
X132940809Y-56940812D01*
X132854649Y-57055906D01*
X132854645Y-57055913D01*
X132804403Y-57190620D01*
X132804401Y-57190627D01*
X132798000Y-57250155D01*
X132798000Y-57810000D01*
X133617749Y-57810000D01*
X133586619Y-57863919D01*
X133552000Y-57993120D01*
X133552000Y-58126880D01*
X133586619Y-58256081D01*
X133617749Y-58310000D01*
X132798000Y-58310000D01*
X132798000Y-58869844D01*
X132804401Y-58929372D01*
X132804403Y-58929379D01*
X132854645Y-59064086D01*
X132854649Y-59064093D01*
X132940809Y-59179187D01*
X132940812Y-59179190D01*
X133055906Y-59265350D01*
X133055913Y-59265354D01*
X133190620Y-59315596D01*
X133190627Y-59315598D01*
X133250155Y-59321999D01*
X133250172Y-59322000D01*
X133290793Y-59322000D01*
X133357832Y-59341685D01*
X133403587Y-59394489D01*
X133413531Y-59463647D01*
X133384506Y-59527203D01*
X133361916Y-59547575D01*
X133245377Y-59629175D01*
X133089175Y-59785377D01*
X132962466Y-59966338D01*
X132962463Y-59966344D01*
X132924898Y-60046904D01*
X132878726Y-60099344D01*
X132812516Y-60118500D01*
X127049775Y-60118500D01*
X126977003Y-60137999D01*
X126952745Y-60144499D01*
X126888658Y-60181500D01*
X126888657Y-60181499D01*
X126865756Y-60194721D01*
X126865751Y-60194725D01*
X122851209Y-64209266D01*
X122789886Y-64242751D01*
X122749645Y-64244805D01*
X122600004Y-64227945D01*
X122599996Y-64227945D01*
X122428204Y-64247301D01*
X122265016Y-64304402D01*
X122118632Y-64396382D01*
X121996382Y-64518632D01*
X121904402Y-64665016D01*
X121847301Y-64828204D01*
X121827945Y-64999996D01*
X121827945Y-65000003D01*
X121847301Y-65171795D01*
X121904402Y-65334983D01*
X121982917Y-65459937D01*
X121996383Y-65481368D01*
X122118632Y-65603617D01*
X122265018Y-65695598D01*
X122428202Y-65752698D01*
X122485468Y-65759150D01*
X122599996Y-65772055D01*
X122600000Y-65772055D01*
X122600004Y-65772055D01*
X122698170Y-65760993D01*
X122771798Y-65752698D01*
X122934982Y-65695598D01*
X123081368Y-65603617D01*
X123203617Y-65481368D01*
X123295598Y-65334982D01*
X123352698Y-65171798D01*
X123372055Y-65000000D01*
X123355194Y-64850353D01*
X123367248Y-64781531D01*
X123390730Y-64748791D01*
X127221704Y-60917819D01*
X127283027Y-60884334D01*
X127309385Y-60881500D01*
X132733242Y-60881500D01*
X132800281Y-60901185D01*
X132846036Y-60953989D01*
X132853017Y-60973406D01*
X132869104Y-61033444D01*
X132869105Y-61033446D01*
X132869106Y-61033450D01*
X132962466Y-61233662D01*
X132962468Y-61233666D01*
X133089170Y-61414615D01*
X133089175Y-61414621D01*
X133245378Y-61570824D01*
X133245384Y-61570829D01*
X133426333Y-61697531D01*
X133426335Y-61697532D01*
X133426338Y-61697534D01*
X133545748Y-61753215D01*
X133555189Y-61757618D01*
X133607628Y-61803790D01*
X133626780Y-61870984D01*
X133606564Y-61937865D01*
X133555189Y-61982382D01*
X133426340Y-62042465D01*
X133426338Y-62042466D01*
X133245377Y-62169175D01*
X133089175Y-62325377D01*
X132962466Y-62506338D01*
X132962465Y-62506340D01*
X132869107Y-62706548D01*
X132869104Y-62706554D01*
X132811930Y-62919929D01*
X132811929Y-62919937D01*
X132792677Y-63139997D01*
X132792677Y-63140002D01*
X132811929Y-63360062D01*
X132811930Y-63360070D01*
X132869104Y-63573445D01*
X132869105Y-63573447D01*
X132869106Y-63573450D01*
X132962464Y-63773658D01*
X132962466Y-63773662D01*
X132962468Y-63773666D01*
X133089170Y-63954615D01*
X133089175Y-63954621D01*
X133245378Y-64110824D01*
X133245384Y-64110829D01*
X133426333Y-64237531D01*
X133426335Y-64237532D01*
X133426338Y-64237534D01*
X133470286Y-64258027D01*
X133555189Y-64297618D01*
X133607628Y-64343790D01*
X133626780Y-64410984D01*
X133606564Y-64477865D01*
X133555189Y-64522382D01*
X133426340Y-64582465D01*
X133426338Y-64582466D01*
X133245377Y-64709175D01*
X133089175Y-64865377D01*
X132962466Y-65046338D01*
X132962465Y-65046340D01*
X132869107Y-65246548D01*
X132869104Y-65246554D01*
X132811930Y-65459929D01*
X132811929Y-65459937D01*
X132792677Y-65679997D01*
X132792677Y-65680002D01*
X132811929Y-65900062D01*
X132811930Y-65900070D01*
X132869104Y-66113445D01*
X132869105Y-66113447D01*
X132869106Y-66113450D01*
X132962466Y-66313662D01*
X132962468Y-66313666D01*
X133089170Y-66494615D01*
X133089175Y-66494621D01*
X133245378Y-66650824D01*
X133245384Y-66650829D01*
X133426333Y-66777531D01*
X133426335Y-66777532D01*
X133426338Y-66777534D01*
X133545748Y-66833215D01*
X133555189Y-66837618D01*
X133607628Y-66883790D01*
X133626780Y-66950984D01*
X133606564Y-67017865D01*
X133555189Y-67062382D01*
X133426340Y-67122465D01*
X133426338Y-67122466D01*
X133245377Y-67249175D01*
X133089175Y-67405377D01*
X132962466Y-67586338D01*
X132962465Y-67586340D01*
X132869107Y-67786548D01*
X132869104Y-67786554D01*
X132811930Y-67999929D01*
X132811929Y-67999937D01*
X132792677Y-68219997D01*
X132792677Y-68220002D01*
X132811929Y-68440062D01*
X132811930Y-68440070D01*
X132869104Y-68653445D01*
X132869105Y-68653447D01*
X132869106Y-68653450D01*
X132905210Y-68730875D01*
X132962466Y-68853662D01*
X132962468Y-68853666D01*
X133089170Y-69034615D01*
X133089175Y-69034621D01*
X133245378Y-69190824D01*
X133245384Y-69190829D01*
X133426333Y-69317531D01*
X133426335Y-69317532D01*
X133426338Y-69317534D01*
X133545748Y-69373215D01*
X133555189Y-69377618D01*
X133607628Y-69423790D01*
X133626780Y-69490984D01*
X133606564Y-69557865D01*
X133555189Y-69602382D01*
X133426340Y-69662465D01*
X133426338Y-69662466D01*
X133245377Y-69789175D01*
X133089175Y-69945377D01*
X132962466Y-70126338D01*
X132962465Y-70126340D01*
X132869107Y-70326548D01*
X132869104Y-70326554D01*
X132811930Y-70539929D01*
X132811929Y-70539937D01*
X132792677Y-70759997D01*
X132792677Y-70760002D01*
X132811929Y-70980062D01*
X132811930Y-70980070D01*
X132869104Y-71193445D01*
X132869105Y-71193447D01*
X132869106Y-71193450D01*
X132962466Y-71393662D01*
X132962468Y-71393666D01*
X133089170Y-71574615D01*
X133089175Y-71574621D01*
X133245378Y-71730824D01*
X133245384Y-71730829D01*
X133426333Y-71857531D01*
X133426335Y-71857532D01*
X133426338Y-71857534D01*
X133545748Y-71913215D01*
X133555189Y-71917618D01*
X133607628Y-71963790D01*
X133626780Y-72030984D01*
X133606564Y-72097865D01*
X133555189Y-72142382D01*
X133426340Y-72202465D01*
X133426338Y-72202466D01*
X133245377Y-72329175D01*
X133089175Y-72485377D01*
X132962466Y-72666338D01*
X132962465Y-72666340D01*
X132869107Y-72866548D01*
X132869104Y-72866554D01*
X132811930Y-73079929D01*
X132811929Y-73079937D01*
X132792677Y-73299997D01*
X132792677Y-73300002D01*
X132811929Y-73520062D01*
X132811930Y-73520070D01*
X132869104Y-73733445D01*
X132869105Y-73733447D01*
X132869106Y-73733450D01*
X132962466Y-73933662D01*
X132962468Y-73933666D01*
X133089170Y-74114615D01*
X133089175Y-74114621D01*
X133245378Y-74270824D01*
X133245384Y-74270829D01*
X133426333Y-74397531D01*
X133426335Y-74397532D01*
X133426338Y-74397534D01*
X133545748Y-74453215D01*
X133555189Y-74457618D01*
X133607628Y-74503790D01*
X133626780Y-74570984D01*
X133606564Y-74637865D01*
X133555189Y-74682382D01*
X133426340Y-74742465D01*
X133426338Y-74742466D01*
X133245377Y-74869175D01*
X133089175Y-75025377D01*
X132962466Y-75206338D01*
X132962465Y-75206340D01*
X132869107Y-75406548D01*
X132869104Y-75406554D01*
X132811930Y-75619929D01*
X132811929Y-75619937D01*
X132792677Y-75839997D01*
X132792677Y-75840002D01*
X132811929Y-76060062D01*
X132811930Y-76060070D01*
X132869104Y-76273445D01*
X132869105Y-76273447D01*
X132869106Y-76273450D01*
X132940379Y-76426296D01*
X132962466Y-76473662D01*
X132962468Y-76473666D01*
X133089170Y-76654615D01*
X133089175Y-76654621D01*
X133245378Y-76810824D01*
X133245384Y-76810829D01*
X133426333Y-76937531D01*
X133426335Y-76937532D01*
X133426338Y-76937534D01*
X133521981Y-76982133D01*
X133555189Y-76997618D01*
X133607628Y-77043790D01*
X133626780Y-77110984D01*
X133606564Y-77177865D01*
X133555189Y-77222382D01*
X133426340Y-77282465D01*
X133426338Y-77282466D01*
X133245377Y-77409175D01*
X133089175Y-77565377D01*
X132962466Y-77746338D01*
X132962465Y-77746340D01*
X132869107Y-77946548D01*
X132869104Y-77946554D01*
X132811930Y-78159929D01*
X132811929Y-78159937D01*
X132792677Y-78379997D01*
X132792677Y-78380002D01*
X132811929Y-78600062D01*
X132811930Y-78600070D01*
X132869104Y-78813445D01*
X132869105Y-78813447D01*
X132869106Y-78813450D01*
X132932675Y-78949775D01*
X132962466Y-79013662D01*
X132962468Y-79013666D01*
X133089170Y-79194615D01*
X133089175Y-79194621D01*
X133245378Y-79350824D01*
X133245384Y-79350829D01*
X133426333Y-79477531D01*
X133426335Y-79477532D01*
X133426338Y-79477534D01*
X133508025Y-79515625D01*
X133555189Y-79537618D01*
X133607628Y-79583790D01*
X133626780Y-79650984D01*
X133606564Y-79717865D01*
X133555189Y-79762382D01*
X133426340Y-79822465D01*
X133426338Y-79822466D01*
X133245377Y-79949175D01*
X133089175Y-80105377D01*
X132962466Y-80286338D01*
X132962465Y-80286340D01*
X132869107Y-80486548D01*
X132869104Y-80486554D01*
X132811930Y-80699929D01*
X132811929Y-80699937D01*
X132792677Y-80919997D01*
X132792677Y-80920002D01*
X132811929Y-81140062D01*
X132811930Y-81140070D01*
X132869104Y-81353445D01*
X132869105Y-81353447D01*
X132869106Y-81353450D01*
X132962466Y-81553662D01*
X132962468Y-81553666D01*
X133089170Y-81734615D01*
X133089175Y-81734621D01*
X133245378Y-81890824D01*
X133245384Y-81890829D01*
X133426333Y-82017531D01*
X133426335Y-82017532D01*
X133426338Y-82017534D01*
X133545748Y-82073215D01*
X133555189Y-82077618D01*
X133607628Y-82123790D01*
X133626780Y-82190984D01*
X133606564Y-82257865D01*
X133555189Y-82302382D01*
X133426340Y-82362465D01*
X133426338Y-82362466D01*
X133245377Y-82489175D01*
X133089175Y-82645377D01*
X132962466Y-82826338D01*
X132962465Y-82826340D01*
X132869107Y-83026548D01*
X132869106Y-83026550D01*
X132811930Y-83239929D01*
X132811929Y-83239937D01*
X132792677Y-83459997D01*
X132792677Y-83460002D01*
X132811929Y-83680062D01*
X132811930Y-83680070D01*
X132869104Y-83893445D01*
X132869105Y-83893447D01*
X132869106Y-83893450D01*
X132922142Y-84007187D01*
X132962466Y-84093662D01*
X132962468Y-84093666D01*
X133089170Y-84274615D01*
X133089175Y-84274621D01*
X133245378Y-84430824D01*
X133245384Y-84430829D01*
X133426333Y-84557531D01*
X133426335Y-84557532D01*
X133426338Y-84557534D01*
X133545748Y-84613215D01*
X133555189Y-84617618D01*
X133607628Y-84663790D01*
X133626780Y-84730984D01*
X133606564Y-84797865D01*
X133555189Y-84842382D01*
X133426340Y-84902465D01*
X133426338Y-84902466D01*
X133245377Y-85029175D01*
X133089175Y-85185377D01*
X132962466Y-85366338D01*
X132962465Y-85366340D01*
X132959538Y-85372618D01*
X132894435Y-85512233D01*
X132878267Y-85546905D01*
X132832095Y-85599344D01*
X132765885Y-85618500D01*
X132557837Y-85618500D01*
X132557821Y-85618499D01*
X132550225Y-85618499D01*
X132449775Y-85618499D01*
X132352747Y-85644498D01*
X132352745Y-85644498D01*
X132352745Y-85644499D01*
X132265753Y-85694724D01*
X132265750Y-85694726D01*
X131878296Y-86082181D01*
X131816973Y-86115666D01*
X131790615Y-86118500D01*
X131251277Y-86118500D01*
X131184238Y-86098815D01*
X131138483Y-86046011D01*
X131132892Y-86031390D01*
X131082766Y-85870530D01*
X131082765Y-85870529D01*
X131082765Y-85870527D01*
X130993660Y-85723130D01*
X130993658Y-85723128D01*
X130993657Y-85723126D01*
X130871873Y-85601342D01*
X130814327Y-85566554D01*
X130724473Y-85512235D01*
X130724471Y-85512234D01*
X130724469Y-85512233D01*
X130724470Y-85512233D01*
X130560035Y-85460994D01*
X130560037Y-85460994D01*
X130494277Y-85455018D01*
X130429294Y-85429347D01*
X130388506Y-85372618D01*
X130381500Y-85331527D01*
X130381500Y-71949777D01*
X130381500Y-71949775D01*
X130355502Y-71852747D01*
X130305276Y-71765753D01*
X128636506Y-70096983D01*
X128603021Y-70035660D01*
X128600348Y-70002985D01*
X128600497Y-70000032D01*
X128600500Y-70000009D01*
X128600499Y-68999992D01*
X128589999Y-68897203D01*
X128534814Y-68730666D01*
X128442712Y-68581344D01*
X128318656Y-68457288D01*
X128169334Y-68365186D01*
X128002797Y-68310001D01*
X128002795Y-68310000D01*
X127900010Y-68299500D01*
X127099998Y-68299500D01*
X127099980Y-68299501D01*
X126997203Y-68310000D01*
X126997200Y-68310001D01*
X126830668Y-68365185D01*
X126830663Y-68365187D01*
X126681342Y-68457289D01*
X126587681Y-68550951D01*
X126526358Y-68584436D01*
X126456666Y-68579452D01*
X126412319Y-68550951D01*
X126318657Y-68457289D01*
X126318656Y-68457288D01*
X126169334Y-68365186D01*
X126002797Y-68310001D01*
X126002795Y-68310000D01*
X125900010Y-68299500D01*
X125099998Y-68299500D01*
X125099980Y-68299501D01*
X124997203Y-68310000D01*
X124997200Y-68310001D01*
X124830668Y-68365185D01*
X124830663Y-68365187D01*
X124681342Y-68457289D01*
X124557289Y-68581342D01*
X124465187Y-68730663D01*
X124465185Y-68730668D01*
X124465115Y-68730880D01*
X124410001Y-68897203D01*
X124410001Y-68897204D01*
X124410000Y-68897204D01*
X124399500Y-68999985D01*
X124399459Y-69000800D01*
X124399400Y-69000968D01*
X124399179Y-69003132D01*
X124398661Y-69003079D01*
X124376394Y-69066752D01*
X124321334Y-69109766D01*
X124275619Y-69118500D01*
X123224380Y-69118500D01*
X123157341Y-69098815D01*
X123111586Y-69046011D01*
X123101102Y-69003103D01*
X123100820Y-69003132D01*
X123100612Y-69001098D01*
X123100540Y-69000803D01*
X123100498Y-68999981D01*
X123089999Y-68897203D01*
X123089998Y-68897200D01*
X123075571Y-68853662D01*
X123034814Y-68730666D01*
X122942712Y-68581344D01*
X122818656Y-68457288D01*
X122669334Y-68365186D01*
X122502797Y-68310001D01*
X122502795Y-68310000D01*
X122400010Y-68299500D01*
X121649998Y-68299500D01*
X121649980Y-68299501D01*
X121547203Y-68310000D01*
X121547200Y-68310001D01*
X121380668Y-68365185D01*
X121380663Y-68365187D01*
X121231342Y-68457289D01*
X121107288Y-68581343D01*
X121107283Y-68581349D01*
X121105241Y-68584661D01*
X121103247Y-68586453D01*
X121102807Y-68587011D01*
X121102711Y-68586935D01*
X121053291Y-68631383D01*
X120984328Y-68642602D01*
X120920247Y-68614755D01*
X120894168Y-68584656D01*
X120892319Y-68581659D01*
X120892316Y-68581655D01*
X120768345Y-68457684D01*
X120619124Y-68365643D01*
X120619119Y-68365641D01*
X120452697Y-68310494D01*
X120452690Y-68310493D01*
X120349986Y-68300000D01*
X120225000Y-68300000D01*
X120225000Y-70699999D01*
X120349972Y-70699999D01*
X120349986Y-70699998D01*
X120452697Y-70689505D01*
X120619119Y-70634358D01*
X120619124Y-70634356D01*
X120768345Y-70542315D01*
X120892318Y-70418342D01*
X120894165Y-70415348D01*
X120895969Y-70413724D01*
X120896798Y-70412677D01*
X120896976Y-70412818D01*
X120946110Y-70368621D01*
X121015073Y-70357396D01*
X121079156Y-70385236D01*
X121105243Y-70415341D01*
X121107288Y-70418656D01*
X121231344Y-70542712D01*
X121380666Y-70634814D01*
X121547203Y-70689999D01*
X121649991Y-70700500D01*
X122400008Y-70700499D01*
X122400016Y-70700498D01*
X122400019Y-70700498D01*
X122456302Y-70694748D01*
X122502797Y-70689999D01*
X122669334Y-70634814D01*
X122818656Y-70542712D01*
X122942712Y-70418656D01*
X123034814Y-70269334D01*
X123089999Y-70102797D01*
X123100500Y-70000009D01*
X123100500Y-69999986D01*
X123100541Y-69999200D01*
X123100599Y-69999031D01*
X123100821Y-69996868D01*
X123101338Y-69996920D01*
X123123606Y-69933248D01*
X123178666Y-69890234D01*
X123224381Y-69881500D01*
X124275620Y-69881500D01*
X124342659Y-69901185D01*
X124388414Y-69953989D01*
X124398897Y-69996896D01*
X124399180Y-69996868D01*
X124399387Y-69998901D01*
X124399460Y-69999197D01*
X124399501Y-70000018D01*
X124410000Y-70102796D01*
X124410001Y-70102799D01*
X124417802Y-70126340D01*
X124465186Y-70269334D01*
X124557288Y-70418656D01*
X124681344Y-70542712D01*
X124830666Y-70634814D01*
X124997203Y-70689999D01*
X125099991Y-70700500D01*
X125900008Y-70700499D01*
X125900016Y-70700498D01*
X125900019Y-70700498D01*
X125956302Y-70694748D01*
X126002797Y-70689999D01*
X126169334Y-70634814D01*
X126318656Y-70542712D01*
X126412319Y-70449049D01*
X126473642Y-70415564D01*
X126543334Y-70420548D01*
X126587681Y-70449049D01*
X126681344Y-70542712D01*
X126830666Y-70634814D01*
X126997203Y-70689999D01*
X127099991Y-70700500D01*
X127900008Y-70700499D01*
X127900016Y-70700498D01*
X127900019Y-70700498D01*
X127923896Y-70698058D01*
X128002797Y-70689999D01*
X128041116Y-70677301D01*
X128110944Y-70674898D01*
X128167802Y-70707325D01*
X129582181Y-72121704D01*
X129615666Y-72183027D01*
X129618500Y-72209385D01*
X129618500Y-78294500D01*
X129598815Y-78361539D01*
X129546011Y-78407294D01*
X129494500Y-78418500D01*
X128509385Y-78418500D01*
X128442346Y-78398815D01*
X128421704Y-78382181D01*
X127959249Y-77919726D01*
X127959247Y-77919724D01*
X127938045Y-77907483D01*
X127921447Y-77897900D01*
X127872256Y-77869500D01*
X127872255Y-77869499D01*
X127847996Y-77862999D01*
X127775225Y-77843500D01*
X127775222Y-77843500D01*
X126300000Y-77843500D01*
X126232961Y-77823815D01*
X126187206Y-77771011D01*
X126176000Y-77719500D01*
X126175999Y-77302129D01*
X126175998Y-77302123D01*
X126173885Y-77282468D01*
X126169591Y-77242517D01*
X126145477Y-77177865D01*
X126119297Y-77107671D01*
X126119293Y-77107664D01*
X126033047Y-76992455D01*
X126033044Y-76992452D01*
X125917835Y-76906206D01*
X125917828Y-76906202D01*
X125782983Y-76855908D01*
X125723910Y-76849557D01*
X125659359Y-76822818D01*
X125619512Y-76765425D01*
X125617019Y-76695600D01*
X125649484Y-76638589D01*
X125763865Y-76524208D01*
X125825186Y-76490725D01*
X125894878Y-76495709D01*
X125939225Y-76524210D01*
X126018632Y-76603617D01*
X126165018Y-76695598D01*
X126328202Y-76752698D01*
X126385468Y-76759150D01*
X126499996Y-76772055D01*
X126500000Y-76772055D01*
X126500004Y-76772055D01*
X126598170Y-76760993D01*
X126671798Y-76752698D01*
X126834982Y-76695598D01*
X126981368Y-76603617D01*
X127103617Y-76481368D01*
X127195598Y-76334982D01*
X127252698Y-76171798D01*
X127265288Y-76060062D01*
X127272055Y-76000003D01*
X127272055Y-75999996D01*
X127259150Y-75885468D01*
X127252698Y-75828202D01*
X127195598Y-75665018D01*
X127167268Y-75619932D01*
X127103617Y-75518632D01*
X126981367Y-75396382D01*
X126834983Y-75304402D01*
X126671795Y-75247301D01*
X126500004Y-75227945D01*
X126499996Y-75227945D01*
X126328204Y-75247301D01*
X126165016Y-75304402D01*
X126018632Y-75396382D01*
X125896382Y-75518632D01*
X125804402Y-75665016D01*
X125747301Y-75828203D01*
X125747300Y-75828206D01*
X125734836Y-75938829D01*
X125707769Y-76003243D01*
X125699297Y-76012626D01*
X124898742Y-76813181D01*
X124837419Y-76846666D01*
X124811061Y-76849500D01*
X124152629Y-76849500D01*
X124152623Y-76849501D01*
X124093016Y-76855908D01*
X123958171Y-76906202D01*
X123958164Y-76906206D01*
X123842955Y-76992452D01*
X123842952Y-76992455D01*
X123756706Y-77107664D01*
X123756702Y-77107671D01*
X123706410Y-77242513D01*
X123706409Y-77242517D01*
X123700000Y-77302127D01*
X123700000Y-77302134D01*
X123700000Y-77302135D01*
X123700000Y-77847869D01*
X123700001Y-77847878D01*
X123704179Y-77886745D01*
X123704179Y-77913250D01*
X123700000Y-77952122D01*
X123700000Y-78497869D01*
X123700001Y-78497878D01*
X123704179Y-78536745D01*
X123704179Y-78563250D01*
X123700000Y-78602122D01*
X123700000Y-79147869D01*
X123700001Y-79147878D01*
X123704179Y-79186745D01*
X123704179Y-79213250D01*
X123700000Y-79252122D01*
X123700000Y-79797869D01*
X123700001Y-79797878D01*
X123704179Y-79836745D01*
X123704179Y-79863250D01*
X123700000Y-79902122D01*
X123700000Y-80447869D01*
X123700001Y-80447878D01*
X123704179Y-80486745D01*
X123704179Y-80513250D01*
X123700000Y-80552122D01*
X123700000Y-81097869D01*
X123700001Y-81097878D01*
X123704179Y-81136745D01*
X123704179Y-81163250D01*
X123700000Y-81202122D01*
X123700000Y-81747869D01*
X123700001Y-81747878D01*
X123704179Y-81786745D01*
X123704179Y-81813250D01*
X123700000Y-81852122D01*
X123700000Y-82397869D01*
X123700001Y-82397878D01*
X123704179Y-82436745D01*
X123704179Y-82463250D01*
X123700000Y-82502122D01*
X123700000Y-83047869D01*
X123700001Y-83047880D01*
X123704431Y-83089093D01*
X123704431Y-83115596D01*
X123700500Y-83152165D01*
X123700500Y-83200000D01*
X123716111Y-83215611D01*
X123729984Y-83219685D01*
X123762211Y-83249688D01*
X123842955Y-83357547D01*
X123935376Y-83426734D01*
X123977247Y-83482668D01*
X123982231Y-83552359D01*
X123948745Y-83613682D01*
X123887422Y-83647166D01*
X123861065Y-83650000D01*
X123700500Y-83650000D01*
X123700500Y-83697844D01*
X123706901Y-83757372D01*
X123706903Y-83757379D01*
X123757145Y-83892086D01*
X123757149Y-83892093D01*
X123843309Y-84007187D01*
X123843312Y-84007190D01*
X123958406Y-84093350D01*
X123958413Y-84093354D01*
X124093120Y-84143596D01*
X124093127Y-84143598D01*
X124152655Y-84149999D01*
X124152672Y-84150000D01*
X124713000Y-84150000D01*
X124713000Y-83624499D01*
X124732685Y-83557460D01*
X124785489Y-83511705D01*
X124836997Y-83500499D01*
X125039001Y-83500499D01*
X125106039Y-83520184D01*
X125151794Y-83572988D01*
X125163000Y-83624499D01*
X125163000Y-84150000D01*
X125723328Y-84150000D01*
X125723344Y-84149999D01*
X125782872Y-84143598D01*
X125782879Y-84143596D01*
X125917586Y-84093354D01*
X125917593Y-84093350D01*
X126032687Y-84007190D01*
X126032690Y-84007187D01*
X126118850Y-83892093D01*
X126118854Y-83892086D01*
X126169096Y-83757379D01*
X126169098Y-83757372D01*
X126175499Y-83697844D01*
X126175500Y-83697827D01*
X126175500Y-83650000D01*
X126014935Y-83650000D01*
X125947896Y-83630315D01*
X125902141Y-83577511D01*
X125892197Y-83508353D01*
X125921222Y-83444797D01*
X125940624Y-83426734D01*
X125998932Y-83383083D01*
X126033046Y-83357546D01*
X126113789Y-83249688D01*
X126161605Y-83213894D01*
X126175500Y-83200000D01*
X126175500Y-83152182D01*
X126175499Y-83152164D01*
X126171568Y-83115602D01*
X126171568Y-83089093D01*
X126176000Y-83047873D01*
X126175999Y-82502128D01*
X126175999Y-82502127D01*
X126175998Y-82502111D01*
X126171820Y-82463253D01*
X126171820Y-82436745D01*
X126176000Y-82397873D01*
X126175999Y-81852128D01*
X126175999Y-81852127D01*
X126175998Y-81852111D01*
X126171820Y-81813253D01*
X126171820Y-81786745D01*
X126176000Y-81747873D01*
X126175999Y-81202128D01*
X126175999Y-81202127D01*
X126175998Y-81202111D01*
X126171820Y-81163253D01*
X126171820Y-81136745D01*
X126176000Y-81097873D01*
X126175999Y-80552128D01*
X126175999Y-80552127D01*
X126175998Y-80552111D01*
X126171820Y-80513253D01*
X126171820Y-80486745D01*
X126176000Y-80447873D01*
X126175999Y-79902128D01*
X126175999Y-79902127D01*
X126175998Y-79902111D01*
X126171820Y-79863253D01*
X126171820Y-79836745D01*
X126176000Y-79797873D01*
X126175999Y-79252128D01*
X126175999Y-79252127D01*
X126175998Y-79252111D01*
X126171820Y-79213253D01*
X126171820Y-79186745D01*
X126176000Y-79147873D01*
X126175999Y-78730499D01*
X126195683Y-78663461D01*
X126248487Y-78617706D01*
X126299999Y-78606500D01*
X127494500Y-78606500D01*
X127561539Y-78626185D01*
X127607294Y-78678989D01*
X127618500Y-78730500D01*
X127618500Y-85290615D01*
X127598815Y-85357654D01*
X127582181Y-85378296D01*
X126878296Y-86082181D01*
X126816973Y-86115666D01*
X126790615Y-86118500D01*
X121949775Y-86118500D01*
X121877003Y-86137999D01*
X121852745Y-86144499D01*
X121765754Y-86194723D01*
X121765751Y-86194725D01*
X118322225Y-89638251D01*
X118322224Y-89638253D01*
X118271999Y-89725246D01*
X118246890Y-89818954D01*
X118210524Y-89878614D01*
X118164006Y-89905244D01*
X118125530Y-89917233D01*
X118063666Y-89954631D01*
X117996111Y-89972466D01*
X117935368Y-89954630D01*
X117874268Y-89917694D01*
X117874264Y-89917692D01*
X117709944Y-89866489D01*
X117709946Y-89866489D01*
X117638535Y-89860000D01*
X117622500Y-89860000D01*
X117622500Y-92140000D01*
X117638535Y-92140000D01*
X117709945Y-92133510D01*
X117874263Y-92082307D01*
X117935367Y-92045369D01*
X118002921Y-92027533D01*
X118063666Y-92045368D01*
X118125527Y-92082765D01*
X118158889Y-92093160D01*
X118217037Y-92131897D01*
X118245012Y-92195921D01*
X118246000Y-92211546D01*
X118246000Y-97748722D01*
X118226315Y-97815761D01*
X118173511Y-97861516D01*
X118158891Y-97867107D01*
X117998030Y-97917233D01*
X117936166Y-97954631D01*
X117868611Y-97972466D01*
X117807868Y-97954630D01*
X117746768Y-97917694D01*
X117746764Y-97917692D01*
X117582444Y-97866489D01*
X117582446Y-97866489D01*
X117511035Y-97860000D01*
X117495000Y-97860000D01*
X116995000Y-97860000D01*
X116978965Y-97860000D01*
X116907554Y-97866489D01*
X116743235Y-97917692D01*
X116595936Y-98006738D01*
X116474238Y-98128436D01*
X116385192Y-98275735D01*
X116333989Y-98440054D01*
X116327500Y-98511464D01*
X115000000Y-98511464D01*
X115000000Y-91488535D01*
X116455000Y-91488535D01*
X116461489Y-91559945D01*
X116512692Y-91724264D01*
X116601738Y-91871563D01*
X116723436Y-91993261D01*
X116870736Y-92082307D01*
X116870735Y-92082307D01*
X117035055Y-92133510D01*
X117035053Y-92133510D01*
X117106465Y-92140000D01*
X117122500Y-92140000D01*
X117122500Y-91250000D01*
X116455000Y-91250000D01*
X116455000Y-91488535D01*
X115000000Y-91488535D01*
X115000000Y-90511464D01*
X116455000Y-90511464D01*
X116455000Y-90750000D01*
X117122500Y-90750000D01*
X117122500Y-89860000D01*
X117106465Y-89860000D01*
X117035054Y-89866489D01*
X116870735Y-89917692D01*
X116723436Y-90006738D01*
X116601738Y-90128436D01*
X116512692Y-90275735D01*
X116461489Y-90440054D01*
X116455000Y-90511464D01*
X115000000Y-90511464D01*
X115000000Y-75449775D01*
X116118500Y-75449775D01*
X116118500Y-78949775D01*
X116118500Y-82900225D01*
X116123665Y-82919500D01*
X116144499Y-82997255D01*
X116144500Y-82997256D01*
X116161411Y-83026548D01*
X116161413Y-83026550D01*
X116171199Y-83043500D01*
X116194721Y-83084243D01*
X116194723Y-83084246D01*
X116194724Y-83084247D01*
X116840753Y-83730276D01*
X116927747Y-83780502D01*
X117024775Y-83806501D01*
X117024778Y-83806501D01*
X117132821Y-83806501D01*
X117132837Y-83806500D01*
X117762596Y-83806500D01*
X117829635Y-83826185D01*
X117875390Y-83878989D01*
X117878779Y-83887171D01*
X117880701Y-83892327D01*
X117880706Y-83892335D01*
X117966952Y-84007544D01*
X117966955Y-84007547D01*
X118082164Y-84093793D01*
X118082171Y-84093797D01*
X118217017Y-84144091D01*
X118217016Y-84144091D01*
X118223944Y-84144835D01*
X118276627Y-84150500D01*
X119847372Y-84150499D01*
X119906983Y-84144091D01*
X120041831Y-84093796D01*
X120157046Y-84007546D01*
X120243296Y-83892331D01*
X120293591Y-83757483D01*
X120300000Y-83697873D01*
X120299999Y-83152128D01*
X120299998Y-83152111D01*
X120295820Y-83113253D01*
X120295820Y-83086747D01*
X120300000Y-83047873D01*
X120299999Y-82502128D01*
X120299999Y-82502127D01*
X120299998Y-82502111D01*
X120295820Y-82463253D01*
X120295820Y-82436745D01*
X120300000Y-82397873D01*
X120299999Y-81852128D01*
X120299999Y-81852127D01*
X120299998Y-81852111D01*
X120295820Y-81813253D01*
X120295820Y-81786745D01*
X120300000Y-81747873D01*
X120299999Y-81202128D01*
X120299999Y-81202127D01*
X120299998Y-81202111D01*
X120295820Y-81163253D01*
X120295820Y-81136745D01*
X120300000Y-81097873D01*
X120299999Y-80552128D01*
X120299999Y-80552127D01*
X120299998Y-80552111D01*
X120295820Y-80513253D01*
X120295820Y-80486745D01*
X120300000Y-80447873D01*
X120299999Y-79902128D01*
X120299999Y-79902127D01*
X120299998Y-79902111D01*
X120295820Y-79863253D01*
X120295820Y-79836745D01*
X120300000Y-79797873D01*
X120299999Y-79252128D01*
X120299999Y-79252127D01*
X120299998Y-79252111D01*
X120295820Y-79213253D01*
X120295820Y-79186745D01*
X120300000Y-79147873D01*
X120299999Y-78602128D01*
X120299999Y-78602127D01*
X120299998Y-78602111D01*
X120295820Y-78563253D01*
X120295820Y-78536745D01*
X120300000Y-78497873D01*
X120299999Y-77952128D01*
X120299999Y-77952127D01*
X120299998Y-77952111D01*
X120295820Y-77913253D01*
X120295820Y-77886745D01*
X120300000Y-77847873D01*
X120299999Y-77302128D01*
X120293591Y-77242517D01*
X120269477Y-77177865D01*
X120243297Y-77107671D01*
X120243293Y-77107664D01*
X120185822Y-77030894D01*
X120157046Y-76992454D01*
X120143256Y-76982131D01*
X120101387Y-76926199D01*
X120096403Y-76856507D01*
X120129886Y-76795187D01*
X120611757Y-76313318D01*
X120673079Y-76279834D01*
X120742771Y-76284818D01*
X120798704Y-76326690D01*
X120804429Y-76335026D01*
X120896383Y-76481368D01*
X121018632Y-76603617D01*
X121165018Y-76695598D01*
X121328202Y-76752698D01*
X121385468Y-76759150D01*
X121499996Y-76772055D01*
X121500000Y-76772055D01*
X121500004Y-76772055D01*
X121598170Y-76760993D01*
X121671798Y-76752698D01*
X121834982Y-76695598D01*
X121981368Y-76603617D01*
X122103617Y-76481368D01*
X122195598Y-76334982D01*
X122252698Y-76171798D01*
X122265288Y-76060062D01*
X122272055Y-76000003D01*
X122272055Y-75999996D01*
X122259150Y-75885468D01*
X122252698Y-75828202D01*
X122195598Y-75665018D01*
X122167268Y-75619932D01*
X122103617Y-75518632D01*
X121981367Y-75396382D01*
X121834983Y-75304402D01*
X121671795Y-75247301D01*
X121500004Y-75227945D01*
X121499996Y-75227945D01*
X121328204Y-75247301D01*
X121165016Y-75304402D01*
X121018632Y-75396382D01*
X120896382Y-75518632D01*
X120804402Y-75665016D01*
X120787524Y-75713254D01*
X120746803Y-75770030D01*
X120681850Y-75795778D01*
X120670482Y-75796300D01*
X120596481Y-75796300D01*
X120596479Y-75796300D01*
X120596477Y-75796301D01*
X120521615Y-75827308D01*
X119535742Y-76813181D01*
X119474419Y-76846666D01*
X119448061Y-76849500D01*
X118276629Y-76849500D01*
X118276623Y-76849501D01*
X118217016Y-76855908D01*
X118082171Y-76906202D01*
X118082164Y-76906206D01*
X117966955Y-76992452D01*
X117966952Y-76992455D01*
X117880706Y-77107664D01*
X117880702Y-77107671D01*
X117830410Y-77242513D01*
X117830409Y-77242517D01*
X117824000Y-77302127D01*
X117824000Y-77565381D01*
X117824001Y-77719500D01*
X117804317Y-77786539D01*
X117751513Y-77832294D01*
X117700001Y-77843500D01*
X117332837Y-77843500D01*
X117332821Y-77843499D01*
X117325225Y-77843499D01*
X117224775Y-77843499D01*
X117127747Y-77869498D01*
X117127745Y-77869498D01*
X117127745Y-77869499D01*
X117119975Y-77873984D01*
X117090979Y-77890726D01*
X117090977Y-77890726D01*
X117090977Y-77890727D01*
X117067498Y-77904282D01*
X116999597Y-77920753D01*
X116933571Y-77897900D01*
X116890381Y-77842978D01*
X116881500Y-77796894D01*
X116881500Y-75896055D01*
X116901185Y-75829016D01*
X116953989Y-75783261D01*
X116993292Y-75774710D01*
X116993081Y-75772835D01*
X117091610Y-75761732D01*
X117171798Y-75752698D01*
X117334982Y-75695598D01*
X117481368Y-75603617D01*
X117603617Y-75481368D01*
X117695598Y-75334982D01*
X117752698Y-75171798D01*
X117769195Y-75025381D01*
X117772055Y-75000003D01*
X117772055Y-74999996D01*
X117759150Y-74885468D01*
X117752698Y-74828202D01*
X117695598Y-74665018D01*
X117649673Y-74591930D01*
X117603617Y-74518632D01*
X117481367Y-74396382D01*
X117334983Y-74304402D01*
X117171795Y-74247301D01*
X117000004Y-74227945D01*
X116999996Y-74227945D01*
X116828204Y-74247301D01*
X116665016Y-74304402D01*
X116518632Y-74396382D01*
X116396382Y-74518632D01*
X116304402Y-74665016D01*
X116247301Y-74828204D01*
X116227945Y-74999996D01*
X116227945Y-75000003D01*
X116244805Y-75149645D01*
X116232750Y-75218467D01*
X116209268Y-75251207D01*
X116194725Y-75265749D01*
X116144499Y-75352745D01*
X116144499Y-75352746D01*
X116118500Y-75449775D01*
X115000000Y-75449775D01*
X115000000Y-69999986D01*
X118900001Y-69999986D01*
X118910494Y-70102697D01*
X118965641Y-70269119D01*
X118965643Y-70269124D01*
X119057684Y-70418345D01*
X119181654Y-70542315D01*
X119330875Y-70634356D01*
X119330880Y-70634358D01*
X119497302Y-70689505D01*
X119497309Y-70689506D01*
X119600019Y-70699999D01*
X119724999Y-70699999D01*
X119725000Y-70699998D01*
X119725000Y-69750000D01*
X118900001Y-69750000D01*
X118900001Y-69999986D01*
X115000000Y-69999986D01*
X115000000Y-69000013D01*
X118900000Y-69000013D01*
X118900000Y-69250000D01*
X119725000Y-69250000D01*
X119725000Y-68300000D01*
X119600027Y-68300000D01*
X119600012Y-68300001D01*
X119497302Y-68310494D01*
X119330880Y-68365641D01*
X119330875Y-68365643D01*
X119181654Y-68457684D01*
X119057684Y-68581654D01*
X118965643Y-68730875D01*
X118965641Y-68730880D01*
X118910494Y-68897302D01*
X118910493Y-68897309D01*
X118900000Y-69000013D01*
X115000000Y-69000013D01*
X115000000Y-56539999D01*
X120644341Y-56539999D01*
X120644341Y-56540000D01*
X120664936Y-56775403D01*
X120664938Y-56775413D01*
X120726094Y-57003655D01*
X120726096Y-57003659D01*
X120726097Y-57003663D01*
X120750462Y-57055913D01*
X120825965Y-57217830D01*
X120825967Y-57217834D01*
X120961501Y-57411395D01*
X120961506Y-57411402D01*
X121128597Y-57578493D01*
X121128603Y-57578498D01*
X121314158Y-57708425D01*
X121357783Y-57763002D01*
X121364977Y-57832500D01*
X121333454Y-57894855D01*
X121314158Y-57911575D01*
X121128597Y-58041505D01*
X120961505Y-58208597D01*
X120825965Y-58402169D01*
X120825964Y-58402171D01*
X120726098Y-58616335D01*
X120726094Y-58616344D01*
X120664938Y-58844586D01*
X120664936Y-58844596D01*
X120644341Y-59079999D01*
X120644341Y-59080000D01*
X120664936Y-59315403D01*
X120664938Y-59315413D01*
X120726094Y-59543655D01*
X120726096Y-59543659D01*
X120726097Y-59543663D01*
X120765970Y-59629170D01*
X120825965Y-59757830D01*
X120825967Y-59757834D01*
X120934281Y-59912521D01*
X120961505Y-59951401D01*
X121128599Y-60118495D01*
X121218578Y-60181499D01*
X121322165Y-60254032D01*
X121322167Y-60254033D01*
X121322170Y-60254035D01*
X121536337Y-60353903D01*
X121764592Y-60415063D01*
X121952918Y-60431539D01*
X121999999Y-60435659D01*
X122000000Y-60435659D01*
X122000001Y-60435659D01*
X122039234Y-60432226D01*
X122235408Y-60415063D01*
X122463663Y-60353903D01*
X122677830Y-60254035D01*
X122871401Y-60118495D01*
X123038495Y-59951401D01*
X123174035Y-59757830D01*
X123273903Y-59543663D01*
X123335063Y-59315408D01*
X123355659Y-59080000D01*
X123335063Y-58844592D01*
X123273903Y-58616337D01*
X123174035Y-58402171D01*
X123152854Y-58371920D01*
X123038494Y-58208597D01*
X122871402Y-58041506D01*
X122871396Y-58041501D01*
X122685842Y-57911575D01*
X122642217Y-57856998D01*
X122635023Y-57787500D01*
X122666546Y-57725145D01*
X122685842Y-57708425D01*
X122708026Y-57692891D01*
X122871401Y-57578495D01*
X123038495Y-57411401D01*
X123174035Y-57217830D01*
X123273903Y-57003663D01*
X123335063Y-56775408D01*
X123355659Y-56540000D01*
X123335063Y-56304592D01*
X123273903Y-56076337D01*
X123174035Y-55862171D01*
X123038495Y-55668599D01*
X122916179Y-55546283D01*
X122882696Y-55484963D01*
X122887680Y-55415271D01*
X122929551Y-55359337D01*
X122960529Y-55342422D01*
X123092086Y-55293354D01*
X123092093Y-55293350D01*
X123207187Y-55207190D01*
X123207190Y-55207187D01*
X123293350Y-55092093D01*
X123293354Y-55092086D01*
X123343596Y-54957379D01*
X123343598Y-54957372D01*
X123349999Y-54897844D01*
X123350000Y-54897827D01*
X123350000Y-54250000D01*
X122433012Y-54250000D01*
X122465925Y-54192993D01*
X122500000Y-54065826D01*
X122500000Y-53934174D01*
X122465925Y-53807007D01*
X122433012Y-53750000D01*
X123350000Y-53750000D01*
X123350000Y-53551317D01*
X133257966Y-53551317D01*
X133257966Y-53551322D01*
X133277048Y-53903274D01*
X133282114Y-53934174D01*
X133333890Y-54250000D01*
X133334073Y-54251113D01*
X133334074Y-54251116D01*
X133428366Y-54590728D01*
X133428367Y-54590730D01*
X133558828Y-54918164D01*
X133558833Y-54918174D01*
X133723935Y-55229589D01*
X133919502Y-55518029D01*
X133921738Y-55521326D01*
X133921745Y-55521336D01*
X134046832Y-55668599D01*
X134149926Y-55789970D01*
X134405820Y-56032366D01*
X134686422Y-56245674D01*
X134988442Y-56427394D01*
X134988446Y-56427395D01*
X134988450Y-56427398D01*
X135308328Y-56575390D01*
X135308332Y-56575390D01*
X135308339Y-56575394D01*
X135642362Y-56687939D01*
X135986595Y-56763711D01*
X136337003Y-56801820D01*
X136337009Y-56801820D01*
X136689471Y-56801820D01*
X136689477Y-56801820D01*
X137039885Y-56763711D01*
X137384118Y-56687939D01*
X137718141Y-56575394D01*
X137718148Y-56575390D01*
X137718151Y-56575390D01*
X138038029Y-56427398D01*
X138038038Y-56427394D01*
X138340058Y-56245674D01*
X138620660Y-56032366D01*
X138876554Y-55789970D01*
X139104741Y-55521328D01*
X139302545Y-55229589D01*
X139467647Y-54918174D01*
X139598111Y-54590734D01*
X139692408Y-54251108D01*
X139749431Y-53903277D01*
X139768514Y-53551320D01*
X139765731Y-53500000D01*
X139749431Y-53199365D01*
X139749431Y-53199363D01*
X139692408Y-52851532D01*
X139636453Y-52650000D01*
X139598113Y-52511911D01*
X139598112Y-52511909D01*
X139467651Y-52184475D01*
X139467642Y-52184457D01*
X139302544Y-51873050D01*
X139104741Y-51581312D01*
X139104737Y-51581307D01*
X139104734Y-51581303D01*
X138876554Y-51312670D01*
X138620660Y-51070274D01*
X138620653Y-51070268D01*
X138620650Y-51070266D01*
X138340055Y-50856964D01*
X138038042Y-50675248D01*
X138038029Y-50675241D01*
X137718151Y-50527249D01*
X137718146Y-50527248D01*
X137718143Y-50527247D01*
X137718141Y-50527246D01*
X137611672Y-50491372D01*
X137384120Y-50414701D01*
X137039883Y-50338928D01*
X136689478Y-50300820D01*
X136689477Y-50300820D01*
X136337003Y-50300820D01*
X136337001Y-50300820D01*
X135986596Y-50338928D01*
X135642359Y-50414701D01*
X135308333Y-50527248D01*
X135308328Y-50527249D01*
X134988450Y-50675241D01*
X134988437Y-50675248D01*
X134686424Y-50856964D01*
X134405829Y-51070266D01*
X134405820Y-51070274D01*
X134149925Y-51312670D01*
X133921745Y-51581303D01*
X133921738Y-51581313D01*
X133723935Y-51873050D01*
X133558837Y-52184457D01*
X133558828Y-52184475D01*
X133428367Y-52511909D01*
X133428366Y-52511911D01*
X133334074Y-52851523D01*
X133334073Y-52851526D01*
X133277048Y-53199365D01*
X133257966Y-53551317D01*
X123350000Y-53551317D01*
X123350000Y-53102172D01*
X123349999Y-53102155D01*
X123343598Y-53042627D01*
X123343596Y-53042620D01*
X123293354Y-52907913D01*
X123293350Y-52907906D01*
X123207190Y-52792812D01*
X123207187Y-52792809D01*
X123092093Y-52706649D01*
X123092086Y-52706645D01*
X122957379Y-52656403D01*
X122957372Y-52656401D01*
X122897844Y-52650000D01*
X122250000Y-52650000D01*
X122250000Y-53566988D01*
X122192993Y-53534075D01*
X122065826Y-53500000D01*
X121934174Y-53500000D01*
X121807007Y-53534075D01*
X121750000Y-53566988D01*
X121750000Y-52650000D01*
X121102155Y-52650000D01*
X121042627Y-52656401D01*
X121042620Y-52656403D01*
X120907913Y-52706645D01*
X120907906Y-52706649D01*
X120792812Y-52792809D01*
X120792809Y-52792812D01*
X120706649Y-52907906D01*
X120706645Y-52907913D01*
X120656403Y-53042620D01*
X120656401Y-53042627D01*
X120650000Y-53102155D01*
X120650000Y-53750000D01*
X121566988Y-53750000D01*
X121534075Y-53807007D01*
X121500000Y-53934174D01*
X121500000Y-54065826D01*
X121534075Y-54192993D01*
X121566988Y-54250000D01*
X120650000Y-54250000D01*
X120650000Y-54897844D01*
X120656401Y-54957372D01*
X120656403Y-54957379D01*
X120706645Y-55092086D01*
X120706649Y-55092093D01*
X120792809Y-55207187D01*
X120792812Y-55207190D01*
X120907906Y-55293350D01*
X120907913Y-55293354D01*
X121039470Y-55342421D01*
X121095403Y-55384292D01*
X121119821Y-55449756D01*
X121104970Y-55518029D01*
X121083819Y-55546284D01*
X120961503Y-55668600D01*
X120825965Y-55862169D01*
X120825964Y-55862171D01*
X120726098Y-56076335D01*
X120726094Y-56076344D01*
X120664938Y-56304586D01*
X120664936Y-56304596D01*
X120644341Y-56539999D01*
X115000000Y-56539999D01*
X115000000Y-45999996D01*
X137027945Y-45999996D01*
X137027945Y-46000003D01*
X137047301Y-46171795D01*
X137047301Y-46171797D01*
X137047302Y-46171798D01*
X137054407Y-46192103D01*
X137104402Y-46334983D01*
X137196382Y-46481367D01*
X137318632Y-46603617D01*
X137420467Y-46667605D01*
X137465018Y-46695598D01*
X137628202Y-46752698D01*
X137685468Y-46759150D01*
X137799996Y-46772055D01*
X137800000Y-46772055D01*
X137800004Y-46772055D01*
X137914532Y-46759150D01*
X137971798Y-46752698D01*
X137971799Y-46752698D01*
X138115177Y-46702528D01*
X138184956Y-46698966D01*
X138243813Y-46731888D01*
X138273017Y-46761092D01*
X138273020Y-46761096D01*
X138337392Y-46825468D01*
X138395294Y-46849450D01*
X138412258Y-46856477D01*
X138493296Y-46856477D01*
X138752978Y-46856477D01*
X138820017Y-46876162D01*
X138865772Y-46928966D01*
X138876978Y-46980477D01*
X138876978Y-47327779D01*
X138882122Y-47399717D01*
X138922660Y-47537771D01*
X139000445Y-47658807D01*
X139000449Y-47658811D01*
X139109178Y-47753026D01*
X139109184Y-47753031D01*
X139149652Y-47771512D01*
X139240058Y-47812800D01*
X139240061Y-47812800D01*
X139240062Y-47812801D01*
X139382478Y-47833277D01*
X139382481Y-47833277D01*
X141732478Y-47833277D01*
X141804418Y-47828132D01*
X141942470Y-47787596D01*
X142063510Y-47709808D01*
X142157732Y-47601071D01*
X142217502Y-47470193D01*
X142237978Y-47327777D01*
X142237978Y-45977777D01*
X142232833Y-45905837D01*
X142192297Y-45767785D01*
X142151611Y-45704477D01*
X142114510Y-45646746D01*
X142114506Y-45646742D01*
X142005777Y-45552527D01*
X142005775Y-45552525D01*
X142005772Y-45552523D01*
X142005768Y-45552521D01*
X141874897Y-45492753D01*
X141874892Y-45492752D01*
X141732478Y-45472277D01*
X139382478Y-45472277D01*
X139382475Y-45472277D01*
X139310537Y-45477421D01*
X139172483Y-45517959D01*
X139051447Y-45595744D01*
X139051443Y-45595748D01*
X138957228Y-45704477D01*
X138957222Y-45704486D01*
X138897454Y-45835357D01*
X138897453Y-45835362D01*
X138876978Y-45977776D01*
X138876978Y-46325077D01*
X138857293Y-46392116D01*
X138804489Y-46437871D01*
X138752978Y-46449077D01*
X138630436Y-46449077D01*
X138563397Y-46429392D01*
X138517642Y-46376588D01*
X138507698Y-46307430D01*
X138513394Y-46284123D01*
X138548924Y-46182585D01*
X138552698Y-46171798D01*
X138552698Y-46171797D01*
X138552699Y-46171795D01*
X138572055Y-46000003D01*
X138572055Y-45999996D01*
X138556865Y-45865182D01*
X138552698Y-45828202D01*
X138495598Y-45665018D01*
X138484114Y-45646742D01*
X138403617Y-45518632D01*
X138281367Y-45396382D01*
X138134983Y-45304402D01*
X137971795Y-45247301D01*
X137800004Y-45227945D01*
X137799996Y-45227945D01*
X137628204Y-45247301D01*
X137465016Y-45304402D01*
X137318632Y-45396382D01*
X137196382Y-45518632D01*
X137104402Y-45665016D01*
X137047301Y-45828204D01*
X137027945Y-45999996D01*
X115000000Y-45999996D01*
X115000000Y-41402517D01*
X138890416Y-41402517D01*
X138890416Y-42752520D01*
X138895560Y-42824458D01*
X138936098Y-42962512D01*
X139013883Y-43083548D01*
X139013885Y-43083550D01*
X139122622Y-43177772D01*
X139163090Y-43196253D01*
X139253496Y-43237541D01*
X139253499Y-43237541D01*
X139253500Y-43237542D01*
X139395916Y-43258018D01*
X141660531Y-43258018D01*
X141727570Y-43277703D01*
X141748212Y-43294337D01*
X143759151Y-45305276D01*
X143846145Y-45355502D01*
X143943173Y-45381501D01*
X143943176Y-45381501D01*
X144051219Y-45381501D01*
X144051235Y-45381500D01*
X159590615Y-45381500D01*
X159657654Y-45401185D01*
X159678296Y-45417819D01*
X164582181Y-50321703D01*
X164615666Y-50383026D01*
X164618500Y-50409384D01*
X164618500Y-57390614D01*
X164598815Y-57457653D01*
X164582181Y-57478295D01*
X163473681Y-58586795D01*
X163412358Y-58620280D01*
X163342666Y-58615296D01*
X163286733Y-58573424D01*
X163262316Y-58507960D01*
X163262000Y-58499114D01*
X163262000Y-58310000D01*
X162442251Y-58310000D01*
X162473381Y-58256081D01*
X162508000Y-58126880D01*
X162508000Y-57993120D01*
X162473381Y-57863919D01*
X162442251Y-57810000D01*
X163262000Y-57810000D01*
X163262000Y-57250172D01*
X163261999Y-57250155D01*
X163255598Y-57190627D01*
X163255596Y-57190620D01*
X163205354Y-57055913D01*
X163205350Y-57055906D01*
X163119190Y-56940812D01*
X163119187Y-56940809D01*
X163004093Y-56854649D01*
X163004086Y-56854645D01*
X162869379Y-56804403D01*
X162869372Y-56804401D01*
X162809844Y-56798000D01*
X162250000Y-56798000D01*
X162250000Y-57617748D01*
X162196081Y-57586619D01*
X162066880Y-57552000D01*
X161933120Y-57552000D01*
X161803919Y-57586619D01*
X161750000Y-57617748D01*
X161750000Y-56798000D01*
X161190155Y-56798000D01*
X161130627Y-56804401D01*
X161130620Y-56804403D01*
X160995913Y-56854645D01*
X160995906Y-56854649D01*
X160880812Y-56940809D01*
X160880809Y-56940812D01*
X160794649Y-57055906D01*
X160794645Y-57055913D01*
X160744403Y-57190620D01*
X160744401Y-57190627D01*
X160738000Y-57250155D01*
X160738000Y-57810000D01*
X161557749Y-57810000D01*
X161526619Y-57863919D01*
X161492000Y-57993120D01*
X161492000Y-58126880D01*
X161526619Y-58256081D01*
X161557749Y-58310000D01*
X160738000Y-58310000D01*
X160738000Y-58869844D01*
X160744401Y-58929372D01*
X160744403Y-58929379D01*
X160794645Y-59064086D01*
X160794649Y-59064093D01*
X160880809Y-59179187D01*
X160880812Y-59179190D01*
X160995906Y-59265350D01*
X160995913Y-59265354D01*
X161130620Y-59315596D01*
X161130627Y-59315598D01*
X161190155Y-59321999D01*
X161190172Y-59322000D01*
X161230793Y-59322000D01*
X161297832Y-59341685D01*
X161343587Y-59394489D01*
X161353531Y-59463647D01*
X161324506Y-59527203D01*
X161301916Y-59547575D01*
X161185377Y-59629175D01*
X161029175Y-59785377D01*
X160902466Y-59966338D01*
X160902465Y-59966340D01*
X160809107Y-60166548D01*
X160809104Y-60166554D01*
X160751930Y-60379929D01*
X160751929Y-60379937D01*
X160732677Y-60599997D01*
X160732677Y-60600002D01*
X160751929Y-60820062D01*
X160751930Y-60820070D01*
X160809104Y-61033445D01*
X160809105Y-61033447D01*
X160809106Y-61033450D01*
X160902466Y-61233662D01*
X160902468Y-61233666D01*
X161029170Y-61414615D01*
X161029175Y-61414621D01*
X161185378Y-61570824D01*
X161185384Y-61570829D01*
X161366333Y-61697531D01*
X161366335Y-61697532D01*
X161366338Y-61697534D01*
X161485748Y-61753215D01*
X161495189Y-61757618D01*
X161547628Y-61803790D01*
X161566780Y-61870984D01*
X161546564Y-61937865D01*
X161495189Y-61982382D01*
X161366340Y-62042465D01*
X161366338Y-62042466D01*
X161185377Y-62169175D01*
X161029175Y-62325377D01*
X160902466Y-62506338D01*
X160902465Y-62506340D01*
X160809107Y-62706548D01*
X160809104Y-62706554D01*
X160751930Y-62919929D01*
X160751929Y-62919937D01*
X160732677Y-63139997D01*
X160732677Y-63140002D01*
X160751929Y-63360062D01*
X160751930Y-63360070D01*
X160809104Y-63573445D01*
X160809105Y-63573447D01*
X160809106Y-63573450D01*
X160902464Y-63773658D01*
X160902466Y-63773662D01*
X160902468Y-63773666D01*
X161029170Y-63954615D01*
X161029175Y-63954621D01*
X161185378Y-64110824D01*
X161185384Y-64110829D01*
X161366333Y-64237531D01*
X161366335Y-64237532D01*
X161366338Y-64237534D01*
X161410286Y-64258027D01*
X161495189Y-64297618D01*
X161547628Y-64343790D01*
X161566780Y-64410984D01*
X161546564Y-64477865D01*
X161495189Y-64522382D01*
X161366340Y-64582465D01*
X161366338Y-64582466D01*
X161185377Y-64709175D01*
X161029175Y-64865377D01*
X160902466Y-65046338D01*
X160902465Y-65046340D01*
X160809107Y-65246548D01*
X160809104Y-65246554D01*
X160751930Y-65459929D01*
X160751929Y-65459937D01*
X160732677Y-65679997D01*
X160732677Y-65680002D01*
X160751929Y-65900062D01*
X160751930Y-65900070D01*
X160809104Y-66113445D01*
X160809105Y-66113447D01*
X160809106Y-66113450D01*
X160902466Y-66313662D01*
X160902468Y-66313666D01*
X161029170Y-66494615D01*
X161029175Y-66494621D01*
X161185378Y-66650824D01*
X161185384Y-66650829D01*
X161366333Y-66777531D01*
X161366335Y-66777532D01*
X161366338Y-66777534D01*
X161485748Y-66833215D01*
X161495189Y-66837618D01*
X161547628Y-66883790D01*
X161566780Y-66950984D01*
X161546564Y-67017865D01*
X161495189Y-67062382D01*
X161366340Y-67122465D01*
X161366338Y-67122466D01*
X161185377Y-67249175D01*
X161029175Y-67405377D01*
X160902466Y-67586338D01*
X160902465Y-67586340D01*
X160809107Y-67786548D01*
X160809104Y-67786554D01*
X160751930Y-67999929D01*
X160751929Y-67999937D01*
X160732677Y-68219997D01*
X160732677Y-68220002D01*
X160751929Y-68440062D01*
X160751930Y-68440070D01*
X160809104Y-68653445D01*
X160809105Y-68653447D01*
X160809106Y-68653450D01*
X160845210Y-68730875D01*
X160902466Y-68853662D01*
X160902468Y-68853666D01*
X161029170Y-69034615D01*
X161029175Y-69034621D01*
X161185378Y-69190824D01*
X161185384Y-69190829D01*
X161366333Y-69317531D01*
X161366335Y-69317532D01*
X161366338Y-69317534D01*
X161485748Y-69373215D01*
X161495189Y-69377618D01*
X161547628Y-69423790D01*
X161566780Y-69490984D01*
X161546564Y-69557865D01*
X161495189Y-69602382D01*
X161366340Y-69662465D01*
X161366338Y-69662466D01*
X161185377Y-69789175D01*
X161029175Y-69945377D01*
X160902466Y-70126338D01*
X160902465Y-70126340D01*
X160809107Y-70326548D01*
X160809104Y-70326554D01*
X160751930Y-70539929D01*
X160751929Y-70539937D01*
X160732677Y-70759997D01*
X160732677Y-70760002D01*
X160751929Y-70980062D01*
X160751930Y-70980070D01*
X160809104Y-71193445D01*
X160809105Y-71193447D01*
X160809106Y-71193450D01*
X160902466Y-71393662D01*
X160902468Y-71393666D01*
X161029170Y-71574615D01*
X161029175Y-71574621D01*
X161185378Y-71730824D01*
X161185384Y-71730829D01*
X161366333Y-71857531D01*
X161366335Y-71857532D01*
X161366338Y-71857534D01*
X161485748Y-71913215D01*
X161495189Y-71917618D01*
X161547628Y-71963790D01*
X161566780Y-72030984D01*
X161546564Y-72097865D01*
X161495189Y-72142382D01*
X161366340Y-72202465D01*
X161366338Y-72202466D01*
X161185377Y-72329175D01*
X161029175Y-72485377D01*
X160902466Y-72666338D01*
X160902465Y-72666340D01*
X160809107Y-72866548D01*
X160809104Y-72866554D01*
X160751930Y-73079929D01*
X160751929Y-73079937D01*
X160732677Y-73299997D01*
X160732677Y-73300002D01*
X160751929Y-73520062D01*
X160751930Y-73520070D01*
X160809104Y-73733445D01*
X160809105Y-73733447D01*
X160809106Y-73733450D01*
X160902466Y-73933662D01*
X160902468Y-73933666D01*
X161029170Y-74114615D01*
X161029175Y-74114621D01*
X161185378Y-74270824D01*
X161185384Y-74270829D01*
X161366333Y-74397531D01*
X161366335Y-74397532D01*
X161366338Y-74397534D01*
X161485748Y-74453215D01*
X161495189Y-74457618D01*
X161547628Y-74503790D01*
X161566780Y-74570984D01*
X161546564Y-74637865D01*
X161495189Y-74682382D01*
X161366340Y-74742465D01*
X161366338Y-74742466D01*
X161185377Y-74869175D01*
X161029175Y-75025377D01*
X160902466Y-75206338D01*
X160902465Y-75206340D01*
X160809107Y-75406548D01*
X160809104Y-75406554D01*
X160751930Y-75619929D01*
X160751929Y-75619937D01*
X160732677Y-75839997D01*
X160732677Y-75840002D01*
X160751929Y-76060062D01*
X160751930Y-76060070D01*
X160809104Y-76273445D01*
X160809105Y-76273447D01*
X160809106Y-76273450D01*
X160880379Y-76426296D01*
X160902466Y-76473662D01*
X160902468Y-76473666D01*
X161029170Y-76654615D01*
X161029175Y-76654621D01*
X161185378Y-76810824D01*
X161185384Y-76810829D01*
X161366333Y-76937531D01*
X161366335Y-76937532D01*
X161366338Y-76937534D01*
X161461981Y-76982133D01*
X161495189Y-76997618D01*
X161547628Y-77043790D01*
X161566780Y-77110984D01*
X161546564Y-77177865D01*
X161495189Y-77222382D01*
X161366340Y-77282465D01*
X161366338Y-77282466D01*
X161185377Y-77409175D01*
X161029175Y-77565377D01*
X160902466Y-77746338D01*
X160902465Y-77746340D01*
X160809107Y-77946548D01*
X160809104Y-77946554D01*
X160751930Y-78159929D01*
X160751929Y-78159937D01*
X160732677Y-78379997D01*
X160732677Y-78380002D01*
X160751929Y-78600062D01*
X160751930Y-78600070D01*
X160809104Y-78813445D01*
X160809105Y-78813447D01*
X160809106Y-78813450D01*
X160872675Y-78949775D01*
X160902466Y-79013662D01*
X160902468Y-79013666D01*
X161029170Y-79194615D01*
X161029175Y-79194621D01*
X161185378Y-79350824D01*
X161185384Y-79350829D01*
X161366333Y-79477531D01*
X161366335Y-79477532D01*
X161366338Y-79477534D01*
X161448025Y-79515625D01*
X161495189Y-79537618D01*
X161547628Y-79583790D01*
X161566780Y-79650984D01*
X161546564Y-79717865D01*
X161495189Y-79762382D01*
X161366340Y-79822465D01*
X161366338Y-79822466D01*
X161185377Y-79949175D01*
X161029175Y-80105377D01*
X160902466Y-80286338D01*
X160902465Y-80286340D01*
X160809107Y-80486548D01*
X160809104Y-80486554D01*
X160751930Y-80699929D01*
X160751929Y-80699937D01*
X160732677Y-80919997D01*
X160732677Y-80920002D01*
X160751929Y-81140062D01*
X160751930Y-81140070D01*
X160809104Y-81353445D01*
X160809105Y-81353447D01*
X160809106Y-81353450D01*
X160902466Y-81553662D01*
X160902468Y-81553666D01*
X161029170Y-81734615D01*
X161029175Y-81734621D01*
X161185378Y-81890824D01*
X161185384Y-81890829D01*
X161366333Y-82017531D01*
X161366335Y-82017532D01*
X161366338Y-82017534D01*
X161485748Y-82073215D01*
X161495189Y-82077618D01*
X161547628Y-82123790D01*
X161566780Y-82190984D01*
X161546564Y-82257865D01*
X161495189Y-82302382D01*
X161366340Y-82362465D01*
X161366338Y-82362466D01*
X161185377Y-82489175D01*
X161029175Y-82645377D01*
X160902466Y-82826338D01*
X160902465Y-82826340D01*
X160809107Y-83026548D01*
X160809106Y-83026550D01*
X160751930Y-83239929D01*
X160751929Y-83239937D01*
X160732677Y-83459997D01*
X160732677Y-83460002D01*
X160751929Y-83680062D01*
X160751930Y-83680070D01*
X160809104Y-83893445D01*
X160809105Y-83893447D01*
X160809106Y-83893450D01*
X160862142Y-84007187D01*
X160902466Y-84093662D01*
X160902468Y-84093666D01*
X161029170Y-84274615D01*
X161029175Y-84274621D01*
X161185378Y-84430824D01*
X161185384Y-84430829D01*
X161366333Y-84557531D01*
X161366335Y-84557532D01*
X161366338Y-84557534D01*
X161485748Y-84613215D01*
X161495189Y-84617618D01*
X161547628Y-84663790D01*
X161566780Y-84730984D01*
X161546564Y-84797865D01*
X161495189Y-84842382D01*
X161366337Y-84902467D01*
X161348169Y-84915188D01*
X161281962Y-84937514D01*
X161214196Y-84920501D01*
X161189367Y-84901292D01*
X155840019Y-79551944D01*
X155806534Y-79490621D01*
X155803700Y-79464263D01*
X155803700Y-53551317D01*
X156257966Y-53551317D01*
X156257966Y-53551322D01*
X156277048Y-53903274D01*
X156282114Y-53934174D01*
X156333890Y-54250000D01*
X156334073Y-54251113D01*
X156334074Y-54251116D01*
X156428366Y-54590728D01*
X156428367Y-54590730D01*
X156558828Y-54918164D01*
X156558833Y-54918174D01*
X156723935Y-55229589D01*
X156919502Y-55518029D01*
X156921738Y-55521326D01*
X156921745Y-55521336D01*
X157046832Y-55668599D01*
X157149926Y-55789970D01*
X157405820Y-56032366D01*
X157686422Y-56245674D01*
X157988442Y-56427394D01*
X157988446Y-56427395D01*
X157988450Y-56427398D01*
X158308328Y-56575390D01*
X158308332Y-56575390D01*
X158308339Y-56575394D01*
X158642362Y-56687939D01*
X158986595Y-56763711D01*
X159337003Y-56801820D01*
X159337009Y-56801820D01*
X159689471Y-56801820D01*
X159689477Y-56801820D01*
X160039885Y-56763711D01*
X160384118Y-56687939D01*
X160718141Y-56575394D01*
X160718148Y-56575390D01*
X160718151Y-56575390D01*
X161038029Y-56427398D01*
X161038038Y-56427394D01*
X161340058Y-56245674D01*
X161620660Y-56032366D01*
X161876554Y-55789970D01*
X162104741Y-55521328D01*
X162302545Y-55229589D01*
X162467647Y-54918174D01*
X162598111Y-54590734D01*
X162692408Y-54251108D01*
X162749431Y-53903277D01*
X162768514Y-53551320D01*
X162765731Y-53500000D01*
X162749431Y-53199365D01*
X162749431Y-53199363D01*
X162692408Y-52851532D01*
X162636453Y-52650000D01*
X162598113Y-52511911D01*
X162598112Y-52511909D01*
X162467651Y-52184475D01*
X162467642Y-52184457D01*
X162302544Y-51873050D01*
X162104741Y-51581312D01*
X162104737Y-51581307D01*
X162104734Y-51581303D01*
X161876554Y-51312670D01*
X161620660Y-51070274D01*
X161620653Y-51070268D01*
X161620650Y-51070266D01*
X161340055Y-50856964D01*
X161038042Y-50675248D01*
X161038029Y-50675241D01*
X160718151Y-50527249D01*
X160718146Y-50527248D01*
X160718143Y-50527247D01*
X160718141Y-50527246D01*
X160611672Y-50491372D01*
X160384120Y-50414701D01*
X160039883Y-50338928D01*
X159689478Y-50300820D01*
X159689477Y-50300820D01*
X159337003Y-50300820D01*
X159337001Y-50300820D01*
X158986596Y-50338928D01*
X158642359Y-50414701D01*
X158308333Y-50527248D01*
X158308328Y-50527249D01*
X157988450Y-50675241D01*
X157988437Y-50675248D01*
X157686424Y-50856964D01*
X157405829Y-51070266D01*
X157405820Y-51070274D01*
X157149925Y-51312670D01*
X156921745Y-51581303D01*
X156921738Y-51581313D01*
X156723935Y-51873050D01*
X156558837Y-52184457D01*
X156558828Y-52184475D01*
X156428367Y-52511909D01*
X156428366Y-52511911D01*
X156334074Y-52851523D01*
X156334073Y-52851526D01*
X156277048Y-53199365D01*
X156257966Y-53551317D01*
X155803700Y-53551317D01*
X155803700Y-49304500D01*
X155823385Y-49237461D01*
X155876189Y-49191706D01*
X155927700Y-49180500D01*
X156275000Y-49180500D01*
X156346940Y-49175355D01*
X156484992Y-49134819D01*
X156606032Y-49057031D01*
X156700254Y-48948294D01*
X156760024Y-48817416D01*
X156780500Y-48675000D01*
X156780500Y-46325000D01*
X156775355Y-46253060D01*
X156734819Y-46115008D01*
X156694133Y-46051700D01*
X156657032Y-45993969D01*
X156657028Y-45993965D01*
X156548299Y-45899750D01*
X156548297Y-45899748D01*
X156548294Y-45899746D01*
X156548290Y-45899744D01*
X156417419Y-45839976D01*
X156417414Y-45839975D01*
X156275000Y-45819500D01*
X154925000Y-45819500D01*
X154924997Y-45819500D01*
X154853059Y-45824644D01*
X154715005Y-45865182D01*
X154593969Y-45942967D01*
X154593965Y-45942971D01*
X154499750Y-46051700D01*
X154499744Y-46051709D01*
X154439976Y-46182580D01*
X154439975Y-46182585D01*
X154419500Y-46324999D01*
X154419500Y-48675002D01*
X154424644Y-48746940D01*
X154465182Y-48884994D01*
X154542967Y-49006030D01*
X154542971Y-49006034D01*
X154651700Y-49100249D01*
X154651706Y-49100254D01*
X154692174Y-49118735D01*
X154782580Y-49160023D01*
X154782583Y-49160023D01*
X154782584Y-49160024D01*
X154925000Y-49180500D01*
X155272300Y-49180500D01*
X155339339Y-49200185D01*
X155385094Y-49252989D01*
X155396300Y-49304500D01*
X155396300Y-79640517D01*
X155396301Y-79640522D01*
X155427308Y-79715384D01*
X155502049Y-79790125D01*
X155502055Y-79790130D01*
X160901292Y-85189367D01*
X160934777Y-85250690D01*
X160929793Y-85320382D01*
X160915188Y-85348169D01*
X160902466Y-85366339D01*
X160816719Y-85550225D01*
X160809107Y-85566548D01*
X160809104Y-85566554D01*
X160751930Y-85779929D01*
X160751929Y-85779937D01*
X160732677Y-85999997D01*
X160732677Y-86000002D01*
X160751929Y-86220062D01*
X160751930Y-86220070D01*
X160809104Y-86433445D01*
X160809105Y-86433447D01*
X160809106Y-86433450D01*
X160902464Y-86633658D01*
X160902466Y-86633662D01*
X160902468Y-86633666D01*
X161029170Y-86814615D01*
X161029175Y-86814621D01*
X161185378Y-86970824D01*
X161185384Y-86970829D01*
X161366333Y-87097531D01*
X161366335Y-87097532D01*
X161366338Y-87097534D01*
X161566550Y-87190894D01*
X161779932Y-87248070D01*
X161937123Y-87261822D01*
X161999998Y-87267323D01*
X162000000Y-87267323D01*
X162000002Y-87267323D01*
X162055017Y-87262509D01*
X162220068Y-87248070D01*
X162433450Y-87190894D01*
X162633662Y-87097534D01*
X162814620Y-86970826D01*
X162970826Y-86814620D01*
X163097534Y-86633662D01*
X163190894Y-86433450D01*
X163248070Y-86220068D01*
X163267323Y-86000000D01*
X163248070Y-85779932D01*
X163190894Y-85566550D01*
X163097534Y-85366339D01*
X162970826Y-85185380D01*
X162814620Y-85029174D01*
X162814616Y-85029171D01*
X162814615Y-85029170D01*
X162633666Y-84902468D01*
X162633658Y-84902464D01*
X162504811Y-84842382D01*
X162452371Y-84796210D01*
X162433219Y-84729017D01*
X162453435Y-84662135D01*
X162504811Y-84617618D01*
X162510802Y-84614824D01*
X162633662Y-84557534D01*
X162814620Y-84430826D01*
X162970826Y-84274620D01*
X163097534Y-84093662D01*
X163190894Y-83893450D01*
X163248070Y-83680068D01*
X163263780Y-83500499D01*
X163267323Y-83460002D01*
X163267323Y-83459997D01*
X163258360Y-83357546D01*
X163248070Y-83239932D01*
X163190894Y-83026550D01*
X163097534Y-82826339D01*
X163003453Y-82691977D01*
X162970827Y-82645381D01*
X162966061Y-82640615D01*
X162814620Y-82489174D01*
X162814616Y-82489171D01*
X162814615Y-82489170D01*
X162633666Y-82362468D01*
X162633658Y-82362464D01*
X162504811Y-82302382D01*
X162452371Y-82256210D01*
X162433219Y-82189017D01*
X162453435Y-82122135D01*
X162504811Y-82077618D01*
X162510802Y-82074824D01*
X162633662Y-82017534D01*
X162814620Y-81890826D01*
X162970826Y-81734620D01*
X163097534Y-81553662D01*
X163190894Y-81353450D01*
X163248070Y-81140068D01*
X163267323Y-80920000D01*
X163248070Y-80699932D01*
X163190894Y-80486550D01*
X163097534Y-80286339D01*
X162970826Y-80105380D01*
X162814620Y-79949174D01*
X162814616Y-79949171D01*
X162814615Y-79949170D01*
X162633666Y-79822468D01*
X162633658Y-79822464D01*
X162504811Y-79762382D01*
X162452371Y-79716210D01*
X162433219Y-79649017D01*
X162453435Y-79582135D01*
X162504811Y-79537618D01*
X162551975Y-79515625D01*
X162633662Y-79477534D01*
X162814620Y-79350826D01*
X162970826Y-79194620D01*
X163097534Y-79013662D01*
X163190894Y-78813450D01*
X163248070Y-78600068D01*
X163267323Y-78380000D01*
X163248070Y-78159932D01*
X163190894Y-77946550D01*
X163097534Y-77746339D01*
X162970826Y-77565380D01*
X162814620Y-77409174D01*
X162814616Y-77409171D01*
X162814615Y-77409170D01*
X162633666Y-77282468D01*
X162633658Y-77282464D01*
X162504811Y-77222382D01*
X162452371Y-77176210D01*
X162433219Y-77109017D01*
X162453435Y-77042135D01*
X162504811Y-76997618D01*
X162515889Y-76992452D01*
X162633662Y-76937534D01*
X162814620Y-76810826D01*
X162970826Y-76654620D01*
X163097534Y-76473662D01*
X163190894Y-76273450D01*
X163248070Y-76060068D01*
X163267323Y-75840000D01*
X163248070Y-75619932D01*
X163190894Y-75406550D01*
X163097534Y-75206339D01*
X162970826Y-75025380D01*
X162814620Y-74869174D01*
X162814616Y-74869171D01*
X162814615Y-74869170D01*
X162633666Y-74742468D01*
X162633658Y-74742464D01*
X162504811Y-74682382D01*
X162452371Y-74636210D01*
X162433219Y-74569017D01*
X162453435Y-74502135D01*
X162504811Y-74457618D01*
X162510802Y-74454824D01*
X162633662Y-74397534D01*
X162814620Y-74270826D01*
X162970826Y-74114620D01*
X163097534Y-73933662D01*
X163190894Y-73733450D01*
X163248070Y-73520068D01*
X163267323Y-73300000D01*
X163248070Y-73079932D01*
X163190894Y-72866550D01*
X163097534Y-72666339D01*
X162970826Y-72485380D01*
X162814620Y-72329174D01*
X162814616Y-72329171D01*
X162814615Y-72329170D01*
X162633666Y-72202468D01*
X162633658Y-72202464D01*
X162504811Y-72142382D01*
X162452371Y-72096210D01*
X162433219Y-72029017D01*
X162453435Y-71962135D01*
X162504811Y-71917618D01*
X162510802Y-71914824D01*
X162633662Y-71857534D01*
X162814620Y-71730826D01*
X162970826Y-71574620D01*
X163097534Y-71393662D01*
X163190894Y-71193450D01*
X163248070Y-70980068D01*
X163267323Y-70760000D01*
X163262117Y-70700499D01*
X163248070Y-70539937D01*
X163248070Y-70539932D01*
X163190894Y-70326550D01*
X163097534Y-70126339D01*
X163008302Y-69998901D01*
X162970827Y-69945381D01*
X162906946Y-69881500D01*
X162814620Y-69789174D01*
X162814616Y-69789171D01*
X162814615Y-69789170D01*
X162633666Y-69662468D01*
X162633658Y-69662464D01*
X162504811Y-69602382D01*
X162452371Y-69556210D01*
X162433219Y-69489017D01*
X162453435Y-69422135D01*
X162504811Y-69377618D01*
X162510802Y-69374824D01*
X162633662Y-69317534D01*
X162814620Y-69190826D01*
X162970826Y-69034620D01*
X163097534Y-68853662D01*
X163190894Y-68653450D01*
X163248070Y-68440068D01*
X163267323Y-68220000D01*
X163248070Y-67999932D01*
X163190894Y-67786550D01*
X163097534Y-67586339D01*
X162970826Y-67405380D01*
X162814620Y-67249174D01*
X162814616Y-67249171D01*
X162814615Y-67249170D01*
X162633666Y-67122468D01*
X162633658Y-67122464D01*
X162504811Y-67062382D01*
X162452371Y-67016210D01*
X162433219Y-66949017D01*
X162453435Y-66882135D01*
X162504811Y-66837618D01*
X162510802Y-66834824D01*
X162633662Y-66777534D01*
X162814620Y-66650826D01*
X162970826Y-66494620D01*
X163097534Y-66313662D01*
X163190894Y-66113450D01*
X163248070Y-65900068D01*
X163262509Y-65735017D01*
X163267323Y-65680002D01*
X163267323Y-65679997D01*
X163248070Y-65459937D01*
X163248070Y-65459932D01*
X163190894Y-65246550D01*
X163097534Y-65046339D01*
X162970826Y-64865380D01*
X162814620Y-64709174D01*
X162814616Y-64709171D01*
X162814615Y-64709170D01*
X162633666Y-64582468D01*
X162633658Y-64582464D01*
X162504811Y-64522382D01*
X162452371Y-64476210D01*
X162433219Y-64409017D01*
X162453435Y-64342135D01*
X162504811Y-64297618D01*
X162510802Y-64294824D01*
X162633662Y-64237534D01*
X162814620Y-64110826D01*
X162970826Y-63954620D01*
X163097534Y-63773662D01*
X163181733Y-63593096D01*
X163227905Y-63540656D01*
X163294115Y-63521500D01*
X165510222Y-63521500D01*
X165510225Y-63521500D01*
X165607254Y-63495501D01*
X165694247Y-63445276D01*
X165765276Y-63374247D01*
X165765276Y-63374246D01*
X169024037Y-60115483D01*
X169024042Y-60115480D01*
X169034245Y-60105276D01*
X169034247Y-60105276D01*
X169105276Y-60034247D01*
X169155501Y-59947254D01*
X169181500Y-59850225D01*
X169181500Y-42549775D01*
X169155501Y-42452746D01*
X169105276Y-42365753D01*
X169034247Y-42294724D01*
X169029916Y-42290393D01*
X169029905Y-42290383D01*
X162798838Y-36059315D01*
X162798837Y-36059314D01*
X162711844Y-36009089D01*
X162711845Y-36009089D01*
X162687586Y-36002589D01*
X162614815Y-35983090D01*
X162614812Y-35983090D01*
X152295485Y-35983090D01*
X152228446Y-35963405D01*
X152182691Y-35910601D01*
X152171485Y-35859090D01*
X152171485Y-34689590D01*
X152171485Y-34689589D01*
X152166340Y-34617650D01*
X152125804Y-34479598D01*
X152048016Y-34358558D01*
X151989594Y-34307935D01*
X151939284Y-34264340D01*
X151939282Y-34264338D01*
X151939279Y-34264336D01*
X151939275Y-34264334D01*
X151808404Y-34204566D01*
X151808399Y-34204565D01*
X151665985Y-34184090D01*
X150315985Y-34184090D01*
X150315982Y-34184090D01*
X150244044Y-34189234D01*
X150105990Y-34229772D01*
X149984954Y-34307557D01*
X149984950Y-34307561D01*
X149890735Y-34416290D01*
X149890729Y-34416299D01*
X149830961Y-34547170D01*
X149830960Y-34547175D01*
X149810485Y-34689589D01*
X149810485Y-37039592D01*
X149815629Y-37111530D01*
X149856167Y-37249584D01*
X149933952Y-37370620D01*
X149933956Y-37370624D01*
X150042204Y-37464422D01*
X150042691Y-37464844D01*
X150083159Y-37483325D01*
X150173565Y-37524613D01*
X150173568Y-37524613D01*
X150173569Y-37524614D01*
X150315985Y-37545090D01*
X150315988Y-37545090D01*
X151665985Y-37545090D01*
X151737925Y-37539945D01*
X151875977Y-37499409D01*
X151997017Y-37421621D01*
X152091239Y-37312884D01*
X152151009Y-37182006D01*
X152171485Y-37039590D01*
X152171485Y-36870090D01*
X152191170Y-36803051D01*
X152243974Y-36757296D01*
X152295485Y-36746090D01*
X162355205Y-36746090D01*
X162422244Y-36765775D01*
X162442886Y-36782409D01*
X168382181Y-42721703D01*
X168415666Y-42783026D01*
X168418500Y-42809384D01*
X168418500Y-59590615D01*
X168398815Y-59657654D01*
X168382181Y-59678296D01*
X165338296Y-62722181D01*
X165276973Y-62755666D01*
X165250615Y-62758500D01*
X163294115Y-62758500D01*
X163227076Y-62738815D01*
X163181733Y-62686905D01*
X163097534Y-62506340D01*
X163097533Y-62506338D01*
X162970827Y-62325381D01*
X162970823Y-62325377D01*
X162814620Y-62169174D01*
X162814616Y-62169171D01*
X162814615Y-62169170D01*
X162633666Y-62042468D01*
X162633658Y-62042464D01*
X162504811Y-61982382D01*
X162452371Y-61936210D01*
X162433219Y-61869017D01*
X162453435Y-61802135D01*
X162504811Y-61757618D01*
X162510802Y-61754824D01*
X162633662Y-61697534D01*
X162814620Y-61570826D01*
X162970826Y-61414620D01*
X163097534Y-61233662D01*
X163190894Y-61033450D01*
X163248070Y-60820068D01*
X163267323Y-60600000D01*
X163248070Y-60379932D01*
X163190894Y-60166550D01*
X163158284Y-60096620D01*
X163147793Y-60027544D01*
X163176312Y-59963760D01*
X163182973Y-59956548D01*
X165305276Y-57834247D01*
X165355502Y-57747253D01*
X165381501Y-57650225D01*
X165381501Y-57549775D01*
X165381501Y-57542180D01*
X165381500Y-57542162D01*
X165381500Y-50260227D01*
X165381501Y-50260214D01*
X165381501Y-50149777D01*
X165381501Y-50149775D01*
X165355502Y-50052747D01*
X165334273Y-50015979D01*
X165305276Y-49965753D01*
X165234247Y-49894724D01*
X165234246Y-49894723D01*
X165229916Y-49890393D01*
X165229905Y-49890383D01*
X160034248Y-44694725D01*
X160034247Y-44694724D01*
X159947254Y-44644499D01*
X159947255Y-44644499D01*
X159922996Y-44637999D01*
X159850225Y-44618500D01*
X159850222Y-44618500D01*
X144202783Y-44618500D01*
X144135744Y-44598815D01*
X144115102Y-44582181D01*
X142287735Y-42754814D01*
X142254250Y-42693491D01*
X142251416Y-42667133D01*
X142251416Y-41402518D01*
X142251416Y-41402517D01*
X142246271Y-41330578D01*
X142205735Y-41192526D01*
X142127947Y-41071486D01*
X142069089Y-41020485D01*
X142019215Y-40977268D01*
X142019213Y-40977266D01*
X142019210Y-40977264D01*
X142019206Y-40977262D01*
X141888335Y-40917494D01*
X141888330Y-40917493D01*
X141745916Y-40897018D01*
X139395916Y-40897018D01*
X139395913Y-40897018D01*
X139323975Y-40902162D01*
X139185921Y-40942700D01*
X139064885Y-41020485D01*
X139064881Y-41020489D01*
X138970666Y-41129218D01*
X138970660Y-41129227D01*
X138910892Y-41260098D01*
X138910891Y-41260103D01*
X138890416Y-41402517D01*
X115000000Y-41402517D01*
X115000000Y-33624000D01*
X115019685Y-33556961D01*
X115072489Y-33511206D01*
X115124000Y-33500000D01*
X116458683Y-33500000D01*
X116525722Y-33519685D01*
G37*
%TD.AperFunction*%
%TD*%
M02*
