%TF.GenerationSoftware,KiCad,Pcbnew,8.0.8-8.0.8-0~ubuntu24.04.1*%
%TF.CreationDate,2025-02-21T21:48:45-06:00*%
%TF.ProjectId,edge_human_detection_board,65646765-5f68-4756-9d61-6e5f64657465,rev?*%
%TF.SameCoordinates,Original*%
%TF.FileFunction,Legend,Top*%
%TF.FilePolarity,Positive*%
%FSLAX46Y46*%
G04 Gerber Fmt 4.6, Leading zero omitted, Abs format (unit mm)*
G04 Created by KiCad (PCBNEW 8.0.8-8.0.8-0~ubuntu24.04.1) date 2025-02-21 21:48:45*
%MOMM*%
%LPD*%
G01*
G04 APERTURE LIST*
%ADD10C,0.150000*%
%ADD11C,0.000000*%
G04 APERTURE END LIST*
D10*
X104374874Y-104494295D02*
X104641541Y-105294295D01*
X104641541Y-105294295D02*
X104908207Y-104494295D01*
X105136778Y-105256200D02*
X105251064Y-105294295D01*
X105251064Y-105294295D02*
X105441540Y-105294295D01*
X105441540Y-105294295D02*
X105517731Y-105256200D01*
X105517731Y-105256200D02*
X105555826Y-105218104D01*
X105555826Y-105218104D02*
X105593921Y-105141914D01*
X105593921Y-105141914D02*
X105593921Y-105065723D01*
X105593921Y-105065723D02*
X105555826Y-104989533D01*
X105555826Y-104989533D02*
X105517731Y-104951438D01*
X105517731Y-104951438D02*
X105441540Y-104913342D01*
X105441540Y-104913342D02*
X105289159Y-104875247D01*
X105289159Y-104875247D02*
X105212969Y-104837152D01*
X105212969Y-104837152D02*
X105174874Y-104799057D01*
X105174874Y-104799057D02*
X105136778Y-104722866D01*
X105136778Y-104722866D02*
X105136778Y-104646676D01*
X105136778Y-104646676D02*
X105174874Y-104570485D01*
X105174874Y-104570485D02*
X105212969Y-104532390D01*
X105212969Y-104532390D02*
X105289159Y-104494295D01*
X105289159Y-104494295D02*
X105479636Y-104494295D01*
X105479636Y-104494295D02*
X105593921Y-104532390D01*
X106089160Y-104913342D02*
X106089160Y-105294295D01*
X105822493Y-104494295D02*
X106089160Y-104913342D01*
X106089160Y-104913342D02*
X106355826Y-104494295D01*
X106584397Y-105256200D02*
X106698683Y-105294295D01*
X106698683Y-105294295D02*
X106889159Y-105294295D01*
X106889159Y-105294295D02*
X106965350Y-105256200D01*
X106965350Y-105256200D02*
X107003445Y-105218104D01*
X107003445Y-105218104D02*
X107041540Y-105141914D01*
X107041540Y-105141914D02*
X107041540Y-105065723D01*
X107041540Y-105065723D02*
X107003445Y-104989533D01*
X107003445Y-104989533D02*
X106965350Y-104951438D01*
X106965350Y-104951438D02*
X106889159Y-104913342D01*
X106889159Y-104913342D02*
X106736778Y-104875247D01*
X106736778Y-104875247D02*
X106660588Y-104837152D01*
X106660588Y-104837152D02*
X106622493Y-104799057D01*
X106622493Y-104799057D02*
X106584397Y-104722866D01*
X106584397Y-104722866D02*
X106584397Y-104646676D01*
X106584397Y-104646676D02*
X106622493Y-104570485D01*
X106622493Y-104570485D02*
X106660588Y-104532390D01*
X106660588Y-104532390D02*
X106736778Y-104494295D01*
X106736778Y-104494295D02*
X106927255Y-104494295D01*
X106927255Y-104494295D02*
X107041540Y-104532390D01*
X105508207Y-78132390D02*
X105432017Y-78094295D01*
X105432017Y-78094295D02*
X105317731Y-78094295D01*
X105317731Y-78094295D02*
X105203445Y-78132390D01*
X105203445Y-78132390D02*
X105127255Y-78208580D01*
X105127255Y-78208580D02*
X105089160Y-78284771D01*
X105089160Y-78284771D02*
X105051064Y-78437152D01*
X105051064Y-78437152D02*
X105051064Y-78551438D01*
X105051064Y-78551438D02*
X105089160Y-78703819D01*
X105089160Y-78703819D02*
X105127255Y-78780009D01*
X105127255Y-78780009D02*
X105203445Y-78856200D01*
X105203445Y-78856200D02*
X105317731Y-78894295D01*
X105317731Y-78894295D02*
X105393922Y-78894295D01*
X105393922Y-78894295D02*
X105508207Y-78856200D01*
X105508207Y-78856200D02*
X105546303Y-78818104D01*
X105546303Y-78818104D02*
X105546303Y-78551438D01*
X105546303Y-78551438D02*
X105393922Y-78551438D01*
X105889160Y-78894295D02*
X105889160Y-78094295D01*
X105889160Y-78094295D02*
X106346303Y-78894295D01*
X106346303Y-78894295D02*
X106346303Y-78094295D01*
X106727255Y-78894295D02*
X106727255Y-78094295D01*
X106727255Y-78094295D02*
X106917731Y-78094295D01*
X106917731Y-78094295D02*
X107032017Y-78132390D01*
X107032017Y-78132390D02*
X107108207Y-78208580D01*
X107108207Y-78208580D02*
X107146302Y-78284771D01*
X107146302Y-78284771D02*
X107184398Y-78437152D01*
X107184398Y-78437152D02*
X107184398Y-78551438D01*
X107184398Y-78551438D02*
X107146302Y-78703819D01*
X107146302Y-78703819D02*
X107108207Y-78780009D01*
X107108207Y-78780009D02*
X107032017Y-78856200D01*
X107032017Y-78856200D02*
X106917731Y-78894295D01*
X106917731Y-78894295D02*
X106727255Y-78894295D01*
X93146303Y-84294295D02*
X92879636Y-83913342D01*
X92689160Y-84294295D02*
X92689160Y-83494295D01*
X92689160Y-83494295D02*
X92993922Y-83494295D01*
X92993922Y-83494295D02*
X93070112Y-83532390D01*
X93070112Y-83532390D02*
X93108207Y-83570485D01*
X93108207Y-83570485D02*
X93146303Y-83646676D01*
X93146303Y-83646676D02*
X93146303Y-83760961D01*
X93146303Y-83760961D02*
X93108207Y-83837152D01*
X93108207Y-83837152D02*
X93070112Y-83875247D01*
X93070112Y-83875247D02*
X92993922Y-83913342D01*
X92993922Y-83913342D02*
X92689160Y-83913342D01*
X93412969Y-83494295D02*
X93946303Y-84294295D01*
X93946303Y-83494295D02*
X93412969Y-84294295D01*
X92574874Y-81094295D02*
X93032017Y-81094295D01*
X92803445Y-81894295D02*
X92803445Y-81094295D01*
X93222493Y-81094295D02*
X93755827Y-81894295D01*
X93755827Y-81094295D02*
X93222493Y-81894295D01*
X92508207Y-78532390D02*
X92432017Y-78494295D01*
X92432017Y-78494295D02*
X92317731Y-78494295D01*
X92317731Y-78494295D02*
X92203445Y-78532390D01*
X92203445Y-78532390D02*
X92127255Y-78608580D01*
X92127255Y-78608580D02*
X92089160Y-78684771D01*
X92089160Y-78684771D02*
X92051064Y-78837152D01*
X92051064Y-78837152D02*
X92051064Y-78951438D01*
X92051064Y-78951438D02*
X92089160Y-79103819D01*
X92089160Y-79103819D02*
X92127255Y-79180009D01*
X92127255Y-79180009D02*
X92203445Y-79256200D01*
X92203445Y-79256200D02*
X92317731Y-79294295D01*
X92317731Y-79294295D02*
X92393922Y-79294295D01*
X92393922Y-79294295D02*
X92508207Y-79256200D01*
X92508207Y-79256200D02*
X92546303Y-79218104D01*
X92546303Y-79218104D02*
X92546303Y-78951438D01*
X92546303Y-78951438D02*
X92393922Y-78951438D01*
X92889160Y-79294295D02*
X92889160Y-78494295D01*
X92889160Y-78494295D02*
X93346303Y-79294295D01*
X93346303Y-79294295D02*
X93346303Y-78494295D01*
X93727255Y-79294295D02*
X93727255Y-78494295D01*
X93727255Y-78494295D02*
X93917731Y-78494295D01*
X93917731Y-78494295D02*
X94032017Y-78532390D01*
X94032017Y-78532390D02*
X94108207Y-78608580D01*
X94108207Y-78608580D02*
X94146302Y-78684771D01*
X94146302Y-78684771D02*
X94184398Y-78837152D01*
X94184398Y-78837152D02*
X94184398Y-78951438D01*
X94184398Y-78951438D02*
X94146302Y-79103819D01*
X94146302Y-79103819D02*
X94108207Y-79180009D01*
X94108207Y-79180009D02*
X94032017Y-79256200D01*
X94032017Y-79256200D02*
X93917731Y-79294295D01*
X93917731Y-79294295D02*
X93727255Y-79294295D01*
X115580951Y-103237704D02*
X115580951Y-104037704D01*
X114742856Y-103313895D02*
X114780952Y-103275800D01*
X114780952Y-103275800D02*
X114895237Y-103237704D01*
X114895237Y-103237704D02*
X114971428Y-103237704D01*
X114971428Y-103237704D02*
X115085714Y-103275800D01*
X115085714Y-103275800D02*
X115161904Y-103351990D01*
X115161904Y-103351990D02*
X115199999Y-103428180D01*
X115199999Y-103428180D02*
X115238095Y-103580561D01*
X115238095Y-103580561D02*
X115238095Y-103694847D01*
X115238095Y-103694847D02*
X115199999Y-103847228D01*
X115199999Y-103847228D02*
X115161904Y-103923419D01*
X115161904Y-103923419D02*
X115085714Y-103999609D01*
X115085714Y-103999609D02*
X114971428Y-104037704D01*
X114971428Y-104037704D02*
X114895237Y-104037704D01*
X114895237Y-104037704D02*
X114780952Y-103999609D01*
X114780952Y-103999609D02*
X114742856Y-103961514D01*
X113980952Y-103237704D02*
X114438095Y-103237704D01*
X114209523Y-103237704D02*
X114209523Y-104037704D01*
X114209523Y-104037704D02*
X114285714Y-103923419D01*
X114285714Y-103923419D02*
X114361904Y-103847228D01*
X114361904Y-103847228D02*
X114438095Y-103809133D01*
X103447592Y-117652575D02*
X103485688Y-117614480D01*
X103485688Y-117614480D02*
X103599973Y-117576384D01*
X103599973Y-117576384D02*
X103676164Y-117576384D01*
X103676164Y-117576384D02*
X103790450Y-117614480D01*
X103790450Y-117614480D02*
X103866640Y-117690670D01*
X103866640Y-117690670D02*
X103904735Y-117766860D01*
X103904735Y-117766860D02*
X103942831Y-117919241D01*
X103942831Y-117919241D02*
X103942831Y-118033527D01*
X103942831Y-118033527D02*
X103904735Y-118185908D01*
X103904735Y-118185908D02*
X103866640Y-118262099D01*
X103866640Y-118262099D02*
X103790450Y-118338289D01*
X103790450Y-118338289D02*
X103676164Y-118376384D01*
X103676164Y-118376384D02*
X103599973Y-118376384D01*
X103599973Y-118376384D02*
X103485688Y-118338289D01*
X103485688Y-118338289D02*
X103447592Y-118300194D01*
X103180926Y-118376384D02*
X102685688Y-118376384D01*
X102685688Y-118376384D02*
X102952354Y-118071622D01*
X102952354Y-118071622D02*
X102838069Y-118071622D01*
X102838069Y-118071622D02*
X102761878Y-118033527D01*
X102761878Y-118033527D02*
X102723783Y-117995432D01*
X102723783Y-117995432D02*
X102685688Y-117919241D01*
X102685688Y-117919241D02*
X102685688Y-117728765D01*
X102685688Y-117728765D02*
X102723783Y-117652575D01*
X102723783Y-117652575D02*
X102761878Y-117614480D01*
X102761878Y-117614480D02*
X102838069Y-117576384D01*
X102838069Y-117576384D02*
X103066640Y-117576384D01*
X103066640Y-117576384D02*
X103142831Y-117614480D01*
X103142831Y-117614480D02*
X103180926Y-117652575D01*
X103447592Y-121652575D02*
X103485688Y-121614480D01*
X103485688Y-121614480D02*
X103599973Y-121576384D01*
X103599973Y-121576384D02*
X103676164Y-121576384D01*
X103676164Y-121576384D02*
X103790450Y-121614480D01*
X103790450Y-121614480D02*
X103866640Y-121690670D01*
X103866640Y-121690670D02*
X103904735Y-121766860D01*
X103904735Y-121766860D02*
X103942831Y-121919241D01*
X103942831Y-121919241D02*
X103942831Y-122033527D01*
X103942831Y-122033527D02*
X103904735Y-122185908D01*
X103904735Y-122185908D02*
X103866640Y-122262099D01*
X103866640Y-122262099D02*
X103790450Y-122338289D01*
X103790450Y-122338289D02*
X103676164Y-122376384D01*
X103676164Y-122376384D02*
X103599973Y-122376384D01*
X103599973Y-122376384D02*
X103485688Y-122338289D01*
X103485688Y-122338289D02*
X103447592Y-122300194D01*
X102761878Y-122109718D02*
X102761878Y-121576384D01*
X102952354Y-122414480D02*
X103142831Y-121843051D01*
X103142831Y-121843051D02*
X102647592Y-121843051D01*
X106157143Y-109654819D02*
X106252381Y-109654819D01*
X106252381Y-109654819D02*
X106347619Y-109702438D01*
X106347619Y-109702438D02*
X106395238Y-109750057D01*
X106395238Y-109750057D02*
X106442857Y-109845295D01*
X106442857Y-109845295D02*
X106490476Y-110035771D01*
X106490476Y-110035771D02*
X106490476Y-110273866D01*
X106490476Y-110273866D02*
X106442857Y-110464342D01*
X106442857Y-110464342D02*
X106395238Y-110559580D01*
X106395238Y-110559580D02*
X106347619Y-110607200D01*
X106347619Y-110607200D02*
X106252381Y-110654819D01*
X106252381Y-110654819D02*
X106157143Y-110654819D01*
X106157143Y-110654819D02*
X106061905Y-110607200D01*
X106061905Y-110607200D02*
X106014286Y-110559580D01*
X106014286Y-110559580D02*
X105966667Y-110464342D01*
X105966667Y-110464342D02*
X105919048Y-110273866D01*
X105919048Y-110273866D02*
X105919048Y-110035771D01*
X105919048Y-110035771D02*
X105966667Y-109845295D01*
X105966667Y-109845295D02*
X106014286Y-109750057D01*
X106014286Y-109750057D02*
X106061905Y-109702438D01*
X106061905Y-109702438D02*
X106157143Y-109654819D01*
X106919048Y-110559580D02*
X106966667Y-110607200D01*
X106966667Y-110607200D02*
X106919048Y-110654819D01*
X106919048Y-110654819D02*
X106871429Y-110607200D01*
X106871429Y-110607200D02*
X106919048Y-110559580D01*
X106919048Y-110559580D02*
X106919048Y-110654819D01*
X107919047Y-110654819D02*
X107347619Y-110654819D01*
X107633333Y-110654819D02*
X107633333Y-109654819D01*
X107633333Y-109654819D02*
X107538095Y-109797676D01*
X107538095Y-109797676D02*
X107442857Y-109892914D01*
X107442857Y-109892914D02*
X107347619Y-109940533D01*
X108776190Y-109988152D02*
X108776190Y-110654819D01*
X108347619Y-109988152D02*
X108347619Y-110511961D01*
X108347619Y-110511961D02*
X108395238Y-110607200D01*
X108395238Y-110607200D02*
X108490476Y-110654819D01*
X108490476Y-110654819D02*
X108633333Y-110654819D01*
X108633333Y-110654819D02*
X108728571Y-110607200D01*
X108728571Y-110607200D02*
X108776190Y-110559580D01*
X109585714Y-110131009D02*
X109252381Y-110131009D01*
X109252381Y-110654819D02*
X109252381Y-109654819D01*
X109252381Y-109654819D02*
X109728571Y-109654819D01*
X95933333Y-76107295D02*
X95933333Y-76678723D01*
X95933333Y-76678723D02*
X95895238Y-76793009D01*
X95895238Y-76793009D02*
X95819047Y-76869200D01*
X95819047Y-76869200D02*
X95704762Y-76907295D01*
X95704762Y-76907295D02*
X95628571Y-76907295D01*
X96733333Y-76907295D02*
X96276190Y-76907295D01*
X96504762Y-76907295D02*
X96504762Y-76107295D01*
X96504762Y-76107295D02*
X96428571Y-76221580D01*
X96428571Y-76221580D02*
X96352381Y-76297771D01*
X96352381Y-76297771D02*
X96276190Y-76335866D01*
X116537906Y-99420476D02*
X116576001Y-99458571D01*
X116576001Y-99458571D02*
X116614097Y-99534762D01*
X116614097Y-99534762D02*
X116537906Y-99687143D01*
X116537906Y-99687143D02*
X116576001Y-99763333D01*
X116576001Y-99763333D02*
X116614097Y-99801428D01*
D11*
%TO.C,G\u002A\u002A\u002A*%
G36*
X99090239Y-54648076D02*
G01*
X99195934Y-54655610D01*
X99305150Y-54669729D01*
X99417762Y-54690451D01*
X99528000Y-54716325D01*
X99657567Y-54753231D01*
X99789550Y-54797505D01*
X99923683Y-54848980D01*
X100059699Y-54907487D01*
X100197331Y-54972859D01*
X100336314Y-55044926D01*
X100476380Y-55123521D01*
X100617262Y-55208476D01*
X100758695Y-55299623D01*
X100900412Y-55396792D01*
X101042145Y-55499818D01*
X101183629Y-55608530D01*
X101324597Y-55722761D01*
X101464782Y-55842343D01*
X101603918Y-55967108D01*
X101741739Y-56096887D01*
X101788000Y-56141879D01*
X101944663Y-56299650D01*
X102094531Y-56459058D01*
X102237474Y-56619929D01*
X102373358Y-56782091D01*
X102502054Y-56945371D01*
X102623430Y-57109596D01*
X102737354Y-57274592D01*
X102843696Y-57440188D01*
X102942324Y-57606209D01*
X103033106Y-57772484D01*
X103048384Y-57802000D01*
X103113397Y-57933931D01*
X103171846Y-58063593D01*
X103223700Y-58190844D01*
X103268930Y-58315543D01*
X103307506Y-58437548D01*
X103339397Y-58556716D01*
X103364573Y-58672906D01*
X103383005Y-58785976D01*
X103394661Y-58895785D01*
X103399513Y-59002190D01*
X103397530Y-59105049D01*
X103388682Y-59204222D01*
X103372938Y-59299565D01*
X103369438Y-59316000D01*
X103348368Y-59395980D01*
X103321035Y-59473941D01*
X103287944Y-59548813D01*
X103249601Y-59619523D01*
X103206512Y-59685002D01*
X103177497Y-59722671D01*
X103166973Y-59735548D01*
X103152828Y-59752909D01*
X103136474Y-59773017D01*
X103119321Y-59794138D01*
X103107535Y-59808671D01*
X103066360Y-59858873D01*
X103025969Y-59906822D01*
X102985420Y-59953551D01*
X102943771Y-60000091D01*
X102900083Y-60047475D01*
X102853412Y-60096735D01*
X102802819Y-60148903D01*
X102747361Y-60205010D01*
X102732193Y-60220206D01*
X102702304Y-60249940D01*
X102671341Y-60280455D01*
X102640348Y-60310742D01*
X102610370Y-60339789D01*
X102582453Y-60366586D01*
X102557640Y-60390123D01*
X102536978Y-60409387D01*
X102530000Y-60415770D01*
X102356750Y-60567980D01*
X102180051Y-60713234D01*
X102000012Y-60851472D01*
X101816745Y-60982633D01*
X101630361Y-61106657D01*
X101440971Y-61223482D01*
X101248685Y-61333048D01*
X101053614Y-61435294D01*
X100855870Y-61530160D01*
X100655564Y-61617585D01*
X100452805Y-61697507D01*
X100247706Y-61769867D01*
X100040377Y-61834603D01*
X99838685Y-61889688D01*
X99722346Y-61918046D01*
X99607244Y-61943587D01*
X99491803Y-61966595D01*
X99374444Y-61987350D01*
X99253591Y-62006137D01*
X99127668Y-62023237D01*
X99022000Y-62035917D01*
X98894221Y-62051867D01*
X98773408Y-62069961D01*
X98658768Y-62090391D01*
X98549507Y-62113350D01*
X98444832Y-62139030D01*
X98343951Y-62167622D01*
X98246071Y-62199319D01*
X98150399Y-62234313D01*
X98072000Y-62266042D01*
X97958408Y-62317588D01*
X97850065Y-62374000D01*
X97747235Y-62435080D01*
X97650182Y-62500630D01*
X97559172Y-62570452D01*
X97474468Y-62644349D01*
X97396334Y-62722123D01*
X97325035Y-62803576D01*
X97285201Y-62854730D01*
X97243071Y-62915008D01*
X97204377Y-62977630D01*
X97169946Y-63041055D01*
X97140603Y-63103742D01*
X97117177Y-63164151D01*
X97113870Y-63174000D01*
X97097196Y-63219800D01*
X97079105Y-63258904D01*
X97058737Y-63292598D01*
X97035230Y-63322164D01*
X97007724Y-63348890D01*
X96984000Y-63367806D01*
X96940189Y-63395445D01*
X96893700Y-63415845D01*
X96845288Y-63428993D01*
X96795706Y-63434874D01*
X96745709Y-63433476D01*
X96696053Y-63424785D01*
X96647492Y-63408787D01*
X96600780Y-63385471D01*
X96584000Y-63374907D01*
X96577888Y-63369905D01*
X96566701Y-63359781D01*
X96551006Y-63345085D01*
X96531373Y-63326362D01*
X96508369Y-63304163D01*
X96482564Y-63279035D01*
X96454526Y-63251526D01*
X96424823Y-63222183D01*
X96400971Y-63198482D01*
X96235943Y-63034073D01*
X96124076Y-63146036D01*
X96012209Y-63258000D01*
X96028040Y-63300774D01*
X96041301Y-63340141D01*
X96053908Y-63384183D01*
X96064987Y-63429578D01*
X96073664Y-63473004D01*
X96074178Y-63476000D01*
X96077286Y-63499618D01*
X96079808Y-63529236D01*
X96081692Y-63562867D01*
X96082888Y-63598530D01*
X96083344Y-63634239D01*
X96083009Y-63668012D01*
X96081832Y-63697864D01*
X96080367Y-63716475D01*
X96068007Y-63799340D01*
X96048334Y-63880983D01*
X96021698Y-63960331D01*
X95988451Y-64036311D01*
X95956489Y-64095370D01*
X95909225Y-64167474D01*
X95856181Y-64234339D01*
X95797765Y-64295678D01*
X95734387Y-64351203D01*
X95666456Y-64400626D01*
X95594383Y-64443661D01*
X95518577Y-64480020D01*
X95439448Y-64509414D01*
X95357405Y-64531557D01*
X95325872Y-64537951D01*
X95286432Y-64544111D01*
X95243144Y-64548944D01*
X95198909Y-64552234D01*
X95156631Y-64553764D01*
X95120000Y-64553350D01*
X95033898Y-64545779D01*
X94949792Y-64530638D01*
X94868102Y-64508166D01*
X94789249Y-64478601D01*
X94713655Y-64442181D01*
X94641740Y-64399144D01*
X94573927Y-64349727D01*
X94510636Y-64294169D01*
X94452288Y-64232707D01*
X94399305Y-64165580D01*
X94377595Y-64134000D01*
X94336662Y-64065957D01*
X94302366Y-63996059D01*
X94274355Y-63923330D01*
X94252274Y-63846794D01*
X94235769Y-63765474D01*
X94230133Y-63727552D01*
X94227675Y-63709105D01*
X94204097Y-63706641D01*
X94168723Y-63701515D01*
X94128558Y-63693267D01*
X94085894Y-63682489D01*
X94043025Y-63669774D01*
X94002245Y-63655715D01*
X93992210Y-63651890D01*
X93915207Y-63617661D01*
X93842054Y-63576692D01*
X93773138Y-63529432D01*
X93708844Y-63476330D01*
X93649557Y-63417837D01*
X93595664Y-63354401D01*
X93547548Y-63286472D01*
X93505597Y-63214498D01*
X93470196Y-63138930D01*
X93441729Y-63060216D01*
X93422566Y-62988000D01*
X93417758Y-62965054D01*
X93413029Y-62940427D01*
X93409053Y-62917716D01*
X93407236Y-62906000D01*
X93405209Y-62886350D01*
X93403701Y-62860529D01*
X93402712Y-62830348D01*
X93402241Y-62797619D01*
X93402261Y-62784217D01*
X94087619Y-62784217D01*
X94090784Y-62827176D01*
X94100416Y-62866037D01*
X94116942Y-62901828D01*
X94140787Y-62935579D01*
X94158000Y-62954484D01*
X94191558Y-62983796D01*
X94227194Y-63005489D01*
X94265462Y-63019800D01*
X94306917Y-63026962D01*
X94331196Y-63027940D01*
X94374454Y-63024137D01*
X94415402Y-63012820D01*
X94454335Y-62993872D01*
X94491554Y-62967177D01*
X94496429Y-62963003D01*
X94531395Y-62934198D01*
X94563821Y-62911354D01*
X94595270Y-62893565D01*
X94627307Y-62879923D01*
X94654653Y-62871321D01*
X94682067Y-62865865D01*
X94714028Y-62862707D01*
X94747943Y-62861852D01*
X94781221Y-62863301D01*
X94811266Y-62867059D01*
X94829154Y-62871111D01*
X94880537Y-62889675D01*
X94926914Y-62914329D01*
X94968057Y-62944885D01*
X95003739Y-62981158D01*
X95033734Y-63022958D01*
X95050553Y-63054000D01*
X95062385Y-63080192D01*
X95070899Y-63103410D01*
X95076686Y-63126172D01*
X95080337Y-63150996D01*
X95082442Y-63180402D01*
X95082914Y-63192000D01*
X95083540Y-63216415D01*
X95083327Y-63235334D01*
X95082093Y-63251235D01*
X95079653Y-63266595D01*
X95076278Y-63282000D01*
X95066770Y-63313674D01*
X95053483Y-63346225D01*
X95037664Y-63377062D01*
X95020560Y-63403592D01*
X95013295Y-63412825D01*
X95000808Y-63427560D01*
X94986161Y-63444792D01*
X94972399Y-63460939D01*
X94971627Y-63461842D01*
X94945682Y-63497627D01*
X94927264Y-63535660D01*
X94916142Y-63576572D01*
X94912085Y-63620992D01*
X94912059Y-63624546D01*
X94915738Y-63667049D01*
X94926461Y-63706964D01*
X94943533Y-63743728D01*
X94966261Y-63776782D01*
X94993948Y-63805564D01*
X95025901Y-63829512D01*
X95061425Y-63848066D01*
X95099824Y-63860665D01*
X95140406Y-63866747D01*
X95182473Y-63865751D01*
X95206000Y-63861982D01*
X95245868Y-63849631D01*
X95282948Y-63830317D01*
X95316377Y-63804846D01*
X95345293Y-63774018D01*
X95368833Y-63738637D01*
X95386135Y-63699507D01*
X95388559Y-63692000D01*
X95394782Y-63663503D01*
X95397693Y-63631632D01*
X95397250Y-63599440D01*
X95393411Y-63569979D01*
X95390437Y-63558000D01*
X95375006Y-63518930D01*
X95352741Y-63481095D01*
X95328829Y-63450867D01*
X95295263Y-63409541D01*
X95269279Y-63367994D01*
X95250503Y-63325219D01*
X95238555Y-63280204D01*
X95233059Y-63231940D01*
X95232905Y-63194047D01*
X95234012Y-63170338D01*
X95235643Y-63151993D01*
X95238227Y-63136376D01*
X95242194Y-63120850D01*
X95247562Y-63104000D01*
X95252133Y-63090515D01*
X95256500Y-63078325D01*
X95261045Y-63066973D01*
X95266150Y-63056006D01*
X95272196Y-63044968D01*
X95279567Y-63033403D01*
X95288644Y-63020857D01*
X95299809Y-63006875D01*
X95313445Y-62991002D01*
X95329934Y-62972782D01*
X95349657Y-62951760D01*
X95372997Y-62927481D01*
X95400336Y-62899491D01*
X95432056Y-62867334D01*
X95468540Y-62830554D01*
X95510169Y-62788698D01*
X95523871Y-62774930D01*
X95749848Y-62547860D01*
X95580928Y-62378940D01*
X95412007Y-62210019D01*
X95191003Y-62430497D01*
X95155653Y-62465682D01*
X95121558Y-62499463D01*
X95089196Y-62531375D01*
X95059045Y-62560954D01*
X95031583Y-62587735D01*
X95007288Y-62611254D01*
X94986640Y-62631046D01*
X94970115Y-62646648D01*
X94958193Y-62657594D01*
X94951351Y-62663419D01*
X94950693Y-62663890D01*
X94928184Y-62677230D01*
X94901091Y-62690681D01*
X94872671Y-62702784D01*
X94846184Y-62712077D01*
X94838000Y-62714389D01*
X94814801Y-62718657D01*
X94786578Y-62721174D01*
X94755966Y-62721938D01*
X94725602Y-62720949D01*
X94698121Y-62718208D01*
X94678655Y-62714410D01*
X94642592Y-62703198D01*
X94609618Y-62689147D01*
X94577945Y-62671248D01*
X94545786Y-62648489D01*
X94511353Y-62619859D01*
X94511177Y-62619704D01*
X94472384Y-62589564D01*
X94432952Y-62567215D01*
X94392372Y-62552449D01*
X94350136Y-62545057D01*
X94326360Y-62544059D01*
X94283408Y-62547162D01*
X94244843Y-62556585D01*
X94209649Y-62572747D01*
X94176811Y-62596067D01*
X94157879Y-62613607D01*
X94129581Y-62646599D01*
X94108860Y-62681229D01*
X94095324Y-62718453D01*
X94088577Y-62759227D01*
X94087619Y-62784217D01*
X93402261Y-62784217D01*
X93402290Y-62764154D01*
X93402857Y-62731763D01*
X93403943Y-62702259D01*
X93405548Y-62677454D01*
X93407236Y-62662000D01*
X93423466Y-62575803D01*
X93446926Y-62492575D01*
X93477392Y-62412670D01*
X93514643Y-62336444D01*
X93558457Y-62264252D01*
X93608613Y-62196450D01*
X93664888Y-62133394D01*
X93727062Y-62075438D01*
X93794912Y-62022938D01*
X93814000Y-62009862D01*
X93885145Y-61967137D01*
X93959817Y-61931316D01*
X94037400Y-61902463D01*
X94117278Y-61880639D01*
X94198836Y-61865904D01*
X94281457Y-61858320D01*
X94364525Y-61857950D01*
X94447426Y-61864854D01*
X94529543Y-61879094D01*
X94610261Y-61900731D01*
X94674674Y-61923916D01*
X94714000Y-61939787D01*
X94820934Y-61832987D01*
X94927869Y-61726186D01*
X94820569Y-61618093D01*
X94795880Y-61593063D01*
X94772511Y-61569068D01*
X94751179Y-61546871D01*
X94732606Y-61527231D01*
X94717510Y-61510911D01*
X94706612Y-61498671D01*
X94700629Y-61491272D01*
X94700468Y-61491037D01*
X94685586Y-61466132D01*
X94670996Y-61436690D01*
X94658215Y-61406076D01*
X94651135Y-61384799D01*
X95566102Y-61384799D01*
X95568544Y-61387862D01*
X95576324Y-61396245D01*
X95589116Y-61409619D01*
X95606593Y-61427658D01*
X95628427Y-61450032D01*
X95654293Y-61476414D01*
X95683863Y-61506475D01*
X95716809Y-61539888D01*
X95752806Y-61576325D01*
X95791526Y-61615457D01*
X95832642Y-61656956D01*
X95875827Y-61700495D01*
X95920754Y-61745745D01*
X95967096Y-61792379D01*
X96014527Y-61840067D01*
X96062718Y-61888483D01*
X96111345Y-61937298D01*
X96160078Y-61986184D01*
X96208592Y-62034814D01*
X96256559Y-62082858D01*
X96303653Y-62129989D01*
X96349546Y-62175879D01*
X96393912Y-62220200D01*
X96436423Y-62262624D01*
X96476752Y-62302822D01*
X96514574Y-62340467D01*
X96549560Y-62375231D01*
X96581383Y-62406785D01*
X96609718Y-62434802D01*
X96634236Y-62458953D01*
X96654611Y-62478911D01*
X96670515Y-62494347D01*
X96681623Y-62504934D01*
X96687606Y-62510343D01*
X96688583Y-62511001D01*
X96691730Y-62507578D01*
X96698662Y-62498824D01*
X96708486Y-62485901D01*
X96720312Y-62469972D01*
X96726147Y-62462000D01*
X96765626Y-62409284D01*
X96804950Y-62359941D01*
X96845678Y-62312164D01*
X96889367Y-62264145D01*
X96937578Y-62214076D01*
X96955733Y-62195809D01*
X97048861Y-62107290D01*
X97145333Y-62024606D01*
X97245941Y-61947184D01*
X97351478Y-61874456D01*
X97462735Y-61805850D01*
X97580504Y-61740796D01*
X97606000Y-61727603D01*
X97724560Y-61669948D01*
X97845622Y-61617126D01*
X97969708Y-61568992D01*
X98097340Y-61525400D01*
X98229042Y-61486205D01*
X98365336Y-61451263D01*
X98506744Y-61420428D01*
X98653790Y-61393555D01*
X98806996Y-61370499D01*
X98958000Y-61352077D01*
X99159348Y-61326106D01*
X99359012Y-61292334D01*
X99556868Y-61250786D01*
X99752793Y-61201490D01*
X99946661Y-61144473D01*
X100000000Y-61127311D01*
X100192373Y-61060070D01*
X100382906Y-60985096D01*
X100571432Y-60902478D01*
X100757785Y-60812304D01*
X100941801Y-60714664D01*
X101123314Y-60609648D01*
X101302158Y-60497343D01*
X101478168Y-60377840D01*
X101651179Y-60251227D01*
X101708931Y-60206854D01*
X101735628Y-60185947D01*
X101762904Y-60164325D01*
X101790035Y-60142584D01*
X101816299Y-60121321D01*
X101840975Y-60101132D01*
X101863338Y-60082613D01*
X101882668Y-60066360D01*
X101898241Y-60052971D01*
X101909336Y-60043040D01*
X101915229Y-60037165D01*
X101916000Y-60035935D01*
X101912513Y-60033256D01*
X101903955Y-60030652D01*
X101902304Y-60030320D01*
X101885891Y-60026748D01*
X101863239Y-60021108D01*
X101835721Y-60013792D01*
X101804712Y-60005194D01*
X101771583Y-59995705D01*
X101737710Y-59985718D01*
X101704464Y-59975625D01*
X101673220Y-59965818D01*
X101650000Y-59958246D01*
X101509053Y-59907761D01*
X101366337Y-59849650D01*
X101222052Y-59784041D01*
X101076400Y-59711063D01*
X100929580Y-59630843D01*
X100781794Y-59543509D01*
X100633242Y-59449190D01*
X100484125Y-59348013D01*
X100334644Y-59240107D01*
X100184998Y-59125599D01*
X100035389Y-59004617D01*
X99886017Y-58877290D01*
X99737084Y-58743746D01*
X99716013Y-58724314D01*
X99694463Y-58704051D01*
X99668241Y-58678868D01*
X99638177Y-58649598D01*
X99605100Y-58617076D01*
X99569838Y-58582134D01*
X99533220Y-58545606D01*
X99496077Y-58508325D01*
X99459237Y-58471126D01*
X99423528Y-58434842D01*
X99389781Y-58400307D01*
X99358824Y-58368353D01*
X99331486Y-58339815D01*
X99308597Y-58315526D01*
X99297815Y-58303855D01*
X99153621Y-58142075D01*
X99017139Y-57980482D01*
X98888404Y-57819122D01*
X98767449Y-57658044D01*
X98654309Y-57497297D01*
X98549017Y-57336927D01*
X98451608Y-57176983D01*
X98362114Y-57017514D01*
X98290128Y-56878000D01*
X98230445Y-56752833D01*
X98177262Y-56631678D01*
X98130418Y-56514115D01*
X98089751Y-56399724D01*
X98055102Y-56288086D01*
X98033973Y-56209901D01*
X98027533Y-56184487D01*
X98021740Y-56161664D01*
X98016885Y-56142578D01*
X98013261Y-56128374D01*
X98011158Y-56120198D01*
X98010765Y-56118720D01*
X98007987Y-56120471D01*
X98000754Y-56127811D01*
X97989617Y-56140087D01*
X97975129Y-56156651D01*
X97957842Y-56176851D01*
X97938310Y-56200037D01*
X97917084Y-56225559D01*
X97894718Y-56252766D01*
X97871762Y-56281008D01*
X97851479Y-56306243D01*
X97724577Y-56470805D01*
X97604457Y-56638566D01*
X97490487Y-56810469D01*
X97382033Y-56987456D01*
X97315129Y-57104000D01*
X97297084Y-57136925D01*
X97276481Y-57175677D01*
X97254024Y-57218846D01*
X97230416Y-57265025D01*
X97206360Y-57312804D01*
X97182560Y-57360776D01*
X97159719Y-57407533D01*
X97138540Y-57451665D01*
X97119727Y-57491765D01*
X97103982Y-57526425D01*
X97102399Y-57530000D01*
X97025255Y-57713760D01*
X96956010Y-57897669D01*
X96894566Y-58082105D01*
X96840824Y-58267443D01*
X96794686Y-58454058D01*
X96756055Y-58642328D01*
X96724832Y-58832628D01*
X96700920Y-59025335D01*
X96694025Y-59096000D01*
X96680026Y-59232692D01*
X96663273Y-59363340D01*
X96643509Y-59489501D01*
X96620476Y-59612729D01*
X96593915Y-59734583D01*
X96576003Y-59808376D01*
X96535090Y-59957247D01*
X96488564Y-60101462D01*
X96436532Y-60240849D01*
X96379099Y-60375237D01*
X96316373Y-60504455D01*
X96248458Y-60628332D01*
X96175462Y-60746698D01*
X96097491Y-60859380D01*
X96014650Y-60966209D01*
X95927047Y-61067012D01*
X95834787Y-61161620D01*
X95737976Y-61249860D01*
X95636722Y-61331562D01*
X95624000Y-61341126D01*
X95605834Y-61354704D01*
X95589798Y-61366742D01*
X95577042Y-61376373D01*
X95568717Y-61382729D01*
X95566102Y-61384799D01*
X94651135Y-61384799D01*
X94648759Y-61377659D01*
X94647774Y-61374000D01*
X94642110Y-61343405D01*
X94639394Y-61308651D01*
X94639633Y-61272789D01*
X94642831Y-61238869D01*
X94647517Y-61215206D01*
X94664669Y-61164858D01*
X94688762Y-61118486D01*
X94719798Y-61076091D01*
X94747485Y-61047040D01*
X94776037Y-61022871D01*
X94806718Y-61002698D01*
X94841367Y-60985493D01*
X94881828Y-60970226D01*
X94889430Y-60967746D01*
X94939614Y-60950282D01*
X94987312Y-60930595D01*
X95034277Y-60907810D01*
X95082262Y-60881051D01*
X95133021Y-60849441D01*
X95154000Y-60835574D01*
X95225017Y-60784237D01*
X95295444Y-60726091D01*
X95364068Y-60662305D01*
X95429674Y-60594046D01*
X95491048Y-60522480D01*
X95525219Y-60478597D01*
X95594616Y-60379802D01*
X95658747Y-60275611D01*
X95717662Y-60165898D01*
X95771417Y-60050534D01*
X95820064Y-59929394D01*
X95863656Y-59802348D01*
X95902247Y-59669271D01*
X95935890Y-59530034D01*
X95950093Y-59462000D01*
X95961945Y-59399442D01*
X95972700Y-59336324D01*
X95982547Y-59271276D01*
X95991675Y-59202931D01*
X96000275Y-59129921D01*
X96008535Y-59050879D01*
X96012095Y-59014000D01*
X96036158Y-58800792D01*
X96067906Y-58589770D01*
X96107344Y-58380918D01*
X96154476Y-58174219D01*
X96209310Y-57969655D01*
X96271850Y-57767211D01*
X96342102Y-57566868D01*
X96420072Y-57368609D01*
X96505765Y-57172419D01*
X96599187Y-56978280D01*
X96700344Y-56786175D01*
X96809240Y-56596087D01*
X96820068Y-56578000D01*
X96924146Y-56410991D01*
X97034202Y-56246247D01*
X97149750Y-56084333D01*
X97270305Y-55925810D01*
X97395382Y-55771243D01*
X97460757Y-55695268D01*
X98648881Y-55695268D01*
X98650517Y-55760340D01*
X98656896Y-55829797D01*
X98667965Y-55903336D01*
X98683674Y-55980653D01*
X98703970Y-56061447D01*
X98728802Y-56145414D01*
X98758118Y-56232250D01*
X98791867Y-56321654D01*
X98829995Y-56413323D01*
X98872453Y-56506953D01*
X98906965Y-56578000D01*
X98983891Y-56724560D01*
X99068540Y-56871809D01*
X99160698Y-57019467D01*
X99260146Y-57167257D01*
X99366669Y-57314901D01*
X99480048Y-57462121D01*
X99600067Y-57608639D01*
X99726510Y-57754176D01*
X99859158Y-57898456D01*
X99997796Y-58041200D01*
X100142207Y-58182130D01*
X100204068Y-58240284D01*
X100336067Y-58359701D01*
X100470029Y-58474373D01*
X100605496Y-58583979D01*
X100742006Y-58688203D01*
X100879099Y-58786724D01*
X101016314Y-58879224D01*
X101153190Y-58965383D01*
X101289267Y-59044884D01*
X101424085Y-59117407D01*
X101557183Y-59182633D01*
X101580928Y-59193577D01*
X101670106Y-59232560D01*
X101758763Y-59267957D01*
X101846111Y-59299531D01*
X101931363Y-59327042D01*
X102013734Y-59350254D01*
X102092435Y-59368928D01*
X102166681Y-59382826D01*
X102235683Y-59391710D01*
X102236000Y-59391740D01*
X102277217Y-59395256D01*
X102312806Y-59397302D01*
X102345002Y-59397875D01*
X102376041Y-59396969D01*
X102408160Y-59394581D01*
X102438000Y-59391382D01*
X102490652Y-59382159D01*
X102537373Y-59367626D01*
X102578314Y-59347662D01*
X102613632Y-59322150D01*
X102643480Y-59290969D01*
X102668011Y-59254001D01*
X102687381Y-59211125D01*
X102693190Y-59194000D01*
X102700430Y-59168701D01*
X102705860Y-59144195D01*
X102709686Y-59118722D01*
X102712114Y-59090522D01*
X102713352Y-59057835D01*
X102713610Y-59020000D01*
X102710039Y-58938651D01*
X102699902Y-58852858D01*
X102683225Y-58762706D01*
X102660033Y-58668282D01*
X102630353Y-58569672D01*
X102594211Y-58466964D01*
X102551634Y-58360243D01*
X102502646Y-58249596D01*
X102447275Y-58135111D01*
X102445708Y-58132000D01*
X102367618Y-57984578D01*
X102281737Y-57836569D01*
X102188236Y-57688197D01*
X102087283Y-57539689D01*
X101979048Y-57391269D01*
X101863698Y-57243162D01*
X101741403Y-57095593D01*
X101612333Y-56948788D01*
X101476655Y-56802972D01*
X101356221Y-56679934D01*
X101204374Y-56532537D01*
X101051157Y-56392217D01*
X100896745Y-56259114D01*
X100741313Y-56133365D01*
X100585037Y-56015110D01*
X100428090Y-55904487D01*
X100270649Y-55801636D01*
X100171021Y-55740734D01*
X100068268Y-55681514D01*
X99966115Y-55626427D01*
X99864964Y-55575612D01*
X99765220Y-55529209D01*
X99667285Y-55487356D01*
X99571564Y-55450194D01*
X99478460Y-55417860D01*
X99388378Y-55390495D01*
X99301720Y-55368238D01*
X99218890Y-55351227D01*
X99140291Y-55339602D01*
X99066329Y-55333502D01*
X98997405Y-55333066D01*
X98989805Y-55333386D01*
X98930316Y-55338441D01*
X98877453Y-55347706D01*
X98830980Y-55361277D01*
X98790661Y-55379250D01*
X98756261Y-55401723D01*
X98727544Y-55428791D01*
X98713652Y-55446278D01*
X98690798Y-55484884D01*
X98672946Y-55529388D01*
X98660044Y-55579489D01*
X98652039Y-55634883D01*
X98648881Y-55695268D01*
X97460757Y-55695268D01*
X97524496Y-55621194D01*
X97657161Y-55476227D01*
X97792891Y-55336906D01*
X97931202Y-55203793D01*
X98071607Y-55077452D01*
X98213623Y-54958446D01*
X98220000Y-54953307D01*
X98242224Y-54935403D01*
X98264685Y-54917260D01*
X98285783Y-54900174D01*
X98303918Y-54885441D01*
X98317490Y-54874357D01*
X98318000Y-54873939D01*
X98386392Y-54822934D01*
X98459429Y-54778369D01*
X98536985Y-54740259D01*
X98618936Y-54708621D01*
X98705157Y-54683471D01*
X98795522Y-54664825D01*
X98889908Y-54652699D01*
X98988188Y-54647111D01*
X99090239Y-54648076D01*
G37*
G36*
X100142270Y-56644812D02*
G01*
X100186373Y-56654633D01*
X100234020Y-56669739D01*
X100284881Y-56689973D01*
X100338626Y-56715174D01*
X100394927Y-56745182D01*
X100453452Y-56779838D01*
X100513872Y-56818981D01*
X100575858Y-56862453D01*
X100639078Y-56910094D01*
X100703205Y-56961743D01*
X100767907Y-57017241D01*
X100798000Y-57044226D01*
X100866656Y-57108622D01*
X100932570Y-57174360D01*
X100995450Y-57241013D01*
X101055005Y-57308154D01*
X101110942Y-57375356D01*
X101162970Y-57442193D01*
X101210798Y-57508237D01*
X101254133Y-57573062D01*
X101292684Y-57636241D01*
X101326160Y-57697346D01*
X101354269Y-57755951D01*
X101376719Y-57811630D01*
X101393218Y-57863954D01*
X101403475Y-57912498D01*
X101406091Y-57934276D01*
X101406417Y-57970916D01*
X101400843Y-58003466D01*
X101389619Y-58031417D01*
X101372995Y-58054265D01*
X101351220Y-58071502D01*
X101334483Y-58079435D01*
X101311344Y-58085595D01*
X101283790Y-58089113D01*
X101255047Y-58089713D01*
X101233888Y-58087982D01*
X101186980Y-58078614D01*
X101136018Y-58062982D01*
X101081482Y-58041411D01*
X101023853Y-58014229D01*
X100963611Y-57981761D01*
X100901237Y-57944333D01*
X100837210Y-57902273D01*
X100772012Y-57855906D01*
X100706122Y-57805558D01*
X100640021Y-57751556D01*
X100574190Y-57694227D01*
X100509109Y-57633895D01*
X100445258Y-57570888D01*
X100394677Y-57518015D01*
X100335081Y-57452240D01*
X100279340Y-57387070D01*
X100227582Y-57322788D01*
X100179935Y-57259674D01*
X100136525Y-57198012D01*
X100097480Y-57138084D01*
X100062928Y-57080170D01*
X100032995Y-57024555D01*
X100007810Y-56971519D01*
X99987499Y-56921345D01*
X99972191Y-56874315D01*
X99962012Y-56830710D01*
X99957090Y-56790813D01*
X99957551Y-56754907D01*
X99963525Y-56723272D01*
X99975137Y-56696192D01*
X99992516Y-56673948D01*
X100007897Y-56661592D01*
X100034525Y-56648669D01*
X100066016Y-56641671D01*
X100102041Y-56640439D01*
X100142270Y-56644812D01*
G37*
D10*
%TO.C,IC1*%
X118475000Y-107100000D02*
X117000000Y-107100000D01*
X116650000Y-106850000D02*
X112950000Y-106850000D01*
X116650000Y-100350000D02*
X116650000Y-106850000D01*
X112950000Y-106850000D02*
X112950000Y-100350000D01*
X112950000Y-100350000D02*
X116650000Y-100350000D01*
%TO.C,D4*%
X94086760Y-122098680D02*
G75*
G02*
X94186760Y-122098680I50000J0D01*
G01*
X94186760Y-122098680D02*
G75*
G02*
X94086760Y-122098680I-50000J0D01*
G01*
X94086760Y-122098680D02*
X94086760Y-122098680D01*
X94186760Y-122098680D02*
X94186760Y-122098680D01*
%TO.C,D3*%
X94086760Y-117198680D02*
G75*
G02*
X94186760Y-117198680I50000J0D01*
G01*
X94186760Y-117198680D02*
G75*
G02*
X94086760Y-117198680I-50000J0D01*
G01*
X94086760Y-117198680D02*
X94086760Y-117198680D01*
X94186760Y-117198680D02*
X94186760Y-117198680D01*
%TO.C,D2*%
X94086760Y-112298680D02*
G75*
G02*
X94186760Y-112298680I50000J0D01*
G01*
X94186760Y-112298680D02*
G75*
G02*
X94086760Y-112298680I-50000J0D01*
G01*
X94086760Y-112298680D02*
X94086760Y-112298680D01*
X94186760Y-112298680D02*
X94186760Y-112298680D01*
%TO.C,C3*%
X103416229Y-117068680D02*
X103212291Y-117068680D01*
X103416229Y-115828680D02*
X103212291Y-115828680D01*
%TO.C,C4*%
X103416229Y-121068680D02*
X103212291Y-121068680D01*
X103416229Y-119828680D02*
X103212291Y-119828680D01*
%TO.C,C2*%
X103416229Y-113068680D02*
X103212291Y-113068680D01*
X103416229Y-111828680D02*
X103212291Y-111828680D01*
%TO.C,C1*%
X106388729Y-107268680D02*
X106184791Y-107268680D01*
X106388729Y-106028680D02*
X106184791Y-106028680D01*
%TO.C,J1*%
X94870000Y-77545000D02*
X96200000Y-77545000D01*
X94870000Y-78875000D02*
X94870000Y-77545000D01*
X94870000Y-80145000D02*
X94870000Y-85285000D01*
X94870000Y-80145000D02*
X97530000Y-80145000D01*
X94870000Y-85285000D02*
X97530000Y-85285000D01*
X97530000Y-80145000D02*
X97530000Y-85285000D01*
%TO.C,U1*%
X100465440Y-77190000D02*
X101795440Y-77190000D01*
X100465440Y-78520000D02*
X100465440Y-77190000D01*
X100465440Y-79790000D02*
X100465440Y-107790000D01*
X100465440Y-79790000D02*
X103125440Y-79790000D01*
X100465440Y-107790000D02*
X103125440Y-107790000D01*
X100716760Y-132508680D02*
X100716760Y-73508680D01*
X103125440Y-79790000D02*
X103125440Y-107790000D01*
X103716760Y-70508680D02*
X127716760Y-70508680D01*
X110046760Y-130408680D02*
X110046760Y-135508680D01*
X110046760Y-135508680D02*
X103716760Y-135508680D01*
X110904830Y-129908680D02*
X110546760Y-129908680D01*
X111369720Y-129701850D02*
X110904830Y-129908680D01*
X111369730Y-129701850D02*
X111369720Y-129701850D01*
X119860560Y-129658680D02*
X111572970Y-129658680D01*
X120528690Y-129908680D02*
X120063800Y-129701850D01*
X120886760Y-129908680D02*
X120528690Y-129908680D01*
X121386760Y-135508680D02*
X121386760Y-130408680D01*
X127716760Y-135508680D02*
X121386760Y-135508680D01*
X128365440Y-77150000D02*
X129695440Y-77150000D01*
X128365440Y-78480000D02*
X128365440Y-77150000D01*
X128365440Y-79750000D02*
X128365440Y-107750000D01*
X128365440Y-79750000D02*
X131025440Y-79750000D01*
X128365440Y-107750000D02*
X131025440Y-107750000D01*
X129866760Y-128558680D02*
X130716760Y-128558680D01*
X130716760Y-73508680D02*
X130716760Y-123458680D01*
X130716760Y-123458680D02*
X129866760Y-123458680D01*
X130716760Y-128558680D02*
X130716760Y-132508680D01*
X131025440Y-79750000D02*
X131025440Y-107750000D01*
X100716760Y-73508680D02*
G75*
G02*
X103716760Y-70508680I3000001J-1D01*
G01*
X103716760Y-135508680D02*
G75*
G02*
X100716760Y-132508680I0J3000000D01*
G01*
X110046760Y-130408680D02*
G75*
G02*
X110546760Y-129908620I500080J-20D01*
G01*
X111369730Y-129701850D02*
G75*
G02*
X111572970Y-129658656I203410J-457350D01*
G01*
X119860560Y-129658680D02*
G75*
G02*
X120063801Y-129701848I-20J-500120D01*
G01*
X120886760Y-129908680D02*
G75*
G02*
X121386760Y-130408680I-20J-500020D01*
G01*
X127716760Y-70508680D02*
G75*
G02*
X130716760Y-73508680I-1J-3000001D01*
G01*
X130716760Y-132508680D02*
G75*
G02*
X127716760Y-135508620I-2999920J-20D01*
G01*
%TD*%
M02*
