M48
; DRILL file {KiCad 8.0.8-8.0.8-0~ubuntu24.04.1} date 2025-02-23T01:25:28-0600
; FORMAT={-:-/ absolute / inch / decimal}
; #@! TF.CreationDate,2025-02-23T01:25:28-06:00
; #@! TF.GenerationSoftware,Kicad,Pcbnew,8.0.8-8.0.8-0~ubuntu24.04.1
; #@! TF.FileFunction,Plated,1,4,PTH
FMAT,2
INCH
; #@! TA.AperFunction,Plated,PTH,ViaDrill
T1C0.0130
; #@! TA.AperFunction,Plated,PTH,ComponentDrill
T2C0.0394
; #@! TA.AperFunction,Plated,PTH,ComponentDrill
T3C0.0400
; #@! TA.AperFunction,Plated,PTH,ComponentDrill
T4C0.1083
%
G90
G05
T1
X3.6772Y-4.4252
X3.685Y-4.622
X3.7244Y-2.1496
X3.7323Y-2.5984
X3.7795Y-5.0551
X3.7874Y-3.7795
X3.8425Y-4.4961
X3.8504Y-4.6772
X3.8583Y-4.8661
X3.8583Y-5.4331
X3.8819Y-3.3937
X4.0866Y-2.6693
X4.1732Y-3.1654
X4.4173Y-4.2677
X4.4252Y-2.9134
X4.4567Y-2.1181
X4.5433Y-4.6535
X4.5669Y-2.1181
X4.6457Y-4.2677
X4.6929Y-2.1181
X4.7087Y-4.0551
X4.8346Y-3.189
X5.0157Y-2.6614
X5.1732Y-5.4409
X5.3701Y-2.5039
X5.3701Y-3.7008
X5.3858Y-2.1024
X5.3858Y-4.6457
T2
X3.7874Y-3.1053
X3.7874Y-3.2053
X3.7874Y-3.3053
T3
X4.0058Y-3.0909
X4.0058Y-3.1909
X4.0058Y-3.2909
X4.0058Y-3.3909
X4.0058Y-3.4909
X4.0058Y-3.5909
X4.0058Y-3.6909
X4.0058Y-3.7909
X4.0058Y-3.8909
X4.0058Y-3.9909
X4.0058Y-4.0909
X4.0058Y-4.1909
X5.1058Y-3.0909
X5.1058Y-3.1909
X5.1058Y-3.2909
X5.1058Y-3.3909
X5.1058Y-3.4909
X5.1058Y-3.5909
X5.1058Y-3.6909
X5.1058Y-3.7909
X5.1058Y-3.8909
X5.1058Y-3.9909
X5.1058Y-4.0909
X5.1058Y-4.1909
T4
X4.1024Y-2.9134
X4.1024Y-5.1969
X5.0079Y-2.9134
X5.0079Y-5.1969
M30
