%TF.GenerationSoftware,KiCad,Pcbnew,8.0.7-8.0.7-0~ubuntu24.04.1*%
%TF.CreationDate,2025-01-10T19:12:34-06:00*%
%TF.ProjectId,edge_human_detection_board,65646765-5f68-4756-9d61-6e5f64657465,rev?*%
%TF.SameCoordinates,Original*%
%TF.FileFunction,Copper,L3,Inr*%
%TF.FilePolarity,Positive*%
%FSLAX46Y46*%
G04 Gerber Fmt 4.6, Leading zero omitted, Abs format (unit mm)*
G04 Created by KiCad (PCBNEW 8.0.7-8.0.7-0~ubuntu24.04.1) date 2025-01-10 19:12:34*
%MOMM*%
%LPD*%
G01*
G04 APERTURE LIST*
%TA.AperFunction,ComponentPad*%
%ADD10R,1.700000X1.700000*%
%TD*%
%TA.AperFunction,ComponentPad*%
%ADD11O,1.700000X1.700000*%
%TD*%
%TA.AperFunction,ComponentPad*%
%ADD12C,5.500000*%
%TD*%
%TA.AperFunction,ComponentPad*%
%ADD13R,1.524000X1.524000*%
%TD*%
%TA.AperFunction,ComponentPad*%
%ADD14C,1.524000*%
%TD*%
%TA.AperFunction,ViaPad*%
%ADD15C,0.533400*%
%TD*%
G04 APERTURE END LIST*
D10*
%TO.N,GND*%
%TO.C,J1*%
X122000000Y-54000000D03*
D11*
%TO.N,/Coral Micro Breakouts/DEBUG_TX*%
X122000000Y-56540000D03*
%TO.N,/Coral Micro Breakouts/DEBUG_RX*%
X122000000Y-59080000D03*
%TD*%
D12*
%TO.N,*%
%TO.C,U1*%
X159513240Y-53551320D03*
X136513240Y-53551320D03*
X159513240Y-111551320D03*
X136513240Y-111551320D03*
D13*
%TO.N,GND*%
X162000000Y-58060000D03*
D14*
%TO.N,Net-(R4-Pad1)*%
X162000000Y-60600000D03*
%TO.N,Net-(U1-3.3V)*%
X162000000Y-63140000D03*
%TO.N,unconnected-(U1-RTC_3V-Pad4)*%
X162000000Y-65680000D03*
%TO.N,unconnected-(U1-SPI6_CS0-Pad5)*%
X162000000Y-68220000D03*
%TO.N,unconnected-(U1-SPI6_SCK-Pad6)*%
X162000000Y-70760000D03*
%TO.N,unconnected-(U1-SPI6_SDO-Pad7)*%
X162000000Y-73300000D03*
%TO.N,unconnected-(U1-SPI6_SDI-Pad8)*%
X162000000Y-75840000D03*
%TO.N,unconnected-(U1-DAC_OUT-Pad9)*%
X162000000Y-78380000D03*
%TO.N,unconnected-(U1-I2C6_SDA-Pad10)*%
X162000000Y-80920000D03*
%TO.N,/TOF Sensor/SCL*%
X162000000Y-83460000D03*
%TO.N,/TOF Sensor/SDA*%
X162000000Y-86000000D03*
D13*
%TO.N,GND*%
X134060000Y-58060000D03*
D14*
%TO.N,Net-(R3-Pad2)*%
X134060000Y-60600000D03*
%TO.N,unconnected-(U1-ADC1_CH0A-Pad15)*%
X134060000Y-63140000D03*
%TO.N,unconnected-(U1-ADC1_CH0B-Pad16)*%
X134060000Y-65680000D03*
%TO.N,/Coral Micro Breakouts/DEBUG_TX*%
X134060000Y-68220000D03*
%TO.N,/Coral Micro Breakouts/DEBUG_RX*%
X134060000Y-70760000D03*
%TO.N,unconnected-(U1-UART6_CTX-Pad19)*%
X134060000Y-73300000D03*
%TO.N,unconnected-(U1-UART6_RTS-Pad20)*%
X134060000Y-75840000D03*
%TO.N,/TOF Sensor/LPn*%
X134060000Y-78380000D03*
%TO.N,/RGB Signalling/SIG_IN_PWM0*%
X134060000Y-80920000D03*
%TO.N,unconnected-(U1-I2C6_SCL-Pad23)*%
X134060000Y-83460000D03*
%TO.N,Net-(U1-VSYS)*%
X134060000Y-86000000D03*
%TD*%
D15*
%TO.N,GND*%
X147000000Y-42200000D03*
X127400000Y-63600000D03*
%TO.N,/RGB Signalling/SIG_IN_RGB2*%
X127000000Y-97000000D03*
%TO.N,GND*%
X138000000Y-43000000D03*
X127500000Y-101500000D03*
X161500000Y-117500000D03*
X136500000Y-103500000D03*
X151000000Y-34000000D03*
X169500000Y-87500000D03*
X121400000Y-104000000D03*
X169500000Y-74500000D03*
X164500000Y-45500000D03*
X143500000Y-42500000D03*
X168500000Y-43000000D03*
X120000000Y-110500000D03*
X126500000Y-116500000D03*
X120500000Y-96500000D03*
X165000000Y-54500000D03*
X118500000Y-75000000D03*
X141500000Y-68500000D03*
X152999195Y-43494745D03*
X168500000Y-110000000D03*
X136500000Y-99000000D03*
X139500000Y-88000000D03*
X159500000Y-99000000D03*
X125000000Y-85000000D03*
X121000000Y-75000000D03*
X128000000Y-76000000D03*
X159500000Y-104000000D03*
X157000000Y-80000000D03*
X129000000Y-94500000D03*
X135500000Y-117000000D03*
X131000000Y-90500000D03*
X156500000Y-88000000D03*
X125500000Y-50000000D03*
X156500000Y-74000000D03*
X120800000Y-47000000D03*
X145500000Y-46000000D03*
X169000000Y-99000000D03*
X140000000Y-80000000D03*
X157500000Y-45000000D03*
%TO.N,/RGB Signalling/SIG_IN_RGB1*%
X130000000Y-91500000D03*
X126500000Y-76000000D03*
%TO.N,/Coral Micro Breakouts/+1.8VDC_RGB*%
X128500000Y-53500000D03*
X117000000Y-75000000D03*
%TO.N,/RGB Signalling/SIG_IN_RGB3*%
X127000000Y-105050000D03*
%TO.N,/RGB Signalling/SIG_IN_PWM0*%
X121500000Y-76000000D03*
X137600000Y-80000000D03*
%TO.N,/TOF Sensor/SCL*%
X136000000Y-45500000D03*
%TO.N,/TOF Sensor/SDA*%
X141000000Y-45000000D03*
X153000000Y-65500000D03*
X148000000Y-76800000D03*
%TO.N,/TOF Sensor/CORE_1V8*%
X166500000Y-55000000D03*
X149500000Y-44500000D03*
X142000000Y-36000000D03*
%TO.N,/TOF Sensor/AVDD*%
X134600000Y-37600000D03*
X163800000Y-35600000D03*
%TO.N,/TOF Sensor/LPn*%
X153500000Y-49500000D03*
X141000000Y-75400000D03*
X153500000Y-45500000D03*
%TD*%
%TA.AperFunction,Conductor*%
%TO.N,GND*%
G36*
X171943039Y-33519685D02*
G01*
X171988794Y-33572489D01*
X172000000Y-33624000D01*
X172000000Y-119876000D01*
X171980315Y-119943039D01*
X171927511Y-119988794D01*
X171876000Y-120000000D01*
X115124000Y-120000000D01*
X115056961Y-119980315D01*
X115011206Y-119927511D01*
X115000000Y-119876000D01*
X115000000Y-116281995D01*
X117399500Y-116281995D01*
X117399500Y-116518004D01*
X117399501Y-116518020D01*
X117430306Y-116752010D01*
X117491394Y-116979993D01*
X117581714Y-117198045D01*
X117581719Y-117198056D01*
X117640733Y-117300269D01*
X117699727Y-117402450D01*
X117699729Y-117402453D01*
X117699730Y-117402454D01*
X117843406Y-117589697D01*
X117843412Y-117589704D01*
X118010295Y-117756587D01*
X118010301Y-117756592D01*
X118197550Y-117900273D01*
X118328918Y-117976118D01*
X118401943Y-118018280D01*
X118401948Y-118018282D01*
X118401951Y-118018284D01*
X118620007Y-118108606D01*
X118847986Y-118169693D01*
X119081989Y-118200500D01*
X119081996Y-118200500D01*
X119318004Y-118200500D01*
X119318011Y-118200500D01*
X119552014Y-118169693D01*
X119779993Y-118108606D01*
X119998049Y-118018284D01*
X120202450Y-117900273D01*
X120389699Y-117756592D01*
X120556592Y-117589699D01*
X120700273Y-117402450D01*
X120818284Y-117198049D01*
X120908606Y-116979993D01*
X120930670Y-116897648D01*
X140099500Y-116897648D01*
X140099500Y-117102351D01*
X140131522Y-117304534D01*
X140194781Y-117499223D01*
X140287715Y-117681613D01*
X140408028Y-117847213D01*
X140552786Y-117991971D01*
X140707749Y-118104556D01*
X140718390Y-118112287D01*
X140834607Y-118171503D01*
X140900776Y-118205218D01*
X140900778Y-118205218D01*
X140900781Y-118205220D01*
X141005137Y-118239127D01*
X141095465Y-118268477D01*
X141196557Y-118284488D01*
X141297648Y-118300500D01*
X141297649Y-118300500D01*
X141502351Y-118300500D01*
X141502352Y-118300500D01*
X141704534Y-118268477D01*
X141899219Y-118205220D01*
X142081610Y-118112287D01*
X142210994Y-118018285D01*
X142247213Y-117991971D01*
X142247215Y-117991968D01*
X142247219Y-117991966D01*
X142391966Y-117847219D01*
X142391968Y-117847215D01*
X142391971Y-117847213D01*
X142457813Y-117756587D01*
X142512287Y-117681610D01*
X142605220Y-117499219D01*
X142668477Y-117304534D01*
X142700500Y-117102352D01*
X142700500Y-116897648D01*
X154299500Y-116897648D01*
X154299500Y-117102351D01*
X154331522Y-117304534D01*
X154394781Y-117499223D01*
X154487715Y-117681613D01*
X154608028Y-117847213D01*
X154752786Y-117991971D01*
X154907749Y-118104556D01*
X154918390Y-118112287D01*
X155034607Y-118171503D01*
X155100776Y-118205218D01*
X155100778Y-118205218D01*
X155100781Y-118205220D01*
X155205137Y-118239127D01*
X155295465Y-118268477D01*
X155396557Y-118284488D01*
X155497648Y-118300500D01*
X155497649Y-118300500D01*
X155702351Y-118300500D01*
X155702352Y-118300500D01*
X155904534Y-118268477D01*
X156099219Y-118205220D01*
X156281610Y-118112287D01*
X156410994Y-118018285D01*
X156447213Y-117991971D01*
X156447215Y-117991968D01*
X156447219Y-117991966D01*
X156591966Y-117847219D01*
X156591968Y-117847215D01*
X156591971Y-117847213D01*
X156657813Y-117756587D01*
X156712287Y-117681610D01*
X156805220Y-117499219D01*
X156868477Y-117304534D01*
X156900500Y-117102352D01*
X156900500Y-116897648D01*
X156885422Y-116802450D01*
X156868477Y-116695465D01*
X156805218Y-116500776D01*
X156743675Y-116379993D01*
X156712287Y-116318390D01*
X156685845Y-116281995D01*
X156591971Y-116152786D01*
X156447213Y-116008028D01*
X156281613Y-115887715D01*
X156281612Y-115887714D01*
X156281610Y-115887713D01*
X156224653Y-115858691D01*
X156099223Y-115794781D01*
X155904534Y-115731522D01*
X155729995Y-115703878D01*
X155702352Y-115699500D01*
X155497648Y-115699500D01*
X155473329Y-115703351D01*
X155295465Y-115731522D01*
X155100776Y-115794781D01*
X154918386Y-115887715D01*
X154752786Y-116008028D01*
X154608028Y-116152786D01*
X154487715Y-116318386D01*
X154394781Y-116500776D01*
X154331522Y-116695465D01*
X154299500Y-116897648D01*
X142700500Y-116897648D01*
X142685422Y-116802450D01*
X142668477Y-116695465D01*
X142605218Y-116500776D01*
X142543675Y-116379993D01*
X142512287Y-116318390D01*
X142485845Y-116281995D01*
X142391971Y-116152786D01*
X142247213Y-116008028D01*
X142081613Y-115887715D01*
X142081612Y-115887714D01*
X142081610Y-115887713D01*
X142024653Y-115858691D01*
X141899223Y-115794781D01*
X141704534Y-115731522D01*
X141529995Y-115703878D01*
X141502352Y-115699500D01*
X141297648Y-115699500D01*
X141273329Y-115703351D01*
X141095465Y-115731522D01*
X140900776Y-115794781D01*
X140718386Y-115887715D01*
X140552786Y-116008028D01*
X140408028Y-116152786D01*
X140287715Y-116318386D01*
X140194781Y-116500776D01*
X140131522Y-116695465D01*
X140099500Y-116897648D01*
X120930670Y-116897648D01*
X120969693Y-116752014D01*
X121000500Y-116518011D01*
X121000500Y-116281989D01*
X120969693Y-116047986D01*
X120908606Y-115820007D01*
X120851439Y-115681995D01*
X166399500Y-115681995D01*
X166399500Y-115918004D01*
X166399501Y-115918020D01*
X166430306Y-116152010D01*
X166491394Y-116379993D01*
X166581714Y-116598045D01*
X166581719Y-116598056D01*
X166637959Y-116695465D01*
X166699727Y-116802450D01*
X166699729Y-116802453D01*
X166699730Y-116802454D01*
X166843406Y-116989697D01*
X166843412Y-116989704D01*
X167010295Y-117156587D01*
X167010301Y-117156592D01*
X167197550Y-117300273D01*
X167328918Y-117376118D01*
X167401943Y-117418280D01*
X167401948Y-117418282D01*
X167401951Y-117418284D01*
X167620007Y-117508606D01*
X167847986Y-117569693D01*
X168081989Y-117600500D01*
X168081996Y-117600500D01*
X168318004Y-117600500D01*
X168318011Y-117600500D01*
X168552014Y-117569693D01*
X168779993Y-117508606D01*
X168998049Y-117418284D01*
X169202450Y-117300273D01*
X169389699Y-117156592D01*
X169556592Y-116989699D01*
X169700273Y-116802450D01*
X169818284Y-116598049D01*
X169908606Y-116379993D01*
X169969693Y-116152014D01*
X170000500Y-115918011D01*
X170000500Y-115681989D01*
X169969693Y-115447986D01*
X169908606Y-115220007D01*
X169818284Y-115001951D01*
X169818282Y-115001948D01*
X169818280Y-115001943D01*
X169776118Y-114928918D01*
X169700273Y-114797550D01*
X169571943Y-114630307D01*
X169556593Y-114610302D01*
X169556587Y-114610295D01*
X169389704Y-114443412D01*
X169389697Y-114443406D01*
X169202454Y-114299730D01*
X169202453Y-114299729D01*
X169202450Y-114299727D01*
X169108829Y-114245675D01*
X168998056Y-114181719D01*
X168998045Y-114181714D01*
X168779993Y-114091394D01*
X168559698Y-114032366D01*
X168552014Y-114030307D01*
X168552013Y-114030306D01*
X168552010Y-114030306D01*
X168318020Y-113999501D01*
X168318017Y-113999500D01*
X168318011Y-113999500D01*
X168081989Y-113999500D01*
X168081983Y-113999500D01*
X168081979Y-113999501D01*
X167847989Y-114030306D01*
X167620006Y-114091394D01*
X167401954Y-114181714D01*
X167401943Y-114181719D01*
X167197545Y-114299730D01*
X167010302Y-114443406D01*
X167010295Y-114443412D01*
X166843412Y-114610295D01*
X166843406Y-114610302D01*
X166699730Y-114797545D01*
X166581719Y-115001943D01*
X166581714Y-115001954D01*
X166491394Y-115220006D01*
X166430306Y-115447989D01*
X166399501Y-115681979D01*
X166399500Y-115681995D01*
X120851439Y-115681995D01*
X120818284Y-115601951D01*
X120818282Y-115601948D01*
X120818280Y-115601943D01*
X120776118Y-115528918D01*
X120700273Y-115397550D01*
X120556592Y-115210301D01*
X120556587Y-115210295D01*
X120389704Y-115043412D01*
X120389697Y-115043406D01*
X120202454Y-114899730D01*
X120202453Y-114899729D01*
X120202450Y-114899727D01*
X120120957Y-114852677D01*
X119998056Y-114781719D01*
X119998045Y-114781714D01*
X119779993Y-114691394D01*
X119552010Y-114630306D01*
X119318020Y-114599501D01*
X119318017Y-114599500D01*
X119318011Y-114599500D01*
X119081989Y-114599500D01*
X119081983Y-114599500D01*
X119081979Y-114599501D01*
X118847989Y-114630306D01*
X118620006Y-114691394D01*
X118401954Y-114781714D01*
X118401943Y-114781719D01*
X118197545Y-114899730D01*
X118010302Y-115043406D01*
X118010295Y-115043412D01*
X117843412Y-115210295D01*
X117843406Y-115210302D01*
X117699730Y-115397545D01*
X117581719Y-115601943D01*
X117581714Y-115601954D01*
X117491394Y-115820006D01*
X117430306Y-116047989D01*
X117399501Y-116281979D01*
X117399500Y-116281995D01*
X115000000Y-116281995D01*
X115000000Y-111551317D01*
X133257966Y-111551317D01*
X133257966Y-111551322D01*
X133277048Y-111903274D01*
X133334073Y-112251113D01*
X133334074Y-112251116D01*
X133428366Y-112590728D01*
X133428367Y-112590730D01*
X133558828Y-112918164D01*
X133558837Y-112918182D01*
X133723935Y-113229589D01*
X133921738Y-113521326D01*
X133921745Y-113521336D01*
X134149925Y-113789969D01*
X134149926Y-113789970D01*
X134405820Y-114032366D01*
X134686422Y-114245674D01*
X134988442Y-114427394D01*
X134988446Y-114427395D01*
X134988450Y-114427398D01*
X135308328Y-114575390D01*
X135308332Y-114575390D01*
X135308339Y-114575394D01*
X135642362Y-114687939D01*
X135986595Y-114763711D01*
X136337003Y-114801820D01*
X136337009Y-114801820D01*
X136689471Y-114801820D01*
X136689477Y-114801820D01*
X137039885Y-114763711D01*
X137384118Y-114687939D01*
X137718141Y-114575394D01*
X137718148Y-114575390D01*
X137718151Y-114575390D01*
X137971716Y-114458077D01*
X138038038Y-114427394D01*
X138340058Y-114245674D01*
X138620660Y-114032366D01*
X138876554Y-113789970D01*
X139104741Y-113521328D01*
X139302545Y-113229589D01*
X139467647Y-112918174D01*
X139598111Y-112590734D01*
X139692408Y-112251108D01*
X139749431Y-111903277D01*
X139768514Y-111551320D01*
X139768514Y-111551317D01*
X156257966Y-111551317D01*
X156257966Y-111551322D01*
X156277048Y-111903274D01*
X156334073Y-112251113D01*
X156334074Y-112251116D01*
X156428366Y-112590728D01*
X156428367Y-112590730D01*
X156558828Y-112918164D01*
X156558837Y-112918182D01*
X156723935Y-113229589D01*
X156921738Y-113521326D01*
X156921745Y-113521336D01*
X157149925Y-113789969D01*
X157149926Y-113789970D01*
X157405820Y-114032366D01*
X157686422Y-114245674D01*
X157988442Y-114427394D01*
X157988446Y-114427395D01*
X157988450Y-114427398D01*
X158308328Y-114575390D01*
X158308332Y-114575390D01*
X158308339Y-114575394D01*
X158642362Y-114687939D01*
X158986595Y-114763711D01*
X159337003Y-114801820D01*
X159337009Y-114801820D01*
X159689471Y-114801820D01*
X159689477Y-114801820D01*
X160039885Y-114763711D01*
X160384118Y-114687939D01*
X160718141Y-114575394D01*
X160718148Y-114575390D01*
X160718151Y-114575390D01*
X160971716Y-114458077D01*
X161038038Y-114427394D01*
X161340058Y-114245674D01*
X161620660Y-114032366D01*
X161876554Y-113789970D01*
X162104741Y-113521328D01*
X162302545Y-113229589D01*
X162467647Y-112918174D01*
X162598111Y-112590734D01*
X162692408Y-112251108D01*
X162749431Y-111903277D01*
X162768514Y-111551320D01*
X162749431Y-111199363D01*
X162692408Y-110851532D01*
X162649944Y-110698591D01*
X162598113Y-110511911D01*
X162598112Y-110511909D01*
X162467651Y-110184475D01*
X162467642Y-110184457D01*
X162302544Y-109873050D01*
X162104741Y-109581312D01*
X162104737Y-109581307D01*
X162104734Y-109581303D01*
X161876554Y-109312670D01*
X161620660Y-109070274D01*
X161620653Y-109070268D01*
X161620650Y-109070266D01*
X161340055Y-108856964D01*
X161038042Y-108675248D01*
X161038029Y-108675241D01*
X160718151Y-108527249D01*
X160718146Y-108527248D01*
X160718143Y-108527247D01*
X160718141Y-108527246D01*
X160611672Y-108491372D01*
X160384120Y-108414701D01*
X160039883Y-108338928D01*
X159689478Y-108300820D01*
X159689477Y-108300820D01*
X159337003Y-108300820D01*
X159337001Y-108300820D01*
X158986596Y-108338928D01*
X158642359Y-108414701D01*
X158308333Y-108527248D01*
X158308328Y-108527249D01*
X157988450Y-108675241D01*
X157988437Y-108675248D01*
X157686424Y-108856964D01*
X157405829Y-109070266D01*
X157405820Y-109070274D01*
X157149925Y-109312670D01*
X156921745Y-109581303D01*
X156921738Y-109581313D01*
X156723935Y-109873050D01*
X156558837Y-110184457D01*
X156558828Y-110184475D01*
X156428367Y-110511909D01*
X156428366Y-110511911D01*
X156334074Y-110851523D01*
X156334073Y-110851526D01*
X156277048Y-111199365D01*
X156257966Y-111551317D01*
X139768514Y-111551317D01*
X139749431Y-111199363D01*
X139692408Y-110851532D01*
X139649944Y-110698591D01*
X139598113Y-110511911D01*
X139598112Y-110511909D01*
X139467651Y-110184475D01*
X139467642Y-110184457D01*
X139302544Y-109873050D01*
X139104741Y-109581312D01*
X139104737Y-109581307D01*
X139104734Y-109581303D01*
X138876554Y-109312670D01*
X138620660Y-109070274D01*
X138620653Y-109070268D01*
X138620650Y-109070266D01*
X138340055Y-108856964D01*
X138038042Y-108675248D01*
X138038029Y-108675241D01*
X137718151Y-108527249D01*
X137718146Y-108527248D01*
X137718143Y-108527247D01*
X137718141Y-108527246D01*
X137611672Y-108491372D01*
X137384120Y-108414701D01*
X137039883Y-108338928D01*
X136689478Y-108300820D01*
X136689477Y-108300820D01*
X136337003Y-108300820D01*
X136337001Y-108300820D01*
X135986596Y-108338928D01*
X135642359Y-108414701D01*
X135308333Y-108527248D01*
X135308328Y-108527249D01*
X134988450Y-108675241D01*
X134988437Y-108675248D01*
X134686424Y-108856964D01*
X134405829Y-109070266D01*
X134405820Y-109070274D01*
X134149925Y-109312670D01*
X133921745Y-109581303D01*
X133921738Y-109581313D01*
X133723935Y-109873050D01*
X133558837Y-110184457D01*
X133558828Y-110184475D01*
X133428367Y-110511909D01*
X133428366Y-110511911D01*
X133334074Y-110851523D01*
X133334073Y-110851526D01*
X133277048Y-111199365D01*
X133257966Y-111551317D01*
X115000000Y-111551317D01*
X115000000Y-105049996D01*
X126227945Y-105049996D01*
X126227945Y-105050003D01*
X126247301Y-105221795D01*
X126304402Y-105384983D01*
X126396382Y-105531367D01*
X126396383Y-105531368D01*
X126518632Y-105653617D01*
X126665018Y-105745598D01*
X126828202Y-105802698D01*
X126885468Y-105809150D01*
X126999996Y-105822055D01*
X127000000Y-105822055D01*
X127000004Y-105822055D01*
X127098170Y-105810993D01*
X127171798Y-105802698D01*
X127334982Y-105745598D01*
X127481368Y-105653617D01*
X127603617Y-105531368D01*
X127695598Y-105384982D01*
X127752698Y-105221798D01*
X127772055Y-105050000D01*
X127752698Y-104878202D01*
X127695598Y-104715018D01*
X127603617Y-104568632D01*
X127481368Y-104446383D01*
X127481367Y-104446382D01*
X127334983Y-104354402D01*
X127171795Y-104297301D01*
X127000004Y-104277945D01*
X126999996Y-104277945D01*
X126828204Y-104297301D01*
X126665016Y-104354402D01*
X126518632Y-104446382D01*
X126396382Y-104568632D01*
X126304402Y-104715016D01*
X126247301Y-104878204D01*
X126227945Y-105049996D01*
X115000000Y-105049996D01*
X115000000Y-96999996D01*
X126227945Y-96999996D01*
X126227945Y-97000003D01*
X126247301Y-97171795D01*
X126304402Y-97334983D01*
X126396382Y-97481367D01*
X126396383Y-97481368D01*
X126518632Y-97603617D01*
X126665018Y-97695598D01*
X126828202Y-97752698D01*
X126885468Y-97759150D01*
X126999996Y-97772055D01*
X127000000Y-97772055D01*
X127000004Y-97772055D01*
X127098170Y-97760993D01*
X127171798Y-97752698D01*
X127334982Y-97695598D01*
X127481368Y-97603617D01*
X127603617Y-97481368D01*
X127695598Y-97334982D01*
X127752698Y-97171798D01*
X127772055Y-97000000D01*
X127752698Y-96828202D01*
X127695598Y-96665018D01*
X127603617Y-96518632D01*
X127481368Y-96396383D01*
X127481367Y-96396382D01*
X127334983Y-96304402D01*
X127171795Y-96247301D01*
X127000004Y-96227945D01*
X126999996Y-96227945D01*
X126828204Y-96247301D01*
X126665016Y-96304402D01*
X126518632Y-96396382D01*
X126396382Y-96518632D01*
X126304402Y-96665016D01*
X126247301Y-96828204D01*
X126227945Y-96999996D01*
X115000000Y-96999996D01*
X115000000Y-91499996D01*
X129227945Y-91499996D01*
X129227945Y-91500003D01*
X129247301Y-91671795D01*
X129304402Y-91834983D01*
X129396382Y-91981367D01*
X129396383Y-91981368D01*
X129518632Y-92103617D01*
X129665018Y-92195598D01*
X129828202Y-92252698D01*
X129885468Y-92259150D01*
X129999996Y-92272055D01*
X130000000Y-92272055D01*
X130000004Y-92272055D01*
X130098170Y-92260993D01*
X130171798Y-92252698D01*
X130334982Y-92195598D01*
X130481368Y-92103617D01*
X130603617Y-91981368D01*
X130695598Y-91834982D01*
X130752698Y-91671798D01*
X130772055Y-91500000D01*
X130752698Y-91328202D01*
X130695598Y-91165018D01*
X130603617Y-91018632D01*
X130481368Y-90896383D01*
X130481367Y-90896382D01*
X130334983Y-90804402D01*
X130171795Y-90747301D01*
X130000004Y-90727945D01*
X129999996Y-90727945D01*
X129828204Y-90747301D01*
X129665016Y-90804402D01*
X129518632Y-90896382D01*
X129396382Y-91018632D01*
X129304402Y-91165016D01*
X129247301Y-91328204D01*
X129227945Y-91499996D01*
X115000000Y-91499996D01*
X115000000Y-75999996D01*
X120727945Y-75999996D01*
X120727945Y-76000003D01*
X120747301Y-76171795D01*
X120804402Y-76334983D01*
X120896382Y-76481367D01*
X121018632Y-76603617D01*
X121057758Y-76628202D01*
X121165018Y-76695598D01*
X121328202Y-76752698D01*
X121385468Y-76759150D01*
X121499996Y-76772055D01*
X121500000Y-76772055D01*
X121500004Y-76772055D01*
X121598170Y-76760993D01*
X121671798Y-76752698D01*
X121834982Y-76695598D01*
X121981368Y-76603617D01*
X122103617Y-76481368D01*
X122195598Y-76334982D01*
X122252698Y-76171798D01*
X122266725Y-76047302D01*
X122272055Y-76000003D01*
X122272055Y-75999996D01*
X125727945Y-75999996D01*
X125727945Y-76000003D01*
X125747301Y-76171795D01*
X125804402Y-76334983D01*
X125896382Y-76481367D01*
X126018632Y-76603617D01*
X126057758Y-76628202D01*
X126165018Y-76695598D01*
X126328202Y-76752698D01*
X126385468Y-76759150D01*
X126499996Y-76772055D01*
X126500000Y-76772055D01*
X126500004Y-76772055D01*
X126598170Y-76760993D01*
X126671798Y-76752698D01*
X126834982Y-76695598D01*
X126981368Y-76603617D01*
X127103617Y-76481368D01*
X127195598Y-76334982D01*
X127252698Y-76171798D01*
X127266725Y-76047302D01*
X127272055Y-76000003D01*
X127272055Y-75999996D01*
X127258688Y-75881367D01*
X127252698Y-75828202D01*
X127195598Y-75665018D01*
X127167268Y-75619932D01*
X127103617Y-75518632D01*
X126981367Y-75396382D01*
X126834983Y-75304402D01*
X126671795Y-75247301D01*
X126500004Y-75227945D01*
X126499996Y-75227945D01*
X126328204Y-75247301D01*
X126165016Y-75304402D01*
X126018632Y-75396382D01*
X125896382Y-75518632D01*
X125804402Y-75665016D01*
X125747301Y-75828204D01*
X125727945Y-75999996D01*
X122272055Y-75999996D01*
X122258688Y-75881367D01*
X122252698Y-75828202D01*
X122195598Y-75665018D01*
X122167268Y-75619932D01*
X122103617Y-75518632D01*
X121981367Y-75396382D01*
X121834983Y-75304402D01*
X121671795Y-75247301D01*
X121500004Y-75227945D01*
X121499996Y-75227945D01*
X121328204Y-75247301D01*
X121165016Y-75304402D01*
X121018632Y-75396382D01*
X120896382Y-75518632D01*
X120804402Y-75665016D01*
X120747301Y-75828204D01*
X120727945Y-75999996D01*
X115000000Y-75999996D01*
X115000000Y-74999996D01*
X116227945Y-74999996D01*
X116227945Y-75000003D01*
X116247301Y-75171795D01*
X116304402Y-75334983D01*
X116396382Y-75481367D01*
X116518632Y-75603617D01*
X116616350Y-75665018D01*
X116665018Y-75695598D01*
X116828202Y-75752698D01*
X116885468Y-75759150D01*
X116999996Y-75772055D01*
X117000000Y-75772055D01*
X117000004Y-75772055D01*
X117098170Y-75760993D01*
X117171798Y-75752698D01*
X117334982Y-75695598D01*
X117481368Y-75603617D01*
X117603617Y-75481368D01*
X117695598Y-75334982D01*
X117752698Y-75171798D01*
X117764729Y-75065018D01*
X117772055Y-75000003D01*
X117772055Y-74999996D01*
X117759150Y-74885468D01*
X117752698Y-74828202D01*
X117695598Y-74665018D01*
X117672303Y-74627945D01*
X117603617Y-74518632D01*
X117481367Y-74396382D01*
X117334983Y-74304402D01*
X117171795Y-74247301D01*
X117000004Y-74227945D01*
X116999996Y-74227945D01*
X116828204Y-74247301D01*
X116665016Y-74304402D01*
X116518632Y-74396382D01*
X116396382Y-74518632D01*
X116304402Y-74665016D01*
X116247301Y-74828204D01*
X116227945Y-74999996D01*
X115000000Y-74999996D01*
X115000000Y-60599997D01*
X132792677Y-60599997D01*
X132792677Y-60600002D01*
X132811929Y-60820062D01*
X132811930Y-60820070D01*
X132869104Y-61033445D01*
X132869105Y-61033447D01*
X132869106Y-61033450D01*
X132962466Y-61233662D01*
X132962468Y-61233666D01*
X133089170Y-61414615D01*
X133089175Y-61414621D01*
X133245378Y-61570824D01*
X133245384Y-61570829D01*
X133426333Y-61697531D01*
X133426335Y-61697532D01*
X133426338Y-61697534D01*
X133545748Y-61753215D01*
X133555189Y-61757618D01*
X133607628Y-61803790D01*
X133626780Y-61870984D01*
X133606564Y-61937865D01*
X133555189Y-61982382D01*
X133426340Y-62042465D01*
X133426338Y-62042466D01*
X133245377Y-62169175D01*
X133089175Y-62325377D01*
X132962466Y-62506338D01*
X132962465Y-62506340D01*
X132869107Y-62706548D01*
X132869104Y-62706554D01*
X132811930Y-62919929D01*
X132811929Y-62919937D01*
X132792677Y-63139997D01*
X132792677Y-63140002D01*
X132811929Y-63360062D01*
X132811930Y-63360070D01*
X132869104Y-63573445D01*
X132869105Y-63573447D01*
X132869106Y-63573450D01*
X132962466Y-63773662D01*
X132962468Y-63773666D01*
X133089170Y-63954615D01*
X133089175Y-63954621D01*
X133245378Y-64110824D01*
X133245384Y-64110829D01*
X133426333Y-64237531D01*
X133426335Y-64237532D01*
X133426338Y-64237534D01*
X133545748Y-64293215D01*
X133555189Y-64297618D01*
X133607628Y-64343790D01*
X133626780Y-64410984D01*
X133606564Y-64477865D01*
X133555189Y-64522382D01*
X133426340Y-64582465D01*
X133426338Y-64582466D01*
X133245377Y-64709175D01*
X133089175Y-64865377D01*
X132962466Y-65046338D01*
X132962465Y-65046340D01*
X132869107Y-65246548D01*
X132869104Y-65246554D01*
X132811930Y-65459929D01*
X132811929Y-65459937D01*
X132792677Y-65679997D01*
X132792677Y-65680002D01*
X132811929Y-65900062D01*
X132811930Y-65900070D01*
X132869104Y-66113445D01*
X132869105Y-66113447D01*
X132869106Y-66113450D01*
X132962466Y-66313662D01*
X132962468Y-66313666D01*
X133089170Y-66494615D01*
X133089175Y-66494621D01*
X133245378Y-66650824D01*
X133245384Y-66650829D01*
X133426333Y-66777531D01*
X133426335Y-66777532D01*
X133426338Y-66777534D01*
X133545748Y-66833215D01*
X133555189Y-66837618D01*
X133607628Y-66883790D01*
X133626780Y-66950984D01*
X133606564Y-67017865D01*
X133555189Y-67062382D01*
X133426340Y-67122465D01*
X133426338Y-67122466D01*
X133245377Y-67249175D01*
X133089175Y-67405377D01*
X132962466Y-67586338D01*
X132962465Y-67586340D01*
X132869107Y-67786548D01*
X132869104Y-67786554D01*
X132811930Y-67999929D01*
X132811929Y-67999937D01*
X132792677Y-68219997D01*
X132792677Y-68220002D01*
X132811929Y-68440062D01*
X132811930Y-68440070D01*
X132869104Y-68653445D01*
X132869105Y-68653447D01*
X132869106Y-68653450D01*
X132962466Y-68853662D01*
X132962468Y-68853666D01*
X133089170Y-69034615D01*
X133089175Y-69034621D01*
X133245378Y-69190824D01*
X133245384Y-69190829D01*
X133426333Y-69317531D01*
X133426335Y-69317532D01*
X133426338Y-69317534D01*
X133545748Y-69373215D01*
X133555189Y-69377618D01*
X133607628Y-69423790D01*
X133626780Y-69490984D01*
X133606564Y-69557865D01*
X133555189Y-69602382D01*
X133426340Y-69662465D01*
X133426338Y-69662466D01*
X133245377Y-69789175D01*
X133089175Y-69945377D01*
X132962466Y-70126338D01*
X132962465Y-70126340D01*
X132869107Y-70326548D01*
X132869104Y-70326554D01*
X132811930Y-70539929D01*
X132811929Y-70539937D01*
X132792677Y-70759997D01*
X132792677Y-70760002D01*
X132811929Y-70980062D01*
X132811930Y-70980070D01*
X132869104Y-71193445D01*
X132869105Y-71193447D01*
X132869106Y-71193450D01*
X132962466Y-71393662D01*
X132962468Y-71393666D01*
X133089170Y-71574615D01*
X133089175Y-71574621D01*
X133245378Y-71730824D01*
X133245384Y-71730829D01*
X133426333Y-71857531D01*
X133426335Y-71857532D01*
X133426338Y-71857534D01*
X133545748Y-71913215D01*
X133555189Y-71917618D01*
X133607628Y-71963790D01*
X133626780Y-72030984D01*
X133606564Y-72097865D01*
X133555189Y-72142382D01*
X133426340Y-72202465D01*
X133426338Y-72202466D01*
X133245377Y-72329175D01*
X133089175Y-72485377D01*
X132962466Y-72666338D01*
X132962465Y-72666340D01*
X132869107Y-72866548D01*
X132869104Y-72866554D01*
X132811930Y-73079929D01*
X132811929Y-73079937D01*
X132792677Y-73299997D01*
X132792677Y-73300002D01*
X132811929Y-73520062D01*
X132811930Y-73520070D01*
X132869104Y-73733445D01*
X132869105Y-73733447D01*
X132869106Y-73733450D01*
X132962466Y-73933662D01*
X132962468Y-73933666D01*
X133089170Y-74114615D01*
X133089175Y-74114621D01*
X133245378Y-74270824D01*
X133245384Y-74270829D01*
X133426333Y-74397531D01*
X133426335Y-74397532D01*
X133426338Y-74397534D01*
X133545748Y-74453215D01*
X133555189Y-74457618D01*
X133607628Y-74503790D01*
X133626780Y-74570984D01*
X133606564Y-74637865D01*
X133555189Y-74682382D01*
X133426340Y-74742465D01*
X133426338Y-74742466D01*
X133245377Y-74869175D01*
X133089175Y-75025377D01*
X132962466Y-75206338D01*
X132962465Y-75206340D01*
X132869107Y-75406548D01*
X132869104Y-75406554D01*
X132811930Y-75619929D01*
X132811929Y-75619937D01*
X132792677Y-75839997D01*
X132792677Y-75840002D01*
X132811929Y-76060062D01*
X132811930Y-76060070D01*
X132869104Y-76273445D01*
X132869105Y-76273447D01*
X132869106Y-76273450D01*
X132958434Y-76465016D01*
X132962466Y-76473662D01*
X132962468Y-76473666D01*
X133089170Y-76654615D01*
X133089175Y-76654621D01*
X133245378Y-76810824D01*
X133245384Y-76810829D01*
X133426333Y-76937531D01*
X133426335Y-76937532D01*
X133426338Y-76937534D01*
X133499818Y-76971798D01*
X133555189Y-76997618D01*
X133607628Y-77043790D01*
X133626780Y-77110984D01*
X133606564Y-77177865D01*
X133555189Y-77222382D01*
X133426340Y-77282465D01*
X133426338Y-77282466D01*
X133245377Y-77409175D01*
X133089175Y-77565377D01*
X132962466Y-77746338D01*
X132962465Y-77746340D01*
X132869107Y-77946548D01*
X132869104Y-77946554D01*
X132811930Y-78159929D01*
X132811929Y-78159937D01*
X132792677Y-78379997D01*
X132792677Y-78380002D01*
X132811929Y-78600062D01*
X132811930Y-78600070D01*
X132869104Y-78813445D01*
X132869105Y-78813447D01*
X132869106Y-78813450D01*
X132962466Y-79013662D01*
X132962468Y-79013666D01*
X133089170Y-79194615D01*
X133089175Y-79194621D01*
X133245378Y-79350824D01*
X133245384Y-79350829D01*
X133426333Y-79477531D01*
X133426335Y-79477532D01*
X133426338Y-79477534D01*
X133545748Y-79533215D01*
X133555189Y-79537618D01*
X133607628Y-79583790D01*
X133626780Y-79650984D01*
X133606564Y-79717865D01*
X133555189Y-79762382D01*
X133426340Y-79822465D01*
X133426338Y-79822466D01*
X133245377Y-79949175D01*
X133089175Y-80105377D01*
X132962466Y-80286338D01*
X132962465Y-80286340D01*
X132869107Y-80486548D01*
X132869104Y-80486554D01*
X132811930Y-80699929D01*
X132811929Y-80699937D01*
X132792677Y-80919997D01*
X132792677Y-80920002D01*
X132811929Y-81140062D01*
X132811930Y-81140070D01*
X132869104Y-81353445D01*
X132869105Y-81353447D01*
X132869106Y-81353450D01*
X132962466Y-81553662D01*
X132962468Y-81553666D01*
X133089170Y-81734615D01*
X133089175Y-81734621D01*
X133245378Y-81890824D01*
X133245384Y-81890829D01*
X133426333Y-82017531D01*
X133426335Y-82017532D01*
X133426338Y-82017534D01*
X133545748Y-82073215D01*
X133555189Y-82077618D01*
X133607628Y-82123790D01*
X133626780Y-82190984D01*
X133606564Y-82257865D01*
X133555189Y-82302382D01*
X133426340Y-82362465D01*
X133426338Y-82362466D01*
X133245377Y-82489175D01*
X133089175Y-82645377D01*
X132962466Y-82826338D01*
X132962465Y-82826340D01*
X132869107Y-83026548D01*
X132869104Y-83026554D01*
X132811930Y-83239929D01*
X132811929Y-83239937D01*
X132792677Y-83459997D01*
X132792677Y-83460002D01*
X132811929Y-83680062D01*
X132811930Y-83680070D01*
X132869104Y-83893445D01*
X132869105Y-83893447D01*
X132869106Y-83893450D01*
X132962466Y-84093662D01*
X132962468Y-84093666D01*
X133089170Y-84274615D01*
X133089175Y-84274621D01*
X133245378Y-84430824D01*
X133245384Y-84430829D01*
X133426333Y-84557531D01*
X133426335Y-84557532D01*
X133426338Y-84557534D01*
X133545748Y-84613215D01*
X133555189Y-84617618D01*
X133607628Y-84663790D01*
X133626780Y-84730984D01*
X133606564Y-84797865D01*
X133555189Y-84842382D01*
X133426340Y-84902465D01*
X133426338Y-84902466D01*
X133245377Y-85029175D01*
X133089175Y-85185377D01*
X132962466Y-85366338D01*
X132962465Y-85366340D01*
X132869107Y-85566548D01*
X132869104Y-85566554D01*
X132811930Y-85779929D01*
X132811929Y-85779937D01*
X132792677Y-85999997D01*
X132792677Y-86000002D01*
X132811929Y-86220062D01*
X132811930Y-86220070D01*
X132869104Y-86433445D01*
X132869105Y-86433447D01*
X132869106Y-86433450D01*
X132962466Y-86633662D01*
X132962468Y-86633666D01*
X133089170Y-86814615D01*
X133089175Y-86814621D01*
X133245378Y-86970824D01*
X133245384Y-86970829D01*
X133426333Y-87097531D01*
X133426335Y-87097532D01*
X133426338Y-87097534D01*
X133626550Y-87190894D01*
X133839932Y-87248070D01*
X133997123Y-87261822D01*
X134059998Y-87267323D01*
X134060000Y-87267323D01*
X134060002Y-87267323D01*
X134115017Y-87262509D01*
X134280068Y-87248070D01*
X134493450Y-87190894D01*
X134693662Y-87097534D01*
X134874620Y-86970826D01*
X135030826Y-86814620D01*
X135157534Y-86633662D01*
X135250894Y-86433450D01*
X135308070Y-86220068D01*
X135327323Y-86000000D01*
X135308070Y-85779932D01*
X135250894Y-85566550D01*
X135157534Y-85366339D01*
X135030826Y-85185380D01*
X134874620Y-85029174D01*
X134874616Y-85029171D01*
X134874615Y-85029170D01*
X134693666Y-84902468D01*
X134693658Y-84902464D01*
X134564811Y-84842382D01*
X134512371Y-84796210D01*
X134493219Y-84729017D01*
X134513435Y-84662135D01*
X134564811Y-84617618D01*
X134570802Y-84614824D01*
X134693662Y-84557534D01*
X134874620Y-84430826D01*
X135030826Y-84274620D01*
X135157534Y-84093662D01*
X135250894Y-83893450D01*
X135308070Y-83680068D01*
X135327323Y-83460000D01*
X135308070Y-83239932D01*
X135250894Y-83026550D01*
X135157534Y-82826339D01*
X135030826Y-82645380D01*
X134874620Y-82489174D01*
X134874616Y-82489171D01*
X134874615Y-82489170D01*
X134693666Y-82362468D01*
X134693658Y-82362464D01*
X134564811Y-82302382D01*
X134512371Y-82256210D01*
X134493219Y-82189017D01*
X134513435Y-82122135D01*
X134564811Y-82077618D01*
X134570802Y-82074824D01*
X134693662Y-82017534D01*
X134874620Y-81890826D01*
X135030826Y-81734620D01*
X135157534Y-81553662D01*
X135250894Y-81353450D01*
X135308070Y-81140068D01*
X135327323Y-80920000D01*
X135308070Y-80699932D01*
X135250894Y-80486550D01*
X135157534Y-80286339D01*
X135030826Y-80105380D01*
X134925442Y-79999996D01*
X136827945Y-79999996D01*
X136827945Y-80000003D01*
X136847301Y-80171795D01*
X136904402Y-80334983D01*
X136996382Y-80481367D01*
X136996383Y-80481368D01*
X137118632Y-80603617D01*
X137265018Y-80695598D01*
X137428202Y-80752698D01*
X137485468Y-80759150D01*
X137599996Y-80772055D01*
X137600000Y-80772055D01*
X137600004Y-80772055D01*
X137698170Y-80760993D01*
X137771798Y-80752698D01*
X137934982Y-80695598D01*
X138081368Y-80603617D01*
X138203617Y-80481368D01*
X138295598Y-80334982D01*
X138352698Y-80171798D01*
X138372055Y-80000000D01*
X138366328Y-79949175D01*
X138352698Y-79828204D01*
X138352698Y-79828202D01*
X138295598Y-79665018D01*
X138284479Y-79647323D01*
X138203617Y-79518632D01*
X138081367Y-79396382D01*
X137934983Y-79304402D01*
X137771795Y-79247301D01*
X137600004Y-79227945D01*
X137599996Y-79227945D01*
X137428204Y-79247301D01*
X137265016Y-79304402D01*
X137118632Y-79396382D01*
X136996382Y-79518632D01*
X136904402Y-79665016D01*
X136847301Y-79828204D01*
X136827945Y-79999996D01*
X134925442Y-79999996D01*
X134874620Y-79949174D01*
X134874616Y-79949171D01*
X134874615Y-79949170D01*
X134693666Y-79822468D01*
X134693658Y-79822464D01*
X134564811Y-79762382D01*
X134512371Y-79716210D01*
X134493219Y-79649017D01*
X134513435Y-79582135D01*
X134564811Y-79537618D01*
X134570802Y-79534824D01*
X134693662Y-79477534D01*
X134874620Y-79350826D01*
X135030826Y-79194620D01*
X135157534Y-79013662D01*
X135250894Y-78813450D01*
X135308070Y-78600068D01*
X135327323Y-78380000D01*
X135308070Y-78159932D01*
X135250894Y-77946550D01*
X135157534Y-77746339D01*
X135030826Y-77565380D01*
X134874620Y-77409174D01*
X134874616Y-77409171D01*
X134874615Y-77409170D01*
X134693666Y-77282468D01*
X134693658Y-77282464D01*
X134564811Y-77222382D01*
X134512371Y-77176210D01*
X134493219Y-77109017D01*
X134513435Y-77042135D01*
X134564811Y-76997618D01*
X134620182Y-76971798D01*
X134693662Y-76937534D01*
X134874620Y-76810826D01*
X134885450Y-76799996D01*
X147227945Y-76799996D01*
X147227945Y-76800003D01*
X147247301Y-76971795D01*
X147304402Y-77134983D01*
X147359319Y-77222382D01*
X147396383Y-77281368D01*
X147518632Y-77403617D01*
X147665018Y-77495598D01*
X147828202Y-77552698D01*
X147885468Y-77559150D01*
X147999996Y-77572055D01*
X148000000Y-77572055D01*
X148000004Y-77572055D01*
X148098170Y-77560993D01*
X148171798Y-77552698D01*
X148334982Y-77495598D01*
X148481368Y-77403617D01*
X148603617Y-77281368D01*
X148695598Y-77134982D01*
X148752698Y-76971798D01*
X148770835Y-76810826D01*
X148772055Y-76800003D01*
X148772055Y-76799996D01*
X148755675Y-76654621D01*
X148752698Y-76628202D01*
X148695598Y-76465018D01*
X148603617Y-76318632D01*
X148481368Y-76196383D01*
X148481367Y-76196382D01*
X148334983Y-76104402D01*
X148171795Y-76047301D01*
X148000004Y-76027945D01*
X147999996Y-76027945D01*
X147828204Y-76047301D01*
X147665016Y-76104402D01*
X147518632Y-76196382D01*
X147396382Y-76318632D01*
X147304402Y-76465016D01*
X147247301Y-76628204D01*
X147227945Y-76799996D01*
X134885450Y-76799996D01*
X135030826Y-76654620D01*
X135157534Y-76473662D01*
X135250894Y-76273450D01*
X135308070Y-76060068D01*
X135327323Y-75840000D01*
X135308070Y-75619932D01*
X135250894Y-75406550D01*
X135247838Y-75399996D01*
X140227945Y-75399996D01*
X140227945Y-75400003D01*
X140247301Y-75571795D01*
X140304402Y-75734983D01*
X140396382Y-75881367D01*
X140518632Y-76003617D01*
X140608472Y-76060068D01*
X140665018Y-76095598D01*
X140828202Y-76152698D01*
X140885468Y-76159150D01*
X140999996Y-76172055D01*
X141000000Y-76172055D01*
X141000004Y-76172055D01*
X141098170Y-76160993D01*
X141171798Y-76152698D01*
X141334982Y-76095598D01*
X141481368Y-76003617D01*
X141603617Y-75881368D01*
X141695598Y-75734982D01*
X141752698Y-75571798D01*
X141771317Y-75406550D01*
X141772055Y-75400003D01*
X141772055Y-75399996D01*
X141752698Y-75228204D01*
X141752698Y-75228202D01*
X141695598Y-75065018D01*
X141603617Y-74918632D01*
X141481368Y-74796383D01*
X141481367Y-74796382D01*
X141334983Y-74704402D01*
X141192103Y-74654407D01*
X141171798Y-74647302D01*
X141171797Y-74647301D01*
X141171795Y-74647301D01*
X141000004Y-74627945D01*
X140999996Y-74627945D01*
X140828204Y-74647301D01*
X140665016Y-74704402D01*
X140518632Y-74796382D01*
X140396382Y-74918632D01*
X140304402Y-75065016D01*
X140247301Y-75228204D01*
X140227945Y-75399996D01*
X135247838Y-75399996D01*
X135157534Y-75206339D01*
X135030826Y-75025380D01*
X134874620Y-74869174D01*
X134874616Y-74869171D01*
X134874615Y-74869170D01*
X134693666Y-74742468D01*
X134693658Y-74742464D01*
X134564811Y-74682382D01*
X134512371Y-74636210D01*
X134493219Y-74569017D01*
X134513435Y-74502135D01*
X134564811Y-74457618D01*
X134570802Y-74454824D01*
X134693662Y-74397534D01*
X134874620Y-74270826D01*
X135030826Y-74114620D01*
X135157534Y-73933662D01*
X135250894Y-73733450D01*
X135308070Y-73520068D01*
X135327323Y-73300000D01*
X135308070Y-73079932D01*
X135250894Y-72866550D01*
X135157534Y-72666339D01*
X135030826Y-72485380D01*
X134874620Y-72329174D01*
X134874616Y-72329171D01*
X134874615Y-72329170D01*
X134693666Y-72202468D01*
X134693658Y-72202464D01*
X134564811Y-72142382D01*
X134512371Y-72096210D01*
X134493219Y-72029017D01*
X134513435Y-71962135D01*
X134564811Y-71917618D01*
X134570802Y-71914824D01*
X134693662Y-71857534D01*
X134874620Y-71730826D01*
X135030826Y-71574620D01*
X135157534Y-71393662D01*
X135250894Y-71193450D01*
X135308070Y-70980068D01*
X135327323Y-70760000D01*
X135308070Y-70539932D01*
X135250894Y-70326550D01*
X135157534Y-70126339D01*
X135030826Y-69945380D01*
X134874620Y-69789174D01*
X134874616Y-69789171D01*
X134874615Y-69789170D01*
X134693666Y-69662468D01*
X134693658Y-69662464D01*
X134564811Y-69602382D01*
X134512371Y-69556210D01*
X134493219Y-69489017D01*
X134513435Y-69422135D01*
X134564811Y-69377618D01*
X134570802Y-69374824D01*
X134693662Y-69317534D01*
X134874620Y-69190826D01*
X135030826Y-69034620D01*
X135157534Y-68853662D01*
X135250894Y-68653450D01*
X135308070Y-68440068D01*
X135327323Y-68220000D01*
X135308070Y-67999932D01*
X135250894Y-67786550D01*
X135157534Y-67586339D01*
X135030826Y-67405380D01*
X134874620Y-67249174D01*
X134874616Y-67249171D01*
X134874615Y-67249170D01*
X134693666Y-67122468D01*
X134693658Y-67122464D01*
X134564811Y-67062382D01*
X134512371Y-67016210D01*
X134493219Y-66949017D01*
X134513435Y-66882135D01*
X134564811Y-66837618D01*
X134570802Y-66834824D01*
X134693662Y-66777534D01*
X134874620Y-66650826D01*
X135030826Y-66494620D01*
X135157534Y-66313662D01*
X135250894Y-66113450D01*
X135308070Y-65900068D01*
X135327323Y-65680000D01*
X135326605Y-65671798D01*
X135320103Y-65597474D01*
X135311575Y-65499996D01*
X152227945Y-65499996D01*
X152227945Y-65500003D01*
X152247301Y-65671795D01*
X152304402Y-65834983D01*
X152396382Y-65981367D01*
X152396383Y-65981368D01*
X152518632Y-66103617D01*
X152665018Y-66195598D01*
X152828202Y-66252698D01*
X152885468Y-66259150D01*
X152999996Y-66272055D01*
X153000000Y-66272055D01*
X153000004Y-66272055D01*
X153098170Y-66260993D01*
X153171798Y-66252698D01*
X153334982Y-66195598D01*
X153481368Y-66103617D01*
X153603617Y-65981368D01*
X153695598Y-65834982D01*
X153752698Y-65671798D01*
X153772055Y-65500000D01*
X153767540Y-65459932D01*
X153752698Y-65328204D01*
X153752698Y-65328202D01*
X153695598Y-65165018D01*
X153603617Y-65018632D01*
X153481368Y-64896383D01*
X153481367Y-64896382D01*
X153334983Y-64804402D01*
X153171795Y-64747301D01*
X153000004Y-64727945D01*
X152999996Y-64727945D01*
X152828204Y-64747301D01*
X152665016Y-64804402D01*
X152518632Y-64896382D01*
X152396382Y-65018632D01*
X152304402Y-65165016D01*
X152247301Y-65328204D01*
X152227945Y-65499996D01*
X135311575Y-65499996D01*
X135308070Y-65459932D01*
X135250894Y-65246550D01*
X135157534Y-65046339D01*
X135094180Y-64955859D01*
X135030827Y-64865381D01*
X134969848Y-64804402D01*
X134874620Y-64709174D01*
X134874616Y-64709171D01*
X134874615Y-64709170D01*
X134693666Y-64582468D01*
X134693658Y-64582464D01*
X134564811Y-64522382D01*
X134512371Y-64476210D01*
X134493219Y-64409017D01*
X134513435Y-64342135D01*
X134564811Y-64297618D01*
X134570802Y-64294824D01*
X134693662Y-64237534D01*
X134874620Y-64110826D01*
X135030826Y-63954620D01*
X135157534Y-63773662D01*
X135250894Y-63573450D01*
X135308070Y-63360068D01*
X135327323Y-63140000D01*
X135308070Y-62919932D01*
X135250894Y-62706550D01*
X135157534Y-62506339D01*
X135030826Y-62325380D01*
X134874620Y-62169174D01*
X134874616Y-62169171D01*
X134874615Y-62169170D01*
X134693666Y-62042468D01*
X134693658Y-62042464D01*
X134564811Y-61982382D01*
X134512371Y-61936210D01*
X134493219Y-61869017D01*
X134513435Y-61802135D01*
X134564811Y-61757618D01*
X134570802Y-61754824D01*
X134693662Y-61697534D01*
X134874620Y-61570826D01*
X135030826Y-61414620D01*
X135157534Y-61233662D01*
X135250894Y-61033450D01*
X135308070Y-60820068D01*
X135327323Y-60600000D01*
X135327323Y-60599997D01*
X160732677Y-60599997D01*
X160732677Y-60600002D01*
X160751929Y-60820062D01*
X160751930Y-60820070D01*
X160809104Y-61033445D01*
X160809105Y-61033447D01*
X160809106Y-61033450D01*
X160902466Y-61233662D01*
X160902468Y-61233666D01*
X161029170Y-61414615D01*
X161029175Y-61414621D01*
X161185378Y-61570824D01*
X161185384Y-61570829D01*
X161366333Y-61697531D01*
X161366335Y-61697532D01*
X161366338Y-61697534D01*
X161485748Y-61753215D01*
X161495189Y-61757618D01*
X161547628Y-61803790D01*
X161566780Y-61870984D01*
X161546564Y-61937865D01*
X161495189Y-61982382D01*
X161366340Y-62042465D01*
X161366338Y-62042466D01*
X161185377Y-62169175D01*
X161029175Y-62325377D01*
X160902466Y-62506338D01*
X160902465Y-62506340D01*
X160809107Y-62706548D01*
X160809104Y-62706554D01*
X160751930Y-62919929D01*
X160751929Y-62919937D01*
X160732677Y-63139997D01*
X160732677Y-63140002D01*
X160751929Y-63360062D01*
X160751930Y-63360070D01*
X160809104Y-63573445D01*
X160809105Y-63573447D01*
X160809106Y-63573450D01*
X160902466Y-63773662D01*
X160902468Y-63773666D01*
X161029170Y-63954615D01*
X161029175Y-63954621D01*
X161185378Y-64110824D01*
X161185384Y-64110829D01*
X161366333Y-64237531D01*
X161366335Y-64237532D01*
X161366338Y-64237534D01*
X161485748Y-64293215D01*
X161495189Y-64297618D01*
X161547628Y-64343790D01*
X161566780Y-64410984D01*
X161546564Y-64477865D01*
X161495189Y-64522382D01*
X161366340Y-64582465D01*
X161366338Y-64582466D01*
X161185377Y-64709175D01*
X161029175Y-64865377D01*
X160902466Y-65046338D01*
X160902465Y-65046340D01*
X160809107Y-65246548D01*
X160809104Y-65246554D01*
X160751930Y-65459929D01*
X160751929Y-65459937D01*
X160732677Y-65679997D01*
X160732677Y-65680002D01*
X160751929Y-65900062D01*
X160751930Y-65900070D01*
X160809104Y-66113445D01*
X160809105Y-66113447D01*
X160809106Y-66113450D01*
X160902466Y-66313662D01*
X160902468Y-66313666D01*
X161029170Y-66494615D01*
X161029175Y-66494621D01*
X161185378Y-66650824D01*
X161185384Y-66650829D01*
X161366333Y-66777531D01*
X161366335Y-66777532D01*
X161366338Y-66777534D01*
X161485748Y-66833215D01*
X161495189Y-66837618D01*
X161547628Y-66883790D01*
X161566780Y-66950984D01*
X161546564Y-67017865D01*
X161495189Y-67062382D01*
X161366340Y-67122465D01*
X161366338Y-67122466D01*
X161185377Y-67249175D01*
X161029175Y-67405377D01*
X160902466Y-67586338D01*
X160902465Y-67586340D01*
X160809107Y-67786548D01*
X160809104Y-67786554D01*
X160751930Y-67999929D01*
X160751929Y-67999937D01*
X160732677Y-68219997D01*
X160732677Y-68220002D01*
X160751929Y-68440062D01*
X160751930Y-68440070D01*
X160809104Y-68653445D01*
X160809105Y-68653447D01*
X160809106Y-68653450D01*
X160902466Y-68853662D01*
X160902468Y-68853666D01*
X161029170Y-69034615D01*
X161029175Y-69034621D01*
X161185378Y-69190824D01*
X161185384Y-69190829D01*
X161366333Y-69317531D01*
X161366335Y-69317532D01*
X161366338Y-69317534D01*
X161485748Y-69373215D01*
X161495189Y-69377618D01*
X161547628Y-69423790D01*
X161566780Y-69490984D01*
X161546564Y-69557865D01*
X161495189Y-69602382D01*
X161366340Y-69662465D01*
X161366338Y-69662466D01*
X161185377Y-69789175D01*
X161029175Y-69945377D01*
X160902466Y-70126338D01*
X160902465Y-70126340D01*
X160809107Y-70326548D01*
X160809104Y-70326554D01*
X160751930Y-70539929D01*
X160751929Y-70539937D01*
X160732677Y-70759997D01*
X160732677Y-70760002D01*
X160751929Y-70980062D01*
X160751930Y-70980070D01*
X160809104Y-71193445D01*
X160809105Y-71193447D01*
X160809106Y-71193450D01*
X160902466Y-71393662D01*
X160902468Y-71393666D01*
X161029170Y-71574615D01*
X161029175Y-71574621D01*
X161185378Y-71730824D01*
X161185384Y-71730829D01*
X161366333Y-71857531D01*
X161366335Y-71857532D01*
X161366338Y-71857534D01*
X161485748Y-71913215D01*
X161495189Y-71917618D01*
X161547628Y-71963790D01*
X161566780Y-72030984D01*
X161546564Y-72097865D01*
X161495189Y-72142382D01*
X161366340Y-72202465D01*
X161366338Y-72202466D01*
X161185377Y-72329175D01*
X161029175Y-72485377D01*
X160902466Y-72666338D01*
X160902465Y-72666340D01*
X160809107Y-72866548D01*
X160809104Y-72866554D01*
X160751930Y-73079929D01*
X160751929Y-73079937D01*
X160732677Y-73299997D01*
X160732677Y-73300002D01*
X160751929Y-73520062D01*
X160751930Y-73520070D01*
X160809104Y-73733445D01*
X160809105Y-73733447D01*
X160809106Y-73733450D01*
X160902466Y-73933662D01*
X160902468Y-73933666D01*
X161029170Y-74114615D01*
X161029175Y-74114621D01*
X161185378Y-74270824D01*
X161185384Y-74270829D01*
X161366333Y-74397531D01*
X161366335Y-74397532D01*
X161366338Y-74397534D01*
X161485748Y-74453215D01*
X161495189Y-74457618D01*
X161547628Y-74503790D01*
X161566780Y-74570984D01*
X161546564Y-74637865D01*
X161495189Y-74682382D01*
X161366340Y-74742465D01*
X161366338Y-74742466D01*
X161185377Y-74869175D01*
X161029175Y-75025377D01*
X160902466Y-75206338D01*
X160902465Y-75206340D01*
X160809107Y-75406548D01*
X160809104Y-75406554D01*
X160751930Y-75619929D01*
X160751929Y-75619937D01*
X160732677Y-75839997D01*
X160732677Y-75840002D01*
X160751929Y-76060062D01*
X160751930Y-76060070D01*
X160809104Y-76273445D01*
X160809105Y-76273447D01*
X160809106Y-76273450D01*
X160898434Y-76465016D01*
X160902466Y-76473662D01*
X160902468Y-76473666D01*
X161029170Y-76654615D01*
X161029175Y-76654621D01*
X161185378Y-76810824D01*
X161185384Y-76810829D01*
X161366333Y-76937531D01*
X161366335Y-76937532D01*
X161366338Y-76937534D01*
X161439818Y-76971798D01*
X161495189Y-76997618D01*
X161547628Y-77043790D01*
X161566780Y-77110984D01*
X161546564Y-77177865D01*
X161495189Y-77222382D01*
X161366340Y-77282465D01*
X161366338Y-77282466D01*
X161185377Y-77409175D01*
X161029175Y-77565377D01*
X160902466Y-77746338D01*
X160902465Y-77746340D01*
X160809107Y-77946548D01*
X160809104Y-77946554D01*
X160751930Y-78159929D01*
X160751929Y-78159937D01*
X160732677Y-78379997D01*
X160732677Y-78380002D01*
X160751929Y-78600062D01*
X160751930Y-78600070D01*
X160809104Y-78813445D01*
X160809105Y-78813447D01*
X160809106Y-78813450D01*
X160902466Y-79013662D01*
X160902468Y-79013666D01*
X161029170Y-79194615D01*
X161029175Y-79194621D01*
X161185378Y-79350824D01*
X161185384Y-79350829D01*
X161366333Y-79477531D01*
X161366335Y-79477532D01*
X161366338Y-79477534D01*
X161485748Y-79533215D01*
X161495189Y-79537618D01*
X161547628Y-79583790D01*
X161566780Y-79650984D01*
X161546564Y-79717865D01*
X161495189Y-79762382D01*
X161366340Y-79822465D01*
X161366338Y-79822466D01*
X161185377Y-79949175D01*
X161029175Y-80105377D01*
X160902466Y-80286338D01*
X160902465Y-80286340D01*
X160809107Y-80486548D01*
X160809104Y-80486554D01*
X160751930Y-80699929D01*
X160751929Y-80699937D01*
X160732677Y-80919997D01*
X160732677Y-80920002D01*
X160751929Y-81140062D01*
X160751930Y-81140070D01*
X160809104Y-81353445D01*
X160809105Y-81353447D01*
X160809106Y-81353450D01*
X160902466Y-81553662D01*
X160902468Y-81553666D01*
X161029170Y-81734615D01*
X161029175Y-81734621D01*
X161185378Y-81890824D01*
X161185384Y-81890829D01*
X161366333Y-82017531D01*
X161366335Y-82017532D01*
X161366338Y-82017534D01*
X161485748Y-82073215D01*
X161495189Y-82077618D01*
X161547628Y-82123790D01*
X161566780Y-82190984D01*
X161546564Y-82257865D01*
X161495189Y-82302382D01*
X161366340Y-82362465D01*
X161366338Y-82362466D01*
X161185377Y-82489175D01*
X161029175Y-82645377D01*
X160902466Y-82826338D01*
X160902465Y-82826340D01*
X160809107Y-83026548D01*
X160809104Y-83026554D01*
X160751930Y-83239929D01*
X160751929Y-83239937D01*
X160732677Y-83459997D01*
X160732677Y-83460002D01*
X160751929Y-83680062D01*
X160751930Y-83680070D01*
X160809104Y-83893445D01*
X160809105Y-83893447D01*
X160809106Y-83893450D01*
X160902466Y-84093662D01*
X160902468Y-84093666D01*
X161029170Y-84274615D01*
X161029175Y-84274621D01*
X161185378Y-84430824D01*
X161185384Y-84430829D01*
X161366333Y-84557531D01*
X161366335Y-84557532D01*
X161366338Y-84557534D01*
X161485748Y-84613215D01*
X161495189Y-84617618D01*
X161547628Y-84663790D01*
X161566780Y-84730984D01*
X161546564Y-84797865D01*
X161495189Y-84842382D01*
X161366340Y-84902465D01*
X161366338Y-84902466D01*
X161185377Y-85029175D01*
X161029175Y-85185377D01*
X160902466Y-85366338D01*
X160902465Y-85366340D01*
X160809107Y-85566548D01*
X160809104Y-85566554D01*
X160751930Y-85779929D01*
X160751929Y-85779937D01*
X160732677Y-85999997D01*
X160732677Y-86000002D01*
X160751929Y-86220062D01*
X160751930Y-86220070D01*
X160809104Y-86433445D01*
X160809105Y-86433447D01*
X160809106Y-86433450D01*
X160902466Y-86633662D01*
X160902468Y-86633666D01*
X161029170Y-86814615D01*
X161029175Y-86814621D01*
X161185378Y-86970824D01*
X161185384Y-86970829D01*
X161366333Y-87097531D01*
X161366335Y-87097532D01*
X161366338Y-87097534D01*
X161566550Y-87190894D01*
X161779932Y-87248070D01*
X161937123Y-87261822D01*
X161999998Y-87267323D01*
X162000000Y-87267323D01*
X162000002Y-87267323D01*
X162055017Y-87262509D01*
X162220068Y-87248070D01*
X162433450Y-87190894D01*
X162633662Y-87097534D01*
X162814620Y-86970826D01*
X162970826Y-86814620D01*
X163097534Y-86633662D01*
X163190894Y-86433450D01*
X163248070Y-86220068D01*
X163267323Y-86000000D01*
X163248070Y-85779932D01*
X163190894Y-85566550D01*
X163097534Y-85366339D01*
X162970826Y-85185380D01*
X162814620Y-85029174D01*
X162814616Y-85029171D01*
X162814615Y-85029170D01*
X162633666Y-84902468D01*
X162633658Y-84902464D01*
X162504811Y-84842382D01*
X162452371Y-84796210D01*
X162433219Y-84729017D01*
X162453435Y-84662135D01*
X162504811Y-84617618D01*
X162510802Y-84614824D01*
X162633662Y-84557534D01*
X162814620Y-84430826D01*
X162970826Y-84274620D01*
X163097534Y-84093662D01*
X163190894Y-83893450D01*
X163248070Y-83680068D01*
X163267323Y-83460000D01*
X163248070Y-83239932D01*
X163190894Y-83026550D01*
X163097534Y-82826339D01*
X162970826Y-82645380D01*
X162814620Y-82489174D01*
X162814616Y-82489171D01*
X162814615Y-82489170D01*
X162633666Y-82362468D01*
X162633658Y-82362464D01*
X162504811Y-82302382D01*
X162452371Y-82256210D01*
X162433219Y-82189017D01*
X162453435Y-82122135D01*
X162504811Y-82077618D01*
X162510802Y-82074824D01*
X162633662Y-82017534D01*
X162814620Y-81890826D01*
X162970826Y-81734620D01*
X163097534Y-81553662D01*
X163190894Y-81353450D01*
X163248070Y-81140068D01*
X163267323Y-80920000D01*
X163248070Y-80699932D01*
X163190894Y-80486550D01*
X163097534Y-80286339D01*
X162970826Y-80105380D01*
X162814620Y-79949174D01*
X162814616Y-79949171D01*
X162814615Y-79949170D01*
X162633666Y-79822468D01*
X162633658Y-79822464D01*
X162504811Y-79762382D01*
X162452371Y-79716210D01*
X162433219Y-79649017D01*
X162453435Y-79582135D01*
X162504811Y-79537618D01*
X162510802Y-79534824D01*
X162633662Y-79477534D01*
X162814620Y-79350826D01*
X162970826Y-79194620D01*
X163097534Y-79013662D01*
X163190894Y-78813450D01*
X163248070Y-78600068D01*
X163267323Y-78380000D01*
X163248070Y-78159932D01*
X163190894Y-77946550D01*
X163097534Y-77746339D01*
X162970826Y-77565380D01*
X162814620Y-77409174D01*
X162814616Y-77409171D01*
X162814615Y-77409170D01*
X162633666Y-77282468D01*
X162633658Y-77282464D01*
X162504811Y-77222382D01*
X162452371Y-77176210D01*
X162433219Y-77109017D01*
X162453435Y-77042135D01*
X162504811Y-76997618D01*
X162560182Y-76971798D01*
X162633662Y-76937534D01*
X162814620Y-76810826D01*
X162970826Y-76654620D01*
X163097534Y-76473662D01*
X163190894Y-76273450D01*
X163248070Y-76060068D01*
X163267323Y-75840000D01*
X163248070Y-75619932D01*
X163190894Y-75406550D01*
X163097534Y-75206339D01*
X162970826Y-75025380D01*
X162814620Y-74869174D01*
X162814616Y-74869171D01*
X162814615Y-74869170D01*
X162633666Y-74742468D01*
X162633658Y-74742464D01*
X162504811Y-74682382D01*
X162452371Y-74636210D01*
X162433219Y-74569017D01*
X162453435Y-74502135D01*
X162504811Y-74457618D01*
X162510802Y-74454824D01*
X162633662Y-74397534D01*
X162814620Y-74270826D01*
X162970826Y-74114620D01*
X163097534Y-73933662D01*
X163190894Y-73733450D01*
X163248070Y-73520068D01*
X163267323Y-73300000D01*
X163248070Y-73079932D01*
X163190894Y-72866550D01*
X163097534Y-72666339D01*
X162970826Y-72485380D01*
X162814620Y-72329174D01*
X162814616Y-72329171D01*
X162814615Y-72329170D01*
X162633666Y-72202468D01*
X162633658Y-72202464D01*
X162504811Y-72142382D01*
X162452371Y-72096210D01*
X162433219Y-72029017D01*
X162453435Y-71962135D01*
X162504811Y-71917618D01*
X162510802Y-71914824D01*
X162633662Y-71857534D01*
X162814620Y-71730826D01*
X162970826Y-71574620D01*
X163097534Y-71393662D01*
X163190894Y-71193450D01*
X163248070Y-70980068D01*
X163267323Y-70760000D01*
X163248070Y-70539932D01*
X163190894Y-70326550D01*
X163097534Y-70126339D01*
X162970826Y-69945380D01*
X162814620Y-69789174D01*
X162814616Y-69789171D01*
X162814615Y-69789170D01*
X162633666Y-69662468D01*
X162633658Y-69662464D01*
X162504811Y-69602382D01*
X162452371Y-69556210D01*
X162433219Y-69489017D01*
X162453435Y-69422135D01*
X162504811Y-69377618D01*
X162510802Y-69374824D01*
X162633662Y-69317534D01*
X162814620Y-69190826D01*
X162970826Y-69034620D01*
X163097534Y-68853662D01*
X163190894Y-68653450D01*
X163248070Y-68440068D01*
X163267323Y-68220000D01*
X163248070Y-67999932D01*
X163190894Y-67786550D01*
X163097534Y-67586339D01*
X162970826Y-67405380D01*
X162814620Y-67249174D01*
X162814616Y-67249171D01*
X162814615Y-67249170D01*
X162633666Y-67122468D01*
X162633658Y-67122464D01*
X162504811Y-67062382D01*
X162452371Y-67016210D01*
X162433219Y-66949017D01*
X162453435Y-66882135D01*
X162504811Y-66837618D01*
X162510802Y-66834824D01*
X162633662Y-66777534D01*
X162814620Y-66650826D01*
X162970826Y-66494620D01*
X163097534Y-66313662D01*
X163190894Y-66113450D01*
X163248070Y-65900068D01*
X163267323Y-65680000D01*
X163266605Y-65671798D01*
X163260103Y-65597474D01*
X163248070Y-65459932D01*
X163190894Y-65246550D01*
X163097534Y-65046339D01*
X163034180Y-64955859D01*
X162970827Y-64865381D01*
X162909848Y-64804402D01*
X162814620Y-64709174D01*
X162814616Y-64709171D01*
X162814615Y-64709170D01*
X162633666Y-64582468D01*
X162633658Y-64582464D01*
X162504811Y-64522382D01*
X162452371Y-64476210D01*
X162433219Y-64409017D01*
X162453435Y-64342135D01*
X162504811Y-64297618D01*
X162510802Y-64294824D01*
X162633662Y-64237534D01*
X162814620Y-64110826D01*
X162970826Y-63954620D01*
X163097534Y-63773662D01*
X163190894Y-63573450D01*
X163248070Y-63360068D01*
X163267323Y-63140000D01*
X163248070Y-62919932D01*
X163190894Y-62706550D01*
X163097534Y-62506339D01*
X162970826Y-62325380D01*
X162814620Y-62169174D01*
X162814616Y-62169171D01*
X162814615Y-62169170D01*
X162633666Y-62042468D01*
X162633658Y-62042464D01*
X162504811Y-61982382D01*
X162452371Y-61936210D01*
X162433219Y-61869017D01*
X162453435Y-61802135D01*
X162504811Y-61757618D01*
X162510802Y-61754824D01*
X162633662Y-61697534D01*
X162814620Y-61570826D01*
X162970826Y-61414620D01*
X163097534Y-61233662D01*
X163190894Y-61033450D01*
X163248070Y-60820068D01*
X163267323Y-60600000D01*
X163248070Y-60379932D01*
X163190894Y-60166550D01*
X163097534Y-59966339D01*
X162970826Y-59785380D01*
X162814620Y-59629174D01*
X162814616Y-59629171D01*
X162814615Y-59629170D01*
X162698085Y-59547575D01*
X162654460Y-59492998D01*
X162647266Y-59423500D01*
X162678789Y-59361145D01*
X162739019Y-59325731D01*
X162769208Y-59322000D01*
X162809828Y-59322000D01*
X162809844Y-59321999D01*
X162869372Y-59315598D01*
X162869379Y-59315596D01*
X163004086Y-59265354D01*
X163004093Y-59265350D01*
X163119187Y-59179190D01*
X163119190Y-59179187D01*
X163205350Y-59064093D01*
X163205354Y-59064086D01*
X163255596Y-58929379D01*
X163255598Y-58929372D01*
X163261999Y-58869844D01*
X163262000Y-58869827D01*
X163262000Y-58310000D01*
X162442251Y-58310000D01*
X162473381Y-58256081D01*
X162508000Y-58126880D01*
X162508000Y-57993120D01*
X162473381Y-57863919D01*
X162442251Y-57810000D01*
X163262000Y-57810000D01*
X163262000Y-57250172D01*
X163261999Y-57250155D01*
X163255598Y-57190627D01*
X163255596Y-57190620D01*
X163205354Y-57055913D01*
X163205350Y-57055906D01*
X163119190Y-56940812D01*
X163119187Y-56940809D01*
X163004093Y-56854649D01*
X163004086Y-56854645D01*
X162869379Y-56804403D01*
X162869372Y-56804401D01*
X162809844Y-56798000D01*
X162250000Y-56798000D01*
X162250000Y-57617748D01*
X162196081Y-57586619D01*
X162066880Y-57552000D01*
X161933120Y-57552000D01*
X161803919Y-57586619D01*
X161750000Y-57617748D01*
X161750000Y-56798000D01*
X161190155Y-56798000D01*
X161130627Y-56804401D01*
X161130620Y-56804403D01*
X160995913Y-56854645D01*
X160995906Y-56854649D01*
X160880812Y-56940809D01*
X160880809Y-56940812D01*
X160794649Y-57055906D01*
X160794645Y-57055913D01*
X160744403Y-57190620D01*
X160744401Y-57190627D01*
X160738000Y-57250155D01*
X160738000Y-57810000D01*
X161557749Y-57810000D01*
X161526619Y-57863919D01*
X161492000Y-57993120D01*
X161492000Y-58126880D01*
X161526619Y-58256081D01*
X161557749Y-58310000D01*
X160738000Y-58310000D01*
X160738000Y-58869844D01*
X160744401Y-58929372D01*
X160744403Y-58929379D01*
X160794645Y-59064086D01*
X160794649Y-59064093D01*
X160880809Y-59179187D01*
X160880812Y-59179190D01*
X160995906Y-59265350D01*
X160995913Y-59265354D01*
X161130620Y-59315596D01*
X161130627Y-59315598D01*
X161190155Y-59321999D01*
X161190172Y-59322000D01*
X161230793Y-59322000D01*
X161297832Y-59341685D01*
X161343587Y-59394489D01*
X161353531Y-59463647D01*
X161324506Y-59527203D01*
X161301916Y-59547575D01*
X161185377Y-59629175D01*
X161029175Y-59785377D01*
X160902466Y-59966338D01*
X160902465Y-59966340D01*
X160809107Y-60166548D01*
X160809104Y-60166554D01*
X160751930Y-60379929D01*
X160751929Y-60379937D01*
X160732677Y-60599997D01*
X135327323Y-60599997D01*
X135308070Y-60379932D01*
X135250894Y-60166550D01*
X135157534Y-59966339D01*
X135030826Y-59785380D01*
X134874620Y-59629174D01*
X134874616Y-59629171D01*
X134874615Y-59629170D01*
X134758085Y-59547575D01*
X134714460Y-59492998D01*
X134707266Y-59423500D01*
X134738789Y-59361145D01*
X134799019Y-59325731D01*
X134829208Y-59322000D01*
X134869828Y-59322000D01*
X134869844Y-59321999D01*
X134929372Y-59315598D01*
X134929379Y-59315596D01*
X135064086Y-59265354D01*
X135064093Y-59265350D01*
X135179187Y-59179190D01*
X135179190Y-59179187D01*
X135265350Y-59064093D01*
X135265354Y-59064086D01*
X135315596Y-58929379D01*
X135315598Y-58929372D01*
X135321999Y-58869844D01*
X135322000Y-58869827D01*
X135322000Y-58310000D01*
X134502251Y-58310000D01*
X134533381Y-58256081D01*
X134568000Y-58126880D01*
X134568000Y-57993120D01*
X134533381Y-57863919D01*
X134502251Y-57810000D01*
X135322000Y-57810000D01*
X135322000Y-57250172D01*
X135321999Y-57250155D01*
X135315598Y-57190627D01*
X135315596Y-57190620D01*
X135265354Y-57055913D01*
X135265350Y-57055906D01*
X135179190Y-56940812D01*
X135179187Y-56940809D01*
X135064093Y-56854649D01*
X135064086Y-56854645D01*
X134929379Y-56804403D01*
X134929372Y-56804401D01*
X134869844Y-56798000D01*
X134310000Y-56798000D01*
X134310000Y-57617748D01*
X134256081Y-57586619D01*
X134126880Y-57552000D01*
X133993120Y-57552000D01*
X133863919Y-57586619D01*
X133810000Y-57617748D01*
X133810000Y-56798000D01*
X133250155Y-56798000D01*
X133190627Y-56804401D01*
X133190620Y-56804403D01*
X133055913Y-56854645D01*
X133055906Y-56854649D01*
X132940812Y-56940809D01*
X132940809Y-56940812D01*
X132854649Y-57055906D01*
X132854645Y-57055913D01*
X132804403Y-57190620D01*
X132804401Y-57190627D01*
X132798000Y-57250155D01*
X132798000Y-57810000D01*
X133617749Y-57810000D01*
X133586619Y-57863919D01*
X133552000Y-57993120D01*
X133552000Y-58126880D01*
X133586619Y-58256081D01*
X133617749Y-58310000D01*
X132798000Y-58310000D01*
X132798000Y-58869844D01*
X132804401Y-58929372D01*
X132804403Y-58929379D01*
X132854645Y-59064086D01*
X132854649Y-59064093D01*
X132940809Y-59179187D01*
X132940812Y-59179190D01*
X133055906Y-59265350D01*
X133055913Y-59265354D01*
X133190620Y-59315596D01*
X133190627Y-59315598D01*
X133250155Y-59321999D01*
X133250172Y-59322000D01*
X133290793Y-59322000D01*
X133357832Y-59341685D01*
X133403587Y-59394489D01*
X133413531Y-59463647D01*
X133384506Y-59527203D01*
X133361916Y-59547575D01*
X133245377Y-59629175D01*
X133089175Y-59785377D01*
X132962466Y-59966338D01*
X132962465Y-59966340D01*
X132869107Y-60166548D01*
X132869104Y-60166554D01*
X132811930Y-60379929D01*
X132811929Y-60379937D01*
X132792677Y-60599997D01*
X115000000Y-60599997D01*
X115000000Y-56539999D01*
X120644341Y-56539999D01*
X120644341Y-56540000D01*
X120664936Y-56775403D01*
X120664938Y-56775413D01*
X120726094Y-57003655D01*
X120726096Y-57003659D01*
X120726097Y-57003663D01*
X120750462Y-57055913D01*
X120825965Y-57217830D01*
X120825967Y-57217834D01*
X120961501Y-57411395D01*
X120961506Y-57411402D01*
X121128597Y-57578493D01*
X121128603Y-57578498D01*
X121314158Y-57708425D01*
X121357783Y-57763002D01*
X121364977Y-57832500D01*
X121333454Y-57894855D01*
X121314158Y-57911575D01*
X121128597Y-58041505D01*
X120961505Y-58208597D01*
X120825965Y-58402169D01*
X120825964Y-58402171D01*
X120726098Y-58616335D01*
X120726094Y-58616344D01*
X120664938Y-58844586D01*
X120664936Y-58844596D01*
X120644341Y-59079999D01*
X120644341Y-59080000D01*
X120664936Y-59315403D01*
X120664938Y-59315413D01*
X120726094Y-59543655D01*
X120726096Y-59543659D01*
X120726097Y-59543663D01*
X120765970Y-59629170D01*
X120825965Y-59757830D01*
X120825967Y-59757834D01*
X120845256Y-59785381D01*
X120961505Y-59951401D01*
X121128599Y-60118495D01*
X121225384Y-60186265D01*
X121322165Y-60254032D01*
X121322167Y-60254033D01*
X121322170Y-60254035D01*
X121536337Y-60353903D01*
X121764592Y-60415063D01*
X121952918Y-60431539D01*
X121999999Y-60435659D01*
X122000000Y-60435659D01*
X122000001Y-60435659D01*
X122039234Y-60432226D01*
X122235408Y-60415063D01*
X122463663Y-60353903D01*
X122677830Y-60254035D01*
X122871401Y-60118495D01*
X123038495Y-59951401D01*
X123174035Y-59757830D01*
X123273903Y-59543663D01*
X123335063Y-59315408D01*
X123355659Y-59080000D01*
X123335063Y-58844592D01*
X123273903Y-58616337D01*
X123174035Y-58402171D01*
X123152854Y-58371920D01*
X123038494Y-58208597D01*
X122871402Y-58041506D01*
X122871396Y-58041501D01*
X122685842Y-57911575D01*
X122642217Y-57856998D01*
X122635023Y-57787500D01*
X122666546Y-57725145D01*
X122685842Y-57708425D01*
X122708026Y-57692891D01*
X122871401Y-57578495D01*
X123038495Y-57411401D01*
X123174035Y-57217830D01*
X123273903Y-57003663D01*
X123335063Y-56775408D01*
X123355659Y-56540000D01*
X123335063Y-56304592D01*
X123273903Y-56076337D01*
X123174035Y-55862171D01*
X123110935Y-55772055D01*
X123038496Y-55668600D01*
X123038495Y-55668599D01*
X122916179Y-55546283D01*
X122882696Y-55484963D01*
X122887680Y-55415271D01*
X122929551Y-55359337D01*
X122960529Y-55342422D01*
X123092086Y-55293354D01*
X123092093Y-55293350D01*
X123207187Y-55207190D01*
X123207190Y-55207187D01*
X123293350Y-55092093D01*
X123293354Y-55092086D01*
X123343596Y-54957379D01*
X123343598Y-54957372D01*
X123349999Y-54897844D01*
X123350000Y-54897827D01*
X123350000Y-54250000D01*
X122433012Y-54250000D01*
X122465925Y-54192993D01*
X122500000Y-54065826D01*
X122500000Y-53934174D01*
X122465925Y-53807007D01*
X122433012Y-53750000D01*
X123350000Y-53750000D01*
X123350000Y-53499996D01*
X127727945Y-53499996D01*
X127727945Y-53500003D01*
X127747301Y-53671795D01*
X127804402Y-53834983D01*
X127896382Y-53981367D01*
X127896383Y-53981368D01*
X128018632Y-54103617D01*
X128165018Y-54195598D01*
X128328202Y-54252698D01*
X128385468Y-54259150D01*
X128499996Y-54272055D01*
X128500000Y-54272055D01*
X128500004Y-54272055D01*
X128598170Y-54260993D01*
X128671798Y-54252698D01*
X128834982Y-54195598D01*
X128981368Y-54103617D01*
X129103617Y-53981368D01*
X129195598Y-53834982D01*
X129252698Y-53671798D01*
X129262376Y-53585899D01*
X129266273Y-53551317D01*
X133257966Y-53551317D01*
X133257966Y-53551322D01*
X133277048Y-53903274D01*
X133319138Y-54160018D01*
X133333890Y-54250000D01*
X133334073Y-54251113D01*
X133334074Y-54251116D01*
X133428366Y-54590728D01*
X133428367Y-54590730D01*
X133558828Y-54918164D01*
X133558837Y-54918182D01*
X133693296Y-55171798D01*
X133723935Y-55229589D01*
X133919502Y-55518029D01*
X133921738Y-55521326D01*
X133921745Y-55521336D01*
X134118267Y-55752698D01*
X134149926Y-55789970D01*
X134405820Y-56032366D01*
X134686422Y-56245674D01*
X134988442Y-56427394D01*
X134988446Y-56427395D01*
X134988450Y-56427398D01*
X135308328Y-56575390D01*
X135308332Y-56575390D01*
X135308339Y-56575394D01*
X135642362Y-56687939D01*
X135986595Y-56763711D01*
X136337003Y-56801820D01*
X136337009Y-56801820D01*
X136689471Y-56801820D01*
X136689477Y-56801820D01*
X137039885Y-56763711D01*
X137384118Y-56687939D01*
X137718141Y-56575394D01*
X137718148Y-56575390D01*
X137718151Y-56575390D01*
X138038029Y-56427398D01*
X138038038Y-56427394D01*
X138340058Y-56245674D01*
X138620660Y-56032366D01*
X138876554Y-55789970D01*
X139104741Y-55521328D01*
X139302545Y-55229589D01*
X139467647Y-54918174D01*
X139598111Y-54590734D01*
X139692408Y-54251108D01*
X139749431Y-53903277D01*
X139768514Y-53551320D01*
X139768514Y-53551317D01*
X156257966Y-53551317D01*
X156257966Y-53551322D01*
X156277048Y-53903274D01*
X156319138Y-54160018D01*
X156333890Y-54250000D01*
X156334073Y-54251113D01*
X156334074Y-54251116D01*
X156428366Y-54590728D01*
X156428367Y-54590730D01*
X156558828Y-54918164D01*
X156558837Y-54918182D01*
X156693296Y-55171798D01*
X156723935Y-55229589D01*
X156919502Y-55518029D01*
X156921738Y-55521326D01*
X156921745Y-55521336D01*
X157118267Y-55752698D01*
X157149926Y-55789970D01*
X157405820Y-56032366D01*
X157686422Y-56245674D01*
X157988442Y-56427394D01*
X157988446Y-56427395D01*
X157988450Y-56427398D01*
X158308328Y-56575390D01*
X158308332Y-56575390D01*
X158308339Y-56575394D01*
X158642362Y-56687939D01*
X158986595Y-56763711D01*
X159337003Y-56801820D01*
X159337009Y-56801820D01*
X159689471Y-56801820D01*
X159689477Y-56801820D01*
X160039885Y-56763711D01*
X160384118Y-56687939D01*
X160718141Y-56575394D01*
X160718148Y-56575390D01*
X160718151Y-56575390D01*
X161038029Y-56427398D01*
X161038038Y-56427394D01*
X161340058Y-56245674D01*
X161620660Y-56032366D01*
X161876554Y-55789970D01*
X162104741Y-55521328D01*
X162302545Y-55229589D01*
X162424268Y-54999996D01*
X165727945Y-54999996D01*
X165727945Y-55000003D01*
X165747301Y-55171795D01*
X165804402Y-55334983D01*
X165896382Y-55481367D01*
X166018632Y-55603617D01*
X166122049Y-55668599D01*
X166165018Y-55695598D01*
X166328202Y-55752698D01*
X166385468Y-55759150D01*
X166499996Y-55772055D01*
X166500000Y-55772055D01*
X166500004Y-55772055D01*
X166598170Y-55760993D01*
X166671798Y-55752698D01*
X166834982Y-55695598D01*
X166981368Y-55603617D01*
X167103617Y-55481368D01*
X167195598Y-55334982D01*
X167252698Y-55171798D01*
X167272055Y-55000000D01*
X167262835Y-54918174D01*
X167252698Y-54828204D01*
X167252698Y-54828202D01*
X167195598Y-54665018D01*
X167148919Y-54590730D01*
X167103617Y-54518632D01*
X166981367Y-54396382D01*
X166834983Y-54304402D01*
X166682675Y-54251108D01*
X166671798Y-54247302D01*
X166671797Y-54247301D01*
X166671795Y-54247301D01*
X166500004Y-54227945D01*
X166499996Y-54227945D01*
X166328204Y-54247301D01*
X166165016Y-54304402D01*
X166018632Y-54396382D01*
X165896382Y-54518632D01*
X165804402Y-54665016D01*
X165747301Y-54828204D01*
X165727945Y-54999996D01*
X162424268Y-54999996D01*
X162467647Y-54918174D01*
X162598111Y-54590734D01*
X162692408Y-54251108D01*
X162749431Y-53903277D01*
X162768514Y-53551320D01*
X162765731Y-53500000D01*
X162749431Y-53199365D01*
X162749431Y-53199363D01*
X162692408Y-52851532D01*
X162636453Y-52650000D01*
X162598113Y-52511911D01*
X162598112Y-52511909D01*
X162467651Y-52184475D01*
X162467642Y-52184457D01*
X162302544Y-51873050D01*
X162104741Y-51581312D01*
X162104737Y-51581307D01*
X162104734Y-51581303D01*
X161876554Y-51312670D01*
X161620660Y-51070274D01*
X161620653Y-51070268D01*
X161620650Y-51070266D01*
X161340055Y-50856964D01*
X161038042Y-50675248D01*
X161038029Y-50675241D01*
X160718151Y-50527249D01*
X160718146Y-50527248D01*
X160718143Y-50527247D01*
X160718141Y-50527246D01*
X160611672Y-50491372D01*
X160384120Y-50414701D01*
X160039883Y-50338928D01*
X159689478Y-50300820D01*
X159689477Y-50300820D01*
X159337003Y-50300820D01*
X159337001Y-50300820D01*
X158986596Y-50338928D01*
X158642359Y-50414701D01*
X158308333Y-50527248D01*
X158308328Y-50527249D01*
X157988450Y-50675241D01*
X157988437Y-50675248D01*
X157686424Y-50856964D01*
X157405829Y-51070266D01*
X157405820Y-51070274D01*
X157149925Y-51312670D01*
X156921745Y-51581303D01*
X156921738Y-51581313D01*
X156723935Y-51873050D01*
X156558837Y-52184457D01*
X156558828Y-52184475D01*
X156428367Y-52511909D01*
X156428366Y-52511911D01*
X156334074Y-52851523D01*
X156334073Y-52851526D01*
X156277048Y-53199365D01*
X156257966Y-53551317D01*
X139768514Y-53551317D01*
X139765731Y-53500000D01*
X139749431Y-53199365D01*
X139749431Y-53199363D01*
X139692408Y-52851532D01*
X139636453Y-52650000D01*
X139598113Y-52511911D01*
X139598112Y-52511909D01*
X139467651Y-52184475D01*
X139467642Y-52184457D01*
X139302544Y-51873050D01*
X139104741Y-51581312D01*
X139104737Y-51581307D01*
X139104734Y-51581303D01*
X138876554Y-51312670D01*
X138620660Y-51070274D01*
X138620653Y-51070268D01*
X138620650Y-51070266D01*
X138340055Y-50856964D01*
X138038042Y-50675248D01*
X138038029Y-50675241D01*
X137718151Y-50527249D01*
X137718146Y-50527248D01*
X137718143Y-50527247D01*
X137718141Y-50527246D01*
X137611672Y-50491372D01*
X137384120Y-50414701D01*
X137039883Y-50338928D01*
X136689478Y-50300820D01*
X136689477Y-50300820D01*
X136337003Y-50300820D01*
X136337001Y-50300820D01*
X135986596Y-50338928D01*
X135642359Y-50414701D01*
X135308333Y-50527248D01*
X135308328Y-50527249D01*
X134988450Y-50675241D01*
X134988437Y-50675248D01*
X134686424Y-50856964D01*
X134405829Y-51070266D01*
X134405820Y-51070274D01*
X134149925Y-51312670D01*
X133921745Y-51581303D01*
X133921738Y-51581313D01*
X133723935Y-51873050D01*
X133558837Y-52184457D01*
X133558828Y-52184475D01*
X133428367Y-52511909D01*
X133428366Y-52511911D01*
X133334074Y-52851523D01*
X133334073Y-52851526D01*
X133277048Y-53199365D01*
X133257966Y-53551317D01*
X129266273Y-53551317D01*
X129272055Y-53500003D01*
X129272055Y-53499996D01*
X129252698Y-53328204D01*
X129252698Y-53328202D01*
X129195598Y-53165018D01*
X129103617Y-53018632D01*
X128981368Y-52896383D01*
X128981367Y-52896382D01*
X128834983Y-52804402D01*
X128671795Y-52747301D01*
X128500004Y-52727945D01*
X128499996Y-52727945D01*
X128328204Y-52747301D01*
X128165016Y-52804402D01*
X128018632Y-52896382D01*
X127896382Y-53018632D01*
X127804402Y-53165016D01*
X127747301Y-53328204D01*
X127727945Y-53499996D01*
X123350000Y-53499996D01*
X123350000Y-53102172D01*
X123349999Y-53102155D01*
X123343598Y-53042627D01*
X123343596Y-53042620D01*
X123293354Y-52907913D01*
X123293350Y-52907906D01*
X123207190Y-52792812D01*
X123207187Y-52792809D01*
X123092093Y-52706649D01*
X123092086Y-52706645D01*
X122957379Y-52656403D01*
X122957372Y-52656401D01*
X122897844Y-52650000D01*
X122250000Y-52650000D01*
X122250000Y-53566988D01*
X122192993Y-53534075D01*
X122065826Y-53500000D01*
X121934174Y-53500000D01*
X121807007Y-53534075D01*
X121750000Y-53566988D01*
X121750000Y-52650000D01*
X121102155Y-52650000D01*
X121042627Y-52656401D01*
X121042620Y-52656403D01*
X120907913Y-52706645D01*
X120907906Y-52706649D01*
X120792812Y-52792809D01*
X120792809Y-52792812D01*
X120706649Y-52907906D01*
X120706645Y-52907913D01*
X120656403Y-53042620D01*
X120656401Y-53042627D01*
X120650000Y-53102155D01*
X120650000Y-53750000D01*
X121566988Y-53750000D01*
X121534075Y-53807007D01*
X121500000Y-53934174D01*
X121500000Y-54065826D01*
X121534075Y-54192993D01*
X121566988Y-54250000D01*
X120650000Y-54250000D01*
X120650000Y-54897844D01*
X120656401Y-54957372D01*
X120656403Y-54957379D01*
X120706645Y-55092086D01*
X120706649Y-55092093D01*
X120792809Y-55207187D01*
X120792812Y-55207190D01*
X120907906Y-55293350D01*
X120907913Y-55293354D01*
X121039470Y-55342421D01*
X121095403Y-55384292D01*
X121119821Y-55449756D01*
X121104970Y-55518029D01*
X121083819Y-55546284D01*
X120961503Y-55668600D01*
X120825965Y-55862169D01*
X120825964Y-55862171D01*
X120726098Y-56076335D01*
X120726094Y-56076344D01*
X120664938Y-56304586D01*
X120664936Y-56304596D01*
X120644341Y-56539999D01*
X115000000Y-56539999D01*
X115000000Y-49499996D01*
X152727945Y-49499996D01*
X152727945Y-49500003D01*
X152747301Y-49671795D01*
X152804402Y-49834983D01*
X152896382Y-49981367D01*
X152896383Y-49981368D01*
X153018632Y-50103617D01*
X153165018Y-50195598D01*
X153328202Y-50252698D01*
X153385468Y-50259150D01*
X153499996Y-50272055D01*
X153500000Y-50272055D01*
X153500004Y-50272055D01*
X153598170Y-50260993D01*
X153671798Y-50252698D01*
X153834982Y-50195598D01*
X153981368Y-50103617D01*
X154103617Y-49981368D01*
X154195598Y-49834982D01*
X154252698Y-49671798D01*
X154272055Y-49500000D01*
X154252698Y-49328202D01*
X154195598Y-49165018D01*
X154103617Y-49018632D01*
X153981368Y-48896383D01*
X153981367Y-48896382D01*
X153834983Y-48804402D01*
X153671795Y-48747301D01*
X153500004Y-48727945D01*
X153499996Y-48727945D01*
X153328204Y-48747301D01*
X153165016Y-48804402D01*
X153018632Y-48896382D01*
X152896382Y-49018632D01*
X152804402Y-49165016D01*
X152747301Y-49328204D01*
X152727945Y-49499996D01*
X115000000Y-49499996D01*
X115000000Y-45499996D01*
X135227945Y-45499996D01*
X135227945Y-45500003D01*
X135247301Y-45671795D01*
X135304402Y-45834983D01*
X135396382Y-45981367D01*
X135396383Y-45981368D01*
X135518632Y-46103617D01*
X135665018Y-46195598D01*
X135828202Y-46252698D01*
X135885468Y-46259150D01*
X135999996Y-46272055D01*
X136000000Y-46272055D01*
X136000004Y-46272055D01*
X136098170Y-46260993D01*
X136171798Y-46252698D01*
X136334982Y-46195598D01*
X136481368Y-46103617D01*
X136603617Y-45981368D01*
X136695598Y-45834982D01*
X136752698Y-45671798D01*
X136772055Y-45500000D01*
X136752698Y-45328202D01*
X136695598Y-45165018D01*
X136603617Y-45018632D01*
X136584981Y-44999996D01*
X140227945Y-44999996D01*
X140227945Y-45000003D01*
X140247301Y-45171795D01*
X140304402Y-45334983D01*
X140396382Y-45481367D01*
X140518632Y-45603617D01*
X140627140Y-45671798D01*
X140665018Y-45695598D01*
X140828202Y-45752698D01*
X140885468Y-45759150D01*
X140999996Y-45772055D01*
X141000000Y-45772055D01*
X141000004Y-45772055D01*
X141098170Y-45760993D01*
X141171798Y-45752698D01*
X141334982Y-45695598D01*
X141481368Y-45603617D01*
X141584989Y-45499996D01*
X152727945Y-45499996D01*
X152727945Y-45500003D01*
X152747301Y-45671795D01*
X152804402Y-45834983D01*
X152896382Y-45981367D01*
X152896383Y-45981368D01*
X153018632Y-46103617D01*
X153165018Y-46195598D01*
X153328202Y-46252698D01*
X153385468Y-46259150D01*
X153499996Y-46272055D01*
X153500000Y-46272055D01*
X153500004Y-46272055D01*
X153598170Y-46260993D01*
X153671798Y-46252698D01*
X153834982Y-46195598D01*
X153981368Y-46103617D01*
X154103617Y-45981368D01*
X154195598Y-45834982D01*
X154252698Y-45671798D01*
X154272055Y-45500000D01*
X154252698Y-45328202D01*
X154195598Y-45165018D01*
X154103617Y-45018632D01*
X153981368Y-44896383D01*
X153981367Y-44896382D01*
X153834983Y-44804402D01*
X153671795Y-44747301D01*
X153500004Y-44727945D01*
X153499996Y-44727945D01*
X153328204Y-44747301D01*
X153165016Y-44804402D01*
X153018632Y-44896382D01*
X152896382Y-45018632D01*
X152804402Y-45165016D01*
X152747301Y-45328204D01*
X152727945Y-45499996D01*
X141584989Y-45499996D01*
X141603617Y-45481368D01*
X141695598Y-45334982D01*
X141752698Y-45171798D01*
X141772055Y-45000000D01*
X141752698Y-44828202D01*
X141695598Y-44665018D01*
X141603617Y-44518632D01*
X141584981Y-44499996D01*
X148727945Y-44499996D01*
X148727945Y-44500003D01*
X148747301Y-44671795D01*
X148804402Y-44834983D01*
X148896382Y-44981367D01*
X149018632Y-45103617D01*
X149127140Y-45171798D01*
X149165018Y-45195598D01*
X149328202Y-45252698D01*
X149385468Y-45259150D01*
X149499996Y-45272055D01*
X149500000Y-45272055D01*
X149500004Y-45272055D01*
X149598170Y-45260993D01*
X149671798Y-45252698D01*
X149834982Y-45195598D01*
X149981368Y-45103617D01*
X150103617Y-44981368D01*
X150195598Y-44834982D01*
X150252698Y-44671798D01*
X150272055Y-44500000D01*
X150252698Y-44328202D01*
X150195598Y-44165018D01*
X150103617Y-44018632D01*
X149981368Y-43896383D01*
X149981367Y-43896382D01*
X149834983Y-43804402D01*
X149671795Y-43747301D01*
X149500004Y-43727945D01*
X149499996Y-43727945D01*
X149328204Y-43747301D01*
X149165016Y-43804402D01*
X149018632Y-43896382D01*
X148896382Y-44018632D01*
X148804402Y-44165016D01*
X148747301Y-44328204D01*
X148727945Y-44499996D01*
X141584981Y-44499996D01*
X141481368Y-44396383D01*
X141481367Y-44396382D01*
X141334983Y-44304402D01*
X141171795Y-44247301D01*
X141000004Y-44227945D01*
X140999996Y-44227945D01*
X140828204Y-44247301D01*
X140665016Y-44304402D01*
X140518632Y-44396382D01*
X140396382Y-44518632D01*
X140304402Y-44665016D01*
X140247301Y-44828204D01*
X140227945Y-44999996D01*
X136584981Y-44999996D01*
X136481368Y-44896383D01*
X136481367Y-44896382D01*
X136334983Y-44804402D01*
X136171795Y-44747301D01*
X136000004Y-44727945D01*
X135999996Y-44727945D01*
X135828204Y-44747301D01*
X135665016Y-44804402D01*
X135518632Y-44896382D01*
X135396382Y-45018632D01*
X135304402Y-45165016D01*
X135247301Y-45328204D01*
X135227945Y-45499996D01*
X115000000Y-45499996D01*
X115000000Y-37881995D01*
X117599500Y-37881995D01*
X117599500Y-38118004D01*
X117599501Y-38118020D01*
X117630306Y-38352010D01*
X117691394Y-38579993D01*
X117781714Y-38798045D01*
X117781719Y-38798056D01*
X117840733Y-38900269D01*
X117899727Y-39002450D01*
X117899729Y-39002453D01*
X117899730Y-39002454D01*
X118043406Y-39189697D01*
X118043412Y-39189704D01*
X118210295Y-39356587D01*
X118210301Y-39356592D01*
X118397550Y-39500273D01*
X118528918Y-39576118D01*
X118601943Y-39618280D01*
X118601948Y-39618282D01*
X118601951Y-39618284D01*
X118820007Y-39708606D01*
X119047986Y-39769693D01*
X119281989Y-39800500D01*
X119281996Y-39800500D01*
X119518004Y-39800500D01*
X119518011Y-39800500D01*
X119752014Y-39769693D01*
X119979993Y-39708606D01*
X120198049Y-39618284D01*
X120402450Y-39500273D01*
X120589699Y-39356592D01*
X120756592Y-39189699D01*
X120900273Y-39002450D01*
X121018284Y-38798049D01*
X121108606Y-38579993D01*
X121169693Y-38352014D01*
X121200500Y-38118011D01*
X121200500Y-37881989D01*
X121169693Y-37647986D01*
X121156834Y-37599996D01*
X133827945Y-37599996D01*
X133827945Y-37600003D01*
X133847301Y-37771795D01*
X133904402Y-37934983D01*
X133932684Y-37979993D01*
X133996383Y-38081368D01*
X134118632Y-38203617D01*
X134265018Y-38295598D01*
X134428202Y-38352698D01*
X134485468Y-38359150D01*
X134599996Y-38372055D01*
X134600000Y-38372055D01*
X134600004Y-38372055D01*
X134698170Y-38360993D01*
X134771798Y-38352698D01*
X134934982Y-38295598D01*
X135081368Y-38203617D01*
X135203617Y-38081368D01*
X135295598Y-37934982D01*
X135352698Y-37771798D01*
X135372055Y-37600000D01*
X135352698Y-37428202D01*
X135301538Y-37281995D01*
X166599500Y-37281995D01*
X166599500Y-37518004D01*
X166599501Y-37518020D01*
X166630306Y-37752010D01*
X166691394Y-37979993D01*
X166781714Y-38198045D01*
X166781719Y-38198056D01*
X166838035Y-38295597D01*
X166899727Y-38402450D01*
X166899729Y-38402453D01*
X166899730Y-38402454D01*
X167043406Y-38589697D01*
X167043412Y-38589704D01*
X167210295Y-38756587D01*
X167210301Y-38756592D01*
X167397550Y-38900273D01*
X167528918Y-38976118D01*
X167601943Y-39018280D01*
X167601948Y-39018282D01*
X167601951Y-39018284D01*
X167820007Y-39108606D01*
X168047986Y-39169693D01*
X168281989Y-39200500D01*
X168281996Y-39200500D01*
X168518004Y-39200500D01*
X168518011Y-39200500D01*
X168752014Y-39169693D01*
X168979993Y-39108606D01*
X169198049Y-39018284D01*
X169402450Y-38900273D01*
X169589699Y-38756592D01*
X169756592Y-38589699D01*
X169900273Y-38402450D01*
X170018284Y-38198049D01*
X170108606Y-37979993D01*
X170169693Y-37752014D01*
X170200500Y-37518011D01*
X170200500Y-37281989D01*
X170169693Y-37047986D01*
X170108606Y-36820007D01*
X170018284Y-36601951D01*
X170018282Y-36601948D01*
X170018280Y-36601943D01*
X169976118Y-36528918D01*
X169900273Y-36397550D01*
X169771943Y-36230307D01*
X169756593Y-36210302D01*
X169756587Y-36210295D01*
X169589704Y-36043412D01*
X169589697Y-36043406D01*
X169402454Y-35899730D01*
X169402453Y-35899729D01*
X169402450Y-35899727D01*
X169278569Y-35828204D01*
X169198056Y-35781719D01*
X169198045Y-35781714D01*
X168979993Y-35691394D01*
X168752010Y-35630306D01*
X168518020Y-35599501D01*
X168518017Y-35599500D01*
X168518011Y-35599500D01*
X168281989Y-35599500D01*
X168281983Y-35599500D01*
X168281979Y-35599501D01*
X168047989Y-35630306D01*
X167820006Y-35691394D01*
X167601954Y-35781714D01*
X167601943Y-35781719D01*
X167397545Y-35899730D01*
X167210302Y-36043406D01*
X167210295Y-36043412D01*
X167043412Y-36210295D01*
X167043406Y-36210302D01*
X166899730Y-36397545D01*
X166781719Y-36601943D01*
X166781714Y-36601954D01*
X166691394Y-36820006D01*
X166630306Y-37047989D01*
X166599501Y-37281979D01*
X166599500Y-37281995D01*
X135301538Y-37281995D01*
X135295598Y-37265018D01*
X135203617Y-37118632D01*
X135081368Y-36996383D01*
X135081367Y-36996382D01*
X134934983Y-36904402D01*
X134771795Y-36847301D01*
X134600004Y-36827945D01*
X134599996Y-36827945D01*
X134428204Y-36847301D01*
X134265016Y-36904402D01*
X134118632Y-36996382D01*
X133996382Y-37118632D01*
X133904402Y-37265016D01*
X133847301Y-37428204D01*
X133827945Y-37599996D01*
X121156834Y-37599996D01*
X121108606Y-37420007D01*
X121018284Y-37201951D01*
X121018282Y-37201948D01*
X121018280Y-37201943D01*
X120970180Y-37118632D01*
X120900273Y-36997550D01*
X120756592Y-36810301D01*
X120756587Y-36810295D01*
X120589704Y-36643412D01*
X120589697Y-36643406D01*
X120402454Y-36499730D01*
X120402453Y-36499729D01*
X120402450Y-36499727D01*
X120320957Y-36452677D01*
X120198056Y-36381719D01*
X120198045Y-36381714D01*
X119979993Y-36291394D01*
X119752010Y-36230306D01*
X119518020Y-36199501D01*
X119518017Y-36199500D01*
X119518011Y-36199500D01*
X119281989Y-36199500D01*
X119281983Y-36199500D01*
X119281979Y-36199501D01*
X119047989Y-36230306D01*
X118820006Y-36291394D01*
X118601954Y-36381714D01*
X118601943Y-36381719D01*
X118397545Y-36499730D01*
X118210302Y-36643406D01*
X118210295Y-36643412D01*
X118043412Y-36810295D01*
X118043406Y-36810302D01*
X117899730Y-36997545D01*
X117781719Y-37201943D01*
X117781714Y-37201954D01*
X117691394Y-37420006D01*
X117630306Y-37647989D01*
X117599501Y-37881979D01*
X117599500Y-37881995D01*
X115000000Y-37881995D01*
X115000000Y-35999996D01*
X141227945Y-35999996D01*
X141227945Y-36000003D01*
X141247301Y-36171795D01*
X141304402Y-36334983D01*
X141396382Y-36481367D01*
X141518632Y-36603617D01*
X141581958Y-36643408D01*
X141665018Y-36695598D01*
X141828202Y-36752698D01*
X141885468Y-36759150D01*
X141999996Y-36772055D01*
X142000000Y-36772055D01*
X142000004Y-36772055D01*
X142098170Y-36760993D01*
X142171798Y-36752698D01*
X142334982Y-36695598D01*
X142481368Y-36603617D01*
X142603617Y-36481368D01*
X142695598Y-36334982D01*
X142752698Y-36171798D01*
X142772055Y-36000000D01*
X142764729Y-35934983D01*
X142752698Y-35828204D01*
X142752698Y-35828202D01*
X142695598Y-35665018D01*
X142673787Y-35630307D01*
X142654741Y-35599996D01*
X163027945Y-35599996D01*
X163027945Y-35600003D01*
X163047301Y-35771795D01*
X163104402Y-35934983D01*
X163196382Y-36081367D01*
X163196383Y-36081368D01*
X163318632Y-36203617D01*
X163465018Y-36295598D01*
X163628202Y-36352698D01*
X163685468Y-36359150D01*
X163799996Y-36372055D01*
X163800000Y-36372055D01*
X163800004Y-36372055D01*
X163898170Y-36360993D01*
X163971798Y-36352698D01*
X164134982Y-36295598D01*
X164281368Y-36203617D01*
X164403617Y-36081368D01*
X164495598Y-35934982D01*
X164552698Y-35771798D01*
X164564729Y-35665018D01*
X164572055Y-35600003D01*
X164572055Y-35599996D01*
X164552698Y-35428204D01*
X164552698Y-35428202D01*
X164495598Y-35265018D01*
X164472303Y-35227945D01*
X164403617Y-35118632D01*
X164281367Y-34996382D01*
X164134983Y-34904402D01*
X163971795Y-34847301D01*
X163800004Y-34827945D01*
X163799996Y-34827945D01*
X163628204Y-34847301D01*
X163465016Y-34904402D01*
X163318632Y-34996382D01*
X163196382Y-35118632D01*
X163104402Y-35265016D01*
X163047301Y-35428204D01*
X163027945Y-35599996D01*
X142654741Y-35599996D01*
X142603617Y-35518632D01*
X142481367Y-35396382D01*
X142334983Y-35304402D01*
X142171795Y-35247301D01*
X142000004Y-35227945D01*
X141999996Y-35227945D01*
X141828204Y-35247301D01*
X141665016Y-35304402D01*
X141518632Y-35396382D01*
X141396382Y-35518632D01*
X141304402Y-35665016D01*
X141247301Y-35828204D01*
X141227945Y-35999996D01*
X115000000Y-35999996D01*
X115000000Y-33624000D01*
X115019685Y-33556961D01*
X115072489Y-33511206D01*
X115124000Y-33500000D01*
X171876000Y-33500000D01*
X171943039Y-33519685D01*
G37*
%TD.AperFunction*%
%TD*%
M02*
