%TF.GenerationSoftware,KiCad,Pcbnew,8.0.8-8.0.8-0~ubuntu24.04.1*%
%TF.CreationDate,2025-02-23T01:25:36-06:00*%
%TF.ProjectId,edge_human_detection_board,65646765-5f68-4756-9d61-6e5f64657465,rev?*%
%TF.SameCoordinates,Original*%
%TF.FileFunction,Copper,L2,Inr*%
%TF.FilePolarity,Positive*%
%FSLAX46Y46*%
G04 Gerber Fmt 4.6, Leading zero omitted, Abs format (unit mm)*
G04 Created by KiCad (PCBNEW 8.0.8-8.0.8-0~ubuntu24.04.1) date 2025-02-23 01:25:36*
%MOMM*%
%LPD*%
G01*
G04 APERTURE LIST*
%TA.AperFunction,ComponentPad*%
%ADD10R,1.700000X1.700000*%
%TD*%
%TA.AperFunction,ComponentPad*%
%ADD11O,1.700000X1.700000*%
%TD*%
%TA.AperFunction,ComponentPad*%
%ADD12C,5.500000*%
%TD*%
%TA.AperFunction,ComponentPad*%
%ADD13R,1.524000X1.524000*%
%TD*%
%TA.AperFunction,ComponentPad*%
%ADD14C,1.524000*%
%TD*%
%TA.AperFunction,ViaPad*%
%ADD15C,0.533400*%
%TD*%
G04 APERTURE END LIST*
D10*
%TO.N,GND*%
%TO.C,J1*%
X96200000Y-78875000D03*
D11*
%TO.N,/Coral Micro Breakouts/DEBUG_TX*%
X96200000Y-81415000D03*
%TO.N,/Coral Micro Breakouts/DEBUG_RX*%
X96200000Y-83955000D03*
%TD*%
D12*
%TO.N,*%
%TO.C,U1*%
X127200000Y-74000000D03*
X104200000Y-74000000D03*
X127200000Y-132000000D03*
X104200000Y-132000000D03*
D13*
%TO.N,GND*%
X129686760Y-78508680D03*
D14*
%TO.N,/Coral Micro Breakouts/+1.8VDC_TOF*%
X129686760Y-81048680D03*
%TO.N,/Coral Micro Breakouts/+3.3VDC*%
X129686760Y-83588680D03*
%TO.N,unconnected-(U1-RTC_3V-Pad4)*%
X129686760Y-86128680D03*
%TO.N,unconnected-(U1-SPI6_CS0-Pad5)*%
X129686760Y-88668680D03*
%TO.N,unconnected-(U1-SPI6_SCK-Pad6)*%
X129686760Y-91208680D03*
%TO.N,unconnected-(U1-SPI6_SDO-Pad7)*%
X129686760Y-93748680D03*
%TO.N,unconnected-(U1-SPI6_SDI-Pad8)*%
X129686760Y-96288680D03*
%TO.N,unconnected-(U1-DAC_OUT-Pad9)*%
X129686760Y-98828680D03*
%TO.N,unconnected-(U1-I2C6_SDA-Pad10)*%
X129686760Y-101368680D03*
%TO.N,/Coral Micro Breakouts/SCL*%
X129686760Y-103908680D03*
%TO.N,/Coral Micro Breakouts/SDA*%
X129686760Y-106448680D03*
D13*
%TO.N,GND*%
X101746760Y-78508680D03*
D14*
%TO.N,/Coral Micro Breakouts/+1.8VDC_RGB*%
X101746760Y-81048680D03*
%TO.N,unconnected-(U1-ADC1_CH0A-Pad15)*%
X101746760Y-83588680D03*
%TO.N,unconnected-(U1-ADC1_CH0B-Pad16)*%
X101746760Y-86128680D03*
%TO.N,/Coral Micro Breakouts/DEBUG_TX*%
X101746760Y-88668680D03*
%TO.N,/Coral Micro Breakouts/DEBUG_RX*%
X101746760Y-91208680D03*
%TO.N,unconnected-(U1-UART6_CTX-Pad19)*%
X101746760Y-93748680D03*
%TO.N,unconnected-(U1-UART6_RTS-Pad20)*%
X101746760Y-96288680D03*
%TO.N,/Coral Micro Breakouts/PWM_1*%
X101746760Y-98828680D03*
%TO.N,/RGB Signalling/SIG_IN_PWM0*%
X101746760Y-101368680D03*
%TO.N,unconnected-(U1-I2C6_SCL-Pad23)*%
X101746760Y-103908680D03*
%TO.N,/Coral Micro Breakouts/+5VDC*%
X101746760Y-106448680D03*
%TD*%
D15*
%TO.N,GND*%
X136400000Y-63600000D03*
X106000000Y-80400000D03*
X94600000Y-54600000D03*
X98600000Y-86200000D03*
X96000000Y-128400000D03*
X94800000Y-66000000D03*
X127400000Y-67600000D03*
X96200000Y-96000000D03*
X115400000Y-118200000D03*
X103800000Y-67800000D03*
X136800000Y-53400000D03*
X98000000Y-138000000D03*
X131400000Y-138200000D03*
X136800000Y-118000000D03*
X119600000Y-103000000D03*
X136400000Y-94000000D03*
X112400000Y-74000000D03*
X122800000Y-81000000D03*
%TO.N,/RGB Signalling/SIG_IN_RGB1*%
X97600000Y-114200000D03*
X112200000Y-108400000D03*
%TO.N,/RGB Signalling/SIG_IN_RGB2*%
X93400000Y-112400000D03*
X97800000Y-118800000D03*
%TO.N,/RGB Signalling/SIG_IN_RGB3*%
X98000000Y-123600000D03*
X93600000Y-117400000D03*
%TO.N,/RGB Signalling/SIG_IN_PWM0*%
X118000000Y-108400000D03*
%TO.N,/Coral Micro Breakouts/PWM_1*%
X113200000Y-53800000D03*
%TO.N,/Coral Micro Breakouts/SDA*%
X116000000Y-53800000D03*
%TO.N,/Coral Micro Breakouts/SCL*%
X119200000Y-53800000D03*
%TD*%
%TA.AperFunction,Conductor*%
%TO.N,GND*%
G36*
X138942770Y-48019685D02*
G01*
X138988525Y-48072489D01*
X138999731Y-48124268D01*
X138805655Y-137787006D01*
X138785825Y-137854003D01*
X138732922Y-137899644D01*
X138663742Y-137909437D01*
X138600250Y-137880275D01*
X138562603Y-137821415D01*
X138561901Y-137818908D01*
X138508606Y-137620007D01*
X138418284Y-137401951D01*
X138418282Y-137401948D01*
X138418280Y-137401943D01*
X138339755Y-137265935D01*
X138300273Y-137197550D01*
X138156592Y-137010301D01*
X138156587Y-137010295D01*
X137989704Y-136843412D01*
X137989697Y-136843406D01*
X137802454Y-136699730D01*
X137802453Y-136699729D01*
X137802450Y-136699727D01*
X137713168Y-136648180D01*
X137598056Y-136581719D01*
X137598045Y-136581714D01*
X137379993Y-136491394D01*
X137152010Y-136430306D01*
X136918020Y-136399501D01*
X136918017Y-136399500D01*
X136918011Y-136399500D01*
X136681989Y-136399500D01*
X136681983Y-136399500D01*
X136681979Y-136399501D01*
X136447989Y-136430306D01*
X136220006Y-136491394D01*
X136001954Y-136581714D01*
X136001943Y-136581719D01*
X135797545Y-136699730D01*
X135610302Y-136843406D01*
X135610295Y-136843412D01*
X135443412Y-137010295D01*
X135443406Y-137010302D01*
X135299730Y-137197545D01*
X135181719Y-137401943D01*
X135181714Y-137401954D01*
X135091394Y-137620006D01*
X135030306Y-137847989D01*
X134999501Y-138081979D01*
X134999500Y-138081995D01*
X134999500Y-138318004D01*
X134999501Y-138318020D01*
X135030306Y-138552010D01*
X135091394Y-138779993D01*
X135181714Y-138998045D01*
X135181719Y-138998056D01*
X135252677Y-139120957D01*
X135299727Y-139202450D01*
X135299729Y-139202453D01*
X135299730Y-139202454D01*
X135443406Y-139389697D01*
X135443412Y-139389704D01*
X135610295Y-139556587D01*
X135610301Y-139556592D01*
X135797550Y-139700273D01*
X135928918Y-139776118D01*
X136001943Y-139818280D01*
X136001948Y-139818282D01*
X136001951Y-139818284D01*
X136220007Y-139908606D01*
X136447986Y-139969693D01*
X136681989Y-140000500D01*
X136681996Y-140000500D01*
X136918004Y-140000500D01*
X136918011Y-140000500D01*
X137152014Y-139969693D01*
X137379993Y-139908606D01*
X137598049Y-139818284D01*
X137802450Y-139700273D01*
X137989699Y-139556592D01*
X138156592Y-139389699D01*
X138300273Y-139202450D01*
X138418284Y-138998049D01*
X138508606Y-138779993D01*
X138560078Y-138587897D01*
X138596442Y-138528238D01*
X138659289Y-138497709D01*
X138728664Y-138506004D01*
X138782542Y-138550489D01*
X138803817Y-138617041D01*
X138803852Y-138620260D01*
X138802724Y-139141632D01*
X138800932Y-139969693D01*
X138800268Y-140276268D01*
X138780438Y-140343265D01*
X138727535Y-140388906D01*
X138676268Y-140400000D01*
X91123732Y-140400000D01*
X91056693Y-140380315D01*
X91010938Y-140327511D01*
X90999732Y-140276268D01*
X90999135Y-140000498D01*
X90997276Y-139141631D01*
X91016816Y-139074550D01*
X91069521Y-139028681D01*
X91138657Y-139018588D01*
X91202276Y-139047476D01*
X91228661Y-139079361D01*
X91299727Y-139202450D01*
X91299730Y-139202454D01*
X91299732Y-139202457D01*
X91443406Y-139389697D01*
X91443412Y-139389704D01*
X91610295Y-139556587D01*
X91610301Y-139556592D01*
X91797550Y-139700273D01*
X91928918Y-139776118D01*
X92001943Y-139818280D01*
X92001948Y-139818282D01*
X92001951Y-139818284D01*
X92220007Y-139908606D01*
X92447986Y-139969693D01*
X92681989Y-140000500D01*
X92681996Y-140000500D01*
X92918004Y-140000500D01*
X92918011Y-140000500D01*
X93152014Y-139969693D01*
X93379993Y-139908606D01*
X93598049Y-139818284D01*
X93802450Y-139700273D01*
X93989699Y-139556592D01*
X94156592Y-139389699D01*
X94300273Y-139202450D01*
X94418284Y-138998049D01*
X94508606Y-138779993D01*
X94569693Y-138552014D01*
X94600500Y-138318011D01*
X94600500Y-138081989D01*
X94569693Y-137847986D01*
X94569249Y-137846328D01*
X108386260Y-137846328D01*
X108386260Y-138051031D01*
X108418282Y-138253214D01*
X108481541Y-138447903D01*
X108533812Y-138550489D01*
X108569362Y-138620260D01*
X108574475Y-138630293D01*
X108694788Y-138795893D01*
X108839546Y-138940651D01*
X108986581Y-139047476D01*
X109005150Y-139060967D01*
X109121367Y-139120183D01*
X109187536Y-139153898D01*
X109187538Y-139153898D01*
X109187541Y-139153900D01*
X109291897Y-139187807D01*
X109382225Y-139217157D01*
X109483317Y-139233168D01*
X109584408Y-139249180D01*
X109584409Y-139249180D01*
X109789111Y-139249180D01*
X109789112Y-139249180D01*
X109991294Y-139217157D01*
X110185979Y-139153900D01*
X110368370Y-139060967D01*
X110461350Y-138993412D01*
X110533973Y-138940651D01*
X110533975Y-138940648D01*
X110533979Y-138940646D01*
X110678726Y-138795899D01*
X110678728Y-138795895D01*
X110678731Y-138795893D01*
X110731492Y-138723270D01*
X110799047Y-138630290D01*
X110891980Y-138447899D01*
X110955237Y-138253214D01*
X110987260Y-138051032D01*
X110987260Y-137846328D01*
X120386260Y-137846328D01*
X120386260Y-138051031D01*
X120418282Y-138253214D01*
X120481541Y-138447903D01*
X120533812Y-138550489D01*
X120569362Y-138620260D01*
X120574475Y-138630293D01*
X120694788Y-138795893D01*
X120839546Y-138940651D01*
X120986581Y-139047476D01*
X121005150Y-139060967D01*
X121121367Y-139120183D01*
X121187536Y-139153898D01*
X121187538Y-139153898D01*
X121187541Y-139153900D01*
X121291897Y-139187807D01*
X121382225Y-139217157D01*
X121483317Y-139233168D01*
X121584408Y-139249180D01*
X121584409Y-139249180D01*
X121789111Y-139249180D01*
X121789112Y-139249180D01*
X121991294Y-139217157D01*
X122185979Y-139153900D01*
X122368370Y-139060967D01*
X122461350Y-138993412D01*
X122533973Y-138940651D01*
X122533975Y-138940648D01*
X122533979Y-138940646D01*
X122678726Y-138795899D01*
X122678728Y-138795895D01*
X122678731Y-138795893D01*
X122731492Y-138723270D01*
X122799047Y-138630290D01*
X122891980Y-138447899D01*
X122955237Y-138253214D01*
X122987260Y-138051032D01*
X122987260Y-137846328D01*
X122955237Y-137644146D01*
X122947393Y-137620006D01*
X122891978Y-137449456D01*
X122854490Y-137375883D01*
X122799047Y-137267070D01*
X122791316Y-137256429D01*
X122678731Y-137101466D01*
X122533973Y-136956708D01*
X122368373Y-136836395D01*
X122368372Y-136836394D01*
X122368370Y-136836393D01*
X122311413Y-136807371D01*
X122185983Y-136743461D01*
X121991294Y-136680202D01*
X121816755Y-136652558D01*
X121789112Y-136648180D01*
X121584408Y-136648180D01*
X121560089Y-136652031D01*
X121382225Y-136680202D01*
X121187536Y-136743461D01*
X121005146Y-136836395D01*
X120839546Y-136956708D01*
X120694788Y-137101466D01*
X120574475Y-137267066D01*
X120481541Y-137449456D01*
X120418282Y-137644145D01*
X120386260Y-137846328D01*
X110987260Y-137846328D01*
X110955237Y-137644146D01*
X110947393Y-137620006D01*
X110891978Y-137449456D01*
X110854490Y-137375883D01*
X110799047Y-137267070D01*
X110791316Y-137256429D01*
X110678731Y-137101466D01*
X110533973Y-136956708D01*
X110368373Y-136836395D01*
X110368372Y-136836394D01*
X110368370Y-136836393D01*
X110311413Y-136807371D01*
X110185983Y-136743461D01*
X109991294Y-136680202D01*
X109816755Y-136652558D01*
X109789112Y-136648180D01*
X109584408Y-136648180D01*
X109560089Y-136652031D01*
X109382225Y-136680202D01*
X109187536Y-136743461D01*
X109005146Y-136836395D01*
X108839546Y-136956708D01*
X108694788Y-137101466D01*
X108574475Y-137267066D01*
X108481541Y-137449456D01*
X108418282Y-137644145D01*
X108386260Y-137846328D01*
X94569249Y-137846328D01*
X94508606Y-137620007D01*
X94418284Y-137401951D01*
X94418282Y-137401948D01*
X94418280Y-137401943D01*
X94339755Y-137265935D01*
X94300273Y-137197550D01*
X94156592Y-137010301D01*
X94156587Y-137010295D01*
X93989704Y-136843412D01*
X93989697Y-136843406D01*
X93802454Y-136699730D01*
X93802453Y-136699729D01*
X93802450Y-136699727D01*
X93713168Y-136648180D01*
X93598056Y-136581719D01*
X93598045Y-136581714D01*
X93379993Y-136491394D01*
X93152010Y-136430306D01*
X92918020Y-136399501D01*
X92918017Y-136399500D01*
X92918011Y-136399500D01*
X92681989Y-136399500D01*
X92681983Y-136399500D01*
X92681979Y-136399501D01*
X92447989Y-136430306D01*
X92220006Y-136491394D01*
X92001954Y-136581714D01*
X92001943Y-136581719D01*
X91797545Y-136699730D01*
X91610302Y-136843406D01*
X91610295Y-136843412D01*
X91443412Y-137010295D01*
X91443406Y-137010302D01*
X91299732Y-137197542D01*
X91224603Y-137327668D01*
X91174035Y-137375883D01*
X91105428Y-137389105D01*
X91040563Y-137363137D01*
X91000036Y-137306222D01*
X90993216Y-137265935D01*
X90992301Y-136843412D01*
X90981818Y-131999997D01*
X100944726Y-131999997D01*
X100944726Y-132000002D01*
X100963808Y-132351954D01*
X101020833Y-132699793D01*
X101020834Y-132699796D01*
X101115126Y-133039408D01*
X101115127Y-133039410D01*
X101245588Y-133366844D01*
X101245597Y-133366862D01*
X101410695Y-133678269D01*
X101608498Y-133970006D01*
X101608505Y-133970016D01*
X101836685Y-134238649D01*
X101836686Y-134238650D01*
X102092580Y-134481046D01*
X102373182Y-134694354D01*
X102675202Y-134876074D01*
X102675206Y-134876075D01*
X102675210Y-134876078D01*
X102995088Y-135024070D01*
X102995092Y-135024070D01*
X102995099Y-135024074D01*
X103329122Y-135136619D01*
X103673355Y-135212391D01*
X104023763Y-135250500D01*
X104023769Y-135250500D01*
X104376231Y-135250500D01*
X104376237Y-135250500D01*
X104726645Y-135212391D01*
X105070878Y-135136619D01*
X105404901Y-135024074D01*
X105404908Y-135024070D01*
X105404911Y-135024070D01*
X105724789Y-134876078D01*
X105724798Y-134876074D01*
X106026818Y-134694354D01*
X106307420Y-134481046D01*
X106563314Y-134238650D01*
X106791501Y-133970008D01*
X106989305Y-133678269D01*
X107154407Y-133366854D01*
X107284871Y-133039414D01*
X107379168Y-132699788D01*
X107436191Y-132351957D01*
X107455274Y-132000000D01*
X107455274Y-131999997D01*
X123944726Y-131999997D01*
X123944726Y-132000002D01*
X123963808Y-132351954D01*
X124020833Y-132699793D01*
X124020834Y-132699796D01*
X124115126Y-133039408D01*
X124115127Y-133039410D01*
X124245588Y-133366844D01*
X124245597Y-133366862D01*
X124410695Y-133678269D01*
X124608498Y-133970006D01*
X124608505Y-133970016D01*
X124836685Y-134238649D01*
X124836686Y-134238650D01*
X125092580Y-134481046D01*
X125373182Y-134694354D01*
X125675202Y-134876074D01*
X125675206Y-134876075D01*
X125675210Y-134876078D01*
X125995088Y-135024070D01*
X125995092Y-135024070D01*
X125995099Y-135024074D01*
X126329122Y-135136619D01*
X126673355Y-135212391D01*
X127023763Y-135250500D01*
X127023769Y-135250500D01*
X127376231Y-135250500D01*
X127376237Y-135250500D01*
X127726645Y-135212391D01*
X128070878Y-135136619D01*
X128404901Y-135024074D01*
X128404908Y-135024070D01*
X128404911Y-135024070D01*
X128724789Y-134876078D01*
X128724798Y-134876074D01*
X129026818Y-134694354D01*
X129307420Y-134481046D01*
X129563314Y-134238650D01*
X129791501Y-133970008D01*
X129989305Y-133678269D01*
X130154407Y-133366854D01*
X130284871Y-133039414D01*
X130379168Y-132699788D01*
X130436191Y-132351957D01*
X130455274Y-132000000D01*
X130436191Y-131648043D01*
X130379168Y-131300212D01*
X130336704Y-131147271D01*
X130284873Y-130960591D01*
X130284872Y-130960589D01*
X130154411Y-130633155D01*
X130154402Y-130633137D01*
X129989304Y-130321730D01*
X129791501Y-130029992D01*
X129791497Y-130029987D01*
X129791494Y-130029983D01*
X129563314Y-129761350D01*
X129307420Y-129518954D01*
X129307413Y-129518948D01*
X129307410Y-129518946D01*
X129026815Y-129305644D01*
X128724802Y-129123928D01*
X128724789Y-129123921D01*
X128404911Y-128975929D01*
X128404906Y-128975928D01*
X128404903Y-128975927D01*
X128404901Y-128975926D01*
X128298432Y-128940052D01*
X128070880Y-128863381D01*
X127726643Y-128787608D01*
X127376238Y-128749500D01*
X127376237Y-128749500D01*
X127023763Y-128749500D01*
X127023761Y-128749500D01*
X126673356Y-128787608D01*
X126329119Y-128863381D01*
X125995093Y-128975928D01*
X125995088Y-128975929D01*
X125675210Y-129123921D01*
X125675197Y-129123928D01*
X125373184Y-129305644D01*
X125092589Y-129518946D01*
X125092580Y-129518954D01*
X124836685Y-129761350D01*
X124608505Y-130029983D01*
X124608498Y-130029993D01*
X124410695Y-130321730D01*
X124245597Y-130633137D01*
X124245588Y-130633155D01*
X124115127Y-130960589D01*
X124115126Y-130960591D01*
X124020834Y-131300203D01*
X124020833Y-131300206D01*
X123963808Y-131648045D01*
X123944726Y-131999997D01*
X107455274Y-131999997D01*
X107436191Y-131648043D01*
X107379168Y-131300212D01*
X107336704Y-131147271D01*
X107284873Y-130960591D01*
X107284872Y-130960589D01*
X107154411Y-130633155D01*
X107154402Y-130633137D01*
X106989304Y-130321730D01*
X106791501Y-130029992D01*
X106791497Y-130029987D01*
X106791494Y-130029983D01*
X106563314Y-129761350D01*
X106307420Y-129518954D01*
X106307413Y-129518948D01*
X106307410Y-129518946D01*
X106026815Y-129305644D01*
X105724802Y-129123928D01*
X105724789Y-129123921D01*
X105404911Y-128975929D01*
X105404906Y-128975928D01*
X105404903Y-128975927D01*
X105404901Y-128975926D01*
X105298432Y-128940052D01*
X105070880Y-128863381D01*
X104726643Y-128787608D01*
X104376238Y-128749500D01*
X104376237Y-128749500D01*
X104023763Y-128749500D01*
X104023761Y-128749500D01*
X103673356Y-128787608D01*
X103329119Y-128863381D01*
X102995093Y-128975928D01*
X102995088Y-128975929D01*
X102675210Y-129123921D01*
X102675197Y-129123928D01*
X102373184Y-129305644D01*
X102092589Y-129518946D01*
X102092580Y-129518954D01*
X101836685Y-129761350D01*
X101608505Y-130029983D01*
X101608498Y-130029993D01*
X101410695Y-130321730D01*
X101245597Y-130633137D01*
X101245588Y-130633155D01*
X101115127Y-130960589D01*
X101115126Y-130960591D01*
X101020834Y-131300203D01*
X101020833Y-131300206D01*
X100963808Y-131648045D01*
X100944726Y-131999997D01*
X90981818Y-131999997D01*
X90963636Y-123599996D01*
X97227945Y-123599996D01*
X97227945Y-123600003D01*
X97247301Y-123771795D01*
X97304402Y-123934983D01*
X97396382Y-124081367D01*
X97396383Y-124081368D01*
X97518632Y-124203617D01*
X97665018Y-124295598D01*
X97828202Y-124352698D01*
X97885468Y-124359150D01*
X97999996Y-124372055D01*
X98000000Y-124372055D01*
X98000004Y-124372055D01*
X98098170Y-124360993D01*
X98171798Y-124352698D01*
X98334982Y-124295598D01*
X98481368Y-124203617D01*
X98603617Y-124081368D01*
X98695598Y-123934982D01*
X98752698Y-123771798D01*
X98772055Y-123600000D01*
X98752698Y-123428202D01*
X98695598Y-123265018D01*
X98603617Y-123118632D01*
X98481368Y-122996383D01*
X98481367Y-122996382D01*
X98334983Y-122904402D01*
X98171795Y-122847301D01*
X98000004Y-122827945D01*
X97999996Y-122827945D01*
X97828204Y-122847301D01*
X97665016Y-122904402D01*
X97518632Y-122996382D01*
X97396382Y-123118632D01*
X97304402Y-123265016D01*
X97247301Y-123428204D01*
X97227945Y-123599996D01*
X90963636Y-123599996D01*
X90953246Y-118799996D01*
X97027945Y-118799996D01*
X97027945Y-118800003D01*
X97047301Y-118971795D01*
X97104402Y-119134983D01*
X97196382Y-119281367D01*
X97196383Y-119281368D01*
X97318632Y-119403617D01*
X97465018Y-119495598D01*
X97628202Y-119552698D01*
X97685468Y-119559150D01*
X97799996Y-119572055D01*
X97800000Y-119572055D01*
X97800004Y-119572055D01*
X97898170Y-119560993D01*
X97971798Y-119552698D01*
X98134982Y-119495598D01*
X98281368Y-119403617D01*
X98403617Y-119281368D01*
X98495598Y-119134982D01*
X98552698Y-118971798D01*
X98572055Y-118800000D01*
X98552698Y-118628202D01*
X98495598Y-118465018D01*
X98403617Y-118318632D01*
X98281368Y-118196383D01*
X98281367Y-118196382D01*
X98134983Y-118104402D01*
X97971795Y-118047301D01*
X97800004Y-118027945D01*
X97799996Y-118027945D01*
X97628204Y-118047301D01*
X97465016Y-118104402D01*
X97318632Y-118196382D01*
X97196382Y-118318632D01*
X97104402Y-118465016D01*
X97047301Y-118628204D01*
X97027945Y-118799996D01*
X90953246Y-118799996D01*
X90950216Y-117399996D01*
X92827945Y-117399996D01*
X92827945Y-117400003D01*
X92847301Y-117571795D01*
X92904402Y-117734983D01*
X92996382Y-117881367D01*
X93118632Y-118003617D01*
X93157349Y-118027945D01*
X93265018Y-118095598D01*
X93428202Y-118152698D01*
X93485468Y-118159150D01*
X93599996Y-118172055D01*
X93600000Y-118172055D01*
X93600004Y-118172055D01*
X93698170Y-118160993D01*
X93771798Y-118152698D01*
X93934982Y-118095598D01*
X94081368Y-118003617D01*
X94203617Y-117881368D01*
X94295598Y-117734982D01*
X94352698Y-117571798D01*
X94372055Y-117400000D01*
X94352698Y-117228202D01*
X94295598Y-117065018D01*
X94203617Y-116918632D01*
X94081368Y-116796383D01*
X94081367Y-116796382D01*
X93934983Y-116704402D01*
X93771795Y-116647301D01*
X93600004Y-116627945D01*
X93599996Y-116627945D01*
X93428204Y-116647301D01*
X93265016Y-116704402D01*
X93118632Y-116796382D01*
X92996382Y-116918632D01*
X92904402Y-117065016D01*
X92847301Y-117228204D01*
X92827945Y-117399996D01*
X90950216Y-117399996D01*
X90943289Y-114199996D01*
X96827945Y-114199996D01*
X96827945Y-114200003D01*
X96847301Y-114371795D01*
X96904402Y-114534983D01*
X96996382Y-114681367D01*
X96996383Y-114681368D01*
X97118632Y-114803617D01*
X97265018Y-114895598D01*
X97428202Y-114952698D01*
X97485468Y-114959150D01*
X97599996Y-114972055D01*
X97600000Y-114972055D01*
X97600004Y-114972055D01*
X97698170Y-114960993D01*
X97771798Y-114952698D01*
X97934982Y-114895598D01*
X98081368Y-114803617D01*
X98203617Y-114681368D01*
X98295598Y-114534982D01*
X98352698Y-114371798D01*
X98372055Y-114200000D01*
X98352698Y-114028202D01*
X98295598Y-113865018D01*
X98203617Y-113718632D01*
X98081368Y-113596383D01*
X98081367Y-113596382D01*
X97934983Y-113504402D01*
X97771795Y-113447301D01*
X97600004Y-113427945D01*
X97599996Y-113427945D01*
X97428204Y-113447301D01*
X97265016Y-113504402D01*
X97118632Y-113596382D01*
X96996382Y-113718632D01*
X96904402Y-113865016D01*
X96847301Y-114028204D01*
X96827945Y-114199996D01*
X90943289Y-114199996D01*
X90939393Y-112399996D01*
X92627945Y-112399996D01*
X92627945Y-112400003D01*
X92647301Y-112571795D01*
X92704402Y-112734983D01*
X92796382Y-112881367D01*
X92796383Y-112881368D01*
X92918632Y-113003617D01*
X93065018Y-113095598D01*
X93228202Y-113152698D01*
X93285468Y-113159150D01*
X93399996Y-113172055D01*
X93400000Y-113172055D01*
X93400004Y-113172055D01*
X93498170Y-113160993D01*
X93571798Y-113152698D01*
X93734982Y-113095598D01*
X93881368Y-113003617D01*
X94003617Y-112881368D01*
X94095598Y-112734982D01*
X94152698Y-112571798D01*
X94172055Y-112400000D01*
X94152698Y-112228202D01*
X94095598Y-112065018D01*
X94003617Y-111918632D01*
X93881368Y-111796383D01*
X93881367Y-111796382D01*
X93734983Y-111704402D01*
X93571795Y-111647301D01*
X93400004Y-111627945D01*
X93399996Y-111627945D01*
X93228204Y-111647301D01*
X93065016Y-111704402D01*
X92918632Y-111796382D01*
X92796382Y-111918632D01*
X92704402Y-112065016D01*
X92647301Y-112228204D01*
X92627945Y-112399996D01*
X90939393Y-112399996D01*
X90930735Y-108399996D01*
X111427945Y-108399996D01*
X111427945Y-108400003D01*
X111447301Y-108571795D01*
X111504402Y-108734983D01*
X111596382Y-108881367D01*
X111596383Y-108881368D01*
X111718632Y-109003617D01*
X111865018Y-109095598D01*
X112028202Y-109152698D01*
X112085468Y-109159150D01*
X112199996Y-109172055D01*
X112200000Y-109172055D01*
X112200004Y-109172055D01*
X112298170Y-109160993D01*
X112371798Y-109152698D01*
X112534982Y-109095598D01*
X112681368Y-109003617D01*
X112803617Y-108881368D01*
X112895598Y-108734982D01*
X112952698Y-108571798D01*
X112972055Y-108400000D01*
X112972055Y-108399996D01*
X117227945Y-108399996D01*
X117227945Y-108400003D01*
X117247301Y-108571795D01*
X117304402Y-108734983D01*
X117396382Y-108881367D01*
X117396383Y-108881368D01*
X117518632Y-109003617D01*
X117665018Y-109095598D01*
X117828202Y-109152698D01*
X117885468Y-109159150D01*
X117999996Y-109172055D01*
X118000000Y-109172055D01*
X118000004Y-109172055D01*
X118098170Y-109160993D01*
X118171798Y-109152698D01*
X118334982Y-109095598D01*
X118481368Y-109003617D01*
X118603617Y-108881368D01*
X118695598Y-108734982D01*
X118752698Y-108571798D01*
X118772055Y-108400000D01*
X118752698Y-108228202D01*
X118695598Y-108065018D01*
X118603617Y-107918632D01*
X118481368Y-107796383D01*
X118481367Y-107796382D01*
X118334983Y-107704402D01*
X118171795Y-107647301D01*
X118000004Y-107627945D01*
X117999996Y-107627945D01*
X117828204Y-107647301D01*
X117665016Y-107704402D01*
X117518632Y-107796382D01*
X117396382Y-107918632D01*
X117304402Y-108065016D01*
X117247301Y-108228204D01*
X117227945Y-108399996D01*
X112972055Y-108399996D01*
X112952698Y-108228202D01*
X112895598Y-108065018D01*
X112803617Y-107918632D01*
X112681368Y-107796383D01*
X112681367Y-107796382D01*
X112534983Y-107704402D01*
X112371795Y-107647301D01*
X112200004Y-107627945D01*
X112199996Y-107627945D01*
X112028204Y-107647301D01*
X111865016Y-107704402D01*
X111718632Y-107796382D01*
X111596382Y-107918632D01*
X111504402Y-108065016D01*
X111447301Y-108228204D01*
X111427945Y-108399996D01*
X90930735Y-108399996D01*
X90872326Y-81414999D01*
X94844341Y-81414999D01*
X94844341Y-81415000D01*
X94864936Y-81650403D01*
X94864938Y-81650413D01*
X94926094Y-81878655D01*
X94926096Y-81878659D01*
X94926097Y-81878663D01*
X94991775Y-82019509D01*
X95025965Y-82092830D01*
X95025967Y-82092834D01*
X95161501Y-82286395D01*
X95161506Y-82286402D01*
X95328597Y-82453493D01*
X95328603Y-82453498D01*
X95514158Y-82583425D01*
X95557783Y-82638002D01*
X95564977Y-82707500D01*
X95533454Y-82769855D01*
X95514158Y-82786575D01*
X95328597Y-82916505D01*
X95161505Y-83083597D01*
X95025965Y-83277169D01*
X95025964Y-83277171D01*
X94926098Y-83491335D01*
X94926094Y-83491344D01*
X94864938Y-83719586D01*
X94864936Y-83719596D01*
X94844341Y-83954999D01*
X94844341Y-83955000D01*
X94864936Y-84190403D01*
X94864938Y-84190413D01*
X94926094Y-84418655D01*
X94926096Y-84418659D01*
X94926097Y-84418663D01*
X94991775Y-84559509D01*
X95025965Y-84632830D01*
X95025967Y-84632834D01*
X95105416Y-84746298D01*
X95161505Y-84826401D01*
X95328599Y-84993495D01*
X95382369Y-85031145D01*
X95522165Y-85129032D01*
X95522167Y-85129033D01*
X95522170Y-85129035D01*
X95736337Y-85228903D01*
X95964592Y-85290063D01*
X96152918Y-85306539D01*
X96199999Y-85310659D01*
X96200000Y-85310659D01*
X96200001Y-85310659D01*
X96239234Y-85307226D01*
X96435408Y-85290063D01*
X96663663Y-85228903D01*
X96877830Y-85129035D01*
X97071401Y-84993495D01*
X97238495Y-84826401D01*
X97374035Y-84632830D01*
X97473903Y-84418663D01*
X97535063Y-84190408D01*
X97555659Y-83955000D01*
X97535063Y-83719592D01*
X97473903Y-83491337D01*
X97374035Y-83277171D01*
X97288655Y-83155234D01*
X97238494Y-83083597D01*
X97071402Y-82916506D01*
X97071396Y-82916501D01*
X96885842Y-82786575D01*
X96842217Y-82731998D01*
X96835023Y-82662500D01*
X96866546Y-82600145D01*
X96885842Y-82583425D01*
X97017627Y-82491148D01*
X97071401Y-82453495D01*
X97238495Y-82286401D01*
X97374035Y-82092830D01*
X97473903Y-81878663D01*
X97535063Y-81650408D01*
X97555659Y-81415000D01*
X97535063Y-81179592D01*
X97499985Y-81048677D01*
X100479437Y-81048677D01*
X100479437Y-81048682D01*
X100498689Y-81268742D01*
X100498690Y-81268750D01*
X100555864Y-81482125D01*
X100555865Y-81482127D01*
X100555866Y-81482130D01*
X100634333Y-81650403D01*
X100649226Y-81682342D01*
X100649228Y-81682346D01*
X100775930Y-81863295D01*
X100775935Y-81863301D01*
X100932138Y-82019504D01*
X100932144Y-82019509D01*
X101113093Y-82146211D01*
X101113095Y-82146212D01*
X101113098Y-82146214D01*
X101232508Y-82201895D01*
X101241949Y-82206298D01*
X101294388Y-82252470D01*
X101313540Y-82319664D01*
X101293324Y-82386545D01*
X101241949Y-82431062D01*
X101113100Y-82491145D01*
X101113098Y-82491146D01*
X100932137Y-82617855D01*
X100775935Y-82774057D01*
X100649226Y-82955018D01*
X100649225Y-82955020D01*
X100555867Y-83155228D01*
X100555864Y-83155234D01*
X100498690Y-83368609D01*
X100498689Y-83368617D01*
X100479437Y-83588677D01*
X100479437Y-83588682D01*
X100498689Y-83808742D01*
X100498690Y-83808750D01*
X100555864Y-84022125D01*
X100555865Y-84022127D01*
X100555866Y-84022130D01*
X100634333Y-84190403D01*
X100649226Y-84222342D01*
X100649228Y-84222346D01*
X100775930Y-84403295D01*
X100775935Y-84403301D01*
X100932138Y-84559504D01*
X100932144Y-84559509D01*
X101113093Y-84686211D01*
X101113095Y-84686212D01*
X101113098Y-84686214D01*
X101232508Y-84741895D01*
X101241949Y-84746298D01*
X101294388Y-84792470D01*
X101313540Y-84859664D01*
X101293324Y-84926545D01*
X101241949Y-84971062D01*
X101113100Y-85031145D01*
X101113098Y-85031146D01*
X100932137Y-85157855D01*
X100775935Y-85314057D01*
X100649226Y-85495018D01*
X100649225Y-85495020D01*
X100555867Y-85695228D01*
X100555864Y-85695234D01*
X100498690Y-85908609D01*
X100498689Y-85908617D01*
X100479437Y-86128677D01*
X100479437Y-86128682D01*
X100498689Y-86348742D01*
X100498690Y-86348750D01*
X100555864Y-86562125D01*
X100555865Y-86562127D01*
X100555866Y-86562130D01*
X100649226Y-86762342D01*
X100649228Y-86762346D01*
X100775930Y-86943295D01*
X100775935Y-86943301D01*
X100932138Y-87099504D01*
X100932144Y-87099509D01*
X101113093Y-87226211D01*
X101113095Y-87226212D01*
X101113098Y-87226214D01*
X101232508Y-87281895D01*
X101241949Y-87286298D01*
X101294388Y-87332470D01*
X101313540Y-87399664D01*
X101293324Y-87466545D01*
X101241949Y-87511062D01*
X101113100Y-87571145D01*
X101113098Y-87571146D01*
X100932137Y-87697855D01*
X100775935Y-87854057D01*
X100649226Y-88035018D01*
X100649225Y-88035020D01*
X100555867Y-88235228D01*
X100555864Y-88235234D01*
X100498690Y-88448609D01*
X100498689Y-88448617D01*
X100479437Y-88668677D01*
X100479437Y-88668682D01*
X100498689Y-88888742D01*
X100498690Y-88888750D01*
X100555864Y-89102125D01*
X100555865Y-89102127D01*
X100555866Y-89102130D01*
X100649226Y-89302342D01*
X100649228Y-89302346D01*
X100775930Y-89483295D01*
X100775935Y-89483301D01*
X100932138Y-89639504D01*
X100932144Y-89639509D01*
X101113093Y-89766211D01*
X101113095Y-89766212D01*
X101113098Y-89766214D01*
X101232508Y-89821895D01*
X101241949Y-89826298D01*
X101294388Y-89872470D01*
X101313540Y-89939664D01*
X101293324Y-90006545D01*
X101241949Y-90051062D01*
X101113100Y-90111145D01*
X101113098Y-90111146D01*
X100932137Y-90237855D01*
X100775935Y-90394057D01*
X100649226Y-90575018D01*
X100649225Y-90575020D01*
X100555867Y-90775228D01*
X100555864Y-90775234D01*
X100498690Y-90988609D01*
X100498689Y-90988617D01*
X100479437Y-91208677D01*
X100479437Y-91208682D01*
X100498689Y-91428742D01*
X100498690Y-91428750D01*
X100555864Y-91642125D01*
X100555865Y-91642127D01*
X100555866Y-91642130D01*
X100649226Y-91842342D01*
X100649228Y-91842346D01*
X100775930Y-92023295D01*
X100775935Y-92023301D01*
X100932138Y-92179504D01*
X100932144Y-92179509D01*
X101113093Y-92306211D01*
X101113095Y-92306212D01*
X101113098Y-92306214D01*
X101232508Y-92361895D01*
X101241949Y-92366298D01*
X101294388Y-92412470D01*
X101313540Y-92479664D01*
X101293324Y-92546545D01*
X101241949Y-92591062D01*
X101113100Y-92651145D01*
X101113098Y-92651146D01*
X100932137Y-92777855D01*
X100775935Y-92934057D01*
X100649226Y-93115018D01*
X100649225Y-93115020D01*
X100555867Y-93315228D01*
X100555864Y-93315234D01*
X100498690Y-93528609D01*
X100498689Y-93528617D01*
X100479437Y-93748677D01*
X100479437Y-93748682D01*
X100498689Y-93968742D01*
X100498690Y-93968750D01*
X100555864Y-94182125D01*
X100555865Y-94182127D01*
X100555866Y-94182130D01*
X100649226Y-94382342D01*
X100649228Y-94382346D01*
X100775930Y-94563295D01*
X100775935Y-94563301D01*
X100932138Y-94719504D01*
X100932144Y-94719509D01*
X101113093Y-94846211D01*
X101113095Y-94846212D01*
X101113098Y-94846214D01*
X101232508Y-94901895D01*
X101241949Y-94906298D01*
X101294388Y-94952470D01*
X101313540Y-95019664D01*
X101293324Y-95086545D01*
X101241949Y-95131062D01*
X101113100Y-95191145D01*
X101113098Y-95191146D01*
X100932137Y-95317855D01*
X100775935Y-95474057D01*
X100649226Y-95655018D01*
X100649225Y-95655020D01*
X100555867Y-95855228D01*
X100555864Y-95855234D01*
X100498690Y-96068609D01*
X100498689Y-96068617D01*
X100479437Y-96288677D01*
X100479437Y-96288682D01*
X100498689Y-96508742D01*
X100498690Y-96508750D01*
X100555864Y-96722125D01*
X100555865Y-96722127D01*
X100555866Y-96722130D01*
X100649226Y-96922342D01*
X100649228Y-96922346D01*
X100775930Y-97103295D01*
X100775935Y-97103301D01*
X100932138Y-97259504D01*
X100932144Y-97259509D01*
X101113093Y-97386211D01*
X101113095Y-97386212D01*
X101113098Y-97386214D01*
X101232508Y-97441895D01*
X101241949Y-97446298D01*
X101294388Y-97492470D01*
X101313540Y-97559664D01*
X101293324Y-97626545D01*
X101241949Y-97671062D01*
X101113100Y-97731145D01*
X101113098Y-97731146D01*
X100932137Y-97857855D01*
X100775935Y-98014057D01*
X100649226Y-98195018D01*
X100649225Y-98195020D01*
X100555867Y-98395228D01*
X100555864Y-98395234D01*
X100498690Y-98608609D01*
X100498689Y-98608617D01*
X100479437Y-98828677D01*
X100479437Y-98828682D01*
X100498689Y-99048742D01*
X100498690Y-99048750D01*
X100555864Y-99262125D01*
X100555865Y-99262127D01*
X100555866Y-99262130D01*
X100649226Y-99462342D01*
X100649228Y-99462346D01*
X100775930Y-99643295D01*
X100775935Y-99643301D01*
X100932138Y-99799504D01*
X100932144Y-99799509D01*
X101113093Y-99926211D01*
X101113095Y-99926212D01*
X101113098Y-99926214D01*
X101232508Y-99981895D01*
X101241949Y-99986298D01*
X101294388Y-100032470D01*
X101313540Y-100099664D01*
X101293324Y-100166545D01*
X101241949Y-100211062D01*
X101113100Y-100271145D01*
X101113098Y-100271146D01*
X100932137Y-100397855D01*
X100775935Y-100554057D01*
X100649226Y-100735018D01*
X100649225Y-100735020D01*
X100555867Y-100935228D01*
X100555864Y-100935234D01*
X100498690Y-101148609D01*
X100498689Y-101148617D01*
X100479437Y-101368677D01*
X100479437Y-101368682D01*
X100498689Y-101588742D01*
X100498690Y-101588750D01*
X100555864Y-101802125D01*
X100555865Y-101802127D01*
X100555866Y-101802130D01*
X100649226Y-102002342D01*
X100649228Y-102002346D01*
X100775930Y-102183295D01*
X100775935Y-102183301D01*
X100932138Y-102339504D01*
X100932144Y-102339509D01*
X101113093Y-102466211D01*
X101113095Y-102466212D01*
X101113098Y-102466214D01*
X101232508Y-102521895D01*
X101241949Y-102526298D01*
X101294388Y-102572470D01*
X101313540Y-102639664D01*
X101293324Y-102706545D01*
X101241949Y-102751062D01*
X101113100Y-102811145D01*
X101113098Y-102811146D01*
X100932137Y-102937855D01*
X100775935Y-103094057D01*
X100649226Y-103275018D01*
X100649225Y-103275020D01*
X100555867Y-103475228D01*
X100555864Y-103475234D01*
X100498690Y-103688609D01*
X100498689Y-103688617D01*
X100479437Y-103908677D01*
X100479437Y-103908682D01*
X100498689Y-104128742D01*
X100498690Y-104128750D01*
X100555864Y-104342125D01*
X100555865Y-104342127D01*
X100555866Y-104342130D01*
X100649226Y-104542342D01*
X100649228Y-104542346D01*
X100775930Y-104723295D01*
X100775935Y-104723301D01*
X100932138Y-104879504D01*
X100932144Y-104879509D01*
X101113093Y-105006211D01*
X101113095Y-105006212D01*
X101113098Y-105006214D01*
X101232508Y-105061895D01*
X101241949Y-105066298D01*
X101294388Y-105112470D01*
X101313540Y-105179664D01*
X101293324Y-105246545D01*
X101241949Y-105291062D01*
X101113100Y-105351145D01*
X101113098Y-105351146D01*
X100932137Y-105477855D01*
X100775935Y-105634057D01*
X100649226Y-105815018D01*
X100649225Y-105815020D01*
X100555867Y-106015228D01*
X100555864Y-106015234D01*
X100498690Y-106228609D01*
X100498689Y-106228617D01*
X100479437Y-106448677D01*
X100479437Y-106448682D01*
X100498689Y-106668742D01*
X100498690Y-106668750D01*
X100555864Y-106882125D01*
X100555865Y-106882127D01*
X100555866Y-106882130D01*
X100649226Y-107082342D01*
X100649228Y-107082346D01*
X100775930Y-107263295D01*
X100775935Y-107263301D01*
X100932138Y-107419504D01*
X100932144Y-107419509D01*
X101113093Y-107546211D01*
X101113095Y-107546212D01*
X101113098Y-107546214D01*
X101313310Y-107639574D01*
X101526692Y-107696750D01*
X101683883Y-107710502D01*
X101746758Y-107716003D01*
X101746760Y-107716003D01*
X101746762Y-107716003D01*
X101801777Y-107711189D01*
X101966828Y-107696750D01*
X102180210Y-107639574D01*
X102380422Y-107546214D01*
X102561380Y-107419506D01*
X102717586Y-107263300D01*
X102844294Y-107082342D01*
X102937654Y-106882130D01*
X102994830Y-106668748D01*
X103014083Y-106448680D01*
X102994830Y-106228612D01*
X102937654Y-106015230D01*
X102844294Y-105815019D01*
X102717586Y-105634060D01*
X102561380Y-105477854D01*
X102561376Y-105477851D01*
X102561375Y-105477850D01*
X102380426Y-105351148D01*
X102380418Y-105351144D01*
X102251571Y-105291062D01*
X102199131Y-105244890D01*
X102179979Y-105177697D01*
X102200195Y-105110815D01*
X102251571Y-105066298D01*
X102257562Y-105063504D01*
X102380422Y-105006214D01*
X102561380Y-104879506D01*
X102717586Y-104723300D01*
X102844294Y-104542342D01*
X102937654Y-104342130D01*
X102994830Y-104128748D01*
X103014083Y-103908680D01*
X102994830Y-103688612D01*
X102937654Y-103475230D01*
X102844294Y-103275019D01*
X102717586Y-103094060D01*
X102561380Y-102937854D01*
X102561376Y-102937851D01*
X102561375Y-102937850D01*
X102380426Y-102811148D01*
X102380418Y-102811144D01*
X102251571Y-102751062D01*
X102199131Y-102704890D01*
X102179979Y-102637697D01*
X102200195Y-102570815D01*
X102251571Y-102526298D01*
X102257562Y-102523504D01*
X102380422Y-102466214D01*
X102561380Y-102339506D01*
X102717586Y-102183300D01*
X102844294Y-102002342D01*
X102937654Y-101802130D01*
X102994830Y-101588748D01*
X103014083Y-101368680D01*
X102994830Y-101148612D01*
X102937654Y-100935230D01*
X102844294Y-100735019D01*
X102717586Y-100554060D01*
X102561380Y-100397854D01*
X102561376Y-100397851D01*
X102561375Y-100397850D01*
X102380426Y-100271148D01*
X102380418Y-100271144D01*
X102251571Y-100211062D01*
X102199131Y-100164890D01*
X102179979Y-100097697D01*
X102200195Y-100030815D01*
X102251571Y-99986298D01*
X102257562Y-99983504D01*
X102380422Y-99926214D01*
X102561380Y-99799506D01*
X102717586Y-99643300D01*
X102844294Y-99462342D01*
X102937654Y-99262130D01*
X102994830Y-99048748D01*
X103014083Y-98828680D01*
X102994830Y-98608612D01*
X102937654Y-98395230D01*
X102844294Y-98195019D01*
X102717586Y-98014060D01*
X102561380Y-97857854D01*
X102561376Y-97857851D01*
X102561375Y-97857850D01*
X102380426Y-97731148D01*
X102380418Y-97731144D01*
X102251571Y-97671062D01*
X102199131Y-97624890D01*
X102179979Y-97557697D01*
X102200195Y-97490815D01*
X102251571Y-97446298D01*
X102257562Y-97443504D01*
X102380422Y-97386214D01*
X102561380Y-97259506D01*
X102717586Y-97103300D01*
X102844294Y-96922342D01*
X102937654Y-96722130D01*
X102994830Y-96508748D01*
X103014083Y-96288680D01*
X102994830Y-96068612D01*
X102937654Y-95855230D01*
X102844294Y-95655019D01*
X102717586Y-95474060D01*
X102561380Y-95317854D01*
X102561376Y-95317851D01*
X102561375Y-95317850D01*
X102380426Y-95191148D01*
X102380418Y-95191144D01*
X102251571Y-95131062D01*
X102199131Y-95084890D01*
X102179979Y-95017697D01*
X102200195Y-94950815D01*
X102251571Y-94906298D01*
X102257562Y-94903504D01*
X102380422Y-94846214D01*
X102561380Y-94719506D01*
X102717586Y-94563300D01*
X102844294Y-94382342D01*
X102937654Y-94182130D01*
X102994830Y-93968748D01*
X103014083Y-93748680D01*
X102994830Y-93528612D01*
X102937654Y-93315230D01*
X102844294Y-93115019D01*
X102717586Y-92934060D01*
X102561380Y-92777854D01*
X102561376Y-92777851D01*
X102561375Y-92777850D01*
X102380426Y-92651148D01*
X102380418Y-92651144D01*
X102251571Y-92591062D01*
X102199131Y-92544890D01*
X102179979Y-92477697D01*
X102200195Y-92410815D01*
X102251571Y-92366298D01*
X102257562Y-92363504D01*
X102380422Y-92306214D01*
X102561380Y-92179506D01*
X102717586Y-92023300D01*
X102844294Y-91842342D01*
X102937654Y-91642130D01*
X102994830Y-91428748D01*
X103014083Y-91208680D01*
X102994830Y-90988612D01*
X102937654Y-90775230D01*
X102844294Y-90575019D01*
X102717586Y-90394060D01*
X102561380Y-90237854D01*
X102561376Y-90237851D01*
X102561375Y-90237850D01*
X102380426Y-90111148D01*
X102380418Y-90111144D01*
X102251571Y-90051062D01*
X102199131Y-90004890D01*
X102179979Y-89937697D01*
X102200195Y-89870815D01*
X102251571Y-89826298D01*
X102257562Y-89823504D01*
X102380422Y-89766214D01*
X102561380Y-89639506D01*
X102717586Y-89483300D01*
X102844294Y-89302342D01*
X102937654Y-89102130D01*
X102994830Y-88888748D01*
X103014083Y-88668680D01*
X102994830Y-88448612D01*
X102937654Y-88235230D01*
X102844294Y-88035019D01*
X102717586Y-87854060D01*
X102561380Y-87697854D01*
X102561376Y-87697851D01*
X102561375Y-87697850D01*
X102380426Y-87571148D01*
X102380418Y-87571144D01*
X102251571Y-87511062D01*
X102199131Y-87464890D01*
X102179979Y-87397697D01*
X102200195Y-87330815D01*
X102251571Y-87286298D01*
X102257562Y-87283504D01*
X102380422Y-87226214D01*
X102561380Y-87099506D01*
X102717586Y-86943300D01*
X102844294Y-86762342D01*
X102937654Y-86562130D01*
X102994830Y-86348748D01*
X103014083Y-86128680D01*
X102994830Y-85908612D01*
X102937654Y-85695230D01*
X102844294Y-85495019D01*
X102717586Y-85314060D01*
X102561380Y-85157854D01*
X102561376Y-85157851D01*
X102561375Y-85157850D01*
X102380426Y-85031148D01*
X102380418Y-85031144D01*
X102251571Y-84971062D01*
X102199131Y-84924890D01*
X102179979Y-84857697D01*
X102200195Y-84790815D01*
X102251571Y-84746298D01*
X102257562Y-84743504D01*
X102380422Y-84686214D01*
X102561380Y-84559506D01*
X102717586Y-84403300D01*
X102844294Y-84222342D01*
X102937654Y-84022130D01*
X102994830Y-83808748D01*
X103014083Y-83588680D01*
X102994830Y-83368612D01*
X102937654Y-83155230D01*
X102844294Y-82955019D01*
X102717586Y-82774060D01*
X102561380Y-82617854D01*
X102561376Y-82617851D01*
X102561375Y-82617850D01*
X102380426Y-82491148D01*
X102380418Y-82491144D01*
X102251571Y-82431062D01*
X102199131Y-82384890D01*
X102179979Y-82317697D01*
X102200195Y-82250815D01*
X102251571Y-82206298D01*
X102257562Y-82203504D01*
X102380422Y-82146214D01*
X102561380Y-82019506D01*
X102717586Y-81863300D01*
X102844294Y-81682342D01*
X102937654Y-81482130D01*
X102994830Y-81268748D01*
X103014083Y-81048680D01*
X103014083Y-81048677D01*
X128419437Y-81048677D01*
X128419437Y-81048682D01*
X128438689Y-81268742D01*
X128438690Y-81268750D01*
X128495864Y-81482125D01*
X128495865Y-81482127D01*
X128495866Y-81482130D01*
X128574333Y-81650403D01*
X128589226Y-81682342D01*
X128589228Y-81682346D01*
X128715930Y-81863295D01*
X128715935Y-81863301D01*
X128872138Y-82019504D01*
X128872144Y-82019509D01*
X129053093Y-82146211D01*
X129053095Y-82146212D01*
X129053098Y-82146214D01*
X129172508Y-82201895D01*
X129181949Y-82206298D01*
X129234388Y-82252470D01*
X129253540Y-82319664D01*
X129233324Y-82386545D01*
X129181949Y-82431062D01*
X129053100Y-82491145D01*
X129053098Y-82491146D01*
X128872137Y-82617855D01*
X128715935Y-82774057D01*
X128589226Y-82955018D01*
X128589225Y-82955020D01*
X128495867Y-83155228D01*
X128495864Y-83155234D01*
X128438690Y-83368609D01*
X128438689Y-83368617D01*
X128419437Y-83588677D01*
X128419437Y-83588682D01*
X128438689Y-83808742D01*
X128438690Y-83808750D01*
X128495864Y-84022125D01*
X128495865Y-84022127D01*
X128495866Y-84022130D01*
X128574333Y-84190403D01*
X128589226Y-84222342D01*
X128589228Y-84222346D01*
X128715930Y-84403295D01*
X128715935Y-84403301D01*
X128872138Y-84559504D01*
X128872144Y-84559509D01*
X129053093Y-84686211D01*
X129053095Y-84686212D01*
X129053098Y-84686214D01*
X129172508Y-84741895D01*
X129181949Y-84746298D01*
X129234388Y-84792470D01*
X129253540Y-84859664D01*
X129233324Y-84926545D01*
X129181949Y-84971062D01*
X129053100Y-85031145D01*
X129053098Y-85031146D01*
X128872137Y-85157855D01*
X128715935Y-85314057D01*
X128589226Y-85495018D01*
X128589225Y-85495020D01*
X128495867Y-85695228D01*
X128495864Y-85695234D01*
X128438690Y-85908609D01*
X128438689Y-85908617D01*
X128419437Y-86128677D01*
X128419437Y-86128682D01*
X128438689Y-86348742D01*
X128438690Y-86348750D01*
X128495864Y-86562125D01*
X128495865Y-86562127D01*
X128495866Y-86562130D01*
X128589226Y-86762342D01*
X128589228Y-86762346D01*
X128715930Y-86943295D01*
X128715935Y-86943301D01*
X128872138Y-87099504D01*
X128872144Y-87099509D01*
X129053093Y-87226211D01*
X129053095Y-87226212D01*
X129053098Y-87226214D01*
X129172508Y-87281895D01*
X129181949Y-87286298D01*
X129234388Y-87332470D01*
X129253540Y-87399664D01*
X129233324Y-87466545D01*
X129181949Y-87511062D01*
X129053100Y-87571145D01*
X129053098Y-87571146D01*
X128872137Y-87697855D01*
X128715935Y-87854057D01*
X128589226Y-88035018D01*
X128589225Y-88035020D01*
X128495867Y-88235228D01*
X128495864Y-88235234D01*
X128438690Y-88448609D01*
X128438689Y-88448617D01*
X128419437Y-88668677D01*
X128419437Y-88668682D01*
X128438689Y-88888742D01*
X128438690Y-88888750D01*
X128495864Y-89102125D01*
X128495865Y-89102127D01*
X128495866Y-89102130D01*
X128589226Y-89302342D01*
X128589228Y-89302346D01*
X128715930Y-89483295D01*
X128715935Y-89483301D01*
X128872138Y-89639504D01*
X128872144Y-89639509D01*
X129053093Y-89766211D01*
X129053095Y-89766212D01*
X129053098Y-89766214D01*
X129172508Y-89821895D01*
X129181949Y-89826298D01*
X129234388Y-89872470D01*
X129253540Y-89939664D01*
X129233324Y-90006545D01*
X129181949Y-90051062D01*
X129053100Y-90111145D01*
X129053098Y-90111146D01*
X128872137Y-90237855D01*
X128715935Y-90394057D01*
X128589226Y-90575018D01*
X128589225Y-90575020D01*
X128495867Y-90775228D01*
X128495864Y-90775234D01*
X128438690Y-90988609D01*
X128438689Y-90988617D01*
X128419437Y-91208677D01*
X128419437Y-91208682D01*
X128438689Y-91428742D01*
X128438690Y-91428750D01*
X128495864Y-91642125D01*
X128495865Y-91642127D01*
X128495866Y-91642130D01*
X128589226Y-91842342D01*
X128589228Y-91842346D01*
X128715930Y-92023295D01*
X128715935Y-92023301D01*
X128872138Y-92179504D01*
X128872144Y-92179509D01*
X129053093Y-92306211D01*
X129053095Y-92306212D01*
X129053098Y-92306214D01*
X129172508Y-92361895D01*
X129181949Y-92366298D01*
X129234388Y-92412470D01*
X129253540Y-92479664D01*
X129233324Y-92546545D01*
X129181949Y-92591062D01*
X129053100Y-92651145D01*
X129053098Y-92651146D01*
X128872137Y-92777855D01*
X128715935Y-92934057D01*
X128589226Y-93115018D01*
X128589225Y-93115020D01*
X128495867Y-93315228D01*
X128495864Y-93315234D01*
X128438690Y-93528609D01*
X128438689Y-93528617D01*
X128419437Y-93748677D01*
X128419437Y-93748682D01*
X128438689Y-93968742D01*
X128438690Y-93968750D01*
X128495864Y-94182125D01*
X128495865Y-94182127D01*
X128495866Y-94182130D01*
X128589226Y-94382342D01*
X128589228Y-94382346D01*
X128715930Y-94563295D01*
X128715935Y-94563301D01*
X128872138Y-94719504D01*
X128872144Y-94719509D01*
X129053093Y-94846211D01*
X129053095Y-94846212D01*
X129053098Y-94846214D01*
X129172508Y-94901895D01*
X129181949Y-94906298D01*
X129234388Y-94952470D01*
X129253540Y-95019664D01*
X129233324Y-95086545D01*
X129181949Y-95131062D01*
X129053100Y-95191145D01*
X129053098Y-95191146D01*
X128872137Y-95317855D01*
X128715935Y-95474057D01*
X128589226Y-95655018D01*
X128589225Y-95655020D01*
X128495867Y-95855228D01*
X128495864Y-95855234D01*
X128438690Y-96068609D01*
X128438689Y-96068617D01*
X128419437Y-96288677D01*
X128419437Y-96288682D01*
X128438689Y-96508742D01*
X128438690Y-96508750D01*
X128495864Y-96722125D01*
X128495865Y-96722127D01*
X128495866Y-96722130D01*
X128589226Y-96922342D01*
X128589228Y-96922346D01*
X128715930Y-97103295D01*
X128715935Y-97103301D01*
X128872138Y-97259504D01*
X128872144Y-97259509D01*
X129053093Y-97386211D01*
X129053095Y-97386212D01*
X129053098Y-97386214D01*
X129172508Y-97441895D01*
X129181949Y-97446298D01*
X129234388Y-97492470D01*
X129253540Y-97559664D01*
X129233324Y-97626545D01*
X129181949Y-97671062D01*
X129053100Y-97731145D01*
X129053098Y-97731146D01*
X128872137Y-97857855D01*
X128715935Y-98014057D01*
X128589226Y-98195018D01*
X128589225Y-98195020D01*
X128495867Y-98395228D01*
X128495864Y-98395234D01*
X128438690Y-98608609D01*
X128438689Y-98608617D01*
X128419437Y-98828677D01*
X128419437Y-98828682D01*
X128438689Y-99048742D01*
X128438690Y-99048750D01*
X128495864Y-99262125D01*
X128495865Y-99262127D01*
X128495866Y-99262130D01*
X128589226Y-99462342D01*
X128589228Y-99462346D01*
X128715930Y-99643295D01*
X128715935Y-99643301D01*
X128872138Y-99799504D01*
X128872144Y-99799509D01*
X129053093Y-99926211D01*
X129053095Y-99926212D01*
X129053098Y-99926214D01*
X129172508Y-99981895D01*
X129181949Y-99986298D01*
X129234388Y-100032470D01*
X129253540Y-100099664D01*
X129233324Y-100166545D01*
X129181949Y-100211062D01*
X129053100Y-100271145D01*
X129053098Y-100271146D01*
X128872137Y-100397855D01*
X128715935Y-100554057D01*
X128589226Y-100735018D01*
X128589225Y-100735020D01*
X128495867Y-100935228D01*
X128495864Y-100935234D01*
X128438690Y-101148609D01*
X128438689Y-101148617D01*
X128419437Y-101368677D01*
X128419437Y-101368682D01*
X128438689Y-101588742D01*
X128438690Y-101588750D01*
X128495864Y-101802125D01*
X128495865Y-101802127D01*
X128495866Y-101802130D01*
X128589226Y-102002342D01*
X128589228Y-102002346D01*
X128715930Y-102183295D01*
X128715935Y-102183301D01*
X128872138Y-102339504D01*
X128872144Y-102339509D01*
X129053093Y-102466211D01*
X129053095Y-102466212D01*
X129053098Y-102466214D01*
X129172508Y-102521895D01*
X129181949Y-102526298D01*
X129234388Y-102572470D01*
X129253540Y-102639664D01*
X129233324Y-102706545D01*
X129181949Y-102751062D01*
X129053100Y-102811145D01*
X129053098Y-102811146D01*
X128872137Y-102937855D01*
X128715935Y-103094057D01*
X128589226Y-103275018D01*
X128589225Y-103275020D01*
X128495867Y-103475228D01*
X128495864Y-103475234D01*
X128438690Y-103688609D01*
X128438689Y-103688617D01*
X128419437Y-103908677D01*
X128419437Y-103908682D01*
X128438689Y-104128742D01*
X128438690Y-104128750D01*
X128495864Y-104342125D01*
X128495865Y-104342127D01*
X128495866Y-104342130D01*
X128589226Y-104542342D01*
X128589228Y-104542346D01*
X128715930Y-104723295D01*
X128715935Y-104723301D01*
X128872138Y-104879504D01*
X128872144Y-104879509D01*
X129053093Y-105006211D01*
X129053095Y-105006212D01*
X129053098Y-105006214D01*
X129172508Y-105061895D01*
X129181949Y-105066298D01*
X129234388Y-105112470D01*
X129253540Y-105179664D01*
X129233324Y-105246545D01*
X129181949Y-105291062D01*
X129053100Y-105351145D01*
X129053098Y-105351146D01*
X128872137Y-105477855D01*
X128715935Y-105634057D01*
X128589226Y-105815018D01*
X128589225Y-105815020D01*
X128495867Y-106015228D01*
X128495864Y-106015234D01*
X128438690Y-106228609D01*
X128438689Y-106228617D01*
X128419437Y-106448677D01*
X128419437Y-106448682D01*
X128438689Y-106668742D01*
X128438690Y-106668750D01*
X128495864Y-106882125D01*
X128495865Y-106882127D01*
X128495866Y-106882130D01*
X128589226Y-107082342D01*
X128589228Y-107082346D01*
X128715930Y-107263295D01*
X128715935Y-107263301D01*
X128872138Y-107419504D01*
X128872144Y-107419509D01*
X129053093Y-107546211D01*
X129053095Y-107546212D01*
X129053098Y-107546214D01*
X129253310Y-107639574D01*
X129466692Y-107696750D01*
X129623883Y-107710502D01*
X129686758Y-107716003D01*
X129686760Y-107716003D01*
X129686762Y-107716003D01*
X129741777Y-107711189D01*
X129906828Y-107696750D01*
X130120210Y-107639574D01*
X130320422Y-107546214D01*
X130501380Y-107419506D01*
X130657586Y-107263300D01*
X130784294Y-107082342D01*
X130877654Y-106882130D01*
X130934830Y-106668748D01*
X130954083Y-106448680D01*
X130934830Y-106228612D01*
X130877654Y-106015230D01*
X130784294Y-105815019D01*
X130657586Y-105634060D01*
X130501380Y-105477854D01*
X130501376Y-105477851D01*
X130501375Y-105477850D01*
X130320426Y-105351148D01*
X130320418Y-105351144D01*
X130191571Y-105291062D01*
X130139131Y-105244890D01*
X130119979Y-105177697D01*
X130140195Y-105110815D01*
X130191571Y-105066298D01*
X130197562Y-105063504D01*
X130320422Y-105006214D01*
X130501380Y-104879506D01*
X130657586Y-104723300D01*
X130784294Y-104542342D01*
X130877654Y-104342130D01*
X130934830Y-104128748D01*
X130954083Y-103908680D01*
X130934830Y-103688612D01*
X130877654Y-103475230D01*
X130784294Y-103275019D01*
X130657586Y-103094060D01*
X130501380Y-102937854D01*
X130501376Y-102937851D01*
X130501375Y-102937850D01*
X130320426Y-102811148D01*
X130320418Y-102811144D01*
X130191571Y-102751062D01*
X130139131Y-102704890D01*
X130119979Y-102637697D01*
X130140195Y-102570815D01*
X130191571Y-102526298D01*
X130197562Y-102523504D01*
X130320422Y-102466214D01*
X130501380Y-102339506D01*
X130657586Y-102183300D01*
X130784294Y-102002342D01*
X130877654Y-101802130D01*
X130934830Y-101588748D01*
X130954083Y-101368680D01*
X130934830Y-101148612D01*
X130877654Y-100935230D01*
X130784294Y-100735019D01*
X130657586Y-100554060D01*
X130501380Y-100397854D01*
X130501376Y-100397851D01*
X130501375Y-100397850D01*
X130320426Y-100271148D01*
X130320418Y-100271144D01*
X130191571Y-100211062D01*
X130139131Y-100164890D01*
X130119979Y-100097697D01*
X130140195Y-100030815D01*
X130191571Y-99986298D01*
X130197562Y-99983504D01*
X130320422Y-99926214D01*
X130501380Y-99799506D01*
X130657586Y-99643300D01*
X130784294Y-99462342D01*
X130877654Y-99262130D01*
X130934830Y-99048748D01*
X130954083Y-98828680D01*
X130934830Y-98608612D01*
X130877654Y-98395230D01*
X130784294Y-98195019D01*
X130657586Y-98014060D01*
X130501380Y-97857854D01*
X130501376Y-97857851D01*
X130501375Y-97857850D01*
X130320426Y-97731148D01*
X130320418Y-97731144D01*
X130191571Y-97671062D01*
X130139131Y-97624890D01*
X130119979Y-97557697D01*
X130140195Y-97490815D01*
X130191571Y-97446298D01*
X130197562Y-97443504D01*
X130320422Y-97386214D01*
X130501380Y-97259506D01*
X130657586Y-97103300D01*
X130784294Y-96922342D01*
X130877654Y-96722130D01*
X130934830Y-96508748D01*
X130954083Y-96288680D01*
X130934830Y-96068612D01*
X130877654Y-95855230D01*
X130784294Y-95655019D01*
X130657586Y-95474060D01*
X130501380Y-95317854D01*
X130501376Y-95317851D01*
X130501375Y-95317850D01*
X130320426Y-95191148D01*
X130320418Y-95191144D01*
X130191571Y-95131062D01*
X130139131Y-95084890D01*
X130119979Y-95017697D01*
X130140195Y-94950815D01*
X130191571Y-94906298D01*
X130197562Y-94903504D01*
X130320422Y-94846214D01*
X130501380Y-94719506D01*
X130657586Y-94563300D01*
X130784294Y-94382342D01*
X130877654Y-94182130D01*
X130934830Y-93968748D01*
X130954083Y-93748680D01*
X130934830Y-93528612D01*
X130877654Y-93315230D01*
X130784294Y-93115019D01*
X130657586Y-92934060D01*
X130501380Y-92777854D01*
X130501376Y-92777851D01*
X130501375Y-92777850D01*
X130320426Y-92651148D01*
X130320418Y-92651144D01*
X130191571Y-92591062D01*
X130139131Y-92544890D01*
X130119979Y-92477697D01*
X130140195Y-92410815D01*
X130191571Y-92366298D01*
X130197562Y-92363504D01*
X130320422Y-92306214D01*
X130501380Y-92179506D01*
X130657586Y-92023300D01*
X130784294Y-91842342D01*
X130877654Y-91642130D01*
X130934830Y-91428748D01*
X130954083Y-91208680D01*
X130934830Y-90988612D01*
X130877654Y-90775230D01*
X130784294Y-90575019D01*
X130657586Y-90394060D01*
X130501380Y-90237854D01*
X130501376Y-90237851D01*
X130501375Y-90237850D01*
X130320426Y-90111148D01*
X130320418Y-90111144D01*
X130191571Y-90051062D01*
X130139131Y-90004890D01*
X130119979Y-89937697D01*
X130140195Y-89870815D01*
X130191571Y-89826298D01*
X130197562Y-89823504D01*
X130320422Y-89766214D01*
X130501380Y-89639506D01*
X130657586Y-89483300D01*
X130784294Y-89302342D01*
X130877654Y-89102130D01*
X130934830Y-88888748D01*
X130954083Y-88668680D01*
X130934830Y-88448612D01*
X130877654Y-88235230D01*
X130784294Y-88035019D01*
X130657586Y-87854060D01*
X130501380Y-87697854D01*
X130501376Y-87697851D01*
X130501375Y-87697850D01*
X130320426Y-87571148D01*
X130320418Y-87571144D01*
X130191571Y-87511062D01*
X130139131Y-87464890D01*
X130119979Y-87397697D01*
X130140195Y-87330815D01*
X130191571Y-87286298D01*
X130197562Y-87283504D01*
X130320422Y-87226214D01*
X130501380Y-87099506D01*
X130657586Y-86943300D01*
X130784294Y-86762342D01*
X130877654Y-86562130D01*
X130934830Y-86348748D01*
X130954083Y-86128680D01*
X130934830Y-85908612D01*
X130877654Y-85695230D01*
X130784294Y-85495019D01*
X130657586Y-85314060D01*
X130501380Y-85157854D01*
X130501376Y-85157851D01*
X130501375Y-85157850D01*
X130320426Y-85031148D01*
X130320418Y-85031144D01*
X130191571Y-84971062D01*
X130139131Y-84924890D01*
X130119979Y-84857697D01*
X130140195Y-84790815D01*
X130191571Y-84746298D01*
X130197562Y-84743504D01*
X130320422Y-84686214D01*
X130501380Y-84559506D01*
X130657586Y-84403300D01*
X130784294Y-84222342D01*
X130877654Y-84022130D01*
X130934830Y-83808748D01*
X130954083Y-83588680D01*
X130934830Y-83368612D01*
X130877654Y-83155230D01*
X130784294Y-82955019D01*
X130657586Y-82774060D01*
X130501380Y-82617854D01*
X130501376Y-82617851D01*
X130501375Y-82617850D01*
X130320426Y-82491148D01*
X130320418Y-82491144D01*
X130191571Y-82431062D01*
X130139131Y-82384890D01*
X130119979Y-82317697D01*
X130140195Y-82250815D01*
X130191571Y-82206298D01*
X130197562Y-82203504D01*
X130320422Y-82146214D01*
X130501380Y-82019506D01*
X130657586Y-81863300D01*
X130784294Y-81682342D01*
X130877654Y-81482130D01*
X130934830Y-81268748D01*
X130954083Y-81048680D01*
X130934830Y-80828612D01*
X130877654Y-80615230D01*
X130784294Y-80415019D01*
X130657586Y-80234060D01*
X130501380Y-80077854D01*
X130501376Y-80077851D01*
X130501375Y-80077850D01*
X130384845Y-79996255D01*
X130341220Y-79941678D01*
X130334026Y-79872180D01*
X130365549Y-79809825D01*
X130425779Y-79774411D01*
X130455968Y-79770680D01*
X130496588Y-79770680D01*
X130496604Y-79770679D01*
X130556132Y-79764278D01*
X130556139Y-79764276D01*
X130690846Y-79714034D01*
X130690853Y-79714030D01*
X130805947Y-79627870D01*
X130805950Y-79627867D01*
X130892110Y-79512773D01*
X130892114Y-79512766D01*
X130942356Y-79378059D01*
X130942358Y-79378052D01*
X130948759Y-79318524D01*
X130948760Y-79318507D01*
X130948760Y-78758680D01*
X130129011Y-78758680D01*
X130160141Y-78704761D01*
X130194760Y-78575560D01*
X130194760Y-78441800D01*
X130160141Y-78312599D01*
X130129011Y-78258680D01*
X130948760Y-78258680D01*
X130948760Y-77698852D01*
X130948759Y-77698835D01*
X130942358Y-77639307D01*
X130942356Y-77639300D01*
X130892114Y-77504593D01*
X130892110Y-77504586D01*
X130805950Y-77389492D01*
X130805947Y-77389489D01*
X130690853Y-77303329D01*
X130690846Y-77303325D01*
X130556139Y-77253083D01*
X130556132Y-77253081D01*
X130496604Y-77246680D01*
X129936760Y-77246680D01*
X129936760Y-78066428D01*
X129882841Y-78035299D01*
X129753640Y-78000680D01*
X129619880Y-78000680D01*
X129490679Y-78035299D01*
X129436760Y-78066428D01*
X129436760Y-77246680D01*
X128876915Y-77246680D01*
X128817387Y-77253081D01*
X128817380Y-77253083D01*
X128682673Y-77303325D01*
X128682666Y-77303329D01*
X128567572Y-77389489D01*
X128567569Y-77389492D01*
X128481409Y-77504586D01*
X128481405Y-77504593D01*
X128431163Y-77639300D01*
X128431161Y-77639307D01*
X128424760Y-77698835D01*
X128424760Y-78258680D01*
X129244509Y-78258680D01*
X129213379Y-78312599D01*
X129178760Y-78441800D01*
X129178760Y-78575560D01*
X129213379Y-78704761D01*
X129244509Y-78758680D01*
X128424760Y-78758680D01*
X128424760Y-79318524D01*
X128431161Y-79378052D01*
X128431163Y-79378059D01*
X128481405Y-79512766D01*
X128481409Y-79512773D01*
X128567569Y-79627867D01*
X128567572Y-79627870D01*
X128682666Y-79714030D01*
X128682673Y-79714034D01*
X128817380Y-79764276D01*
X128817387Y-79764278D01*
X128876915Y-79770679D01*
X128876932Y-79770680D01*
X128917553Y-79770680D01*
X128984592Y-79790365D01*
X129030347Y-79843169D01*
X129040291Y-79912327D01*
X129011266Y-79975883D01*
X128988676Y-79996255D01*
X128872137Y-80077855D01*
X128715935Y-80234057D01*
X128589226Y-80415018D01*
X128589225Y-80415020D01*
X128495867Y-80615228D01*
X128495864Y-80615234D01*
X128438690Y-80828609D01*
X128438689Y-80828617D01*
X128419437Y-81048677D01*
X103014083Y-81048677D01*
X102994830Y-80828612D01*
X102937654Y-80615230D01*
X102844294Y-80415019D01*
X102717586Y-80234060D01*
X102561380Y-80077854D01*
X102561376Y-80077851D01*
X102561375Y-80077850D01*
X102444845Y-79996255D01*
X102401220Y-79941678D01*
X102394026Y-79872180D01*
X102425549Y-79809825D01*
X102485779Y-79774411D01*
X102515968Y-79770680D01*
X102556588Y-79770680D01*
X102556604Y-79770679D01*
X102616132Y-79764278D01*
X102616139Y-79764276D01*
X102750846Y-79714034D01*
X102750853Y-79714030D01*
X102865947Y-79627870D01*
X102865950Y-79627867D01*
X102952110Y-79512773D01*
X102952114Y-79512766D01*
X103002356Y-79378059D01*
X103002358Y-79378052D01*
X103008759Y-79318524D01*
X103008760Y-79318507D01*
X103008760Y-78758680D01*
X102189011Y-78758680D01*
X102220141Y-78704761D01*
X102254760Y-78575560D01*
X102254760Y-78441800D01*
X102220141Y-78312599D01*
X102189011Y-78258680D01*
X103008760Y-78258680D01*
X103008760Y-77698852D01*
X103008759Y-77698835D01*
X103002358Y-77639307D01*
X103002356Y-77639300D01*
X102952114Y-77504593D01*
X102952110Y-77504586D01*
X102865950Y-77389492D01*
X102865947Y-77389489D01*
X102750853Y-77303329D01*
X102750846Y-77303325D01*
X102616139Y-77253083D01*
X102616132Y-77253081D01*
X102556604Y-77246680D01*
X101996760Y-77246680D01*
X101996760Y-78066428D01*
X101942841Y-78035299D01*
X101813640Y-78000680D01*
X101679880Y-78000680D01*
X101550679Y-78035299D01*
X101496760Y-78066428D01*
X101496760Y-77246680D01*
X100936915Y-77246680D01*
X100877387Y-77253081D01*
X100877380Y-77253083D01*
X100742673Y-77303325D01*
X100742666Y-77303329D01*
X100627572Y-77389489D01*
X100627569Y-77389492D01*
X100541409Y-77504586D01*
X100541405Y-77504593D01*
X100491163Y-77639300D01*
X100491161Y-77639307D01*
X100484760Y-77698835D01*
X100484760Y-78258680D01*
X101304509Y-78258680D01*
X101273379Y-78312599D01*
X101238760Y-78441800D01*
X101238760Y-78575560D01*
X101273379Y-78704761D01*
X101304509Y-78758680D01*
X100484760Y-78758680D01*
X100484760Y-79318524D01*
X100491161Y-79378052D01*
X100491163Y-79378059D01*
X100541405Y-79512766D01*
X100541409Y-79512773D01*
X100627569Y-79627867D01*
X100627572Y-79627870D01*
X100742666Y-79714030D01*
X100742673Y-79714034D01*
X100877380Y-79764276D01*
X100877387Y-79764278D01*
X100936915Y-79770679D01*
X100936932Y-79770680D01*
X100977553Y-79770680D01*
X101044592Y-79790365D01*
X101090347Y-79843169D01*
X101100291Y-79912327D01*
X101071266Y-79975883D01*
X101048676Y-79996255D01*
X100932137Y-80077855D01*
X100775935Y-80234057D01*
X100649226Y-80415018D01*
X100649225Y-80415020D01*
X100555867Y-80615228D01*
X100555864Y-80615234D01*
X100498690Y-80828609D01*
X100498689Y-80828617D01*
X100479437Y-81048677D01*
X97499985Y-81048677D01*
X97473903Y-80951337D01*
X97374035Y-80737171D01*
X97288651Y-80615230D01*
X97238496Y-80543600D01*
X97238495Y-80543599D01*
X97116179Y-80421283D01*
X97082696Y-80359963D01*
X97087680Y-80290271D01*
X97129551Y-80234337D01*
X97160529Y-80217422D01*
X97292086Y-80168354D01*
X97292093Y-80168350D01*
X97407187Y-80082190D01*
X97407190Y-80082187D01*
X97493350Y-79967093D01*
X97493354Y-79967086D01*
X97543596Y-79832379D01*
X97543598Y-79832372D01*
X97549999Y-79772844D01*
X97550000Y-79772827D01*
X97550000Y-79125000D01*
X96633012Y-79125000D01*
X96665925Y-79067993D01*
X96700000Y-78940826D01*
X96700000Y-78809174D01*
X96665925Y-78682007D01*
X96633012Y-78625000D01*
X97550000Y-78625000D01*
X97550000Y-77977172D01*
X97549999Y-77977155D01*
X97543598Y-77917627D01*
X97543596Y-77917620D01*
X97493354Y-77782913D01*
X97493350Y-77782906D01*
X97407190Y-77667812D01*
X97407187Y-77667809D01*
X97292093Y-77581649D01*
X97292086Y-77581645D01*
X97157379Y-77531403D01*
X97157372Y-77531401D01*
X97097844Y-77525000D01*
X96450000Y-77525000D01*
X96450000Y-78441988D01*
X96392993Y-78409075D01*
X96265826Y-78375000D01*
X96134174Y-78375000D01*
X96007007Y-78409075D01*
X95950000Y-78441988D01*
X95950000Y-77525000D01*
X95302155Y-77525000D01*
X95242627Y-77531401D01*
X95242620Y-77531403D01*
X95107913Y-77581645D01*
X95107906Y-77581649D01*
X94992812Y-77667809D01*
X94992809Y-77667812D01*
X94906649Y-77782906D01*
X94906645Y-77782913D01*
X94856403Y-77917620D01*
X94856401Y-77917627D01*
X94850000Y-77977155D01*
X94850000Y-78625000D01*
X95766988Y-78625000D01*
X95734075Y-78682007D01*
X95700000Y-78809174D01*
X95700000Y-78940826D01*
X95734075Y-79067993D01*
X95766988Y-79125000D01*
X94850000Y-79125000D01*
X94850000Y-79772844D01*
X94856401Y-79832372D01*
X94856403Y-79832379D01*
X94906645Y-79967086D01*
X94906649Y-79967093D01*
X94992809Y-80082187D01*
X94992812Y-80082190D01*
X95107906Y-80168350D01*
X95107913Y-80168354D01*
X95239470Y-80217421D01*
X95295403Y-80259292D01*
X95319821Y-80324756D01*
X95304970Y-80393029D01*
X95283819Y-80421284D01*
X95161503Y-80543600D01*
X95025965Y-80737169D01*
X95025964Y-80737171D01*
X94926098Y-80951335D01*
X94926094Y-80951344D01*
X94864938Y-81179586D01*
X94864936Y-81179596D01*
X94844341Y-81414999D01*
X90872326Y-81414999D01*
X90856276Y-73999997D01*
X100944726Y-73999997D01*
X100944726Y-74000002D01*
X100963808Y-74351954D01*
X101020833Y-74699793D01*
X101020834Y-74699796D01*
X101115126Y-75039408D01*
X101115127Y-75039410D01*
X101245588Y-75366844D01*
X101245597Y-75366862D01*
X101410695Y-75678269D01*
X101608498Y-75970006D01*
X101608505Y-75970016D01*
X101836685Y-76238649D01*
X101836686Y-76238650D01*
X102092580Y-76481046D01*
X102373182Y-76694354D01*
X102675202Y-76876074D01*
X102675206Y-76876075D01*
X102675210Y-76876078D01*
X102995088Y-77024070D01*
X102995092Y-77024070D01*
X102995099Y-77024074D01*
X103329122Y-77136619D01*
X103673355Y-77212391D01*
X104023763Y-77250500D01*
X104023769Y-77250500D01*
X104376231Y-77250500D01*
X104376237Y-77250500D01*
X104726645Y-77212391D01*
X105070878Y-77136619D01*
X105404901Y-77024074D01*
X105404908Y-77024070D01*
X105404911Y-77024070D01*
X105724789Y-76876078D01*
X105724798Y-76876074D01*
X106026818Y-76694354D01*
X106307420Y-76481046D01*
X106563314Y-76238650D01*
X106791501Y-75970008D01*
X106989305Y-75678269D01*
X107154407Y-75366854D01*
X107284871Y-75039414D01*
X107379168Y-74699788D01*
X107436191Y-74351957D01*
X107455274Y-74000000D01*
X107455274Y-73999997D01*
X123944726Y-73999997D01*
X123944726Y-74000002D01*
X123963808Y-74351954D01*
X124020833Y-74699793D01*
X124020834Y-74699796D01*
X124115126Y-75039408D01*
X124115127Y-75039410D01*
X124245588Y-75366844D01*
X124245597Y-75366862D01*
X124410695Y-75678269D01*
X124608498Y-75970006D01*
X124608505Y-75970016D01*
X124836685Y-76238649D01*
X124836686Y-76238650D01*
X125092580Y-76481046D01*
X125373182Y-76694354D01*
X125675202Y-76876074D01*
X125675206Y-76876075D01*
X125675210Y-76876078D01*
X125995088Y-77024070D01*
X125995092Y-77024070D01*
X125995099Y-77024074D01*
X126329122Y-77136619D01*
X126673355Y-77212391D01*
X127023763Y-77250500D01*
X127023769Y-77250500D01*
X127376231Y-77250500D01*
X127376237Y-77250500D01*
X127726645Y-77212391D01*
X128070878Y-77136619D01*
X128404901Y-77024074D01*
X128404908Y-77024070D01*
X128404911Y-77024070D01*
X128724789Y-76876078D01*
X128724798Y-76876074D01*
X129026818Y-76694354D01*
X129307420Y-76481046D01*
X129563314Y-76238650D01*
X129791501Y-75970008D01*
X129989305Y-75678269D01*
X130154407Y-75366854D01*
X130284871Y-75039414D01*
X130379168Y-74699788D01*
X130436191Y-74351957D01*
X130455274Y-74000000D01*
X130436191Y-73648043D01*
X130379168Y-73300212D01*
X130336704Y-73147271D01*
X130284873Y-72960591D01*
X130284872Y-72960589D01*
X130154411Y-72633155D01*
X130154402Y-72633137D01*
X129989304Y-72321730D01*
X129791501Y-72029992D01*
X129791497Y-72029987D01*
X129791494Y-72029983D01*
X129563314Y-71761350D01*
X129307420Y-71518954D01*
X129307413Y-71518948D01*
X129307410Y-71518946D01*
X129026815Y-71305644D01*
X128724802Y-71123928D01*
X128724789Y-71123921D01*
X128404911Y-70975929D01*
X128404906Y-70975928D01*
X128404903Y-70975927D01*
X128404901Y-70975926D01*
X128298432Y-70940052D01*
X128070880Y-70863381D01*
X127726643Y-70787608D01*
X127376238Y-70749500D01*
X127376237Y-70749500D01*
X127023763Y-70749500D01*
X127023761Y-70749500D01*
X126673356Y-70787608D01*
X126329119Y-70863381D01*
X125995093Y-70975928D01*
X125995088Y-70975929D01*
X125675210Y-71123921D01*
X125675197Y-71123928D01*
X125373184Y-71305644D01*
X125092589Y-71518946D01*
X125092580Y-71518954D01*
X124836685Y-71761350D01*
X124608505Y-72029983D01*
X124608498Y-72029993D01*
X124410695Y-72321730D01*
X124245597Y-72633137D01*
X124245588Y-72633155D01*
X124115127Y-72960589D01*
X124115126Y-72960591D01*
X124020834Y-73300203D01*
X124020833Y-73300206D01*
X123963808Y-73648045D01*
X123944726Y-73999997D01*
X107455274Y-73999997D01*
X107436191Y-73648043D01*
X107379168Y-73300212D01*
X107336704Y-73147271D01*
X107284873Y-72960591D01*
X107284872Y-72960589D01*
X107154411Y-72633155D01*
X107154402Y-72633137D01*
X106989304Y-72321730D01*
X106791501Y-72029992D01*
X106791497Y-72029987D01*
X106791494Y-72029983D01*
X106563314Y-71761350D01*
X106307420Y-71518954D01*
X106307413Y-71518948D01*
X106307410Y-71518946D01*
X106026815Y-71305644D01*
X105724802Y-71123928D01*
X105724789Y-71123921D01*
X105404911Y-70975929D01*
X105404906Y-70975928D01*
X105404903Y-70975927D01*
X105404901Y-70975926D01*
X105298432Y-70940052D01*
X105070880Y-70863381D01*
X104726643Y-70787608D01*
X104376238Y-70749500D01*
X104376237Y-70749500D01*
X104023763Y-70749500D01*
X104023761Y-70749500D01*
X103673356Y-70787608D01*
X103329119Y-70863381D01*
X102995093Y-70975928D01*
X102995088Y-70975929D01*
X102675210Y-71123921D01*
X102675197Y-71123928D01*
X102373184Y-71305644D01*
X102092589Y-71518946D01*
X102092580Y-71518954D01*
X101836685Y-71761350D01*
X101608505Y-72029983D01*
X101608498Y-72029993D01*
X101410695Y-72321730D01*
X101245597Y-72633137D01*
X101245588Y-72633155D01*
X101115127Y-72960589D01*
X101115126Y-72960591D01*
X101020834Y-73300203D01*
X101020833Y-73300206D01*
X100963808Y-73648045D01*
X100944726Y-73999997D01*
X90856276Y-73999997D01*
X90812554Y-53799996D01*
X112427945Y-53799996D01*
X112427945Y-53800003D01*
X112447301Y-53971795D01*
X112504402Y-54134983D01*
X112596382Y-54281367D01*
X112596383Y-54281368D01*
X112718632Y-54403617D01*
X112865018Y-54495598D01*
X113028202Y-54552698D01*
X113085468Y-54559150D01*
X113199996Y-54572055D01*
X113200000Y-54572055D01*
X113200004Y-54572055D01*
X113298170Y-54560993D01*
X113371798Y-54552698D01*
X113534982Y-54495598D01*
X113681368Y-54403617D01*
X113803617Y-54281368D01*
X113895598Y-54134982D01*
X113952698Y-53971798D01*
X113972055Y-53800000D01*
X113972055Y-53799996D01*
X115227945Y-53799996D01*
X115227945Y-53800003D01*
X115247301Y-53971795D01*
X115304402Y-54134983D01*
X115396382Y-54281367D01*
X115396383Y-54281368D01*
X115518632Y-54403617D01*
X115665018Y-54495598D01*
X115828202Y-54552698D01*
X115885468Y-54559150D01*
X115999996Y-54572055D01*
X116000000Y-54572055D01*
X116000004Y-54572055D01*
X116098170Y-54560993D01*
X116171798Y-54552698D01*
X116334982Y-54495598D01*
X116481368Y-54403617D01*
X116603617Y-54281368D01*
X116695598Y-54134982D01*
X116752698Y-53971798D01*
X116772055Y-53800000D01*
X116772055Y-53799996D01*
X118427945Y-53799996D01*
X118427945Y-53800003D01*
X118447301Y-53971795D01*
X118504402Y-54134983D01*
X118596382Y-54281367D01*
X118596383Y-54281368D01*
X118718632Y-54403617D01*
X118865018Y-54495598D01*
X119028202Y-54552698D01*
X119085468Y-54559150D01*
X119199996Y-54572055D01*
X119200000Y-54572055D01*
X119200004Y-54572055D01*
X119298170Y-54560993D01*
X119371798Y-54552698D01*
X119534982Y-54495598D01*
X119681368Y-54403617D01*
X119803617Y-54281368D01*
X119895598Y-54134982D01*
X119952698Y-53971798D01*
X119972055Y-53800000D01*
X119952698Y-53628202D01*
X119895598Y-53465018D01*
X119803617Y-53318632D01*
X119681368Y-53196383D01*
X119681367Y-53196382D01*
X119534983Y-53104402D01*
X119371795Y-53047301D01*
X119200004Y-53027945D01*
X119199996Y-53027945D01*
X119028204Y-53047301D01*
X118865016Y-53104402D01*
X118718632Y-53196382D01*
X118596382Y-53318632D01*
X118504402Y-53465016D01*
X118447301Y-53628204D01*
X118427945Y-53799996D01*
X116772055Y-53799996D01*
X116752698Y-53628202D01*
X116695598Y-53465018D01*
X116603617Y-53318632D01*
X116481368Y-53196383D01*
X116481367Y-53196382D01*
X116334983Y-53104402D01*
X116171795Y-53047301D01*
X116000004Y-53027945D01*
X115999996Y-53027945D01*
X115828204Y-53047301D01*
X115665016Y-53104402D01*
X115518632Y-53196382D01*
X115396382Y-53318632D01*
X115304402Y-53465016D01*
X115247301Y-53628204D01*
X115227945Y-53799996D01*
X113972055Y-53799996D01*
X113952698Y-53628202D01*
X113895598Y-53465018D01*
X113803617Y-53318632D01*
X113681368Y-53196383D01*
X113681367Y-53196382D01*
X113534983Y-53104402D01*
X113371795Y-53047301D01*
X113200004Y-53027945D01*
X113199996Y-53027945D01*
X113028204Y-53047301D01*
X112865016Y-53104402D01*
X112718632Y-53196382D01*
X112596382Y-53318632D01*
X112504402Y-53465016D01*
X112447301Y-53628204D01*
X112427945Y-53799996D01*
X90812554Y-53799996D01*
X90805749Y-50656091D01*
X90825289Y-50589010D01*
X90877994Y-50543141D01*
X90947130Y-50533048D01*
X91010749Y-50561936D01*
X91048650Y-50620632D01*
X91049515Y-50623701D01*
X91069448Y-50698090D01*
X91091393Y-50779991D01*
X91181714Y-50998045D01*
X91181719Y-50998056D01*
X91252677Y-51120957D01*
X91299727Y-51202450D01*
X91299729Y-51202453D01*
X91299730Y-51202454D01*
X91443406Y-51389697D01*
X91443412Y-51389704D01*
X91610295Y-51556587D01*
X91610301Y-51556592D01*
X91797550Y-51700273D01*
X91928918Y-51776118D01*
X92001943Y-51818280D01*
X92001948Y-51818282D01*
X92001951Y-51818284D01*
X92220007Y-51908606D01*
X92447986Y-51969693D01*
X92681989Y-52000500D01*
X92681996Y-52000500D01*
X92918004Y-52000500D01*
X92918011Y-52000500D01*
X93152014Y-51969693D01*
X93379993Y-51908606D01*
X93598049Y-51818284D01*
X93802450Y-51700273D01*
X93989699Y-51556592D01*
X94156592Y-51389699D01*
X94300273Y-51202450D01*
X94418284Y-50998049D01*
X94508606Y-50779993D01*
X94569693Y-50552014D01*
X94600500Y-50318011D01*
X94600500Y-50081995D01*
X134999500Y-50081995D01*
X134999500Y-50318004D01*
X134999501Y-50318020D01*
X135030306Y-50552010D01*
X135091394Y-50779993D01*
X135181714Y-50998045D01*
X135181719Y-50998056D01*
X135252677Y-51120957D01*
X135299727Y-51202450D01*
X135299729Y-51202453D01*
X135299730Y-51202454D01*
X135443406Y-51389697D01*
X135443412Y-51389704D01*
X135610295Y-51556587D01*
X135610301Y-51556592D01*
X135797550Y-51700273D01*
X135928918Y-51776118D01*
X136001943Y-51818280D01*
X136001948Y-51818282D01*
X136001951Y-51818284D01*
X136220007Y-51908606D01*
X136447986Y-51969693D01*
X136681989Y-52000500D01*
X136681996Y-52000500D01*
X136918004Y-52000500D01*
X136918011Y-52000500D01*
X137152014Y-51969693D01*
X137379993Y-51908606D01*
X137598049Y-51818284D01*
X137802450Y-51700273D01*
X137989699Y-51556592D01*
X138156592Y-51389699D01*
X138300273Y-51202450D01*
X138418284Y-50998049D01*
X138508606Y-50779993D01*
X138569693Y-50552014D01*
X138600500Y-50318011D01*
X138600500Y-50081989D01*
X138569693Y-49847986D01*
X138508606Y-49620007D01*
X138418284Y-49401951D01*
X138418282Y-49401948D01*
X138418280Y-49401943D01*
X138376118Y-49328918D01*
X138300273Y-49197550D01*
X138156592Y-49010301D01*
X138156587Y-49010295D01*
X137989704Y-48843412D01*
X137989697Y-48843406D01*
X137802454Y-48699730D01*
X137802453Y-48699729D01*
X137802450Y-48699727D01*
X137720957Y-48652677D01*
X137598056Y-48581719D01*
X137598045Y-48581714D01*
X137379993Y-48491394D01*
X137152010Y-48430306D01*
X136918020Y-48399501D01*
X136918017Y-48399500D01*
X136918011Y-48399500D01*
X136681989Y-48399500D01*
X136681983Y-48399500D01*
X136681979Y-48399501D01*
X136447989Y-48430306D01*
X136220006Y-48491394D01*
X136001954Y-48581714D01*
X136001943Y-48581719D01*
X135797545Y-48699730D01*
X135610302Y-48843406D01*
X135610295Y-48843412D01*
X135443412Y-49010295D01*
X135443406Y-49010302D01*
X135299730Y-49197545D01*
X135181719Y-49401943D01*
X135181714Y-49401954D01*
X135091394Y-49620006D01*
X135030306Y-49847989D01*
X134999501Y-50081979D01*
X134999500Y-50081995D01*
X94600500Y-50081995D01*
X94600500Y-50081989D01*
X94569693Y-49847986D01*
X94508606Y-49620007D01*
X94418284Y-49401951D01*
X94418282Y-49401948D01*
X94418280Y-49401943D01*
X94376118Y-49328918D01*
X94300273Y-49197550D01*
X94156592Y-49010301D01*
X94156587Y-49010295D01*
X93989704Y-48843412D01*
X93989697Y-48843406D01*
X93802454Y-48699730D01*
X93802453Y-48699729D01*
X93802450Y-48699727D01*
X93720957Y-48652677D01*
X93598056Y-48581719D01*
X93598045Y-48581714D01*
X93379993Y-48491394D01*
X93152010Y-48430306D01*
X92918020Y-48399501D01*
X92918017Y-48399500D01*
X92918011Y-48399500D01*
X92681989Y-48399500D01*
X92681983Y-48399500D01*
X92681979Y-48399501D01*
X92447989Y-48430306D01*
X92220006Y-48491394D01*
X92001954Y-48581714D01*
X92001943Y-48581719D01*
X91797545Y-48699730D01*
X91610302Y-48843406D01*
X91610295Y-48843412D01*
X91443412Y-49010295D01*
X91443406Y-49010302D01*
X91299730Y-49197545D01*
X91181719Y-49401943D01*
X91181714Y-49401954D01*
X91091394Y-49620006D01*
X91047566Y-49783574D01*
X91011201Y-49843234D01*
X90948353Y-49873763D01*
X90878978Y-49865468D01*
X90825100Y-49820983D01*
X90803826Y-49754430D01*
X90803791Y-49751808D01*
X90800269Y-48124268D01*
X90819809Y-48057186D01*
X90872514Y-48011317D01*
X90924269Y-48000000D01*
X138875731Y-48000000D01*
X138942770Y-48019685D01*
G37*
%TD.AperFunction*%
%TD*%
M02*
