%TF.GenerationSoftware,KiCad,Pcbnew,8.0.8-8.0.8-0~ubuntu24.04.1*%
%TF.CreationDate,2025-02-14T12:47:58-06:00*%
%TF.ProjectId,edge_human_detection_board,65646765-5f68-4756-9d61-6e5f64657465,rev?*%
%TF.SameCoordinates,Original*%
%TF.FileFunction,Paste,Top*%
%TF.FilePolarity,Positive*%
%FSLAX46Y46*%
G04 Gerber Fmt 4.6, Leading zero omitted, Abs format (unit mm)*
G04 Created by KiCad (PCBNEW 8.0.8-8.0.8-0~ubuntu24.04.1) date 2025-02-14 12:47:58*
%MOMM*%
%LPD*%
G01*
G04 APERTURE LIST*
G04 Aperture macros list*
%AMRoundRect*
0 Rectangle with rounded corners*
0 $1 Rounding radius*
0 $2 $3 $4 $5 $6 $7 $8 $9 X,Y pos of 4 corners*
0 Add a 4 corners polygon primitive as box body*
4,1,4,$2,$3,$4,$5,$6,$7,$8,$9,$2,$3,0*
0 Add four circle primitives for the rounded corners*
1,1,$1+$1,$2,$3*
1,1,$1+$1,$4,$5*
1,1,$1+$1,$6,$7*
1,1,$1+$1,$8,$9*
0 Add four rect primitives between the rounded corners*
20,1,$1+$1,$2,$3,$4,$5,0*
20,1,$1+$1,$4,$5,$6,$7,0*
20,1,$1+$1,$6,$7,$8,$9,0*
20,1,$1+$1,$8,$9,$2,$3,0*%
%AMFreePoly0*
4,1,5,0.675000,-1.175000,-0.675000,-1.175000,-0.675000,1.175000,0.675000,1.175000,0.675000,-1.175000,0.675000,-1.175000,$1*%
G04 Aperture macros list end*
%ADD10R,0.700000X0.700000*%
%ADD11RoundRect,0.208750X-0.208750X-0.431250X0.208750X-0.431250X0.208750X0.431250X-0.208750X0.431250X0*%
%ADD12R,1.475000X0.450000*%
%ADD13RoundRect,0.250000X-0.325000X-0.450000X0.325000X-0.450000X0.325000X0.450000X-0.325000X0.450000X0*%
%ADD14RoundRect,0.208750X0.431250X-0.208750X0.431250X0.208750X-0.431250X0.208750X-0.431250X-0.208750X0*%
%ADD15C,5.500000*%
%ADD16RoundRect,0.250000X0.350000X0.450000X-0.350000X0.450000X-0.350000X-0.450000X0.350000X-0.450000X0*%
%ADD17FreePoly0,0.000000*%
%ADD18FreePoly0,270.000000*%
%ADD19FreePoly0,180.000000*%
G04 APERTURE END LIST*
D10*
%TO.C,D3*%
X123950000Y-101415000D03*
X125050000Y-101415000D03*
X125050000Y-99585000D03*
X123950000Y-99585000D03*
%TD*%
D11*
%TO.C,C3*%
X117245000Y-99000000D03*
X118500000Y-99000000D03*
%TD*%
D10*
%TO.C,D4*%
X123950000Y-109915000D03*
X125050000Y-109915000D03*
X125050000Y-108085000D03*
X123950000Y-108085000D03*
%TD*%
D12*
%TO.C,IC1*%
X119062000Y-77575000D03*
X119062000Y-78225000D03*
X119062000Y-78875000D03*
X119062000Y-79525000D03*
X119062000Y-80175000D03*
X119062000Y-80825000D03*
X119062000Y-81475000D03*
X119062000Y-82125000D03*
X119062000Y-82775000D03*
X119062000Y-83425000D03*
X124938000Y-83425000D03*
X124938000Y-82775000D03*
X124938000Y-82125000D03*
X124938000Y-81475000D03*
X124938000Y-80825000D03*
X124938000Y-80175000D03*
X124938000Y-79525000D03*
X124938000Y-78875000D03*
X124938000Y-78225000D03*
X124938000Y-77575000D03*
%TD*%
D13*
%TO.C,D1*%
X119975000Y-69500000D03*
X122025000Y-69500000D03*
%TD*%
D11*
%TO.C,C4*%
X117372500Y-107500000D03*
X118627500Y-107500000D03*
%TD*%
%TO.C,C2*%
X117372500Y-91000000D03*
X118627500Y-91000000D03*
%TD*%
D14*
%TO.C,C1*%
X130000000Y-87627500D03*
X130000000Y-86372500D03*
%TD*%
D10*
%TO.C,D2*%
X123950000Y-93415000D03*
X125050000Y-93415000D03*
X125050000Y-91585000D03*
X123950000Y-91585000D03*
%TD*%
D15*
%TO.C,U1*%
X159513240Y-53551320D03*
X136513240Y-53551320D03*
X159513240Y-111551320D03*
X136513240Y-111551320D03*
%TD*%
D16*
%TO.C,R2*%
X127500000Y-69500000D03*
X125500000Y-69500000D03*
%TD*%
D17*
%TO.C,U2*%
X155600000Y-47500000D03*
D18*
X140557478Y-46652777D03*
X140570916Y-42077518D03*
D19*
X141578177Y-35864590D03*
X145770295Y-35864590D03*
X150990985Y-35864590D03*
%TD*%
M02*
