%TF.GenerationSoftware,KiCad,Pcbnew,8.0.8-8.0.8-0~ubuntu24.04.1*%
%TF.CreationDate,2025-02-14T12:47:57-06:00*%
%TF.ProjectId,edge_human_detection_board,65646765-5f68-4756-9d61-6e5f64657465,rev?*%
%TF.SameCoordinates,Original*%
%TF.FileFunction,Copper,L4,Bot*%
%TF.FilePolarity,Positive*%
%FSLAX46Y46*%
G04 Gerber Fmt 4.6, Leading zero omitted, Abs format (unit mm)*
G04 Created by KiCad (PCBNEW 8.0.8-8.0.8-0~ubuntu24.04.1) date 2025-02-14 12:47:57*
%MOMM*%
%LPD*%
G01*
G04 APERTURE LIST*
%TA.AperFunction,ComponentPad*%
%ADD10R,1.700000X1.700000*%
%TD*%
%TA.AperFunction,ComponentPad*%
%ADD11O,1.700000X1.700000*%
%TD*%
%TA.AperFunction,ComponentPad*%
%ADD12C,5.500000*%
%TD*%
%TA.AperFunction,ComponentPad*%
%ADD13R,1.524000X1.524000*%
%TD*%
%TA.AperFunction,ComponentPad*%
%ADD14C,1.524000*%
%TD*%
%TA.AperFunction,ViaPad*%
%ADD15C,0.533400*%
%TD*%
%TA.AperFunction,Conductor*%
%ADD16C,0.152400*%
%TD*%
%TA.AperFunction,Conductor*%
%ADD17C,0.508000*%
%TD*%
G04 APERTURE END LIST*
D10*
%TO.P,J1,1,Pin_1*%
%TO.N,GND*%
X122000000Y-54000000D03*
D11*
%TO.P,J1,2,Pin_2*%
%TO.N,/Coral Micro Breakouts/DEBUG_TX*%
X122000000Y-56540000D03*
%TO.P,J1,3,Pin_3*%
%TO.N,/Coral Micro Breakouts/DEBUG_RX*%
X122000000Y-59080000D03*
%TD*%
D12*
%TO.P,U1,*%
%TO.N,*%
X159513240Y-53551320D03*
X136513240Y-53551320D03*
X159513240Y-111551320D03*
X136513240Y-111551320D03*
D13*
%TO.P,U1,1,GND*%
%TO.N,GND*%
X162000000Y-58060000D03*
D14*
%TO.P,U1,2,1.8V*%
%TO.N,/Coral Micro Breakouts/+1.8VDC_TOF*%
X162000000Y-60600000D03*
%TO.P,U1,3,3.3V*%
%TO.N,/Coral Micro Breakouts/+3.3VDC*%
X162000000Y-63140000D03*
%TO.P,U1,4,RTC_3V*%
%TO.N,unconnected-(U1-RTC_3V-Pad4)*%
X162000000Y-65680000D03*
%TO.P,U1,5,SPI6_CS0*%
%TO.N,unconnected-(U1-SPI6_CS0-Pad5)*%
X162000000Y-68220000D03*
%TO.P,U1,6,SPI6_SCK*%
%TO.N,unconnected-(U1-SPI6_SCK-Pad6)*%
X162000000Y-70760000D03*
%TO.P,U1,7,SPI6_SDO*%
%TO.N,unconnected-(U1-SPI6_SDO-Pad7)*%
X162000000Y-73300000D03*
%TO.P,U1,8,SPI6_SDI*%
%TO.N,unconnected-(U1-SPI6_SDI-Pad8)*%
X162000000Y-75840000D03*
%TO.P,U1,9,DAC_OUT*%
%TO.N,unconnected-(U1-DAC_OUT-Pad9)*%
X162000000Y-78380000D03*
%TO.P,U1,10,I2C6_SDA*%
%TO.N,unconnected-(U1-I2C6_SDA-Pad10)*%
X162000000Y-80920000D03*
%TO.P,U1,11,I2C1_SCL*%
%TO.N,/Coral Micro Breakouts/SCL*%
X162000000Y-83460000D03*
%TO.P,U1,12,I2C1_SDA*%
%TO.N,/Coral Micro Breakouts/SDA*%
X162000000Y-86000000D03*
D13*
%TO.P,U1,13,GND*%
%TO.N,GND*%
X134060000Y-58060000D03*
D14*
%TO.P,U1,14,1.8V*%
%TO.N,/Coral Micro Breakouts/+1.8VDC_RGB*%
X134060000Y-60600000D03*
%TO.P,U1,15,ADC1_CH0A*%
%TO.N,unconnected-(U1-ADC1_CH0A-Pad15)*%
X134060000Y-63140000D03*
%TO.P,U1,16,ADC1_CH0B*%
%TO.N,unconnected-(U1-ADC1_CH0B-Pad16)*%
X134060000Y-65680000D03*
%TO.P,U1,17,UART6_TX*%
%TO.N,/Coral Micro Breakouts/DEBUG_TX*%
X134060000Y-68220000D03*
%TO.P,U1,18,UART6_RX*%
%TO.N,/Coral Micro Breakouts/DEBUG_RX*%
X134060000Y-70760000D03*
%TO.P,U1,19,UART6_CTX*%
%TO.N,unconnected-(U1-UART6_CTX-Pad19)*%
X134060000Y-73300000D03*
%TO.P,U1,20,UART6_RTS*%
%TO.N,unconnected-(U1-UART6_RTS-Pad20)*%
X134060000Y-75840000D03*
%TO.P,U1,21,PWM_B*%
%TO.N,/Coral Micro Breakouts/PWM_1*%
X134060000Y-78380000D03*
%TO.P,U1,22,PWM_A*%
%TO.N,/RGB Signalling/SIG_IN_PWM0*%
X134060000Y-80920000D03*
%TO.P,U1,23,I2C6_SCL*%
%TO.N,unconnected-(U1-I2C6_SCL-Pad23)*%
X134060000Y-83460000D03*
%TO.P,U1,24,VSYS*%
%TO.N,/Coral Micro Breakouts/+5VDC*%
X134060000Y-86000000D03*
%TD*%
D15*
%TO.N,GND*%
X127500000Y-101500000D03*
X161500000Y-117500000D03*
X150800000Y-57600000D03*
X169500000Y-87500000D03*
X121400000Y-104000000D03*
X169500000Y-74500000D03*
X158400000Y-102400000D03*
X120000000Y-110500000D03*
X126500000Y-116500000D03*
X127400000Y-63600000D03*
X139000000Y-90799996D03*
X120500000Y-96500000D03*
X118500000Y-75000000D03*
X168500000Y-110000000D03*
X153400000Y-39800000D03*
X125000000Y-85000000D03*
X121000000Y-75000000D03*
X128000000Y-76000000D03*
X129000000Y-94500000D03*
X131000000Y-90500000D03*
X140400000Y-80400000D03*
X144200000Y-39800000D03*
X129600000Y-56200000D03*
X118800000Y-48800000D03*
X138000000Y-102800000D03*
X148000000Y-47200000D03*
X169000000Y-99000000D03*
X159800000Y-91400000D03*
%TO.N,/RGB Signalling/SIG_IN_RGB1*%
X130000000Y-91500000D03*
X126500000Y-76000000D03*
%TO.N,/Coral Micro Breakouts/+1.8VDC_RGB*%
X122600000Y-65000000D03*
X117000000Y-75000000D03*
%TO.N,/RGB Signalling/SIG_IN_PWM0*%
X121500000Y-76000000D03*
%TO.N,/Coral Micro Breakouts/PWM_1*%
X138000000Y-36400000D03*
%TO.N,/Coral Micro Breakouts/SCL*%
X137800000Y-46000000D03*
%TD*%
D16*
%TO.N,/Coral Micro Breakouts/PWM_1*%
X138000000Y-36400000D02*
X138000000Y-37800000D01*
X138000000Y-37800000D02*
X132600000Y-43200000D01*
X132600000Y-43200000D02*
X132600000Y-54600000D01*
X132600000Y-54600000D02*
X138000000Y-60000000D01*
X138000000Y-60000000D02*
X138000000Y-74440000D01*
X138000000Y-74440000D02*
X134060000Y-78380000D01*
%TO.N,/RGB Signalling/SIG_IN_RGB1*%
X130000000Y-90800000D02*
X126500000Y-87300000D01*
X126500000Y-87300000D02*
X126500000Y-76000000D01*
X130000000Y-91500000D02*
X130000000Y-90800000D01*
D17*
%TO.N,/Coral Micro Breakouts/+1.8VDC_RGB*%
X117000000Y-68200000D02*
X117000000Y-75000000D01*
X122600000Y-65000000D02*
X120200000Y-65000000D01*
X120200000Y-65000000D02*
X117000000Y-68200000D01*
D16*
%TO.N,/Coral Micro Breakouts/DEBUG_RX*%
X132360000Y-70760000D02*
X122000000Y-60400000D01*
X134060000Y-70760000D02*
X132360000Y-70760000D01*
X122000000Y-60400000D02*
X122000000Y-59080000D01*
%TO.N,/Coral Micro Breakouts/DEBUG_TX*%
X122380000Y-56540000D02*
X122000000Y-56540000D01*
X134060000Y-68220000D02*
X122380000Y-56540000D01*
%TO.N,/RGB Signalling/SIG_IN_PWM0*%
X127941800Y-74801800D02*
X122698200Y-74801800D01*
X134060000Y-80920000D02*
X127941800Y-74801800D01*
X122698200Y-74801800D02*
X121500000Y-76000000D01*
%TO.N,/Coral Micro Breakouts/SCL*%
X142000000Y-51700000D02*
X142000000Y-63460000D01*
X162000000Y-83460000D02*
X161860000Y-83460000D01*
X137800000Y-46000000D02*
X137800000Y-47500000D01*
X142000000Y-63460000D02*
X162000000Y-83460000D01*
X137800000Y-47500000D02*
X142000000Y-51700000D01*
%TD*%
%TA.AperFunction,Conductor*%
%TO.N,GND*%
G36*
X135465294Y-57769217D02*
G01*
X135509643Y-57797718D01*
X137759981Y-60048056D01*
X137793466Y-60109379D01*
X137796300Y-60135737D01*
X137796300Y-74304262D01*
X137776615Y-74371301D01*
X137759981Y-74391943D01*
X134870631Y-77281292D01*
X134809308Y-77314777D01*
X134739616Y-77309793D01*
X134711828Y-77295186D01*
X134693665Y-77282468D01*
X134693664Y-77282467D01*
X134693656Y-77282463D01*
X134564811Y-77222382D01*
X134512371Y-77176210D01*
X134493219Y-77109017D01*
X134513435Y-77042135D01*
X134564811Y-76997618D01*
X134570802Y-76994824D01*
X134693662Y-76937534D01*
X134874620Y-76810826D01*
X135030826Y-76654620D01*
X135157534Y-76473662D01*
X135250894Y-76273450D01*
X135308070Y-76060068D01*
X135327323Y-75840000D01*
X135308070Y-75619932D01*
X135250894Y-75406550D01*
X135157534Y-75206339D01*
X135030826Y-75025380D01*
X134874620Y-74869174D01*
X134874616Y-74869171D01*
X134874615Y-74869170D01*
X134693666Y-74742468D01*
X134693658Y-74742464D01*
X134564811Y-74682382D01*
X134512371Y-74636210D01*
X134493219Y-74569017D01*
X134513435Y-74502135D01*
X134564811Y-74457618D01*
X134570802Y-74454824D01*
X134693662Y-74397534D01*
X134874620Y-74270826D01*
X135030826Y-74114620D01*
X135157534Y-73933662D01*
X135250894Y-73733450D01*
X135308070Y-73520068D01*
X135327323Y-73300000D01*
X135308070Y-73079932D01*
X135250894Y-72866550D01*
X135157534Y-72666339D01*
X135030826Y-72485380D01*
X134874620Y-72329174D01*
X134874616Y-72329171D01*
X134874615Y-72329170D01*
X134693666Y-72202468D01*
X134693658Y-72202464D01*
X134564811Y-72142382D01*
X134512371Y-72096210D01*
X134493219Y-72029017D01*
X134513435Y-71962135D01*
X134564811Y-71917618D01*
X134570802Y-71914824D01*
X134693662Y-71857534D01*
X134874620Y-71730826D01*
X135030826Y-71574620D01*
X135157534Y-71393662D01*
X135250894Y-71193450D01*
X135308070Y-70980068D01*
X135327323Y-70760000D01*
X135308070Y-70539932D01*
X135250894Y-70326550D01*
X135157534Y-70126339D01*
X135030826Y-69945380D01*
X134874620Y-69789174D01*
X134874616Y-69789171D01*
X134874615Y-69789170D01*
X134693666Y-69662468D01*
X134693658Y-69662464D01*
X134564811Y-69602382D01*
X134512371Y-69556210D01*
X134493219Y-69489017D01*
X134513435Y-69422135D01*
X134564811Y-69377618D01*
X134570802Y-69374824D01*
X134693662Y-69317534D01*
X134874620Y-69190826D01*
X135030826Y-69034620D01*
X135157534Y-68853662D01*
X135250894Y-68653450D01*
X135308070Y-68440068D01*
X135327323Y-68220000D01*
X135308070Y-67999932D01*
X135250894Y-67786550D01*
X135157534Y-67586339D01*
X135030826Y-67405380D01*
X134874620Y-67249174D01*
X134874616Y-67249171D01*
X134874615Y-67249170D01*
X134693666Y-67122468D01*
X134693658Y-67122464D01*
X134564811Y-67062382D01*
X134512371Y-67016210D01*
X134493219Y-66949017D01*
X134513435Y-66882135D01*
X134564811Y-66837618D01*
X134570802Y-66834824D01*
X134693662Y-66777534D01*
X134874620Y-66650826D01*
X135030826Y-66494620D01*
X135157534Y-66313662D01*
X135250894Y-66113450D01*
X135308070Y-65900068D01*
X135322509Y-65735017D01*
X135327323Y-65680002D01*
X135327323Y-65679997D01*
X135308070Y-65459937D01*
X135308070Y-65459932D01*
X135250894Y-65246550D01*
X135157534Y-65046339D01*
X135030826Y-64865380D01*
X134874620Y-64709174D01*
X134874616Y-64709171D01*
X134874615Y-64709170D01*
X134693666Y-64582468D01*
X134693658Y-64582464D01*
X134564811Y-64522382D01*
X134512371Y-64476210D01*
X134493219Y-64409017D01*
X134513435Y-64342135D01*
X134564811Y-64297618D01*
X134570802Y-64294824D01*
X134693662Y-64237534D01*
X134874620Y-64110826D01*
X135030826Y-63954620D01*
X135157534Y-63773662D01*
X135250894Y-63573450D01*
X135308070Y-63360068D01*
X135327323Y-63140000D01*
X135308070Y-62919932D01*
X135250894Y-62706550D01*
X135157534Y-62506339D01*
X135030826Y-62325380D01*
X134874620Y-62169174D01*
X134874616Y-62169171D01*
X134874615Y-62169170D01*
X134693666Y-62042468D01*
X134693658Y-62042464D01*
X134564811Y-61982382D01*
X134512371Y-61936210D01*
X134493219Y-61869017D01*
X134513435Y-61802135D01*
X134564811Y-61757618D01*
X134570802Y-61754824D01*
X134693662Y-61697534D01*
X134874620Y-61570826D01*
X135030826Y-61414620D01*
X135157534Y-61233662D01*
X135250894Y-61033450D01*
X135308070Y-60820068D01*
X135327323Y-60600000D01*
X135308070Y-60379932D01*
X135250894Y-60166550D01*
X135157534Y-59966339D01*
X135030826Y-59785380D01*
X134874620Y-59629174D01*
X134874616Y-59629171D01*
X134874615Y-59629170D01*
X134758085Y-59547575D01*
X134714460Y-59492998D01*
X134707266Y-59423500D01*
X134738789Y-59361145D01*
X134799019Y-59325731D01*
X134829208Y-59322000D01*
X134869828Y-59322000D01*
X134869844Y-59321999D01*
X134929372Y-59315598D01*
X134929379Y-59315596D01*
X135064086Y-59265354D01*
X135064093Y-59265350D01*
X135179187Y-59179190D01*
X135179190Y-59179187D01*
X135265350Y-59064093D01*
X135265354Y-59064086D01*
X135315596Y-58929379D01*
X135315598Y-58929372D01*
X135321999Y-58869844D01*
X135322000Y-58869827D01*
X135322000Y-58310000D01*
X134502251Y-58310000D01*
X134533381Y-58256081D01*
X134568000Y-58126880D01*
X134568000Y-57993120D01*
X134533381Y-57863919D01*
X134502251Y-57810000D01*
X135321999Y-57810000D01*
X135334280Y-57797719D01*
X135395603Y-57764233D01*
X135465294Y-57769217D01*
G37*
%TD.AperFunction*%
%TA.AperFunction,Conductor*%
G36*
X123044242Y-57508165D02*
G01*
X123088591Y-57536666D01*
X132961291Y-67409367D01*
X132994776Y-67470690D01*
X132989792Y-67540382D01*
X132975189Y-67568166D01*
X132962467Y-67586335D01*
X132869107Y-67786548D01*
X132869104Y-67786554D01*
X132811930Y-67999929D01*
X132811929Y-67999937D01*
X132792677Y-68219997D01*
X132792677Y-68220002D01*
X132811929Y-68440062D01*
X132811930Y-68440070D01*
X132869104Y-68653445D01*
X132869105Y-68653447D01*
X132869106Y-68653450D01*
X132962466Y-68853662D01*
X132962468Y-68853666D01*
X133089170Y-69034615D01*
X133089175Y-69034621D01*
X133245378Y-69190824D01*
X133245384Y-69190829D01*
X133426333Y-69317531D01*
X133426335Y-69317532D01*
X133426338Y-69317534D01*
X133545748Y-69373215D01*
X133555189Y-69377618D01*
X133607628Y-69423790D01*
X133626780Y-69490984D01*
X133606564Y-69557865D01*
X133555189Y-69602382D01*
X133426340Y-69662465D01*
X133426338Y-69662466D01*
X133245377Y-69789175D01*
X133089175Y-69945377D01*
X132962466Y-70126338D01*
X132962465Y-70126340D01*
X132869107Y-70326548D01*
X132869103Y-70326557D01*
X132832171Y-70464393D01*
X132795806Y-70524054D01*
X132732959Y-70554583D01*
X132712396Y-70556300D01*
X132495737Y-70556300D01*
X132428698Y-70536615D01*
X132408056Y-70519981D01*
X122437698Y-60549623D01*
X122404213Y-60488300D01*
X122409197Y-60418608D01*
X122451069Y-60362675D01*
X122472969Y-60349563D01*
X122677830Y-60254035D01*
X122871401Y-60118495D01*
X123038495Y-59951401D01*
X123174035Y-59757830D01*
X123273903Y-59543663D01*
X123335063Y-59315408D01*
X123355659Y-59080000D01*
X123335063Y-58844592D01*
X123273903Y-58616337D01*
X123174035Y-58402171D01*
X123152854Y-58371920D01*
X123038494Y-58208597D01*
X122871402Y-58041506D01*
X122871401Y-58041505D01*
X122685842Y-57911575D01*
X122685841Y-57911574D01*
X122642216Y-57856997D01*
X122635024Y-57787498D01*
X122666546Y-57725144D01*
X122685836Y-57708428D01*
X122871401Y-57578495D01*
X122913229Y-57536666D01*
X122974551Y-57503181D01*
X123044242Y-57508165D01*
G37*
%TD.AperFunction*%
%TA.AperFunction,Conductor*%
G36*
X116525722Y-33519685D02*
G01*
X116571477Y-33572489D01*
X116581421Y-33641647D01*
X116552396Y-33705203D01*
X116506136Y-33738561D01*
X116401954Y-33781714D01*
X116401943Y-33781719D01*
X116197545Y-33899730D01*
X116010302Y-34043406D01*
X116010295Y-34043412D01*
X115843412Y-34210295D01*
X115843406Y-34210302D01*
X115699730Y-34397545D01*
X115581719Y-34601943D01*
X115581714Y-34601954D01*
X115491394Y-34820006D01*
X115430306Y-35047989D01*
X115399501Y-35281979D01*
X115399500Y-35281995D01*
X115399500Y-35518004D01*
X115399501Y-35518020D01*
X115430306Y-35752010D01*
X115491394Y-35979993D01*
X115581714Y-36198045D01*
X115581719Y-36198056D01*
X115643767Y-36305525D01*
X115699727Y-36402450D01*
X115699729Y-36402453D01*
X115699730Y-36402454D01*
X115843406Y-36589697D01*
X115843412Y-36589704D01*
X116010295Y-36756587D01*
X116010301Y-36756592D01*
X116197550Y-36900273D01*
X116328918Y-36976118D01*
X116401943Y-37018280D01*
X116401948Y-37018282D01*
X116401951Y-37018284D01*
X116620007Y-37108606D01*
X116847986Y-37169693D01*
X117081989Y-37200500D01*
X117081996Y-37200500D01*
X117318004Y-37200500D01*
X117318011Y-37200500D01*
X117552014Y-37169693D01*
X117779993Y-37108606D01*
X117998049Y-37018284D01*
X118202450Y-36900273D01*
X118389699Y-36756592D01*
X118556592Y-36589699D01*
X118700273Y-36402450D01*
X118818284Y-36198049D01*
X118908606Y-35979993D01*
X118969693Y-35752014D01*
X119000500Y-35518011D01*
X119000500Y-35281989D01*
X118969693Y-35047986D01*
X118908606Y-34820007D01*
X118818284Y-34601951D01*
X118818282Y-34601948D01*
X118818280Y-34601943D01*
X118768613Y-34515919D01*
X118700273Y-34397550D01*
X118556592Y-34210301D01*
X118556587Y-34210295D01*
X118389704Y-34043412D01*
X118389697Y-34043406D01*
X118202454Y-33899730D01*
X118202453Y-33899729D01*
X118202450Y-33899727D01*
X118120957Y-33852677D01*
X117998056Y-33781719D01*
X117998045Y-33781714D01*
X117893864Y-33738561D01*
X117839461Y-33694720D01*
X117817396Y-33628426D01*
X117834675Y-33560727D01*
X117885812Y-33513116D01*
X117941317Y-33500000D01*
X169458683Y-33500000D01*
X169525722Y-33519685D01*
X169571477Y-33572489D01*
X169581421Y-33641647D01*
X169552396Y-33705203D01*
X169506136Y-33738561D01*
X169401954Y-33781714D01*
X169401943Y-33781719D01*
X169197545Y-33899730D01*
X169010302Y-34043406D01*
X169010295Y-34043412D01*
X168843412Y-34210295D01*
X168843406Y-34210302D01*
X168699730Y-34397545D01*
X168581719Y-34601943D01*
X168581714Y-34601954D01*
X168491394Y-34820006D01*
X168430306Y-35047989D01*
X168399501Y-35281979D01*
X168399500Y-35281995D01*
X168399500Y-35518004D01*
X168399501Y-35518020D01*
X168430306Y-35752010D01*
X168491394Y-35979993D01*
X168581714Y-36198045D01*
X168581719Y-36198056D01*
X168643767Y-36305525D01*
X168699727Y-36402450D01*
X168699729Y-36402453D01*
X168699730Y-36402454D01*
X168843406Y-36589697D01*
X168843412Y-36589704D01*
X169010295Y-36756587D01*
X169010301Y-36756592D01*
X169197550Y-36900273D01*
X169328918Y-36976118D01*
X169401943Y-37018280D01*
X169401948Y-37018282D01*
X169401951Y-37018284D01*
X169620007Y-37108606D01*
X169847986Y-37169693D01*
X170081989Y-37200500D01*
X170081996Y-37200500D01*
X170318004Y-37200500D01*
X170318011Y-37200500D01*
X170552014Y-37169693D01*
X170779993Y-37108606D01*
X170998049Y-37018284D01*
X171202450Y-36900273D01*
X171389699Y-36756592D01*
X171556592Y-36589699D01*
X171700273Y-36402450D01*
X171768613Y-36284080D01*
X171819180Y-36235865D01*
X171887787Y-36222642D01*
X171952652Y-36248611D01*
X171993180Y-36305525D01*
X172000000Y-36346081D01*
X172000000Y-117053918D01*
X171980315Y-117120957D01*
X171927511Y-117166712D01*
X171858353Y-117176656D01*
X171794797Y-117147631D01*
X171768613Y-117115919D01*
X171700273Y-116997550D01*
X171700267Y-116997542D01*
X171556593Y-116810302D01*
X171556587Y-116810295D01*
X171389704Y-116643412D01*
X171389697Y-116643406D01*
X171202454Y-116499730D01*
X171202453Y-116499729D01*
X171202450Y-116499727D01*
X171120957Y-116452677D01*
X170998056Y-116381719D01*
X170998045Y-116381714D01*
X170779993Y-116291394D01*
X170552010Y-116230306D01*
X170318020Y-116199501D01*
X170318017Y-116199500D01*
X170318011Y-116199500D01*
X170081989Y-116199500D01*
X170081983Y-116199500D01*
X170081979Y-116199501D01*
X169847989Y-116230306D01*
X169620006Y-116291394D01*
X169401954Y-116381714D01*
X169401943Y-116381719D01*
X169197545Y-116499730D01*
X169010302Y-116643406D01*
X169010295Y-116643412D01*
X168843412Y-116810295D01*
X168843406Y-116810302D01*
X168699730Y-116997545D01*
X168581719Y-117201943D01*
X168581714Y-117201954D01*
X168491394Y-117420006D01*
X168430306Y-117647989D01*
X168399501Y-117881979D01*
X168399500Y-117881995D01*
X168399500Y-118118004D01*
X168399501Y-118118020D01*
X168430306Y-118352010D01*
X168491394Y-118579993D01*
X168581714Y-118798045D01*
X168581719Y-118798056D01*
X168643767Y-118905525D01*
X168699727Y-119002450D01*
X168699729Y-119002453D01*
X168699730Y-119002454D01*
X168843406Y-119189697D01*
X168843412Y-119189704D01*
X169010295Y-119356587D01*
X169010301Y-119356592D01*
X169197550Y-119500273D01*
X169328918Y-119576118D01*
X169401943Y-119618280D01*
X169401948Y-119618282D01*
X169401951Y-119618284D01*
X169620007Y-119708606D01*
X169797726Y-119756225D01*
X169857385Y-119792590D01*
X169887914Y-119855437D01*
X169879619Y-119924813D01*
X169835134Y-119978691D01*
X169768582Y-119999965D01*
X169765631Y-120000000D01*
X117634369Y-120000000D01*
X117567330Y-119980315D01*
X117521575Y-119927511D01*
X117511631Y-119858353D01*
X117540656Y-119794797D01*
X117599434Y-119757023D01*
X117602231Y-119756237D01*
X117779993Y-119708606D01*
X117998049Y-119618284D01*
X118202450Y-119500273D01*
X118389699Y-119356592D01*
X118556592Y-119189699D01*
X118700273Y-119002450D01*
X118818284Y-118798049D01*
X118908606Y-118579993D01*
X118969693Y-118352014D01*
X119000500Y-118118011D01*
X119000500Y-117881989D01*
X118976231Y-117697648D01*
X141299500Y-117697648D01*
X141299500Y-117902351D01*
X141331522Y-118104534D01*
X141394781Y-118299223D01*
X141487715Y-118481613D01*
X141608028Y-118647213D01*
X141752786Y-118791971D01*
X141879567Y-118884081D01*
X141918390Y-118912287D01*
X142034607Y-118971503D01*
X142100776Y-119005218D01*
X142100778Y-119005218D01*
X142100781Y-119005220D01*
X142205137Y-119039127D01*
X142295465Y-119068477D01*
X142396557Y-119084488D01*
X142497648Y-119100500D01*
X142497649Y-119100500D01*
X142702351Y-119100500D01*
X142702352Y-119100500D01*
X142904534Y-119068477D01*
X143099219Y-119005220D01*
X143281610Y-118912287D01*
X143404997Y-118822642D01*
X143447213Y-118791971D01*
X143447215Y-118791968D01*
X143447219Y-118791966D01*
X143591966Y-118647219D01*
X143591968Y-118647215D01*
X143591971Y-118647213D01*
X143644732Y-118574590D01*
X143712287Y-118481610D01*
X143805220Y-118299219D01*
X143868477Y-118104534D01*
X143900500Y-117902352D01*
X143900500Y-117897648D01*
X152299500Y-117897648D01*
X152299500Y-118102351D01*
X152331522Y-118304534D01*
X152394781Y-118499223D01*
X152487715Y-118681613D01*
X152608028Y-118847213D01*
X152752786Y-118991971D01*
X152858090Y-119068477D01*
X152918390Y-119112287D01*
X153034607Y-119171503D01*
X153100776Y-119205218D01*
X153100778Y-119205218D01*
X153100781Y-119205220D01*
X153205137Y-119239127D01*
X153295465Y-119268477D01*
X153396557Y-119284488D01*
X153497648Y-119300500D01*
X153497649Y-119300500D01*
X153702351Y-119300500D01*
X153702352Y-119300500D01*
X153904534Y-119268477D01*
X154099219Y-119205220D01*
X154281610Y-119112287D01*
X154374590Y-119044732D01*
X154447213Y-118991971D01*
X154447215Y-118991968D01*
X154447219Y-118991966D01*
X154591966Y-118847219D01*
X154591968Y-118847215D01*
X154591971Y-118847213D01*
X154644732Y-118774590D01*
X154712287Y-118681610D01*
X154805220Y-118499219D01*
X154868477Y-118304534D01*
X154900500Y-118102352D01*
X154900500Y-117897648D01*
X154868477Y-117695466D01*
X154805220Y-117500781D01*
X154805218Y-117500778D01*
X154805218Y-117500776D01*
X154771503Y-117434607D01*
X154712287Y-117318390D01*
X154699490Y-117300776D01*
X154591971Y-117152786D01*
X154447213Y-117008028D01*
X154281613Y-116887715D01*
X154281612Y-116887714D01*
X154281610Y-116887713D01*
X154224653Y-116858691D01*
X154099223Y-116794781D01*
X153904534Y-116731522D01*
X153729995Y-116703878D01*
X153702352Y-116699500D01*
X153497648Y-116699500D01*
X153473329Y-116703351D01*
X153295465Y-116731522D01*
X153100776Y-116794781D01*
X152918386Y-116887715D01*
X152752786Y-117008028D01*
X152608028Y-117152786D01*
X152487715Y-117318386D01*
X152394781Y-117500776D01*
X152331522Y-117695465D01*
X152299500Y-117897648D01*
X143900500Y-117897648D01*
X143900500Y-117697648D01*
X143868477Y-117495466D01*
X143805220Y-117300781D01*
X143805218Y-117300778D01*
X143805218Y-117300776D01*
X143754865Y-117201954D01*
X143712287Y-117118390D01*
X143665446Y-117053918D01*
X143591971Y-116952786D01*
X143447213Y-116808028D01*
X143281613Y-116687715D01*
X143281612Y-116687714D01*
X143281610Y-116687713D01*
X143194653Y-116643406D01*
X143099223Y-116594781D01*
X142904534Y-116531522D01*
X142729995Y-116503878D01*
X142702352Y-116499500D01*
X142497648Y-116499500D01*
X142473329Y-116503351D01*
X142295465Y-116531522D01*
X142100776Y-116594781D01*
X141918386Y-116687715D01*
X141752786Y-116808028D01*
X141608028Y-116952786D01*
X141487715Y-117118386D01*
X141394781Y-117300776D01*
X141331522Y-117495465D01*
X141299500Y-117697648D01*
X118976231Y-117697648D01*
X118969693Y-117647986D01*
X118908606Y-117420007D01*
X118818284Y-117201951D01*
X118818282Y-117201948D01*
X118818280Y-117201943D01*
X118768613Y-117115919D01*
X118700273Y-116997550D01*
X118556592Y-116810301D01*
X118556587Y-116810295D01*
X118389704Y-116643412D01*
X118389697Y-116643406D01*
X118202454Y-116499730D01*
X118202453Y-116499729D01*
X118202450Y-116499727D01*
X118120957Y-116452677D01*
X117998056Y-116381719D01*
X117998045Y-116381714D01*
X117779993Y-116291394D01*
X117552010Y-116230306D01*
X117318020Y-116199501D01*
X117318017Y-116199500D01*
X117318011Y-116199500D01*
X117081989Y-116199500D01*
X117081983Y-116199500D01*
X117081979Y-116199501D01*
X116847989Y-116230306D01*
X116620006Y-116291394D01*
X116401954Y-116381714D01*
X116401943Y-116381719D01*
X116197545Y-116499730D01*
X116010302Y-116643406D01*
X116010295Y-116643412D01*
X115843412Y-116810295D01*
X115843406Y-116810302D01*
X115699730Y-116997545D01*
X115581719Y-117201943D01*
X115581714Y-117201954D01*
X115491394Y-117420006D01*
X115430306Y-117647989D01*
X115399501Y-117881979D01*
X115399500Y-117881995D01*
X115399500Y-118118004D01*
X115399501Y-118118020D01*
X115430306Y-118352010D01*
X115491394Y-118579993D01*
X115581714Y-118798045D01*
X115581719Y-118798056D01*
X115643767Y-118905525D01*
X115699727Y-119002450D01*
X115699729Y-119002453D01*
X115699730Y-119002454D01*
X115843406Y-119189697D01*
X115843412Y-119189704D01*
X116010295Y-119356587D01*
X116010301Y-119356592D01*
X116197550Y-119500273D01*
X116328918Y-119576118D01*
X116401943Y-119618280D01*
X116401948Y-119618282D01*
X116401951Y-119618284D01*
X116620007Y-119708606D01*
X116797726Y-119756225D01*
X116857385Y-119792590D01*
X116887914Y-119855437D01*
X116879619Y-119924813D01*
X116835134Y-119978691D01*
X116768582Y-119999965D01*
X116765631Y-120000000D01*
X115124000Y-120000000D01*
X115056961Y-119980315D01*
X115011206Y-119927511D01*
X115000000Y-119876000D01*
X115000000Y-111551317D01*
X133257966Y-111551317D01*
X133257966Y-111551322D01*
X133277048Y-111903274D01*
X133334073Y-112251113D01*
X133334074Y-112251116D01*
X133428366Y-112590728D01*
X133428367Y-112590730D01*
X133558828Y-112918164D01*
X133558837Y-112918182D01*
X133723935Y-113229589D01*
X133921738Y-113521326D01*
X133921745Y-113521336D01*
X134149925Y-113789969D01*
X134149926Y-113789970D01*
X134405820Y-114032366D01*
X134686422Y-114245674D01*
X134988442Y-114427394D01*
X134988446Y-114427395D01*
X134988450Y-114427398D01*
X135308328Y-114575390D01*
X135308332Y-114575390D01*
X135308339Y-114575394D01*
X135642362Y-114687939D01*
X135986595Y-114763711D01*
X136337003Y-114801820D01*
X136337009Y-114801820D01*
X136689471Y-114801820D01*
X136689477Y-114801820D01*
X137039885Y-114763711D01*
X137384118Y-114687939D01*
X137718141Y-114575394D01*
X137718148Y-114575390D01*
X137718151Y-114575390D01*
X138038029Y-114427398D01*
X138038038Y-114427394D01*
X138340058Y-114245674D01*
X138620660Y-114032366D01*
X138876554Y-113789970D01*
X139104741Y-113521328D01*
X139302545Y-113229589D01*
X139467647Y-112918174D01*
X139598111Y-112590734D01*
X139692408Y-112251108D01*
X139749431Y-111903277D01*
X139768514Y-111551320D01*
X139768514Y-111551317D01*
X156257966Y-111551317D01*
X156257966Y-111551322D01*
X156277048Y-111903274D01*
X156334073Y-112251113D01*
X156334074Y-112251116D01*
X156428366Y-112590728D01*
X156428367Y-112590730D01*
X156558828Y-112918164D01*
X156558837Y-112918182D01*
X156723935Y-113229589D01*
X156921738Y-113521326D01*
X156921745Y-113521336D01*
X157149925Y-113789969D01*
X157149926Y-113789970D01*
X157405820Y-114032366D01*
X157686422Y-114245674D01*
X157988442Y-114427394D01*
X157988446Y-114427395D01*
X157988450Y-114427398D01*
X158308328Y-114575390D01*
X158308332Y-114575390D01*
X158308339Y-114575394D01*
X158642362Y-114687939D01*
X158986595Y-114763711D01*
X159337003Y-114801820D01*
X159337009Y-114801820D01*
X159689471Y-114801820D01*
X159689477Y-114801820D01*
X160039885Y-114763711D01*
X160384118Y-114687939D01*
X160718141Y-114575394D01*
X160718148Y-114575390D01*
X160718151Y-114575390D01*
X161038029Y-114427398D01*
X161038038Y-114427394D01*
X161340058Y-114245674D01*
X161620660Y-114032366D01*
X161876554Y-113789970D01*
X162104741Y-113521328D01*
X162302545Y-113229589D01*
X162467647Y-112918174D01*
X162598111Y-112590734D01*
X162692408Y-112251108D01*
X162749431Y-111903277D01*
X162768514Y-111551320D01*
X162749431Y-111199363D01*
X162692408Y-110851532D01*
X162649944Y-110698591D01*
X162598113Y-110511911D01*
X162598112Y-110511909D01*
X162467651Y-110184475D01*
X162467642Y-110184457D01*
X162302544Y-109873050D01*
X162104741Y-109581312D01*
X162104737Y-109581307D01*
X162104734Y-109581303D01*
X161876554Y-109312670D01*
X161620660Y-109070274D01*
X161620653Y-109070268D01*
X161620650Y-109070266D01*
X161340055Y-108856964D01*
X161038042Y-108675248D01*
X161038029Y-108675241D01*
X160718151Y-108527249D01*
X160718146Y-108527248D01*
X160718143Y-108527247D01*
X160718141Y-108527246D01*
X160611672Y-108491372D01*
X160384120Y-108414701D01*
X160039883Y-108338928D01*
X159689478Y-108300820D01*
X159689477Y-108300820D01*
X159337003Y-108300820D01*
X159337001Y-108300820D01*
X158986596Y-108338928D01*
X158642359Y-108414701D01*
X158308333Y-108527248D01*
X158308328Y-108527249D01*
X157988450Y-108675241D01*
X157988437Y-108675248D01*
X157686424Y-108856964D01*
X157405829Y-109070266D01*
X157405820Y-109070274D01*
X157149925Y-109312670D01*
X156921745Y-109581303D01*
X156921738Y-109581313D01*
X156723935Y-109873050D01*
X156558837Y-110184457D01*
X156558828Y-110184475D01*
X156428367Y-110511909D01*
X156428366Y-110511911D01*
X156334074Y-110851523D01*
X156334073Y-110851526D01*
X156277048Y-111199365D01*
X156257966Y-111551317D01*
X139768514Y-111551317D01*
X139749431Y-111199363D01*
X139692408Y-110851532D01*
X139649944Y-110698591D01*
X139598113Y-110511911D01*
X139598112Y-110511909D01*
X139467651Y-110184475D01*
X139467642Y-110184457D01*
X139302544Y-109873050D01*
X139104741Y-109581312D01*
X139104737Y-109581307D01*
X139104734Y-109581303D01*
X138876554Y-109312670D01*
X138620660Y-109070274D01*
X138620653Y-109070268D01*
X138620650Y-109070266D01*
X138340055Y-108856964D01*
X138038042Y-108675248D01*
X138038029Y-108675241D01*
X137718151Y-108527249D01*
X137718146Y-108527248D01*
X137718143Y-108527247D01*
X137718141Y-108527246D01*
X137611672Y-108491372D01*
X137384120Y-108414701D01*
X137039883Y-108338928D01*
X136689478Y-108300820D01*
X136689477Y-108300820D01*
X136337003Y-108300820D01*
X136337001Y-108300820D01*
X135986596Y-108338928D01*
X135642359Y-108414701D01*
X135308333Y-108527248D01*
X135308328Y-108527249D01*
X134988450Y-108675241D01*
X134988437Y-108675248D01*
X134686424Y-108856964D01*
X134405829Y-109070266D01*
X134405820Y-109070274D01*
X134149925Y-109312670D01*
X133921745Y-109581303D01*
X133921738Y-109581313D01*
X133723935Y-109873050D01*
X133558837Y-110184457D01*
X133558828Y-110184475D01*
X133428367Y-110511909D01*
X133428366Y-110511911D01*
X133334074Y-110851523D01*
X133334073Y-110851526D01*
X133277048Y-111199365D01*
X133257966Y-111551317D01*
X115000000Y-111551317D01*
X115000000Y-74999996D01*
X116227945Y-74999996D01*
X116227945Y-75000003D01*
X116247301Y-75171795D01*
X116304402Y-75334983D01*
X116396382Y-75481367D01*
X116518632Y-75603617D01*
X116616350Y-75665018D01*
X116665018Y-75695598D01*
X116828202Y-75752698D01*
X116885468Y-75759150D01*
X116999996Y-75772055D01*
X117000000Y-75772055D01*
X117000004Y-75772055D01*
X117098170Y-75760993D01*
X117171798Y-75752698D01*
X117334982Y-75695598D01*
X117481368Y-75603617D01*
X117603617Y-75481368D01*
X117695598Y-75334982D01*
X117752698Y-75171798D01*
X117769195Y-75025381D01*
X117772055Y-75000003D01*
X117772055Y-74999996D01*
X117759150Y-74885468D01*
X117752698Y-74828202D01*
X117695598Y-74665018D01*
X117653550Y-74598100D01*
X117603617Y-74518632D01*
X117481364Y-74396379D01*
X117439527Y-74370091D01*
X117393236Y-74317756D01*
X117381500Y-74265098D01*
X117381500Y-68409384D01*
X117401185Y-68342345D01*
X117417819Y-68321703D01*
X120321703Y-65417819D01*
X120383026Y-65384334D01*
X120409384Y-65381500D01*
X121865099Y-65381500D01*
X121932138Y-65401185D01*
X121970092Y-65439527D01*
X121996383Y-65481368D01*
X122118632Y-65603617D01*
X122265018Y-65695598D01*
X122428202Y-65752698D01*
X122485468Y-65759150D01*
X122599996Y-65772055D01*
X122600000Y-65772055D01*
X122600004Y-65772055D01*
X122698170Y-65760993D01*
X122771798Y-65752698D01*
X122934982Y-65695598D01*
X123081368Y-65603617D01*
X123203617Y-65481368D01*
X123295598Y-65334982D01*
X123352698Y-65171798D01*
X123372055Y-65000000D01*
X123352698Y-64828202D01*
X123295598Y-64665018D01*
X123203617Y-64518632D01*
X123081368Y-64396383D01*
X123081367Y-64396382D01*
X122934983Y-64304402D01*
X122771795Y-64247301D01*
X122600004Y-64227945D01*
X122599996Y-64227945D01*
X122428204Y-64247301D01*
X122265016Y-64304402D01*
X122118632Y-64396382D01*
X121996382Y-64518632D01*
X121970093Y-64560472D01*
X121917759Y-64606763D01*
X121865099Y-64618500D01*
X120149775Y-64618500D01*
X120077003Y-64637999D01*
X120052745Y-64644499D01*
X119965754Y-64694723D01*
X119965751Y-64694725D01*
X119894722Y-64765755D01*
X116748312Y-67912164D01*
X116748311Y-67912164D01*
X116748312Y-67912165D01*
X116694722Y-67965754D01*
X116644499Y-68052745D01*
X116644499Y-68052746D01*
X116618500Y-68149775D01*
X116618500Y-68149777D01*
X116618500Y-74265098D01*
X116598815Y-74332137D01*
X116560473Y-74370091D01*
X116518635Y-74396379D01*
X116396382Y-74518632D01*
X116304402Y-74665016D01*
X116247301Y-74828204D01*
X116227945Y-74999996D01*
X115000000Y-74999996D01*
X115000000Y-56539999D01*
X120644341Y-56539999D01*
X120644341Y-56540000D01*
X120664936Y-56775403D01*
X120664938Y-56775413D01*
X120726094Y-57003655D01*
X120726096Y-57003659D01*
X120726097Y-57003663D01*
X120750462Y-57055913D01*
X120825965Y-57217830D01*
X120825967Y-57217834D01*
X120961501Y-57411395D01*
X120961506Y-57411402D01*
X121128597Y-57578493D01*
X121128603Y-57578498D01*
X121314158Y-57708425D01*
X121357783Y-57763002D01*
X121364977Y-57832500D01*
X121333454Y-57894855D01*
X121314158Y-57911575D01*
X121128597Y-58041505D01*
X120961505Y-58208597D01*
X120825965Y-58402169D01*
X120825964Y-58402171D01*
X120726098Y-58616335D01*
X120726094Y-58616344D01*
X120664938Y-58844586D01*
X120664936Y-58844596D01*
X120644341Y-59079999D01*
X120644341Y-59080000D01*
X120664936Y-59315403D01*
X120664938Y-59315413D01*
X120726094Y-59543655D01*
X120726096Y-59543659D01*
X120726097Y-59543663D01*
X120765970Y-59629170D01*
X120825965Y-59757830D01*
X120825967Y-59757834D01*
X120845256Y-59785381D01*
X120961505Y-59951401D01*
X121128599Y-60118495D01*
X121225384Y-60186265D01*
X121322165Y-60254032D01*
X121322167Y-60254033D01*
X121322170Y-60254035D01*
X121536337Y-60353903D01*
X121729332Y-60405615D01*
X121788990Y-60441978D01*
X121811798Y-60477937D01*
X121827308Y-60515384D01*
X121902049Y-60590125D01*
X121902055Y-60590130D01*
X132180240Y-70868315D01*
X132180243Y-70868319D01*
X132187311Y-70875387D01*
X132244613Y-70932689D01*
X132275625Y-70945534D01*
X132319482Y-70963701D01*
X132319483Y-70963701D01*
X132414953Y-70963701D01*
X132414961Y-70963700D01*
X132712396Y-70963700D01*
X132779435Y-70983385D01*
X132825190Y-71036189D01*
X132832171Y-71055607D01*
X132869103Y-71193442D01*
X132869105Y-71193446D01*
X132869106Y-71193450D01*
X132962466Y-71393662D01*
X132962468Y-71393666D01*
X133089170Y-71574615D01*
X133089175Y-71574621D01*
X133245378Y-71730824D01*
X133245384Y-71730829D01*
X133426333Y-71857531D01*
X133426335Y-71857532D01*
X133426338Y-71857534D01*
X133545748Y-71913215D01*
X133555189Y-71917618D01*
X133607628Y-71963790D01*
X133626780Y-72030984D01*
X133606564Y-72097865D01*
X133555189Y-72142382D01*
X133426340Y-72202465D01*
X133426338Y-72202466D01*
X133245377Y-72329175D01*
X133089175Y-72485377D01*
X132962466Y-72666338D01*
X132962465Y-72666340D01*
X132869107Y-72866548D01*
X132869104Y-72866554D01*
X132811930Y-73079929D01*
X132811929Y-73079937D01*
X132792677Y-73299997D01*
X132792677Y-73300002D01*
X132811929Y-73520062D01*
X132811930Y-73520070D01*
X132869104Y-73733445D01*
X132869105Y-73733447D01*
X132869106Y-73733450D01*
X132962466Y-73933662D01*
X132962468Y-73933666D01*
X133089170Y-74114615D01*
X133089175Y-74114621D01*
X133245378Y-74270824D01*
X133245384Y-74270829D01*
X133426333Y-74397531D01*
X133426335Y-74397532D01*
X133426338Y-74397534D01*
X133545748Y-74453215D01*
X133555189Y-74457618D01*
X133607628Y-74503790D01*
X133626780Y-74570984D01*
X133606564Y-74637865D01*
X133555189Y-74682382D01*
X133426340Y-74742465D01*
X133426338Y-74742466D01*
X133245377Y-74869175D01*
X133089175Y-75025377D01*
X132962466Y-75206338D01*
X132962465Y-75206340D01*
X132869107Y-75406548D01*
X132869104Y-75406554D01*
X132811930Y-75619929D01*
X132811929Y-75619937D01*
X132792677Y-75839997D01*
X132792677Y-75840002D01*
X132811929Y-76060062D01*
X132811930Y-76060070D01*
X132869104Y-76273445D01*
X132869105Y-76273447D01*
X132869106Y-76273450D01*
X132962466Y-76473662D01*
X132962468Y-76473666D01*
X133089170Y-76654615D01*
X133089175Y-76654621D01*
X133245378Y-76810824D01*
X133245384Y-76810829D01*
X133426333Y-76937531D01*
X133426335Y-76937532D01*
X133426338Y-76937534D01*
X133545748Y-76993215D01*
X133555189Y-76997618D01*
X133607628Y-77043790D01*
X133626780Y-77110984D01*
X133606564Y-77177865D01*
X133555189Y-77222382D01*
X133426340Y-77282465D01*
X133426338Y-77282466D01*
X133245377Y-77409175D01*
X133089175Y-77565377D01*
X132962466Y-77746338D01*
X132962465Y-77746340D01*
X132869107Y-77946548D01*
X132869104Y-77946554D01*
X132811930Y-78159929D01*
X132811929Y-78159937D01*
X132792677Y-78379997D01*
X132792677Y-78380002D01*
X132811929Y-78600062D01*
X132811930Y-78600070D01*
X132869104Y-78813445D01*
X132869105Y-78813447D01*
X132869106Y-78813450D01*
X132962466Y-79013662D01*
X132962468Y-79013666D01*
X133089170Y-79194615D01*
X133089175Y-79194621D01*
X133245378Y-79350824D01*
X133245384Y-79350829D01*
X133426333Y-79477531D01*
X133426335Y-79477532D01*
X133426338Y-79477534D01*
X133545748Y-79533215D01*
X133555189Y-79537618D01*
X133607628Y-79583790D01*
X133626780Y-79650984D01*
X133606564Y-79717865D01*
X133555189Y-79762382D01*
X133426337Y-79822467D01*
X133408169Y-79835188D01*
X133341962Y-79857514D01*
X133274196Y-79840501D01*
X133249371Y-79821295D01*
X128131929Y-74703854D01*
X128131928Y-74703852D01*
X128057184Y-74629108D01*
X127982322Y-74598101D01*
X127982320Y-74598100D01*
X127982319Y-74598100D01*
X127982317Y-74598100D01*
X122753161Y-74598100D01*
X122753153Y-74598099D01*
X122738719Y-74598099D01*
X122657682Y-74598099D01*
X122657680Y-74598099D01*
X122657678Y-74598100D01*
X122613825Y-74616264D01*
X122613825Y-74616265D01*
X122598319Y-74622688D01*
X122582812Y-74629111D01*
X122562818Y-74649106D01*
X122525511Y-74686413D01*
X122525510Y-74686414D01*
X121943812Y-75268111D01*
X121882489Y-75301596D01*
X121815177Y-75297472D01*
X121671795Y-75247301D01*
X121500004Y-75227945D01*
X121499996Y-75227945D01*
X121328204Y-75247301D01*
X121165016Y-75304402D01*
X121018632Y-75396382D01*
X120896382Y-75518632D01*
X120804402Y-75665016D01*
X120747301Y-75828204D01*
X120727945Y-75999996D01*
X120727945Y-76000003D01*
X120747301Y-76171795D01*
X120804402Y-76334983D01*
X120891541Y-76473662D01*
X120896383Y-76481368D01*
X121018632Y-76603617D01*
X121165018Y-76695598D01*
X121328202Y-76752698D01*
X121385468Y-76759150D01*
X121499996Y-76772055D01*
X121500000Y-76772055D01*
X121500004Y-76772055D01*
X121598170Y-76760993D01*
X121671798Y-76752698D01*
X121834982Y-76695598D01*
X121981368Y-76603617D01*
X122103617Y-76481368D01*
X122195598Y-76334982D01*
X122252698Y-76171798D01*
X122272055Y-76000000D01*
X122252698Y-75828202D01*
X122202527Y-75684820D01*
X122198966Y-75615041D01*
X122231886Y-75556187D01*
X122746256Y-75041819D01*
X122807579Y-75008334D01*
X122833937Y-75005500D01*
X126289420Y-75005500D01*
X126356459Y-75025185D01*
X126402214Y-75077989D01*
X126412158Y-75147147D01*
X126383133Y-75210703D01*
X126330374Y-75246542D01*
X126165016Y-75304402D01*
X126018632Y-75396382D01*
X125896382Y-75518632D01*
X125804402Y-75665016D01*
X125747301Y-75828204D01*
X125727945Y-75999996D01*
X125727945Y-76000003D01*
X125747301Y-76171795D01*
X125804402Y-76334983D01*
X125891541Y-76473662D01*
X125896383Y-76481368D01*
X126018632Y-76603617D01*
X126165018Y-76695598D01*
X126213254Y-76712476D01*
X126270030Y-76753197D01*
X126295778Y-76818150D01*
X126296300Y-76829518D01*
X126296300Y-87340517D01*
X126296301Y-87340522D01*
X126327308Y-87415384D01*
X126402049Y-87490125D01*
X126402055Y-87490130D01*
X129586578Y-90674654D01*
X129620063Y-90735977D01*
X129615079Y-90805669D01*
X129573207Y-90861602D01*
X129564870Y-90867328D01*
X129518635Y-90896379D01*
X129396382Y-91018632D01*
X129304402Y-91165016D01*
X129247301Y-91328204D01*
X129227945Y-91499996D01*
X129227945Y-91500003D01*
X129247301Y-91671795D01*
X129304402Y-91834983D01*
X129396382Y-91981367D01*
X129396383Y-91981368D01*
X129518632Y-92103617D01*
X129665018Y-92195598D01*
X129828202Y-92252698D01*
X129885468Y-92259150D01*
X129999996Y-92272055D01*
X130000000Y-92272055D01*
X130000004Y-92272055D01*
X130098170Y-92260993D01*
X130171798Y-92252698D01*
X130334982Y-92195598D01*
X130481368Y-92103617D01*
X130603617Y-91981368D01*
X130695598Y-91834982D01*
X130752698Y-91671798D01*
X130772055Y-91500000D01*
X130752698Y-91328202D01*
X130695598Y-91165018D01*
X130603617Y-91018632D01*
X130481368Y-90896383D01*
X130481367Y-90896382D01*
X130334983Y-90804402D01*
X130255580Y-90776618D01*
X130198804Y-90735896D01*
X130181974Y-90707028D01*
X130172691Y-90684618D01*
X130172689Y-90684613D01*
X130115387Y-90627311D01*
X130115386Y-90627310D01*
X126740019Y-87251943D01*
X126706534Y-87190620D01*
X126703700Y-87164262D01*
X126703700Y-76829518D01*
X126723385Y-76762479D01*
X126776189Y-76716724D01*
X126786740Y-76712478D01*
X126834982Y-76695598D01*
X126981368Y-76603617D01*
X127103617Y-76481368D01*
X127195598Y-76334982D01*
X127252698Y-76171798D01*
X127272055Y-76000000D01*
X127252698Y-75828202D01*
X127195598Y-75665018D01*
X127167268Y-75619932D01*
X127103617Y-75518632D01*
X126981367Y-75396382D01*
X126834983Y-75304402D01*
X126669626Y-75246542D01*
X126612850Y-75205820D01*
X126587102Y-75140868D01*
X126600558Y-75072306D01*
X126648945Y-75021903D01*
X126710580Y-75005500D01*
X127806063Y-75005500D01*
X127873102Y-75025185D01*
X127893743Y-75041818D01*
X132961293Y-80109369D01*
X132994777Y-80170690D01*
X132989793Y-80240382D01*
X132975188Y-80268169D01*
X132962467Y-80286337D01*
X132869107Y-80486548D01*
X132869104Y-80486554D01*
X132811930Y-80699929D01*
X132811929Y-80699937D01*
X132792677Y-80919997D01*
X132792677Y-80920002D01*
X132811929Y-81140062D01*
X132811930Y-81140070D01*
X132869104Y-81353445D01*
X132869105Y-81353447D01*
X132869106Y-81353450D01*
X132962466Y-81553662D01*
X132962468Y-81553666D01*
X133089170Y-81734615D01*
X133089175Y-81734621D01*
X133245378Y-81890824D01*
X133245384Y-81890829D01*
X133426333Y-82017531D01*
X133426335Y-82017532D01*
X133426338Y-82017534D01*
X133545748Y-82073215D01*
X133555189Y-82077618D01*
X133607628Y-82123790D01*
X133626780Y-82190984D01*
X133606564Y-82257865D01*
X133555189Y-82302382D01*
X133426340Y-82362465D01*
X133426338Y-82362466D01*
X133245377Y-82489175D01*
X133089175Y-82645377D01*
X132962466Y-82826338D01*
X132962465Y-82826340D01*
X132869107Y-83026548D01*
X132869104Y-83026554D01*
X132811930Y-83239929D01*
X132811929Y-83239937D01*
X132792677Y-83459997D01*
X132792677Y-83460002D01*
X132811929Y-83680062D01*
X132811930Y-83680070D01*
X132869104Y-83893445D01*
X132869105Y-83893447D01*
X132869106Y-83893450D01*
X132962466Y-84093662D01*
X132962468Y-84093666D01*
X133089170Y-84274615D01*
X133089175Y-84274621D01*
X133245378Y-84430824D01*
X133245384Y-84430829D01*
X133426333Y-84557531D01*
X133426335Y-84557532D01*
X133426338Y-84557534D01*
X133545748Y-84613215D01*
X133555189Y-84617618D01*
X133607628Y-84663790D01*
X133626780Y-84730984D01*
X133606564Y-84797865D01*
X133555189Y-84842382D01*
X133426340Y-84902465D01*
X133426338Y-84902466D01*
X133245377Y-85029175D01*
X133089175Y-85185377D01*
X132962466Y-85366338D01*
X132962465Y-85366340D01*
X132869107Y-85566548D01*
X132869104Y-85566554D01*
X132811930Y-85779929D01*
X132811929Y-85779937D01*
X132792677Y-85999997D01*
X132792677Y-86000002D01*
X132811929Y-86220062D01*
X132811930Y-86220070D01*
X132869104Y-86433445D01*
X132869105Y-86433447D01*
X132869106Y-86433450D01*
X132962466Y-86633662D01*
X132962468Y-86633666D01*
X133089170Y-86814615D01*
X133089175Y-86814621D01*
X133245378Y-86970824D01*
X133245384Y-86970829D01*
X133426333Y-87097531D01*
X133426335Y-87097532D01*
X133426338Y-87097534D01*
X133626550Y-87190894D01*
X133839932Y-87248070D01*
X133997123Y-87261822D01*
X134059998Y-87267323D01*
X134060000Y-87267323D01*
X134060002Y-87267323D01*
X134115017Y-87262509D01*
X134280068Y-87248070D01*
X134493450Y-87190894D01*
X134693662Y-87097534D01*
X134874620Y-86970826D01*
X135030826Y-86814620D01*
X135157534Y-86633662D01*
X135250894Y-86433450D01*
X135308070Y-86220068D01*
X135327323Y-86000000D01*
X135308070Y-85779932D01*
X135250894Y-85566550D01*
X135157534Y-85366339D01*
X135030826Y-85185380D01*
X134874620Y-85029174D01*
X134874616Y-85029171D01*
X134874615Y-85029170D01*
X134693666Y-84902468D01*
X134693658Y-84902464D01*
X134564811Y-84842382D01*
X134512371Y-84796210D01*
X134493219Y-84729017D01*
X134513435Y-84662135D01*
X134564811Y-84617618D01*
X134570802Y-84614824D01*
X134693662Y-84557534D01*
X134874620Y-84430826D01*
X135030826Y-84274620D01*
X135157534Y-84093662D01*
X135250894Y-83893450D01*
X135308070Y-83680068D01*
X135327323Y-83460000D01*
X135308070Y-83239932D01*
X135250894Y-83026550D01*
X135157534Y-82826339D01*
X135030826Y-82645380D01*
X134874620Y-82489174D01*
X134874616Y-82489171D01*
X134874615Y-82489170D01*
X134693666Y-82362468D01*
X134693658Y-82362464D01*
X134564811Y-82302382D01*
X134512371Y-82256210D01*
X134493219Y-82189017D01*
X134513435Y-82122135D01*
X134564811Y-82077618D01*
X134570802Y-82074824D01*
X134693662Y-82017534D01*
X134874620Y-81890826D01*
X135030826Y-81734620D01*
X135157534Y-81553662D01*
X135250894Y-81353450D01*
X135308070Y-81140068D01*
X135327323Y-80920000D01*
X135308070Y-80699932D01*
X135250894Y-80486550D01*
X135157534Y-80286339D01*
X135030826Y-80105380D01*
X134874620Y-79949174D01*
X134874616Y-79949171D01*
X134874615Y-79949170D01*
X134693666Y-79822468D01*
X134693658Y-79822464D01*
X134564811Y-79762382D01*
X134512371Y-79716210D01*
X134493219Y-79649017D01*
X134513435Y-79582135D01*
X134564811Y-79537618D01*
X134570802Y-79534824D01*
X134693662Y-79477534D01*
X134874620Y-79350826D01*
X135030826Y-79194620D01*
X135157534Y-79013662D01*
X135250894Y-78813450D01*
X135308070Y-78600068D01*
X135327323Y-78380000D01*
X135308070Y-78159932D01*
X135250894Y-77946550D01*
X135157534Y-77746339D01*
X135144812Y-77728170D01*
X135122485Y-77661966D01*
X135139495Y-77594199D01*
X135158702Y-77569371D01*
X138172689Y-74555387D01*
X138172689Y-74555385D01*
X138172691Y-74555384D01*
X138194746Y-74502135D01*
X138203700Y-74480519D01*
X138203700Y-74399482D01*
X138203700Y-59959481D01*
X138196673Y-59942517D01*
X138172691Y-59884615D01*
X134973372Y-56685296D01*
X134939887Y-56623973D01*
X134944871Y-56554281D01*
X134986743Y-56498348D01*
X135052207Y-56473931D01*
X135113119Y-56485076D01*
X135308328Y-56575390D01*
X135308332Y-56575390D01*
X135308339Y-56575394D01*
X135642362Y-56687939D01*
X135986595Y-56763711D01*
X136337003Y-56801820D01*
X136337009Y-56801820D01*
X136689471Y-56801820D01*
X136689477Y-56801820D01*
X137039885Y-56763711D01*
X137384118Y-56687939D01*
X137718141Y-56575394D01*
X137718148Y-56575390D01*
X137718151Y-56575390D01*
X138038029Y-56427398D01*
X138038038Y-56427394D01*
X138340058Y-56245674D01*
X138620660Y-56032366D01*
X138876554Y-55789970D01*
X139104741Y-55521328D01*
X139302545Y-55229589D01*
X139467647Y-54918174D01*
X139598111Y-54590734D01*
X139608882Y-54551943D01*
X139633226Y-54464262D01*
X139692408Y-54251108D01*
X139749431Y-53903277D01*
X139768514Y-53551320D01*
X139765731Y-53500000D01*
X139749431Y-53199365D01*
X139749431Y-53199363D01*
X139692408Y-52851532D01*
X139636453Y-52650000D01*
X139598113Y-52511911D01*
X139598112Y-52511909D01*
X139467651Y-52184475D01*
X139467642Y-52184457D01*
X139302544Y-51873050D01*
X139222478Y-51754961D01*
X139104741Y-51581312D01*
X139104737Y-51581307D01*
X139104734Y-51581303D01*
X138876554Y-51312670D01*
X138620660Y-51070274D01*
X138620653Y-51070268D01*
X138620650Y-51070266D01*
X138340055Y-50856964D01*
X138038042Y-50675248D01*
X138038029Y-50675241D01*
X137718151Y-50527249D01*
X137718146Y-50527248D01*
X137718143Y-50527247D01*
X137718141Y-50527246D01*
X137611672Y-50491372D01*
X137384120Y-50414701D01*
X137039883Y-50338928D01*
X136689478Y-50300820D01*
X136689477Y-50300820D01*
X136337003Y-50300820D01*
X136337001Y-50300820D01*
X135986596Y-50338928D01*
X135642359Y-50414701D01*
X135308333Y-50527248D01*
X135308328Y-50527249D01*
X134988450Y-50675241D01*
X134988437Y-50675248D01*
X134686424Y-50856964D01*
X134405829Y-51070266D01*
X134405820Y-51070274D01*
X134149925Y-51312670D01*
X133921745Y-51581303D01*
X133921738Y-51581313D01*
X133723935Y-51873050D01*
X133558837Y-52184457D01*
X133558828Y-52184475D01*
X133428367Y-52511909D01*
X133428366Y-52511911D01*
X133334074Y-52851523D01*
X133334073Y-52851526D01*
X133277048Y-53199365D01*
X133257966Y-53551317D01*
X133257966Y-53551322D01*
X133277048Y-53903274D01*
X133282114Y-53934174D01*
X133333890Y-54250000D01*
X133334073Y-54251113D01*
X133334074Y-54251116D01*
X133428366Y-54590728D01*
X133428367Y-54590730D01*
X133558828Y-54918164D01*
X133558834Y-54918176D01*
X133569646Y-54938570D01*
X133583656Y-55007021D01*
X133558434Y-55072180D01*
X133501989Y-55113359D01*
X133432241Y-55117484D01*
X133372409Y-55084333D01*
X132840019Y-54551943D01*
X132806534Y-54490620D01*
X132803700Y-54464262D01*
X132803700Y-45999996D01*
X137027945Y-45999996D01*
X137027945Y-46000003D01*
X137047301Y-46171795D01*
X137104402Y-46334983D01*
X137196382Y-46481367D01*
X137196383Y-46481368D01*
X137318632Y-46603617D01*
X137465018Y-46695598D01*
X137513254Y-46712476D01*
X137570030Y-46753197D01*
X137595778Y-46818150D01*
X137596300Y-46829518D01*
X137596300Y-47540517D01*
X137596301Y-47540522D01*
X137627308Y-47615384D01*
X137702049Y-47690125D01*
X137702055Y-47690130D01*
X141759981Y-51748056D01*
X141793466Y-51809379D01*
X141796300Y-51835737D01*
X141796300Y-63500517D01*
X141796301Y-63500522D01*
X141827308Y-63575384D01*
X141902049Y-63650125D01*
X141902055Y-63650130D01*
X160901291Y-82649367D01*
X160934776Y-82710690D01*
X160929792Y-82780382D01*
X160915189Y-82808166D01*
X160902467Y-82826335D01*
X160809107Y-83026548D01*
X160809104Y-83026554D01*
X160751930Y-83239929D01*
X160751929Y-83239937D01*
X160732677Y-83459997D01*
X160732677Y-83460002D01*
X160751929Y-83680062D01*
X160751930Y-83680070D01*
X160809104Y-83893445D01*
X160809105Y-83893447D01*
X160809106Y-83893450D01*
X160902466Y-84093662D01*
X160902468Y-84093666D01*
X161029170Y-84274615D01*
X161029175Y-84274621D01*
X161185378Y-84430824D01*
X161185384Y-84430829D01*
X161366333Y-84557531D01*
X161366335Y-84557532D01*
X161366338Y-84557534D01*
X161485748Y-84613215D01*
X161495189Y-84617618D01*
X161547628Y-84663790D01*
X161566780Y-84730984D01*
X161546564Y-84797865D01*
X161495189Y-84842382D01*
X161366340Y-84902465D01*
X161366338Y-84902466D01*
X161185377Y-85029175D01*
X161029175Y-85185377D01*
X160902466Y-85366338D01*
X160902465Y-85366340D01*
X160809107Y-85566548D01*
X160809104Y-85566554D01*
X160751930Y-85779929D01*
X160751929Y-85779937D01*
X160732677Y-85999997D01*
X160732677Y-86000002D01*
X160751929Y-86220062D01*
X160751930Y-86220070D01*
X160809104Y-86433445D01*
X160809105Y-86433447D01*
X160809106Y-86433450D01*
X160902466Y-86633662D01*
X160902468Y-86633666D01*
X161029170Y-86814615D01*
X161029175Y-86814621D01*
X161185378Y-86970824D01*
X161185384Y-86970829D01*
X161366333Y-87097531D01*
X161366335Y-87097532D01*
X161366338Y-87097534D01*
X161566550Y-87190894D01*
X161779932Y-87248070D01*
X161937123Y-87261822D01*
X161999998Y-87267323D01*
X162000000Y-87267323D01*
X162000002Y-87267323D01*
X162055017Y-87262509D01*
X162220068Y-87248070D01*
X162433450Y-87190894D01*
X162633662Y-87097534D01*
X162814620Y-86970826D01*
X162970826Y-86814620D01*
X163097534Y-86633662D01*
X163190894Y-86433450D01*
X163248070Y-86220068D01*
X163267323Y-86000000D01*
X163248070Y-85779932D01*
X163190894Y-85566550D01*
X163097534Y-85366339D01*
X162970826Y-85185380D01*
X162814620Y-85029174D01*
X162814616Y-85029171D01*
X162814615Y-85029170D01*
X162633666Y-84902468D01*
X162633658Y-84902464D01*
X162504811Y-84842382D01*
X162452371Y-84796210D01*
X162433219Y-84729017D01*
X162453435Y-84662135D01*
X162504811Y-84617618D01*
X162510802Y-84614824D01*
X162633662Y-84557534D01*
X162814620Y-84430826D01*
X162970826Y-84274620D01*
X163097534Y-84093662D01*
X163190894Y-83893450D01*
X163248070Y-83680068D01*
X163267323Y-83460000D01*
X163248070Y-83239932D01*
X163190894Y-83026550D01*
X163097534Y-82826339D01*
X162970826Y-82645380D01*
X162814620Y-82489174D01*
X162814616Y-82489171D01*
X162814615Y-82489170D01*
X162633666Y-82362468D01*
X162633658Y-82362464D01*
X162504811Y-82302382D01*
X162452371Y-82256210D01*
X162433219Y-82189017D01*
X162453435Y-82122135D01*
X162504811Y-82077618D01*
X162510802Y-82074824D01*
X162633662Y-82017534D01*
X162814620Y-81890826D01*
X162970826Y-81734620D01*
X163097534Y-81553662D01*
X163190894Y-81353450D01*
X163248070Y-81140068D01*
X163267323Y-80920000D01*
X163248070Y-80699932D01*
X163190894Y-80486550D01*
X163097534Y-80286339D01*
X162970826Y-80105380D01*
X162814620Y-79949174D01*
X162814616Y-79949171D01*
X162814615Y-79949170D01*
X162633666Y-79822468D01*
X162633658Y-79822464D01*
X162504811Y-79762382D01*
X162452371Y-79716210D01*
X162433219Y-79649017D01*
X162453435Y-79582135D01*
X162504811Y-79537618D01*
X162510802Y-79534824D01*
X162633662Y-79477534D01*
X162814620Y-79350826D01*
X162970826Y-79194620D01*
X163097534Y-79013662D01*
X163190894Y-78813450D01*
X163248070Y-78600068D01*
X163267323Y-78380000D01*
X163248070Y-78159932D01*
X163190894Y-77946550D01*
X163097534Y-77746339D01*
X162970826Y-77565380D01*
X162814620Y-77409174D01*
X162814616Y-77409171D01*
X162814615Y-77409170D01*
X162633666Y-77282468D01*
X162633658Y-77282464D01*
X162504811Y-77222382D01*
X162452371Y-77176210D01*
X162433219Y-77109017D01*
X162453435Y-77042135D01*
X162504811Y-76997618D01*
X162510802Y-76994824D01*
X162633662Y-76937534D01*
X162814620Y-76810826D01*
X162970826Y-76654620D01*
X163097534Y-76473662D01*
X163190894Y-76273450D01*
X163248070Y-76060068D01*
X163267323Y-75840000D01*
X163248070Y-75619932D01*
X163190894Y-75406550D01*
X163097534Y-75206339D01*
X162970826Y-75025380D01*
X162814620Y-74869174D01*
X162814616Y-74869171D01*
X162814615Y-74869170D01*
X162633666Y-74742468D01*
X162633658Y-74742464D01*
X162504811Y-74682382D01*
X162452371Y-74636210D01*
X162433219Y-74569017D01*
X162453435Y-74502135D01*
X162504811Y-74457618D01*
X162510802Y-74454824D01*
X162633662Y-74397534D01*
X162814620Y-74270826D01*
X162970826Y-74114620D01*
X163097534Y-73933662D01*
X163190894Y-73733450D01*
X163248070Y-73520068D01*
X163267323Y-73300000D01*
X163248070Y-73079932D01*
X163190894Y-72866550D01*
X163097534Y-72666339D01*
X162970826Y-72485380D01*
X162814620Y-72329174D01*
X162814616Y-72329171D01*
X162814615Y-72329170D01*
X162633666Y-72202468D01*
X162633658Y-72202464D01*
X162504811Y-72142382D01*
X162452371Y-72096210D01*
X162433219Y-72029017D01*
X162453435Y-71962135D01*
X162504811Y-71917618D01*
X162510802Y-71914824D01*
X162633662Y-71857534D01*
X162814620Y-71730826D01*
X162970826Y-71574620D01*
X163097534Y-71393662D01*
X163190894Y-71193450D01*
X163248070Y-70980068D01*
X163267323Y-70760000D01*
X163248070Y-70539932D01*
X163190894Y-70326550D01*
X163097534Y-70126339D01*
X162970826Y-69945380D01*
X162814620Y-69789174D01*
X162814616Y-69789171D01*
X162814615Y-69789170D01*
X162633666Y-69662468D01*
X162633658Y-69662464D01*
X162504811Y-69602382D01*
X162452371Y-69556210D01*
X162433219Y-69489017D01*
X162453435Y-69422135D01*
X162504811Y-69377618D01*
X162510802Y-69374824D01*
X162633662Y-69317534D01*
X162814620Y-69190826D01*
X162970826Y-69034620D01*
X163097534Y-68853662D01*
X163190894Y-68653450D01*
X163248070Y-68440068D01*
X163267323Y-68220000D01*
X163248070Y-67999932D01*
X163190894Y-67786550D01*
X163097534Y-67586339D01*
X162970826Y-67405380D01*
X162814620Y-67249174D01*
X162814616Y-67249171D01*
X162814615Y-67249170D01*
X162633666Y-67122468D01*
X162633658Y-67122464D01*
X162504811Y-67062382D01*
X162452371Y-67016210D01*
X162433219Y-66949017D01*
X162453435Y-66882135D01*
X162504811Y-66837618D01*
X162510802Y-66834824D01*
X162633662Y-66777534D01*
X162814620Y-66650826D01*
X162970826Y-66494620D01*
X163097534Y-66313662D01*
X163190894Y-66113450D01*
X163248070Y-65900068D01*
X163262509Y-65735017D01*
X163267323Y-65680002D01*
X163267323Y-65679997D01*
X163248070Y-65459937D01*
X163248070Y-65459932D01*
X163190894Y-65246550D01*
X163097534Y-65046339D01*
X162970826Y-64865380D01*
X162814620Y-64709174D01*
X162814616Y-64709171D01*
X162814615Y-64709170D01*
X162633666Y-64582468D01*
X162633658Y-64582464D01*
X162504811Y-64522382D01*
X162452371Y-64476210D01*
X162433219Y-64409017D01*
X162453435Y-64342135D01*
X162504811Y-64297618D01*
X162510802Y-64294824D01*
X162633662Y-64237534D01*
X162814620Y-64110826D01*
X162970826Y-63954620D01*
X163097534Y-63773662D01*
X163190894Y-63573450D01*
X163248070Y-63360068D01*
X163267323Y-63140000D01*
X163248070Y-62919932D01*
X163190894Y-62706550D01*
X163097534Y-62506339D01*
X162970826Y-62325380D01*
X162814620Y-62169174D01*
X162814616Y-62169171D01*
X162814615Y-62169170D01*
X162633666Y-62042468D01*
X162633658Y-62042464D01*
X162504811Y-61982382D01*
X162452371Y-61936210D01*
X162433219Y-61869017D01*
X162453435Y-61802135D01*
X162504811Y-61757618D01*
X162510802Y-61754824D01*
X162633662Y-61697534D01*
X162814620Y-61570826D01*
X162970826Y-61414620D01*
X163097534Y-61233662D01*
X163190894Y-61033450D01*
X163248070Y-60820068D01*
X163267323Y-60600000D01*
X163248070Y-60379932D01*
X163190894Y-60166550D01*
X163097534Y-59966339D01*
X162970826Y-59785380D01*
X162814620Y-59629174D01*
X162814616Y-59629171D01*
X162814615Y-59629170D01*
X162698085Y-59547575D01*
X162654460Y-59492998D01*
X162647266Y-59423500D01*
X162678789Y-59361145D01*
X162739019Y-59325731D01*
X162769208Y-59322000D01*
X162809828Y-59322000D01*
X162809844Y-59321999D01*
X162869372Y-59315598D01*
X162869379Y-59315596D01*
X163004086Y-59265354D01*
X163004093Y-59265350D01*
X163119187Y-59179190D01*
X163119190Y-59179187D01*
X163205350Y-59064093D01*
X163205354Y-59064086D01*
X163255596Y-58929379D01*
X163255598Y-58929372D01*
X163261999Y-58869844D01*
X163262000Y-58869827D01*
X163262000Y-58310000D01*
X162442251Y-58310000D01*
X162473381Y-58256081D01*
X162508000Y-58126880D01*
X162508000Y-57993120D01*
X162473381Y-57863919D01*
X162442251Y-57810000D01*
X163262000Y-57810000D01*
X163262000Y-57250172D01*
X163261999Y-57250155D01*
X163255598Y-57190627D01*
X163255596Y-57190620D01*
X163205354Y-57055913D01*
X163205350Y-57055906D01*
X163119190Y-56940812D01*
X163119187Y-56940809D01*
X163004093Y-56854649D01*
X163004086Y-56854645D01*
X162869379Y-56804403D01*
X162869372Y-56804401D01*
X162809844Y-56798000D01*
X162250000Y-56798000D01*
X162250000Y-57617748D01*
X162196081Y-57586619D01*
X162066880Y-57552000D01*
X161933120Y-57552000D01*
X161803919Y-57586619D01*
X161750000Y-57617748D01*
X161750000Y-56798000D01*
X161190155Y-56798000D01*
X161130627Y-56804401D01*
X161130620Y-56804403D01*
X160995913Y-56854645D01*
X160995906Y-56854649D01*
X160880812Y-56940809D01*
X160880809Y-56940812D01*
X160794649Y-57055906D01*
X160794645Y-57055913D01*
X160744403Y-57190620D01*
X160744401Y-57190627D01*
X160738000Y-57250155D01*
X160738000Y-57810000D01*
X161557749Y-57810000D01*
X161526619Y-57863919D01*
X161492000Y-57993120D01*
X161492000Y-58126880D01*
X161526619Y-58256081D01*
X161557749Y-58310000D01*
X160738000Y-58310000D01*
X160738000Y-58869844D01*
X160744401Y-58929372D01*
X160744403Y-58929379D01*
X160794645Y-59064086D01*
X160794649Y-59064093D01*
X160880809Y-59179187D01*
X160880812Y-59179190D01*
X160995906Y-59265350D01*
X160995913Y-59265354D01*
X161130620Y-59315596D01*
X161130627Y-59315598D01*
X161190155Y-59321999D01*
X161190172Y-59322000D01*
X161230793Y-59322000D01*
X161297832Y-59341685D01*
X161343587Y-59394489D01*
X161353531Y-59463647D01*
X161324506Y-59527203D01*
X161301916Y-59547575D01*
X161185377Y-59629175D01*
X161029175Y-59785377D01*
X160902466Y-59966338D01*
X160902465Y-59966340D01*
X160809107Y-60166548D01*
X160809104Y-60166554D01*
X160751930Y-60379929D01*
X160751929Y-60379937D01*
X160732677Y-60599997D01*
X160732677Y-60600002D01*
X160751929Y-60820062D01*
X160751930Y-60820070D01*
X160809104Y-61033445D01*
X160809105Y-61033447D01*
X160809106Y-61033450D01*
X160902466Y-61233662D01*
X160902468Y-61233666D01*
X161029170Y-61414615D01*
X161029175Y-61414621D01*
X161185378Y-61570824D01*
X161185384Y-61570829D01*
X161366333Y-61697531D01*
X161366335Y-61697532D01*
X161366338Y-61697534D01*
X161485748Y-61753215D01*
X161495189Y-61757618D01*
X161547628Y-61803790D01*
X161566780Y-61870984D01*
X161546564Y-61937865D01*
X161495189Y-61982382D01*
X161366340Y-62042465D01*
X161366338Y-62042466D01*
X161185377Y-62169175D01*
X161029175Y-62325377D01*
X160902466Y-62506338D01*
X160902465Y-62506340D01*
X160809107Y-62706548D01*
X160809104Y-62706554D01*
X160751930Y-62919929D01*
X160751929Y-62919937D01*
X160732677Y-63139997D01*
X160732677Y-63140002D01*
X160751929Y-63360062D01*
X160751930Y-63360070D01*
X160809104Y-63573445D01*
X160809105Y-63573447D01*
X160809106Y-63573450D01*
X160902466Y-63773662D01*
X160902468Y-63773666D01*
X161029170Y-63954615D01*
X161029175Y-63954621D01*
X161185378Y-64110824D01*
X161185384Y-64110829D01*
X161366333Y-64237531D01*
X161366335Y-64237532D01*
X161366338Y-64237534D01*
X161485748Y-64293215D01*
X161495189Y-64297618D01*
X161547628Y-64343790D01*
X161566780Y-64410984D01*
X161546564Y-64477865D01*
X161495189Y-64522382D01*
X161366340Y-64582465D01*
X161366338Y-64582466D01*
X161185377Y-64709175D01*
X161029175Y-64865377D01*
X160902466Y-65046338D01*
X160902465Y-65046340D01*
X160809107Y-65246548D01*
X160809104Y-65246554D01*
X160751930Y-65459929D01*
X160751929Y-65459937D01*
X160732677Y-65679997D01*
X160732677Y-65680002D01*
X160751929Y-65900062D01*
X160751930Y-65900070D01*
X160809104Y-66113445D01*
X160809105Y-66113447D01*
X160809106Y-66113450D01*
X160902466Y-66313662D01*
X160902468Y-66313666D01*
X161029170Y-66494615D01*
X161029175Y-66494621D01*
X161185378Y-66650824D01*
X161185384Y-66650829D01*
X161366333Y-66777531D01*
X161366335Y-66777532D01*
X161366338Y-66777534D01*
X161485748Y-66833215D01*
X161495189Y-66837618D01*
X161547628Y-66883790D01*
X161566780Y-66950984D01*
X161546564Y-67017865D01*
X161495189Y-67062382D01*
X161366340Y-67122465D01*
X161366338Y-67122466D01*
X161185377Y-67249175D01*
X161029175Y-67405377D01*
X160902466Y-67586338D01*
X160902465Y-67586340D01*
X160809107Y-67786548D01*
X160809104Y-67786554D01*
X160751930Y-67999929D01*
X160751929Y-67999937D01*
X160732677Y-68219997D01*
X160732677Y-68220002D01*
X160751929Y-68440062D01*
X160751930Y-68440070D01*
X160809104Y-68653445D01*
X160809105Y-68653447D01*
X160809106Y-68653450D01*
X160902466Y-68853662D01*
X160902468Y-68853666D01*
X161029170Y-69034615D01*
X161029175Y-69034621D01*
X161185378Y-69190824D01*
X161185384Y-69190829D01*
X161366333Y-69317531D01*
X161366335Y-69317532D01*
X161366338Y-69317534D01*
X161485748Y-69373215D01*
X161495189Y-69377618D01*
X161547628Y-69423790D01*
X161566780Y-69490984D01*
X161546564Y-69557865D01*
X161495189Y-69602382D01*
X161366340Y-69662465D01*
X161366338Y-69662466D01*
X161185377Y-69789175D01*
X161029175Y-69945377D01*
X160902466Y-70126338D01*
X160902465Y-70126340D01*
X160809107Y-70326548D01*
X160809104Y-70326554D01*
X160751930Y-70539929D01*
X160751929Y-70539937D01*
X160732677Y-70759997D01*
X160732677Y-70760002D01*
X160751929Y-70980062D01*
X160751930Y-70980070D01*
X160809104Y-71193445D01*
X160809105Y-71193447D01*
X160809106Y-71193450D01*
X160902466Y-71393662D01*
X160902468Y-71393666D01*
X161029170Y-71574615D01*
X161029175Y-71574621D01*
X161185378Y-71730824D01*
X161185384Y-71730829D01*
X161366333Y-71857531D01*
X161366335Y-71857532D01*
X161366338Y-71857534D01*
X161485748Y-71913215D01*
X161495189Y-71917618D01*
X161547628Y-71963790D01*
X161566780Y-72030984D01*
X161546564Y-72097865D01*
X161495189Y-72142382D01*
X161366340Y-72202465D01*
X161366338Y-72202466D01*
X161185377Y-72329175D01*
X161029175Y-72485377D01*
X160902466Y-72666338D01*
X160902465Y-72666340D01*
X160809107Y-72866548D01*
X160809104Y-72866554D01*
X160751930Y-73079929D01*
X160751929Y-73079937D01*
X160732677Y-73299997D01*
X160732677Y-73300002D01*
X160751929Y-73520062D01*
X160751930Y-73520070D01*
X160809104Y-73733445D01*
X160809105Y-73733447D01*
X160809106Y-73733450D01*
X160902466Y-73933662D01*
X160902468Y-73933666D01*
X161029170Y-74114615D01*
X161029175Y-74114621D01*
X161185378Y-74270824D01*
X161185384Y-74270829D01*
X161366333Y-74397531D01*
X161366335Y-74397532D01*
X161366338Y-74397534D01*
X161485748Y-74453215D01*
X161495189Y-74457618D01*
X161547628Y-74503790D01*
X161566780Y-74570984D01*
X161546564Y-74637865D01*
X161495189Y-74682382D01*
X161366340Y-74742465D01*
X161366338Y-74742466D01*
X161185377Y-74869175D01*
X161029175Y-75025377D01*
X160902466Y-75206338D01*
X160902465Y-75206340D01*
X160809107Y-75406548D01*
X160809104Y-75406554D01*
X160751930Y-75619929D01*
X160751929Y-75619937D01*
X160732677Y-75839997D01*
X160732677Y-75840002D01*
X160751929Y-76060062D01*
X160751930Y-76060070D01*
X160809104Y-76273445D01*
X160809105Y-76273447D01*
X160809106Y-76273450D01*
X160902466Y-76473662D01*
X160902468Y-76473666D01*
X161029170Y-76654615D01*
X161029175Y-76654621D01*
X161185378Y-76810824D01*
X161185384Y-76810829D01*
X161366333Y-76937531D01*
X161366335Y-76937532D01*
X161366338Y-76937534D01*
X161485748Y-76993215D01*
X161495189Y-76997618D01*
X161547628Y-77043790D01*
X161566780Y-77110984D01*
X161546564Y-77177865D01*
X161495189Y-77222382D01*
X161366340Y-77282465D01*
X161366338Y-77282466D01*
X161185377Y-77409175D01*
X161029175Y-77565377D01*
X160902466Y-77746338D01*
X160902465Y-77746340D01*
X160809107Y-77946548D01*
X160809104Y-77946554D01*
X160751930Y-78159929D01*
X160751929Y-78159937D01*
X160732677Y-78379997D01*
X160732677Y-78380002D01*
X160751929Y-78600062D01*
X160751930Y-78600070D01*
X160809104Y-78813445D01*
X160809105Y-78813447D01*
X160809106Y-78813450D01*
X160902466Y-79013662D01*
X160902468Y-79013666D01*
X161029170Y-79194615D01*
X161029175Y-79194621D01*
X161185378Y-79350824D01*
X161185384Y-79350829D01*
X161366333Y-79477531D01*
X161366335Y-79477532D01*
X161366338Y-79477534D01*
X161485748Y-79533215D01*
X161495189Y-79537618D01*
X161547628Y-79583790D01*
X161566780Y-79650984D01*
X161546564Y-79717865D01*
X161495189Y-79762382D01*
X161366340Y-79822465D01*
X161366338Y-79822466D01*
X161185377Y-79949175D01*
X161029175Y-80105377D01*
X160902466Y-80286338D01*
X160902465Y-80286340D01*
X160809107Y-80486548D01*
X160809104Y-80486554D01*
X160751930Y-80699929D01*
X160751929Y-80699937D01*
X160732677Y-80919997D01*
X160732677Y-80920002D01*
X160751929Y-81140062D01*
X160751930Y-81140070D01*
X160809104Y-81353445D01*
X160809105Y-81353447D01*
X160809106Y-81353450D01*
X160902466Y-81553662D01*
X160902468Y-81553666D01*
X161029170Y-81734615D01*
X161029175Y-81734621D01*
X161185378Y-81890824D01*
X161185384Y-81890829D01*
X161366333Y-82017531D01*
X161366335Y-82017532D01*
X161366338Y-82017534D01*
X161485748Y-82073215D01*
X161495189Y-82077618D01*
X161547628Y-82123790D01*
X161566780Y-82190984D01*
X161546564Y-82257865D01*
X161495189Y-82302382D01*
X161366335Y-82362467D01*
X161348166Y-82375189D01*
X161281959Y-82397513D01*
X161214192Y-82380499D01*
X161189367Y-82361291D01*
X142240019Y-63411943D01*
X142206534Y-63350620D01*
X142203700Y-63324262D01*
X142203700Y-53551317D01*
X156257966Y-53551317D01*
X156257966Y-53551322D01*
X156277048Y-53903274D01*
X156282114Y-53934174D01*
X156333890Y-54250000D01*
X156334073Y-54251113D01*
X156334074Y-54251116D01*
X156428366Y-54590728D01*
X156428367Y-54590730D01*
X156558828Y-54918164D01*
X156558833Y-54918174D01*
X156723935Y-55229589D01*
X156919502Y-55518029D01*
X156921738Y-55521326D01*
X156921745Y-55521336D01*
X157046832Y-55668599D01*
X157149926Y-55789970D01*
X157405820Y-56032366D01*
X157686422Y-56245674D01*
X157988442Y-56427394D01*
X157988446Y-56427395D01*
X157988450Y-56427398D01*
X158308328Y-56575390D01*
X158308332Y-56575390D01*
X158308339Y-56575394D01*
X158642362Y-56687939D01*
X158986595Y-56763711D01*
X159337003Y-56801820D01*
X159337009Y-56801820D01*
X159689471Y-56801820D01*
X159689477Y-56801820D01*
X160039885Y-56763711D01*
X160384118Y-56687939D01*
X160718141Y-56575394D01*
X160718148Y-56575390D01*
X160718151Y-56575390D01*
X161038029Y-56427398D01*
X161038038Y-56427394D01*
X161340058Y-56245674D01*
X161620660Y-56032366D01*
X161876554Y-55789970D01*
X162104741Y-55521328D01*
X162302545Y-55229589D01*
X162467647Y-54918174D01*
X162598111Y-54590734D01*
X162608882Y-54551943D01*
X162633226Y-54464262D01*
X162692408Y-54251108D01*
X162749431Y-53903277D01*
X162768514Y-53551320D01*
X162765731Y-53500000D01*
X162749431Y-53199365D01*
X162749431Y-53199363D01*
X162692408Y-52851532D01*
X162636453Y-52650000D01*
X162598113Y-52511911D01*
X162598112Y-52511909D01*
X162467651Y-52184475D01*
X162467642Y-52184457D01*
X162302544Y-51873050D01*
X162222478Y-51754961D01*
X162104741Y-51581312D01*
X162104737Y-51581307D01*
X162104734Y-51581303D01*
X161876554Y-51312670D01*
X161620660Y-51070274D01*
X161620653Y-51070268D01*
X161620650Y-51070266D01*
X161340055Y-50856964D01*
X161038042Y-50675248D01*
X161038029Y-50675241D01*
X160718151Y-50527249D01*
X160718146Y-50527248D01*
X160718143Y-50527247D01*
X160718141Y-50527246D01*
X160611672Y-50491372D01*
X160384120Y-50414701D01*
X160039883Y-50338928D01*
X159689478Y-50300820D01*
X159689477Y-50300820D01*
X159337003Y-50300820D01*
X159337001Y-50300820D01*
X158986596Y-50338928D01*
X158642359Y-50414701D01*
X158308333Y-50527248D01*
X158308328Y-50527249D01*
X157988450Y-50675241D01*
X157988437Y-50675248D01*
X157686424Y-50856964D01*
X157405829Y-51070266D01*
X157405820Y-51070274D01*
X157149925Y-51312670D01*
X156921745Y-51581303D01*
X156921738Y-51581313D01*
X156723935Y-51873050D01*
X156558837Y-52184457D01*
X156558828Y-52184475D01*
X156428367Y-52511909D01*
X156428366Y-52511911D01*
X156334074Y-52851523D01*
X156334073Y-52851526D01*
X156277048Y-53199365D01*
X156257966Y-53551317D01*
X142203700Y-53551317D01*
X142203700Y-51754961D01*
X142203701Y-51754952D01*
X142203701Y-51659482D01*
X142203700Y-51659478D01*
X142182129Y-51607403D01*
X142182128Y-51607400D01*
X142182128Y-51607401D01*
X142172689Y-51584614D01*
X142172689Y-51584613D01*
X142115387Y-51527311D01*
X142108322Y-51520246D01*
X142108315Y-51520240D01*
X138040019Y-47451944D01*
X138006534Y-47390621D01*
X138003700Y-47364263D01*
X138003700Y-46829518D01*
X138023385Y-46762479D01*
X138076189Y-46716724D01*
X138086740Y-46712478D01*
X138134982Y-46695598D01*
X138281368Y-46603617D01*
X138403617Y-46481368D01*
X138495598Y-46334982D01*
X138552698Y-46171798D01*
X138572055Y-46000000D01*
X138552698Y-45828202D01*
X138495598Y-45665018D01*
X138403617Y-45518632D01*
X138281368Y-45396383D01*
X138281367Y-45396382D01*
X138134983Y-45304402D01*
X137971795Y-45247301D01*
X137800004Y-45227945D01*
X137799996Y-45227945D01*
X137628204Y-45247301D01*
X137465016Y-45304402D01*
X137318632Y-45396382D01*
X137196382Y-45518632D01*
X137104402Y-45665016D01*
X137047301Y-45828204D01*
X137027945Y-45999996D01*
X132803700Y-45999996D01*
X132803700Y-43335737D01*
X132823385Y-43268698D01*
X132840019Y-43248056D01*
X133060765Y-43027310D01*
X138172689Y-37915387D01*
X138172689Y-37915385D01*
X138172691Y-37915384D01*
X138188194Y-37877953D01*
X138203700Y-37840519D01*
X138203700Y-37759482D01*
X138203700Y-37229518D01*
X138223385Y-37162479D01*
X138276189Y-37116724D01*
X138286740Y-37112478D01*
X138334982Y-37095598D01*
X138481368Y-37003617D01*
X138603617Y-36881368D01*
X138695598Y-36734982D01*
X138752698Y-36571798D01*
X138772055Y-36400000D01*
X138752698Y-36228202D01*
X138695598Y-36065018D01*
X138603617Y-35918632D01*
X138481368Y-35796383D01*
X138481367Y-35796382D01*
X138334983Y-35704402D01*
X138171795Y-35647301D01*
X138000004Y-35627945D01*
X137999996Y-35627945D01*
X137828204Y-35647301D01*
X137665016Y-35704402D01*
X137518632Y-35796382D01*
X137396382Y-35918632D01*
X137304402Y-36065016D01*
X137247301Y-36228204D01*
X137227945Y-36399996D01*
X137227945Y-36400003D01*
X137247301Y-36571795D01*
X137304402Y-36734983D01*
X137317981Y-36756593D01*
X137396383Y-36881368D01*
X137518632Y-37003617D01*
X137665018Y-37095598D01*
X137713254Y-37112476D01*
X137770030Y-37153197D01*
X137795778Y-37218150D01*
X137796300Y-37229518D01*
X137796300Y-37664262D01*
X137776615Y-37731301D01*
X137759981Y-37751943D01*
X132427310Y-43084613D01*
X132427308Y-43084615D01*
X132396301Y-43159477D01*
X132396300Y-43159482D01*
X132396300Y-54640517D01*
X132396301Y-54640522D01*
X132427308Y-54715384D01*
X132502049Y-54790125D01*
X132502055Y-54790130D01*
X134322281Y-56610356D01*
X134355766Y-56671679D01*
X134350782Y-56741371D01*
X134322282Y-56785717D01*
X134310000Y-56797999D01*
X134310000Y-57617748D01*
X134256081Y-57586619D01*
X134126880Y-57552000D01*
X133993120Y-57552000D01*
X133863919Y-57586619D01*
X133810000Y-57617748D01*
X133810000Y-56798000D01*
X133250155Y-56798000D01*
X133190627Y-56804401D01*
X133190620Y-56804403D01*
X133055913Y-56854645D01*
X133055906Y-56854649D01*
X132940812Y-56940809D01*
X132940809Y-56940812D01*
X132854649Y-57055906D01*
X132854645Y-57055913D01*
X132804403Y-57190620D01*
X132804401Y-57190627D01*
X132798000Y-57250155D01*
X132798000Y-57810000D01*
X133617749Y-57810000D01*
X133586619Y-57863919D01*
X133552000Y-57993120D01*
X133552000Y-58126880D01*
X133586619Y-58256081D01*
X133617749Y-58310000D01*
X132798000Y-58310000D01*
X132798000Y-58869844D01*
X132804401Y-58929372D01*
X132804403Y-58929379D01*
X132854645Y-59064086D01*
X132854649Y-59064093D01*
X132940809Y-59179187D01*
X132940812Y-59179190D01*
X133055906Y-59265350D01*
X133055913Y-59265354D01*
X133190620Y-59315596D01*
X133190627Y-59315598D01*
X133250155Y-59321999D01*
X133250172Y-59322000D01*
X133290793Y-59322000D01*
X133357832Y-59341685D01*
X133403587Y-59394489D01*
X133413531Y-59463647D01*
X133384506Y-59527203D01*
X133361916Y-59547575D01*
X133245377Y-59629175D01*
X133089175Y-59785377D01*
X132962466Y-59966338D01*
X132962465Y-59966340D01*
X132869107Y-60166548D01*
X132869104Y-60166554D01*
X132811930Y-60379929D01*
X132811929Y-60379937D01*
X132792677Y-60599997D01*
X132792677Y-60600002D01*
X132811929Y-60820062D01*
X132811930Y-60820070D01*
X132869104Y-61033445D01*
X132869105Y-61033447D01*
X132869106Y-61033450D01*
X132962466Y-61233662D01*
X132962468Y-61233666D01*
X133089170Y-61414615D01*
X133089175Y-61414621D01*
X133245378Y-61570824D01*
X133245384Y-61570829D01*
X133426333Y-61697531D01*
X133426335Y-61697532D01*
X133426338Y-61697534D01*
X133545748Y-61753215D01*
X133555189Y-61757618D01*
X133607628Y-61803790D01*
X133626780Y-61870984D01*
X133606564Y-61937865D01*
X133555189Y-61982382D01*
X133426340Y-62042465D01*
X133426338Y-62042466D01*
X133245377Y-62169175D01*
X133089175Y-62325377D01*
X132962466Y-62506338D01*
X132962465Y-62506340D01*
X132869107Y-62706548D01*
X132869104Y-62706554D01*
X132811930Y-62919929D01*
X132811929Y-62919937D01*
X132792677Y-63139997D01*
X132792677Y-63140002D01*
X132811929Y-63360062D01*
X132811930Y-63360070D01*
X132869104Y-63573445D01*
X132869105Y-63573447D01*
X132869106Y-63573450D01*
X132962466Y-63773662D01*
X132962468Y-63773666D01*
X133089170Y-63954615D01*
X133089175Y-63954621D01*
X133245378Y-64110824D01*
X133245384Y-64110829D01*
X133426333Y-64237531D01*
X133426335Y-64237532D01*
X133426338Y-64237534D01*
X133545748Y-64293215D01*
X133555189Y-64297618D01*
X133607628Y-64343790D01*
X133626780Y-64410984D01*
X133606564Y-64477865D01*
X133555189Y-64522382D01*
X133426340Y-64582465D01*
X133426338Y-64582466D01*
X133245377Y-64709175D01*
X133089175Y-64865377D01*
X132962466Y-65046338D01*
X132962465Y-65046340D01*
X132869107Y-65246548D01*
X132869104Y-65246554D01*
X132811930Y-65459929D01*
X132811929Y-65459937D01*
X132792677Y-65679997D01*
X132792677Y-65680002D01*
X132811929Y-65900062D01*
X132811930Y-65900070D01*
X132869104Y-66113445D01*
X132869105Y-66113447D01*
X132869106Y-66113450D01*
X132962466Y-66313662D01*
X132962468Y-66313666D01*
X133089170Y-66494615D01*
X133089175Y-66494621D01*
X133245378Y-66650824D01*
X133245384Y-66650829D01*
X133426333Y-66777531D01*
X133426335Y-66777532D01*
X133426338Y-66777534D01*
X133545748Y-66833215D01*
X133555189Y-66837618D01*
X133607628Y-66883790D01*
X133626780Y-66950984D01*
X133606564Y-67017865D01*
X133555189Y-67062382D01*
X133426335Y-67122467D01*
X133408166Y-67135189D01*
X133341959Y-67157513D01*
X133274192Y-67140499D01*
X133249367Y-67121291D01*
X123290087Y-57162012D01*
X123256602Y-57100689D01*
X123261586Y-57030997D01*
X123265381Y-57021937D01*
X123273903Y-57003663D01*
X123335063Y-56775408D01*
X123355659Y-56540000D01*
X123335063Y-56304592D01*
X123273903Y-56076337D01*
X123174035Y-55862171D01*
X123038495Y-55668599D01*
X122916179Y-55546283D01*
X122882696Y-55484963D01*
X122887680Y-55415271D01*
X122929551Y-55359337D01*
X122960529Y-55342422D01*
X123092086Y-55293354D01*
X123092093Y-55293350D01*
X123207187Y-55207190D01*
X123207190Y-55207187D01*
X123293350Y-55092093D01*
X123293354Y-55092086D01*
X123343596Y-54957379D01*
X123343598Y-54957372D01*
X123349999Y-54897844D01*
X123350000Y-54897827D01*
X123350000Y-54250000D01*
X122433012Y-54250000D01*
X122465925Y-54192993D01*
X122500000Y-54065826D01*
X122500000Y-53934174D01*
X122465925Y-53807007D01*
X122433012Y-53750000D01*
X123350000Y-53750000D01*
X123350000Y-53102172D01*
X123349999Y-53102155D01*
X123343598Y-53042627D01*
X123343596Y-53042620D01*
X123293354Y-52907913D01*
X123293350Y-52907906D01*
X123207190Y-52792812D01*
X123207187Y-52792809D01*
X123092093Y-52706649D01*
X123092086Y-52706645D01*
X122957379Y-52656403D01*
X122957372Y-52656401D01*
X122897844Y-52650000D01*
X122250000Y-52650000D01*
X122250000Y-53566988D01*
X122192993Y-53534075D01*
X122065826Y-53500000D01*
X121934174Y-53500000D01*
X121807007Y-53534075D01*
X121750000Y-53566988D01*
X121750000Y-52650000D01*
X121102155Y-52650000D01*
X121042627Y-52656401D01*
X121042620Y-52656403D01*
X120907913Y-52706645D01*
X120907906Y-52706649D01*
X120792812Y-52792809D01*
X120792809Y-52792812D01*
X120706649Y-52907906D01*
X120706645Y-52907913D01*
X120656403Y-53042620D01*
X120656401Y-53042627D01*
X120650000Y-53102155D01*
X120650000Y-53750000D01*
X121566988Y-53750000D01*
X121534075Y-53807007D01*
X121500000Y-53934174D01*
X121500000Y-54065826D01*
X121534075Y-54192993D01*
X121566988Y-54250000D01*
X120650000Y-54250000D01*
X120650000Y-54897844D01*
X120656401Y-54957372D01*
X120656403Y-54957379D01*
X120706645Y-55092086D01*
X120706649Y-55092093D01*
X120792809Y-55207187D01*
X120792812Y-55207190D01*
X120907906Y-55293350D01*
X120907913Y-55293354D01*
X121039470Y-55342421D01*
X121095403Y-55384292D01*
X121119821Y-55449756D01*
X121104970Y-55518029D01*
X121083819Y-55546284D01*
X120961503Y-55668600D01*
X120825965Y-55862169D01*
X120825964Y-55862171D01*
X120726098Y-56076335D01*
X120726094Y-56076344D01*
X120664938Y-56304586D01*
X120664936Y-56304596D01*
X120644341Y-56539999D01*
X115000000Y-56539999D01*
X115000000Y-33624000D01*
X115019685Y-33556961D01*
X115072489Y-33511206D01*
X115124000Y-33500000D01*
X116458683Y-33500000D01*
X116525722Y-33519685D01*
G37*
%TD.AperFunction*%
%TD*%
M02*
