M48
; DRILL file {KiCad 8.0.7-8.0.7-0~ubuntu24.04.1} date 2025-01-10T19:12:25-0600
; FORMAT={-:-/ absolute / inch / decimal}
; #@! TF.CreationDate,2025-01-10T19:12:25-06:00
; #@! TF.GenerationSoftware,Kicad,Pcbnew,8.0.7-8.0.7-0~ubuntu24.04.1
; #@! TF.FileFunction,Plated,1,4,PTH
FMAT,2
INCH
; #@! TA.AperFunction,Plated,PTH,ViaDrill
T1C0.0130
; #@! TA.AperFunction,Plated,PTH,ComponentDrill
T2C0.0394
; #@! TA.AperFunction,Plated,PTH,ComponentDrill
T3C0.0400
; #@! TA.AperFunction,Plated,PTH,ComponentDrill
T4C0.1083
%
G90
G05
T1
X4.6063Y-2.9528
X4.6654Y-2.9528
X4.7244Y-4.3504
X4.7441Y-3.7992
X4.7559Y-1.8504
X4.7638Y-2.9528
X4.7795Y-4.0945
X4.7835Y-2.9921
X4.9213Y-3.3465
X4.9409Y-1.9685
X4.9803Y-2.9921
X4.9803Y-4.5866
X5.0Y-3.8189
X5.0Y-4.1358
X5.0157Y-2.5039
X5.0197Y-3.9961
X5.0394Y-2.9921
X5.0591Y-2.1063
X5.0787Y-3.7205
X5.1181Y-3.6024
X5.1575Y-3.563
X5.2992Y-1.4803
X5.3346Y-4.6063
X5.3543Y-1.7913
X5.374Y-3.8976
X5.374Y-4.0748
X5.4173Y-3.1496
X5.4331Y-1.6929
X5.4921Y-3.4646
X5.5118Y-3.1496
X5.5512Y-1.7717
X5.5512Y-2.9685
X5.5709Y-2.6969
X5.5906Y-1.4173
X5.6496Y-1.6732
X5.7283Y-1.811
X5.7874Y-1.6614
X5.8268Y-3.0236
X5.8858Y-1.752
X5.9449Y-1.3386
X6.0236Y-1.7124
X6.0236Y-2.5787
X6.0433Y-1.7913
X6.0433Y-1.9488
X6.1614Y-2.9134
X6.1614Y-3.4646
X6.1811Y-3.1496
X6.2008Y-1.7717
X6.2795Y-3.8976
X6.2795Y-4.0945
X6.3583Y-4.626
X6.4488Y-1.4016
X6.4764Y-1.7913
X6.4961Y-2.1457
X6.5551Y-2.1654
X6.6339Y-1.6929
X6.6339Y-4.3307
X6.6535Y-3.8976
X6.6732Y-2.9331
X6.6732Y-3.4449
T2
X4.8031Y-2.126
X4.8031Y-2.226
X4.8031Y-2.326
T3
X5.278Y-2.2858
X5.278Y-2.3858
X5.278Y-2.4858
X5.278Y-2.5858
X5.278Y-2.6858
X5.278Y-2.7858
X5.278Y-2.8858
X5.278Y-2.9858
X5.278Y-3.0858
X5.278Y-3.1858
X5.278Y-3.2858
X5.278Y-3.3858
X6.378Y-2.2858
X6.378Y-2.3858
X6.378Y-2.4858
X6.378Y-2.5858
X6.378Y-2.6858
X6.378Y-2.7858
X6.378Y-2.8858
X6.378Y-2.9858
X6.378Y-3.0858
X6.378Y-3.1858
X6.378Y-3.2858
X6.378Y-3.3858
T4
X5.3745Y-2.1083
X5.3745Y-4.3918
X6.28Y-2.1083
X6.28Y-4.3918
M30
