%TF.GenerationSoftware,KiCad,Pcbnew,8.0.8-8.0.8-0~ubuntu24.04.1*%
%TF.CreationDate,2025-02-21T21:48:45-06:00*%
%TF.ProjectId,edge_human_detection_board,65646765-5f68-4756-9d61-6e5f64657465,rev?*%
%TF.SameCoordinates,Original*%
%TF.FileFunction,Soldermask,Bot*%
%TF.FilePolarity,Negative*%
%FSLAX46Y46*%
G04 Gerber Fmt 4.6, Leading zero omitted, Abs format (unit mm)*
G04 Created by KiCad (PCBNEW 8.0.8-8.0.8-0~ubuntu24.04.1) date 2025-02-21 21:48:45*
%MOMM*%
%LPD*%
G01*
G04 APERTURE LIST*
G04 APERTURE END LIST*
G36*
X93050295Y-136619699D02*
G01*
X93294427Y-136678310D01*
X93526385Y-136774390D01*
X93740456Y-136905573D01*
X93931371Y-137068629D01*
X94094427Y-137259544D01*
X94225610Y-137473615D01*
X94321690Y-137705573D01*
X94380301Y-137949705D01*
X94400000Y-138200000D01*
X94380301Y-138450295D01*
X94321690Y-138694427D01*
X94225610Y-138926385D01*
X94094427Y-139140456D01*
X93931371Y-139331371D01*
X93740456Y-139494427D01*
X93526385Y-139625610D01*
X93294427Y-139721690D01*
X93050295Y-139780301D01*
X92800000Y-139800000D01*
X92549705Y-139780301D01*
X92305573Y-139721690D01*
X92073615Y-139625610D01*
X91859544Y-139494427D01*
X91668629Y-139331371D01*
X91505573Y-139140456D01*
X91374390Y-138926385D01*
X91278310Y-138694427D01*
X91219699Y-138450295D01*
X91200000Y-138200000D01*
X91219699Y-137949705D01*
X91278310Y-137705573D01*
X91374390Y-137473615D01*
X91505573Y-137259544D01*
X91668629Y-137068629D01*
X91859544Y-136905573D01*
X92073615Y-136774390D01*
X92305573Y-136678310D01*
X92549705Y-136619699D01*
X92800000Y-136600000D01*
X93050295Y-136619699D01*
G37*
G36*
X137050295Y-136619699D02*
G01*
X137294427Y-136678310D01*
X137526385Y-136774390D01*
X137740456Y-136905573D01*
X137931371Y-137068629D01*
X138094427Y-137259544D01*
X138225610Y-137473615D01*
X138321690Y-137705573D01*
X138380301Y-137949705D01*
X138400000Y-138200000D01*
X138380301Y-138450295D01*
X138321690Y-138694427D01*
X138225610Y-138926385D01*
X138094427Y-139140456D01*
X137931371Y-139331371D01*
X137740456Y-139494427D01*
X137526385Y-139625610D01*
X137294427Y-139721690D01*
X137050295Y-139780301D01*
X136800000Y-139800000D01*
X136549705Y-139780301D01*
X136305573Y-139721690D01*
X136073615Y-139625610D01*
X135859544Y-139494427D01*
X135668629Y-139331371D01*
X135505573Y-139140456D01*
X135374390Y-138926385D01*
X135278310Y-138694427D01*
X135219699Y-138450295D01*
X135200000Y-138200000D01*
X135219699Y-137949705D01*
X135278310Y-137705573D01*
X135374390Y-137473615D01*
X135505573Y-137259544D01*
X135668629Y-137068629D01*
X135859544Y-136905573D01*
X136073615Y-136774390D01*
X136305573Y-136678310D01*
X136549705Y-136619699D01*
X136800000Y-136600000D01*
X137050295Y-136619699D01*
G37*
G36*
X109987789Y-136890672D02*
G01*
X110177072Y-136964000D01*
X110349658Y-137070861D01*
X110499670Y-137207615D01*
X110621999Y-137369605D01*
X110712479Y-137551314D01*
X110768030Y-137746556D01*
X110786760Y-137948680D01*
X110768030Y-138150804D01*
X110712479Y-138346046D01*
X110621999Y-138527755D01*
X110499670Y-138689745D01*
X110349658Y-138826499D01*
X110177072Y-138933360D01*
X109987789Y-139006688D01*
X109788255Y-139043988D01*
X109585265Y-139043988D01*
X109385731Y-139006688D01*
X109196448Y-138933360D01*
X109023862Y-138826499D01*
X108873850Y-138689745D01*
X108751521Y-138527755D01*
X108661041Y-138346046D01*
X108605490Y-138150804D01*
X108586760Y-137948680D01*
X108605490Y-137746556D01*
X108661041Y-137551314D01*
X108751521Y-137369605D01*
X108873850Y-137207615D01*
X109023862Y-137070861D01*
X109196448Y-136964000D01*
X109385731Y-136890672D01*
X109585265Y-136853372D01*
X109788255Y-136853372D01*
X109987789Y-136890672D01*
G37*
G36*
X121987789Y-136890672D02*
G01*
X122177072Y-136964000D01*
X122349658Y-137070861D01*
X122499670Y-137207615D01*
X122621999Y-137369605D01*
X122712479Y-137551314D01*
X122768030Y-137746556D01*
X122786760Y-137948680D01*
X122768030Y-138150804D01*
X122712479Y-138346046D01*
X122621999Y-138527755D01*
X122499670Y-138689745D01*
X122349658Y-138826499D01*
X122177072Y-138933360D01*
X121987789Y-139006688D01*
X121788255Y-139043988D01*
X121585265Y-139043988D01*
X121385731Y-139006688D01*
X121196448Y-138933360D01*
X121023862Y-138826499D01*
X120873850Y-138689745D01*
X120751521Y-138527755D01*
X120661041Y-138346046D01*
X120605490Y-138150804D01*
X120586760Y-137948680D01*
X120605490Y-137746556D01*
X120661041Y-137551314D01*
X120751521Y-137369605D01*
X120873850Y-137207615D01*
X121023862Y-137070861D01*
X121196448Y-136964000D01*
X121385731Y-136890672D01*
X121585265Y-136853372D01*
X121788255Y-136853372D01*
X121987789Y-136890672D01*
G37*
G36*
X101788712Y-105641407D02*
G01*
X101831608Y-105641407D01*
X101880003Y-105651693D01*
X101927447Y-105657039D01*
X101961940Y-105669108D01*
X101997596Y-105676687D01*
X102048976Y-105699563D01*
X102099074Y-105717093D01*
X102125153Y-105733480D01*
X102152620Y-105745709D01*
X102203837Y-105782920D01*
X102253034Y-105813833D01*
X102270700Y-105831499D01*
X102289906Y-105845453D01*
X102337387Y-105898186D01*
X102381607Y-105942406D01*
X102391778Y-105958593D01*
X102403456Y-105971563D01*
X102443399Y-106040747D01*
X102478347Y-106096366D01*
X102482710Y-106108837D01*
X102488301Y-106118520D01*
X102516939Y-106206657D01*
X102538401Y-106267993D01*
X102539214Y-106275212D01*
X102540742Y-106279914D01*
X102554581Y-106411595D01*
X102558760Y-106448680D01*
X102554581Y-106485767D01*
X102540742Y-106617445D01*
X102539214Y-106622145D01*
X102538401Y-106629367D01*
X102516934Y-106690715D01*
X102488301Y-106778839D01*
X102482711Y-106788519D01*
X102478347Y-106800994D01*
X102443392Y-106856624D01*
X102403456Y-106925796D01*
X102391780Y-106938762D01*
X102381607Y-106954954D01*
X102337378Y-106999182D01*
X102289906Y-107051906D01*
X102270703Y-107065857D01*
X102253034Y-107083527D01*
X102203827Y-107114445D01*
X102152620Y-107151650D01*
X102125159Y-107163876D01*
X102099074Y-107180267D01*
X102048966Y-107197800D01*
X101997596Y-107220672D01*
X101961945Y-107228249D01*
X101927447Y-107240321D01*
X101880000Y-107245667D01*
X101831608Y-107255953D01*
X101788712Y-107255953D01*
X101746760Y-107260680D01*
X101704808Y-107255953D01*
X101661912Y-107255953D01*
X101613518Y-107245666D01*
X101566073Y-107240321D01*
X101531575Y-107228249D01*
X101495923Y-107220672D01*
X101444549Y-107197798D01*
X101394446Y-107180267D01*
X101368363Y-107163878D01*
X101340899Y-107151650D01*
X101289685Y-107114441D01*
X101240486Y-107083527D01*
X101222818Y-107065859D01*
X101203613Y-107051906D01*
X101156131Y-106999172D01*
X101111913Y-106954954D01*
X101101741Y-106938766D01*
X101090063Y-106925796D01*
X101050115Y-106856604D01*
X101015173Y-106800994D01*
X101010809Y-106788524D01*
X101005218Y-106778839D01*
X100976571Y-106690675D01*
X100955119Y-106629367D01*
X100954305Y-106622150D01*
X100952777Y-106617445D01*
X100938923Y-106485635D01*
X100934760Y-106448680D01*
X100938923Y-106411727D01*
X100952777Y-106279914D01*
X100954306Y-106275208D01*
X100955119Y-106267993D01*
X100976566Y-106206697D01*
X101005218Y-106118520D01*
X101010810Y-106108833D01*
X101015173Y-106096366D01*
X101050108Y-106040766D01*
X101090063Y-105971563D01*
X101101743Y-105958590D01*
X101111913Y-105942406D01*
X101156122Y-105898196D01*
X101203613Y-105845453D01*
X101222822Y-105831496D01*
X101240486Y-105813833D01*
X101289679Y-105782922D01*
X101340900Y-105745709D01*
X101368366Y-105733479D01*
X101394446Y-105717093D01*
X101444540Y-105699564D01*
X101495923Y-105676687D01*
X101531580Y-105669108D01*
X101566073Y-105657039D01*
X101613515Y-105651693D01*
X101661912Y-105641407D01*
X101704808Y-105641407D01*
X101746760Y-105636680D01*
X101788712Y-105641407D01*
G37*
G36*
X129728712Y-105641407D02*
G01*
X129771608Y-105641407D01*
X129820003Y-105651693D01*
X129867447Y-105657039D01*
X129901940Y-105669108D01*
X129937596Y-105676687D01*
X129988976Y-105699563D01*
X130039074Y-105717093D01*
X130065153Y-105733480D01*
X130092620Y-105745709D01*
X130143837Y-105782920D01*
X130193034Y-105813833D01*
X130210700Y-105831499D01*
X130229906Y-105845453D01*
X130277387Y-105898186D01*
X130321607Y-105942406D01*
X130331778Y-105958593D01*
X130343456Y-105971563D01*
X130383399Y-106040747D01*
X130418347Y-106096366D01*
X130422710Y-106108837D01*
X130428301Y-106118520D01*
X130456939Y-106206657D01*
X130478401Y-106267993D01*
X130479214Y-106275212D01*
X130480742Y-106279914D01*
X130494581Y-106411595D01*
X130498760Y-106448680D01*
X130494581Y-106485767D01*
X130480742Y-106617445D01*
X130479214Y-106622145D01*
X130478401Y-106629367D01*
X130456934Y-106690715D01*
X130428301Y-106778839D01*
X130422711Y-106788519D01*
X130418347Y-106800994D01*
X130383392Y-106856624D01*
X130343456Y-106925796D01*
X130331780Y-106938762D01*
X130321607Y-106954954D01*
X130277378Y-106999182D01*
X130229906Y-107051906D01*
X130210703Y-107065857D01*
X130193034Y-107083527D01*
X130143827Y-107114445D01*
X130092620Y-107151650D01*
X130065159Y-107163876D01*
X130039074Y-107180267D01*
X129988966Y-107197800D01*
X129937596Y-107220672D01*
X129901945Y-107228249D01*
X129867447Y-107240321D01*
X129820000Y-107245667D01*
X129771608Y-107255953D01*
X129728712Y-107255953D01*
X129686760Y-107260680D01*
X129644808Y-107255953D01*
X129601912Y-107255953D01*
X129553518Y-107245666D01*
X129506073Y-107240321D01*
X129471575Y-107228249D01*
X129435923Y-107220672D01*
X129384549Y-107197798D01*
X129334446Y-107180267D01*
X129308363Y-107163878D01*
X129280899Y-107151650D01*
X129229685Y-107114441D01*
X129180486Y-107083527D01*
X129162818Y-107065859D01*
X129143613Y-107051906D01*
X129096131Y-106999172D01*
X129051913Y-106954954D01*
X129041741Y-106938766D01*
X129030063Y-106925796D01*
X128990115Y-106856604D01*
X128955173Y-106800994D01*
X128950809Y-106788524D01*
X128945218Y-106778839D01*
X128916571Y-106690675D01*
X128895119Y-106629367D01*
X128894305Y-106622150D01*
X128892777Y-106617445D01*
X128878923Y-106485635D01*
X128874760Y-106448680D01*
X128878923Y-106411727D01*
X128892777Y-106279914D01*
X128894306Y-106275208D01*
X128895119Y-106267993D01*
X128916566Y-106206697D01*
X128945218Y-106118520D01*
X128950810Y-106108833D01*
X128955173Y-106096366D01*
X128990108Y-106040766D01*
X129030063Y-105971563D01*
X129041743Y-105958590D01*
X129051913Y-105942406D01*
X129096122Y-105898196D01*
X129143613Y-105845453D01*
X129162822Y-105831496D01*
X129180486Y-105813833D01*
X129229679Y-105782922D01*
X129280900Y-105745709D01*
X129308366Y-105733479D01*
X129334446Y-105717093D01*
X129384540Y-105699564D01*
X129435923Y-105676687D01*
X129471580Y-105669108D01*
X129506073Y-105657039D01*
X129553515Y-105651693D01*
X129601912Y-105641407D01*
X129644808Y-105641407D01*
X129686760Y-105636680D01*
X129728712Y-105641407D01*
G37*
G36*
X101788712Y-103101407D02*
G01*
X101831608Y-103101407D01*
X101880003Y-103111693D01*
X101927447Y-103117039D01*
X101961940Y-103129108D01*
X101997596Y-103136687D01*
X102048976Y-103159563D01*
X102099074Y-103177093D01*
X102125153Y-103193480D01*
X102152620Y-103205709D01*
X102203837Y-103242920D01*
X102253034Y-103273833D01*
X102270700Y-103291499D01*
X102289906Y-103305453D01*
X102337387Y-103358186D01*
X102381607Y-103402406D01*
X102391778Y-103418593D01*
X102403456Y-103431563D01*
X102443399Y-103500747D01*
X102478347Y-103556366D01*
X102482710Y-103568837D01*
X102488301Y-103578520D01*
X102516939Y-103666657D01*
X102538401Y-103727993D01*
X102539214Y-103735212D01*
X102540742Y-103739914D01*
X102554581Y-103871595D01*
X102558760Y-103908680D01*
X102554581Y-103945767D01*
X102540742Y-104077445D01*
X102539214Y-104082145D01*
X102538401Y-104089367D01*
X102516934Y-104150715D01*
X102488301Y-104238839D01*
X102482711Y-104248519D01*
X102478347Y-104260994D01*
X102443392Y-104316624D01*
X102403456Y-104385796D01*
X102391780Y-104398762D01*
X102381607Y-104414954D01*
X102337378Y-104459182D01*
X102289906Y-104511906D01*
X102270703Y-104525857D01*
X102253034Y-104543527D01*
X102203827Y-104574445D01*
X102152620Y-104611650D01*
X102125159Y-104623876D01*
X102099074Y-104640267D01*
X102048966Y-104657800D01*
X101997596Y-104680672D01*
X101961945Y-104688249D01*
X101927447Y-104700321D01*
X101880000Y-104705667D01*
X101831608Y-104715953D01*
X101788712Y-104715953D01*
X101746760Y-104720680D01*
X101704808Y-104715953D01*
X101661912Y-104715953D01*
X101613518Y-104705666D01*
X101566073Y-104700321D01*
X101531575Y-104688249D01*
X101495923Y-104680672D01*
X101444549Y-104657798D01*
X101394446Y-104640267D01*
X101368363Y-104623878D01*
X101340899Y-104611650D01*
X101289685Y-104574441D01*
X101240486Y-104543527D01*
X101222818Y-104525859D01*
X101203613Y-104511906D01*
X101156131Y-104459172D01*
X101111913Y-104414954D01*
X101101741Y-104398766D01*
X101090063Y-104385796D01*
X101050115Y-104316604D01*
X101015173Y-104260994D01*
X101010809Y-104248524D01*
X101005218Y-104238839D01*
X100976571Y-104150675D01*
X100955119Y-104089367D01*
X100954305Y-104082150D01*
X100952777Y-104077445D01*
X100938923Y-103945635D01*
X100934760Y-103908680D01*
X100938923Y-103871727D01*
X100952777Y-103739914D01*
X100954306Y-103735208D01*
X100955119Y-103727993D01*
X100976566Y-103666697D01*
X101005218Y-103578520D01*
X101010810Y-103568833D01*
X101015173Y-103556366D01*
X101050108Y-103500766D01*
X101090063Y-103431563D01*
X101101743Y-103418590D01*
X101111913Y-103402406D01*
X101156122Y-103358196D01*
X101203613Y-103305453D01*
X101222822Y-103291496D01*
X101240486Y-103273833D01*
X101289679Y-103242922D01*
X101340900Y-103205709D01*
X101368366Y-103193479D01*
X101394446Y-103177093D01*
X101444540Y-103159564D01*
X101495923Y-103136687D01*
X101531580Y-103129108D01*
X101566073Y-103117039D01*
X101613515Y-103111693D01*
X101661912Y-103101407D01*
X101704808Y-103101407D01*
X101746760Y-103096680D01*
X101788712Y-103101407D01*
G37*
G36*
X129728712Y-103101407D02*
G01*
X129771608Y-103101407D01*
X129820003Y-103111693D01*
X129867447Y-103117039D01*
X129901940Y-103129108D01*
X129937596Y-103136687D01*
X129988976Y-103159563D01*
X130039074Y-103177093D01*
X130065153Y-103193480D01*
X130092620Y-103205709D01*
X130143837Y-103242920D01*
X130193034Y-103273833D01*
X130210700Y-103291499D01*
X130229906Y-103305453D01*
X130277387Y-103358186D01*
X130321607Y-103402406D01*
X130331778Y-103418593D01*
X130343456Y-103431563D01*
X130383399Y-103500747D01*
X130418347Y-103556366D01*
X130422710Y-103568837D01*
X130428301Y-103578520D01*
X130456939Y-103666657D01*
X130478401Y-103727993D01*
X130479214Y-103735212D01*
X130480742Y-103739914D01*
X130494581Y-103871595D01*
X130498760Y-103908680D01*
X130494581Y-103945767D01*
X130480742Y-104077445D01*
X130479214Y-104082145D01*
X130478401Y-104089367D01*
X130456934Y-104150715D01*
X130428301Y-104238839D01*
X130422711Y-104248519D01*
X130418347Y-104260994D01*
X130383392Y-104316624D01*
X130343456Y-104385796D01*
X130331780Y-104398762D01*
X130321607Y-104414954D01*
X130277378Y-104459182D01*
X130229906Y-104511906D01*
X130210703Y-104525857D01*
X130193034Y-104543527D01*
X130143827Y-104574445D01*
X130092620Y-104611650D01*
X130065159Y-104623876D01*
X130039074Y-104640267D01*
X129988966Y-104657800D01*
X129937596Y-104680672D01*
X129901945Y-104688249D01*
X129867447Y-104700321D01*
X129820000Y-104705667D01*
X129771608Y-104715953D01*
X129728712Y-104715953D01*
X129686760Y-104720680D01*
X129644808Y-104715953D01*
X129601912Y-104715953D01*
X129553518Y-104705666D01*
X129506073Y-104700321D01*
X129471575Y-104688249D01*
X129435923Y-104680672D01*
X129384549Y-104657798D01*
X129334446Y-104640267D01*
X129308363Y-104623878D01*
X129280899Y-104611650D01*
X129229685Y-104574441D01*
X129180486Y-104543527D01*
X129162818Y-104525859D01*
X129143613Y-104511906D01*
X129096131Y-104459172D01*
X129051913Y-104414954D01*
X129041741Y-104398766D01*
X129030063Y-104385796D01*
X128990115Y-104316604D01*
X128955173Y-104260994D01*
X128950809Y-104248524D01*
X128945218Y-104238839D01*
X128916571Y-104150675D01*
X128895119Y-104089367D01*
X128894305Y-104082150D01*
X128892777Y-104077445D01*
X128878923Y-103945635D01*
X128874760Y-103908680D01*
X128878923Y-103871727D01*
X128892777Y-103739914D01*
X128894306Y-103735208D01*
X128895119Y-103727993D01*
X128916566Y-103666697D01*
X128945218Y-103578520D01*
X128950810Y-103568833D01*
X128955173Y-103556366D01*
X128990108Y-103500766D01*
X129030063Y-103431563D01*
X129041743Y-103418590D01*
X129051913Y-103402406D01*
X129096122Y-103358196D01*
X129143613Y-103305453D01*
X129162822Y-103291496D01*
X129180486Y-103273833D01*
X129229679Y-103242922D01*
X129280900Y-103205709D01*
X129308366Y-103193479D01*
X129334446Y-103177093D01*
X129384540Y-103159564D01*
X129435923Y-103136687D01*
X129471580Y-103129108D01*
X129506073Y-103117039D01*
X129553515Y-103111693D01*
X129601912Y-103101407D01*
X129644808Y-103101407D01*
X129686760Y-103096680D01*
X129728712Y-103101407D01*
G37*
G36*
X101788712Y-100561407D02*
G01*
X101831608Y-100561407D01*
X101880003Y-100571693D01*
X101927447Y-100577039D01*
X101961940Y-100589108D01*
X101997596Y-100596687D01*
X102048976Y-100619563D01*
X102099074Y-100637093D01*
X102125153Y-100653480D01*
X102152620Y-100665709D01*
X102203837Y-100702920D01*
X102253034Y-100733833D01*
X102270700Y-100751499D01*
X102289906Y-100765453D01*
X102337387Y-100818186D01*
X102381607Y-100862406D01*
X102391778Y-100878593D01*
X102403456Y-100891563D01*
X102443399Y-100960747D01*
X102478347Y-101016366D01*
X102482710Y-101028837D01*
X102488301Y-101038520D01*
X102516939Y-101126657D01*
X102538401Y-101187993D01*
X102539214Y-101195212D01*
X102540742Y-101199914D01*
X102554581Y-101331595D01*
X102558760Y-101368680D01*
X102554581Y-101405767D01*
X102540742Y-101537445D01*
X102539214Y-101542145D01*
X102538401Y-101549367D01*
X102516934Y-101610715D01*
X102488301Y-101698839D01*
X102482711Y-101708519D01*
X102478347Y-101720994D01*
X102443392Y-101776624D01*
X102403456Y-101845796D01*
X102391780Y-101858762D01*
X102381607Y-101874954D01*
X102337378Y-101919182D01*
X102289906Y-101971906D01*
X102270703Y-101985857D01*
X102253034Y-102003527D01*
X102203827Y-102034445D01*
X102152620Y-102071650D01*
X102125159Y-102083876D01*
X102099074Y-102100267D01*
X102048966Y-102117800D01*
X101997596Y-102140672D01*
X101961945Y-102148249D01*
X101927447Y-102160321D01*
X101880000Y-102165667D01*
X101831608Y-102175953D01*
X101788712Y-102175953D01*
X101746760Y-102180680D01*
X101704808Y-102175953D01*
X101661912Y-102175953D01*
X101613518Y-102165666D01*
X101566073Y-102160321D01*
X101531575Y-102148249D01*
X101495923Y-102140672D01*
X101444549Y-102117798D01*
X101394446Y-102100267D01*
X101368363Y-102083878D01*
X101340899Y-102071650D01*
X101289685Y-102034441D01*
X101240486Y-102003527D01*
X101222818Y-101985859D01*
X101203613Y-101971906D01*
X101156131Y-101919172D01*
X101111913Y-101874954D01*
X101101741Y-101858766D01*
X101090063Y-101845796D01*
X101050115Y-101776604D01*
X101015173Y-101720994D01*
X101010809Y-101708524D01*
X101005218Y-101698839D01*
X100976571Y-101610675D01*
X100955119Y-101549367D01*
X100954305Y-101542150D01*
X100952777Y-101537445D01*
X100938923Y-101405635D01*
X100934760Y-101368680D01*
X100938923Y-101331727D01*
X100952777Y-101199914D01*
X100954306Y-101195208D01*
X100955119Y-101187993D01*
X100976566Y-101126697D01*
X101005218Y-101038520D01*
X101010810Y-101028833D01*
X101015173Y-101016366D01*
X101050108Y-100960766D01*
X101090063Y-100891563D01*
X101101743Y-100878590D01*
X101111913Y-100862406D01*
X101156122Y-100818196D01*
X101203613Y-100765453D01*
X101222822Y-100751496D01*
X101240486Y-100733833D01*
X101289679Y-100702922D01*
X101340900Y-100665709D01*
X101368366Y-100653479D01*
X101394446Y-100637093D01*
X101444540Y-100619564D01*
X101495923Y-100596687D01*
X101531580Y-100589108D01*
X101566073Y-100577039D01*
X101613515Y-100571693D01*
X101661912Y-100561407D01*
X101704808Y-100561407D01*
X101746760Y-100556680D01*
X101788712Y-100561407D01*
G37*
G36*
X129728712Y-100561407D02*
G01*
X129771608Y-100561407D01*
X129820003Y-100571693D01*
X129867447Y-100577039D01*
X129901940Y-100589108D01*
X129937596Y-100596687D01*
X129988976Y-100619563D01*
X130039074Y-100637093D01*
X130065153Y-100653480D01*
X130092620Y-100665709D01*
X130143837Y-100702920D01*
X130193034Y-100733833D01*
X130210700Y-100751499D01*
X130229906Y-100765453D01*
X130277387Y-100818186D01*
X130321607Y-100862406D01*
X130331778Y-100878593D01*
X130343456Y-100891563D01*
X130383399Y-100960747D01*
X130418347Y-101016366D01*
X130422710Y-101028837D01*
X130428301Y-101038520D01*
X130456939Y-101126657D01*
X130478401Y-101187993D01*
X130479214Y-101195212D01*
X130480742Y-101199914D01*
X130494581Y-101331595D01*
X130498760Y-101368680D01*
X130494581Y-101405767D01*
X130480742Y-101537445D01*
X130479214Y-101542145D01*
X130478401Y-101549367D01*
X130456934Y-101610715D01*
X130428301Y-101698839D01*
X130422711Y-101708519D01*
X130418347Y-101720994D01*
X130383392Y-101776624D01*
X130343456Y-101845796D01*
X130331780Y-101858762D01*
X130321607Y-101874954D01*
X130277378Y-101919182D01*
X130229906Y-101971906D01*
X130210703Y-101985857D01*
X130193034Y-102003527D01*
X130143827Y-102034445D01*
X130092620Y-102071650D01*
X130065159Y-102083876D01*
X130039074Y-102100267D01*
X129988966Y-102117800D01*
X129937596Y-102140672D01*
X129901945Y-102148249D01*
X129867447Y-102160321D01*
X129820000Y-102165667D01*
X129771608Y-102175953D01*
X129728712Y-102175953D01*
X129686760Y-102180680D01*
X129644808Y-102175953D01*
X129601912Y-102175953D01*
X129553518Y-102165666D01*
X129506073Y-102160321D01*
X129471575Y-102148249D01*
X129435923Y-102140672D01*
X129384549Y-102117798D01*
X129334446Y-102100267D01*
X129308363Y-102083878D01*
X129280899Y-102071650D01*
X129229685Y-102034441D01*
X129180486Y-102003527D01*
X129162818Y-101985859D01*
X129143613Y-101971906D01*
X129096131Y-101919172D01*
X129051913Y-101874954D01*
X129041741Y-101858766D01*
X129030063Y-101845796D01*
X128990115Y-101776604D01*
X128955173Y-101720994D01*
X128950809Y-101708524D01*
X128945218Y-101698839D01*
X128916571Y-101610675D01*
X128895119Y-101549367D01*
X128894305Y-101542150D01*
X128892777Y-101537445D01*
X128878923Y-101405635D01*
X128874760Y-101368680D01*
X128878923Y-101331727D01*
X128892777Y-101199914D01*
X128894306Y-101195208D01*
X128895119Y-101187993D01*
X128916566Y-101126697D01*
X128945218Y-101038520D01*
X128950810Y-101028833D01*
X128955173Y-101016366D01*
X128990108Y-100960766D01*
X129030063Y-100891563D01*
X129041743Y-100878590D01*
X129051913Y-100862406D01*
X129096122Y-100818196D01*
X129143613Y-100765453D01*
X129162822Y-100751496D01*
X129180486Y-100733833D01*
X129229679Y-100702922D01*
X129280900Y-100665709D01*
X129308366Y-100653479D01*
X129334446Y-100637093D01*
X129384540Y-100619564D01*
X129435923Y-100596687D01*
X129471580Y-100589108D01*
X129506073Y-100577039D01*
X129553515Y-100571693D01*
X129601912Y-100561407D01*
X129644808Y-100561407D01*
X129686760Y-100556680D01*
X129728712Y-100561407D01*
G37*
G36*
X101788712Y-98021407D02*
G01*
X101831608Y-98021407D01*
X101880003Y-98031693D01*
X101927447Y-98037039D01*
X101961940Y-98049108D01*
X101997596Y-98056687D01*
X102048976Y-98079563D01*
X102099074Y-98097093D01*
X102125153Y-98113480D01*
X102152620Y-98125709D01*
X102203837Y-98162920D01*
X102253034Y-98193833D01*
X102270700Y-98211499D01*
X102289906Y-98225453D01*
X102337387Y-98278186D01*
X102381607Y-98322406D01*
X102391778Y-98338593D01*
X102403456Y-98351563D01*
X102443399Y-98420747D01*
X102478347Y-98476366D01*
X102482710Y-98488837D01*
X102488301Y-98498520D01*
X102516939Y-98586657D01*
X102538401Y-98647993D01*
X102539214Y-98655212D01*
X102540742Y-98659914D01*
X102554581Y-98791595D01*
X102558760Y-98828680D01*
X102554581Y-98865767D01*
X102540742Y-98997445D01*
X102539214Y-99002145D01*
X102538401Y-99009367D01*
X102516934Y-99070715D01*
X102488301Y-99158839D01*
X102482711Y-99168519D01*
X102478347Y-99180994D01*
X102443392Y-99236624D01*
X102403456Y-99305796D01*
X102391780Y-99318762D01*
X102381607Y-99334954D01*
X102337378Y-99379182D01*
X102289906Y-99431906D01*
X102270703Y-99445857D01*
X102253034Y-99463527D01*
X102203827Y-99494445D01*
X102152620Y-99531650D01*
X102125159Y-99543876D01*
X102099074Y-99560267D01*
X102048966Y-99577800D01*
X101997596Y-99600672D01*
X101961945Y-99608249D01*
X101927447Y-99620321D01*
X101880000Y-99625667D01*
X101831608Y-99635953D01*
X101788712Y-99635953D01*
X101746760Y-99640680D01*
X101704808Y-99635953D01*
X101661912Y-99635953D01*
X101613518Y-99625666D01*
X101566073Y-99620321D01*
X101531575Y-99608249D01*
X101495923Y-99600672D01*
X101444549Y-99577798D01*
X101394446Y-99560267D01*
X101368363Y-99543878D01*
X101340899Y-99531650D01*
X101289685Y-99494441D01*
X101240486Y-99463527D01*
X101222818Y-99445859D01*
X101203613Y-99431906D01*
X101156131Y-99379172D01*
X101111913Y-99334954D01*
X101101741Y-99318766D01*
X101090063Y-99305796D01*
X101050115Y-99236604D01*
X101015173Y-99180994D01*
X101010809Y-99168524D01*
X101005218Y-99158839D01*
X100976571Y-99070675D01*
X100955119Y-99009367D01*
X100954305Y-99002150D01*
X100952777Y-98997445D01*
X100938923Y-98865635D01*
X100934760Y-98828680D01*
X100938923Y-98791727D01*
X100952777Y-98659914D01*
X100954306Y-98655208D01*
X100955119Y-98647993D01*
X100976566Y-98586697D01*
X101005218Y-98498520D01*
X101010810Y-98488833D01*
X101015173Y-98476366D01*
X101050108Y-98420766D01*
X101090063Y-98351563D01*
X101101743Y-98338590D01*
X101111913Y-98322406D01*
X101156122Y-98278196D01*
X101203613Y-98225453D01*
X101222822Y-98211496D01*
X101240486Y-98193833D01*
X101289679Y-98162922D01*
X101340900Y-98125709D01*
X101368366Y-98113479D01*
X101394446Y-98097093D01*
X101444540Y-98079564D01*
X101495923Y-98056687D01*
X101531580Y-98049108D01*
X101566073Y-98037039D01*
X101613515Y-98031693D01*
X101661912Y-98021407D01*
X101704808Y-98021407D01*
X101746760Y-98016680D01*
X101788712Y-98021407D01*
G37*
G36*
X129728712Y-98021407D02*
G01*
X129771608Y-98021407D01*
X129820003Y-98031693D01*
X129867447Y-98037039D01*
X129901940Y-98049108D01*
X129937596Y-98056687D01*
X129988976Y-98079563D01*
X130039074Y-98097093D01*
X130065153Y-98113480D01*
X130092620Y-98125709D01*
X130143837Y-98162920D01*
X130193034Y-98193833D01*
X130210700Y-98211499D01*
X130229906Y-98225453D01*
X130277387Y-98278186D01*
X130321607Y-98322406D01*
X130331778Y-98338593D01*
X130343456Y-98351563D01*
X130383399Y-98420747D01*
X130418347Y-98476366D01*
X130422710Y-98488837D01*
X130428301Y-98498520D01*
X130456939Y-98586657D01*
X130478401Y-98647993D01*
X130479214Y-98655212D01*
X130480742Y-98659914D01*
X130494581Y-98791595D01*
X130498760Y-98828680D01*
X130494581Y-98865767D01*
X130480742Y-98997445D01*
X130479214Y-99002145D01*
X130478401Y-99009367D01*
X130456934Y-99070715D01*
X130428301Y-99158839D01*
X130422711Y-99168519D01*
X130418347Y-99180994D01*
X130383392Y-99236624D01*
X130343456Y-99305796D01*
X130331780Y-99318762D01*
X130321607Y-99334954D01*
X130277378Y-99379182D01*
X130229906Y-99431906D01*
X130210703Y-99445857D01*
X130193034Y-99463527D01*
X130143827Y-99494445D01*
X130092620Y-99531650D01*
X130065159Y-99543876D01*
X130039074Y-99560267D01*
X129988966Y-99577800D01*
X129937596Y-99600672D01*
X129901945Y-99608249D01*
X129867447Y-99620321D01*
X129820000Y-99625667D01*
X129771608Y-99635953D01*
X129728712Y-99635953D01*
X129686760Y-99640680D01*
X129644808Y-99635953D01*
X129601912Y-99635953D01*
X129553518Y-99625666D01*
X129506073Y-99620321D01*
X129471575Y-99608249D01*
X129435923Y-99600672D01*
X129384549Y-99577798D01*
X129334446Y-99560267D01*
X129308363Y-99543878D01*
X129280899Y-99531650D01*
X129229685Y-99494441D01*
X129180486Y-99463527D01*
X129162818Y-99445859D01*
X129143613Y-99431906D01*
X129096131Y-99379172D01*
X129051913Y-99334954D01*
X129041741Y-99318766D01*
X129030063Y-99305796D01*
X128990115Y-99236604D01*
X128955173Y-99180994D01*
X128950809Y-99168524D01*
X128945218Y-99158839D01*
X128916571Y-99070675D01*
X128895119Y-99009367D01*
X128894305Y-99002150D01*
X128892777Y-98997445D01*
X128878923Y-98865635D01*
X128874760Y-98828680D01*
X128878923Y-98791727D01*
X128892777Y-98659914D01*
X128894306Y-98655208D01*
X128895119Y-98647993D01*
X128916566Y-98586697D01*
X128945218Y-98498520D01*
X128950810Y-98488833D01*
X128955173Y-98476366D01*
X128990108Y-98420766D01*
X129030063Y-98351563D01*
X129041743Y-98338590D01*
X129051913Y-98322406D01*
X129096122Y-98278196D01*
X129143613Y-98225453D01*
X129162822Y-98211496D01*
X129180486Y-98193833D01*
X129229679Y-98162922D01*
X129280900Y-98125709D01*
X129308366Y-98113479D01*
X129334446Y-98097093D01*
X129384540Y-98079564D01*
X129435923Y-98056687D01*
X129471580Y-98049108D01*
X129506073Y-98037039D01*
X129553515Y-98031693D01*
X129601912Y-98021407D01*
X129644808Y-98021407D01*
X129686760Y-98016680D01*
X129728712Y-98021407D01*
G37*
G36*
X101788712Y-95481407D02*
G01*
X101831608Y-95481407D01*
X101880003Y-95491693D01*
X101927447Y-95497039D01*
X101961940Y-95509108D01*
X101997596Y-95516687D01*
X102048976Y-95539563D01*
X102099074Y-95557093D01*
X102125153Y-95573480D01*
X102152620Y-95585709D01*
X102203837Y-95622920D01*
X102253034Y-95653833D01*
X102270700Y-95671499D01*
X102289906Y-95685453D01*
X102337387Y-95738186D01*
X102381607Y-95782406D01*
X102391778Y-95798593D01*
X102403456Y-95811563D01*
X102443399Y-95880747D01*
X102478347Y-95936366D01*
X102482710Y-95948837D01*
X102488301Y-95958520D01*
X102516939Y-96046657D01*
X102538401Y-96107993D01*
X102539214Y-96115212D01*
X102540742Y-96119914D01*
X102554581Y-96251595D01*
X102558760Y-96288680D01*
X102554581Y-96325767D01*
X102540742Y-96457445D01*
X102539214Y-96462145D01*
X102538401Y-96469367D01*
X102516934Y-96530715D01*
X102488301Y-96618839D01*
X102482711Y-96628519D01*
X102478347Y-96640994D01*
X102443392Y-96696624D01*
X102403456Y-96765796D01*
X102391780Y-96778762D01*
X102381607Y-96794954D01*
X102337378Y-96839182D01*
X102289906Y-96891906D01*
X102270703Y-96905857D01*
X102253034Y-96923527D01*
X102203827Y-96954445D01*
X102152620Y-96991650D01*
X102125159Y-97003876D01*
X102099074Y-97020267D01*
X102048966Y-97037800D01*
X101997596Y-97060672D01*
X101961945Y-97068249D01*
X101927447Y-97080321D01*
X101880000Y-97085667D01*
X101831608Y-97095953D01*
X101788712Y-97095953D01*
X101746760Y-97100680D01*
X101704808Y-97095953D01*
X101661912Y-97095953D01*
X101613518Y-97085666D01*
X101566073Y-97080321D01*
X101531575Y-97068249D01*
X101495923Y-97060672D01*
X101444549Y-97037798D01*
X101394446Y-97020267D01*
X101368363Y-97003878D01*
X101340899Y-96991650D01*
X101289685Y-96954441D01*
X101240486Y-96923527D01*
X101222818Y-96905859D01*
X101203613Y-96891906D01*
X101156131Y-96839172D01*
X101111913Y-96794954D01*
X101101741Y-96778766D01*
X101090063Y-96765796D01*
X101050115Y-96696604D01*
X101015173Y-96640994D01*
X101010809Y-96628524D01*
X101005218Y-96618839D01*
X100976571Y-96530675D01*
X100955119Y-96469367D01*
X100954305Y-96462150D01*
X100952777Y-96457445D01*
X100938923Y-96325635D01*
X100934760Y-96288680D01*
X100938923Y-96251727D01*
X100952777Y-96119914D01*
X100954306Y-96115208D01*
X100955119Y-96107993D01*
X100976566Y-96046697D01*
X101005218Y-95958520D01*
X101010810Y-95948833D01*
X101015173Y-95936366D01*
X101050108Y-95880766D01*
X101090063Y-95811563D01*
X101101743Y-95798590D01*
X101111913Y-95782406D01*
X101156122Y-95738196D01*
X101203613Y-95685453D01*
X101222822Y-95671496D01*
X101240486Y-95653833D01*
X101289679Y-95622922D01*
X101340900Y-95585709D01*
X101368366Y-95573479D01*
X101394446Y-95557093D01*
X101444540Y-95539564D01*
X101495923Y-95516687D01*
X101531580Y-95509108D01*
X101566073Y-95497039D01*
X101613515Y-95491693D01*
X101661912Y-95481407D01*
X101704808Y-95481407D01*
X101746760Y-95476680D01*
X101788712Y-95481407D01*
G37*
G36*
X129728712Y-95481407D02*
G01*
X129771608Y-95481407D01*
X129820003Y-95491693D01*
X129867447Y-95497039D01*
X129901940Y-95509108D01*
X129937596Y-95516687D01*
X129988976Y-95539563D01*
X130039074Y-95557093D01*
X130065153Y-95573480D01*
X130092620Y-95585709D01*
X130143837Y-95622920D01*
X130193034Y-95653833D01*
X130210700Y-95671499D01*
X130229906Y-95685453D01*
X130277387Y-95738186D01*
X130321607Y-95782406D01*
X130331778Y-95798593D01*
X130343456Y-95811563D01*
X130383399Y-95880747D01*
X130418347Y-95936366D01*
X130422710Y-95948837D01*
X130428301Y-95958520D01*
X130456939Y-96046657D01*
X130478401Y-96107993D01*
X130479214Y-96115212D01*
X130480742Y-96119914D01*
X130494581Y-96251595D01*
X130498760Y-96288680D01*
X130494581Y-96325767D01*
X130480742Y-96457445D01*
X130479214Y-96462145D01*
X130478401Y-96469367D01*
X130456934Y-96530715D01*
X130428301Y-96618839D01*
X130422711Y-96628519D01*
X130418347Y-96640994D01*
X130383392Y-96696624D01*
X130343456Y-96765796D01*
X130331780Y-96778762D01*
X130321607Y-96794954D01*
X130277378Y-96839182D01*
X130229906Y-96891906D01*
X130210703Y-96905857D01*
X130193034Y-96923527D01*
X130143827Y-96954445D01*
X130092620Y-96991650D01*
X130065159Y-97003876D01*
X130039074Y-97020267D01*
X129988966Y-97037800D01*
X129937596Y-97060672D01*
X129901945Y-97068249D01*
X129867447Y-97080321D01*
X129820000Y-97085667D01*
X129771608Y-97095953D01*
X129728712Y-97095953D01*
X129686760Y-97100680D01*
X129644808Y-97095953D01*
X129601912Y-97095953D01*
X129553518Y-97085666D01*
X129506073Y-97080321D01*
X129471575Y-97068249D01*
X129435923Y-97060672D01*
X129384549Y-97037798D01*
X129334446Y-97020267D01*
X129308363Y-97003878D01*
X129280899Y-96991650D01*
X129229685Y-96954441D01*
X129180486Y-96923527D01*
X129162818Y-96905859D01*
X129143613Y-96891906D01*
X129096131Y-96839172D01*
X129051913Y-96794954D01*
X129041741Y-96778766D01*
X129030063Y-96765796D01*
X128990115Y-96696604D01*
X128955173Y-96640994D01*
X128950809Y-96628524D01*
X128945218Y-96618839D01*
X128916571Y-96530675D01*
X128895119Y-96469367D01*
X128894305Y-96462150D01*
X128892777Y-96457445D01*
X128878923Y-96325635D01*
X128874760Y-96288680D01*
X128878923Y-96251727D01*
X128892777Y-96119914D01*
X128894306Y-96115208D01*
X128895119Y-96107993D01*
X128916566Y-96046697D01*
X128945218Y-95958520D01*
X128950810Y-95948833D01*
X128955173Y-95936366D01*
X128990108Y-95880766D01*
X129030063Y-95811563D01*
X129041743Y-95798590D01*
X129051913Y-95782406D01*
X129096122Y-95738196D01*
X129143613Y-95685453D01*
X129162822Y-95671496D01*
X129180486Y-95653833D01*
X129229679Y-95622922D01*
X129280900Y-95585709D01*
X129308366Y-95573479D01*
X129334446Y-95557093D01*
X129384540Y-95539564D01*
X129435923Y-95516687D01*
X129471580Y-95509108D01*
X129506073Y-95497039D01*
X129553515Y-95491693D01*
X129601912Y-95481407D01*
X129644808Y-95481407D01*
X129686760Y-95476680D01*
X129728712Y-95481407D01*
G37*
G36*
X101788712Y-92941407D02*
G01*
X101831608Y-92941407D01*
X101880003Y-92951693D01*
X101927447Y-92957039D01*
X101961940Y-92969108D01*
X101997596Y-92976687D01*
X102048976Y-92999563D01*
X102099074Y-93017093D01*
X102125153Y-93033480D01*
X102152620Y-93045709D01*
X102203837Y-93082920D01*
X102253034Y-93113833D01*
X102270700Y-93131499D01*
X102289906Y-93145453D01*
X102337387Y-93198186D01*
X102381607Y-93242406D01*
X102391778Y-93258593D01*
X102403456Y-93271563D01*
X102443399Y-93340747D01*
X102478347Y-93396366D01*
X102482710Y-93408837D01*
X102488301Y-93418520D01*
X102516939Y-93506657D01*
X102538401Y-93567993D01*
X102539214Y-93575212D01*
X102540742Y-93579914D01*
X102554581Y-93711595D01*
X102558760Y-93748680D01*
X102554581Y-93785767D01*
X102540742Y-93917445D01*
X102539214Y-93922145D01*
X102538401Y-93929367D01*
X102516934Y-93990715D01*
X102488301Y-94078839D01*
X102482711Y-94088519D01*
X102478347Y-94100994D01*
X102443392Y-94156624D01*
X102403456Y-94225796D01*
X102391780Y-94238762D01*
X102381607Y-94254954D01*
X102337378Y-94299182D01*
X102289906Y-94351906D01*
X102270703Y-94365857D01*
X102253034Y-94383527D01*
X102203827Y-94414445D01*
X102152620Y-94451650D01*
X102125159Y-94463876D01*
X102099074Y-94480267D01*
X102048966Y-94497800D01*
X101997596Y-94520672D01*
X101961945Y-94528249D01*
X101927447Y-94540321D01*
X101880000Y-94545667D01*
X101831608Y-94555953D01*
X101788712Y-94555953D01*
X101746760Y-94560680D01*
X101704808Y-94555953D01*
X101661912Y-94555953D01*
X101613518Y-94545666D01*
X101566073Y-94540321D01*
X101531575Y-94528249D01*
X101495923Y-94520672D01*
X101444549Y-94497798D01*
X101394446Y-94480267D01*
X101368363Y-94463878D01*
X101340899Y-94451650D01*
X101289685Y-94414441D01*
X101240486Y-94383527D01*
X101222818Y-94365859D01*
X101203613Y-94351906D01*
X101156131Y-94299172D01*
X101111913Y-94254954D01*
X101101741Y-94238766D01*
X101090063Y-94225796D01*
X101050115Y-94156604D01*
X101015173Y-94100994D01*
X101010809Y-94088524D01*
X101005218Y-94078839D01*
X100976571Y-93990675D01*
X100955119Y-93929367D01*
X100954305Y-93922150D01*
X100952777Y-93917445D01*
X100938923Y-93785635D01*
X100934760Y-93748680D01*
X100938923Y-93711727D01*
X100952777Y-93579914D01*
X100954306Y-93575208D01*
X100955119Y-93567993D01*
X100976566Y-93506697D01*
X101005218Y-93418520D01*
X101010810Y-93408833D01*
X101015173Y-93396366D01*
X101050108Y-93340766D01*
X101090063Y-93271563D01*
X101101743Y-93258590D01*
X101111913Y-93242406D01*
X101156122Y-93198196D01*
X101203613Y-93145453D01*
X101222822Y-93131496D01*
X101240486Y-93113833D01*
X101289679Y-93082922D01*
X101340900Y-93045709D01*
X101368366Y-93033479D01*
X101394446Y-93017093D01*
X101444540Y-92999564D01*
X101495923Y-92976687D01*
X101531580Y-92969108D01*
X101566073Y-92957039D01*
X101613515Y-92951693D01*
X101661912Y-92941407D01*
X101704808Y-92941407D01*
X101746760Y-92936680D01*
X101788712Y-92941407D01*
G37*
G36*
X129728712Y-92941407D02*
G01*
X129771608Y-92941407D01*
X129820003Y-92951693D01*
X129867447Y-92957039D01*
X129901940Y-92969108D01*
X129937596Y-92976687D01*
X129988976Y-92999563D01*
X130039074Y-93017093D01*
X130065153Y-93033480D01*
X130092620Y-93045709D01*
X130143837Y-93082920D01*
X130193034Y-93113833D01*
X130210700Y-93131499D01*
X130229906Y-93145453D01*
X130277387Y-93198186D01*
X130321607Y-93242406D01*
X130331778Y-93258593D01*
X130343456Y-93271563D01*
X130383399Y-93340747D01*
X130418347Y-93396366D01*
X130422710Y-93408837D01*
X130428301Y-93418520D01*
X130456939Y-93506657D01*
X130478401Y-93567993D01*
X130479214Y-93575212D01*
X130480742Y-93579914D01*
X130494581Y-93711595D01*
X130498760Y-93748680D01*
X130494581Y-93785767D01*
X130480742Y-93917445D01*
X130479214Y-93922145D01*
X130478401Y-93929367D01*
X130456934Y-93990715D01*
X130428301Y-94078839D01*
X130422711Y-94088519D01*
X130418347Y-94100994D01*
X130383392Y-94156624D01*
X130343456Y-94225796D01*
X130331780Y-94238762D01*
X130321607Y-94254954D01*
X130277378Y-94299182D01*
X130229906Y-94351906D01*
X130210703Y-94365857D01*
X130193034Y-94383527D01*
X130143827Y-94414445D01*
X130092620Y-94451650D01*
X130065159Y-94463876D01*
X130039074Y-94480267D01*
X129988966Y-94497800D01*
X129937596Y-94520672D01*
X129901945Y-94528249D01*
X129867447Y-94540321D01*
X129820000Y-94545667D01*
X129771608Y-94555953D01*
X129728712Y-94555953D01*
X129686760Y-94560680D01*
X129644808Y-94555953D01*
X129601912Y-94555953D01*
X129553518Y-94545666D01*
X129506073Y-94540321D01*
X129471575Y-94528249D01*
X129435923Y-94520672D01*
X129384549Y-94497798D01*
X129334446Y-94480267D01*
X129308363Y-94463878D01*
X129280899Y-94451650D01*
X129229685Y-94414441D01*
X129180486Y-94383527D01*
X129162818Y-94365859D01*
X129143613Y-94351906D01*
X129096131Y-94299172D01*
X129051913Y-94254954D01*
X129041741Y-94238766D01*
X129030063Y-94225796D01*
X128990115Y-94156604D01*
X128955173Y-94100994D01*
X128950809Y-94088524D01*
X128945218Y-94078839D01*
X128916571Y-93990675D01*
X128895119Y-93929367D01*
X128894305Y-93922150D01*
X128892777Y-93917445D01*
X128878923Y-93785635D01*
X128874760Y-93748680D01*
X128878923Y-93711727D01*
X128892777Y-93579914D01*
X128894306Y-93575208D01*
X128895119Y-93567993D01*
X128916566Y-93506697D01*
X128945218Y-93418520D01*
X128950810Y-93408833D01*
X128955173Y-93396366D01*
X128990108Y-93340766D01*
X129030063Y-93271563D01*
X129041743Y-93258590D01*
X129051913Y-93242406D01*
X129096122Y-93198196D01*
X129143613Y-93145453D01*
X129162822Y-93131496D01*
X129180486Y-93113833D01*
X129229679Y-93082922D01*
X129280900Y-93045709D01*
X129308366Y-93033479D01*
X129334446Y-93017093D01*
X129384540Y-92999564D01*
X129435923Y-92976687D01*
X129471580Y-92969108D01*
X129506073Y-92957039D01*
X129553515Y-92951693D01*
X129601912Y-92941407D01*
X129644808Y-92941407D01*
X129686760Y-92936680D01*
X129728712Y-92941407D01*
G37*
G36*
X101788712Y-90401407D02*
G01*
X101831608Y-90401407D01*
X101880003Y-90411693D01*
X101927447Y-90417039D01*
X101961940Y-90429108D01*
X101997596Y-90436687D01*
X102048976Y-90459563D01*
X102099074Y-90477093D01*
X102125153Y-90493480D01*
X102152620Y-90505709D01*
X102203837Y-90542920D01*
X102253034Y-90573833D01*
X102270700Y-90591499D01*
X102289906Y-90605453D01*
X102337387Y-90658186D01*
X102381607Y-90702406D01*
X102391778Y-90718593D01*
X102403456Y-90731563D01*
X102443399Y-90800747D01*
X102478347Y-90856366D01*
X102482710Y-90868837D01*
X102488301Y-90878520D01*
X102516939Y-90966657D01*
X102538401Y-91027993D01*
X102539214Y-91035212D01*
X102540742Y-91039914D01*
X102554581Y-91171595D01*
X102558760Y-91208680D01*
X102554581Y-91245767D01*
X102540742Y-91377445D01*
X102539214Y-91382145D01*
X102538401Y-91389367D01*
X102516934Y-91450715D01*
X102488301Y-91538839D01*
X102482711Y-91548519D01*
X102478347Y-91560994D01*
X102443392Y-91616624D01*
X102403456Y-91685796D01*
X102391780Y-91698762D01*
X102381607Y-91714954D01*
X102337378Y-91759182D01*
X102289906Y-91811906D01*
X102270703Y-91825857D01*
X102253034Y-91843527D01*
X102203827Y-91874445D01*
X102152620Y-91911650D01*
X102125159Y-91923876D01*
X102099074Y-91940267D01*
X102048966Y-91957800D01*
X101997596Y-91980672D01*
X101961945Y-91988249D01*
X101927447Y-92000321D01*
X101880000Y-92005667D01*
X101831608Y-92015953D01*
X101788712Y-92015953D01*
X101746760Y-92020680D01*
X101704808Y-92015953D01*
X101661912Y-92015953D01*
X101613518Y-92005666D01*
X101566073Y-92000321D01*
X101531575Y-91988249D01*
X101495923Y-91980672D01*
X101444549Y-91957798D01*
X101394446Y-91940267D01*
X101368363Y-91923878D01*
X101340899Y-91911650D01*
X101289685Y-91874441D01*
X101240486Y-91843527D01*
X101222818Y-91825859D01*
X101203613Y-91811906D01*
X101156131Y-91759172D01*
X101111913Y-91714954D01*
X101101741Y-91698766D01*
X101090063Y-91685796D01*
X101050115Y-91616604D01*
X101015173Y-91560994D01*
X101010809Y-91548524D01*
X101005218Y-91538839D01*
X100976571Y-91450675D01*
X100955119Y-91389367D01*
X100954305Y-91382150D01*
X100952777Y-91377445D01*
X100938923Y-91245635D01*
X100934760Y-91208680D01*
X100938923Y-91171727D01*
X100952777Y-91039914D01*
X100954306Y-91035208D01*
X100955119Y-91027993D01*
X100976566Y-90966697D01*
X101005218Y-90878520D01*
X101010810Y-90868833D01*
X101015173Y-90856366D01*
X101050108Y-90800766D01*
X101090063Y-90731563D01*
X101101743Y-90718590D01*
X101111913Y-90702406D01*
X101156122Y-90658196D01*
X101203613Y-90605453D01*
X101222822Y-90591496D01*
X101240486Y-90573833D01*
X101289679Y-90542922D01*
X101340900Y-90505709D01*
X101368366Y-90493479D01*
X101394446Y-90477093D01*
X101444540Y-90459564D01*
X101495923Y-90436687D01*
X101531580Y-90429108D01*
X101566073Y-90417039D01*
X101613515Y-90411693D01*
X101661912Y-90401407D01*
X101704808Y-90401407D01*
X101746760Y-90396680D01*
X101788712Y-90401407D01*
G37*
G36*
X129728712Y-90401407D02*
G01*
X129771608Y-90401407D01*
X129820003Y-90411693D01*
X129867447Y-90417039D01*
X129901940Y-90429108D01*
X129937596Y-90436687D01*
X129988976Y-90459563D01*
X130039074Y-90477093D01*
X130065153Y-90493480D01*
X130092620Y-90505709D01*
X130143837Y-90542920D01*
X130193034Y-90573833D01*
X130210700Y-90591499D01*
X130229906Y-90605453D01*
X130277387Y-90658186D01*
X130321607Y-90702406D01*
X130331778Y-90718593D01*
X130343456Y-90731563D01*
X130383399Y-90800747D01*
X130418347Y-90856366D01*
X130422710Y-90868837D01*
X130428301Y-90878520D01*
X130456939Y-90966657D01*
X130478401Y-91027993D01*
X130479214Y-91035212D01*
X130480742Y-91039914D01*
X130494581Y-91171595D01*
X130498760Y-91208680D01*
X130494581Y-91245767D01*
X130480742Y-91377445D01*
X130479214Y-91382145D01*
X130478401Y-91389367D01*
X130456934Y-91450715D01*
X130428301Y-91538839D01*
X130422711Y-91548519D01*
X130418347Y-91560994D01*
X130383392Y-91616624D01*
X130343456Y-91685796D01*
X130331780Y-91698762D01*
X130321607Y-91714954D01*
X130277378Y-91759182D01*
X130229906Y-91811906D01*
X130210703Y-91825857D01*
X130193034Y-91843527D01*
X130143827Y-91874445D01*
X130092620Y-91911650D01*
X130065159Y-91923876D01*
X130039074Y-91940267D01*
X129988966Y-91957800D01*
X129937596Y-91980672D01*
X129901945Y-91988249D01*
X129867447Y-92000321D01*
X129820000Y-92005667D01*
X129771608Y-92015953D01*
X129728712Y-92015953D01*
X129686760Y-92020680D01*
X129644808Y-92015953D01*
X129601912Y-92015953D01*
X129553518Y-92005666D01*
X129506073Y-92000321D01*
X129471575Y-91988249D01*
X129435923Y-91980672D01*
X129384549Y-91957798D01*
X129334446Y-91940267D01*
X129308363Y-91923878D01*
X129280899Y-91911650D01*
X129229685Y-91874441D01*
X129180486Y-91843527D01*
X129162818Y-91825859D01*
X129143613Y-91811906D01*
X129096131Y-91759172D01*
X129051913Y-91714954D01*
X129041741Y-91698766D01*
X129030063Y-91685796D01*
X128990115Y-91616604D01*
X128955173Y-91560994D01*
X128950809Y-91548524D01*
X128945218Y-91538839D01*
X128916571Y-91450675D01*
X128895119Y-91389367D01*
X128894305Y-91382150D01*
X128892777Y-91377445D01*
X128878923Y-91245635D01*
X128874760Y-91208680D01*
X128878923Y-91171727D01*
X128892777Y-91039914D01*
X128894306Y-91035208D01*
X128895119Y-91027993D01*
X128916566Y-90966697D01*
X128945218Y-90878520D01*
X128950810Y-90868833D01*
X128955173Y-90856366D01*
X128990108Y-90800766D01*
X129030063Y-90731563D01*
X129041743Y-90718590D01*
X129051913Y-90702406D01*
X129096122Y-90658196D01*
X129143613Y-90605453D01*
X129162822Y-90591496D01*
X129180486Y-90573833D01*
X129229679Y-90542922D01*
X129280900Y-90505709D01*
X129308366Y-90493479D01*
X129334446Y-90477093D01*
X129384540Y-90459564D01*
X129435923Y-90436687D01*
X129471580Y-90429108D01*
X129506073Y-90417039D01*
X129553515Y-90411693D01*
X129601912Y-90401407D01*
X129644808Y-90401407D01*
X129686760Y-90396680D01*
X129728712Y-90401407D01*
G37*
G36*
X101788712Y-87861407D02*
G01*
X101831608Y-87861407D01*
X101880003Y-87871693D01*
X101927447Y-87877039D01*
X101961940Y-87889108D01*
X101997596Y-87896687D01*
X102048976Y-87919563D01*
X102099074Y-87937093D01*
X102125153Y-87953480D01*
X102152620Y-87965709D01*
X102203837Y-88002920D01*
X102253034Y-88033833D01*
X102270700Y-88051499D01*
X102289906Y-88065453D01*
X102337387Y-88118186D01*
X102381607Y-88162406D01*
X102391778Y-88178593D01*
X102403456Y-88191563D01*
X102443399Y-88260747D01*
X102478347Y-88316366D01*
X102482710Y-88328837D01*
X102488301Y-88338520D01*
X102516939Y-88426657D01*
X102538401Y-88487993D01*
X102539214Y-88495212D01*
X102540742Y-88499914D01*
X102554581Y-88631595D01*
X102558760Y-88668680D01*
X102554581Y-88705767D01*
X102540742Y-88837445D01*
X102539214Y-88842145D01*
X102538401Y-88849367D01*
X102516934Y-88910715D01*
X102488301Y-88998839D01*
X102482711Y-89008519D01*
X102478347Y-89020994D01*
X102443392Y-89076624D01*
X102403456Y-89145796D01*
X102391780Y-89158762D01*
X102381607Y-89174954D01*
X102337378Y-89219182D01*
X102289906Y-89271906D01*
X102270703Y-89285857D01*
X102253034Y-89303527D01*
X102203827Y-89334445D01*
X102152620Y-89371650D01*
X102125159Y-89383876D01*
X102099074Y-89400267D01*
X102048966Y-89417800D01*
X101997596Y-89440672D01*
X101961945Y-89448249D01*
X101927447Y-89460321D01*
X101880000Y-89465667D01*
X101831608Y-89475953D01*
X101788712Y-89475953D01*
X101746760Y-89480680D01*
X101704808Y-89475953D01*
X101661912Y-89475953D01*
X101613518Y-89465666D01*
X101566073Y-89460321D01*
X101531575Y-89448249D01*
X101495923Y-89440672D01*
X101444549Y-89417798D01*
X101394446Y-89400267D01*
X101368363Y-89383878D01*
X101340899Y-89371650D01*
X101289685Y-89334441D01*
X101240486Y-89303527D01*
X101222818Y-89285859D01*
X101203613Y-89271906D01*
X101156131Y-89219172D01*
X101111913Y-89174954D01*
X101101741Y-89158766D01*
X101090063Y-89145796D01*
X101050115Y-89076604D01*
X101015173Y-89020994D01*
X101010809Y-89008524D01*
X101005218Y-88998839D01*
X100976571Y-88910675D01*
X100955119Y-88849367D01*
X100954305Y-88842150D01*
X100952777Y-88837445D01*
X100938923Y-88705635D01*
X100934760Y-88668680D01*
X100938923Y-88631727D01*
X100952777Y-88499914D01*
X100954306Y-88495208D01*
X100955119Y-88487993D01*
X100976566Y-88426697D01*
X101005218Y-88338520D01*
X101010810Y-88328833D01*
X101015173Y-88316366D01*
X101050108Y-88260766D01*
X101090063Y-88191563D01*
X101101743Y-88178590D01*
X101111913Y-88162406D01*
X101156122Y-88118196D01*
X101203613Y-88065453D01*
X101222822Y-88051496D01*
X101240486Y-88033833D01*
X101289679Y-88002922D01*
X101340900Y-87965709D01*
X101368366Y-87953479D01*
X101394446Y-87937093D01*
X101444540Y-87919564D01*
X101495923Y-87896687D01*
X101531580Y-87889108D01*
X101566073Y-87877039D01*
X101613515Y-87871693D01*
X101661912Y-87861407D01*
X101704808Y-87861407D01*
X101746760Y-87856680D01*
X101788712Y-87861407D01*
G37*
G36*
X129728712Y-87861407D02*
G01*
X129771608Y-87861407D01*
X129820003Y-87871693D01*
X129867447Y-87877039D01*
X129901940Y-87889108D01*
X129937596Y-87896687D01*
X129988976Y-87919563D01*
X130039074Y-87937093D01*
X130065153Y-87953480D01*
X130092620Y-87965709D01*
X130143837Y-88002920D01*
X130193034Y-88033833D01*
X130210700Y-88051499D01*
X130229906Y-88065453D01*
X130277387Y-88118186D01*
X130321607Y-88162406D01*
X130331778Y-88178593D01*
X130343456Y-88191563D01*
X130383399Y-88260747D01*
X130418347Y-88316366D01*
X130422710Y-88328837D01*
X130428301Y-88338520D01*
X130456939Y-88426657D01*
X130478401Y-88487993D01*
X130479214Y-88495212D01*
X130480742Y-88499914D01*
X130494581Y-88631595D01*
X130498760Y-88668680D01*
X130494581Y-88705767D01*
X130480742Y-88837445D01*
X130479214Y-88842145D01*
X130478401Y-88849367D01*
X130456934Y-88910715D01*
X130428301Y-88998839D01*
X130422711Y-89008519D01*
X130418347Y-89020994D01*
X130383392Y-89076624D01*
X130343456Y-89145796D01*
X130331780Y-89158762D01*
X130321607Y-89174954D01*
X130277378Y-89219182D01*
X130229906Y-89271906D01*
X130210703Y-89285857D01*
X130193034Y-89303527D01*
X130143827Y-89334445D01*
X130092620Y-89371650D01*
X130065159Y-89383876D01*
X130039074Y-89400267D01*
X129988966Y-89417800D01*
X129937596Y-89440672D01*
X129901945Y-89448249D01*
X129867447Y-89460321D01*
X129820000Y-89465667D01*
X129771608Y-89475953D01*
X129728712Y-89475953D01*
X129686760Y-89480680D01*
X129644808Y-89475953D01*
X129601912Y-89475953D01*
X129553518Y-89465666D01*
X129506073Y-89460321D01*
X129471575Y-89448249D01*
X129435923Y-89440672D01*
X129384549Y-89417798D01*
X129334446Y-89400267D01*
X129308363Y-89383878D01*
X129280899Y-89371650D01*
X129229685Y-89334441D01*
X129180486Y-89303527D01*
X129162818Y-89285859D01*
X129143613Y-89271906D01*
X129096131Y-89219172D01*
X129051913Y-89174954D01*
X129041741Y-89158766D01*
X129030063Y-89145796D01*
X128990115Y-89076604D01*
X128955173Y-89020994D01*
X128950809Y-89008524D01*
X128945218Y-88998839D01*
X128916571Y-88910675D01*
X128895119Y-88849367D01*
X128894305Y-88842150D01*
X128892777Y-88837445D01*
X128878923Y-88705635D01*
X128874760Y-88668680D01*
X128878923Y-88631727D01*
X128892777Y-88499914D01*
X128894306Y-88495208D01*
X128895119Y-88487993D01*
X128916566Y-88426697D01*
X128945218Y-88338520D01*
X128950810Y-88328833D01*
X128955173Y-88316366D01*
X128990108Y-88260766D01*
X129030063Y-88191563D01*
X129041743Y-88178590D01*
X129051913Y-88162406D01*
X129096122Y-88118196D01*
X129143613Y-88065453D01*
X129162822Y-88051496D01*
X129180486Y-88033833D01*
X129229679Y-88002922D01*
X129280900Y-87965709D01*
X129308366Y-87953479D01*
X129334446Y-87937093D01*
X129384540Y-87919564D01*
X129435923Y-87896687D01*
X129471580Y-87889108D01*
X129506073Y-87877039D01*
X129553515Y-87871693D01*
X129601912Y-87861407D01*
X129644808Y-87861407D01*
X129686760Y-87856680D01*
X129728712Y-87861407D01*
G37*
G36*
X101788712Y-85321407D02*
G01*
X101831608Y-85321407D01*
X101880003Y-85331693D01*
X101927447Y-85337039D01*
X101961940Y-85349108D01*
X101997596Y-85356687D01*
X102048976Y-85379563D01*
X102099074Y-85397093D01*
X102125153Y-85413480D01*
X102152620Y-85425709D01*
X102203837Y-85462920D01*
X102253034Y-85493833D01*
X102270700Y-85511499D01*
X102289906Y-85525453D01*
X102337387Y-85578186D01*
X102381607Y-85622406D01*
X102391778Y-85638593D01*
X102403456Y-85651563D01*
X102443399Y-85720747D01*
X102478347Y-85776366D01*
X102482710Y-85788837D01*
X102488301Y-85798520D01*
X102516939Y-85886657D01*
X102538401Y-85947993D01*
X102539214Y-85955212D01*
X102540742Y-85959914D01*
X102554581Y-86091595D01*
X102558760Y-86128680D01*
X102554581Y-86165767D01*
X102540742Y-86297445D01*
X102539214Y-86302145D01*
X102538401Y-86309367D01*
X102516934Y-86370715D01*
X102488301Y-86458839D01*
X102482711Y-86468519D01*
X102478347Y-86480994D01*
X102443392Y-86536624D01*
X102403456Y-86605796D01*
X102391780Y-86618762D01*
X102381607Y-86634954D01*
X102337378Y-86679182D01*
X102289906Y-86731906D01*
X102270703Y-86745857D01*
X102253034Y-86763527D01*
X102203827Y-86794445D01*
X102152620Y-86831650D01*
X102125159Y-86843876D01*
X102099074Y-86860267D01*
X102048966Y-86877800D01*
X101997596Y-86900672D01*
X101961945Y-86908249D01*
X101927447Y-86920321D01*
X101880000Y-86925667D01*
X101831608Y-86935953D01*
X101788712Y-86935953D01*
X101746760Y-86940680D01*
X101704808Y-86935953D01*
X101661912Y-86935953D01*
X101613518Y-86925666D01*
X101566073Y-86920321D01*
X101531575Y-86908249D01*
X101495923Y-86900672D01*
X101444549Y-86877798D01*
X101394446Y-86860267D01*
X101368363Y-86843878D01*
X101340899Y-86831650D01*
X101289685Y-86794441D01*
X101240486Y-86763527D01*
X101222818Y-86745859D01*
X101203613Y-86731906D01*
X101156131Y-86679172D01*
X101111913Y-86634954D01*
X101101741Y-86618766D01*
X101090063Y-86605796D01*
X101050115Y-86536604D01*
X101015173Y-86480994D01*
X101010809Y-86468524D01*
X101005218Y-86458839D01*
X100976571Y-86370675D01*
X100955119Y-86309367D01*
X100954305Y-86302150D01*
X100952777Y-86297445D01*
X100938923Y-86165635D01*
X100934760Y-86128680D01*
X100938923Y-86091727D01*
X100952777Y-85959914D01*
X100954306Y-85955208D01*
X100955119Y-85947993D01*
X100976566Y-85886697D01*
X101005218Y-85798520D01*
X101010810Y-85788833D01*
X101015173Y-85776366D01*
X101050108Y-85720766D01*
X101090063Y-85651563D01*
X101101743Y-85638590D01*
X101111913Y-85622406D01*
X101156122Y-85578196D01*
X101203613Y-85525453D01*
X101222822Y-85511496D01*
X101240486Y-85493833D01*
X101289679Y-85462922D01*
X101340900Y-85425709D01*
X101368366Y-85413479D01*
X101394446Y-85397093D01*
X101444540Y-85379564D01*
X101495923Y-85356687D01*
X101531580Y-85349108D01*
X101566073Y-85337039D01*
X101613515Y-85331693D01*
X101661912Y-85321407D01*
X101704808Y-85321407D01*
X101746760Y-85316680D01*
X101788712Y-85321407D01*
G37*
G36*
X129728712Y-85321407D02*
G01*
X129771608Y-85321407D01*
X129820003Y-85331693D01*
X129867447Y-85337039D01*
X129901940Y-85349108D01*
X129937596Y-85356687D01*
X129988976Y-85379563D01*
X130039074Y-85397093D01*
X130065153Y-85413480D01*
X130092620Y-85425709D01*
X130143837Y-85462920D01*
X130193034Y-85493833D01*
X130210700Y-85511499D01*
X130229906Y-85525453D01*
X130277387Y-85578186D01*
X130321607Y-85622406D01*
X130331778Y-85638593D01*
X130343456Y-85651563D01*
X130383399Y-85720747D01*
X130418347Y-85776366D01*
X130422710Y-85788837D01*
X130428301Y-85798520D01*
X130456939Y-85886657D01*
X130478401Y-85947993D01*
X130479214Y-85955212D01*
X130480742Y-85959914D01*
X130494581Y-86091595D01*
X130498760Y-86128680D01*
X130494581Y-86165767D01*
X130480742Y-86297445D01*
X130479214Y-86302145D01*
X130478401Y-86309367D01*
X130456934Y-86370715D01*
X130428301Y-86458839D01*
X130422711Y-86468519D01*
X130418347Y-86480994D01*
X130383392Y-86536624D01*
X130343456Y-86605796D01*
X130331780Y-86618762D01*
X130321607Y-86634954D01*
X130277378Y-86679182D01*
X130229906Y-86731906D01*
X130210703Y-86745857D01*
X130193034Y-86763527D01*
X130143827Y-86794445D01*
X130092620Y-86831650D01*
X130065159Y-86843876D01*
X130039074Y-86860267D01*
X129988966Y-86877800D01*
X129937596Y-86900672D01*
X129901945Y-86908249D01*
X129867447Y-86920321D01*
X129820000Y-86925667D01*
X129771608Y-86935953D01*
X129728712Y-86935953D01*
X129686760Y-86940680D01*
X129644808Y-86935953D01*
X129601912Y-86935953D01*
X129553518Y-86925666D01*
X129506073Y-86920321D01*
X129471575Y-86908249D01*
X129435923Y-86900672D01*
X129384549Y-86877798D01*
X129334446Y-86860267D01*
X129308363Y-86843878D01*
X129280899Y-86831650D01*
X129229685Y-86794441D01*
X129180486Y-86763527D01*
X129162818Y-86745859D01*
X129143613Y-86731906D01*
X129096131Y-86679172D01*
X129051913Y-86634954D01*
X129041741Y-86618766D01*
X129030063Y-86605796D01*
X128990115Y-86536604D01*
X128955173Y-86480994D01*
X128950809Y-86468524D01*
X128945218Y-86458839D01*
X128916571Y-86370675D01*
X128895119Y-86309367D01*
X128894305Y-86302150D01*
X128892777Y-86297445D01*
X128878923Y-86165635D01*
X128874760Y-86128680D01*
X128878923Y-86091727D01*
X128892777Y-85959914D01*
X128894306Y-85955208D01*
X128895119Y-85947993D01*
X128916566Y-85886697D01*
X128945218Y-85798520D01*
X128950810Y-85788833D01*
X128955173Y-85776366D01*
X128990108Y-85720766D01*
X129030063Y-85651563D01*
X129041743Y-85638590D01*
X129051913Y-85622406D01*
X129096122Y-85578196D01*
X129143613Y-85525453D01*
X129162822Y-85511496D01*
X129180486Y-85493833D01*
X129229679Y-85462922D01*
X129280900Y-85425709D01*
X129308366Y-85413479D01*
X129334446Y-85397093D01*
X129384540Y-85379564D01*
X129435923Y-85356687D01*
X129471580Y-85349108D01*
X129506073Y-85337039D01*
X129553515Y-85331693D01*
X129601912Y-85321407D01*
X129644808Y-85321407D01*
X129686760Y-85316680D01*
X129728712Y-85321407D01*
G37*
G36*
X96462664Y-83146602D02*
G01*
X96625000Y-83218878D01*
X96768761Y-83323327D01*
X96887664Y-83455383D01*
X96976514Y-83609274D01*
X97031425Y-83778275D01*
X97050000Y-83955000D01*
X97031425Y-84131725D01*
X96976514Y-84300726D01*
X96887664Y-84454617D01*
X96768761Y-84586673D01*
X96625000Y-84691122D01*
X96462664Y-84763398D01*
X96288849Y-84800344D01*
X96111151Y-84800344D01*
X95937336Y-84763398D01*
X95775000Y-84691122D01*
X95631239Y-84586673D01*
X95512336Y-84454617D01*
X95423486Y-84300726D01*
X95368575Y-84131725D01*
X95350000Y-83955000D01*
X95368575Y-83778275D01*
X95423486Y-83609274D01*
X95512336Y-83455383D01*
X95631239Y-83323327D01*
X95775000Y-83218878D01*
X95937336Y-83146602D01*
X96111151Y-83109656D01*
X96288849Y-83109656D01*
X96462664Y-83146602D01*
G37*
G36*
X101788712Y-82781407D02*
G01*
X101831608Y-82781407D01*
X101880003Y-82791693D01*
X101927447Y-82797039D01*
X101961940Y-82809108D01*
X101997596Y-82816687D01*
X102048976Y-82839563D01*
X102099074Y-82857093D01*
X102125153Y-82873480D01*
X102152620Y-82885709D01*
X102203837Y-82922920D01*
X102253034Y-82953833D01*
X102270700Y-82971499D01*
X102289906Y-82985453D01*
X102337387Y-83038186D01*
X102381607Y-83082406D01*
X102391778Y-83098593D01*
X102403456Y-83111563D01*
X102443399Y-83180747D01*
X102478347Y-83236366D01*
X102482710Y-83248837D01*
X102488301Y-83258520D01*
X102516939Y-83346657D01*
X102538401Y-83407993D01*
X102539214Y-83415212D01*
X102540742Y-83419914D01*
X102554581Y-83551595D01*
X102558760Y-83588680D01*
X102554581Y-83625767D01*
X102540742Y-83757445D01*
X102539214Y-83762145D01*
X102538401Y-83769367D01*
X102516934Y-83830715D01*
X102488301Y-83918839D01*
X102482711Y-83928519D01*
X102478347Y-83940994D01*
X102443392Y-83996624D01*
X102403456Y-84065796D01*
X102391780Y-84078762D01*
X102381607Y-84094954D01*
X102337378Y-84139182D01*
X102289906Y-84191906D01*
X102270703Y-84205857D01*
X102253034Y-84223527D01*
X102203827Y-84254445D01*
X102152620Y-84291650D01*
X102125159Y-84303876D01*
X102099074Y-84320267D01*
X102048966Y-84337800D01*
X101997596Y-84360672D01*
X101961945Y-84368249D01*
X101927447Y-84380321D01*
X101880000Y-84385667D01*
X101831608Y-84395953D01*
X101788712Y-84395953D01*
X101746760Y-84400680D01*
X101704808Y-84395953D01*
X101661912Y-84395953D01*
X101613518Y-84385666D01*
X101566073Y-84380321D01*
X101531575Y-84368249D01*
X101495923Y-84360672D01*
X101444549Y-84337798D01*
X101394446Y-84320267D01*
X101368363Y-84303878D01*
X101340899Y-84291650D01*
X101289685Y-84254441D01*
X101240486Y-84223527D01*
X101222818Y-84205859D01*
X101203613Y-84191906D01*
X101156131Y-84139172D01*
X101111913Y-84094954D01*
X101101741Y-84078766D01*
X101090063Y-84065796D01*
X101050115Y-83996604D01*
X101015173Y-83940994D01*
X101010809Y-83928524D01*
X101005218Y-83918839D01*
X100976571Y-83830675D01*
X100955119Y-83769367D01*
X100954305Y-83762150D01*
X100952777Y-83757445D01*
X100938923Y-83625635D01*
X100934760Y-83588680D01*
X100938923Y-83551727D01*
X100952777Y-83419914D01*
X100954306Y-83415208D01*
X100955119Y-83407993D01*
X100976566Y-83346697D01*
X101005218Y-83258520D01*
X101010810Y-83248833D01*
X101015173Y-83236366D01*
X101050108Y-83180766D01*
X101090063Y-83111563D01*
X101101743Y-83098590D01*
X101111913Y-83082406D01*
X101156122Y-83038196D01*
X101203613Y-82985453D01*
X101222822Y-82971496D01*
X101240486Y-82953833D01*
X101289679Y-82922922D01*
X101340900Y-82885709D01*
X101368366Y-82873479D01*
X101394446Y-82857093D01*
X101444540Y-82839564D01*
X101495923Y-82816687D01*
X101531580Y-82809108D01*
X101566073Y-82797039D01*
X101613515Y-82791693D01*
X101661912Y-82781407D01*
X101704808Y-82781407D01*
X101746760Y-82776680D01*
X101788712Y-82781407D01*
G37*
G36*
X129728712Y-82781407D02*
G01*
X129771608Y-82781407D01*
X129820003Y-82791693D01*
X129867447Y-82797039D01*
X129901940Y-82809108D01*
X129937596Y-82816687D01*
X129988976Y-82839563D01*
X130039074Y-82857093D01*
X130065153Y-82873480D01*
X130092620Y-82885709D01*
X130143837Y-82922920D01*
X130193034Y-82953833D01*
X130210700Y-82971499D01*
X130229906Y-82985453D01*
X130277387Y-83038186D01*
X130321607Y-83082406D01*
X130331778Y-83098593D01*
X130343456Y-83111563D01*
X130383399Y-83180747D01*
X130418347Y-83236366D01*
X130422710Y-83248837D01*
X130428301Y-83258520D01*
X130456939Y-83346657D01*
X130478401Y-83407993D01*
X130479214Y-83415212D01*
X130480742Y-83419914D01*
X130494581Y-83551595D01*
X130498760Y-83588680D01*
X130494581Y-83625767D01*
X130480742Y-83757445D01*
X130479214Y-83762145D01*
X130478401Y-83769367D01*
X130456934Y-83830715D01*
X130428301Y-83918839D01*
X130422711Y-83928519D01*
X130418347Y-83940994D01*
X130383392Y-83996624D01*
X130343456Y-84065796D01*
X130331780Y-84078762D01*
X130321607Y-84094954D01*
X130277378Y-84139182D01*
X130229906Y-84191906D01*
X130210703Y-84205857D01*
X130193034Y-84223527D01*
X130143827Y-84254445D01*
X130092620Y-84291650D01*
X130065159Y-84303876D01*
X130039074Y-84320267D01*
X129988966Y-84337800D01*
X129937596Y-84360672D01*
X129901945Y-84368249D01*
X129867447Y-84380321D01*
X129820000Y-84385667D01*
X129771608Y-84395953D01*
X129728712Y-84395953D01*
X129686760Y-84400680D01*
X129644808Y-84395953D01*
X129601912Y-84395953D01*
X129553518Y-84385666D01*
X129506073Y-84380321D01*
X129471575Y-84368249D01*
X129435923Y-84360672D01*
X129384549Y-84337798D01*
X129334446Y-84320267D01*
X129308363Y-84303878D01*
X129280899Y-84291650D01*
X129229685Y-84254441D01*
X129180486Y-84223527D01*
X129162818Y-84205859D01*
X129143613Y-84191906D01*
X129096131Y-84139172D01*
X129051913Y-84094954D01*
X129041741Y-84078766D01*
X129030063Y-84065796D01*
X128990115Y-83996604D01*
X128955173Y-83940994D01*
X128950809Y-83928524D01*
X128945218Y-83918839D01*
X128916571Y-83830675D01*
X128895119Y-83769367D01*
X128894305Y-83762150D01*
X128892777Y-83757445D01*
X128878923Y-83625635D01*
X128874760Y-83588680D01*
X128878923Y-83551727D01*
X128892777Y-83419914D01*
X128894306Y-83415208D01*
X128895119Y-83407993D01*
X128916566Y-83346697D01*
X128945218Y-83258520D01*
X128950810Y-83248833D01*
X128955173Y-83236366D01*
X128990108Y-83180766D01*
X129030063Y-83111563D01*
X129041743Y-83098590D01*
X129051913Y-83082406D01*
X129096122Y-83038196D01*
X129143613Y-82985453D01*
X129162822Y-82971496D01*
X129180486Y-82953833D01*
X129229679Y-82922922D01*
X129280900Y-82885709D01*
X129308366Y-82873479D01*
X129334446Y-82857093D01*
X129384540Y-82839564D01*
X129435923Y-82816687D01*
X129471580Y-82809108D01*
X129506073Y-82797039D01*
X129553515Y-82791693D01*
X129601912Y-82781407D01*
X129644808Y-82781407D01*
X129686760Y-82776680D01*
X129728712Y-82781407D01*
G37*
G36*
X96462664Y-80606602D02*
G01*
X96625000Y-80678878D01*
X96768761Y-80783327D01*
X96887664Y-80915383D01*
X96976514Y-81069274D01*
X97031425Y-81238275D01*
X97050000Y-81415000D01*
X97031425Y-81591725D01*
X96976514Y-81760726D01*
X96887664Y-81914617D01*
X96768761Y-82046673D01*
X96625000Y-82151122D01*
X96462664Y-82223398D01*
X96288849Y-82260344D01*
X96111151Y-82260344D01*
X95937336Y-82223398D01*
X95775000Y-82151122D01*
X95631239Y-82046673D01*
X95512336Y-81914617D01*
X95423486Y-81760726D01*
X95368575Y-81591725D01*
X95350000Y-81415000D01*
X95368575Y-81238275D01*
X95423486Y-81069274D01*
X95512336Y-80915383D01*
X95631239Y-80783327D01*
X95775000Y-80678878D01*
X95937336Y-80606602D01*
X96111151Y-80569656D01*
X96288849Y-80569656D01*
X96462664Y-80606602D01*
G37*
G36*
X101788712Y-80241407D02*
G01*
X101831608Y-80241407D01*
X101880003Y-80251693D01*
X101927447Y-80257039D01*
X101961940Y-80269108D01*
X101997596Y-80276687D01*
X102048976Y-80299563D01*
X102099074Y-80317093D01*
X102125153Y-80333480D01*
X102152620Y-80345709D01*
X102203837Y-80382920D01*
X102253034Y-80413833D01*
X102270700Y-80431499D01*
X102289906Y-80445453D01*
X102337387Y-80498186D01*
X102381607Y-80542406D01*
X102391778Y-80558593D01*
X102403456Y-80571563D01*
X102443399Y-80640747D01*
X102478347Y-80696366D01*
X102482710Y-80708837D01*
X102488301Y-80718520D01*
X102516939Y-80806657D01*
X102538401Y-80867993D01*
X102539214Y-80875212D01*
X102540742Y-80879914D01*
X102554581Y-81011595D01*
X102558760Y-81048680D01*
X102554581Y-81085767D01*
X102540742Y-81217445D01*
X102539214Y-81222145D01*
X102538401Y-81229367D01*
X102516934Y-81290715D01*
X102488301Y-81378839D01*
X102482711Y-81388519D01*
X102478347Y-81400994D01*
X102443392Y-81456624D01*
X102403456Y-81525796D01*
X102391780Y-81538762D01*
X102381607Y-81554954D01*
X102337378Y-81599182D01*
X102289906Y-81651906D01*
X102270703Y-81665857D01*
X102253034Y-81683527D01*
X102203827Y-81714445D01*
X102152620Y-81751650D01*
X102125159Y-81763876D01*
X102099074Y-81780267D01*
X102048966Y-81797800D01*
X101997596Y-81820672D01*
X101961945Y-81828249D01*
X101927447Y-81840321D01*
X101880000Y-81845667D01*
X101831608Y-81855953D01*
X101788712Y-81855953D01*
X101746760Y-81860680D01*
X101704808Y-81855953D01*
X101661912Y-81855953D01*
X101613518Y-81845666D01*
X101566073Y-81840321D01*
X101531575Y-81828249D01*
X101495923Y-81820672D01*
X101444549Y-81797798D01*
X101394446Y-81780267D01*
X101368363Y-81763878D01*
X101340899Y-81751650D01*
X101289685Y-81714441D01*
X101240486Y-81683527D01*
X101222818Y-81665859D01*
X101203613Y-81651906D01*
X101156131Y-81599172D01*
X101111913Y-81554954D01*
X101101741Y-81538766D01*
X101090063Y-81525796D01*
X101050115Y-81456604D01*
X101015173Y-81400994D01*
X101010809Y-81388524D01*
X101005218Y-81378839D01*
X100976571Y-81290675D01*
X100955119Y-81229367D01*
X100954305Y-81222150D01*
X100952777Y-81217445D01*
X100938923Y-81085635D01*
X100934760Y-81048680D01*
X100938923Y-81011727D01*
X100952777Y-80879914D01*
X100954306Y-80875208D01*
X100955119Y-80867993D01*
X100976566Y-80806697D01*
X101005218Y-80718520D01*
X101010810Y-80708833D01*
X101015173Y-80696366D01*
X101050108Y-80640766D01*
X101090063Y-80571563D01*
X101101743Y-80558590D01*
X101111913Y-80542406D01*
X101156122Y-80498196D01*
X101203613Y-80445453D01*
X101222822Y-80431496D01*
X101240486Y-80413833D01*
X101289679Y-80382922D01*
X101340900Y-80345709D01*
X101368366Y-80333479D01*
X101394446Y-80317093D01*
X101444540Y-80299564D01*
X101495923Y-80276687D01*
X101531580Y-80269108D01*
X101566073Y-80257039D01*
X101613515Y-80251693D01*
X101661912Y-80241407D01*
X101704808Y-80241407D01*
X101746760Y-80236680D01*
X101788712Y-80241407D01*
G37*
G36*
X129728712Y-80241407D02*
G01*
X129771608Y-80241407D01*
X129820003Y-80251693D01*
X129867447Y-80257039D01*
X129901940Y-80269108D01*
X129937596Y-80276687D01*
X129988976Y-80299563D01*
X130039074Y-80317093D01*
X130065153Y-80333480D01*
X130092620Y-80345709D01*
X130143837Y-80382920D01*
X130193034Y-80413833D01*
X130210700Y-80431499D01*
X130229906Y-80445453D01*
X130277387Y-80498186D01*
X130321607Y-80542406D01*
X130331778Y-80558593D01*
X130343456Y-80571563D01*
X130383399Y-80640747D01*
X130418347Y-80696366D01*
X130422710Y-80708837D01*
X130428301Y-80718520D01*
X130456939Y-80806657D01*
X130478401Y-80867993D01*
X130479214Y-80875212D01*
X130480742Y-80879914D01*
X130494581Y-81011595D01*
X130498760Y-81048680D01*
X130494581Y-81085767D01*
X130480742Y-81217445D01*
X130479214Y-81222145D01*
X130478401Y-81229367D01*
X130456934Y-81290715D01*
X130428301Y-81378839D01*
X130422711Y-81388519D01*
X130418347Y-81400994D01*
X130383392Y-81456624D01*
X130343456Y-81525796D01*
X130331780Y-81538762D01*
X130321607Y-81554954D01*
X130277378Y-81599182D01*
X130229906Y-81651906D01*
X130210703Y-81665857D01*
X130193034Y-81683527D01*
X130143827Y-81714445D01*
X130092620Y-81751650D01*
X130065159Y-81763876D01*
X130039074Y-81780267D01*
X129988966Y-81797800D01*
X129937596Y-81820672D01*
X129901945Y-81828249D01*
X129867447Y-81840321D01*
X129820000Y-81845667D01*
X129771608Y-81855953D01*
X129728712Y-81855953D01*
X129686760Y-81860680D01*
X129644808Y-81855953D01*
X129601912Y-81855953D01*
X129553518Y-81845666D01*
X129506073Y-81840321D01*
X129471575Y-81828249D01*
X129435923Y-81820672D01*
X129384549Y-81797798D01*
X129334446Y-81780267D01*
X129308363Y-81763878D01*
X129280899Y-81751650D01*
X129229685Y-81714441D01*
X129180486Y-81683527D01*
X129162818Y-81665859D01*
X129143613Y-81651906D01*
X129096131Y-81599172D01*
X129051913Y-81554954D01*
X129041741Y-81538766D01*
X129030063Y-81525796D01*
X128990115Y-81456604D01*
X128955173Y-81400994D01*
X128950809Y-81388524D01*
X128945218Y-81378839D01*
X128916571Y-81290675D01*
X128895119Y-81229367D01*
X128894305Y-81222150D01*
X128892777Y-81217445D01*
X128878923Y-81085635D01*
X128874760Y-81048680D01*
X128878923Y-81011727D01*
X128892777Y-80879914D01*
X128894306Y-80875208D01*
X128895119Y-80867993D01*
X128916566Y-80806697D01*
X128945218Y-80718520D01*
X128950810Y-80708833D01*
X128955173Y-80696366D01*
X128990108Y-80640766D01*
X129030063Y-80571563D01*
X129041743Y-80558590D01*
X129051913Y-80542406D01*
X129096122Y-80498196D01*
X129143613Y-80445453D01*
X129162822Y-80431496D01*
X129180486Y-80413833D01*
X129229679Y-80382922D01*
X129280900Y-80345709D01*
X129308366Y-80333479D01*
X129334446Y-80317093D01*
X129384540Y-80299564D01*
X129435923Y-80276687D01*
X129471580Y-80269108D01*
X129506073Y-80257039D01*
X129553515Y-80251693D01*
X129601912Y-80241407D01*
X129644808Y-80241407D01*
X129686760Y-80236680D01*
X129728712Y-80241407D01*
G37*
G36*
X97050000Y-79725000D02*
G01*
X95350000Y-79725000D01*
X95350000Y-78025000D01*
X97050000Y-78025000D01*
X97050000Y-79725000D01*
G37*
G36*
X102527894Y-77700486D02*
G01*
X102544115Y-77711325D01*
X102554954Y-77727546D01*
X102558760Y-77746680D01*
X102558760Y-79270680D01*
X102554954Y-79289814D01*
X102544115Y-79306035D01*
X102527894Y-79316874D01*
X102508760Y-79320680D01*
X100984760Y-79320680D01*
X100965626Y-79316874D01*
X100949405Y-79306035D01*
X100938566Y-79289814D01*
X100934760Y-79270680D01*
X100934760Y-77746680D01*
X100938566Y-77727546D01*
X100949405Y-77711325D01*
X100965626Y-77700486D01*
X100984760Y-77696680D01*
X102508760Y-77696680D01*
X102527894Y-77700486D01*
G37*
G36*
X130467894Y-77700486D02*
G01*
X130484115Y-77711325D01*
X130494954Y-77727546D01*
X130498760Y-77746680D01*
X130498760Y-79270680D01*
X130494954Y-79289814D01*
X130484115Y-79306035D01*
X130467894Y-79316874D01*
X130448760Y-79320680D01*
X128924760Y-79320680D01*
X128905626Y-79316874D01*
X128889405Y-79306035D01*
X128878566Y-79289814D01*
X128874760Y-79270680D01*
X128874760Y-77746680D01*
X128878566Y-77727546D01*
X128889405Y-77711325D01*
X128905626Y-77700486D01*
X128924760Y-77696680D01*
X130448760Y-77696680D01*
X130467894Y-77700486D01*
G37*
G36*
X93050295Y-48619699D02*
G01*
X93294427Y-48678310D01*
X93526385Y-48774390D01*
X93740456Y-48905573D01*
X93931371Y-49068629D01*
X94094427Y-49259544D01*
X94225610Y-49473615D01*
X94321690Y-49705573D01*
X94380301Y-49949705D01*
X94400000Y-50200000D01*
X94380301Y-50450295D01*
X94321690Y-50694427D01*
X94225610Y-50926385D01*
X94094427Y-51140456D01*
X93931371Y-51331371D01*
X93740456Y-51494427D01*
X93526385Y-51625610D01*
X93294427Y-51721690D01*
X93050295Y-51780301D01*
X92800000Y-51800000D01*
X92549705Y-51780301D01*
X92305573Y-51721690D01*
X92073615Y-51625610D01*
X91859544Y-51494427D01*
X91668629Y-51331371D01*
X91505573Y-51140456D01*
X91374390Y-50926385D01*
X91278310Y-50694427D01*
X91219699Y-50450295D01*
X91200000Y-50200000D01*
X91219699Y-49949705D01*
X91278310Y-49705573D01*
X91374390Y-49473615D01*
X91505573Y-49259544D01*
X91668629Y-49068629D01*
X91859544Y-48905573D01*
X92073615Y-48774390D01*
X92305573Y-48678310D01*
X92549705Y-48619699D01*
X92800000Y-48600000D01*
X93050295Y-48619699D01*
G37*
G36*
X137050295Y-48619699D02*
G01*
X137294427Y-48678310D01*
X137526385Y-48774390D01*
X137740456Y-48905573D01*
X137931371Y-49068629D01*
X138094427Y-49259544D01*
X138225610Y-49473615D01*
X138321690Y-49705573D01*
X138380301Y-49949705D01*
X138400000Y-50200000D01*
X138380301Y-50450295D01*
X138321690Y-50694427D01*
X138225610Y-50926385D01*
X138094427Y-51140456D01*
X137931371Y-51331371D01*
X137740456Y-51494427D01*
X137526385Y-51625610D01*
X137294427Y-51721690D01*
X137050295Y-51780301D01*
X136800000Y-51800000D01*
X136549705Y-51780301D01*
X136305573Y-51721690D01*
X136073615Y-51625610D01*
X135859544Y-51494427D01*
X135668629Y-51331371D01*
X135505573Y-51140456D01*
X135374390Y-50926385D01*
X135278310Y-50694427D01*
X135219699Y-50450295D01*
X135200000Y-50200000D01*
X135219699Y-49949705D01*
X135278310Y-49705573D01*
X135374390Y-49473615D01*
X135505573Y-49259544D01*
X135668629Y-49068629D01*
X135859544Y-48905573D01*
X136073615Y-48774390D01*
X136305573Y-48678310D01*
X136549705Y-48619699D01*
X136800000Y-48600000D01*
X137050295Y-48619699D01*
G37*
M02*
