%TF.GenerationSoftware,KiCad,Pcbnew,8.0.6-8.0.6-0~ubuntu24.04.1*%
%TF.CreationDate,2024-11-24T15:52:50-06:00*%
%TF.ProjectId,edge_human_detection_board,65646765-5f68-4756-9d61-6e5f64657465,rev?*%
%TF.SameCoordinates,Original*%
%TF.FileFunction,Legend,Top*%
%TF.FilePolarity,Positive*%
%FSLAX46Y46*%
G04 Gerber Fmt 4.6, Leading zero omitted, Abs format (unit mm)*
G04 Created by KiCad (PCBNEW 8.0.6-8.0.6-0~ubuntu24.04.1) date 2024-11-24 15:52:50*
%MOMM*%
%LPD*%
G01*
G04 APERTURE LIST*
%ADD10C,0.150000*%
%ADD11C,0.000000*%
G04 APERTURE END LIST*
D10*
X129289160Y-83089533D02*
X129898684Y-83089533D01*
X129593922Y-83394295D02*
X129593922Y-82784771D01*
X130660588Y-82594295D02*
X130279636Y-82594295D01*
X130279636Y-82594295D02*
X130241540Y-82975247D01*
X130241540Y-82975247D02*
X130279636Y-82937152D01*
X130279636Y-82937152D02*
X130355826Y-82899057D01*
X130355826Y-82899057D02*
X130546302Y-82899057D01*
X130546302Y-82899057D02*
X130622493Y-82937152D01*
X130622493Y-82937152D02*
X130660588Y-82975247D01*
X130660588Y-82975247D02*
X130698683Y-83051438D01*
X130698683Y-83051438D02*
X130698683Y-83241914D01*
X130698683Y-83241914D02*
X130660588Y-83318104D01*
X130660588Y-83318104D02*
X130622493Y-83356200D01*
X130622493Y-83356200D02*
X130546302Y-83394295D01*
X130546302Y-83394295D02*
X130355826Y-83394295D01*
X130355826Y-83394295D02*
X130279636Y-83356200D01*
X130279636Y-83356200D02*
X130241540Y-83318104D01*
X130927255Y-82594295D02*
X131193922Y-83394295D01*
X131193922Y-83394295D02*
X131460588Y-82594295D01*
X131727255Y-83394295D02*
X131727255Y-82594295D01*
X131727255Y-82594295D02*
X131917731Y-82594295D01*
X131917731Y-82594295D02*
X132032017Y-82632390D01*
X132032017Y-82632390D02*
X132108207Y-82708580D01*
X132108207Y-82708580D02*
X132146302Y-82784771D01*
X132146302Y-82784771D02*
X132184398Y-82937152D01*
X132184398Y-82937152D02*
X132184398Y-83051438D01*
X132184398Y-83051438D02*
X132146302Y-83203819D01*
X132146302Y-83203819D02*
X132108207Y-83280009D01*
X132108207Y-83280009D02*
X132032017Y-83356200D01*
X132032017Y-83356200D02*
X131917731Y-83394295D01*
X131917731Y-83394295D02*
X131727255Y-83394295D01*
X132984398Y-83318104D02*
X132946302Y-83356200D01*
X132946302Y-83356200D02*
X132832017Y-83394295D01*
X132832017Y-83394295D02*
X132755826Y-83394295D01*
X132755826Y-83394295D02*
X132641540Y-83356200D01*
X132641540Y-83356200D02*
X132565350Y-83280009D01*
X132565350Y-83280009D02*
X132527255Y-83203819D01*
X132527255Y-83203819D02*
X132489159Y-83051438D01*
X132489159Y-83051438D02*
X132489159Y-82937152D01*
X132489159Y-82937152D02*
X132527255Y-82784771D01*
X132527255Y-82784771D02*
X132565350Y-82708580D01*
X132565350Y-82708580D02*
X132641540Y-82632390D01*
X132641540Y-82632390D02*
X132755826Y-82594295D01*
X132755826Y-82594295D02*
X132832017Y-82594295D01*
X132832017Y-82594295D02*
X132946302Y-82632390D01*
X132946302Y-82632390D02*
X132984398Y-82670485D01*
X168089533Y-53210839D02*
X168089533Y-52601316D01*
X168394295Y-52906077D02*
X167784771Y-52906077D01*
X167594295Y-52296554D02*
X167594295Y-51801316D01*
X167594295Y-51801316D02*
X167899057Y-52067982D01*
X167899057Y-52067982D02*
X167899057Y-51953697D01*
X167899057Y-51953697D02*
X167937152Y-51877506D01*
X167937152Y-51877506D02*
X167975247Y-51839411D01*
X167975247Y-51839411D02*
X168051438Y-51801316D01*
X168051438Y-51801316D02*
X168241914Y-51801316D01*
X168241914Y-51801316D02*
X168318104Y-51839411D01*
X168318104Y-51839411D02*
X168356200Y-51877506D01*
X168356200Y-51877506D02*
X168394295Y-51953697D01*
X168394295Y-51953697D02*
X168394295Y-52182268D01*
X168394295Y-52182268D02*
X168356200Y-52258459D01*
X168356200Y-52258459D02*
X168318104Y-52296554D01*
X168318104Y-51458458D02*
X168356200Y-51420363D01*
X168356200Y-51420363D02*
X168394295Y-51458458D01*
X168394295Y-51458458D02*
X168356200Y-51496554D01*
X168356200Y-51496554D02*
X168318104Y-51458458D01*
X168318104Y-51458458D02*
X168394295Y-51458458D01*
X167594295Y-51153697D02*
X167594295Y-50658459D01*
X167594295Y-50658459D02*
X167899057Y-50925125D01*
X167899057Y-50925125D02*
X167899057Y-50810840D01*
X167899057Y-50810840D02*
X167937152Y-50734649D01*
X167937152Y-50734649D02*
X167975247Y-50696554D01*
X167975247Y-50696554D02*
X168051438Y-50658459D01*
X168051438Y-50658459D02*
X168241914Y-50658459D01*
X168241914Y-50658459D02*
X168318104Y-50696554D01*
X168318104Y-50696554D02*
X168356200Y-50734649D01*
X168356200Y-50734649D02*
X168394295Y-50810840D01*
X168394295Y-50810840D02*
X168394295Y-51039411D01*
X168394295Y-51039411D02*
X168356200Y-51115602D01*
X168356200Y-51115602D02*
X168318104Y-51153697D01*
X167594295Y-50429887D02*
X168394295Y-50163220D01*
X168394295Y-50163220D02*
X167594295Y-49896554D01*
X168394295Y-49629887D02*
X167594295Y-49629887D01*
X167594295Y-49629887D02*
X167594295Y-49439411D01*
X167594295Y-49439411D02*
X167632390Y-49325125D01*
X167632390Y-49325125D02*
X167708580Y-49248935D01*
X167708580Y-49248935D02*
X167784771Y-49210840D01*
X167784771Y-49210840D02*
X167937152Y-49172744D01*
X167937152Y-49172744D02*
X168051438Y-49172744D01*
X168051438Y-49172744D02*
X168203819Y-49210840D01*
X168203819Y-49210840D02*
X168280009Y-49248935D01*
X168280009Y-49248935D02*
X168356200Y-49325125D01*
X168356200Y-49325125D02*
X168394295Y-49439411D01*
X168394295Y-49439411D02*
X168394295Y-49629887D01*
X168318104Y-48372744D02*
X168356200Y-48410840D01*
X168356200Y-48410840D02*
X168394295Y-48525125D01*
X168394295Y-48525125D02*
X168394295Y-48601316D01*
X168394295Y-48601316D02*
X168356200Y-48715602D01*
X168356200Y-48715602D02*
X168280009Y-48791792D01*
X168280009Y-48791792D02*
X168203819Y-48829887D01*
X168203819Y-48829887D02*
X168051438Y-48867983D01*
X168051438Y-48867983D02*
X167937152Y-48867983D01*
X167937152Y-48867983D02*
X167784771Y-48829887D01*
X167784771Y-48829887D02*
X167708580Y-48791792D01*
X167708580Y-48791792D02*
X167632390Y-48715602D01*
X167632390Y-48715602D02*
X167594295Y-48601316D01*
X167594295Y-48601316D02*
X167594295Y-48525125D01*
X167594295Y-48525125D02*
X167632390Y-48410840D01*
X167632390Y-48410840D02*
X167670485Y-48372744D01*
X168699057Y-47801316D02*
X168660961Y-47839411D01*
X168660961Y-47839411D02*
X168546676Y-47915602D01*
X168546676Y-47915602D02*
X168470485Y-47953697D01*
X168470485Y-47953697D02*
X168356200Y-47991792D01*
X168356200Y-47991792D02*
X168165723Y-48029887D01*
X168165723Y-48029887D02*
X168013342Y-48029887D01*
X168013342Y-48029887D02*
X167822866Y-47991792D01*
X167822866Y-47991792D02*
X167708580Y-47953697D01*
X167708580Y-47953697D02*
X167632390Y-47915602D01*
X167632390Y-47915602D02*
X167518104Y-47839411D01*
X167518104Y-47839411D02*
X167480009Y-47801316D01*
X167594295Y-47610840D02*
X167594295Y-47153697D01*
X168394295Y-47382269D02*
X167594295Y-47382269D01*
X167594295Y-46734649D02*
X167594295Y-46582268D01*
X167594295Y-46582268D02*
X167632390Y-46506078D01*
X167632390Y-46506078D02*
X167708580Y-46429887D01*
X167708580Y-46429887D02*
X167860961Y-46391792D01*
X167860961Y-46391792D02*
X168127628Y-46391792D01*
X168127628Y-46391792D02*
X168280009Y-46429887D01*
X168280009Y-46429887D02*
X168356200Y-46506078D01*
X168356200Y-46506078D02*
X168394295Y-46582268D01*
X168394295Y-46582268D02*
X168394295Y-46734649D01*
X168394295Y-46734649D02*
X168356200Y-46810840D01*
X168356200Y-46810840D02*
X168280009Y-46887030D01*
X168280009Y-46887030D02*
X168127628Y-46925126D01*
X168127628Y-46925126D02*
X167860961Y-46925126D01*
X167860961Y-46925126D02*
X167708580Y-46887030D01*
X167708580Y-46887030D02*
X167632390Y-46810840D01*
X167632390Y-46810840D02*
X167594295Y-46734649D01*
X167975247Y-45782269D02*
X167975247Y-46048935D01*
X168394295Y-46048935D02*
X167594295Y-46048935D01*
X167594295Y-46048935D02*
X167594295Y-45667983D01*
X168699057Y-45439412D02*
X168660961Y-45401317D01*
X168660961Y-45401317D02*
X168546676Y-45325126D01*
X168546676Y-45325126D02*
X168470485Y-45287031D01*
X168470485Y-45287031D02*
X168356200Y-45248936D01*
X168356200Y-45248936D02*
X168165723Y-45210840D01*
X168165723Y-45210840D02*
X168013342Y-45210840D01*
X168013342Y-45210840D02*
X167822866Y-45248936D01*
X167822866Y-45248936D02*
X167708580Y-45287031D01*
X167708580Y-45287031D02*
X167632390Y-45325126D01*
X167632390Y-45325126D02*
X167518104Y-45401317D01*
X167518104Y-45401317D02*
X167480009Y-45439412D01*
X165089533Y-56710839D02*
X165089533Y-56101316D01*
X165394295Y-56406077D02*
X164784771Y-56406077D01*
X165394295Y-55301316D02*
X165394295Y-55758459D01*
X165394295Y-55529887D02*
X164594295Y-55529887D01*
X164594295Y-55529887D02*
X164708580Y-55606078D01*
X164708580Y-55606078D02*
X164784771Y-55682268D01*
X164784771Y-55682268D02*
X164822866Y-55758459D01*
X165318104Y-54958458D02*
X165356200Y-54920363D01*
X165356200Y-54920363D02*
X165394295Y-54958458D01*
X165394295Y-54958458D02*
X165356200Y-54996554D01*
X165356200Y-54996554D02*
X165318104Y-54958458D01*
X165318104Y-54958458D02*
X165394295Y-54958458D01*
X164937152Y-54463221D02*
X164899057Y-54539411D01*
X164899057Y-54539411D02*
X164860961Y-54577506D01*
X164860961Y-54577506D02*
X164784771Y-54615602D01*
X164784771Y-54615602D02*
X164746676Y-54615602D01*
X164746676Y-54615602D02*
X164670485Y-54577506D01*
X164670485Y-54577506D02*
X164632390Y-54539411D01*
X164632390Y-54539411D02*
X164594295Y-54463221D01*
X164594295Y-54463221D02*
X164594295Y-54310840D01*
X164594295Y-54310840D02*
X164632390Y-54234649D01*
X164632390Y-54234649D02*
X164670485Y-54196554D01*
X164670485Y-54196554D02*
X164746676Y-54158459D01*
X164746676Y-54158459D02*
X164784771Y-54158459D01*
X164784771Y-54158459D02*
X164860961Y-54196554D01*
X164860961Y-54196554D02*
X164899057Y-54234649D01*
X164899057Y-54234649D02*
X164937152Y-54310840D01*
X164937152Y-54310840D02*
X164937152Y-54463221D01*
X164937152Y-54463221D02*
X164975247Y-54539411D01*
X164975247Y-54539411D02*
X165013342Y-54577506D01*
X165013342Y-54577506D02*
X165089533Y-54615602D01*
X165089533Y-54615602D02*
X165241914Y-54615602D01*
X165241914Y-54615602D02*
X165318104Y-54577506D01*
X165318104Y-54577506D02*
X165356200Y-54539411D01*
X165356200Y-54539411D02*
X165394295Y-54463221D01*
X165394295Y-54463221D02*
X165394295Y-54310840D01*
X165394295Y-54310840D02*
X165356200Y-54234649D01*
X165356200Y-54234649D02*
X165318104Y-54196554D01*
X165318104Y-54196554D02*
X165241914Y-54158459D01*
X165241914Y-54158459D02*
X165089533Y-54158459D01*
X165089533Y-54158459D02*
X165013342Y-54196554D01*
X165013342Y-54196554D02*
X164975247Y-54234649D01*
X164975247Y-54234649D02*
X164937152Y-54310840D01*
X164594295Y-53929887D02*
X165394295Y-53663220D01*
X165394295Y-53663220D02*
X164594295Y-53396554D01*
X165394295Y-53129887D02*
X164594295Y-53129887D01*
X164594295Y-53129887D02*
X164594295Y-52939411D01*
X164594295Y-52939411D02*
X164632390Y-52825125D01*
X164632390Y-52825125D02*
X164708580Y-52748935D01*
X164708580Y-52748935D02*
X164784771Y-52710840D01*
X164784771Y-52710840D02*
X164937152Y-52672744D01*
X164937152Y-52672744D02*
X165051438Y-52672744D01*
X165051438Y-52672744D02*
X165203819Y-52710840D01*
X165203819Y-52710840D02*
X165280009Y-52748935D01*
X165280009Y-52748935D02*
X165356200Y-52825125D01*
X165356200Y-52825125D02*
X165394295Y-52939411D01*
X165394295Y-52939411D02*
X165394295Y-53129887D01*
X165318104Y-51872744D02*
X165356200Y-51910840D01*
X165356200Y-51910840D02*
X165394295Y-52025125D01*
X165394295Y-52025125D02*
X165394295Y-52101316D01*
X165394295Y-52101316D02*
X165356200Y-52215602D01*
X165356200Y-52215602D02*
X165280009Y-52291792D01*
X165280009Y-52291792D02*
X165203819Y-52329887D01*
X165203819Y-52329887D02*
X165051438Y-52367983D01*
X165051438Y-52367983D02*
X164937152Y-52367983D01*
X164937152Y-52367983D02*
X164784771Y-52329887D01*
X164784771Y-52329887D02*
X164708580Y-52291792D01*
X164708580Y-52291792D02*
X164632390Y-52215602D01*
X164632390Y-52215602D02*
X164594295Y-52101316D01*
X164594295Y-52101316D02*
X164594295Y-52025125D01*
X164594295Y-52025125D02*
X164632390Y-51910840D01*
X164632390Y-51910840D02*
X164670485Y-51872744D01*
X165699057Y-51301316D02*
X165660961Y-51339411D01*
X165660961Y-51339411D02*
X165546676Y-51415602D01*
X165546676Y-51415602D02*
X165470485Y-51453697D01*
X165470485Y-51453697D02*
X165356200Y-51491792D01*
X165356200Y-51491792D02*
X165165723Y-51529887D01*
X165165723Y-51529887D02*
X165013342Y-51529887D01*
X165013342Y-51529887D02*
X164822866Y-51491792D01*
X164822866Y-51491792D02*
X164708580Y-51453697D01*
X164708580Y-51453697D02*
X164632390Y-51415602D01*
X164632390Y-51415602D02*
X164518104Y-51339411D01*
X164518104Y-51339411D02*
X164480009Y-51301316D01*
X164594295Y-51110840D02*
X164594295Y-50653697D01*
X165394295Y-50882269D02*
X164594295Y-50882269D01*
X164594295Y-50234649D02*
X164594295Y-50082268D01*
X164594295Y-50082268D02*
X164632390Y-50006078D01*
X164632390Y-50006078D02*
X164708580Y-49929887D01*
X164708580Y-49929887D02*
X164860961Y-49891792D01*
X164860961Y-49891792D02*
X165127628Y-49891792D01*
X165127628Y-49891792D02*
X165280009Y-49929887D01*
X165280009Y-49929887D02*
X165356200Y-50006078D01*
X165356200Y-50006078D02*
X165394295Y-50082268D01*
X165394295Y-50082268D02*
X165394295Y-50234649D01*
X165394295Y-50234649D02*
X165356200Y-50310840D01*
X165356200Y-50310840D02*
X165280009Y-50387030D01*
X165280009Y-50387030D02*
X165127628Y-50425126D01*
X165127628Y-50425126D02*
X164860961Y-50425126D01*
X164860961Y-50425126D02*
X164708580Y-50387030D01*
X164708580Y-50387030D02*
X164632390Y-50310840D01*
X164632390Y-50310840D02*
X164594295Y-50234649D01*
X164975247Y-49282269D02*
X164975247Y-49548935D01*
X165394295Y-49548935D02*
X164594295Y-49548935D01*
X164594295Y-49548935D02*
X164594295Y-49167983D01*
X165699057Y-48939412D02*
X165660961Y-48901317D01*
X165660961Y-48901317D02*
X165546676Y-48825126D01*
X165546676Y-48825126D02*
X165470485Y-48787031D01*
X165470485Y-48787031D02*
X165356200Y-48748936D01*
X165356200Y-48748936D02*
X165165723Y-48710840D01*
X165165723Y-48710840D02*
X165013342Y-48710840D01*
X165013342Y-48710840D02*
X164822866Y-48748936D01*
X164822866Y-48748936D02*
X164708580Y-48787031D01*
X164708580Y-48787031D02*
X164632390Y-48825126D01*
X164632390Y-48825126D02*
X164518104Y-48901317D01*
X164518104Y-48901317D02*
X164480009Y-48939412D01*
X126410466Y-53789160D02*
X126410466Y-54398684D01*
X126105704Y-54093922D02*
X126715228Y-54093922D01*
X126105704Y-55198683D02*
X126105704Y-54741540D01*
X126105704Y-54970112D02*
X126905704Y-54970112D01*
X126905704Y-54970112D02*
X126791419Y-54893921D01*
X126791419Y-54893921D02*
X126715228Y-54817731D01*
X126715228Y-54817731D02*
X126677133Y-54741540D01*
X126181895Y-55541541D02*
X126143800Y-55579636D01*
X126143800Y-55579636D02*
X126105704Y-55541541D01*
X126105704Y-55541541D02*
X126143800Y-55503445D01*
X126143800Y-55503445D02*
X126181895Y-55541541D01*
X126181895Y-55541541D02*
X126105704Y-55541541D01*
X126562847Y-56036778D02*
X126600942Y-55960588D01*
X126600942Y-55960588D02*
X126639038Y-55922493D01*
X126639038Y-55922493D02*
X126715228Y-55884397D01*
X126715228Y-55884397D02*
X126753323Y-55884397D01*
X126753323Y-55884397D02*
X126829514Y-55922493D01*
X126829514Y-55922493D02*
X126867609Y-55960588D01*
X126867609Y-55960588D02*
X126905704Y-56036778D01*
X126905704Y-56036778D02*
X126905704Y-56189159D01*
X126905704Y-56189159D02*
X126867609Y-56265350D01*
X126867609Y-56265350D02*
X126829514Y-56303445D01*
X126829514Y-56303445D02*
X126753323Y-56341540D01*
X126753323Y-56341540D02*
X126715228Y-56341540D01*
X126715228Y-56341540D02*
X126639038Y-56303445D01*
X126639038Y-56303445D02*
X126600942Y-56265350D01*
X126600942Y-56265350D02*
X126562847Y-56189159D01*
X126562847Y-56189159D02*
X126562847Y-56036778D01*
X126562847Y-56036778D02*
X126524752Y-55960588D01*
X126524752Y-55960588D02*
X126486657Y-55922493D01*
X126486657Y-55922493D02*
X126410466Y-55884397D01*
X126410466Y-55884397D02*
X126258085Y-55884397D01*
X126258085Y-55884397D02*
X126181895Y-55922493D01*
X126181895Y-55922493D02*
X126143800Y-55960588D01*
X126143800Y-55960588D02*
X126105704Y-56036778D01*
X126105704Y-56036778D02*
X126105704Y-56189159D01*
X126105704Y-56189159D02*
X126143800Y-56265350D01*
X126143800Y-56265350D02*
X126181895Y-56303445D01*
X126181895Y-56303445D02*
X126258085Y-56341540D01*
X126258085Y-56341540D02*
X126410466Y-56341540D01*
X126410466Y-56341540D02*
X126486657Y-56303445D01*
X126486657Y-56303445D02*
X126524752Y-56265350D01*
X126524752Y-56265350D02*
X126562847Y-56189159D01*
X126905704Y-56570112D02*
X126105704Y-56836779D01*
X126105704Y-56836779D02*
X126905704Y-57103445D01*
X126105704Y-57370112D02*
X126905704Y-57370112D01*
X126905704Y-57370112D02*
X126905704Y-57560588D01*
X126905704Y-57560588D02*
X126867609Y-57674874D01*
X126867609Y-57674874D02*
X126791419Y-57751064D01*
X126791419Y-57751064D02*
X126715228Y-57789159D01*
X126715228Y-57789159D02*
X126562847Y-57827255D01*
X126562847Y-57827255D02*
X126448561Y-57827255D01*
X126448561Y-57827255D02*
X126296180Y-57789159D01*
X126296180Y-57789159D02*
X126219990Y-57751064D01*
X126219990Y-57751064D02*
X126143800Y-57674874D01*
X126143800Y-57674874D02*
X126105704Y-57560588D01*
X126105704Y-57560588D02*
X126105704Y-57370112D01*
X126181895Y-58627255D02*
X126143800Y-58589159D01*
X126143800Y-58589159D02*
X126105704Y-58474874D01*
X126105704Y-58474874D02*
X126105704Y-58398683D01*
X126105704Y-58398683D02*
X126143800Y-58284397D01*
X126143800Y-58284397D02*
X126219990Y-58208207D01*
X126219990Y-58208207D02*
X126296180Y-58170112D01*
X126296180Y-58170112D02*
X126448561Y-58132016D01*
X126448561Y-58132016D02*
X126562847Y-58132016D01*
X126562847Y-58132016D02*
X126715228Y-58170112D01*
X126715228Y-58170112D02*
X126791419Y-58208207D01*
X126791419Y-58208207D02*
X126867609Y-58284397D01*
X126867609Y-58284397D02*
X126905704Y-58398683D01*
X126905704Y-58398683D02*
X126905704Y-58474874D01*
X126905704Y-58474874D02*
X126867609Y-58589159D01*
X126867609Y-58589159D02*
X126829514Y-58627255D01*
X125800942Y-59198683D02*
X125839038Y-59160588D01*
X125839038Y-59160588D02*
X125953323Y-59084397D01*
X125953323Y-59084397D02*
X126029514Y-59046302D01*
X126029514Y-59046302D02*
X126143800Y-59008207D01*
X126143800Y-59008207D02*
X126334276Y-58970112D01*
X126334276Y-58970112D02*
X126486657Y-58970112D01*
X126486657Y-58970112D02*
X126677133Y-59008207D01*
X126677133Y-59008207D02*
X126791419Y-59046302D01*
X126791419Y-59046302D02*
X126867609Y-59084397D01*
X126867609Y-59084397D02*
X126981895Y-59160588D01*
X126981895Y-59160588D02*
X127019990Y-59198683D01*
X126105704Y-59960588D02*
X126486657Y-59693921D01*
X126105704Y-59503445D02*
X126905704Y-59503445D01*
X126905704Y-59503445D02*
X126905704Y-59808207D01*
X126905704Y-59808207D02*
X126867609Y-59884397D01*
X126867609Y-59884397D02*
X126829514Y-59922492D01*
X126829514Y-59922492D02*
X126753323Y-59960588D01*
X126753323Y-59960588D02*
X126639038Y-59960588D01*
X126639038Y-59960588D02*
X126562847Y-59922492D01*
X126562847Y-59922492D02*
X126524752Y-59884397D01*
X126524752Y-59884397D02*
X126486657Y-59808207D01*
X126486657Y-59808207D02*
X126486657Y-59503445D01*
X126867609Y-60722492D02*
X126905704Y-60646302D01*
X126905704Y-60646302D02*
X126905704Y-60532016D01*
X126905704Y-60532016D02*
X126867609Y-60417730D01*
X126867609Y-60417730D02*
X126791419Y-60341540D01*
X126791419Y-60341540D02*
X126715228Y-60303445D01*
X126715228Y-60303445D02*
X126562847Y-60265349D01*
X126562847Y-60265349D02*
X126448561Y-60265349D01*
X126448561Y-60265349D02*
X126296180Y-60303445D01*
X126296180Y-60303445D02*
X126219990Y-60341540D01*
X126219990Y-60341540D02*
X126143800Y-60417730D01*
X126143800Y-60417730D02*
X126105704Y-60532016D01*
X126105704Y-60532016D02*
X126105704Y-60608207D01*
X126105704Y-60608207D02*
X126143800Y-60722492D01*
X126143800Y-60722492D02*
X126181895Y-60760588D01*
X126181895Y-60760588D02*
X126448561Y-60760588D01*
X126448561Y-60760588D02*
X126448561Y-60608207D01*
X126524752Y-61370111D02*
X126486657Y-61484397D01*
X126486657Y-61484397D02*
X126448561Y-61522492D01*
X126448561Y-61522492D02*
X126372371Y-61560588D01*
X126372371Y-61560588D02*
X126258085Y-61560588D01*
X126258085Y-61560588D02*
X126181895Y-61522492D01*
X126181895Y-61522492D02*
X126143800Y-61484397D01*
X126143800Y-61484397D02*
X126105704Y-61408207D01*
X126105704Y-61408207D02*
X126105704Y-61103445D01*
X126105704Y-61103445D02*
X126905704Y-61103445D01*
X126905704Y-61103445D02*
X126905704Y-61370111D01*
X126905704Y-61370111D02*
X126867609Y-61446302D01*
X126867609Y-61446302D02*
X126829514Y-61484397D01*
X126829514Y-61484397D02*
X126753323Y-61522492D01*
X126753323Y-61522492D02*
X126677133Y-61522492D01*
X126677133Y-61522492D02*
X126600942Y-61484397D01*
X126600942Y-61484397D02*
X126562847Y-61446302D01*
X126562847Y-61446302D02*
X126524752Y-61370111D01*
X126524752Y-61370111D02*
X126524752Y-61103445D01*
X125800942Y-61827254D02*
X125839038Y-61865349D01*
X125839038Y-61865349D02*
X125953323Y-61941540D01*
X125953323Y-61941540D02*
X126029514Y-61979635D01*
X126029514Y-61979635D02*
X126143800Y-62017730D01*
X126143800Y-62017730D02*
X126334276Y-62055826D01*
X126334276Y-62055826D02*
X126486657Y-62055826D01*
X126486657Y-62055826D02*
X126677133Y-62017730D01*
X126677133Y-62017730D02*
X126791419Y-61979635D01*
X126791419Y-61979635D02*
X126867609Y-61941540D01*
X126867609Y-61941540D02*
X126981895Y-61865349D01*
X126981895Y-61865349D02*
X127019990Y-61827254D01*
X121219048Y-80862295D02*
X121219048Y-80062295D01*
X122057143Y-80786104D02*
X122019047Y-80824200D01*
X122019047Y-80824200D02*
X121904762Y-80862295D01*
X121904762Y-80862295D02*
X121828571Y-80862295D01*
X121828571Y-80862295D02*
X121714285Y-80824200D01*
X121714285Y-80824200D02*
X121638095Y-80748009D01*
X121638095Y-80748009D02*
X121600000Y-80671819D01*
X121600000Y-80671819D02*
X121561904Y-80519438D01*
X121561904Y-80519438D02*
X121561904Y-80405152D01*
X121561904Y-80405152D02*
X121600000Y-80252771D01*
X121600000Y-80252771D02*
X121638095Y-80176580D01*
X121638095Y-80176580D02*
X121714285Y-80100390D01*
X121714285Y-80100390D02*
X121828571Y-80062295D01*
X121828571Y-80062295D02*
X121904762Y-80062295D01*
X121904762Y-80062295D02*
X122019047Y-80100390D01*
X122019047Y-80100390D02*
X122057143Y-80138485D01*
X122819047Y-80862295D02*
X122361904Y-80862295D01*
X122590476Y-80862295D02*
X122590476Y-80062295D01*
X122590476Y-80062295D02*
X122514285Y-80176580D01*
X122514285Y-80176580D02*
X122438095Y-80252771D01*
X122438095Y-80252771D02*
X122361904Y-80290866D01*
X128866667Y-77212295D02*
X128600000Y-76831342D01*
X128409524Y-77212295D02*
X128409524Y-76412295D01*
X128409524Y-76412295D02*
X128714286Y-76412295D01*
X128714286Y-76412295D02*
X128790476Y-76450390D01*
X128790476Y-76450390D02*
X128828571Y-76488485D01*
X128828571Y-76488485D02*
X128866667Y-76564676D01*
X128866667Y-76564676D02*
X128866667Y-76678961D01*
X128866667Y-76678961D02*
X128828571Y-76755152D01*
X128828571Y-76755152D02*
X128790476Y-76793247D01*
X128790476Y-76793247D02*
X128714286Y-76831342D01*
X128714286Y-76831342D02*
X128409524Y-76831342D01*
X129628571Y-77212295D02*
X129171428Y-77212295D01*
X129400000Y-77212295D02*
X129400000Y-76412295D01*
X129400000Y-76412295D02*
X129323809Y-76526580D01*
X129323809Y-76526580D02*
X129247619Y-76602771D01*
X129247619Y-76602771D02*
X129171428Y-76640866D01*
X168212295Y-54633332D02*
X167831342Y-54899999D01*
X168212295Y-55090475D02*
X167412295Y-55090475D01*
X167412295Y-55090475D02*
X167412295Y-54785713D01*
X167412295Y-54785713D02*
X167450390Y-54709523D01*
X167450390Y-54709523D02*
X167488485Y-54671428D01*
X167488485Y-54671428D02*
X167564676Y-54633332D01*
X167564676Y-54633332D02*
X167678961Y-54633332D01*
X167678961Y-54633332D02*
X167755152Y-54671428D01*
X167755152Y-54671428D02*
X167793247Y-54709523D01*
X167793247Y-54709523D02*
X167831342Y-54785713D01*
X167831342Y-54785713D02*
X167831342Y-55090475D01*
X167412295Y-53909523D02*
X167412295Y-54290475D01*
X167412295Y-54290475D02*
X167793247Y-54328571D01*
X167793247Y-54328571D02*
X167755152Y-54290475D01*
X167755152Y-54290475D02*
X167717057Y-54214285D01*
X167717057Y-54214285D02*
X167717057Y-54023809D01*
X167717057Y-54023809D02*
X167755152Y-53947618D01*
X167755152Y-53947618D02*
X167793247Y-53909523D01*
X167793247Y-53909523D02*
X167869438Y-53871428D01*
X167869438Y-53871428D02*
X168059914Y-53871428D01*
X168059914Y-53871428D02*
X168136104Y-53909523D01*
X168136104Y-53909523D02*
X168174200Y-53947618D01*
X168174200Y-53947618D02*
X168212295Y-54023809D01*
X168212295Y-54023809D02*
X168212295Y-54214285D01*
X168212295Y-54214285D02*
X168174200Y-54290475D01*
X168174200Y-54290475D02*
X168136104Y-54328571D01*
X165212295Y-59133332D02*
X164831342Y-59399999D01*
X165212295Y-59590475D02*
X164412295Y-59590475D01*
X164412295Y-59590475D02*
X164412295Y-59285713D01*
X164412295Y-59285713D02*
X164450390Y-59209523D01*
X164450390Y-59209523D02*
X164488485Y-59171428D01*
X164488485Y-59171428D02*
X164564676Y-59133332D01*
X164564676Y-59133332D02*
X164678961Y-59133332D01*
X164678961Y-59133332D02*
X164755152Y-59171428D01*
X164755152Y-59171428D02*
X164793247Y-59209523D01*
X164793247Y-59209523D02*
X164831342Y-59285713D01*
X164831342Y-59285713D02*
X164831342Y-59590475D01*
X164678961Y-58447618D02*
X165212295Y-58447618D01*
X164374200Y-58638094D02*
X164945628Y-58828571D01*
X164945628Y-58828571D02*
X164945628Y-58333332D01*
X129787704Y-55366667D02*
X130168657Y-55100000D01*
X129787704Y-54909524D02*
X130587704Y-54909524D01*
X130587704Y-54909524D02*
X130587704Y-55214286D01*
X130587704Y-55214286D02*
X130549609Y-55290476D01*
X130549609Y-55290476D02*
X130511514Y-55328571D01*
X130511514Y-55328571D02*
X130435323Y-55366667D01*
X130435323Y-55366667D02*
X130321038Y-55366667D01*
X130321038Y-55366667D02*
X130244847Y-55328571D01*
X130244847Y-55328571D02*
X130206752Y-55290476D01*
X130206752Y-55290476D02*
X130168657Y-55214286D01*
X130168657Y-55214286D02*
X130168657Y-54909524D01*
X130587704Y-55633333D02*
X130587704Y-56128571D01*
X130587704Y-56128571D02*
X130282942Y-55861905D01*
X130282942Y-55861905D02*
X130282942Y-55976190D01*
X130282942Y-55976190D02*
X130244847Y-56052381D01*
X130244847Y-56052381D02*
X130206752Y-56090476D01*
X130206752Y-56090476D02*
X130130561Y-56128571D01*
X130130561Y-56128571D02*
X129940085Y-56128571D01*
X129940085Y-56128571D02*
X129863895Y-56090476D01*
X129863895Y-56090476D02*
X129825800Y-56052381D01*
X129825800Y-56052381D02*
X129787704Y-55976190D01*
X129787704Y-55976190D02*
X129787704Y-55747619D01*
X129787704Y-55747619D02*
X129825800Y-55671428D01*
X129825800Y-55671428D02*
X129863895Y-55633333D01*
X148851146Y-78971796D02*
X148889241Y-79009891D01*
X148889241Y-79009891D02*
X148927337Y-79086082D01*
X148927337Y-79086082D02*
X148851146Y-79238463D01*
X148851146Y-79238463D02*
X148889241Y-79314653D01*
X148889241Y-79314653D02*
X148927337Y-79352748D01*
X123909524Y-97362295D02*
X123909524Y-96562295D01*
X123909524Y-96562295D02*
X124100000Y-96562295D01*
X124100000Y-96562295D02*
X124214286Y-96600390D01*
X124214286Y-96600390D02*
X124290476Y-96676580D01*
X124290476Y-96676580D02*
X124328571Y-96752771D01*
X124328571Y-96752771D02*
X124366667Y-96905152D01*
X124366667Y-96905152D02*
X124366667Y-97019438D01*
X124366667Y-97019438D02*
X124328571Y-97171819D01*
X124328571Y-97171819D02*
X124290476Y-97248009D01*
X124290476Y-97248009D02*
X124214286Y-97324200D01*
X124214286Y-97324200D02*
X124100000Y-97362295D01*
X124100000Y-97362295D02*
X123909524Y-97362295D01*
X124633333Y-96562295D02*
X125128571Y-96562295D01*
X125128571Y-96562295D02*
X124861905Y-96867057D01*
X124861905Y-96867057D02*
X124976190Y-96867057D01*
X124976190Y-96867057D02*
X125052381Y-96905152D01*
X125052381Y-96905152D02*
X125090476Y-96943247D01*
X125090476Y-96943247D02*
X125128571Y-97019438D01*
X125128571Y-97019438D02*
X125128571Y-97209914D01*
X125128571Y-97209914D02*
X125090476Y-97286104D01*
X125090476Y-97286104D02*
X125052381Y-97324200D01*
X125052381Y-97324200D02*
X124976190Y-97362295D01*
X124976190Y-97362295D02*
X124747619Y-97362295D01*
X124747619Y-97362295D02*
X124671428Y-97324200D01*
X124671428Y-97324200D02*
X124633333Y-97286104D01*
X120578571Y-99262295D02*
X120121428Y-99262295D01*
X120350000Y-99262295D02*
X120350000Y-98462295D01*
X120350000Y-98462295D02*
X120273809Y-98576580D01*
X120273809Y-98576580D02*
X120197619Y-98652771D01*
X120197619Y-98652771D02*
X120121428Y-98690866D01*
X117739167Y-97796104D02*
X117701071Y-97834200D01*
X117701071Y-97834200D02*
X117586786Y-97872295D01*
X117586786Y-97872295D02*
X117510595Y-97872295D01*
X117510595Y-97872295D02*
X117396309Y-97834200D01*
X117396309Y-97834200D02*
X117320119Y-97758009D01*
X117320119Y-97758009D02*
X117282024Y-97681819D01*
X117282024Y-97681819D02*
X117243928Y-97529438D01*
X117243928Y-97529438D02*
X117243928Y-97415152D01*
X117243928Y-97415152D02*
X117282024Y-97262771D01*
X117282024Y-97262771D02*
X117320119Y-97186580D01*
X117320119Y-97186580D02*
X117396309Y-97110390D01*
X117396309Y-97110390D02*
X117510595Y-97072295D01*
X117510595Y-97072295D02*
X117586786Y-97072295D01*
X117586786Y-97072295D02*
X117701071Y-97110390D01*
X117701071Y-97110390D02*
X117739167Y-97148485D01*
X118005833Y-97072295D02*
X118501071Y-97072295D01*
X118501071Y-97072295D02*
X118234405Y-97377057D01*
X118234405Y-97377057D02*
X118348690Y-97377057D01*
X118348690Y-97377057D02*
X118424881Y-97415152D01*
X118424881Y-97415152D02*
X118462976Y-97453247D01*
X118462976Y-97453247D02*
X118501071Y-97529438D01*
X118501071Y-97529438D02*
X118501071Y-97719914D01*
X118501071Y-97719914D02*
X118462976Y-97796104D01*
X118462976Y-97796104D02*
X118424881Y-97834200D01*
X118424881Y-97834200D02*
X118348690Y-97872295D01*
X118348690Y-97872295D02*
X118120119Y-97872295D01*
X118120119Y-97872295D02*
X118043928Y-97834200D01*
X118043928Y-97834200D02*
X118005833Y-97796104D01*
X123909524Y-105862295D02*
X123909524Y-105062295D01*
X123909524Y-105062295D02*
X124100000Y-105062295D01*
X124100000Y-105062295D02*
X124214286Y-105100390D01*
X124214286Y-105100390D02*
X124290476Y-105176580D01*
X124290476Y-105176580D02*
X124328571Y-105252771D01*
X124328571Y-105252771D02*
X124366667Y-105405152D01*
X124366667Y-105405152D02*
X124366667Y-105519438D01*
X124366667Y-105519438D02*
X124328571Y-105671819D01*
X124328571Y-105671819D02*
X124290476Y-105748009D01*
X124290476Y-105748009D02*
X124214286Y-105824200D01*
X124214286Y-105824200D02*
X124100000Y-105862295D01*
X124100000Y-105862295D02*
X123909524Y-105862295D01*
X125052381Y-105328961D02*
X125052381Y-105862295D01*
X124861905Y-105024200D02*
X124671428Y-105595628D01*
X124671428Y-105595628D02*
X125166667Y-105595628D01*
X120578571Y-107762295D02*
X120121428Y-107762295D01*
X120350000Y-107762295D02*
X120350000Y-106962295D01*
X120350000Y-106962295D02*
X120273809Y-107076580D01*
X120273809Y-107076580D02*
X120197619Y-107152771D01*
X120197619Y-107152771D02*
X120121428Y-107190866D01*
X120409524Y-68212295D02*
X120409524Y-67412295D01*
X120409524Y-67412295D02*
X120600000Y-67412295D01*
X120600000Y-67412295D02*
X120714286Y-67450390D01*
X120714286Y-67450390D02*
X120790476Y-67526580D01*
X120790476Y-67526580D02*
X120828571Y-67602771D01*
X120828571Y-67602771D02*
X120866667Y-67755152D01*
X120866667Y-67755152D02*
X120866667Y-67869438D01*
X120866667Y-67869438D02*
X120828571Y-68021819D01*
X120828571Y-68021819D02*
X120790476Y-68098009D01*
X120790476Y-68098009D02*
X120714286Y-68174200D01*
X120714286Y-68174200D02*
X120600000Y-68212295D01*
X120600000Y-68212295D02*
X120409524Y-68212295D01*
X121628571Y-68212295D02*
X121171428Y-68212295D01*
X121400000Y-68212295D02*
X121400000Y-67412295D01*
X121400000Y-67412295D02*
X121323809Y-67526580D01*
X121323809Y-67526580D02*
X121247619Y-67602771D01*
X121247619Y-67602771D02*
X121171428Y-67640866D01*
X117866667Y-106296104D02*
X117828571Y-106334200D01*
X117828571Y-106334200D02*
X117714286Y-106372295D01*
X117714286Y-106372295D02*
X117638095Y-106372295D01*
X117638095Y-106372295D02*
X117523809Y-106334200D01*
X117523809Y-106334200D02*
X117447619Y-106258009D01*
X117447619Y-106258009D02*
X117409524Y-106181819D01*
X117409524Y-106181819D02*
X117371428Y-106029438D01*
X117371428Y-106029438D02*
X117371428Y-105915152D01*
X117371428Y-105915152D02*
X117409524Y-105762771D01*
X117409524Y-105762771D02*
X117447619Y-105686580D01*
X117447619Y-105686580D02*
X117523809Y-105610390D01*
X117523809Y-105610390D02*
X117638095Y-105572295D01*
X117638095Y-105572295D02*
X117714286Y-105572295D01*
X117714286Y-105572295D02*
X117828571Y-105610390D01*
X117828571Y-105610390D02*
X117866667Y-105648485D01*
X118552381Y-105838961D02*
X118552381Y-106372295D01*
X118361905Y-105534200D02*
X118171428Y-106105628D01*
X118171428Y-106105628D02*
X118666667Y-106105628D01*
X117866667Y-89796104D02*
X117828571Y-89834200D01*
X117828571Y-89834200D02*
X117714286Y-89872295D01*
X117714286Y-89872295D02*
X117638095Y-89872295D01*
X117638095Y-89872295D02*
X117523809Y-89834200D01*
X117523809Y-89834200D02*
X117447619Y-89758009D01*
X117447619Y-89758009D02*
X117409524Y-89681819D01*
X117409524Y-89681819D02*
X117371428Y-89529438D01*
X117371428Y-89529438D02*
X117371428Y-89415152D01*
X117371428Y-89415152D02*
X117409524Y-89262771D01*
X117409524Y-89262771D02*
X117447619Y-89186580D01*
X117447619Y-89186580D02*
X117523809Y-89110390D01*
X117523809Y-89110390D02*
X117638095Y-89072295D01*
X117638095Y-89072295D02*
X117714286Y-89072295D01*
X117714286Y-89072295D02*
X117828571Y-89110390D01*
X117828571Y-89110390D02*
X117866667Y-89148485D01*
X118171428Y-89148485D02*
X118209524Y-89110390D01*
X118209524Y-89110390D02*
X118285714Y-89072295D01*
X118285714Y-89072295D02*
X118476190Y-89072295D01*
X118476190Y-89072295D02*
X118552381Y-89110390D01*
X118552381Y-89110390D02*
X118590476Y-89148485D01*
X118590476Y-89148485D02*
X118628571Y-89224676D01*
X118628571Y-89224676D02*
X118628571Y-89300866D01*
X118628571Y-89300866D02*
X118590476Y-89415152D01*
X118590476Y-89415152D02*
X118133333Y-89872295D01*
X118133333Y-89872295D02*
X118628571Y-89872295D01*
X128796104Y-87133332D02*
X128834200Y-87171428D01*
X128834200Y-87171428D02*
X128872295Y-87285713D01*
X128872295Y-87285713D02*
X128872295Y-87361904D01*
X128872295Y-87361904D02*
X128834200Y-87476190D01*
X128834200Y-87476190D02*
X128758009Y-87552380D01*
X128758009Y-87552380D02*
X128681819Y-87590475D01*
X128681819Y-87590475D02*
X128529438Y-87628571D01*
X128529438Y-87628571D02*
X128415152Y-87628571D01*
X128415152Y-87628571D02*
X128262771Y-87590475D01*
X128262771Y-87590475D02*
X128186580Y-87552380D01*
X128186580Y-87552380D02*
X128110390Y-87476190D01*
X128110390Y-87476190D02*
X128072295Y-87361904D01*
X128072295Y-87361904D02*
X128072295Y-87285713D01*
X128072295Y-87285713D02*
X128110390Y-87171428D01*
X128110390Y-87171428D02*
X128148485Y-87133332D01*
X128872295Y-86371428D02*
X128872295Y-86828571D01*
X128872295Y-86599999D02*
X128072295Y-86599999D01*
X128072295Y-86599999D02*
X128186580Y-86676190D01*
X128186580Y-86676190D02*
X128262771Y-86752380D01*
X128262771Y-86752380D02*
X128300866Y-86828571D01*
X121733333Y-51232295D02*
X121733333Y-51803723D01*
X121733333Y-51803723D02*
X121695238Y-51918009D01*
X121695238Y-51918009D02*
X121619047Y-51994200D01*
X121619047Y-51994200D02*
X121504762Y-52032295D01*
X121504762Y-52032295D02*
X121428571Y-52032295D01*
X122533333Y-52032295D02*
X122076190Y-52032295D01*
X122304762Y-52032295D02*
X122304762Y-51232295D01*
X122304762Y-51232295D02*
X122228571Y-51346580D01*
X122228571Y-51346580D02*
X122152381Y-51422771D01*
X122152381Y-51422771D02*
X122076190Y-51460866D01*
X123909524Y-89362295D02*
X123909524Y-88562295D01*
X123909524Y-88562295D02*
X124100000Y-88562295D01*
X124100000Y-88562295D02*
X124214286Y-88600390D01*
X124214286Y-88600390D02*
X124290476Y-88676580D01*
X124290476Y-88676580D02*
X124328571Y-88752771D01*
X124328571Y-88752771D02*
X124366667Y-88905152D01*
X124366667Y-88905152D02*
X124366667Y-89019438D01*
X124366667Y-89019438D02*
X124328571Y-89171819D01*
X124328571Y-89171819D02*
X124290476Y-89248009D01*
X124290476Y-89248009D02*
X124214286Y-89324200D01*
X124214286Y-89324200D02*
X124100000Y-89362295D01*
X124100000Y-89362295D02*
X123909524Y-89362295D01*
X124671428Y-88638485D02*
X124709524Y-88600390D01*
X124709524Y-88600390D02*
X124785714Y-88562295D01*
X124785714Y-88562295D02*
X124976190Y-88562295D01*
X124976190Y-88562295D02*
X125052381Y-88600390D01*
X125052381Y-88600390D02*
X125090476Y-88638485D01*
X125090476Y-88638485D02*
X125128571Y-88714676D01*
X125128571Y-88714676D02*
X125128571Y-88790866D01*
X125128571Y-88790866D02*
X125090476Y-88905152D01*
X125090476Y-88905152D02*
X124633333Y-89362295D01*
X124633333Y-89362295D02*
X125128571Y-89362295D01*
X120578571Y-91262295D02*
X120121428Y-91262295D01*
X120350000Y-91262295D02*
X120350000Y-90462295D01*
X120350000Y-90462295D02*
X120273809Y-90576580D01*
X120273809Y-90576580D02*
X120197619Y-90652771D01*
X120197619Y-90652771D02*
X120121428Y-90690866D01*
X126366667Y-67862295D02*
X126100000Y-67481342D01*
X125909524Y-67862295D02*
X125909524Y-67062295D01*
X125909524Y-67062295D02*
X126214286Y-67062295D01*
X126214286Y-67062295D02*
X126290476Y-67100390D01*
X126290476Y-67100390D02*
X126328571Y-67138485D01*
X126328571Y-67138485D02*
X126366667Y-67214676D01*
X126366667Y-67214676D02*
X126366667Y-67328961D01*
X126366667Y-67328961D02*
X126328571Y-67405152D01*
X126328571Y-67405152D02*
X126290476Y-67443247D01*
X126290476Y-67443247D02*
X126214286Y-67481342D01*
X126214286Y-67481342D02*
X125909524Y-67481342D01*
X126671428Y-67138485D02*
X126709524Y-67100390D01*
X126709524Y-67100390D02*
X126785714Y-67062295D01*
X126785714Y-67062295D02*
X126976190Y-67062295D01*
X126976190Y-67062295D02*
X127052381Y-67100390D01*
X127052381Y-67100390D02*
X127090476Y-67138485D01*
X127090476Y-67138485D02*
X127128571Y-67214676D01*
X127128571Y-67214676D02*
X127128571Y-67290866D01*
X127128571Y-67290866D02*
X127090476Y-67405152D01*
X127090476Y-67405152D02*
X126633333Y-67862295D01*
X126633333Y-67862295D02*
X127128571Y-67862295D01*
X125666666Y-71954819D02*
X125095238Y-71954819D01*
X125380952Y-71954819D02*
X125380952Y-70954819D01*
X125380952Y-70954819D02*
X125285714Y-71097676D01*
X125285714Y-71097676D02*
X125190476Y-71192914D01*
X125190476Y-71192914D02*
X125095238Y-71240533D01*
X126095238Y-71859580D02*
X126142857Y-71907200D01*
X126142857Y-71907200D02*
X126095238Y-71954819D01*
X126095238Y-71954819D02*
X126047619Y-71907200D01*
X126047619Y-71907200D02*
X126095238Y-71859580D01*
X126095238Y-71859580D02*
X126095238Y-71954819D01*
X127047618Y-70954819D02*
X126571428Y-70954819D01*
X126571428Y-70954819D02*
X126523809Y-71431009D01*
X126523809Y-71431009D02*
X126571428Y-71383390D01*
X126571428Y-71383390D02*
X126666666Y-71335771D01*
X126666666Y-71335771D02*
X126904761Y-71335771D01*
X126904761Y-71335771D02*
X126999999Y-71383390D01*
X126999999Y-71383390D02*
X127047618Y-71431009D01*
X127047618Y-71431009D02*
X127095237Y-71526247D01*
X127095237Y-71526247D02*
X127095237Y-71764342D01*
X127095237Y-71764342D02*
X127047618Y-71859580D01*
X127047618Y-71859580D02*
X126999999Y-71907200D01*
X126999999Y-71907200D02*
X126904761Y-71954819D01*
X126904761Y-71954819D02*
X126666666Y-71954819D01*
X126666666Y-71954819D02*
X126571428Y-71907200D01*
X126571428Y-71907200D02*
X126523809Y-71859580D01*
X127523809Y-71954819D02*
X127523809Y-70954819D01*
X127619047Y-71573866D02*
X127904761Y-71954819D01*
X127904761Y-71288152D02*
X127523809Y-71669104D01*
%TO.C,IC1*%
X118325000Y-77000000D02*
X119800000Y-77000000D01*
X120150000Y-77250000D02*
X123850000Y-77250000D01*
X120150000Y-83750000D02*
X120150000Y-77250000D01*
X123850000Y-77250000D02*
X123850000Y-83750000D01*
X123850000Y-83750000D02*
X120150000Y-83750000D01*
%TO.C,R1*%
X128772936Y-79235000D02*
X129227064Y-79235000D01*
X128772936Y-77765000D02*
X129227064Y-77765000D01*
%TO.C,R5*%
X168765000Y-54727064D02*
X168765000Y-54272936D01*
X170235000Y-54727064D02*
X170235000Y-54272936D01*
%TO.C,R4*%
X165765000Y-59227064D02*
X165765000Y-58772936D01*
X167235000Y-59227064D02*
X167235000Y-58772936D01*
%TO.C,R3*%
X129235000Y-55272936D02*
X129235000Y-55727064D01*
X127765000Y-55272936D02*
X127765000Y-55727064D01*
%TO.C,U1*%
X136030000Y-50060000D02*
X160030000Y-50060000D01*
X163030000Y-53060000D02*
X163030000Y-103010000D01*
X160678680Y-56701320D02*
X162008680Y-56701320D01*
X132778680Y-56741320D02*
X134108680Y-56741320D01*
X160678680Y-58031320D02*
X160678680Y-56701320D01*
X132778680Y-58071320D02*
X132778680Y-56741320D01*
X163338680Y-59301320D02*
X163338680Y-87301320D01*
X160678680Y-59301320D02*
X163338680Y-59301320D01*
X160678680Y-59301320D02*
X160678680Y-87301320D01*
X135438680Y-59341320D02*
X135438680Y-87341320D01*
X132778680Y-59341320D02*
X135438680Y-59341320D01*
X132778680Y-59341320D02*
X132778680Y-87341320D01*
X160678680Y-87301320D02*
X163338680Y-87301320D01*
X132778680Y-87341320D02*
X135438680Y-87341320D01*
X163030000Y-103010000D02*
X162180000Y-103010000D01*
X163030000Y-108110000D02*
X163030000Y-112060000D01*
X162180000Y-108110000D02*
X163030000Y-108110000D01*
X152173800Y-109210000D02*
X143886210Y-109210000D01*
X143682970Y-109253170D02*
X143682960Y-109253170D01*
X143682960Y-109253170D02*
X143218070Y-109460000D01*
X153200000Y-109460000D02*
X152841930Y-109460000D01*
X152841930Y-109460000D02*
X152377040Y-109253170D01*
X143218070Y-109460000D02*
X142860000Y-109460000D01*
X142360000Y-109960000D02*
X142360000Y-115060000D01*
X133030000Y-112060000D02*
X133030000Y-53060000D01*
X160030000Y-115060000D02*
X153700000Y-115060000D01*
X153700000Y-115060000D02*
X153700000Y-109960000D01*
X142360000Y-115060000D02*
X136030000Y-115060000D01*
X160030000Y-50060000D02*
G75*
G02*
X163030000Y-53060000I-1J-3000001D01*
G01*
X133030000Y-53060000D02*
G75*
G02*
X136030000Y-50060000I3000001J-1D01*
G01*
X152173800Y-109210000D02*
G75*
G02*
X152377037Y-109253176I-20J-500020D01*
G01*
X143682970Y-109253170D02*
G75*
G02*
X143886210Y-109210008I203310J-457250D01*
G01*
X153200000Y-109460000D02*
G75*
G02*
X153700000Y-109960000I-20J-500020D01*
G01*
X142360000Y-109960000D02*
G75*
G02*
X142860000Y-109460040I499980J-20D01*
G01*
X163030000Y-112060000D02*
G75*
G02*
X160030000Y-115060040I-3000020J-20D01*
G01*
X136030000Y-115060000D02*
G75*
G02*
X133030000Y-112060000I0J3000000D01*
G01*
D11*
%TO.C,G\u002A\u002A\u002A*%
G36*
X123663892Y-44326566D02*
G01*
X123794123Y-44329658D01*
X123892084Y-44339211D01*
X123973331Y-44357470D01*
X124038752Y-44380657D01*
X124236958Y-44485238D01*
X124404478Y-44625923D01*
X124538160Y-44799561D01*
X124619095Y-44961247D01*
X124656825Y-45099680D01*
X124674079Y-45263003D01*
X124670857Y-45432679D01*
X124647159Y-45590168D01*
X124619095Y-45681474D01*
X124516646Y-45876396D01*
X124380092Y-46040227D01*
X124214219Y-46169489D01*
X124023812Y-46260705D01*
X123813658Y-46310397D01*
X123744764Y-46316856D01*
X123640396Y-46319195D01*
X123539173Y-46314887D01*
X123468411Y-46305779D01*
X123349325Y-46267620D01*
X123216877Y-46204883D01*
X123087979Y-46127271D01*
X122979541Y-46044485D01*
X122933582Y-45998945D01*
X122806712Y-45821400D01*
X122722633Y-45630475D01*
X122680203Y-45432122D01*
X122679797Y-45389870D01*
X122966311Y-45389870D01*
X123003969Y-45560607D01*
X123077963Y-45712851D01*
X123190371Y-45847760D01*
X123330039Y-45947768D01*
X123489178Y-46010797D01*
X123660003Y-46034767D01*
X123834725Y-46017601D01*
X124001228Y-45959353D01*
X124154665Y-45860076D01*
X124270180Y-45731827D01*
X124346631Y-45576502D01*
X124382876Y-45395994D01*
X124385869Y-45321361D01*
X124370825Y-45149189D01*
X124322442Y-45002297D01*
X124235839Y-44867294D01*
X124208628Y-44834950D01*
X124084247Y-44728026D01*
X123933828Y-44654342D01*
X123767707Y-44615786D01*
X123596213Y-44614250D01*
X123429680Y-44651623D01*
X123362181Y-44680121D01*
X123211753Y-44778775D01*
X123094962Y-44906308D01*
X123013798Y-45055489D01*
X122970251Y-45219087D01*
X122966311Y-45389870D01*
X122679797Y-45389870D01*
X122678281Y-45232294D01*
X122715726Y-45036942D01*
X122791397Y-44852020D01*
X122904153Y-44683478D01*
X123052852Y-44537270D01*
X123236355Y-44419349D01*
X123236410Y-44419320D01*
X123322969Y-44376552D01*
X123389557Y-44349328D01*
X123452064Y-44334203D01*
X123526376Y-44327730D01*
X123628382Y-44326460D01*
X123663892Y-44326566D01*
G37*
G36*
X125171355Y-45769791D02*
G01*
X125215123Y-45801512D01*
X125240106Y-45834531D01*
X125254785Y-45879906D01*
X125261631Y-45949993D01*
X125263138Y-46041588D01*
X125261129Y-46143530D01*
X125253455Y-46209920D01*
X125237645Y-46253113D01*
X125215123Y-46281663D01*
X125162860Y-46317632D01*
X125119092Y-46329678D01*
X125066830Y-46313385D01*
X125023062Y-46281663D01*
X124998079Y-46248645D01*
X124983400Y-46203270D01*
X124976554Y-46133182D01*
X124975047Y-46041588D01*
X124977056Y-45939646D01*
X124984730Y-45873256D01*
X125000540Y-45830063D01*
X125023062Y-45801512D01*
X125075325Y-45765543D01*
X125119092Y-45753497D01*
X125171355Y-45769791D01*
G37*
G36*
X125732240Y-45472783D02*
G01*
X125789082Y-45510019D01*
X125827614Y-45578501D01*
X125839319Y-45657467D01*
X125839319Y-45753497D01*
X125935350Y-45753497D01*
X126032574Y-45770473D01*
X126079395Y-45801512D01*
X126120680Y-45868261D01*
X126120034Y-45934509D01*
X126082798Y-45991351D01*
X126014315Y-46029882D01*
X125935350Y-46041588D01*
X125839319Y-46041588D01*
X125839319Y-46137618D01*
X125822970Y-46227289D01*
X125779245Y-46294209D01*
X125716132Y-46327727D01*
X125695274Y-46329678D01*
X125643011Y-46313385D01*
X125599244Y-46281663D01*
X125580015Y-46258320D01*
X125566697Y-46227692D01*
X125558225Y-46181264D01*
X125553536Y-46110520D01*
X125551565Y-46006943D01*
X125551229Y-45897542D01*
X125551816Y-45762351D01*
X125554289Y-45666652D01*
X125559712Y-45601930D01*
X125569148Y-45559669D01*
X125583663Y-45531354D01*
X125599244Y-45513421D01*
X125665993Y-45472136D01*
X125732240Y-45472783D01*
G37*
G36*
X126899900Y-45769791D02*
G01*
X126943667Y-45801512D01*
X126968650Y-45834531D01*
X126983329Y-45879906D01*
X126990175Y-45949993D01*
X126991682Y-46041588D01*
X126989673Y-46143530D01*
X126981999Y-46209920D01*
X126966189Y-46253113D01*
X126943667Y-46281663D01*
X126891404Y-46317632D01*
X126847637Y-46329678D01*
X126795374Y-46313385D01*
X126751607Y-46281663D01*
X126726623Y-46248645D01*
X126711944Y-46203270D01*
X126705099Y-46133182D01*
X126703592Y-46041588D01*
X126705600Y-45939646D01*
X126713274Y-45873256D01*
X126729085Y-45830063D01*
X126751607Y-45801512D01*
X126803870Y-45765543D01*
X126847637Y-45753497D01*
X126899900Y-45769791D01*
G37*
G36*
X128052263Y-46057882D02*
G01*
X128096030Y-46089603D01*
X128131999Y-46141866D01*
X128144045Y-46185633D01*
X128127751Y-46237896D01*
X128096030Y-46281663D01*
X128043767Y-46317632D01*
X128000000Y-46329678D01*
X127947737Y-46313385D01*
X127903970Y-46281663D01*
X127868001Y-46229400D01*
X127855954Y-46185633D01*
X127872248Y-46133370D01*
X127903970Y-46089603D01*
X127956233Y-46053634D01*
X128000000Y-46041588D01*
X128052263Y-46057882D01*
G37*
G36*
X129110260Y-45755506D02*
G01*
X129176649Y-45763180D01*
X129219843Y-45778990D01*
X129248393Y-45801512D01*
X129273376Y-45834531D01*
X129288055Y-45879906D01*
X129294901Y-45949993D01*
X129296408Y-46041588D01*
X129294900Y-46143935D01*
X129286021Y-46218629D01*
X129263241Y-46270021D01*
X129220030Y-46302467D01*
X129149857Y-46320319D01*
X129046192Y-46327931D01*
X128902505Y-46329656D01*
X128864272Y-46329678D01*
X128729081Y-46329091D01*
X128633382Y-46326618D01*
X128568660Y-46321195D01*
X128526399Y-46311759D01*
X128498083Y-46297244D01*
X128480151Y-46281663D01*
X128438866Y-46214914D01*
X128439512Y-46148667D01*
X128476748Y-46091825D01*
X128545231Y-46053293D01*
X128624196Y-46041588D01*
X128720227Y-46041588D01*
X128720227Y-45945558D01*
X128728917Y-45862551D01*
X128759469Y-45806357D01*
X128818605Y-45772497D01*
X128913047Y-45756487D01*
X129008317Y-45753497D01*
X129110260Y-45755506D01*
G37*
G36*
X130933170Y-42888884D02*
G01*
X130976937Y-42920605D01*
X130999357Y-42949025D01*
X131013587Y-42987153D01*
X131021396Y-43045603D01*
X131024555Y-43134989D01*
X131024953Y-43208696D01*
X131024953Y-43448771D01*
X131168998Y-43448771D01*
X131313043Y-43448771D01*
X131313043Y-43352741D01*
X131330019Y-43255517D01*
X131361058Y-43208696D01*
X131427808Y-43167410D01*
X131494055Y-43168057D01*
X131550897Y-43205293D01*
X131589429Y-43273775D01*
X131601134Y-43352741D01*
X131601134Y-43448771D01*
X131841210Y-43448771D01*
X131955322Y-43449328D01*
X132040163Y-43455129D01*
X132100069Y-43472368D01*
X132139375Y-43507240D01*
X132162417Y-43565937D01*
X132173531Y-43654655D01*
X132177053Y-43779588D01*
X132177316Y-43928922D01*
X132177316Y-44313043D01*
X132273346Y-44313043D01*
X132370570Y-44330019D01*
X132417391Y-44361058D01*
X132458676Y-44427808D01*
X132458030Y-44494055D01*
X132420794Y-44550897D01*
X132352311Y-44589429D01*
X132273346Y-44601134D01*
X132177316Y-44601134D01*
X132177316Y-44841210D01*
X132173626Y-44976143D01*
X132159951Y-45070284D01*
X132132385Y-45130473D01*
X132087020Y-45163546D01*
X132019947Y-45176343D01*
X131985255Y-45177316D01*
X131889225Y-45177316D01*
X131889225Y-45273346D01*
X131872249Y-45370570D01*
X131841210Y-45417391D01*
X131767134Y-45457515D01*
X131697164Y-45465406D01*
X131601134Y-45465406D01*
X131601134Y-45849527D01*
X131600685Y-45994895D01*
X131598758Y-46100083D01*
X131594483Y-46172925D01*
X131586990Y-46221252D01*
X131575407Y-46252897D01*
X131558866Y-46275692D01*
X131553119Y-46281663D01*
X131500856Y-46317632D01*
X131457089Y-46329678D01*
X131404826Y-46313385D01*
X131361058Y-46281663D01*
X131342944Y-46259957D01*
X131330036Y-46231634D01*
X131321465Y-46188863D01*
X131316361Y-46123809D01*
X131313853Y-46028643D01*
X131313071Y-45895531D01*
X131313043Y-45849527D01*
X131313043Y-45465406D01*
X131168998Y-45465406D01*
X131024953Y-45465406D01*
X131024953Y-45849527D01*
X131025628Y-46000399D01*
X131023919Y-46115991D01*
X131014219Y-46200975D01*
X130990924Y-46260023D01*
X130948427Y-46297805D01*
X130881123Y-46318993D01*
X130783408Y-46328257D01*
X130649676Y-46330268D01*
X130474322Y-46329699D01*
X130448771Y-46329678D01*
X130284482Y-46329389D01*
X130161366Y-46328105D01*
X130072586Y-46325206D01*
X130011301Y-46320069D01*
X129970673Y-46312073D01*
X129943861Y-46300595D01*
X129924026Y-46285015D01*
X129920605Y-46281663D01*
X129895621Y-46248645D01*
X129880943Y-46203270D01*
X129874097Y-46133182D01*
X129872590Y-46041588D01*
X129878383Y-45917078D01*
X129898751Y-45832788D01*
X129938175Y-45781996D01*
X130001137Y-45757982D01*
X130064650Y-45753497D01*
X130160680Y-45753497D01*
X130160680Y-45321361D01*
X130160680Y-45177316D01*
X130448771Y-45177316D01*
X130592816Y-45177316D01*
X130736862Y-45177316D01*
X130736862Y-45033270D01*
X130736862Y-44889225D01*
X131024953Y-44889225D01*
X131457089Y-44889225D01*
X131889225Y-44889225D01*
X131889225Y-44457089D01*
X131889225Y-44024953D01*
X131457089Y-44024953D01*
X131024953Y-44024953D01*
X131024953Y-44457089D01*
X131024953Y-44889225D01*
X130736862Y-44889225D01*
X130592816Y-44889225D01*
X130448771Y-44889225D01*
X130448771Y-45033270D01*
X130448771Y-45177316D01*
X130160680Y-45177316D01*
X130160680Y-45033270D01*
X130160680Y-44889225D01*
X129776559Y-44889225D01*
X129631192Y-44888776D01*
X129526003Y-44886849D01*
X129453161Y-44882574D01*
X129404834Y-44875080D01*
X129373189Y-44863498D01*
X129350395Y-44846957D01*
X129344423Y-44841210D01*
X129303138Y-44774461D01*
X129303785Y-44708213D01*
X129341021Y-44651371D01*
X129409503Y-44612839D01*
X129488469Y-44601134D01*
X129584499Y-44601134D01*
X129584499Y-44505104D01*
X129601475Y-44407880D01*
X129632514Y-44361058D01*
X129699263Y-44319773D01*
X129765511Y-44320420D01*
X129822352Y-44357656D01*
X129860884Y-44426138D01*
X129872590Y-44505104D01*
X129872590Y-44601134D01*
X130016635Y-44601134D01*
X130160680Y-44601134D01*
X130160680Y-44505104D01*
X130177656Y-44407880D01*
X130208696Y-44361058D01*
X130275445Y-44319773D01*
X130341692Y-44320420D01*
X130398534Y-44357656D01*
X130437066Y-44426138D01*
X130448771Y-44505104D01*
X130448771Y-44601134D01*
X130592816Y-44601134D01*
X130736862Y-44601134D01*
X130736862Y-44457089D01*
X130736862Y-44313043D01*
X130640832Y-44313043D01*
X130543608Y-44296067D01*
X130496786Y-44265028D01*
X130455501Y-44198279D01*
X130456148Y-44132032D01*
X130493383Y-44075190D01*
X130561866Y-44036658D01*
X130640832Y-44024953D01*
X130736862Y-44024953D01*
X130736862Y-43496786D01*
X130737103Y-43323657D01*
X130738186Y-43192078D01*
X130740649Y-43095584D01*
X130745031Y-43027713D01*
X130751871Y-42982001D01*
X130761707Y-42951982D01*
X130775077Y-42931193D01*
X130784877Y-42920605D01*
X130837140Y-42884636D01*
X130880907Y-42872590D01*
X130933170Y-42888884D01*
G37*
G36*
X132085533Y-46057882D02*
G01*
X132129300Y-46089603D01*
X132165269Y-46141866D01*
X132177316Y-46185633D01*
X132161022Y-46237896D01*
X132129300Y-46281663D01*
X132077038Y-46317632D01*
X132033270Y-46329678D01*
X131981007Y-46313385D01*
X131937240Y-46281663D01*
X131901271Y-46229400D01*
X131889225Y-46185633D01*
X131905519Y-46133370D01*
X131937240Y-46089603D01*
X131989503Y-46053634D01*
X132033270Y-46041588D01*
X132085533Y-46057882D01*
G37*
G36*
X133032734Y-46042175D02*
G01*
X133128432Y-46044648D01*
X133193155Y-46050071D01*
X133235416Y-46059507D01*
X133263731Y-46074022D01*
X133281663Y-46089603D01*
X133317632Y-46141866D01*
X133329678Y-46185633D01*
X133313385Y-46237896D01*
X133281663Y-46281663D01*
X133258320Y-46300892D01*
X133227692Y-46314210D01*
X133181264Y-46322682D01*
X133110520Y-46327371D01*
X133006943Y-46329343D01*
X132897542Y-46329678D01*
X132762351Y-46329091D01*
X132666652Y-46326618D01*
X132601930Y-46321195D01*
X132559669Y-46311759D01*
X132531354Y-46297244D01*
X132513421Y-46281663D01*
X132477452Y-46229400D01*
X132465406Y-46185633D01*
X132481700Y-46133370D01*
X132513421Y-46089603D01*
X132536765Y-46070374D01*
X132567393Y-46057056D01*
X132613821Y-46048584D01*
X132684565Y-46043895D01*
X132788141Y-46041924D01*
X132897542Y-46041588D01*
X133032734Y-46042175D01*
G37*
G36*
X127116193Y-45183109D02*
G01*
X127200482Y-45203477D01*
X127251274Y-45242901D01*
X127275288Y-45305863D01*
X127279773Y-45369376D01*
X127279773Y-45465406D01*
X127375803Y-45465406D01*
X127458810Y-45474097D01*
X127515003Y-45504649D01*
X127548864Y-45563785D01*
X127564874Y-45658227D01*
X127567864Y-45753497D01*
X127565855Y-45855439D01*
X127558181Y-45921829D01*
X127542370Y-45965022D01*
X127519849Y-45993573D01*
X127467586Y-46029542D01*
X127423818Y-46041588D01*
X127371555Y-46025294D01*
X127327788Y-45993573D01*
X127287664Y-45919497D01*
X127279773Y-45849527D01*
X127279773Y-45753497D01*
X127183743Y-45753497D01*
X127086519Y-45736521D01*
X127023247Y-45685593D01*
X126993926Y-45600714D01*
X126991682Y-45561437D01*
X126991682Y-45465406D01*
X126895652Y-45465406D01*
X126805981Y-45449056D01*
X126739061Y-45405332D01*
X126705543Y-45342219D01*
X126703592Y-45321361D01*
X126719885Y-45269098D01*
X126751607Y-45225331D01*
X126784625Y-45200347D01*
X126830000Y-45185668D01*
X126900088Y-45178823D01*
X126991682Y-45177316D01*
X127116193Y-45183109D01*
G37*
G36*
X128340354Y-45769791D02*
G01*
X128384121Y-45801512D01*
X128420090Y-45853775D01*
X128432136Y-45897542D01*
X128415842Y-45949805D01*
X128384121Y-45993573D01*
X128331858Y-46029542D01*
X128288091Y-46041588D01*
X128235828Y-46025294D01*
X128192060Y-45993573D01*
X128156091Y-45941310D01*
X128144045Y-45897542D01*
X128160339Y-45845279D01*
X128192060Y-45801512D01*
X128244323Y-45765543D01*
X128288091Y-45753497D01*
X128340354Y-45769791D01*
G37*
G36*
X132373624Y-45769791D02*
G01*
X132417391Y-45801512D01*
X132453360Y-45853775D01*
X132465406Y-45897542D01*
X132449112Y-45949805D01*
X132417391Y-45993573D01*
X132365128Y-46029542D01*
X132321361Y-46041588D01*
X132269098Y-46025294D01*
X132225331Y-45993573D01*
X132189362Y-45941310D01*
X132177316Y-45897542D01*
X132193609Y-45845279D01*
X132225331Y-45801512D01*
X132277594Y-45765543D01*
X132321361Y-45753497D01*
X132373624Y-45769791D01*
G37*
G36*
X126611809Y-45481700D02*
G01*
X126655576Y-45513421D01*
X126691545Y-45565684D01*
X126703592Y-45609452D01*
X126687298Y-45661715D01*
X126655576Y-45705482D01*
X126603314Y-45741451D01*
X126559546Y-45753497D01*
X126507283Y-45737203D01*
X126463516Y-45705482D01*
X126427547Y-45653219D01*
X126415501Y-45609452D01*
X126431795Y-45557189D01*
X126463516Y-45513421D01*
X126515779Y-45477452D01*
X126559546Y-45465406D01*
X126611809Y-45481700D01*
G37*
G36*
X128441594Y-44025675D02*
G01*
X128553616Y-44031231D01*
X128630691Y-44046701D01*
X128679351Y-44077166D01*
X128706131Y-44127710D01*
X128717564Y-44203413D01*
X128720183Y-44309356D01*
X128720227Y-44361058D01*
X128720227Y-44601134D01*
X128816257Y-44601134D01*
X128899264Y-44609824D01*
X128955457Y-44640377D01*
X128989318Y-44699513D01*
X129005327Y-44793955D01*
X129008317Y-44889225D01*
X129002524Y-45013735D01*
X128982156Y-45098025D01*
X128942732Y-45148816D01*
X128879770Y-45172831D01*
X128816257Y-45177316D01*
X128720227Y-45177316D01*
X128720227Y-45417391D01*
X128719027Y-45530688D01*
X128714247Y-45606618D01*
X128704119Y-45655794D01*
X128686873Y-45688830D01*
X128672212Y-45705482D01*
X128619949Y-45741451D01*
X128576181Y-45753497D01*
X128523918Y-45737203D01*
X128480151Y-45705482D01*
X128440027Y-45631406D01*
X128432136Y-45561437D01*
X128432136Y-45465406D01*
X128336106Y-45465406D01*
X128238882Y-45448430D01*
X128192060Y-45417391D01*
X128151936Y-45343315D01*
X128144045Y-45273346D01*
X128144045Y-45177316D01*
X128048015Y-45177316D01*
X127950791Y-45160340D01*
X127903970Y-45129300D01*
X127862684Y-45062551D01*
X127863331Y-44996304D01*
X127900567Y-44939462D01*
X127969049Y-44900930D01*
X128048015Y-44889225D01*
X128144045Y-44889225D01*
X128144045Y-44745179D01*
X128144045Y-44601134D01*
X128048015Y-44601134D01*
X127965008Y-44592444D01*
X127908815Y-44561891D01*
X127874954Y-44502755D01*
X127858944Y-44408314D01*
X127855954Y-44313043D01*
X127857463Y-44210696D01*
X127866342Y-44136002D01*
X127889122Y-44084610D01*
X127932333Y-44052164D01*
X128002506Y-44034312D01*
X128106170Y-44026700D01*
X128249858Y-44024975D01*
X128288091Y-44024953D01*
X128441594Y-44025675D01*
G37*
G36*
X132085533Y-45481700D02*
G01*
X132129300Y-45513421D01*
X132165269Y-45565684D01*
X132177316Y-45609452D01*
X132161022Y-45661715D01*
X132129300Y-45705482D01*
X132077038Y-45741451D01*
X132033270Y-45753497D01*
X131981007Y-45737203D01*
X131937240Y-45705482D01*
X131901271Y-45653219D01*
X131889225Y-45609452D01*
X131905519Y-45557189D01*
X131937240Y-45513421D01*
X131989503Y-45477452D01*
X132033270Y-45465406D01*
X132085533Y-45481700D01*
G37*
G36*
X132661715Y-45481700D02*
G01*
X132705482Y-45513421D01*
X132741451Y-45565684D01*
X132753497Y-45609452D01*
X132737203Y-45661715D01*
X132705482Y-45705482D01*
X132653219Y-45741451D01*
X132609452Y-45753497D01*
X132557189Y-45737203D01*
X132513421Y-45705482D01*
X132477452Y-45653219D01*
X132465406Y-45609452D01*
X132481700Y-45557189D01*
X132513421Y-45513421D01*
X132565684Y-45477452D01*
X132609452Y-45465406D01*
X132661715Y-45481700D01*
G37*
G36*
X126118556Y-44313631D02*
G01*
X126214255Y-44316104D01*
X126278977Y-44321526D01*
X126321238Y-44330963D01*
X126349553Y-44345478D01*
X126367486Y-44361058D01*
X126407610Y-44435134D01*
X126415501Y-44505104D01*
X126415501Y-44601134D01*
X126799622Y-44601134D01*
X126944989Y-44601583D01*
X127050178Y-44603510D01*
X127123020Y-44607785D01*
X127171347Y-44615279D01*
X127202992Y-44626861D01*
X127225786Y-44643402D01*
X127231758Y-44649149D01*
X127267727Y-44701412D01*
X127279773Y-44745179D01*
X127263479Y-44797442D01*
X127231758Y-44841210D01*
X127212461Y-44857610D01*
X127187441Y-44869793D01*
X127149858Y-44878381D01*
X127092875Y-44883996D01*
X127009650Y-44887259D01*
X126893344Y-44888792D01*
X126737119Y-44889218D01*
X126703592Y-44889225D01*
X126539302Y-44888935D01*
X126416187Y-44887651D01*
X126327407Y-44884752D01*
X126266122Y-44879615D01*
X126225493Y-44871619D01*
X126198681Y-44860142D01*
X126178846Y-44844562D01*
X126175425Y-44841210D01*
X126135301Y-44767134D01*
X126127410Y-44697164D01*
X126127410Y-44601134D01*
X125983365Y-44601134D01*
X125839319Y-44601134D01*
X125839319Y-44697164D01*
X125822343Y-44794388D01*
X125791304Y-44841210D01*
X125717228Y-44881334D01*
X125647259Y-44889225D01*
X125551229Y-44889225D01*
X125551229Y-45129300D01*
X125550028Y-45242597D01*
X125545249Y-45318527D01*
X125535121Y-45367703D01*
X125517875Y-45400739D01*
X125503213Y-45417391D01*
X125450951Y-45453360D01*
X125407183Y-45465406D01*
X125354920Y-45449112D01*
X125311153Y-45417391D01*
X125291924Y-45394048D01*
X125278606Y-45363420D01*
X125270135Y-45316992D01*
X125265445Y-45246247D01*
X125263474Y-45142671D01*
X125263138Y-45033270D01*
X125263726Y-44898079D01*
X125266198Y-44802380D01*
X125271621Y-44737658D01*
X125281057Y-44695397D01*
X125295572Y-44667081D01*
X125311153Y-44649149D01*
X125385229Y-44609025D01*
X125455198Y-44601134D01*
X125551229Y-44601134D01*
X125551229Y-44505104D01*
X125568205Y-44407880D01*
X125599244Y-44361058D01*
X125622587Y-44341829D01*
X125653215Y-44328511D01*
X125699643Y-44320040D01*
X125770388Y-44315351D01*
X125873964Y-44313379D01*
X125983365Y-44313043D01*
X126118556Y-44313631D01*
G37*
G36*
X126229352Y-45179324D02*
G01*
X126295742Y-45186998D01*
X126338935Y-45202809D01*
X126367486Y-45225331D01*
X126403455Y-45277594D01*
X126415501Y-45321361D01*
X126399207Y-45373624D01*
X126367486Y-45417391D01*
X126334467Y-45442374D01*
X126289092Y-45457053D01*
X126219005Y-45463899D01*
X126127410Y-45465406D01*
X126025468Y-45463397D01*
X125959078Y-45455723D01*
X125915885Y-45439913D01*
X125887334Y-45417391D01*
X125851365Y-45365128D01*
X125839319Y-45321361D01*
X125855613Y-45269098D01*
X125887334Y-45225331D01*
X125920353Y-45200347D01*
X125965728Y-45185668D01*
X126035816Y-45178823D01*
X126127410Y-45177316D01*
X126229352Y-45179324D01*
G37*
G36*
X129398350Y-45179324D02*
G01*
X129464740Y-45186998D01*
X129507933Y-45202809D01*
X129536484Y-45225331D01*
X129572453Y-45277594D01*
X129584499Y-45321361D01*
X129568205Y-45373624D01*
X129536484Y-45417391D01*
X129503465Y-45442374D01*
X129458090Y-45457053D01*
X129388003Y-45463899D01*
X129296408Y-45465406D01*
X129194466Y-45463397D01*
X129128076Y-45455723D01*
X129084883Y-45439913D01*
X129056333Y-45417391D01*
X129020364Y-45365128D01*
X129008317Y-45321361D01*
X129024611Y-45269098D01*
X129056333Y-45225331D01*
X129089351Y-45200347D01*
X129134726Y-45185668D01*
X129204814Y-45178823D01*
X129296408Y-45177316D01*
X129398350Y-45179324D01*
G37*
G36*
X132373624Y-45193609D02*
G01*
X132417391Y-45225331D01*
X132453360Y-45277594D01*
X132465406Y-45321361D01*
X132449112Y-45373624D01*
X132417391Y-45417391D01*
X132365128Y-45453360D01*
X132321361Y-45465406D01*
X132269098Y-45449112D01*
X132225331Y-45417391D01*
X132189362Y-45365128D01*
X132177316Y-45321361D01*
X132193609Y-45269098D01*
X132225331Y-45225331D01*
X132277594Y-45189362D01*
X132321361Y-45177316D01*
X132373624Y-45193609D01*
G37*
G36*
X133237896Y-44905519D02*
G01*
X133281663Y-44937240D01*
X133306647Y-44970259D01*
X133321326Y-45015634D01*
X133328171Y-45085721D01*
X133329678Y-45177316D01*
X133327670Y-45279258D01*
X133319996Y-45345647D01*
X133304185Y-45388841D01*
X133281663Y-45417391D01*
X133248645Y-45442374D01*
X133203270Y-45457053D01*
X133133182Y-45463899D01*
X133041588Y-45465406D01*
X132939646Y-45463397D01*
X132873256Y-45455723D01*
X132830063Y-45439913D01*
X132801512Y-45417391D01*
X132760227Y-45350642D01*
X132760874Y-45284395D01*
X132798109Y-45227553D01*
X132866592Y-45189021D01*
X132945558Y-45177316D01*
X133041588Y-45177316D01*
X133041588Y-45081285D01*
X133057938Y-44991614D01*
X133101662Y-44924695D01*
X133164775Y-44891177D01*
X133185633Y-44889225D01*
X133237896Y-44905519D01*
G37*
G36*
X127476081Y-44905519D02*
G01*
X127519849Y-44937240D01*
X127555818Y-44989503D01*
X127567864Y-45033270D01*
X127551570Y-45085533D01*
X127519849Y-45129300D01*
X127467586Y-45165269D01*
X127423818Y-45177316D01*
X127371555Y-45161022D01*
X127327788Y-45129300D01*
X127291819Y-45077038D01*
X127279773Y-45033270D01*
X127296067Y-44981007D01*
X127327788Y-44937240D01*
X127380051Y-44901271D01*
X127423818Y-44889225D01*
X127476081Y-44905519D01*
G37*
G36*
X132855439Y-44603143D02*
G01*
X132921829Y-44610817D01*
X132965022Y-44626627D01*
X132993573Y-44649149D01*
X133029542Y-44701412D01*
X133041588Y-44745179D01*
X133025294Y-44797442D01*
X132993573Y-44841210D01*
X132960554Y-44866193D01*
X132915179Y-44880872D01*
X132845091Y-44887718D01*
X132753497Y-44889225D01*
X132651555Y-44887216D01*
X132585165Y-44879542D01*
X132541972Y-44863732D01*
X132513421Y-44841210D01*
X132477452Y-44788947D01*
X132465406Y-44745179D01*
X132481700Y-44692917D01*
X132513421Y-44649149D01*
X132546440Y-44624166D01*
X132591815Y-44609487D01*
X132661903Y-44602641D01*
X132753497Y-44601134D01*
X132855439Y-44603143D01*
G37*
G36*
X125675739Y-42878383D02*
G01*
X125760029Y-42898751D01*
X125810820Y-42938175D01*
X125834834Y-43001137D01*
X125839319Y-43064650D01*
X125839319Y-43160680D01*
X125935350Y-43160680D01*
X126012454Y-43167138D01*
X126066249Y-43191068D01*
X126100643Y-43239309D01*
X126119542Y-43318698D01*
X126126854Y-43436075D01*
X126127410Y-43496786D01*
X126127410Y-43736862D01*
X126271455Y-43736862D01*
X126415501Y-43736862D01*
X126415501Y-43640832D01*
X126432477Y-43543608D01*
X126463516Y-43496786D01*
X126486859Y-43477557D01*
X126517487Y-43464239D01*
X126563915Y-43455768D01*
X126634660Y-43451079D01*
X126738236Y-43449107D01*
X126847637Y-43448771D01*
X126982828Y-43449359D01*
X127078527Y-43451832D01*
X127143249Y-43457254D01*
X127185510Y-43466691D01*
X127213826Y-43481206D01*
X127231758Y-43496786D01*
X127273043Y-43563535D01*
X127272396Y-43629783D01*
X127235161Y-43686625D01*
X127166678Y-43725157D01*
X127087713Y-43736862D01*
X126991682Y-43736862D01*
X126991682Y-43880907D01*
X126991682Y-44024953D01*
X127231758Y-44024953D01*
X127364787Y-44027404D01*
X127457224Y-44038955D01*
X127516408Y-44065895D01*
X127549681Y-44114517D01*
X127564382Y-44191112D01*
X127567851Y-44301973D01*
X127567864Y-44313043D01*
X127565855Y-44414985D01*
X127558181Y-44481375D01*
X127542370Y-44524569D01*
X127519849Y-44553119D01*
X127467586Y-44589088D01*
X127423818Y-44601134D01*
X127371555Y-44584840D01*
X127327788Y-44553119D01*
X127287664Y-44479043D01*
X127279773Y-44409074D01*
X127279773Y-44313043D01*
X126895652Y-44313043D01*
X126750284Y-44312594D01*
X126645096Y-44310668D01*
X126572254Y-44306392D01*
X126523927Y-44298899D01*
X126492282Y-44287316D01*
X126469487Y-44270775D01*
X126463516Y-44265028D01*
X126423392Y-44190952D01*
X126415501Y-44120983D01*
X126415501Y-44024953D01*
X126175425Y-44024953D01*
X126042561Y-44022903D01*
X125950294Y-44011827D01*
X125891235Y-43984336D01*
X125857994Y-43933040D01*
X125843180Y-43850548D01*
X125839405Y-43729470D01*
X125839319Y-43688847D01*
X125839319Y-43448771D01*
X125743289Y-43448771D01*
X125646065Y-43431795D01*
X125599244Y-43400756D01*
X125559120Y-43326680D01*
X125551229Y-43256711D01*
X125551229Y-43160680D01*
X125455198Y-43160680D01*
X125365527Y-43144331D01*
X125298608Y-43100606D01*
X125265090Y-43037493D01*
X125263138Y-43016635D01*
X125279432Y-42964372D01*
X125311153Y-42920605D01*
X125344172Y-42895621D01*
X125389547Y-42880943D01*
X125459634Y-42874097D01*
X125551229Y-42872590D01*
X125675739Y-42878383D01*
G37*
G36*
X129204626Y-44329337D02*
G01*
X129248393Y-44361058D01*
X129284362Y-44413321D01*
X129296408Y-44457089D01*
X129280114Y-44509352D01*
X129248393Y-44553119D01*
X129196130Y-44589088D01*
X129152363Y-44601134D01*
X129100100Y-44584840D01*
X129056333Y-44553119D01*
X129020364Y-44500856D01*
X129008317Y-44457089D01*
X129024611Y-44404826D01*
X129056333Y-44361058D01*
X129108595Y-44325089D01*
X129152363Y-44313043D01*
X129204626Y-44329337D01*
G37*
G36*
X125365080Y-44026961D02*
G01*
X125431470Y-44034635D01*
X125474663Y-44050446D01*
X125503213Y-44072968D01*
X125539182Y-44125231D01*
X125551229Y-44168998D01*
X125534935Y-44221261D01*
X125503213Y-44265028D01*
X125470195Y-44290012D01*
X125424820Y-44304690D01*
X125354732Y-44311536D01*
X125263138Y-44313043D01*
X125161196Y-44311035D01*
X125094806Y-44303360D01*
X125051613Y-44287550D01*
X125023062Y-44265028D01*
X124987093Y-44212765D01*
X124975047Y-44168998D01*
X124991341Y-44116735D01*
X125023062Y-44072968D01*
X125056081Y-44047984D01*
X125101456Y-44033305D01*
X125171543Y-44026460D01*
X125263138Y-44024953D01*
X125365080Y-44026961D01*
G37*
G36*
X133051064Y-43737867D02*
G01*
X133163104Y-43743787D01*
X133240193Y-43758973D01*
X133288861Y-43787781D01*
X133315639Y-43834563D01*
X133327057Y-43903672D01*
X133329645Y-43999464D01*
X133329678Y-44024953D01*
X133327670Y-44126895D01*
X133319996Y-44193284D01*
X133304185Y-44236478D01*
X133281663Y-44265028D01*
X133214914Y-44306313D01*
X133148667Y-44305667D01*
X133091825Y-44268431D01*
X133053293Y-44199948D01*
X133041588Y-44120983D01*
X133041588Y-44024953D01*
X132897542Y-44024953D01*
X132753497Y-44024953D01*
X132753497Y-44120983D01*
X132737147Y-44210654D01*
X132693422Y-44277574D01*
X132630310Y-44311091D01*
X132609452Y-44313043D01*
X132557189Y-44296749D01*
X132513421Y-44265028D01*
X132488438Y-44232010D01*
X132473759Y-44186635D01*
X132466913Y-44116547D01*
X132465406Y-44024953D01*
X132466915Y-43922605D01*
X132475794Y-43847912D01*
X132498573Y-43796519D01*
X132541785Y-43764074D01*
X132611957Y-43746222D01*
X132715622Y-43738610D01*
X132859310Y-43736884D01*
X132897542Y-43736862D01*
X133051064Y-43737867D01*
G37*
G36*
X123636536Y-43450780D02*
G01*
X123702925Y-43458454D01*
X123746119Y-43474264D01*
X123774669Y-43496786D01*
X123799652Y-43529805D01*
X123814331Y-43575180D01*
X123821177Y-43645267D01*
X123822684Y-43736862D01*
X123821176Y-43839209D01*
X123812297Y-43913903D01*
X123789517Y-43965295D01*
X123746306Y-43997741D01*
X123676133Y-44015593D01*
X123572468Y-44023205D01*
X123428781Y-44024931D01*
X123390548Y-44024953D01*
X123255357Y-44024365D01*
X123159658Y-44021892D01*
X123094936Y-44016470D01*
X123052675Y-44007033D01*
X123024359Y-43992518D01*
X123006427Y-43976937D01*
X122965142Y-43910188D01*
X122965788Y-43843941D01*
X123003024Y-43787099D01*
X123071507Y-43748567D01*
X123150472Y-43736862D01*
X123246503Y-43736862D01*
X123246503Y-43640832D01*
X123255193Y-43557825D01*
X123285745Y-43501632D01*
X123344881Y-43467771D01*
X123439323Y-43451761D01*
X123534593Y-43448771D01*
X123636536Y-43450780D01*
G37*
G36*
X124789304Y-43162189D02*
G01*
X124863997Y-43171068D01*
X124915390Y-43193848D01*
X124947835Y-43237059D01*
X124965687Y-43307231D01*
X124973299Y-43410896D01*
X124975025Y-43554584D01*
X124975047Y-43592816D01*
X124974831Y-43746396D01*
X124969839Y-43858507D01*
X124953558Y-43935662D01*
X124919472Y-43984378D01*
X124861068Y-44011167D01*
X124771830Y-44022545D01*
X124645246Y-44025026D01*
X124542911Y-44024953D01*
X124407720Y-44024365D01*
X124312021Y-44021892D01*
X124247299Y-44016470D01*
X124205038Y-44007033D01*
X124176722Y-43992518D01*
X124158790Y-43976937D01*
X124122821Y-43924675D01*
X124110775Y-43880907D01*
X124127069Y-43828644D01*
X124158790Y-43784877D01*
X124187210Y-43762458D01*
X124225338Y-43748228D01*
X124283789Y-43740418D01*
X124373175Y-43737260D01*
X124446881Y-43736862D01*
X124686956Y-43736862D01*
X124686956Y-43592816D01*
X124686956Y-43448771D01*
X124590926Y-43448771D01*
X124501255Y-43432421D01*
X124434335Y-43388697D01*
X124400818Y-43325584D01*
X124398866Y-43304726D01*
X124415160Y-43252463D01*
X124446881Y-43208696D01*
X124479899Y-43183712D01*
X124525274Y-43169033D01*
X124595362Y-43162188D01*
X124686956Y-43160680D01*
X124789304Y-43162189D01*
G37*
G36*
X128864272Y-42008317D02*
G01*
X129054049Y-42008493D01*
X129201677Y-42009300D01*
X129313022Y-42011157D01*
X129393949Y-42014482D01*
X129450325Y-42019696D01*
X129488015Y-42027217D01*
X129512885Y-42037463D01*
X129530800Y-42050854D01*
X129536484Y-42056333D01*
X129572453Y-42108595D01*
X129584499Y-42152363D01*
X129568205Y-42204626D01*
X129536484Y-42248393D01*
X129508064Y-42270812D01*
X129469935Y-42285042D01*
X129411485Y-42292852D01*
X129322099Y-42296010D01*
X129248393Y-42296408D01*
X129008317Y-42296408D01*
X129008317Y-42392438D01*
X128991342Y-42489662D01*
X128960302Y-42536484D01*
X128886226Y-42576608D01*
X128816257Y-42584499D01*
X128720227Y-42584499D01*
X128720227Y-42728544D01*
X128720227Y-42872590D01*
X129152363Y-42872590D01*
X129584499Y-42872590D01*
X129584499Y-42632514D01*
X129586951Y-42499485D01*
X129598501Y-42407048D01*
X129625441Y-42347864D01*
X129674063Y-42314591D01*
X129750658Y-42299890D01*
X129861519Y-42296420D01*
X129872590Y-42296408D01*
X129974532Y-42298417D01*
X130040921Y-42306091D01*
X130084115Y-42321901D01*
X130112665Y-42344423D01*
X130153950Y-42411172D01*
X130153304Y-42477420D01*
X130116068Y-42534262D01*
X130047585Y-42572794D01*
X129968620Y-42584499D01*
X129872590Y-42584499D01*
X129872590Y-42824575D01*
X129871390Y-42937872D01*
X129866610Y-43013801D01*
X129856482Y-43062977D01*
X129839236Y-43096013D01*
X129824575Y-43112665D01*
X129796155Y-43135085D01*
X129758026Y-43149315D01*
X129699576Y-43157124D01*
X129610190Y-43160282D01*
X129536484Y-43160680D01*
X129296408Y-43160680D01*
X129296408Y-43304726D01*
X129296408Y-43448771D01*
X129392438Y-43448771D01*
X129482110Y-43465121D01*
X129549029Y-43508846D01*
X129582547Y-43571958D01*
X129584499Y-43592816D01*
X129568205Y-43645079D01*
X129536484Y-43688847D01*
X129508064Y-43711266D01*
X129469935Y-43725496D01*
X129411485Y-43733306D01*
X129322099Y-43736464D01*
X129248393Y-43736862D01*
X129008317Y-43736862D01*
X129008317Y-43832892D01*
X128991968Y-43922564D01*
X128948243Y-43989483D01*
X128885130Y-44023001D01*
X128864272Y-44024953D01*
X128812009Y-44008659D01*
X128768242Y-43976937D01*
X128728118Y-43902862D01*
X128720227Y-43832892D01*
X128720227Y-43736862D01*
X128192060Y-43736862D01*
X128018931Y-43736621D01*
X127887352Y-43735538D01*
X127790859Y-43733075D01*
X127722988Y-43728693D01*
X127677275Y-43721853D01*
X127647256Y-43712017D01*
X127626467Y-43698646D01*
X127615879Y-43688847D01*
X127575755Y-43614771D01*
X127567864Y-43544801D01*
X127567864Y-43448771D01*
X127471834Y-43448771D01*
X127374610Y-43431795D01*
X127327788Y-43400756D01*
X127308559Y-43377413D01*
X127295241Y-43346785D01*
X127286770Y-43300357D01*
X127282080Y-43229612D01*
X127280109Y-43126036D01*
X127279773Y-43016635D01*
X127280361Y-42881444D01*
X127282834Y-42785745D01*
X127288256Y-42721023D01*
X127297692Y-42678762D01*
X127312207Y-42650446D01*
X127327788Y-42632514D01*
X127380051Y-42596545D01*
X127423818Y-42584499D01*
X127476081Y-42600793D01*
X127519849Y-42632514D01*
X127542268Y-42660934D01*
X127556498Y-42699062D01*
X127564308Y-42757513D01*
X127567466Y-42846899D01*
X127567864Y-42920605D01*
X127567864Y-43160680D01*
X127663894Y-43160680D01*
X127761118Y-43177656D01*
X127807939Y-43208696D01*
X127848063Y-43282771D01*
X127855954Y-43352741D01*
X127855954Y-43448771D01*
X128000000Y-43448771D01*
X128144045Y-43448771D01*
X128720227Y-43448771D01*
X128864272Y-43448771D01*
X129008317Y-43448771D01*
X129008317Y-43304726D01*
X129008317Y-43160680D01*
X128864272Y-43160680D01*
X128720227Y-43160680D01*
X128720227Y-43304726D01*
X128720227Y-43448771D01*
X128144045Y-43448771D01*
X128144045Y-43352741D01*
X128152429Y-43304726D01*
X128161021Y-43255517D01*
X128192060Y-43208696D01*
X128266136Y-43168571D01*
X128336106Y-43160680D01*
X128432136Y-43160680D01*
X128432136Y-42872590D01*
X128432136Y-42584499D01*
X128336106Y-42584499D01*
X128253099Y-42575809D01*
X128196906Y-42545256D01*
X128163045Y-42486120D01*
X128147035Y-42391678D01*
X128144045Y-42296408D01*
X128143864Y-42214487D01*
X128146682Y-42149752D01*
X128157548Y-42100182D01*
X128181506Y-42063761D01*
X128223602Y-42038469D01*
X128288882Y-42022289D01*
X128382393Y-42013202D01*
X128509180Y-42009189D01*
X128674289Y-42008233D01*
X128864272Y-42008317D01*
G37*
G36*
X129780807Y-43753156D02*
G01*
X129824575Y-43784877D01*
X129860543Y-43837140D01*
X129872590Y-43880907D01*
X129856296Y-43933170D01*
X129824575Y-43976937D01*
X129772312Y-44012906D01*
X129728544Y-44024953D01*
X129676281Y-44008659D01*
X129632514Y-43976937D01*
X129596545Y-43924675D01*
X129584499Y-43880907D01*
X129600793Y-43828644D01*
X129632514Y-43784877D01*
X129684777Y-43748908D01*
X129728544Y-43736862D01*
X129780807Y-43753156D01*
G37*
G36*
X130356989Y-42888884D02*
G01*
X130400756Y-42920605D01*
X130419985Y-42943948D01*
X130433303Y-42974576D01*
X130441774Y-43021004D01*
X130446464Y-43091749D01*
X130448435Y-43195325D01*
X130448771Y-43304726D01*
X130448183Y-43439917D01*
X130445711Y-43535616D01*
X130440288Y-43600338D01*
X130430852Y-43642599D01*
X130416337Y-43670915D01*
X130400756Y-43688847D01*
X130348493Y-43724816D01*
X130304726Y-43736862D01*
X130252463Y-43720568D01*
X130208696Y-43688847D01*
X130189466Y-43665504D01*
X130176148Y-43634876D01*
X130167677Y-43588447D01*
X130162988Y-43517703D01*
X130161016Y-43414127D01*
X130160680Y-43304726D01*
X130161268Y-43169535D01*
X130163741Y-43073836D01*
X130169163Y-43009114D01*
X130178600Y-42966853D01*
X130193115Y-42938537D01*
X130208696Y-42920605D01*
X130260958Y-42884636D01*
X130304726Y-42872590D01*
X130356989Y-42888884D01*
G37*
G36*
X122866629Y-42312702D02*
G01*
X122910397Y-42344423D01*
X122928512Y-42366129D01*
X122941419Y-42394452D01*
X122949990Y-42437224D01*
X122955094Y-42502277D01*
X122957602Y-42597444D01*
X122958384Y-42730556D01*
X122958412Y-42776559D01*
X122958412Y-43160680D01*
X123054442Y-43160680D01*
X123144114Y-43177030D01*
X123211033Y-43220755D01*
X123244551Y-43283868D01*
X123246503Y-43304726D01*
X123230209Y-43356989D01*
X123198488Y-43400756D01*
X123165469Y-43425739D01*
X123120094Y-43440418D01*
X123050006Y-43447264D01*
X122958412Y-43448771D01*
X122856470Y-43446762D01*
X122790080Y-43439088D01*
X122746887Y-43423278D01*
X122718336Y-43400756D01*
X122701936Y-43381459D01*
X122689753Y-43356439D01*
X122681165Y-43318856D01*
X122675550Y-43261873D01*
X122672287Y-43178648D01*
X122670754Y-43062343D01*
X122670328Y-42906118D01*
X122670321Y-42872590D01*
X122670611Y-42708300D01*
X122671895Y-42585185D01*
X122674794Y-42496405D01*
X122679931Y-42435120D01*
X122687927Y-42394491D01*
X122699404Y-42367679D01*
X122714984Y-42347844D01*
X122718336Y-42344423D01*
X122770599Y-42308454D01*
X122814367Y-42296408D01*
X122866629Y-42312702D01*
G37*
G36*
X132567348Y-43162689D02*
G01*
X132633738Y-43170363D01*
X132676932Y-43186174D01*
X132705482Y-43208696D01*
X132741451Y-43260958D01*
X132753497Y-43304726D01*
X132737203Y-43356989D01*
X132705482Y-43400756D01*
X132672463Y-43425739D01*
X132627088Y-43440418D01*
X132557001Y-43447264D01*
X132465406Y-43448771D01*
X132363464Y-43446762D01*
X132297074Y-43439088D01*
X132253881Y-43423278D01*
X132225331Y-43400756D01*
X132189362Y-43348493D01*
X132177316Y-43304726D01*
X132193609Y-43252463D01*
X132225331Y-43208696D01*
X132258349Y-43183712D01*
X132303724Y-43169033D01*
X132373812Y-43162188D01*
X132465406Y-43160680D01*
X132567348Y-43162689D01*
G37*
G36*
X123730902Y-42888884D02*
G01*
X123774669Y-42920605D01*
X123810638Y-42972868D01*
X123822684Y-43016635D01*
X123806390Y-43068898D01*
X123774669Y-43112665D01*
X123722406Y-43148634D01*
X123678639Y-43160680D01*
X123626376Y-43144386D01*
X123582609Y-43112665D01*
X123546640Y-43060402D01*
X123534593Y-43016635D01*
X123550887Y-42964372D01*
X123582609Y-42920605D01*
X123634871Y-42884636D01*
X123678639Y-42872590D01*
X123730902Y-42888884D01*
G37*
G36*
X126899900Y-42600793D02*
G01*
X126943667Y-42632514D01*
X126968650Y-42665533D01*
X126983329Y-42710908D01*
X126990175Y-42780995D01*
X126991682Y-42872590D01*
X126989673Y-42974532D01*
X126981999Y-43040921D01*
X126966189Y-43084115D01*
X126943667Y-43112665D01*
X126891404Y-43148634D01*
X126847637Y-43160680D01*
X126795374Y-43144386D01*
X126751607Y-43112665D01*
X126726623Y-43079647D01*
X126711944Y-43034272D01*
X126705099Y-42964184D01*
X126703592Y-42872590D01*
X126705600Y-42770648D01*
X126713274Y-42704258D01*
X126729085Y-42661064D01*
X126751607Y-42632514D01*
X126803870Y-42596545D01*
X126847637Y-42584499D01*
X126899900Y-42600793D01*
G37*
G36*
X128052263Y-42600793D02*
G01*
X128096030Y-42632514D01*
X128121013Y-42665533D01*
X128135692Y-42710908D01*
X128142538Y-42780995D01*
X128144045Y-42872590D01*
X128142036Y-42974532D01*
X128134362Y-43040921D01*
X128118552Y-43084115D01*
X128096030Y-43112665D01*
X128043767Y-43148634D01*
X128000000Y-43160680D01*
X127947737Y-43144386D01*
X127903970Y-43112665D01*
X127878986Y-43079647D01*
X127864307Y-43034272D01*
X127857462Y-42964184D01*
X127855954Y-42872590D01*
X127857963Y-42770648D01*
X127865637Y-42704258D01*
X127881448Y-42661064D01*
X127903970Y-42632514D01*
X127956233Y-42596545D01*
X128000000Y-42584499D01*
X128052263Y-42600793D01*
G37*
G36*
X132085533Y-42888884D02*
G01*
X132129300Y-42920605D01*
X132165269Y-42972868D01*
X132177316Y-43016635D01*
X132161022Y-43068898D01*
X132129300Y-43112665D01*
X132077038Y-43148634D01*
X132033270Y-43160680D01*
X131981007Y-43144386D01*
X131937240Y-43112665D01*
X131901271Y-43060402D01*
X131889225Y-43016635D01*
X131905519Y-42964372D01*
X131937240Y-42920605D01*
X131989503Y-42884636D01*
X132033270Y-42872590D01*
X132085533Y-42888884D01*
G37*
G36*
X123450363Y-42604822D02*
G01*
X123503854Y-42653873D01*
X123533146Y-42713777D01*
X123534593Y-42728544D01*
X123518299Y-42780807D01*
X123486578Y-42824575D01*
X123434315Y-42860543D01*
X123390548Y-42872590D01*
X123338285Y-42856296D01*
X123294518Y-42824575D01*
X123258549Y-42772312D01*
X123246503Y-42728544D01*
X123266826Y-42668729D01*
X123315877Y-42615238D01*
X123375781Y-42585946D01*
X123390548Y-42584499D01*
X123450363Y-42604822D01*
G37*
G36*
X124867968Y-42303785D02*
G01*
X124924810Y-42341021D01*
X124963342Y-42409503D01*
X124975047Y-42488469D01*
X124975047Y-42584499D01*
X125071077Y-42584499D01*
X125160749Y-42600849D01*
X125227668Y-42644574D01*
X125261186Y-42707686D01*
X125263138Y-42728544D01*
X125246844Y-42780807D01*
X125215123Y-42824575D01*
X125191780Y-42843804D01*
X125161152Y-42857122D01*
X125114723Y-42865593D01*
X125043979Y-42870282D01*
X124940403Y-42872254D01*
X124831002Y-42872590D01*
X124695810Y-42872002D01*
X124600112Y-42869529D01*
X124535390Y-42864107D01*
X124493129Y-42854670D01*
X124464813Y-42840155D01*
X124446881Y-42824575D01*
X124405596Y-42757825D01*
X124406242Y-42691578D01*
X124443478Y-42634736D01*
X124511961Y-42596204D01*
X124590926Y-42584499D01*
X124686956Y-42584499D01*
X124686956Y-42488469D01*
X124703932Y-42391245D01*
X124734972Y-42344423D01*
X124801721Y-42303138D01*
X124867968Y-42303785D01*
G37*
G36*
X126517443Y-42298417D02*
G01*
X126583833Y-42306091D01*
X126627026Y-42321901D01*
X126655576Y-42344423D01*
X126696862Y-42411172D01*
X126696215Y-42477420D01*
X126658979Y-42534262D01*
X126590497Y-42572794D01*
X126511531Y-42584499D01*
X126415501Y-42584499D01*
X126415501Y-42680529D01*
X126399151Y-42770201D01*
X126355426Y-42837120D01*
X126292314Y-42870638D01*
X126271455Y-42872590D01*
X126219193Y-42856296D01*
X126175425Y-42824575D01*
X126150442Y-42791556D01*
X126135763Y-42746181D01*
X126128917Y-42676093D01*
X126127410Y-42584499D01*
X126129419Y-42482557D01*
X126137093Y-42416167D01*
X126152903Y-42372974D01*
X126175425Y-42344423D01*
X126208444Y-42319440D01*
X126253819Y-42304761D01*
X126323906Y-42297915D01*
X126415501Y-42296408D01*
X126517443Y-42298417D01*
G37*
G36*
X131797442Y-42600793D02*
G01*
X131841210Y-42632514D01*
X131877179Y-42684777D01*
X131889225Y-42728544D01*
X131872931Y-42780807D01*
X131841210Y-42824575D01*
X131788947Y-42860543D01*
X131745179Y-42872590D01*
X131692917Y-42856296D01*
X131649149Y-42824575D01*
X131613180Y-42772312D01*
X131601134Y-42728544D01*
X131617428Y-42676281D01*
X131649149Y-42632514D01*
X131701412Y-42596545D01*
X131745179Y-42584499D01*
X131797442Y-42600793D01*
G37*
G36*
X132373624Y-42600793D02*
G01*
X132417391Y-42632514D01*
X132453360Y-42684777D01*
X132465406Y-42728544D01*
X132449112Y-42780807D01*
X132417391Y-42824575D01*
X132365128Y-42860543D01*
X132321361Y-42872590D01*
X132269098Y-42856296D01*
X132225331Y-42824575D01*
X132189362Y-42772312D01*
X132177316Y-42728544D01*
X132193609Y-42676281D01*
X132225331Y-42632514D01*
X132277594Y-42596545D01*
X132321361Y-42584499D01*
X132373624Y-42600793D01*
G37*
G36*
X133237896Y-42312702D02*
G01*
X133281663Y-42344423D01*
X133306647Y-42377442D01*
X133321326Y-42422817D01*
X133328171Y-42492904D01*
X133329678Y-42584499D01*
X133327670Y-42686441D01*
X133319996Y-42752831D01*
X133304185Y-42796024D01*
X133281663Y-42824575D01*
X133248645Y-42849558D01*
X133203270Y-42864237D01*
X133133182Y-42871083D01*
X133041588Y-42872590D01*
X132939646Y-42870581D01*
X132873256Y-42862907D01*
X132830063Y-42847096D01*
X132801512Y-42824575D01*
X132760227Y-42757825D01*
X132760874Y-42691578D01*
X132798109Y-42634736D01*
X132866592Y-42596204D01*
X132945558Y-42584499D01*
X133041588Y-42584499D01*
X133041588Y-42488469D01*
X133057938Y-42398797D01*
X133101662Y-42331878D01*
X133164775Y-42298360D01*
X133185633Y-42296408D01*
X133237896Y-42312702D01*
G37*
G36*
X125444150Y-36541970D02*
G01*
X125500991Y-36579206D01*
X125539523Y-36647688D01*
X125551229Y-36726654D01*
X125553539Y-36788121D01*
X125569710Y-36815434D01*
X125613602Y-36822453D01*
X125647259Y-36822684D01*
X125744483Y-36839660D01*
X125791304Y-36870699D01*
X125809419Y-36892405D01*
X125822327Y-36920728D01*
X125830898Y-36963500D01*
X125836002Y-37028553D01*
X125838510Y-37123720D01*
X125839291Y-37256832D01*
X125839319Y-37302835D01*
X125839319Y-37686956D01*
X125935350Y-37686956D01*
X126032574Y-37703932D01*
X126095846Y-37754860D01*
X126125166Y-37839740D01*
X126127410Y-37879017D01*
X126127410Y-37975047D01*
X126559546Y-37975047D01*
X126991682Y-37975047D01*
X126991682Y-37879017D01*
X127007597Y-37788133D01*
X127049406Y-37723946D01*
X127108205Y-37691798D01*
X127175089Y-37697031D01*
X127231758Y-37734972D01*
X127248158Y-37754269D01*
X127260341Y-37779289D01*
X127268929Y-37816871D01*
X127274544Y-37873855D01*
X127277807Y-37957080D01*
X127279341Y-38073385D01*
X127279766Y-38229610D01*
X127279773Y-38263138D01*
X127279483Y-38427427D01*
X127278200Y-38550543D01*
X127275300Y-38639323D01*
X127270163Y-38700608D01*
X127262167Y-38741236D01*
X127250690Y-38768048D01*
X127235110Y-38787883D01*
X127231758Y-38791304D01*
X127179495Y-38827273D01*
X127135728Y-38839319D01*
X127083465Y-38823025D01*
X127039697Y-38791304D01*
X127017278Y-38762884D01*
X127003048Y-38724756D01*
X126995238Y-38666305D01*
X126992080Y-38576920D01*
X126991682Y-38503213D01*
X126991682Y-38263138D01*
X126847637Y-38263138D01*
X126703592Y-38263138D01*
X126703592Y-38359168D01*
X126697134Y-38436273D01*
X126673204Y-38490068D01*
X126624963Y-38524461D01*
X126545573Y-38543361D01*
X126428197Y-38550673D01*
X126367486Y-38551229D01*
X126127410Y-38551229D01*
X126127410Y-38647259D01*
X126110434Y-38744483D01*
X126079395Y-38791304D01*
X126005319Y-38831428D01*
X125935350Y-38839319D01*
X125839319Y-38839319D01*
X125839319Y-39847637D01*
X125839319Y-40855954D01*
X126079395Y-40855954D01*
X126192692Y-40857155D01*
X126268622Y-40861934D01*
X126317798Y-40872062D01*
X126350834Y-40889308D01*
X126367486Y-40903970D01*
X126408771Y-40970719D01*
X126408124Y-41036966D01*
X126370888Y-41093808D01*
X126302406Y-41132340D01*
X126223440Y-41144045D01*
X126127410Y-41144045D01*
X126127410Y-41240075D01*
X126110434Y-41337299D01*
X126079395Y-41384121D01*
X126012646Y-41425406D01*
X125946398Y-41424759D01*
X125889557Y-41387524D01*
X125851025Y-41319041D01*
X125839319Y-41240075D01*
X125839319Y-41144045D01*
X125551229Y-41144045D01*
X125263138Y-41144045D01*
X125263138Y-41240075D01*
X125246162Y-41337299D01*
X125195234Y-41400572D01*
X125110355Y-41429892D01*
X125071077Y-41432136D01*
X125009610Y-41434446D01*
X124982297Y-41450617D01*
X124975278Y-41494509D01*
X124975047Y-41528166D01*
X124958071Y-41625390D01*
X124927032Y-41672212D01*
X124905326Y-41690326D01*
X124877003Y-41703234D01*
X124834231Y-41711805D01*
X124769178Y-41716909D01*
X124674012Y-41719417D01*
X124540899Y-41720199D01*
X124494896Y-41720227D01*
X124110775Y-41720227D01*
X124110775Y-41864272D01*
X124110775Y-42008317D01*
X124350851Y-42008317D01*
X124464148Y-42009518D01*
X124540077Y-42014297D01*
X124589253Y-42024425D01*
X124622289Y-42041671D01*
X124638941Y-42056333D01*
X124674910Y-42108595D01*
X124686956Y-42152363D01*
X124670662Y-42204626D01*
X124638941Y-42248393D01*
X124610521Y-42270812D01*
X124572393Y-42285042D01*
X124513943Y-42292852D01*
X124424557Y-42296010D01*
X124350851Y-42296408D01*
X124110775Y-42296408D01*
X124110775Y-42392438D01*
X124094425Y-42482110D01*
X124050700Y-42549029D01*
X123987588Y-42582547D01*
X123966730Y-42584499D01*
X123914467Y-42568205D01*
X123870699Y-42536484D01*
X123848280Y-42508064D01*
X123834050Y-42469935D01*
X123826240Y-42411485D01*
X123823082Y-42322099D01*
X123822684Y-42248393D01*
X123822684Y-42008317D01*
X123582609Y-42008317D01*
X123469311Y-42007117D01*
X123393382Y-42002338D01*
X123344206Y-41992209D01*
X123311170Y-41974964D01*
X123294518Y-41960302D01*
X123252264Y-41891716D01*
X123257550Y-41821242D01*
X123294518Y-41768242D01*
X123322938Y-41745822D01*
X123361066Y-41731592D01*
X123419517Y-41723783D01*
X123508903Y-41720625D01*
X123582609Y-41720227D01*
X123822684Y-41720227D01*
X123822684Y-41576181D01*
X123822684Y-41432136D01*
X123726654Y-41432136D01*
X123635770Y-41416221D01*
X123571583Y-41374412D01*
X123539435Y-41315614D01*
X123544668Y-41248730D01*
X123582609Y-41192060D01*
X123615627Y-41167077D01*
X123661002Y-41152398D01*
X123731090Y-41145552D01*
X123822684Y-41144045D01*
X123947194Y-41149839D01*
X124031484Y-41170207D01*
X124082275Y-41209631D01*
X124106290Y-41272592D01*
X124110775Y-41336106D01*
X124110775Y-41432136D01*
X124398866Y-41432136D01*
X124686956Y-41432136D01*
X124686956Y-41336106D01*
X124703932Y-41238882D01*
X124734972Y-41192060D01*
X124809047Y-41151936D01*
X124879017Y-41144045D01*
X124940484Y-41141735D01*
X124967797Y-41125564D01*
X124974816Y-41081672D01*
X124975047Y-41048015D01*
X124981504Y-40970910D01*
X125005434Y-40917115D01*
X125053675Y-40882722D01*
X125133065Y-40863823D01*
X125250442Y-40856511D01*
X125311153Y-40855954D01*
X125551229Y-40855954D01*
X125551229Y-40711909D01*
X125551229Y-40567864D01*
X125263138Y-40567864D01*
X124975047Y-40567864D01*
X124975047Y-40663894D01*
X124958071Y-40761118D01*
X124927032Y-40807939D01*
X124860283Y-40849225D01*
X124794035Y-40848578D01*
X124737194Y-40811342D01*
X124698662Y-40742860D01*
X124686956Y-40663894D01*
X124686956Y-40567864D01*
X124590926Y-40567864D01*
X124500043Y-40551949D01*
X124435855Y-40510140D01*
X124403707Y-40451342D01*
X124408940Y-40384457D01*
X124446881Y-40327788D01*
X124468587Y-40309673D01*
X124496910Y-40296766D01*
X124539682Y-40288195D01*
X124604735Y-40283091D01*
X124699901Y-40280583D01*
X124833013Y-40279801D01*
X124879017Y-40279773D01*
X125263138Y-40279773D01*
X125263138Y-40039697D01*
X125266828Y-39904765D01*
X125280502Y-39810623D01*
X125308068Y-39750434D01*
X125353434Y-39717361D01*
X125420506Y-39704565D01*
X125455198Y-39703592D01*
X125551229Y-39703592D01*
X125551229Y-39559546D01*
X125551229Y-39415501D01*
X125455198Y-39415501D01*
X125372192Y-39406810D01*
X125315998Y-39376258D01*
X125282137Y-39317122D01*
X125266128Y-39222680D01*
X125263138Y-39127410D01*
X125268931Y-39002900D01*
X125289300Y-38918610D01*
X125328724Y-38867819D01*
X125391685Y-38843804D01*
X125455198Y-38839319D01*
X125551229Y-38839319D01*
X125551229Y-38599244D01*
X125554918Y-38464311D01*
X125568593Y-38370169D01*
X125596159Y-38309980D01*
X125641525Y-38276907D01*
X125708597Y-38264111D01*
X125743289Y-38263138D01*
X125839319Y-38263138D01*
X125839319Y-38119092D01*
X125839319Y-37975047D01*
X125743289Y-37975047D01*
X125646065Y-37958071D01*
X125599244Y-37927032D01*
X125581129Y-37905326D01*
X125568221Y-37877003D01*
X125559650Y-37834231D01*
X125554546Y-37769178D01*
X125552038Y-37674012D01*
X125551257Y-37540899D01*
X125551229Y-37494896D01*
X125551229Y-37110775D01*
X125455198Y-37110775D01*
X125372192Y-37102085D01*
X125315998Y-37071532D01*
X125282137Y-37012396D01*
X125266128Y-36917954D01*
X125263138Y-36822684D01*
X125265147Y-36720742D01*
X125272821Y-36654352D01*
X125288631Y-36611159D01*
X125311153Y-36582609D01*
X125377902Y-36541323D01*
X125444150Y-36541970D01*
G37*
G36*
X125747537Y-41736521D02*
G01*
X125791304Y-41768242D01*
X125816288Y-41801260D01*
X125830966Y-41846635D01*
X125837812Y-41916723D01*
X125839319Y-42008317D01*
X125833526Y-42132828D01*
X125813158Y-42217118D01*
X125773733Y-42267909D01*
X125710772Y-42291923D01*
X125647259Y-42296408D01*
X125551229Y-42296408D01*
X125551229Y-42392438D01*
X125534879Y-42482110D01*
X125491154Y-42549029D01*
X125428041Y-42582547D01*
X125407183Y-42584499D01*
X125354920Y-42568205D01*
X125311153Y-42536484D01*
X125271029Y-42462408D01*
X125263138Y-42392438D01*
X125263138Y-42296408D01*
X125167108Y-42296408D01*
X125077436Y-42280058D01*
X125010517Y-42236334D01*
X124976999Y-42173221D01*
X124975047Y-42152363D01*
X124991341Y-42100100D01*
X125023062Y-42056333D01*
X125051482Y-42033913D01*
X125089611Y-42019683D01*
X125148061Y-42011874D01*
X125237447Y-42008715D01*
X125311153Y-42008317D01*
X125551229Y-42008317D01*
X125551229Y-41912287D01*
X125567578Y-41822616D01*
X125611303Y-41755696D01*
X125674416Y-41722179D01*
X125695274Y-41720227D01*
X125747537Y-41736521D01*
G37*
G36*
X131205964Y-39710968D02*
G01*
X131262806Y-39748204D01*
X131301338Y-39816686D01*
X131313043Y-39895652D01*
X131313043Y-39991682D01*
X131409074Y-39991682D01*
X131506298Y-40008658D01*
X131553119Y-40039697D01*
X131594404Y-40106446D01*
X131593758Y-40172694D01*
X131556522Y-40229536D01*
X131488039Y-40268068D01*
X131409074Y-40279773D01*
X131313043Y-40279773D01*
X131313043Y-40375803D01*
X131296067Y-40473027D01*
X131265028Y-40519849D01*
X131190952Y-40559973D01*
X131120983Y-40567864D01*
X131024953Y-40567864D01*
X131024953Y-40855954D01*
X131024953Y-41144045D01*
X131120983Y-41144045D01*
X131218207Y-41161021D01*
X131265028Y-41192060D01*
X131305152Y-41266136D01*
X131313043Y-41336106D01*
X131313043Y-41432136D01*
X131409074Y-41432136D01*
X131486178Y-41438593D01*
X131539973Y-41462523D01*
X131574367Y-41510764D01*
X131593266Y-41590154D01*
X131600578Y-41707531D01*
X131601134Y-41768242D01*
X131601134Y-42008317D01*
X131697164Y-42008317D01*
X131794388Y-42025293D01*
X131841210Y-42056333D01*
X131882495Y-42123082D01*
X131881848Y-42189329D01*
X131844612Y-42246171D01*
X131776130Y-42284703D01*
X131697164Y-42296408D01*
X131601134Y-42296408D01*
X131601134Y-42392438D01*
X131584158Y-42489662D01*
X131553119Y-42536484D01*
X131533822Y-42552884D01*
X131508802Y-42565067D01*
X131471219Y-42573655D01*
X131414236Y-42579270D01*
X131331011Y-42582533D01*
X131214706Y-42584067D01*
X131058481Y-42584492D01*
X131024953Y-42584499D01*
X130860663Y-42584209D01*
X130737548Y-42582925D01*
X130648768Y-42580026D01*
X130587483Y-42574889D01*
X130546854Y-42566893D01*
X130520042Y-42555416D01*
X130500207Y-42539836D01*
X130496786Y-42536484D01*
X130455501Y-42469735D01*
X130456148Y-42403487D01*
X130493383Y-42346645D01*
X130561866Y-42308113D01*
X130640832Y-42296408D01*
X130736862Y-42296408D01*
X130736862Y-42200378D01*
X130753838Y-42103154D01*
X130784877Y-42056333D01*
X130851626Y-42015047D01*
X130917874Y-42015694D01*
X130974715Y-42052930D01*
X131013247Y-42121412D01*
X131024953Y-42200378D01*
X131024953Y-42296408D01*
X131168998Y-42296408D01*
X131313043Y-42296408D01*
X131313043Y-42008317D01*
X131313043Y-41720227D01*
X131072968Y-41720227D01*
X130958855Y-41719669D01*
X130874014Y-41713868D01*
X130814109Y-41696629D01*
X130774803Y-41661758D01*
X130751761Y-41603061D01*
X130740647Y-41514343D01*
X130737124Y-41389410D01*
X130736862Y-41240075D01*
X130736862Y-40855954D01*
X130496786Y-40855954D01*
X130383489Y-40854754D01*
X130307559Y-40849975D01*
X130258383Y-40839847D01*
X130225347Y-40822601D01*
X130208696Y-40807939D01*
X130172727Y-40755676D01*
X130160680Y-40711909D01*
X130176974Y-40659646D01*
X130208696Y-40615879D01*
X130237116Y-40593459D01*
X130275244Y-40579229D01*
X130333694Y-40571420D01*
X130423080Y-40568262D01*
X130496786Y-40567864D01*
X130736862Y-40567864D01*
X130736862Y-40423818D01*
X130736862Y-40279773D01*
X130496786Y-40279773D01*
X130383489Y-40278573D01*
X130307559Y-40273793D01*
X130258383Y-40263665D01*
X130225347Y-40246419D01*
X130208696Y-40231758D01*
X130167410Y-40165009D01*
X130168057Y-40098761D01*
X130205293Y-40041920D01*
X130273775Y-40003388D01*
X130352741Y-39991682D01*
X130414208Y-39989372D01*
X130441521Y-39973201D01*
X130448540Y-39929309D01*
X130448771Y-39895652D01*
X130465747Y-39798428D01*
X130496786Y-39751607D01*
X130563535Y-39710322D01*
X130629783Y-39710968D01*
X130686625Y-39748204D01*
X130725157Y-39816686D01*
X130736862Y-39895652D01*
X130736862Y-39991682D01*
X130880907Y-39991682D01*
X131024953Y-39991682D01*
X131024953Y-39895652D01*
X131041929Y-39798428D01*
X131072968Y-39751607D01*
X131139717Y-39710322D01*
X131205964Y-39710968D01*
G37*
G36*
X132085533Y-42312702D02*
G01*
X132129300Y-42344423D01*
X132165269Y-42396686D01*
X132177316Y-42440454D01*
X132161022Y-42492716D01*
X132129300Y-42536484D01*
X132077038Y-42572453D01*
X132033270Y-42584499D01*
X131981007Y-42568205D01*
X131937240Y-42536484D01*
X131901271Y-42484221D01*
X131889225Y-42440454D01*
X131905519Y-42388191D01*
X131937240Y-42344423D01*
X131989503Y-42308454D01*
X132033270Y-42296408D01*
X132085533Y-42312702D01*
G37*
G36*
X127381715Y-41722236D02*
G01*
X127448105Y-41729910D01*
X127491298Y-41745720D01*
X127519849Y-41768242D01*
X127544832Y-41801260D01*
X127559511Y-41846635D01*
X127566357Y-41916723D01*
X127567864Y-42008317D01*
X127566355Y-42110665D01*
X127557476Y-42185358D01*
X127534697Y-42236751D01*
X127491485Y-42269196D01*
X127421313Y-42287048D01*
X127317648Y-42294660D01*
X127173961Y-42296386D01*
X127135728Y-42296408D01*
X127000536Y-42295820D01*
X126904838Y-42293348D01*
X126840115Y-42287925D01*
X126797854Y-42278489D01*
X126769539Y-42263974D01*
X126751607Y-42248393D01*
X126710322Y-42181644D01*
X126710968Y-42115396D01*
X126748204Y-42058555D01*
X126816686Y-42020023D01*
X126895652Y-42008317D01*
X126991682Y-42008317D01*
X126991682Y-41912287D01*
X127000373Y-41829280D01*
X127030925Y-41773087D01*
X127090061Y-41739226D01*
X127184503Y-41723217D01*
X127279773Y-41720227D01*
X127381715Y-41722236D01*
G37*
G36*
X132855439Y-42010326D02*
G01*
X132921829Y-42018000D01*
X132965022Y-42033811D01*
X132993573Y-42056333D01*
X133029542Y-42108595D01*
X133041588Y-42152363D01*
X133025294Y-42204626D01*
X132993573Y-42248393D01*
X132960554Y-42273376D01*
X132915179Y-42288055D01*
X132845091Y-42294901D01*
X132753497Y-42296408D01*
X132651555Y-42294399D01*
X132585165Y-42286725D01*
X132541972Y-42270915D01*
X132513421Y-42248393D01*
X132477452Y-42196130D01*
X132465406Y-42152363D01*
X132481700Y-42100100D01*
X132513421Y-42056333D01*
X132546440Y-42031349D01*
X132591815Y-42016670D01*
X132661903Y-42009825D01*
X132753497Y-42008317D01*
X132855439Y-42010326D01*
G37*
G36*
X126611809Y-41736521D02*
G01*
X126655576Y-41768242D01*
X126691545Y-41820505D01*
X126703592Y-41864272D01*
X126687298Y-41916535D01*
X126655576Y-41960302D01*
X126603314Y-41996271D01*
X126559546Y-42008317D01*
X126507283Y-41992023D01*
X126463516Y-41960302D01*
X126427547Y-41908039D01*
X126415501Y-41864272D01*
X126431795Y-41812009D01*
X126463516Y-41768242D01*
X126515779Y-41732273D01*
X126559546Y-41720227D01*
X126611809Y-41736521D01*
G37*
G36*
X128052263Y-41448430D02*
G01*
X128096030Y-41480151D01*
X128121013Y-41513170D01*
X128135692Y-41558545D01*
X128142538Y-41628632D01*
X128144045Y-41720227D01*
X128142036Y-41822169D01*
X128134362Y-41888558D01*
X128118552Y-41931752D01*
X128096030Y-41960302D01*
X128043767Y-41996271D01*
X128000000Y-42008317D01*
X127947737Y-41992023D01*
X127903970Y-41960302D01*
X127878986Y-41927284D01*
X127864307Y-41881909D01*
X127857462Y-41811821D01*
X127855954Y-41720227D01*
X127857963Y-41618285D01*
X127865637Y-41551895D01*
X127881448Y-41508701D01*
X127903970Y-41480151D01*
X127956233Y-41444182D01*
X128000000Y-41432136D01*
X128052263Y-41448430D01*
G37*
G36*
X129863736Y-40280361D02*
G01*
X129959434Y-40282834D01*
X130024156Y-40288256D01*
X130066417Y-40297692D01*
X130094733Y-40312207D01*
X130112665Y-40327788D01*
X130153950Y-40394537D01*
X130153304Y-40460785D01*
X130116068Y-40517627D01*
X130047585Y-40556158D01*
X129968620Y-40567864D01*
X129872590Y-40567864D01*
X129872590Y-40711909D01*
X129872590Y-40855954D01*
X129968620Y-40855954D01*
X130045724Y-40862412D01*
X130099520Y-40886342D01*
X130133913Y-40934583D01*
X130152812Y-41013973D01*
X130160124Y-41131349D01*
X130160680Y-41192060D01*
X130160680Y-41432136D01*
X130256711Y-41432136D01*
X130339717Y-41440826D01*
X130395911Y-41471379D01*
X130429772Y-41530515D01*
X130445781Y-41624956D01*
X130448771Y-41720227D01*
X130446762Y-41822169D01*
X130439088Y-41888558D01*
X130423278Y-41931752D01*
X130400756Y-41960302D01*
X130367737Y-41985286D01*
X130322362Y-41999965D01*
X130252275Y-42006810D01*
X130160680Y-42008317D01*
X130058738Y-42006309D01*
X129992349Y-41998635D01*
X129949155Y-41982824D01*
X129920605Y-41960302D01*
X129902490Y-41938596D01*
X129889582Y-41910273D01*
X129881011Y-41867501D01*
X129875907Y-41802448D01*
X129873399Y-41707282D01*
X129872618Y-41574170D01*
X129872590Y-41528166D01*
X129872590Y-41144045D01*
X129776559Y-41144045D01*
X129699455Y-41137588D01*
X129645660Y-41113658D01*
X129611266Y-41065417D01*
X129592367Y-40986027D01*
X129585055Y-40868651D01*
X129584499Y-40807939D01*
X129584499Y-40567864D01*
X129488469Y-40567864D01*
X129398797Y-40551514D01*
X129331878Y-40507789D01*
X129298360Y-40444676D01*
X129296408Y-40423818D01*
X129312702Y-40371555D01*
X129344423Y-40327788D01*
X129367767Y-40308559D01*
X129398394Y-40295241D01*
X129444823Y-40286770D01*
X129515567Y-40282080D01*
X129619143Y-40280109D01*
X129728544Y-40279773D01*
X129863736Y-40280361D01*
G37*
G36*
X132279258Y-41722236D02*
G01*
X132345647Y-41729910D01*
X132388841Y-41745720D01*
X132417391Y-41768242D01*
X132453360Y-41820505D01*
X132465406Y-41864272D01*
X132449112Y-41916535D01*
X132417391Y-41960302D01*
X132384372Y-41985286D01*
X132338998Y-41999965D01*
X132268910Y-42006810D01*
X132177316Y-42008317D01*
X132075373Y-42006309D01*
X132008984Y-41998635D01*
X131965790Y-41982824D01*
X131937240Y-41960302D01*
X131901271Y-41908039D01*
X131889225Y-41864272D01*
X131905519Y-41812009D01*
X131937240Y-41768242D01*
X131970259Y-41743258D01*
X132015634Y-41728580D01*
X132085721Y-41721734D01*
X132177316Y-41720227D01*
X132279258Y-41722236D01*
G37*
G36*
X122874182Y-41452459D02*
G01*
X122927673Y-41501510D01*
X122956965Y-41561414D01*
X122958412Y-41576181D01*
X122942118Y-41628444D01*
X122910397Y-41672212D01*
X122858134Y-41708181D01*
X122814367Y-41720227D01*
X122762104Y-41703933D01*
X122718336Y-41672212D01*
X122682367Y-41619949D01*
X122670321Y-41576181D01*
X122690644Y-41516366D01*
X122739696Y-41462875D01*
X122799599Y-41433583D01*
X122814367Y-41432136D01*
X122874182Y-41452459D01*
G37*
G36*
X126323718Y-41448430D02*
G01*
X126367486Y-41480151D01*
X126403455Y-41532414D01*
X126415501Y-41576181D01*
X126399207Y-41628444D01*
X126367486Y-41672212D01*
X126315223Y-41708181D01*
X126271455Y-41720227D01*
X126219193Y-41703933D01*
X126175425Y-41672212D01*
X126139456Y-41619949D01*
X126127410Y-41576181D01*
X126143704Y-41523918D01*
X126175425Y-41480151D01*
X126227688Y-41444182D01*
X126271455Y-41432136D01*
X126323718Y-41448430D01*
G37*
G36*
X126899900Y-41448430D02*
G01*
X126943667Y-41480151D01*
X126979636Y-41532414D01*
X126991682Y-41576181D01*
X126975388Y-41628444D01*
X126943667Y-41672212D01*
X126891404Y-41708181D01*
X126847637Y-41720227D01*
X126795374Y-41703933D01*
X126751607Y-41672212D01*
X126715638Y-41619949D01*
X126703592Y-41576181D01*
X126719885Y-41523918D01*
X126751607Y-41480151D01*
X126803870Y-41444182D01*
X126847637Y-41432136D01*
X126899900Y-41448430D01*
G37*
G36*
X128916535Y-40007976D02*
G01*
X128960302Y-40039697D01*
X128982722Y-40068117D01*
X128996952Y-40106246D01*
X129004761Y-40164696D01*
X129007919Y-40254082D01*
X129008317Y-40327788D01*
X129008317Y-40567864D01*
X129104348Y-40567864D01*
X129201572Y-40584840D01*
X129248393Y-40615879D01*
X129289678Y-40682628D01*
X129289032Y-40748875D01*
X129251796Y-40805717D01*
X129183313Y-40844249D01*
X129104348Y-40855954D01*
X129008317Y-40855954D01*
X129008317Y-41000000D01*
X129008317Y-41144045D01*
X129104348Y-41144045D01*
X129201572Y-41161021D01*
X129248393Y-41192060D01*
X129289678Y-41258809D01*
X129289032Y-41325057D01*
X129251796Y-41381899D01*
X129183313Y-41420431D01*
X129104348Y-41432136D01*
X129008317Y-41432136D01*
X129008317Y-41528166D01*
X128999627Y-41611173D01*
X128969075Y-41667366D01*
X128909939Y-41701227D01*
X128815497Y-41717237D01*
X128720227Y-41720227D01*
X128618285Y-41718218D01*
X128551895Y-41710544D01*
X128508701Y-41694733D01*
X128480151Y-41672212D01*
X128460922Y-41648868D01*
X128447604Y-41618240D01*
X128439133Y-41571812D01*
X128434443Y-41501068D01*
X128432472Y-41397492D01*
X128432136Y-41288091D01*
X128432724Y-41152899D01*
X128435197Y-41057201D01*
X128440619Y-40992478D01*
X128450055Y-40950217D01*
X128464570Y-40921902D01*
X128480151Y-40903970D01*
X128554227Y-40863846D01*
X128624196Y-40855954D01*
X128720227Y-40855954D01*
X128720227Y-40711909D01*
X128720227Y-40567864D01*
X128624196Y-40567864D01*
X128526973Y-40550888D01*
X128480151Y-40519849D01*
X128438866Y-40453100D01*
X128439512Y-40386852D01*
X128476748Y-40330010D01*
X128545231Y-40291478D01*
X128624196Y-40279773D01*
X128720227Y-40279773D01*
X128720227Y-40183743D01*
X128736577Y-40094071D01*
X128780301Y-40027152D01*
X128843414Y-39993634D01*
X128864272Y-39991682D01*
X128916535Y-40007976D01*
G37*
G36*
X129492716Y-41448430D02*
G01*
X129536484Y-41480151D01*
X129572453Y-41532414D01*
X129584499Y-41576181D01*
X129568205Y-41628444D01*
X129536484Y-41672212D01*
X129484221Y-41708181D01*
X129440454Y-41720227D01*
X129388191Y-41703933D01*
X129344423Y-41672212D01*
X129308454Y-41619949D01*
X129296408Y-41576181D01*
X129312702Y-41523918D01*
X129344423Y-41480151D01*
X129396686Y-41444182D01*
X129440454Y-41432136D01*
X129492716Y-41448430D01*
G37*
G36*
X132878007Y-41149839D02*
G01*
X132962297Y-41170207D01*
X133013088Y-41209631D01*
X133037103Y-41272592D01*
X133041588Y-41336106D01*
X133041588Y-41432136D01*
X133137618Y-41432136D01*
X133227289Y-41448486D01*
X133294209Y-41492211D01*
X133327727Y-41555323D01*
X133329678Y-41576181D01*
X133313385Y-41628444D01*
X133281663Y-41672212D01*
X133248645Y-41697195D01*
X133203270Y-41711874D01*
X133133182Y-41718720D01*
X133041588Y-41720227D01*
X132939646Y-41718218D01*
X132873256Y-41710544D01*
X132830063Y-41694733D01*
X132801512Y-41672212D01*
X132761388Y-41598136D01*
X132753497Y-41528166D01*
X132753497Y-41432136D01*
X132657467Y-41432136D01*
X132567795Y-41415786D01*
X132500876Y-41372061D01*
X132467358Y-41308949D01*
X132465406Y-41288091D01*
X132481700Y-41235828D01*
X132513421Y-41192060D01*
X132546440Y-41167077D01*
X132591815Y-41152398D01*
X132661903Y-41145552D01*
X132753497Y-41144045D01*
X132878007Y-41149839D01*
G37*
G36*
X127404283Y-40285567D02*
G01*
X127488573Y-40305935D01*
X127539364Y-40345359D01*
X127563379Y-40408320D01*
X127567864Y-40471834D01*
X127570174Y-40533301D01*
X127586345Y-40560614D01*
X127630237Y-40567633D01*
X127663894Y-40567864D01*
X127761118Y-40584840D01*
X127807939Y-40615879D01*
X127849225Y-40682628D01*
X127848578Y-40748875D01*
X127811342Y-40805717D01*
X127742860Y-40844249D01*
X127663894Y-40855954D01*
X127567864Y-40855954D01*
X127567864Y-41096030D01*
X127565412Y-41229059D01*
X127553862Y-41321496D01*
X127526922Y-41380681D01*
X127478300Y-41413953D01*
X127401704Y-41428654D01*
X127290844Y-41432124D01*
X127279773Y-41432136D01*
X127177831Y-41430127D01*
X127111441Y-41422453D01*
X127068248Y-41406643D01*
X127039697Y-41384121D01*
X126998412Y-41317372D01*
X126999059Y-41251124D01*
X127036295Y-41194282D01*
X127104777Y-41155751D01*
X127183743Y-41144045D01*
X127279773Y-41144045D01*
X127279773Y-41000000D01*
X127279773Y-40855954D01*
X127183743Y-40855954D01*
X127100736Y-40847264D01*
X127044543Y-40816712D01*
X127010682Y-40757576D01*
X126994672Y-40663134D01*
X126991682Y-40567864D01*
X126993691Y-40465922D01*
X127001365Y-40399532D01*
X127017176Y-40356339D01*
X127039697Y-40327788D01*
X127072716Y-40302805D01*
X127118091Y-40288126D01*
X127188179Y-40281280D01*
X127279773Y-40279773D01*
X127404283Y-40285567D01*
G37*
G36*
X131782146Y-40863331D02*
G01*
X131838988Y-40900567D01*
X131877520Y-40969049D01*
X131889225Y-41048015D01*
X131889225Y-41144045D01*
X131985255Y-41144045D01*
X132074927Y-41160395D01*
X132141846Y-41204120D01*
X132175364Y-41267233D01*
X132177316Y-41288091D01*
X132161022Y-41340354D01*
X132129300Y-41384121D01*
X132096282Y-41409104D01*
X132050907Y-41423783D01*
X131980819Y-41430629D01*
X131889225Y-41432136D01*
X131787283Y-41430127D01*
X131720893Y-41422453D01*
X131677700Y-41406643D01*
X131649149Y-41384121D01*
X131624166Y-41351102D01*
X131609487Y-41305727D01*
X131602641Y-41235640D01*
X131601134Y-41144045D01*
X131603143Y-41042103D01*
X131610817Y-40975713D01*
X131626627Y-40932520D01*
X131649149Y-40903970D01*
X131715898Y-40862684D01*
X131782146Y-40863331D01*
G37*
G36*
X122874182Y-40876277D02*
G01*
X122927673Y-40925329D01*
X122956965Y-40985232D01*
X122958412Y-41000000D01*
X122942118Y-41052263D01*
X122910397Y-41096030D01*
X122858134Y-41131999D01*
X122814367Y-41144045D01*
X122762104Y-41127751D01*
X122718336Y-41096030D01*
X122682367Y-41043767D01*
X122670321Y-41000000D01*
X122690644Y-40940185D01*
X122739696Y-40886693D01*
X122799599Y-40857402D01*
X122814367Y-40855954D01*
X122874182Y-40876277D01*
G37*
G36*
X123698883Y-40280063D02*
G01*
X123821998Y-40281346D01*
X123910778Y-40284246D01*
X123972063Y-40289383D01*
X124012692Y-40297379D01*
X124039504Y-40308856D01*
X124059339Y-40324436D01*
X124062760Y-40327788D01*
X124102884Y-40401864D01*
X124110775Y-40471834D01*
X124113085Y-40533301D01*
X124129256Y-40560614D01*
X124173148Y-40567633D01*
X124206805Y-40567864D01*
X124296477Y-40584214D01*
X124363396Y-40627938D01*
X124396914Y-40691051D01*
X124398866Y-40711909D01*
X124382572Y-40764172D01*
X124350851Y-40807939D01*
X124317832Y-40832923D01*
X124272457Y-40847602D01*
X124202369Y-40854447D01*
X124110775Y-40855954D01*
X123986265Y-40850161D01*
X123901975Y-40829793D01*
X123851184Y-40790369D01*
X123827169Y-40727408D01*
X123822684Y-40663894D01*
X123822684Y-40567864D01*
X123678639Y-40567864D01*
X123534593Y-40567864D01*
X123534593Y-40807939D01*
X123533393Y-40921236D01*
X123528614Y-40997166D01*
X123518485Y-41046342D01*
X123501240Y-41079378D01*
X123486578Y-41096030D01*
X123434315Y-41131999D01*
X123390548Y-41144045D01*
X123338285Y-41127751D01*
X123294518Y-41096030D01*
X123272098Y-41067610D01*
X123257868Y-41029482D01*
X123250059Y-40971031D01*
X123246901Y-40881645D01*
X123246503Y-40807939D01*
X123246503Y-40567864D01*
X123150472Y-40567864D01*
X123060801Y-40551514D01*
X122993882Y-40507789D01*
X122960364Y-40444676D01*
X122958412Y-40423818D01*
X122974706Y-40371555D01*
X123006427Y-40327788D01*
X123025724Y-40311388D01*
X123050744Y-40299205D01*
X123088327Y-40290617D01*
X123145310Y-40285002D01*
X123228535Y-40281739D01*
X123344840Y-40280205D01*
X123501065Y-40279780D01*
X123534593Y-40279773D01*
X123698883Y-40280063D01*
G37*
G36*
X124595174Y-40872248D02*
G01*
X124638941Y-40903970D01*
X124674910Y-40956233D01*
X124686956Y-41000000D01*
X124670662Y-41052263D01*
X124638941Y-41096030D01*
X124586678Y-41131999D01*
X124542911Y-41144045D01*
X124490648Y-41127751D01*
X124446881Y-41096030D01*
X124410912Y-41043767D01*
X124398866Y-41000000D01*
X124415160Y-40947737D01*
X124446881Y-40903970D01*
X124499144Y-40868001D01*
X124542911Y-40855954D01*
X124595174Y-40872248D01*
G37*
G36*
X126899900Y-40872248D02*
G01*
X126943667Y-40903970D01*
X126979636Y-40956233D01*
X126991682Y-41000000D01*
X126975388Y-41052263D01*
X126943667Y-41096030D01*
X126891404Y-41131999D01*
X126847637Y-41144045D01*
X126795374Y-41127751D01*
X126751607Y-41096030D01*
X126715638Y-41043767D01*
X126703592Y-41000000D01*
X126719885Y-40947737D01*
X126751607Y-40903970D01*
X126803870Y-40868001D01*
X126847637Y-40855954D01*
X126899900Y-40872248D01*
G37*
G36*
X132168461Y-38551816D02*
G01*
X132264160Y-38554289D01*
X132328882Y-38559712D01*
X132371143Y-38569148D01*
X132399459Y-38583663D01*
X132417391Y-38599244D01*
X132458676Y-38665993D01*
X132458030Y-38732240D01*
X132420794Y-38789082D01*
X132352311Y-38827614D01*
X132273346Y-38839319D01*
X132177316Y-38839319D01*
X132177316Y-38983365D01*
X132177316Y-39127410D01*
X132273346Y-39127410D01*
X132370570Y-39144386D01*
X132417391Y-39175425D01*
X132457515Y-39249501D01*
X132465406Y-39319471D01*
X132465406Y-39415501D01*
X132609452Y-39415501D01*
X132753497Y-39415501D01*
X132753497Y-39271455D01*
X132753497Y-39127410D01*
X132657467Y-39127410D01*
X132567795Y-39111060D01*
X132500876Y-39067335D01*
X132467358Y-39004223D01*
X132465406Y-38983365D01*
X132481700Y-38931102D01*
X132513421Y-38887334D01*
X132546440Y-38862351D01*
X132591815Y-38847672D01*
X132661903Y-38840826D01*
X132753497Y-38839319D01*
X132867522Y-38842180D01*
X132946754Y-38855655D01*
X132997483Y-38887085D01*
X133026002Y-38943811D01*
X133038603Y-39033172D01*
X133041577Y-39162510D01*
X133041588Y-39175425D01*
X133041588Y-39415501D01*
X133137618Y-39415501D01*
X133234842Y-39432477D01*
X133281663Y-39463516D01*
X133322949Y-39530265D01*
X133322302Y-39596513D01*
X133285066Y-39653354D01*
X133216584Y-39691886D01*
X133137618Y-39703592D01*
X133041588Y-39703592D01*
X133041588Y-39991682D01*
X133041588Y-40279773D01*
X133137618Y-40279773D01*
X133234842Y-40296749D01*
X133281663Y-40327788D01*
X133300892Y-40351131D01*
X133314210Y-40381759D01*
X133322682Y-40428188D01*
X133327371Y-40498932D01*
X133329343Y-40602508D01*
X133329678Y-40711909D01*
X133329091Y-40847100D01*
X133326618Y-40942799D01*
X133321195Y-41007521D01*
X133311759Y-41049782D01*
X133297244Y-41078098D01*
X133281663Y-41096030D01*
X133229400Y-41131999D01*
X133185633Y-41144045D01*
X133133370Y-41127751D01*
X133089603Y-41096030D01*
X133067183Y-41067610D01*
X133052953Y-41029482D01*
X133045144Y-40971031D01*
X133041986Y-40881645D01*
X133041588Y-40807939D01*
X133041588Y-40567864D01*
X132945558Y-40567864D01*
X132848334Y-40550888D01*
X132785061Y-40499960D01*
X132755741Y-40415081D01*
X132753497Y-40375803D01*
X132753497Y-40279773D01*
X132657467Y-40279773D01*
X132560243Y-40262797D01*
X132513421Y-40231758D01*
X132472136Y-40165009D01*
X132472783Y-40098761D01*
X132510019Y-40041920D01*
X132578501Y-40003388D01*
X132657467Y-39991682D01*
X132753497Y-39991682D01*
X132753497Y-39847637D01*
X132753497Y-39703592D01*
X132369376Y-39703592D01*
X132206188Y-39703875D01*
X132084787Y-39700621D01*
X131999017Y-39687674D01*
X131942723Y-39658878D01*
X131909747Y-39608075D01*
X131893935Y-39529111D01*
X131889130Y-39415830D01*
X131889175Y-39262074D01*
X131889225Y-39223440D01*
X131889225Y-38839319D01*
X131793195Y-38839319D01*
X131703523Y-38822970D01*
X131636604Y-38779245D01*
X131603086Y-38716132D01*
X131601134Y-38695274D01*
X131617428Y-38643011D01*
X131649149Y-38599244D01*
X131672492Y-38580015D01*
X131703120Y-38566697D01*
X131749549Y-38558225D01*
X131820293Y-38553536D01*
X131923869Y-38551565D01*
X132033270Y-38551229D01*
X132168461Y-38551816D01*
G37*
G36*
X126899900Y-38855613D02*
G01*
X126943667Y-38887334D01*
X126958252Y-38904205D01*
X126969546Y-38925987D01*
X126977968Y-38958547D01*
X126983937Y-39007750D01*
X126987873Y-39079462D01*
X126990194Y-39179549D01*
X126991318Y-39313876D01*
X126991666Y-39488310D01*
X126991682Y-39559546D01*
X126991506Y-39749323D01*
X126990700Y-39896951D01*
X126988843Y-40008296D01*
X126985517Y-40089224D01*
X126980304Y-40145599D01*
X126972783Y-40183289D01*
X126962537Y-40208159D01*
X126949146Y-40226074D01*
X126943667Y-40231758D01*
X126869591Y-40271882D01*
X126799622Y-40279773D01*
X126703592Y-40279773D01*
X126703592Y-40519849D01*
X126702391Y-40633146D01*
X126697612Y-40709075D01*
X126687484Y-40758252D01*
X126670238Y-40791288D01*
X126655576Y-40807939D01*
X126603314Y-40843908D01*
X126559546Y-40855954D01*
X126507283Y-40839661D01*
X126463516Y-40807939D01*
X126441097Y-40779519D01*
X126426867Y-40741391D01*
X126419057Y-40682941D01*
X126415899Y-40593555D01*
X126415501Y-40519849D01*
X126415501Y-40279773D01*
X126319471Y-40279773D01*
X126222247Y-40262797D01*
X126175425Y-40231758D01*
X126134140Y-40165009D01*
X126134787Y-40098761D01*
X126172022Y-40041920D01*
X126240505Y-40003388D01*
X126319471Y-39991682D01*
X126415501Y-39991682D01*
X126415501Y-39847637D01*
X126415501Y-39703592D01*
X126319471Y-39703592D01*
X126222247Y-39686616D01*
X126175425Y-39655576D01*
X126156196Y-39632233D01*
X126142878Y-39601605D01*
X126134407Y-39555177D01*
X126129718Y-39484433D01*
X126127746Y-39380856D01*
X126127410Y-39271455D01*
X126127998Y-39136264D01*
X126130471Y-39040565D01*
X126135893Y-38975843D01*
X126145330Y-38933582D01*
X126159844Y-38905267D01*
X126175425Y-38887334D01*
X126227688Y-38851365D01*
X126271455Y-38839319D01*
X126323718Y-38855613D01*
X126367486Y-38887334D01*
X126389905Y-38915754D01*
X126404135Y-38953883D01*
X126411945Y-39012333D01*
X126415103Y-39101719D01*
X126415501Y-39175425D01*
X126415501Y-39415501D01*
X126559546Y-39415501D01*
X126703592Y-39415501D01*
X126703592Y-39175425D01*
X126704792Y-39062128D01*
X126709571Y-38986198D01*
X126719699Y-38937022D01*
X126736945Y-38903986D01*
X126751607Y-38887334D01*
X126803870Y-38851365D01*
X126847637Y-38839319D01*
X126899900Y-38855613D01*
G37*
G36*
X128340354Y-40584158D02*
G01*
X128384121Y-40615879D01*
X128420090Y-40668142D01*
X128432136Y-40711909D01*
X128415842Y-40764172D01*
X128384121Y-40807939D01*
X128331858Y-40843908D01*
X128288091Y-40855954D01*
X128235828Y-40839661D01*
X128192060Y-40807939D01*
X128156091Y-40755676D01*
X128144045Y-40711909D01*
X128160339Y-40659646D01*
X128192060Y-40615879D01*
X128244323Y-40579910D01*
X128288091Y-40567864D01*
X128340354Y-40584158D01*
G37*
G36*
X132070237Y-39999059D02*
G01*
X132127078Y-40036295D01*
X132165610Y-40104777D01*
X132177316Y-40183743D01*
X132177316Y-40279773D01*
X132273346Y-40279773D01*
X132356353Y-40288463D01*
X132412546Y-40319016D01*
X132446407Y-40378152D01*
X132462416Y-40472593D01*
X132465406Y-40567864D01*
X132463397Y-40669806D01*
X132455723Y-40736196D01*
X132439913Y-40779389D01*
X132417391Y-40807939D01*
X132365128Y-40843908D01*
X132321361Y-40855954D01*
X132269098Y-40839661D01*
X132225331Y-40807939D01*
X132185207Y-40733864D01*
X132177316Y-40663894D01*
X132177316Y-40567864D01*
X131937240Y-40567864D01*
X131823943Y-40566664D01*
X131748013Y-40561884D01*
X131698837Y-40551756D01*
X131665801Y-40534510D01*
X131649149Y-40519849D01*
X131607864Y-40453100D01*
X131608511Y-40386852D01*
X131645746Y-40330010D01*
X131714229Y-40291478D01*
X131793195Y-40279773D01*
X131889225Y-40279773D01*
X131889225Y-40183743D01*
X131906201Y-40086519D01*
X131937240Y-40039697D01*
X132003989Y-39998412D01*
X132070237Y-39999059D01*
G37*
G36*
X123060354Y-39417510D02*
G01*
X123126744Y-39425184D01*
X123169937Y-39440994D01*
X123198488Y-39463516D01*
X123239773Y-39530265D01*
X123239126Y-39596513D01*
X123201890Y-39653354D01*
X123133408Y-39691886D01*
X123054442Y-39703592D01*
X122958412Y-39703592D01*
X122958412Y-39943667D01*
X122957212Y-40056964D01*
X122952432Y-40132894D01*
X122942304Y-40182070D01*
X122925058Y-40215106D01*
X122910397Y-40231758D01*
X122858134Y-40267727D01*
X122814367Y-40279773D01*
X122762104Y-40263479D01*
X122718336Y-40231758D01*
X122699107Y-40208415D01*
X122685789Y-40177787D01*
X122677318Y-40131358D01*
X122672629Y-40060614D01*
X122670657Y-39957038D01*
X122670321Y-39847637D01*
X122671327Y-39694116D01*
X122677246Y-39582076D01*
X122692433Y-39504987D01*
X122721240Y-39456319D01*
X122768022Y-39429541D01*
X122837132Y-39418123D01*
X122932923Y-39415534D01*
X122958412Y-39415501D01*
X123060354Y-39417510D01*
G37*
G36*
X127764172Y-39143704D02*
G01*
X127807939Y-39175425D01*
X127830359Y-39203845D01*
X127844589Y-39241974D01*
X127852398Y-39300424D01*
X127855556Y-39389810D01*
X127855954Y-39463516D01*
X127855954Y-39703592D01*
X128000000Y-39703592D01*
X128144045Y-39703592D01*
X128144045Y-39607561D01*
X128161021Y-39510337D01*
X128192060Y-39463516D01*
X128266136Y-39423392D01*
X128336106Y-39415501D01*
X128397573Y-39413191D01*
X128424886Y-39397020D01*
X128431905Y-39353127D01*
X128432136Y-39319471D01*
X128449112Y-39222247D01*
X128480151Y-39175425D01*
X128546900Y-39134140D01*
X128613148Y-39134787D01*
X128669989Y-39172022D01*
X128708521Y-39240505D01*
X128720227Y-39319471D01*
X128720227Y-39415501D01*
X128960302Y-39415501D01*
X129093332Y-39417953D01*
X129185768Y-39429503D01*
X129244953Y-39456443D01*
X129278225Y-39505065D01*
X129292926Y-39581660D01*
X129296396Y-39692521D01*
X129296408Y-39703592D01*
X129294399Y-39805534D01*
X129286725Y-39871923D01*
X129270915Y-39915117D01*
X129248393Y-39943667D01*
X129181644Y-39984952D01*
X129115396Y-39984306D01*
X129058555Y-39947070D01*
X129020023Y-39878587D01*
X129008317Y-39799622D01*
X129008317Y-39703592D01*
X128864272Y-39703592D01*
X128720227Y-39703592D01*
X128720227Y-39799622D01*
X128703251Y-39896846D01*
X128672212Y-39943667D01*
X128598136Y-39983791D01*
X128528166Y-39991682D01*
X128432136Y-39991682D01*
X128432136Y-40087713D01*
X128415786Y-40177384D01*
X128372061Y-40244303D01*
X128308949Y-40277821D01*
X128288091Y-40279773D01*
X128235828Y-40263479D01*
X128192060Y-40231758D01*
X128151936Y-40157682D01*
X128144045Y-40087713D01*
X128144045Y-39991682D01*
X127903970Y-39991682D01*
X127784578Y-39990753D01*
X127697450Y-39983611D01*
X127637503Y-39963721D01*
X127599656Y-39924550D01*
X127578827Y-39859566D01*
X127569935Y-39762234D01*
X127567897Y-39626021D01*
X127567864Y-39559546D01*
X127568451Y-39424355D01*
X127570924Y-39328656D01*
X127576347Y-39263934D01*
X127585783Y-39221673D01*
X127600298Y-39193357D01*
X127615879Y-39175425D01*
X127668142Y-39139456D01*
X127711909Y-39127410D01*
X127764172Y-39143704D01*
G37*
G36*
X123450363Y-39723914D02*
G01*
X123503854Y-39772966D01*
X123533146Y-39832870D01*
X123534593Y-39847637D01*
X123518299Y-39899900D01*
X123486578Y-39943667D01*
X123434315Y-39979636D01*
X123390548Y-39991682D01*
X123338285Y-39975388D01*
X123294518Y-39943667D01*
X123258549Y-39891404D01*
X123246503Y-39847637D01*
X123266826Y-39787822D01*
X123315877Y-39734331D01*
X123375781Y-39705039D01*
X123390548Y-39703592D01*
X123450363Y-39723914D01*
G37*
G36*
X124595174Y-39719885D02*
G01*
X124638941Y-39751607D01*
X124674910Y-39803870D01*
X124686956Y-39847637D01*
X124670662Y-39899900D01*
X124638941Y-39943667D01*
X124586678Y-39979636D01*
X124542911Y-39991682D01*
X124490648Y-39975388D01*
X124446881Y-39943667D01*
X124410912Y-39891404D01*
X124398866Y-39847637D01*
X124415160Y-39795374D01*
X124446881Y-39751607D01*
X124499144Y-39715638D01*
X124542911Y-39703592D01*
X124595174Y-39719885D01*
G37*
G36*
X129974532Y-39705600D02*
G01*
X130040921Y-39713274D01*
X130084115Y-39729085D01*
X130112665Y-39751607D01*
X130148634Y-39803870D01*
X130160680Y-39847637D01*
X130144386Y-39899900D01*
X130112665Y-39943667D01*
X130079647Y-39968650D01*
X130034272Y-39983329D01*
X129964184Y-39990175D01*
X129872590Y-39991682D01*
X129770648Y-39989673D01*
X129704258Y-39981999D01*
X129661064Y-39966189D01*
X129632514Y-39943667D01*
X129596545Y-39891404D01*
X129584499Y-39847637D01*
X129600793Y-39795374D01*
X129632514Y-39751607D01*
X129665533Y-39726623D01*
X129710908Y-39711944D01*
X129780995Y-39705099D01*
X129872590Y-39703592D01*
X129974532Y-39705600D01*
G37*
G36*
X131797442Y-39719885D02*
G01*
X131841210Y-39751607D01*
X131877179Y-39803870D01*
X131889225Y-39847637D01*
X131872931Y-39899900D01*
X131841210Y-39943667D01*
X131788947Y-39979636D01*
X131745179Y-39991682D01*
X131692917Y-39975388D01*
X131649149Y-39943667D01*
X131613180Y-39891404D01*
X131601134Y-39847637D01*
X131617428Y-39795374D01*
X131649149Y-39751607D01*
X131701412Y-39715638D01*
X131745179Y-39703592D01*
X131797442Y-39719885D01*
G37*
G36*
X124291787Y-38270514D02*
G01*
X124348628Y-38307750D01*
X124387160Y-38376233D01*
X124398866Y-38455198D01*
X124401176Y-38516666D01*
X124417347Y-38543978D01*
X124461239Y-38550998D01*
X124494896Y-38551229D01*
X124592120Y-38568205D01*
X124638941Y-38599244D01*
X124680226Y-38665993D01*
X124679580Y-38732240D01*
X124642344Y-38789082D01*
X124573861Y-38827614D01*
X124494896Y-38839319D01*
X124398866Y-38839319D01*
X124398866Y-38983365D01*
X124398866Y-39127410D01*
X124542911Y-39127410D01*
X124686956Y-39127410D01*
X124686956Y-39031380D01*
X124703306Y-38941708D01*
X124747031Y-38874789D01*
X124810144Y-38841271D01*
X124831002Y-38839319D01*
X124883265Y-38855613D01*
X124927032Y-38887334D01*
X124946261Y-38910678D01*
X124959579Y-38941306D01*
X124968050Y-38987734D01*
X124972740Y-39058478D01*
X124974711Y-39162054D01*
X124975047Y-39271455D01*
X124974459Y-39406647D01*
X124971987Y-39502346D01*
X124966564Y-39567068D01*
X124957128Y-39609329D01*
X124942613Y-39637644D01*
X124927032Y-39655576D01*
X124860283Y-39696862D01*
X124794035Y-39696215D01*
X124737194Y-39658979D01*
X124698662Y-39590497D01*
X124686956Y-39511531D01*
X124686956Y-39415501D01*
X124542911Y-39415501D01*
X124398866Y-39415501D01*
X124398866Y-39511531D01*
X124382516Y-39601202D01*
X124338791Y-39668122D01*
X124275678Y-39701640D01*
X124254820Y-39703592D01*
X124202557Y-39687298D01*
X124158790Y-39655576D01*
X124118666Y-39581501D01*
X124110775Y-39511531D01*
X124110775Y-39415501D01*
X124014745Y-39415501D01*
X123917521Y-39398525D01*
X123870699Y-39367486D01*
X123829414Y-39300737D01*
X123830061Y-39234489D01*
X123867296Y-39177647D01*
X123935779Y-39139115D01*
X124014745Y-39127410D01*
X124110775Y-39127410D01*
X124110775Y-38983365D01*
X124110775Y-38839319D01*
X124014745Y-38839319D01*
X123917521Y-38822343D01*
X123870699Y-38791304D01*
X123829414Y-38724555D01*
X123830061Y-38658308D01*
X123867296Y-38601466D01*
X123935779Y-38562934D01*
X124014745Y-38551229D01*
X124110775Y-38551229D01*
X124110775Y-38455198D01*
X124127751Y-38357974D01*
X124158790Y-38311153D01*
X124225539Y-38269868D01*
X124291787Y-38270514D01*
G37*
G36*
X130933170Y-39431795D02*
G01*
X130976937Y-39463516D01*
X131012906Y-39515779D01*
X131024953Y-39559546D01*
X131008659Y-39611809D01*
X130976937Y-39655576D01*
X130924675Y-39691545D01*
X130880907Y-39703592D01*
X130828644Y-39687298D01*
X130784877Y-39655576D01*
X130748908Y-39603314D01*
X130736862Y-39559546D01*
X130753156Y-39507283D01*
X130784877Y-39463516D01*
X130837140Y-39427547D01*
X130880907Y-39415501D01*
X130933170Y-39431795D01*
G37*
G36*
X131509352Y-39431795D02*
G01*
X131553119Y-39463516D01*
X131589088Y-39515779D01*
X131601134Y-39559546D01*
X131584840Y-39611809D01*
X131553119Y-39655576D01*
X131500856Y-39691545D01*
X131457089Y-39703592D01*
X131404826Y-39687298D01*
X131361058Y-39655576D01*
X131325089Y-39603314D01*
X131313043Y-39559546D01*
X131329337Y-39507283D01*
X131361058Y-39463516D01*
X131413321Y-39427547D01*
X131457089Y-39415501D01*
X131509352Y-39431795D01*
G37*
G36*
X128628444Y-37415160D02*
G01*
X128672212Y-37446881D01*
X128694631Y-37475301D01*
X128708861Y-37513429D01*
X128716671Y-37571879D01*
X128719829Y-37661265D01*
X128720227Y-37734972D01*
X128720227Y-37975047D01*
X128816257Y-37975047D01*
X128913481Y-37992023D01*
X128960302Y-38023062D01*
X129001587Y-38089811D01*
X129000941Y-38156059D01*
X128963705Y-38212901D01*
X128895223Y-38251433D01*
X128816257Y-38263138D01*
X128720227Y-38263138D01*
X128720227Y-38407183D01*
X128720227Y-38551229D01*
X129104348Y-38551229D01*
X129249715Y-38551678D01*
X129354904Y-38553604D01*
X129427746Y-38557880D01*
X129476073Y-38565373D01*
X129507718Y-38576955D01*
X129530512Y-38593497D01*
X129536484Y-38599244D01*
X129576608Y-38673320D01*
X129584499Y-38743289D01*
X129584499Y-38839319D01*
X129872590Y-38839319D01*
X130160680Y-38839319D01*
X130160680Y-38695274D01*
X130160680Y-38551229D01*
X130064650Y-38551229D01*
X129974979Y-38534879D01*
X129908059Y-38491154D01*
X129874542Y-38428041D01*
X129872590Y-38407183D01*
X129888884Y-38354920D01*
X129920605Y-38311153D01*
X129953623Y-38286170D01*
X129998998Y-38271491D01*
X130069086Y-38264645D01*
X130160680Y-38263138D01*
X130285191Y-38268931D01*
X130369480Y-38289300D01*
X130420272Y-38328724D01*
X130444286Y-38391685D01*
X130448771Y-38455198D01*
X130448771Y-38551229D01*
X130832892Y-38551229D01*
X130978260Y-38551678D01*
X131083448Y-38553604D01*
X131156290Y-38557880D01*
X131204617Y-38565373D01*
X131236262Y-38576955D01*
X131259057Y-38593497D01*
X131265028Y-38599244D01*
X131300997Y-38651507D01*
X131313043Y-38695274D01*
X131296749Y-38747537D01*
X131265028Y-38791304D01*
X131236608Y-38813724D01*
X131198480Y-38827954D01*
X131140030Y-38835763D01*
X131050644Y-38838921D01*
X130976937Y-38839319D01*
X130736862Y-38839319D01*
X130736862Y-38935350D01*
X130730405Y-39012454D01*
X130706475Y-39066249D01*
X130658234Y-39100643D01*
X130578844Y-39119542D01*
X130461467Y-39126854D01*
X130400756Y-39127410D01*
X130160680Y-39127410D01*
X130160680Y-39223440D01*
X130151990Y-39306447D01*
X130121438Y-39362640D01*
X130062302Y-39396501D01*
X129967860Y-39412511D01*
X129872590Y-39415501D01*
X129770648Y-39413492D01*
X129704258Y-39405818D01*
X129661064Y-39390008D01*
X129632514Y-39367486D01*
X129592390Y-39293410D01*
X129584499Y-39223440D01*
X129584499Y-39127410D01*
X129488469Y-39127410D01*
X129391245Y-39110434D01*
X129327973Y-39059506D01*
X129298652Y-38974627D01*
X129296408Y-38935350D01*
X129296408Y-38839319D01*
X129152363Y-38839319D01*
X129008317Y-38839319D01*
X129008317Y-38935350D01*
X128991342Y-39032574D01*
X128960302Y-39079395D01*
X128893553Y-39120680D01*
X128827306Y-39120034D01*
X128770464Y-39082798D01*
X128731932Y-39014315D01*
X128720227Y-38935350D01*
X128720227Y-38839319D01*
X128480151Y-38839319D01*
X128366854Y-38838119D01*
X128290924Y-38833340D01*
X128241748Y-38823211D01*
X128208712Y-38805966D01*
X128192060Y-38791304D01*
X128150775Y-38724555D01*
X128151422Y-38658308D01*
X128188658Y-38601466D01*
X128257140Y-38562934D01*
X128336106Y-38551229D01*
X128432136Y-38551229D01*
X128432136Y-38407183D01*
X128432136Y-38263138D01*
X128288091Y-38263138D01*
X128144045Y-38263138D01*
X128144045Y-38359168D01*
X128127695Y-38448840D01*
X128083971Y-38515759D01*
X128020858Y-38549277D01*
X128000000Y-38551229D01*
X127947737Y-38534935D01*
X127903970Y-38503213D01*
X127878986Y-38470195D01*
X127864307Y-38424820D01*
X127857462Y-38354732D01*
X127855954Y-38263138D01*
X127861748Y-38138628D01*
X127882116Y-38054338D01*
X127921540Y-38003547D01*
X127984501Y-37979532D01*
X128048015Y-37975047D01*
X128144045Y-37975047D01*
X128144045Y-37879017D01*
X128161021Y-37781793D01*
X128211949Y-37718521D01*
X128296828Y-37689201D01*
X128336106Y-37686956D01*
X128397573Y-37684646D01*
X128424886Y-37668475D01*
X128431905Y-37624583D01*
X128432136Y-37590926D01*
X128448486Y-37501255D01*
X128492211Y-37434335D01*
X128555323Y-37400818D01*
X128576181Y-37398866D01*
X128628444Y-37415160D01*
G37*
G36*
X123162272Y-38859642D02*
G01*
X123215764Y-38908694D01*
X123245056Y-38968597D01*
X123246503Y-38983365D01*
X123230209Y-39035628D01*
X123198488Y-39079395D01*
X123146225Y-39115364D01*
X123102457Y-39127410D01*
X123050194Y-39111116D01*
X123006427Y-39079395D01*
X122970458Y-39027132D01*
X122958412Y-38983365D01*
X122978735Y-38923550D01*
X123027786Y-38870058D01*
X123087690Y-38840766D01*
X123102457Y-38839319D01*
X123162272Y-38859642D01*
G37*
G36*
X123730902Y-38855613D02*
G01*
X123774669Y-38887334D01*
X123810638Y-38939597D01*
X123822684Y-38983365D01*
X123806390Y-39035628D01*
X123774669Y-39079395D01*
X123722406Y-39115364D01*
X123678639Y-39127410D01*
X123626376Y-39111116D01*
X123582609Y-39079395D01*
X123546640Y-39027132D01*
X123534593Y-38983365D01*
X123550887Y-38931102D01*
X123582609Y-38887334D01*
X123634871Y-38851365D01*
X123678639Y-38839319D01*
X123730902Y-38855613D01*
G37*
G36*
X127476081Y-38855613D02*
G01*
X127519849Y-38887334D01*
X127555818Y-38939597D01*
X127567864Y-38983365D01*
X127551570Y-39035628D01*
X127519849Y-39079395D01*
X127467586Y-39115364D01*
X127423818Y-39127410D01*
X127371555Y-39111116D01*
X127327788Y-39079395D01*
X127291819Y-39027132D01*
X127279773Y-38983365D01*
X127296067Y-38931102D01*
X127327788Y-38887334D01*
X127380051Y-38851365D01*
X127423818Y-38839319D01*
X127476081Y-38855613D01*
G37*
G36*
X125171355Y-38567523D02*
G01*
X125215123Y-38599244D01*
X125251092Y-38651507D01*
X125263138Y-38695274D01*
X125246844Y-38747537D01*
X125215123Y-38791304D01*
X125162860Y-38827273D01*
X125119092Y-38839319D01*
X125066830Y-38823025D01*
X125023062Y-38791304D01*
X124987093Y-38739041D01*
X124975047Y-38695274D01*
X124991341Y-38643011D01*
X125023062Y-38599244D01*
X125075325Y-38563275D01*
X125119092Y-38551229D01*
X125171355Y-38567523D01*
G37*
G36*
X127764172Y-38567523D02*
G01*
X127807939Y-38599244D01*
X127843908Y-38651507D01*
X127855954Y-38695274D01*
X127839661Y-38747537D01*
X127807939Y-38791304D01*
X127755676Y-38827273D01*
X127711909Y-38839319D01*
X127659646Y-38823025D01*
X127615879Y-38791304D01*
X127579910Y-38739041D01*
X127567864Y-38695274D01*
X127584158Y-38643011D01*
X127615879Y-38599244D01*
X127668142Y-38563275D01*
X127711909Y-38551229D01*
X127764172Y-38567523D01*
G37*
G36*
X133237896Y-38567523D02*
G01*
X133281663Y-38599244D01*
X133317632Y-38651507D01*
X133329678Y-38695274D01*
X133313385Y-38747537D01*
X133281663Y-38791304D01*
X133229400Y-38827273D01*
X133185633Y-38839319D01*
X133133370Y-38823025D01*
X133089603Y-38791304D01*
X133053634Y-38739041D01*
X133041588Y-38695274D01*
X133057882Y-38643011D01*
X133089603Y-38599244D01*
X133141866Y-38563275D01*
X133185633Y-38551229D01*
X133237896Y-38567523D01*
G37*
G36*
X123060354Y-37977056D02*
G01*
X123126744Y-37984730D01*
X123169937Y-38000540D01*
X123198488Y-38023062D01*
X123239773Y-38089811D01*
X123239126Y-38156059D01*
X123201890Y-38212901D01*
X123133408Y-38251433D01*
X123054442Y-38263138D01*
X122958412Y-38263138D01*
X122958412Y-38359168D01*
X122942062Y-38448840D01*
X122898337Y-38515759D01*
X122835225Y-38549277D01*
X122814367Y-38551229D01*
X122762104Y-38534935D01*
X122718336Y-38503213D01*
X122693353Y-38470195D01*
X122678674Y-38424820D01*
X122671828Y-38354732D01*
X122670321Y-38263138D01*
X122672330Y-38161196D01*
X122680004Y-38094806D01*
X122695815Y-38051613D01*
X122718336Y-38023062D01*
X122751355Y-37998079D01*
X122796730Y-37983400D01*
X122866817Y-37976554D01*
X122958412Y-37975047D01*
X123060354Y-37977056D01*
G37*
G36*
X123730902Y-38279432D02*
G01*
X123774669Y-38311153D01*
X123810638Y-38363416D01*
X123822684Y-38407183D01*
X123806390Y-38459446D01*
X123774669Y-38503213D01*
X123722406Y-38539182D01*
X123678639Y-38551229D01*
X123626376Y-38534935D01*
X123582609Y-38503213D01*
X123546640Y-38450951D01*
X123534593Y-38407183D01*
X123550887Y-38354920D01*
X123582609Y-38311153D01*
X123634871Y-38275184D01*
X123678639Y-38263138D01*
X123730902Y-38279432D01*
G37*
G36*
X124883265Y-38279432D02*
G01*
X124927032Y-38311153D01*
X124963001Y-38363416D01*
X124975047Y-38407183D01*
X124958753Y-38459446D01*
X124927032Y-38503213D01*
X124874769Y-38539182D01*
X124831002Y-38551229D01*
X124778739Y-38534935D01*
X124734972Y-38503213D01*
X124699003Y-38450951D01*
X124686956Y-38407183D01*
X124703250Y-38354920D01*
X124734972Y-38311153D01*
X124787234Y-38275184D01*
X124831002Y-38263138D01*
X124883265Y-38279432D01*
G37*
G36*
X131205642Y-37975262D02*
G01*
X131343974Y-37977791D01*
X131445602Y-37985461D01*
X131516180Y-38001100D01*
X131561362Y-38027535D01*
X131586804Y-38067592D01*
X131598158Y-38124099D01*
X131601079Y-38199883D01*
X131601134Y-38263138D01*
X131599125Y-38365080D01*
X131591451Y-38431470D01*
X131575641Y-38474663D01*
X131553119Y-38503213D01*
X131500856Y-38539182D01*
X131457089Y-38551229D01*
X131404826Y-38534935D01*
X131361058Y-38503213D01*
X131320934Y-38429138D01*
X131313043Y-38359168D01*
X131313043Y-38263138D01*
X130928922Y-38263138D01*
X130783555Y-38262689D01*
X130678366Y-38260762D01*
X130605524Y-38256487D01*
X130557197Y-38248993D01*
X130525552Y-38237411D01*
X130502758Y-38220870D01*
X130496786Y-38215123D01*
X130460817Y-38162860D01*
X130448771Y-38119092D01*
X130465065Y-38066830D01*
X130496786Y-38023062D01*
X130516083Y-38006662D01*
X130541104Y-37994479D01*
X130578686Y-37985891D01*
X130635670Y-37980276D01*
X130718894Y-37977013D01*
X130835200Y-37975479D01*
X130991425Y-37975054D01*
X131024953Y-37975047D01*
X131205642Y-37975262D01*
G37*
G36*
X124595174Y-37991341D02*
G01*
X124638941Y-38023062D01*
X124674910Y-38075325D01*
X124686956Y-38119092D01*
X124670662Y-38171355D01*
X124638941Y-38215123D01*
X124586678Y-38251092D01*
X124542911Y-38263138D01*
X124490648Y-38246844D01*
X124446881Y-38215123D01*
X124410912Y-38162860D01*
X124398866Y-38119092D01*
X124415160Y-38066830D01*
X124446881Y-38023062D01*
X124499144Y-37987093D01*
X124542911Y-37975047D01*
X124595174Y-37991341D01*
G37*
G36*
X125171355Y-37415160D02*
G01*
X125215123Y-37446881D01*
X125237542Y-37475301D01*
X125251772Y-37513429D01*
X125259582Y-37571879D01*
X125262740Y-37661265D01*
X125263138Y-37734972D01*
X125263138Y-37975047D01*
X125359168Y-37975047D01*
X125448840Y-37991397D01*
X125515759Y-38035122D01*
X125549277Y-38098234D01*
X125551229Y-38119092D01*
X125534935Y-38171355D01*
X125503213Y-38215123D01*
X125470195Y-38240106D01*
X125424820Y-38254785D01*
X125354732Y-38261631D01*
X125263138Y-38263138D01*
X125161196Y-38261129D01*
X125094806Y-38253455D01*
X125051613Y-38237645D01*
X125023062Y-38215123D01*
X125003833Y-38191780D01*
X124990515Y-38161152D01*
X124982044Y-38114723D01*
X124977355Y-38043979D01*
X124975383Y-37940403D01*
X124975047Y-37831002D01*
X124975635Y-37695810D01*
X124978108Y-37600112D01*
X124983530Y-37535390D01*
X124992967Y-37493129D01*
X125007482Y-37464813D01*
X125023062Y-37446881D01*
X125075325Y-37410912D01*
X125119092Y-37398866D01*
X125171355Y-37415160D01*
G37*
G36*
X129477420Y-37694333D02*
G01*
X129534262Y-37731569D01*
X129572794Y-37800051D01*
X129584499Y-37879017D01*
X129584499Y-37975047D01*
X129680529Y-37975047D01*
X129770201Y-37991397D01*
X129837120Y-38035122D01*
X129870638Y-38098234D01*
X129872590Y-38119092D01*
X129856296Y-38171355D01*
X129824575Y-38215123D01*
X129791556Y-38240106D01*
X129746181Y-38254785D01*
X129676093Y-38261631D01*
X129584499Y-38263138D01*
X129482557Y-38261129D01*
X129416167Y-38253455D01*
X129372974Y-38237645D01*
X129344423Y-38215123D01*
X129319440Y-38182104D01*
X129304761Y-38136729D01*
X129297915Y-38066642D01*
X129296408Y-37975047D01*
X129298417Y-37873105D01*
X129306091Y-37806715D01*
X129321901Y-37763522D01*
X129344423Y-37734972D01*
X129411172Y-37693686D01*
X129477420Y-37694333D01*
G37*
G36*
X132949805Y-37991341D02*
G01*
X132993573Y-38023062D01*
X133029542Y-38075325D01*
X133041588Y-38119092D01*
X133025294Y-38171355D01*
X132993573Y-38215123D01*
X132941310Y-38251092D01*
X132897542Y-38263138D01*
X132845279Y-38246844D01*
X132801512Y-38215123D01*
X132765543Y-38162860D01*
X132753497Y-38119092D01*
X132769791Y-38066830D01*
X132801512Y-38023062D01*
X132853775Y-37987093D01*
X132897542Y-37975047D01*
X132949805Y-37991341D01*
G37*
G36*
X130356989Y-37415160D02*
G01*
X130400756Y-37446881D01*
X130425739Y-37479899D01*
X130440418Y-37525274D01*
X130447264Y-37595362D01*
X130448771Y-37686956D01*
X130446762Y-37788899D01*
X130439088Y-37855288D01*
X130423278Y-37898482D01*
X130400756Y-37927032D01*
X130367737Y-37952015D01*
X130322362Y-37966694D01*
X130252275Y-37973540D01*
X130160680Y-37975047D01*
X130058738Y-37973038D01*
X129992349Y-37965364D01*
X129949155Y-37949554D01*
X129920605Y-37927032D01*
X129879320Y-37860283D01*
X129879966Y-37794035D01*
X129917202Y-37737194D01*
X129985685Y-37698662D01*
X130064650Y-37686956D01*
X130160680Y-37686956D01*
X130160680Y-37590926D01*
X130177030Y-37501255D01*
X130220755Y-37434335D01*
X130283868Y-37400818D01*
X130304726Y-37398866D01*
X130356989Y-37415160D01*
G37*
G36*
X123883787Y-35695516D02*
G01*
X124071382Y-35754592D01*
X124244471Y-35849581D01*
X124397350Y-35978480D01*
X124524312Y-36139288D01*
X124619653Y-36330001D01*
X124643163Y-36399023D01*
X124681534Y-36603923D01*
X124675465Y-36808296D01*
X124628159Y-37005657D01*
X124542818Y-37189520D01*
X124422647Y-37353400D01*
X124270848Y-37490812D01*
X124090624Y-37595270D01*
X124042533Y-37615083D01*
X123914327Y-37650251D01*
X123762567Y-37671399D01*
X123608990Y-37676756D01*
X123475329Y-37664550D01*
X123463658Y-37662246D01*
X123290935Y-37605279D01*
X123121835Y-37511545D01*
X122987474Y-37403968D01*
X122848668Y-37240784D01*
X122750579Y-37059597D01*
X122692735Y-36866731D01*
X122681834Y-36747148D01*
X122966311Y-36747148D01*
X123003969Y-36917885D01*
X123077963Y-37070129D01*
X123190560Y-37205391D01*
X123330248Y-37305448D01*
X123489421Y-37368289D01*
X123660475Y-37391903D01*
X123835804Y-37374278D01*
X124004235Y-37315160D01*
X124149323Y-37219451D01*
X124261694Y-37094806D01*
X124339997Y-36948642D01*
X124382883Y-36788375D01*
X124389002Y-36621422D01*
X124357004Y-36455201D01*
X124285538Y-36297127D01*
X124208628Y-36192228D01*
X124084247Y-36085304D01*
X123933828Y-36011620D01*
X123767707Y-35973064D01*
X123596213Y-35971528D01*
X123429680Y-36008901D01*
X123362181Y-36037399D01*
X123211753Y-36136053D01*
X123094962Y-36263586D01*
X123013798Y-36412767D01*
X122970251Y-36576365D01*
X122966311Y-36747148D01*
X122681834Y-36747148D01*
X122674666Y-36668508D01*
X122695903Y-36471249D01*
X122755973Y-36281276D01*
X122854408Y-36104912D01*
X122990737Y-35948479D01*
X123102457Y-35858375D01*
X123291022Y-35753781D01*
X123487902Y-35693108D01*
X123687392Y-35674354D01*
X123883787Y-35695516D01*
G37*
G36*
X126003609Y-35670611D02*
G01*
X126126724Y-35671895D01*
X126215504Y-35674794D01*
X126276789Y-35679931D01*
X126317418Y-35687927D01*
X126344230Y-35699404D01*
X126364065Y-35714984D01*
X126367486Y-35718336D01*
X126407610Y-35792412D01*
X126415501Y-35862382D01*
X126415501Y-35958412D01*
X126511531Y-35958412D01*
X126608755Y-35975388D01*
X126655576Y-36006427D01*
X126696862Y-36073176D01*
X126696215Y-36139424D01*
X126658979Y-36196265D01*
X126590497Y-36234797D01*
X126511531Y-36246503D01*
X126415501Y-36246503D01*
X126415501Y-36390548D01*
X126415501Y-36534593D01*
X126511531Y-36534593D01*
X126608755Y-36551569D01*
X126655576Y-36582609D01*
X126696862Y-36649358D01*
X126696215Y-36715605D01*
X126658979Y-36772447D01*
X126590497Y-36810979D01*
X126511531Y-36822684D01*
X126415501Y-36822684D01*
X126415501Y-37206805D01*
X126415052Y-37352173D01*
X126413125Y-37457361D01*
X126408850Y-37530203D01*
X126401356Y-37578530D01*
X126389774Y-37610175D01*
X126373233Y-37632970D01*
X126367486Y-37638941D01*
X126315223Y-37674910D01*
X126271455Y-37686956D01*
X126219193Y-37670662D01*
X126175425Y-37638941D01*
X126162502Y-37624201D01*
X126152130Y-37605204D01*
X126144030Y-37576911D01*
X126137921Y-37534283D01*
X126133524Y-37472281D01*
X126130559Y-37385864D01*
X126128745Y-37269994D01*
X126127803Y-37119631D01*
X126127453Y-36929736D01*
X126127410Y-36774669D01*
X126127410Y-35958412D01*
X125743289Y-35958412D01*
X125597921Y-35957963D01*
X125492733Y-35956036D01*
X125419891Y-35951761D01*
X125371564Y-35944267D01*
X125339919Y-35932685D01*
X125317124Y-35916144D01*
X125311153Y-35910397D01*
X125275184Y-35858134D01*
X125263138Y-35814367D01*
X125279432Y-35762104D01*
X125311153Y-35718336D01*
X125330450Y-35701936D01*
X125355470Y-35689753D01*
X125393053Y-35681165D01*
X125450036Y-35675550D01*
X125533261Y-35672287D01*
X125649566Y-35670754D01*
X125805791Y-35670328D01*
X125839319Y-35670321D01*
X126003609Y-35670611D01*
G37*
G36*
X126899900Y-37415160D02*
G01*
X126943667Y-37446881D01*
X126979636Y-37499144D01*
X126991682Y-37542911D01*
X126975388Y-37595174D01*
X126943667Y-37638941D01*
X126891404Y-37674910D01*
X126847637Y-37686956D01*
X126795374Y-37670662D01*
X126751607Y-37638941D01*
X126715638Y-37586678D01*
X126703592Y-37542911D01*
X126719885Y-37490648D01*
X126751607Y-37446881D01*
X126803870Y-37410912D01*
X126847637Y-37398866D01*
X126899900Y-37415160D01*
G37*
G36*
X127460785Y-36541970D02*
G01*
X127517627Y-36579206D01*
X127556158Y-36647688D01*
X127567864Y-36726654D01*
X127567864Y-36822684D01*
X127951985Y-36822684D01*
X128097352Y-36823133D01*
X128202541Y-36825060D01*
X128275383Y-36829335D01*
X128323710Y-36836829D01*
X128355355Y-36848411D01*
X128378149Y-36864952D01*
X128384121Y-36870699D01*
X128420090Y-36922962D01*
X128432136Y-36966730D01*
X128415842Y-37018992D01*
X128384121Y-37062760D01*
X128362415Y-37080875D01*
X128334092Y-37093782D01*
X128291320Y-37102353D01*
X128226267Y-37107457D01*
X128131100Y-37109965D01*
X127997988Y-37110747D01*
X127951985Y-37110775D01*
X127567864Y-37110775D01*
X127567864Y-37350851D01*
X127566664Y-37464148D01*
X127561884Y-37540077D01*
X127551756Y-37589253D01*
X127534510Y-37622289D01*
X127519849Y-37638941D01*
X127467586Y-37674910D01*
X127423818Y-37686956D01*
X127371555Y-37670662D01*
X127327788Y-37638941D01*
X127311388Y-37619644D01*
X127299205Y-37594624D01*
X127290617Y-37557042D01*
X127285002Y-37500058D01*
X127281739Y-37416833D01*
X127280205Y-37300528D01*
X127279780Y-37144303D01*
X127279773Y-37110775D01*
X127280063Y-36946485D01*
X127281346Y-36823370D01*
X127284246Y-36734590D01*
X127289383Y-36673305D01*
X127297379Y-36632676D01*
X127308856Y-36605864D01*
X127324436Y-36586030D01*
X127327788Y-36582609D01*
X127394537Y-36541323D01*
X127460785Y-36541970D01*
G37*
G36*
X128052263Y-37415160D02*
G01*
X128096030Y-37446881D01*
X128131999Y-37499144D01*
X128144045Y-37542911D01*
X128127751Y-37595174D01*
X128096030Y-37638941D01*
X128043767Y-37674910D01*
X128000000Y-37686956D01*
X127947737Y-37670662D01*
X127903970Y-37638941D01*
X127868001Y-37586678D01*
X127855954Y-37542911D01*
X127872248Y-37490648D01*
X127903970Y-37446881D01*
X127956233Y-37410912D01*
X128000000Y-37398866D01*
X128052263Y-37415160D01*
G37*
G36*
X129189329Y-36830061D02*
G01*
X129246171Y-36867296D01*
X129284703Y-36935779D01*
X129296408Y-37014745D01*
X129296408Y-37110775D01*
X129392438Y-37110775D01*
X129489662Y-37127751D01*
X129536484Y-37158790D01*
X129577769Y-37225539D01*
X129577122Y-37291787D01*
X129539887Y-37348628D01*
X129471404Y-37387160D01*
X129392438Y-37398866D01*
X129296408Y-37398866D01*
X129296408Y-37494896D01*
X129280058Y-37584567D01*
X129236334Y-37651487D01*
X129173221Y-37685004D01*
X129152363Y-37686956D01*
X129100100Y-37670662D01*
X129056333Y-37638941D01*
X129037103Y-37615598D01*
X129023785Y-37584970D01*
X129015314Y-37538542D01*
X129010625Y-37467797D01*
X129008653Y-37364221D01*
X129008317Y-37254820D01*
X129008905Y-37119629D01*
X129011378Y-37023930D01*
X129016800Y-36959208D01*
X129026237Y-36916947D01*
X129040752Y-36888631D01*
X129056333Y-36870699D01*
X129123082Y-36829414D01*
X129189329Y-36830061D01*
G37*
G36*
X129780807Y-37415160D02*
G01*
X129824575Y-37446881D01*
X129860543Y-37499144D01*
X129872590Y-37542911D01*
X129856296Y-37595174D01*
X129824575Y-37638941D01*
X129772312Y-37674910D01*
X129728544Y-37686956D01*
X129676281Y-37670662D01*
X129632514Y-37638941D01*
X129596545Y-37586678D01*
X129584499Y-37542911D01*
X129600793Y-37490648D01*
X129632514Y-37446881D01*
X129684777Y-37410912D01*
X129728544Y-37398866D01*
X129780807Y-37415160D01*
G37*
G36*
X130933170Y-37415160D02*
G01*
X130976937Y-37446881D01*
X131012906Y-37499144D01*
X131024953Y-37542911D01*
X131008659Y-37595174D01*
X130976937Y-37638941D01*
X130924675Y-37674910D01*
X130880907Y-37686956D01*
X130828644Y-37670662D01*
X130784877Y-37638941D01*
X130748908Y-37586678D01*
X130736862Y-37542911D01*
X130753156Y-37490648D01*
X130784877Y-37446881D01*
X130837140Y-37410912D01*
X130880907Y-37398866D01*
X130933170Y-37415160D01*
G37*
G36*
X132495259Y-35689673D02*
G01*
X132681693Y-35741872D01*
X132854803Y-35828791D01*
X133009108Y-35948193D01*
X133139128Y-36097840D01*
X133239383Y-36275496D01*
X133304394Y-36478924D01*
X133312343Y-36520503D01*
X133324937Y-36730181D01*
X133292767Y-36934143D01*
X133219086Y-37126297D01*
X133107145Y-37300549D01*
X132960194Y-37450808D01*
X132781485Y-37570979D01*
X132740833Y-37591532D01*
X132636546Y-37636941D01*
X132545508Y-37663071D01*
X132443208Y-37675896D01*
X132381380Y-37679140D01*
X132221101Y-37676247D01*
X132081900Y-37656098D01*
X132057278Y-37649855D01*
X131858528Y-37572266D01*
X131689166Y-37461782D01*
X131550251Y-37324080D01*
X131442841Y-37164835D01*
X131367994Y-36989723D01*
X131326770Y-36804420D01*
X131324796Y-36747148D01*
X131609034Y-36747148D01*
X131646691Y-36917885D01*
X131720685Y-37070129D01*
X131833093Y-37205038D01*
X131972761Y-37305046D01*
X132131901Y-37368075D01*
X132302725Y-37392045D01*
X132477447Y-37374878D01*
X132643950Y-37316631D01*
X132797387Y-37217354D01*
X132912902Y-37089105D01*
X132989353Y-36933779D01*
X133025598Y-36753272D01*
X133028591Y-36678639D01*
X133013547Y-36506467D01*
X132965164Y-36359575D01*
X132878561Y-36224572D01*
X132851351Y-36192228D01*
X132726969Y-36085304D01*
X132576551Y-36011620D01*
X132410429Y-35973064D01*
X132238935Y-35971528D01*
X132072402Y-36008901D01*
X132004903Y-36037399D01*
X131854475Y-36136053D01*
X131737684Y-36263586D01*
X131656521Y-36412767D01*
X131612974Y-36576365D01*
X131609034Y-36747148D01*
X131324796Y-36747148D01*
X131320226Y-36614602D01*
X131349421Y-36425943D01*
X131415413Y-36244121D01*
X131519262Y-36074811D01*
X131662025Y-35923689D01*
X131725871Y-35872821D01*
X131910806Y-35763768D01*
X132104335Y-35698384D01*
X132300980Y-35674431D01*
X132495259Y-35689673D01*
G37*
G36*
X130068898Y-37127069D02*
G01*
X130112665Y-37158790D01*
X130148634Y-37211053D01*
X130160680Y-37254820D01*
X130144386Y-37307083D01*
X130112665Y-37350851D01*
X130060402Y-37386819D01*
X130016635Y-37398866D01*
X129964372Y-37382572D01*
X129920605Y-37350851D01*
X129884636Y-37298588D01*
X129872590Y-37254820D01*
X129888884Y-37202557D01*
X129920605Y-37158790D01*
X129972868Y-37122821D01*
X130016635Y-37110775D01*
X130068898Y-37127069D01*
G37*
G36*
X130645079Y-37127069D02*
G01*
X130688847Y-37158790D01*
X130724816Y-37211053D01*
X130736862Y-37254820D01*
X130720568Y-37307083D01*
X130688847Y-37350851D01*
X130636584Y-37386819D01*
X130592816Y-37398866D01*
X130540554Y-37382572D01*
X130496786Y-37350851D01*
X130460817Y-37298588D01*
X130448771Y-37254820D01*
X130465065Y-37202557D01*
X130496786Y-37158790D01*
X130549049Y-37122821D01*
X130592816Y-37110775D01*
X130645079Y-37127069D01*
G37*
G36*
X130356989Y-36838978D02*
G01*
X130400756Y-36870699D01*
X130436725Y-36922962D01*
X130448771Y-36966730D01*
X130432477Y-37018992D01*
X130400756Y-37062760D01*
X130348493Y-37098729D01*
X130304726Y-37110775D01*
X130252463Y-37094481D01*
X130208696Y-37062760D01*
X130172727Y-37010497D01*
X130160680Y-36966730D01*
X130176974Y-36914467D01*
X130208696Y-36870699D01*
X130260958Y-36834730D01*
X130304726Y-36822684D01*
X130356989Y-36838978D01*
G37*
G36*
X130933170Y-36838978D02*
G01*
X130976937Y-36870699D01*
X131012906Y-36922962D01*
X131024953Y-36966730D01*
X131008659Y-37018992D01*
X130976937Y-37062760D01*
X130924675Y-37098729D01*
X130880907Y-37110775D01*
X130828644Y-37094481D01*
X130784877Y-37062760D01*
X130748908Y-37010497D01*
X130736862Y-36966730D01*
X130753156Y-36914467D01*
X130784877Y-36870699D01*
X130837140Y-36834730D01*
X130880907Y-36822684D01*
X130933170Y-36838978D01*
G37*
G36*
X130494503Y-35670497D02*
G01*
X130642131Y-35671304D01*
X130753476Y-35673161D01*
X130834403Y-35676486D01*
X130890779Y-35681700D01*
X130928469Y-35689220D01*
X130953338Y-35699467D01*
X130971254Y-35712858D01*
X130976937Y-35718336D01*
X131012906Y-35770599D01*
X131024953Y-35814367D01*
X131008659Y-35866629D01*
X130976937Y-35910397D01*
X130955231Y-35928512D01*
X130926908Y-35941419D01*
X130884137Y-35949990D01*
X130819084Y-35955094D01*
X130723917Y-35957602D01*
X130590805Y-35958384D01*
X130544801Y-35958412D01*
X130160680Y-35958412D01*
X130160680Y-36054442D01*
X130143704Y-36151666D01*
X130092777Y-36214938D01*
X130007897Y-36244259D01*
X129968620Y-36246503D01*
X129872590Y-36246503D01*
X129872590Y-36390548D01*
X129872590Y-36534593D01*
X129968620Y-36534593D01*
X130058291Y-36550943D01*
X130125211Y-36594668D01*
X130158728Y-36657781D01*
X130160680Y-36678639D01*
X130144386Y-36730902D01*
X130112665Y-36774669D01*
X130089322Y-36793898D01*
X130058694Y-36807216D01*
X130012266Y-36815687D01*
X129941521Y-36820377D01*
X129837945Y-36822348D01*
X129728544Y-36822684D01*
X129593353Y-36822096D01*
X129497654Y-36819624D01*
X129432932Y-36814201D01*
X129390671Y-36804765D01*
X129362356Y-36790250D01*
X129344423Y-36774669D01*
X129303138Y-36707920D01*
X129303785Y-36641672D01*
X129341021Y-36584831D01*
X129409503Y-36546299D01*
X129488469Y-36534593D01*
X129584499Y-36534593D01*
X129584499Y-36390548D01*
X129584499Y-36246503D01*
X129200378Y-36246503D01*
X129055010Y-36246054D01*
X128949822Y-36244127D01*
X128876980Y-36239852D01*
X128828653Y-36232358D01*
X128797008Y-36220776D01*
X128774213Y-36204235D01*
X128768242Y-36198488D01*
X128728118Y-36124412D01*
X128720227Y-36054442D01*
X128720227Y-35958412D01*
X128624196Y-35958412D01*
X128534525Y-35942062D01*
X128467606Y-35898337D01*
X128434088Y-35835225D01*
X128432136Y-35814367D01*
X128448430Y-35762104D01*
X128480151Y-35718336D01*
X128503494Y-35699107D01*
X128534122Y-35685789D01*
X128580551Y-35677318D01*
X128651295Y-35672629D01*
X128754871Y-35670657D01*
X128864272Y-35670321D01*
X128999463Y-35670909D01*
X129095162Y-35673382D01*
X129159884Y-35678804D01*
X129202145Y-35688241D01*
X129230461Y-35702756D01*
X129248393Y-35718336D01*
X129288517Y-35792412D01*
X129296408Y-35862382D01*
X129296408Y-35958412D01*
X129440454Y-35958412D01*
X129584499Y-35958412D01*
X129584499Y-35862382D01*
X129601475Y-35765158D01*
X129632514Y-35718336D01*
X129649384Y-35703752D01*
X129671167Y-35692458D01*
X129703726Y-35684036D01*
X129752929Y-35678066D01*
X129824642Y-35674131D01*
X129924728Y-35671810D01*
X130059056Y-35670685D01*
X130233490Y-35670337D01*
X130304726Y-35670321D01*
X130494503Y-35670497D01*
G37*
G36*
X130645079Y-36550887D02*
G01*
X130688847Y-36582609D01*
X130724816Y-36634871D01*
X130736862Y-36678639D01*
X130720568Y-36730902D01*
X130688847Y-36774669D01*
X130636584Y-36810638D01*
X130592816Y-36822684D01*
X130540554Y-36806390D01*
X130496786Y-36774669D01*
X130460817Y-36722406D01*
X130448771Y-36678639D01*
X130465065Y-36626376D01*
X130496786Y-36582609D01*
X130549049Y-36546640D01*
X130592816Y-36534593D01*
X130645079Y-36550887D01*
G37*
G36*
X128052263Y-36262797D02*
G01*
X128096030Y-36294518D01*
X128131999Y-36346781D01*
X128144045Y-36390548D01*
X128127751Y-36442811D01*
X128096030Y-36486578D01*
X128043767Y-36522547D01*
X128000000Y-36534593D01*
X127947737Y-36518299D01*
X127903970Y-36486578D01*
X127868001Y-36434315D01*
X127855954Y-36390548D01*
X127876277Y-36330733D01*
X127925329Y-36277242D01*
X127985232Y-36247950D01*
X128000000Y-36246503D01*
X128052263Y-36262797D01*
G37*
G36*
X130356989Y-36262797D02*
G01*
X130400756Y-36294518D01*
X130436725Y-36346781D01*
X130448771Y-36390548D01*
X130432477Y-36442811D01*
X130400756Y-36486578D01*
X130348493Y-36522547D01*
X130304726Y-36534593D01*
X130252463Y-36518299D01*
X130208696Y-36486578D01*
X130172727Y-36434315D01*
X130160680Y-36390548D01*
X130181003Y-36330733D01*
X130230055Y-36277242D01*
X130289958Y-36247950D01*
X130304726Y-36246503D01*
X130356989Y-36262797D01*
G37*
G36*
X125171355Y-35974706D02*
G01*
X125215123Y-36006427D01*
X125251092Y-36058690D01*
X125263138Y-36102457D01*
X125246844Y-36154720D01*
X125215123Y-36198488D01*
X125162860Y-36234457D01*
X125119092Y-36246503D01*
X125066830Y-36230209D01*
X125023062Y-36198488D01*
X124987093Y-36146225D01*
X124975047Y-36102457D01*
X124995370Y-36042642D01*
X125044421Y-35989151D01*
X125104325Y-35959859D01*
X125119092Y-35958412D01*
X125171355Y-35974706D01*
G37*
G36*
X127751270Y-35680395D02*
G01*
X127807939Y-35718336D01*
X127832923Y-35751355D01*
X127847602Y-35796730D01*
X127854447Y-35866817D01*
X127855954Y-35958412D01*
X127854446Y-36060760D01*
X127845567Y-36135453D01*
X127822787Y-36186845D01*
X127779576Y-36219291D01*
X127709403Y-36237143D01*
X127605739Y-36244755D01*
X127462051Y-36246481D01*
X127423818Y-36246503D01*
X127288627Y-36245915D01*
X127192928Y-36243442D01*
X127128206Y-36238020D01*
X127085945Y-36228583D01*
X127057630Y-36214068D01*
X127039697Y-36198488D01*
X127003728Y-36146225D01*
X126991682Y-36102457D01*
X127007976Y-36050194D01*
X127039697Y-36006427D01*
X127068117Y-35984008D01*
X127106246Y-35969778D01*
X127164696Y-35961968D01*
X127254082Y-35958810D01*
X127327788Y-35958412D01*
X127567864Y-35958412D01*
X127567864Y-35862382D01*
X127583779Y-35771498D01*
X127625588Y-35707311D01*
X127684386Y-35675163D01*
X127751270Y-35680395D01*
G37*
G36*
X128340354Y-35974706D02*
G01*
X128384121Y-36006427D01*
X128420090Y-36058690D01*
X128432136Y-36102457D01*
X128415842Y-36154720D01*
X128384121Y-36198488D01*
X128331858Y-36234457D01*
X128288091Y-36246503D01*
X128235828Y-36230209D01*
X128192060Y-36198488D01*
X128156091Y-36146225D01*
X128144045Y-36102457D01*
X128164368Y-36042642D01*
X128213420Y-35989151D01*
X128273323Y-35959859D01*
X128288091Y-35958412D01*
X128340354Y-35974706D01*
G37*
G36*
X123753085Y-44900446D02*
G01*
X123839442Y-44928695D01*
X123871420Y-44943242D01*
X123983798Y-45023543D01*
X124060217Y-45126885D01*
X124100677Y-45244491D01*
X124105179Y-45367585D01*
X124073721Y-45487389D01*
X124006304Y-45595126D01*
X123902929Y-45682019D01*
X123871420Y-45699480D01*
X123788533Y-45732343D01*
X123705724Y-45751495D01*
X123678639Y-45753497D01*
X123604192Y-45742276D01*
X123517835Y-45714027D01*
X123485857Y-45699480D01*
X123373479Y-45619179D01*
X123297060Y-45515837D01*
X123256600Y-45398231D01*
X123252099Y-45275137D01*
X123283557Y-45155333D01*
X123350973Y-45047596D01*
X123454348Y-44960703D01*
X123485857Y-44943242D01*
X123568745Y-44910378D01*
X123651553Y-44891227D01*
X123678639Y-44889225D01*
X123753085Y-44900446D01*
G37*
G36*
X131509352Y-44329337D02*
G01*
X131553119Y-44361058D01*
X131589088Y-44413321D01*
X131601134Y-44457089D01*
X131584840Y-44509352D01*
X131553119Y-44553119D01*
X131500856Y-44589088D01*
X131457089Y-44601134D01*
X131404826Y-44584840D01*
X131361058Y-44553119D01*
X131325089Y-44500856D01*
X131313043Y-44457089D01*
X131329337Y-44404826D01*
X131361058Y-44361058D01*
X131413321Y-44325089D01*
X131457089Y-44313043D01*
X131509352Y-44329337D01*
G37*
G36*
X123742108Y-36255021D02*
G01*
X123871420Y-36300520D01*
X123983798Y-36380821D01*
X124060217Y-36484163D01*
X124100677Y-36601769D01*
X124105179Y-36724863D01*
X124073721Y-36844667D01*
X124006304Y-36952404D01*
X123902929Y-37039297D01*
X123871420Y-37056758D01*
X123788533Y-37089621D01*
X123705724Y-37108773D01*
X123678639Y-37110775D01*
X123604192Y-37099554D01*
X123517835Y-37071305D01*
X123485857Y-37056758D01*
X123373479Y-36976457D01*
X123297060Y-36873115D01*
X123256600Y-36755508D01*
X123252099Y-36632415D01*
X123283557Y-36512611D01*
X123350973Y-36404874D01*
X123454348Y-36317981D01*
X123485857Y-36300520D01*
X123616311Y-36254814D01*
X123742108Y-36255021D01*
G37*
G36*
X132384830Y-36255021D02*
G01*
X132514143Y-36300520D01*
X132626520Y-36380821D01*
X132702939Y-36484163D01*
X132743399Y-36601769D01*
X132747901Y-36724863D01*
X132716443Y-36844667D01*
X132649027Y-36952404D01*
X132545651Y-37039297D01*
X132514143Y-37056758D01*
X132431255Y-37089621D01*
X132348446Y-37108773D01*
X132321361Y-37110775D01*
X132246914Y-37099554D01*
X132160558Y-37071305D01*
X132128579Y-37056758D01*
X132016201Y-36976457D01*
X131939783Y-36873115D01*
X131899322Y-36755508D01*
X131894821Y-36632415D01*
X131926279Y-36512611D01*
X131993695Y-36404874D01*
X132097071Y-36317981D01*
X132128579Y-36300520D01*
X132259033Y-36254814D01*
X132384830Y-36255021D01*
G37*
D10*
%TO.C,D3*%
X128000000Y-102800000D02*
X128000000Y-97750000D01*
X127550000Y-103250000D02*
X128000000Y-102800000D01*
X127200000Y-101400000D02*
X127200000Y-99600000D01*
X121800000Y-101400000D02*
X121800000Y-99600000D01*
X121000000Y-103250000D02*
X127550000Y-103250000D01*
X121000000Y-97750000D02*
X128000000Y-97750000D01*
X121000000Y-97750000D02*
X121000000Y-103250000D01*
%TO.C,C3*%
X117770531Y-98380000D02*
X117974469Y-98380000D01*
X117770531Y-99620000D02*
X117974469Y-99620000D01*
%TO.C,D4*%
X128000000Y-111300000D02*
X128000000Y-106250000D01*
X127550000Y-111750000D02*
X128000000Y-111300000D01*
X127200000Y-109900000D02*
X127200000Y-108100000D01*
X121800000Y-109900000D02*
X121800000Y-108100000D01*
X121000000Y-111750000D02*
X127550000Y-111750000D01*
X121000000Y-106250000D02*
X128000000Y-106250000D01*
X121000000Y-106250000D02*
X121000000Y-111750000D01*
%TO.C,D1*%
X119140000Y-68540000D02*
X119140000Y-70460000D01*
X119140000Y-70460000D02*
X122000000Y-70460000D01*
X122000000Y-68540000D02*
X119140000Y-68540000D01*
%TO.C,C4*%
X117898031Y-106880000D02*
X118101969Y-106880000D01*
X117898031Y-108120000D02*
X118101969Y-108120000D01*
%TO.C,C2*%
X117898031Y-90380000D02*
X118101969Y-90380000D01*
X117898031Y-91620000D02*
X118101969Y-91620000D01*
%TO.C,C1*%
X129380000Y-87101969D02*
X129380000Y-86898031D01*
X130620000Y-87101969D02*
X130620000Y-86898031D01*
%TO.C,J1*%
X120670000Y-52670000D02*
X122000000Y-52670000D01*
X120670000Y-54000000D02*
X120670000Y-52670000D01*
X120670000Y-55270000D02*
X120670000Y-60410000D01*
X120670000Y-55270000D02*
X123330000Y-55270000D01*
X120670000Y-60410000D02*
X123330000Y-60410000D01*
X123330000Y-55270000D02*
X123330000Y-60410000D01*
%TO.C,D2*%
X128000000Y-94800000D02*
X128000000Y-89750000D01*
X127550000Y-95250000D02*
X128000000Y-94800000D01*
X127200000Y-93400000D02*
X127200000Y-91600000D01*
X121800000Y-93400000D02*
X121800000Y-91600000D01*
X121000000Y-95250000D02*
X127550000Y-95250000D01*
X121000000Y-89750000D02*
X128000000Y-89750000D01*
X121000000Y-89750000D02*
X121000000Y-95250000D01*
%TO.C,R2*%
X126727064Y-68765000D02*
X126272936Y-68765000D01*
X126727064Y-70235000D02*
X126272936Y-70235000D01*
%TD*%
M02*
