%TF.GenerationSoftware,KiCad,Pcbnew,8.0.8-8.0.8-0~ubuntu24.04.1*%
%TF.CreationDate,2025-02-23T01:25:37-06:00*%
%TF.ProjectId,edge_human_detection_board,65646765-5f68-4756-9d61-6e5f64657465,rev?*%
%TF.SameCoordinates,Original*%
%TF.FileFunction,Legend,Bot*%
%TF.FilePolarity,Positive*%
%FSLAX46Y46*%
G04 Gerber Fmt 4.6, Leading zero omitted, Abs format (unit mm)*
G04 Created by KiCad (PCBNEW 8.0.8-8.0.8-0~ubuntu24.04.1) date 2025-02-23 01:25:37*
%MOMM*%
%LPD*%
G01*
G04 APERTURE LIST*
%ADD10C,0.150000*%
%ADD11C,0.000000*%
G04 APERTURE END LIST*
D10*
X118623883Y-109872744D02*
X120423883Y-109872744D01*
X119566740Y-109872744D02*
X119566740Y-108844173D01*
X118623883Y-108844173D02*
X120423883Y-108844173D01*
X119138169Y-108072744D02*
X119138169Y-107215602D01*
X118623883Y-108244173D02*
X120423883Y-107644173D01*
X120423883Y-107644173D02*
X118623883Y-107044173D01*
X119138169Y-106529887D02*
X119138169Y-105672745D01*
X118623883Y-106701316D02*
X120423883Y-106101316D01*
X120423883Y-106101316D02*
X118623883Y-105501316D01*
X118623883Y-104901316D02*
X120423883Y-104901316D01*
X120423883Y-104901316D02*
X119138169Y-104301316D01*
X119138169Y-104301316D02*
X120423883Y-103701316D01*
X120423883Y-103701316D02*
X118623883Y-103701316D01*
X115725984Y-108844173D02*
X116583127Y-109444173D01*
X115725984Y-109872744D02*
X117525984Y-109872744D01*
X117525984Y-109872744D02*
X117525984Y-109187030D01*
X117525984Y-109187030D02*
X117440270Y-109015601D01*
X117440270Y-109015601D02*
X117354556Y-108929887D01*
X117354556Y-108929887D02*
X117183127Y-108844173D01*
X117183127Y-108844173D02*
X116925984Y-108844173D01*
X116925984Y-108844173D02*
X116754556Y-108929887D01*
X116754556Y-108929887D02*
X116668841Y-109015601D01*
X116668841Y-109015601D02*
X116583127Y-109187030D01*
X116583127Y-109187030D02*
X116583127Y-109872744D01*
X116668841Y-108072744D02*
X116668841Y-107472744D01*
X115725984Y-107215601D02*
X115725984Y-108072744D01*
X115725984Y-108072744D02*
X117525984Y-108072744D01*
X117525984Y-108072744D02*
X117525984Y-107215601D01*
X117525984Y-106701316D02*
X115725984Y-106101316D01*
X115725984Y-106101316D02*
X117525984Y-105501316D01*
X117354556Y-103615601D02*
X117440270Y-103529887D01*
X117440270Y-103529887D02*
X117525984Y-103358459D01*
X117525984Y-103358459D02*
X117525984Y-102929887D01*
X117525984Y-102929887D02*
X117440270Y-102758459D01*
X117440270Y-102758459D02*
X117354556Y-102672744D01*
X117354556Y-102672744D02*
X117183127Y-102587030D01*
X117183127Y-102587030D02*
X117011699Y-102587030D01*
X117011699Y-102587030D02*
X116754556Y-102672744D01*
X116754556Y-102672744D02*
X115725984Y-103701316D01*
X115725984Y-103701316D02*
X115725984Y-102587030D01*
X115897413Y-101815601D02*
X115811699Y-101729887D01*
X115811699Y-101729887D02*
X115725984Y-101815601D01*
X115725984Y-101815601D02*
X115811699Y-101901315D01*
X115811699Y-101901315D02*
X115897413Y-101815601D01*
X115897413Y-101815601D02*
X115725984Y-101815601D01*
X117525984Y-100615601D02*
X117525984Y-100444172D01*
X117525984Y-100444172D02*
X117440270Y-100272744D01*
X117440270Y-100272744D02*
X117354556Y-100187030D01*
X117354556Y-100187030D02*
X117183127Y-100101315D01*
X117183127Y-100101315D02*
X116840270Y-100015601D01*
X116840270Y-100015601D02*
X116411699Y-100015601D01*
X116411699Y-100015601D02*
X116068841Y-100101315D01*
X116068841Y-100101315D02*
X115897413Y-100187030D01*
X115897413Y-100187030D02*
X115811699Y-100272744D01*
X115811699Y-100272744D02*
X115725984Y-100444172D01*
X115725984Y-100444172D02*
X115725984Y-100615601D01*
X115725984Y-100615601D02*
X115811699Y-100787030D01*
X115811699Y-100787030D02*
X115897413Y-100872744D01*
X115897413Y-100872744D02*
X116068841Y-100958458D01*
X116068841Y-100958458D02*
X116411699Y-101044172D01*
X116411699Y-101044172D02*
X116840270Y-101044172D01*
X116840270Y-101044172D02*
X117183127Y-100958458D01*
X117183127Y-100958458D02*
X117354556Y-100872744D01*
X117354556Y-100872744D02*
X117440270Y-100787030D01*
X117440270Y-100787030D02*
X117525984Y-100615601D01*
X115897413Y-99244172D02*
X115811699Y-99158458D01*
X115811699Y-99158458D02*
X115725984Y-99244172D01*
X115725984Y-99244172D02*
X115811699Y-99329886D01*
X115811699Y-99329886D02*
X115897413Y-99244172D01*
X115897413Y-99244172D02*
X115725984Y-99244172D01*
X117525984Y-98044172D02*
X117525984Y-97872743D01*
X117525984Y-97872743D02*
X117440270Y-97701315D01*
X117440270Y-97701315D02*
X117354556Y-97615601D01*
X117354556Y-97615601D02*
X117183127Y-97529886D01*
X117183127Y-97529886D02*
X116840270Y-97444172D01*
X116840270Y-97444172D02*
X116411699Y-97444172D01*
X116411699Y-97444172D02*
X116068841Y-97529886D01*
X116068841Y-97529886D02*
X115897413Y-97615601D01*
X115897413Y-97615601D02*
X115811699Y-97701315D01*
X115811699Y-97701315D02*
X115725984Y-97872743D01*
X115725984Y-97872743D02*
X115725984Y-98044172D01*
X115725984Y-98044172D02*
X115811699Y-98215601D01*
X115811699Y-98215601D02*
X115897413Y-98301315D01*
X115897413Y-98301315D02*
X116068841Y-98387029D01*
X116068841Y-98387029D02*
X116411699Y-98472743D01*
X116411699Y-98472743D02*
X116840270Y-98472743D01*
X116840270Y-98472743D02*
X117183127Y-98387029D01*
X117183127Y-98387029D02*
X117354556Y-98301315D01*
X117354556Y-98301315D02*
X117440270Y-98215601D01*
X117440270Y-98215601D02*
X117525984Y-98044172D01*
X113770942Y-109272744D02*
X113685228Y-109015601D01*
X113685228Y-109015601D02*
X113599514Y-108929887D01*
X113599514Y-108929887D02*
X113428085Y-108844173D01*
X113428085Y-108844173D02*
X113170942Y-108844173D01*
X113170942Y-108844173D02*
X112999514Y-108929887D01*
X112999514Y-108929887D02*
X112913800Y-109015601D01*
X112913800Y-109015601D02*
X112828085Y-109187030D01*
X112828085Y-109187030D02*
X112828085Y-109872744D01*
X112828085Y-109872744D02*
X114628085Y-109872744D01*
X114628085Y-109872744D02*
X114628085Y-109272744D01*
X114628085Y-109272744D02*
X114542371Y-109101316D01*
X114542371Y-109101316D02*
X114456657Y-109015601D01*
X114456657Y-109015601D02*
X114285228Y-108929887D01*
X114285228Y-108929887D02*
X114113800Y-108929887D01*
X114113800Y-108929887D02*
X113942371Y-109015601D01*
X113942371Y-109015601D02*
X113856657Y-109101316D01*
X113856657Y-109101316D02*
X113770942Y-109272744D01*
X113770942Y-109272744D02*
X113770942Y-109872744D01*
X113685228Y-107729887D02*
X112828085Y-107729887D01*
X114628085Y-108329887D02*
X113685228Y-107729887D01*
X113685228Y-107729887D02*
X114628085Y-107129887D01*
X114628085Y-104644172D02*
X113342371Y-104644172D01*
X113342371Y-104644172D02*
X113085228Y-104729887D01*
X113085228Y-104729887D02*
X112913800Y-104901315D01*
X112913800Y-104901315D02*
X112828085Y-105158458D01*
X112828085Y-105158458D02*
X112828085Y-105329887D01*
X112999514Y-102758458D02*
X112913800Y-102844172D01*
X112913800Y-102844172D02*
X112828085Y-103101315D01*
X112828085Y-103101315D02*
X112828085Y-103272743D01*
X112828085Y-103272743D02*
X112913800Y-103529886D01*
X112913800Y-103529886D02*
X113085228Y-103701315D01*
X113085228Y-103701315D02*
X113256657Y-103787029D01*
X113256657Y-103787029D02*
X113599514Y-103872743D01*
X113599514Y-103872743D02*
X113856657Y-103872743D01*
X113856657Y-103872743D02*
X114199514Y-103787029D01*
X114199514Y-103787029D02*
X114370942Y-103701315D01*
X114370942Y-103701315D02*
X114542371Y-103529886D01*
X114542371Y-103529886D02*
X114628085Y-103272743D01*
X114628085Y-103272743D02*
X114628085Y-103101315D01*
X114628085Y-103101315D02*
X114542371Y-102844172D01*
X114542371Y-102844172D02*
X114456657Y-102758458D01*
D11*
%TO.C,G\u002A\u002A\u002A*%
G36*
X111458134Y-122163275D02*
G01*
X111510397Y-122199244D01*
X111542118Y-122243011D01*
X111558412Y-122295274D01*
X111546366Y-122339041D01*
X111510397Y-122391304D01*
X111466630Y-122423025D01*
X111414367Y-122439319D01*
X111370600Y-122427273D01*
X111318337Y-122391304D01*
X111286615Y-122347537D01*
X111270322Y-122295274D01*
X111282368Y-122251507D01*
X111318337Y-122199244D01*
X111362104Y-122167523D01*
X111414367Y-122151229D01*
X111458134Y-122163275D01*
G37*
G36*
X111746225Y-121587093D02*
G01*
X111798488Y-121623062D01*
X111830209Y-121666830D01*
X111846503Y-121719092D01*
X111834457Y-121762860D01*
X111798488Y-121815123D01*
X111754721Y-121846844D01*
X111702458Y-121863138D01*
X111658690Y-121851092D01*
X111606427Y-121815123D01*
X111574706Y-121771355D01*
X111558412Y-121719092D01*
X111570458Y-121675325D01*
X111606427Y-121623062D01*
X111650195Y-121591341D01*
X111702458Y-121575047D01*
X111746225Y-121587093D01*
G37*
G36*
X112034316Y-129077452D02*
G01*
X112086579Y-129113421D01*
X112118300Y-129157189D01*
X112134594Y-129209452D01*
X112122548Y-129253219D01*
X112086579Y-129305482D01*
X112042811Y-129337203D01*
X111990548Y-129353497D01*
X111946781Y-129341451D01*
X111894518Y-129305482D01*
X111862797Y-129261715D01*
X111846503Y-129209452D01*
X111858549Y-129165684D01*
X111894518Y-129113421D01*
X111938285Y-129081700D01*
X111990548Y-129065406D01*
X112034316Y-129077452D01*
G37*
G36*
X112322406Y-126196545D02*
G01*
X112374669Y-126232514D01*
X112406391Y-126276281D01*
X112422684Y-126328544D01*
X112410638Y-126372312D01*
X112374669Y-126424575D01*
X112330902Y-126456296D01*
X112278639Y-126472590D01*
X112234872Y-126460543D01*
X112182609Y-126424575D01*
X112150888Y-126380807D01*
X112134594Y-126328544D01*
X112146640Y-126284777D01*
X112182609Y-126232514D01*
X112226376Y-126200793D01*
X112278639Y-126184499D01*
X112322406Y-126196545D01*
G37*
G36*
X112322406Y-128789362D02*
G01*
X112374669Y-128825331D01*
X112406391Y-128869098D01*
X112422684Y-128921361D01*
X112410638Y-128965128D01*
X112374669Y-129017391D01*
X112330902Y-129049112D01*
X112278639Y-129065406D01*
X112234872Y-129053360D01*
X112182609Y-129017391D01*
X112150888Y-128973624D01*
X112134594Y-128921361D01*
X112146640Y-128877594D01*
X112182609Y-128825331D01*
X112226376Y-128793609D01*
X112278639Y-128777316D01*
X112322406Y-128789362D01*
G37*
G36*
X112322406Y-129365543D02*
G01*
X112374669Y-129401512D01*
X112406391Y-129445279D01*
X112422684Y-129497542D01*
X112410638Y-129541310D01*
X112374669Y-129593573D01*
X112330902Y-129625294D01*
X112278639Y-129641588D01*
X112234872Y-129629542D01*
X112182609Y-129593573D01*
X112150888Y-129549805D01*
X112134594Y-129497542D01*
X112146640Y-129453775D01*
X112182609Y-129401512D01*
X112226376Y-129369791D01*
X112278639Y-129353497D01*
X112322406Y-129365543D01*
G37*
G36*
X112610497Y-125908454D02*
G01*
X112662760Y-125944423D01*
X112694481Y-125988191D01*
X112710775Y-126040454D01*
X112698729Y-126084221D01*
X112662760Y-126136484D01*
X112618993Y-126168205D01*
X112566730Y-126184499D01*
X112522962Y-126172453D01*
X112470700Y-126136484D01*
X112438978Y-126092716D01*
X112422684Y-126040454D01*
X112434731Y-125996686D01*
X112470700Y-125944423D01*
X112514467Y-125912702D01*
X112566730Y-125896408D01*
X112610497Y-125908454D01*
G37*
G36*
X112610497Y-126484636D02*
G01*
X112662760Y-126520605D01*
X112694481Y-126564372D01*
X112710775Y-126616635D01*
X112698729Y-126660402D01*
X112662760Y-126712665D01*
X112618993Y-126744386D01*
X112566730Y-126760680D01*
X112522962Y-126748634D01*
X112470700Y-126712665D01*
X112438978Y-126668898D01*
X112422684Y-126616635D01*
X112434731Y-126572868D01*
X112470700Y-126520605D01*
X112514467Y-126488884D01*
X112566730Y-126472590D01*
X112610497Y-126484636D01*
G37*
G36*
X112610497Y-129077452D02*
G01*
X112662760Y-129113421D01*
X112694481Y-129157189D01*
X112710775Y-129209452D01*
X112698729Y-129253219D01*
X112662760Y-129305482D01*
X112618993Y-129337203D01*
X112566730Y-129353497D01*
X112522962Y-129341451D01*
X112470700Y-129305482D01*
X112438978Y-129261715D01*
X112422684Y-129209452D01*
X112434731Y-129165684D01*
X112470700Y-129113421D01*
X112514467Y-129081700D01*
X112566730Y-129065406D01*
X112610497Y-129077452D01*
G37*
G36*
X112610497Y-129653634D02*
G01*
X112662760Y-129689603D01*
X112694481Y-129733370D01*
X112710775Y-129785633D01*
X112698729Y-129829400D01*
X112662760Y-129881663D01*
X112618993Y-129913385D01*
X112566730Y-129929678D01*
X112522962Y-129917632D01*
X112470700Y-129881663D01*
X112438978Y-129837896D01*
X112422684Y-129785633D01*
X112434731Y-129741866D01*
X112470700Y-129689603D01*
X112514467Y-129657882D01*
X112566730Y-129641588D01*
X112610497Y-129653634D01*
G37*
G36*
X112898588Y-123315638D02*
G01*
X112950851Y-123351607D01*
X112982572Y-123395374D01*
X112998866Y-123447637D01*
X112986820Y-123491404D01*
X112950851Y-123543667D01*
X112907083Y-123575388D01*
X112854821Y-123591682D01*
X112811053Y-123579636D01*
X112758790Y-123543667D01*
X112727069Y-123499900D01*
X112710775Y-123447637D01*
X112722821Y-123403870D01*
X112758790Y-123351607D01*
X112802558Y-123319885D01*
X112854821Y-123303592D01*
X112898588Y-123315638D01*
G37*
G36*
X112898588Y-126196545D02*
G01*
X112950851Y-126232514D01*
X112982572Y-126276281D01*
X112998866Y-126328544D01*
X112986820Y-126372312D01*
X112950851Y-126424575D01*
X112907083Y-126456296D01*
X112854821Y-126472590D01*
X112811053Y-126460543D01*
X112758790Y-126424575D01*
X112727069Y-126380807D01*
X112710775Y-126328544D01*
X112722821Y-126284777D01*
X112758790Y-126232514D01*
X112802558Y-126200793D01*
X112854821Y-126184499D01*
X112898588Y-126196545D01*
G37*
G36*
X113186679Y-123027547D02*
G01*
X113238942Y-123063516D01*
X113270663Y-123107283D01*
X113286957Y-123159546D01*
X113274911Y-123203314D01*
X113238942Y-123255576D01*
X113195174Y-123287298D01*
X113142911Y-123303592D01*
X113099144Y-123291545D01*
X113046881Y-123255576D01*
X113015160Y-123211809D01*
X112998866Y-123159546D01*
X113010912Y-123115779D01*
X113046881Y-123063516D01*
X113090648Y-123031795D01*
X113142911Y-123015501D01*
X113186679Y-123027547D01*
G37*
G36*
X113186679Y-127925089D02*
G01*
X113238942Y-127961058D01*
X113270663Y-128004826D01*
X113286957Y-128057089D01*
X113274911Y-128100856D01*
X113238942Y-128153119D01*
X113195174Y-128184840D01*
X113142911Y-128201134D01*
X113099144Y-128189088D01*
X113046881Y-128153119D01*
X113015160Y-128109352D01*
X112998866Y-128057089D01*
X113010912Y-128013321D01*
X113046881Y-127961058D01*
X113090648Y-127929337D01*
X113142911Y-127913043D01*
X113186679Y-127925089D01*
G37*
G36*
X113762860Y-120434730D02*
G01*
X113815123Y-120470699D01*
X113846844Y-120514467D01*
X113863138Y-120566730D01*
X113851092Y-120610497D01*
X113815123Y-120662760D01*
X113771356Y-120694481D01*
X113719093Y-120710775D01*
X113675325Y-120698729D01*
X113623063Y-120662760D01*
X113591341Y-120618992D01*
X113575047Y-120566730D01*
X113587094Y-120522962D01*
X113623063Y-120470699D01*
X113666830Y-120438978D01*
X113719093Y-120422684D01*
X113762860Y-120434730D01*
G37*
G36*
X113762860Y-121010912D02*
G01*
X113815123Y-121046881D01*
X113846844Y-121090648D01*
X113863138Y-121142911D01*
X113851092Y-121186678D01*
X113815123Y-121238941D01*
X113771356Y-121270662D01*
X113719093Y-121286956D01*
X113675325Y-121274910D01*
X113623063Y-121238941D01*
X113591341Y-121195174D01*
X113575047Y-121142911D01*
X113587094Y-121099144D01*
X113623063Y-121046881D01*
X113666830Y-121015160D01*
X113719093Y-120998866D01*
X113762860Y-121010912D01*
G37*
G36*
X113762860Y-123027547D02*
G01*
X113815123Y-123063516D01*
X113846844Y-123107283D01*
X113863138Y-123159546D01*
X113851092Y-123203314D01*
X113815123Y-123255576D01*
X113771356Y-123287298D01*
X113719093Y-123303592D01*
X113675325Y-123291545D01*
X113623063Y-123255576D01*
X113591341Y-123211809D01*
X113575047Y-123159546D01*
X113587094Y-123115779D01*
X113623063Y-123063516D01*
X113666830Y-123031795D01*
X113719093Y-123015501D01*
X113762860Y-123027547D01*
G37*
G36*
X114050951Y-120146640D02*
G01*
X114103214Y-120182609D01*
X114134935Y-120226376D01*
X114151229Y-120278639D01*
X114139183Y-120322406D01*
X114103214Y-120374669D01*
X114059446Y-120406390D01*
X114007184Y-120422684D01*
X113963416Y-120410638D01*
X113911153Y-120374669D01*
X113879432Y-120330902D01*
X113863138Y-120278639D01*
X113875184Y-120234871D01*
X113911153Y-120182609D01*
X113954921Y-120150887D01*
X114007184Y-120134593D01*
X114050951Y-120146640D01*
G37*
G36*
X114050951Y-120722821D02*
G01*
X114103214Y-120758790D01*
X114134935Y-120802557D01*
X114151229Y-120854820D01*
X114139183Y-120898588D01*
X114103214Y-120950851D01*
X114059446Y-120982572D01*
X114007184Y-120998866D01*
X113963416Y-120986819D01*
X113911153Y-120950851D01*
X113879432Y-120907083D01*
X113863138Y-120854820D01*
X113875184Y-120811053D01*
X113911153Y-120758790D01*
X113954921Y-120727069D01*
X114007184Y-120710775D01*
X114050951Y-120722821D01*
G37*
G36*
X114310042Y-119847950D02*
G01*
X114369945Y-119877242D01*
X114418997Y-119930733D01*
X114439320Y-119990548D01*
X114427273Y-120034315D01*
X114391304Y-120086578D01*
X114347537Y-120118299D01*
X114295274Y-120134593D01*
X114251507Y-120122547D01*
X114199244Y-120086578D01*
X114167523Y-120042811D01*
X114151229Y-119990548D01*
X114163275Y-119946781D01*
X114199244Y-119894518D01*
X114243011Y-119862797D01*
X114295274Y-119846503D01*
X114310042Y-119847950D01*
G37*
G36*
X114339042Y-120434730D02*
G01*
X114391304Y-120470699D01*
X114423026Y-120514467D01*
X114439320Y-120566730D01*
X114427273Y-120610497D01*
X114391304Y-120662760D01*
X114347537Y-120694481D01*
X114295274Y-120710775D01*
X114251507Y-120698729D01*
X114199244Y-120662760D01*
X114167523Y-120618992D01*
X114151229Y-120566730D01*
X114163275Y-120522962D01*
X114199244Y-120470699D01*
X114243011Y-120438978D01*
X114295274Y-120422684D01*
X114339042Y-120434730D01*
G37*
G36*
X114627132Y-120722821D02*
G01*
X114679395Y-120758790D01*
X114711116Y-120802557D01*
X114727410Y-120854820D01*
X114715364Y-120898588D01*
X114679395Y-120950851D01*
X114635628Y-120982572D01*
X114583365Y-120998866D01*
X114539598Y-120986819D01*
X114487335Y-120950851D01*
X114455614Y-120907083D01*
X114439320Y-120854820D01*
X114451366Y-120811053D01*
X114487335Y-120758790D01*
X114531102Y-120727069D01*
X114583365Y-120710775D01*
X114627132Y-120722821D01*
G37*
G36*
X114915223Y-121010912D02*
G01*
X114967486Y-121046881D01*
X114999207Y-121090648D01*
X115015501Y-121142911D01*
X115003455Y-121186678D01*
X114967486Y-121238941D01*
X114923719Y-121270662D01*
X114871456Y-121286956D01*
X114827688Y-121274910D01*
X114775425Y-121238941D01*
X114743704Y-121195174D01*
X114727410Y-121142911D01*
X114739457Y-121099144D01*
X114775425Y-121046881D01*
X114819193Y-121015160D01*
X114871456Y-120998866D01*
X114915223Y-121010912D01*
G37*
G36*
X114915223Y-127348908D02*
G01*
X114967486Y-127384877D01*
X114999207Y-127428644D01*
X115015501Y-127480907D01*
X115003455Y-127524675D01*
X114967486Y-127576937D01*
X114923719Y-127608659D01*
X114871456Y-127624953D01*
X114827688Y-127612906D01*
X114775425Y-127576937D01*
X114743704Y-127533170D01*
X114727410Y-127480907D01*
X114739457Y-127437140D01*
X114775425Y-127384877D01*
X114819193Y-127353156D01*
X114871456Y-127336862D01*
X114915223Y-127348908D01*
G37*
G36*
X115203314Y-125044182D02*
G01*
X115255577Y-125080151D01*
X115287298Y-125123918D01*
X115303592Y-125176181D01*
X115291546Y-125219949D01*
X115255577Y-125272212D01*
X115211809Y-125303933D01*
X115159546Y-125320227D01*
X115115779Y-125308181D01*
X115063516Y-125272212D01*
X115031795Y-125228444D01*
X115015501Y-125176181D01*
X115027547Y-125132414D01*
X115063516Y-125080151D01*
X115107284Y-125048430D01*
X115159546Y-125032136D01*
X115203314Y-125044182D01*
G37*
G36*
X115491405Y-127925089D02*
G01*
X115543667Y-127961058D01*
X115575389Y-128004826D01*
X115591683Y-128057089D01*
X115579636Y-128100856D01*
X115543667Y-128153119D01*
X115499900Y-128184840D01*
X115447637Y-128201134D01*
X115403870Y-128189088D01*
X115351607Y-128153119D01*
X115319886Y-128109352D01*
X115303592Y-128057089D01*
X115315638Y-128013321D01*
X115351607Y-127961058D01*
X115395374Y-127929337D01*
X115447637Y-127913043D01*
X115491405Y-127925089D01*
G37*
G36*
X116326677Y-119559859D02*
G01*
X116386580Y-119589151D01*
X116435632Y-119642642D01*
X116455955Y-119702457D01*
X116443909Y-119746225D01*
X116407940Y-119798488D01*
X116364172Y-119830209D01*
X116311909Y-119846503D01*
X116268142Y-119834457D01*
X116215879Y-119798488D01*
X116184158Y-119754720D01*
X116167864Y-119702457D01*
X116179910Y-119658690D01*
X116215879Y-119606427D01*
X116259646Y-119574706D01*
X116311909Y-119558412D01*
X116326677Y-119559859D01*
G37*
G36*
X116355677Y-124179910D02*
G01*
X116407940Y-124215879D01*
X116439661Y-124259646D01*
X116455955Y-124311909D01*
X116443909Y-124355676D01*
X116407940Y-124407939D01*
X116364172Y-124439661D01*
X116311909Y-124455954D01*
X116268142Y-124443908D01*
X116215879Y-124407939D01*
X116184158Y-124364172D01*
X116167864Y-124311909D01*
X116179910Y-124268142D01*
X116215879Y-124215879D01*
X116259646Y-124184158D01*
X116311909Y-124167864D01*
X116355677Y-124179910D01*
G37*
G36*
X116355677Y-129365543D02*
G01*
X116407940Y-129401512D01*
X116439661Y-129445279D01*
X116455955Y-129497542D01*
X116443909Y-129541310D01*
X116407940Y-129593573D01*
X116364172Y-129625294D01*
X116311909Y-129641588D01*
X116268142Y-129629542D01*
X116215879Y-129593573D01*
X116184158Y-129549805D01*
X116167864Y-129497542D01*
X116179910Y-129453775D01*
X116215879Y-129401512D01*
X116259646Y-129369791D01*
X116311909Y-129353497D01*
X116355677Y-129365543D01*
G37*
G36*
X116614768Y-119847950D02*
G01*
X116674671Y-119877242D01*
X116723723Y-119930733D01*
X116744046Y-119990548D01*
X116731999Y-120034315D01*
X116696030Y-120086578D01*
X116652263Y-120118299D01*
X116600000Y-120134593D01*
X116556233Y-120122547D01*
X116503970Y-120086578D01*
X116472249Y-120042811D01*
X116455955Y-119990548D01*
X116468001Y-119946781D01*
X116503970Y-119894518D01*
X116547737Y-119862797D01*
X116600000Y-119846503D01*
X116614768Y-119847950D01*
G37*
G36*
X116643767Y-121010912D02*
G01*
X116696030Y-121046881D01*
X116727752Y-121090648D01*
X116744046Y-121142911D01*
X116731999Y-121186678D01*
X116696030Y-121238941D01*
X116652263Y-121270662D01*
X116600000Y-121286956D01*
X116556233Y-121274910D01*
X116503970Y-121238941D01*
X116472249Y-121195174D01*
X116455955Y-121142911D01*
X116468001Y-121099144D01*
X116503970Y-121046881D01*
X116547737Y-121015160D01*
X116600000Y-120998866D01*
X116643767Y-121010912D01*
G37*
G36*
X116643767Y-129653634D02*
G01*
X116696030Y-129689603D01*
X116727752Y-129733370D01*
X116744046Y-129785633D01*
X116731999Y-129829400D01*
X116696030Y-129881663D01*
X116652263Y-129913385D01*
X116600000Y-129929678D01*
X116556233Y-129917632D01*
X116503970Y-129881663D01*
X116472249Y-129837896D01*
X116455955Y-129785633D01*
X116468001Y-129741866D01*
X116503970Y-129689603D01*
X116547737Y-129657882D01*
X116600000Y-129641588D01*
X116643767Y-129653634D01*
G37*
G36*
X116931858Y-122163275D02*
G01*
X116984121Y-122199244D01*
X117015842Y-122243011D01*
X117032136Y-122295274D01*
X117020090Y-122339041D01*
X116984121Y-122391304D01*
X116940354Y-122423025D01*
X116888091Y-122439319D01*
X116844324Y-122427273D01*
X116792061Y-122391304D01*
X116760339Y-122347537D01*
X116744046Y-122295274D01*
X116756092Y-122251507D01*
X116792061Y-122199244D01*
X116835828Y-122167523D01*
X116888091Y-122151229D01*
X116931858Y-122163275D01*
G37*
G36*
X117219949Y-122451365D02*
G01*
X117272212Y-122487334D01*
X117303933Y-122531102D01*
X117320227Y-122583365D01*
X117308181Y-122627132D01*
X117272212Y-122679395D01*
X117228445Y-122711116D01*
X117176182Y-122727410D01*
X117132414Y-122715364D01*
X117080151Y-122679395D01*
X117048430Y-122635628D01*
X117032136Y-122583365D01*
X117044182Y-122539597D01*
X117080151Y-122487334D01*
X117123919Y-122455613D01*
X117176182Y-122439319D01*
X117219949Y-122451365D01*
G37*
G36*
X117219949Y-128501271D02*
G01*
X117272212Y-128537240D01*
X117303933Y-128581007D01*
X117320227Y-128633270D01*
X117308181Y-128677038D01*
X117272212Y-128729300D01*
X117228445Y-128761022D01*
X117176182Y-128777316D01*
X117132414Y-128765269D01*
X117080151Y-128729300D01*
X117048430Y-128685533D01*
X117032136Y-128633270D01*
X117044182Y-128589503D01*
X117080151Y-128537240D01*
X117123919Y-128505519D01*
X117176182Y-128489225D01*
X117219949Y-128501271D01*
G37*
G36*
X117796130Y-121010912D02*
G01*
X117848393Y-121046881D01*
X117880115Y-121090648D01*
X117896408Y-121142911D01*
X117884362Y-121186678D01*
X117848393Y-121238941D01*
X117804626Y-121270662D01*
X117752363Y-121286956D01*
X117708596Y-121274910D01*
X117656333Y-121238941D01*
X117624612Y-121195174D01*
X117608318Y-121142911D01*
X117620364Y-121099144D01*
X117656333Y-121046881D01*
X117700100Y-121015160D01*
X117752363Y-120998866D01*
X117796130Y-121010912D01*
G37*
G36*
X117796130Y-124468001D02*
G01*
X117848393Y-124503970D01*
X117880115Y-124547737D01*
X117896408Y-124600000D01*
X117884362Y-124643767D01*
X117848393Y-124696030D01*
X117804626Y-124727751D01*
X117752363Y-124744045D01*
X117708596Y-124731999D01*
X117656333Y-124696030D01*
X117624612Y-124652263D01*
X117608318Y-124600000D01*
X117620364Y-124556233D01*
X117656333Y-124503970D01*
X117700100Y-124472248D01*
X117752363Y-124455954D01*
X117796130Y-124468001D01*
G37*
G36*
X117796130Y-125044182D02*
G01*
X117848393Y-125080151D01*
X117880115Y-125123918D01*
X117896408Y-125176181D01*
X117884362Y-125219949D01*
X117848393Y-125272212D01*
X117804626Y-125303933D01*
X117752363Y-125320227D01*
X117708596Y-125308181D01*
X117656333Y-125272212D01*
X117624612Y-125228444D01*
X117608318Y-125176181D01*
X117620364Y-125132414D01*
X117656333Y-125080151D01*
X117700100Y-125048430D01*
X117752363Y-125032136D01*
X117796130Y-125044182D01*
G37*
G36*
X118084221Y-125332273D02*
G01*
X118136484Y-125368242D01*
X118168205Y-125412009D01*
X118184499Y-125464272D01*
X118172453Y-125508039D01*
X118136484Y-125560302D01*
X118092717Y-125592023D01*
X118040454Y-125608317D01*
X117996686Y-125596271D01*
X117944424Y-125560302D01*
X117912702Y-125516535D01*
X117896408Y-125464272D01*
X117908455Y-125420505D01*
X117944424Y-125368242D01*
X117988191Y-125336521D01*
X118040454Y-125320227D01*
X118084221Y-125332273D01*
G37*
G36*
X118084221Y-129077452D02*
G01*
X118136484Y-129113421D01*
X118168205Y-129157189D01*
X118184499Y-129209452D01*
X118172453Y-129253219D01*
X118136484Y-129305482D01*
X118092717Y-129337203D01*
X118040454Y-129353497D01*
X117996686Y-129341451D01*
X117944424Y-129305482D01*
X117912702Y-129261715D01*
X117896408Y-129209452D01*
X117908455Y-129165684D01*
X117944424Y-129113421D01*
X117988191Y-129081700D01*
X118040454Y-129065406D01*
X118084221Y-129077452D01*
G37*
G36*
X118372312Y-125044182D02*
G01*
X118424575Y-125080151D01*
X118456296Y-125123918D01*
X118472590Y-125176181D01*
X118460544Y-125219949D01*
X118424575Y-125272212D01*
X118380807Y-125303933D01*
X118328545Y-125320227D01*
X118284777Y-125308181D01*
X118232514Y-125272212D01*
X118200793Y-125228444D01*
X118184499Y-125176181D01*
X118196545Y-125132414D01*
X118232514Y-125080151D01*
X118276282Y-125048430D01*
X118328545Y-125032136D01*
X118372312Y-125044182D01*
G37*
G36*
X119495675Y-119559859D02*
G01*
X119555579Y-119589151D01*
X119604630Y-119642642D01*
X119624953Y-119702457D01*
X119612907Y-119746225D01*
X119576938Y-119798488D01*
X119533170Y-119830209D01*
X119480908Y-119846503D01*
X119437140Y-119834457D01*
X119384877Y-119798488D01*
X119353156Y-119754720D01*
X119336862Y-119702457D01*
X119348908Y-119658690D01*
X119384877Y-119606427D01*
X119428645Y-119574706D01*
X119480908Y-119558412D01*
X119495675Y-119559859D01*
G37*
G36*
X119524675Y-122163275D02*
G01*
X119576938Y-122199244D01*
X119608659Y-122243011D01*
X119624953Y-122295274D01*
X119612907Y-122339041D01*
X119576938Y-122391304D01*
X119533170Y-122423025D01*
X119480908Y-122439319D01*
X119437140Y-122427273D01*
X119384877Y-122391304D01*
X119353156Y-122347537D01*
X119336862Y-122295274D01*
X119348908Y-122251507D01*
X119384877Y-122199244D01*
X119428645Y-122167523D01*
X119480908Y-122151229D01*
X119524675Y-122163275D01*
G37*
G36*
X119812766Y-121875184D02*
G01*
X119865028Y-121911153D01*
X119896750Y-121954920D01*
X119913044Y-122007183D01*
X119900997Y-122050951D01*
X119865028Y-122103213D01*
X119821261Y-122134935D01*
X119768998Y-122151229D01*
X119725231Y-122139182D01*
X119672968Y-122103213D01*
X119641247Y-122059446D01*
X119624953Y-122007183D01*
X119636999Y-121963416D01*
X119672968Y-121911153D01*
X119716735Y-121879432D01*
X119768998Y-121863138D01*
X119812766Y-121875184D01*
G37*
G36*
X120100856Y-121587093D02*
G01*
X120153119Y-121623062D01*
X120184840Y-121666830D01*
X120201134Y-121719092D01*
X120189088Y-121762860D01*
X120153119Y-121815123D01*
X120109352Y-121846844D01*
X120057089Y-121863138D01*
X120013322Y-121851092D01*
X119961059Y-121815123D01*
X119929338Y-121771355D01*
X119913044Y-121719092D01*
X119925090Y-121675325D01*
X119961059Y-121623062D01*
X120004826Y-121591341D01*
X120057089Y-121575047D01*
X120100856Y-121587093D01*
G37*
G36*
X120100856Y-123315638D02*
G01*
X120153119Y-123351607D01*
X120184840Y-123395374D01*
X120201134Y-123447637D01*
X120189088Y-123491404D01*
X120153119Y-123543667D01*
X120109352Y-123575388D01*
X120057089Y-123591682D01*
X120013322Y-123579636D01*
X119961059Y-123543667D01*
X119929338Y-123499900D01*
X119913044Y-123447637D01*
X119925090Y-123403870D01*
X119961059Y-123351607D01*
X120004826Y-123319885D01*
X120057089Y-123303592D01*
X120100856Y-123315638D01*
G37*
G36*
X120100856Y-124468001D02*
G01*
X120153119Y-124503970D01*
X120184840Y-124547737D01*
X120201134Y-124600000D01*
X120189088Y-124643767D01*
X120153119Y-124696030D01*
X120109352Y-124727751D01*
X120057089Y-124744045D01*
X120013322Y-124731999D01*
X119961059Y-124696030D01*
X119929338Y-124652263D01*
X119913044Y-124600000D01*
X119925090Y-124556233D01*
X119961059Y-124503970D01*
X120004826Y-124472248D01*
X120057089Y-124455954D01*
X120100856Y-124468001D01*
G37*
G36*
X120965129Y-121875184D02*
G01*
X121017391Y-121911153D01*
X121049113Y-121954920D01*
X121065407Y-122007183D01*
X121053360Y-122050951D01*
X121017391Y-122103213D01*
X120973624Y-122134935D01*
X120921361Y-122151229D01*
X120877594Y-122139182D01*
X120825331Y-122103213D01*
X120793610Y-122059446D01*
X120777316Y-122007183D01*
X120789362Y-121963416D01*
X120825331Y-121911153D01*
X120869098Y-121879432D01*
X120921361Y-121863138D01*
X120965129Y-121875184D01*
G37*
G36*
X120965129Y-122451365D02*
G01*
X121017391Y-122487334D01*
X121049113Y-122531102D01*
X121065407Y-122583365D01*
X121053360Y-122627132D01*
X121017391Y-122679395D01*
X120973624Y-122711116D01*
X120921361Y-122727410D01*
X120877594Y-122715364D01*
X120825331Y-122679395D01*
X120793610Y-122635628D01*
X120777316Y-122583365D01*
X120789362Y-122539597D01*
X120825331Y-122487334D01*
X120869098Y-122455613D01*
X120921361Y-122439319D01*
X120965129Y-122451365D01*
G37*
G36*
X120965129Y-126484636D02*
G01*
X121017391Y-126520605D01*
X121049113Y-126564372D01*
X121065407Y-126616635D01*
X121053360Y-126660402D01*
X121017391Y-126712665D01*
X120973624Y-126744386D01*
X120921361Y-126760680D01*
X120877594Y-126748634D01*
X120825331Y-126712665D01*
X120793610Y-126668898D01*
X120777316Y-126616635D01*
X120789362Y-126572868D01*
X120825331Y-126520605D01*
X120869098Y-126488884D01*
X120921361Y-126472590D01*
X120965129Y-126484636D01*
G37*
G36*
X121224219Y-123305039D02*
G01*
X121284123Y-123334331D01*
X121333174Y-123387822D01*
X121353497Y-123447637D01*
X121341451Y-123491404D01*
X121305482Y-123543667D01*
X121261715Y-123575388D01*
X121209452Y-123591682D01*
X121165685Y-123579636D01*
X121113422Y-123543667D01*
X121081701Y-123499900D01*
X121065407Y-123447637D01*
X121066854Y-123432870D01*
X121096146Y-123372966D01*
X121149637Y-123323914D01*
X121209452Y-123303592D01*
X121224219Y-123305039D01*
G37*
G36*
X121224219Y-126185946D02*
G01*
X121284123Y-126215238D01*
X121333174Y-126268729D01*
X121353497Y-126328544D01*
X121341451Y-126372312D01*
X121305482Y-126424575D01*
X121261715Y-126456296D01*
X121209452Y-126472590D01*
X121165685Y-126460543D01*
X121113422Y-126424575D01*
X121081701Y-126380807D01*
X121065407Y-126328544D01*
X121066854Y-126313777D01*
X121096146Y-126253873D01*
X121149637Y-126204822D01*
X121209452Y-126184499D01*
X121224219Y-126185946D01*
G37*
G36*
X121512310Y-122440766D02*
G01*
X121572214Y-122470058D01*
X121621265Y-122523550D01*
X121641588Y-122583365D01*
X121629542Y-122627132D01*
X121593573Y-122679395D01*
X121549806Y-122711116D01*
X121497543Y-122727410D01*
X121453775Y-122715364D01*
X121401512Y-122679395D01*
X121369791Y-122635628D01*
X121353497Y-122583365D01*
X121354944Y-122568597D01*
X121384236Y-122508694D01*
X121437728Y-122459642D01*
X121497543Y-122439319D01*
X121512310Y-122440766D01*
G37*
G36*
X121800401Y-124457402D02*
G01*
X121860304Y-124486693D01*
X121909356Y-124540185D01*
X121929679Y-124600000D01*
X121917633Y-124643767D01*
X121881664Y-124696030D01*
X121837896Y-124727751D01*
X121785633Y-124744045D01*
X121741866Y-124731999D01*
X121689603Y-124696030D01*
X121657882Y-124652263D01*
X121641588Y-124600000D01*
X121643035Y-124585232D01*
X121672327Y-124525329D01*
X121725818Y-124476277D01*
X121785633Y-124455954D01*
X121800401Y-124457402D01*
G37*
G36*
X121800401Y-125033583D02*
G01*
X121860304Y-125062875D01*
X121909356Y-125116366D01*
X121929679Y-125176181D01*
X121917633Y-125219949D01*
X121881664Y-125272212D01*
X121837896Y-125303933D01*
X121785633Y-125320227D01*
X121741866Y-125308181D01*
X121689603Y-125272212D01*
X121657882Y-125228444D01*
X121641588Y-125176181D01*
X121643035Y-125161414D01*
X121672327Y-125101510D01*
X121725818Y-125052459D01*
X121785633Y-125032136D01*
X121800401Y-125033583D01*
G37*
G36*
X111938097Y-125609825D02*
G01*
X112008185Y-125616670D01*
X112053560Y-125631349D01*
X112086579Y-125656333D01*
X112118300Y-125700100D01*
X112134594Y-125752363D01*
X112122548Y-125796130D01*
X112086579Y-125848393D01*
X112058028Y-125870915D01*
X112014835Y-125886725D01*
X111948445Y-125894399D01*
X111846503Y-125896408D01*
X111754909Y-125894901D01*
X111684821Y-125888055D01*
X111639446Y-125873376D01*
X111606427Y-125848393D01*
X111574706Y-125804626D01*
X111558412Y-125752363D01*
X111570458Y-125708595D01*
X111606427Y-125656333D01*
X111634978Y-125633811D01*
X111678171Y-125618000D01*
X111744561Y-125610326D01*
X111846503Y-125608317D01*
X111938097Y-125609825D01*
G37*
G36*
X111938097Y-128202641D02*
G01*
X112008185Y-128209487D01*
X112053560Y-128224166D01*
X112086579Y-128249149D01*
X112118300Y-128292917D01*
X112134594Y-128345179D01*
X112122548Y-128388947D01*
X112086579Y-128441210D01*
X112058028Y-128463732D01*
X112014835Y-128479542D01*
X111948445Y-128487216D01*
X111846503Y-128489225D01*
X111754909Y-128487718D01*
X111684821Y-128480872D01*
X111639446Y-128466193D01*
X111606427Y-128441210D01*
X111574706Y-128397442D01*
X111558412Y-128345179D01*
X111570458Y-128301412D01*
X111606427Y-128249149D01*
X111634978Y-128226627D01*
X111678171Y-128210817D01*
X111744561Y-128203143D01*
X111846503Y-128201134D01*
X111938097Y-128202641D01*
G37*
G36*
X112226188Y-126762188D02*
G01*
X112296276Y-126769033D01*
X112341651Y-126783712D01*
X112374669Y-126808696D01*
X112406391Y-126852463D01*
X112422684Y-126904726D01*
X112410638Y-126948493D01*
X112374669Y-127000756D01*
X112346119Y-127023278D01*
X112302926Y-127039088D01*
X112236536Y-127046762D01*
X112134594Y-127048771D01*
X112042999Y-127047264D01*
X111972912Y-127040418D01*
X111927537Y-127025739D01*
X111894518Y-127000756D01*
X111862797Y-126956989D01*
X111846503Y-126904726D01*
X111858549Y-126860958D01*
X111894518Y-126808696D01*
X111923068Y-126786174D01*
X111966262Y-126770363D01*
X112032652Y-126762689D01*
X112134594Y-126760680D01*
X112226188Y-126762188D01*
G37*
G36*
X112514279Y-125321734D02*
G01*
X112584366Y-125328580D01*
X112629741Y-125343258D01*
X112662760Y-125368242D01*
X112694481Y-125412009D01*
X112710775Y-125464272D01*
X112698729Y-125508039D01*
X112662760Y-125560302D01*
X112634210Y-125582824D01*
X112591016Y-125598635D01*
X112524627Y-125606309D01*
X112422684Y-125608317D01*
X112331090Y-125606810D01*
X112261002Y-125599965D01*
X112215628Y-125585286D01*
X112182609Y-125560302D01*
X112150888Y-125516535D01*
X112134594Y-125464272D01*
X112146640Y-125420505D01*
X112182609Y-125368242D01*
X112211159Y-125345720D01*
X112254353Y-125329910D01*
X112320742Y-125322236D01*
X112422684Y-125320227D01*
X112514279Y-125321734D01*
G37*
G36*
X114819005Y-123305099D02*
G01*
X114889092Y-123311944D01*
X114934467Y-123326623D01*
X114967486Y-123351607D01*
X114999207Y-123395374D01*
X115015501Y-123447637D01*
X115003455Y-123491404D01*
X114967486Y-123543667D01*
X114938936Y-123566189D01*
X114895742Y-123581999D01*
X114829352Y-123589673D01*
X114727410Y-123591682D01*
X114635816Y-123590175D01*
X114565728Y-123583329D01*
X114520353Y-123568650D01*
X114487335Y-123543667D01*
X114455614Y-123499900D01*
X114439320Y-123447637D01*
X114451366Y-123403870D01*
X114487335Y-123351607D01*
X114515885Y-123329085D01*
X114559079Y-123313274D01*
X114625468Y-123305600D01*
X114727410Y-123303592D01*
X114819005Y-123305099D01*
G37*
G36*
X115395186Y-128778823D02*
G01*
X115465274Y-128785668D01*
X115510649Y-128800347D01*
X115543667Y-128825331D01*
X115575389Y-128869098D01*
X115591683Y-128921361D01*
X115579636Y-128965128D01*
X115543667Y-129017391D01*
X115515117Y-129039913D01*
X115471924Y-129055723D01*
X115405534Y-129063397D01*
X115303592Y-129065406D01*
X115211997Y-129063899D01*
X115141910Y-129057053D01*
X115096535Y-129042374D01*
X115063516Y-129017391D01*
X115031795Y-128973624D01*
X115015501Y-128921361D01*
X115027547Y-128877594D01*
X115063516Y-128825331D01*
X115092067Y-128802809D01*
X115135260Y-128786998D01*
X115201650Y-128779324D01*
X115303592Y-128777316D01*
X115395186Y-128778823D01*
G37*
G36*
X116643767Y-125044182D02*
G01*
X116696030Y-125080151D01*
X116718552Y-125108701D01*
X116734363Y-125151895D01*
X116742037Y-125218285D01*
X116744046Y-125320227D01*
X116742538Y-125411821D01*
X116735693Y-125481909D01*
X116721014Y-125527284D01*
X116696030Y-125560302D01*
X116652263Y-125592023D01*
X116600000Y-125608317D01*
X116556233Y-125596271D01*
X116503970Y-125560302D01*
X116481448Y-125531752D01*
X116465638Y-125488558D01*
X116457964Y-125422169D01*
X116455955Y-125320227D01*
X116457462Y-125228632D01*
X116464308Y-125158545D01*
X116478987Y-125113170D01*
X116503970Y-125080151D01*
X116547737Y-125048430D01*
X116600000Y-125032136D01*
X116643767Y-125044182D01*
G37*
G36*
X116643767Y-126196545D02*
G01*
X116696030Y-126232514D01*
X116718552Y-126261064D01*
X116734363Y-126304258D01*
X116742037Y-126370648D01*
X116744046Y-126472590D01*
X116742538Y-126564184D01*
X116735693Y-126634272D01*
X116721014Y-126679647D01*
X116696030Y-126712665D01*
X116652263Y-126744386D01*
X116600000Y-126760680D01*
X116556233Y-126748634D01*
X116503970Y-126712665D01*
X116481448Y-126684115D01*
X116465638Y-126640921D01*
X116457964Y-126574532D01*
X116455955Y-126472590D01*
X116457462Y-126380995D01*
X116464308Y-126310908D01*
X116478987Y-126265533D01*
X116503970Y-126232514D01*
X116547737Y-126200793D01*
X116600000Y-126184499D01*
X116643767Y-126196545D01*
G37*
G36*
X117796130Y-126196545D02*
G01*
X117848393Y-126232514D01*
X117870915Y-126261064D01*
X117886726Y-126304258D01*
X117894400Y-126370648D01*
X117896408Y-126472590D01*
X117894901Y-126564184D01*
X117888056Y-126634272D01*
X117873377Y-126679647D01*
X117848393Y-126712665D01*
X117804626Y-126744386D01*
X117752363Y-126760680D01*
X117708596Y-126748634D01*
X117656333Y-126712665D01*
X117633811Y-126684115D01*
X117618001Y-126640921D01*
X117610327Y-126574532D01*
X117608318Y-126472590D01*
X117609825Y-126380995D01*
X117616671Y-126310908D01*
X117631350Y-126265533D01*
X117656333Y-126232514D01*
X117700100Y-126200793D01*
X117752363Y-126184499D01*
X117796130Y-126196545D01*
G37*
G36*
X117796130Y-129365543D02*
G01*
X117848393Y-129401512D01*
X117870915Y-129430063D01*
X117886726Y-129473256D01*
X117894400Y-129539646D01*
X117896408Y-129641588D01*
X117894901Y-129733182D01*
X117888056Y-129803270D01*
X117873377Y-129848645D01*
X117848393Y-129881663D01*
X117804626Y-129913385D01*
X117752363Y-129929678D01*
X117708596Y-129917632D01*
X117656333Y-129881663D01*
X117633811Y-129853113D01*
X117618001Y-129809920D01*
X117610327Y-129743530D01*
X117608318Y-129641588D01*
X117609825Y-129549993D01*
X117616671Y-129479906D01*
X117631350Y-129434531D01*
X117656333Y-129401512D01*
X117700100Y-129369791D01*
X117752363Y-129353497D01*
X117796130Y-129365543D01*
G37*
G36*
X118564184Y-128778823D02*
G01*
X118634272Y-128785668D01*
X118679647Y-128800347D01*
X118712666Y-128825331D01*
X118744387Y-128869098D01*
X118760681Y-128921361D01*
X118748635Y-128965128D01*
X118712666Y-129017391D01*
X118684115Y-129039913D01*
X118640922Y-129055723D01*
X118574532Y-129063397D01*
X118472590Y-129065406D01*
X118380995Y-129063899D01*
X118310908Y-129057053D01*
X118265533Y-129042374D01*
X118232514Y-129017391D01*
X118200793Y-128973624D01*
X118184499Y-128921361D01*
X118196545Y-128877594D01*
X118232514Y-128825331D01*
X118261065Y-128802809D01*
X118304258Y-128786998D01*
X118370648Y-128779324D01*
X118472590Y-128777316D01*
X118564184Y-128778823D01*
G37*
G36*
X119428457Y-127626460D02*
G01*
X119498544Y-127633305D01*
X119543919Y-127647984D01*
X119576938Y-127672968D01*
X119608659Y-127716735D01*
X119624953Y-127768998D01*
X119612907Y-127812765D01*
X119576938Y-127865028D01*
X119548387Y-127887550D01*
X119505194Y-127903360D01*
X119438804Y-127911035D01*
X119336862Y-127913043D01*
X119245268Y-127911536D01*
X119175180Y-127904690D01*
X119129805Y-127890012D01*
X119096787Y-127865028D01*
X119065065Y-127821261D01*
X119048771Y-127768998D01*
X119060818Y-127725231D01*
X119096787Y-127672968D01*
X119125337Y-127650446D01*
X119168530Y-127634635D01*
X119234920Y-127626961D01*
X119336862Y-127624953D01*
X119428457Y-127626460D01*
G37*
G36*
X119524675Y-129365543D02*
G01*
X119576938Y-129401512D01*
X119599460Y-129430063D01*
X119615270Y-129473256D01*
X119622944Y-129539646D01*
X119624953Y-129641588D01*
X119623446Y-129733182D01*
X119616600Y-129803270D01*
X119601921Y-129848645D01*
X119576938Y-129881663D01*
X119533170Y-129913385D01*
X119480908Y-129929678D01*
X119437140Y-129917632D01*
X119384877Y-129881663D01*
X119362355Y-129853113D01*
X119346545Y-129809920D01*
X119338871Y-129743530D01*
X119336862Y-129641588D01*
X119338369Y-129549993D01*
X119345215Y-129479906D01*
X119359894Y-129434531D01*
X119384877Y-129401512D01*
X119428645Y-129369791D01*
X119480908Y-129353497D01*
X119524675Y-129365543D01*
G37*
G36*
X112471421Y-119900520D02*
G01*
X112502929Y-119917981D01*
X112606305Y-120004874D01*
X112673721Y-120112611D01*
X112705179Y-120232415D01*
X112700678Y-120355508D01*
X112660217Y-120473115D01*
X112583799Y-120576457D01*
X112471421Y-120656758D01*
X112439442Y-120671305D01*
X112353086Y-120699554D01*
X112278639Y-120710775D01*
X112251554Y-120708773D01*
X112168745Y-120689621D01*
X112085857Y-120656758D01*
X112054349Y-120639297D01*
X111950973Y-120552404D01*
X111883557Y-120444667D01*
X111852099Y-120324863D01*
X111856601Y-120201769D01*
X111897061Y-120084163D01*
X111973480Y-119980821D01*
X112085857Y-119900520D01*
X112215170Y-119855021D01*
X112340967Y-119854814D01*
X112471421Y-119900520D01*
G37*
G36*
X121114143Y-119900520D02*
G01*
X121145652Y-119917981D01*
X121249027Y-120004874D01*
X121316443Y-120112611D01*
X121347901Y-120232415D01*
X121343400Y-120355508D01*
X121302940Y-120473115D01*
X121226521Y-120576457D01*
X121114143Y-120656758D01*
X121082165Y-120671305D01*
X120995808Y-120699554D01*
X120921361Y-120710775D01*
X120894276Y-120708773D01*
X120811467Y-120689621D01*
X120728580Y-120656758D01*
X120697071Y-120639297D01*
X120593696Y-120552404D01*
X120526279Y-120444667D01*
X120494821Y-120324863D01*
X120499323Y-120201769D01*
X120539783Y-120084163D01*
X120616202Y-119980821D01*
X120728580Y-119900520D01*
X120857892Y-119855021D01*
X120983689Y-119854814D01*
X121114143Y-119900520D01*
G37*
G36*
X120948447Y-128491227D02*
G01*
X121031255Y-128510378D01*
X121114143Y-128543242D01*
X121145652Y-128560703D01*
X121249027Y-128647596D01*
X121316443Y-128755333D01*
X121347901Y-128875137D01*
X121343400Y-128998231D01*
X121302940Y-129115837D01*
X121226521Y-129219179D01*
X121114143Y-129299480D01*
X121082165Y-129314027D01*
X120995808Y-129342276D01*
X120921361Y-129353497D01*
X120894276Y-129351495D01*
X120811467Y-129332343D01*
X120728580Y-129299480D01*
X120697071Y-129282019D01*
X120593696Y-129195126D01*
X120526279Y-129087389D01*
X120494821Y-128967585D01*
X120499323Y-128844491D01*
X120539783Y-128726885D01*
X120616202Y-128623543D01*
X120728580Y-128543242D01*
X120760558Y-128528695D01*
X120846915Y-128500446D01*
X120921361Y-128489225D01*
X120948447Y-128491227D01*
G37*
G36*
X111435225Y-125898360D02*
G01*
X111498338Y-125931878D01*
X111542062Y-125998797D01*
X111558412Y-126088469D01*
X111558412Y-126184499D01*
X111654442Y-126184499D01*
X111733408Y-126196204D01*
X111801891Y-126234736D01*
X111839126Y-126291578D01*
X111839773Y-126357825D01*
X111798488Y-126424575D01*
X111769937Y-126447096D01*
X111726744Y-126462907D01*
X111660354Y-126470581D01*
X111558412Y-126472590D01*
X111466818Y-126471083D01*
X111396730Y-126464237D01*
X111351355Y-126449558D01*
X111318337Y-126424575D01*
X111295815Y-126396024D01*
X111280004Y-126352831D01*
X111272330Y-126286441D01*
X111270322Y-126184499D01*
X111271829Y-126092904D01*
X111278674Y-126022817D01*
X111293353Y-125977442D01*
X111318337Y-125944423D01*
X111362104Y-125912702D01*
X111414367Y-125896408D01*
X111435225Y-125898360D01*
G37*
G36*
X111435225Y-128491177D02*
G01*
X111498338Y-128524695D01*
X111542062Y-128591614D01*
X111558412Y-128681285D01*
X111558412Y-128777316D01*
X111654442Y-128777316D01*
X111733408Y-128789021D01*
X111801891Y-128827553D01*
X111839126Y-128884395D01*
X111839773Y-128950642D01*
X111798488Y-129017391D01*
X111769937Y-129039913D01*
X111726744Y-129055723D01*
X111660354Y-129063397D01*
X111558412Y-129065406D01*
X111466818Y-129063899D01*
X111396730Y-129057053D01*
X111351355Y-129042374D01*
X111318337Y-129017391D01*
X111295815Y-128988841D01*
X111280004Y-128945647D01*
X111272330Y-128879258D01*
X111270322Y-128777316D01*
X111271829Y-128685721D01*
X111278674Y-128615634D01*
X111293353Y-128570259D01*
X111318337Y-128537240D01*
X111362104Y-128505519D01*
X111414367Y-128489225D01*
X111435225Y-128491177D01*
G37*
G36*
X112950851Y-124503970D02*
G01*
X112973373Y-124532520D01*
X112989183Y-124575713D01*
X112996857Y-124642103D01*
X112998866Y-124744045D01*
X112997359Y-124835640D01*
X112990513Y-124905727D01*
X112975834Y-124951102D01*
X112950851Y-124984121D01*
X112922300Y-125006643D01*
X112879107Y-125022453D01*
X112812717Y-125030127D01*
X112710775Y-125032136D01*
X112619181Y-125030629D01*
X112549093Y-125023783D01*
X112503718Y-125009104D01*
X112470700Y-124984121D01*
X112438978Y-124940354D01*
X112422684Y-124888091D01*
X112424636Y-124867233D01*
X112458154Y-124804120D01*
X112525073Y-124760395D01*
X112614745Y-124744045D01*
X112710775Y-124744045D01*
X112710775Y-124648015D01*
X112722480Y-124569049D01*
X112761012Y-124500567D01*
X112817854Y-124463331D01*
X112884102Y-124462684D01*
X112950851Y-124503970D01*
G37*
G36*
X114316132Y-121000818D02*
G01*
X114379245Y-121034335D01*
X114422970Y-121101255D01*
X114439320Y-121190926D01*
X114439320Y-121286956D01*
X114535350Y-121286956D01*
X114614315Y-121298662D01*
X114682798Y-121337194D01*
X114720034Y-121394035D01*
X114720680Y-121460283D01*
X114679395Y-121527032D01*
X114650845Y-121549554D01*
X114607651Y-121565364D01*
X114541262Y-121573038D01*
X114439320Y-121575047D01*
X114347725Y-121573540D01*
X114277638Y-121566694D01*
X114232263Y-121552015D01*
X114199244Y-121527032D01*
X114176722Y-121498482D01*
X114160912Y-121455288D01*
X114153238Y-121388899D01*
X114151229Y-121286956D01*
X114152736Y-121195362D01*
X114159582Y-121125274D01*
X114174261Y-121079899D01*
X114199244Y-121046881D01*
X114243011Y-121015160D01*
X114295274Y-120998866D01*
X114316132Y-121000818D01*
G37*
G36*
X115255577Y-121334972D02*
G01*
X115278099Y-121363522D01*
X115293909Y-121406715D01*
X115301583Y-121473105D01*
X115303592Y-121575047D01*
X115302085Y-121666642D01*
X115295239Y-121736729D01*
X115280560Y-121782104D01*
X115255577Y-121815123D01*
X115227026Y-121837645D01*
X115183833Y-121853455D01*
X115117443Y-121861129D01*
X115015501Y-121863138D01*
X114923907Y-121861631D01*
X114853819Y-121854785D01*
X114808444Y-121840106D01*
X114775425Y-121815123D01*
X114743704Y-121771355D01*
X114727410Y-121719092D01*
X114729362Y-121698234D01*
X114762880Y-121635122D01*
X114829799Y-121591397D01*
X114919471Y-121575047D01*
X115015501Y-121575047D01*
X115015501Y-121479017D01*
X115027206Y-121400051D01*
X115065738Y-121331569D01*
X115122580Y-121294333D01*
X115188828Y-121293686D01*
X115255577Y-121334972D01*
G37*
G36*
X118276094Y-125897915D02*
G01*
X118346181Y-125904761D01*
X118391556Y-125919440D01*
X118424575Y-125944423D01*
X118447097Y-125972974D01*
X118462907Y-126016167D01*
X118470581Y-126082557D01*
X118472590Y-126184499D01*
X118471083Y-126276093D01*
X118464237Y-126346181D01*
X118449558Y-126391556D01*
X118424575Y-126424575D01*
X118380807Y-126456296D01*
X118328545Y-126472590D01*
X118307686Y-126470638D01*
X118244574Y-126437120D01*
X118200849Y-126370201D01*
X118184499Y-126280529D01*
X118184499Y-126184499D01*
X118088469Y-126184499D01*
X118009503Y-126172794D01*
X117941021Y-126134262D01*
X117903785Y-126077420D01*
X117903138Y-126011172D01*
X117944424Y-125944423D01*
X117972974Y-125921901D01*
X118016167Y-125906091D01*
X118082557Y-125898417D01*
X118184499Y-125896408D01*
X118276094Y-125897915D01*
G37*
G36*
X121733183Y-121576554D02*
G01*
X121803270Y-121583400D01*
X121848645Y-121598079D01*
X121881664Y-121623062D01*
X121904185Y-121651613D01*
X121919996Y-121694806D01*
X121927670Y-121761196D01*
X121929679Y-121863138D01*
X121928172Y-121954732D01*
X121921326Y-122024820D01*
X121906647Y-122070195D01*
X121881664Y-122103213D01*
X121837896Y-122134935D01*
X121785633Y-122151229D01*
X121764775Y-122149277D01*
X121701663Y-122115759D01*
X121657938Y-122048840D01*
X121641588Y-121959168D01*
X121641588Y-121863138D01*
X121545558Y-121863138D01*
X121466592Y-121851433D01*
X121398110Y-121812901D01*
X121360874Y-121756059D01*
X121360227Y-121689811D01*
X121401512Y-121623062D01*
X121430063Y-121600540D01*
X121473256Y-121584730D01*
X121539646Y-121577056D01*
X121641588Y-121575047D01*
X121733183Y-121576554D01*
G37*
G36*
X111811859Y-129641924D02*
G01*
X111915435Y-129643895D01*
X111986179Y-129648584D01*
X112032607Y-129657056D01*
X112063235Y-129670374D01*
X112086579Y-129689603D01*
X112118300Y-129733370D01*
X112134594Y-129785633D01*
X112122548Y-129829400D01*
X112086579Y-129881663D01*
X112068646Y-129897244D01*
X112040331Y-129911759D01*
X111998070Y-129921195D01*
X111933348Y-129926618D01*
X111837649Y-129929091D01*
X111702458Y-129929678D01*
X111593057Y-129929343D01*
X111489480Y-129927371D01*
X111418736Y-129922682D01*
X111372308Y-129914210D01*
X111341680Y-129900892D01*
X111318337Y-129881663D01*
X111286615Y-129837896D01*
X111270322Y-129785633D01*
X111282368Y-129741866D01*
X111318337Y-129689603D01*
X111336269Y-129674022D01*
X111364584Y-129659507D01*
X111406845Y-129650071D01*
X111471568Y-129644648D01*
X111567266Y-129642175D01*
X111702458Y-129641588D01*
X111811859Y-129641924D01*
G37*
G36*
X114339042Y-126484636D02*
G01*
X114391304Y-126520605D01*
X114406885Y-126538537D01*
X114421400Y-126566853D01*
X114430837Y-126609114D01*
X114436259Y-126673836D01*
X114438732Y-126769535D01*
X114439320Y-126904726D01*
X114438984Y-127014127D01*
X114437012Y-127117703D01*
X114432323Y-127188447D01*
X114423852Y-127234876D01*
X114410534Y-127265504D01*
X114391304Y-127288847D01*
X114347537Y-127320568D01*
X114295274Y-127336862D01*
X114251507Y-127324816D01*
X114199244Y-127288847D01*
X114183663Y-127270915D01*
X114169148Y-127242599D01*
X114159712Y-127200338D01*
X114154289Y-127135616D01*
X114151817Y-127039917D01*
X114151229Y-126904726D01*
X114151565Y-126795325D01*
X114153536Y-126691749D01*
X114158226Y-126621004D01*
X114166697Y-126574576D01*
X114180015Y-126543948D01*
X114199244Y-126520605D01*
X114243011Y-126488884D01*
X114295274Y-126472590D01*
X114339042Y-126484636D01*
G37*
G36*
X115543667Y-120470699D02*
G01*
X115559248Y-120488631D01*
X115573763Y-120516947D01*
X115583200Y-120559208D01*
X115588622Y-120623930D01*
X115591095Y-120719629D01*
X115591683Y-120854820D01*
X115591347Y-120964221D01*
X115589375Y-121067797D01*
X115584686Y-121138542D01*
X115576215Y-121184970D01*
X115562897Y-121215598D01*
X115543667Y-121238941D01*
X115499900Y-121270662D01*
X115447637Y-121286956D01*
X115426779Y-121285004D01*
X115363666Y-121251487D01*
X115319942Y-121184567D01*
X115303592Y-121094896D01*
X115303592Y-120998866D01*
X115207562Y-120998866D01*
X115128596Y-120987160D01*
X115060113Y-120948628D01*
X115022878Y-120891787D01*
X115022231Y-120825539D01*
X115063516Y-120758790D01*
X115110338Y-120727751D01*
X115207562Y-120710775D01*
X115303592Y-120710775D01*
X115303592Y-120614745D01*
X115315297Y-120535779D01*
X115353829Y-120467296D01*
X115410671Y-120430061D01*
X115476918Y-120429414D01*
X115543667Y-120470699D01*
G37*
G36*
X115686953Y-129356487D02*
G01*
X115781395Y-129372497D01*
X115840531Y-129406357D01*
X115871083Y-129462551D01*
X115879773Y-129545558D01*
X115879773Y-129641588D01*
X115975804Y-129641588D01*
X116054769Y-129653293D01*
X116123252Y-129691825D01*
X116160488Y-129748667D01*
X116161134Y-129814914D01*
X116119849Y-129881663D01*
X116101917Y-129897244D01*
X116073601Y-129911759D01*
X116031340Y-129921195D01*
X115966618Y-129926618D01*
X115870919Y-129929091D01*
X115735728Y-129929678D01*
X115697495Y-129929656D01*
X115553808Y-129927931D01*
X115450143Y-129920319D01*
X115379970Y-129902467D01*
X115336759Y-129870021D01*
X115313979Y-129818629D01*
X115305100Y-129743935D01*
X115303592Y-129641588D01*
X115305099Y-129549993D01*
X115311945Y-129479906D01*
X115326624Y-129434531D01*
X115351607Y-129401512D01*
X115380157Y-129378990D01*
X115423351Y-129363180D01*
X115489740Y-129355506D01*
X115591683Y-129353497D01*
X115686953Y-129356487D01*
G37*
G36*
X116974412Y-119307311D02*
G01*
X117016221Y-119371498D01*
X117032136Y-119462382D01*
X117032136Y-119558412D01*
X117272212Y-119558412D01*
X117345918Y-119558810D01*
X117435304Y-119561968D01*
X117493754Y-119569778D01*
X117531883Y-119584008D01*
X117560303Y-119606427D01*
X117592024Y-119650194D01*
X117608318Y-119702457D01*
X117596272Y-119746225D01*
X117560303Y-119798488D01*
X117542370Y-119814068D01*
X117514055Y-119828583D01*
X117471794Y-119838020D01*
X117407072Y-119843442D01*
X117311373Y-119845915D01*
X117176182Y-119846503D01*
X117137949Y-119846481D01*
X116994261Y-119844755D01*
X116890597Y-119837143D01*
X116820424Y-119819291D01*
X116777213Y-119786845D01*
X116754433Y-119735453D01*
X116745554Y-119660760D01*
X116744046Y-119558412D01*
X116745553Y-119466817D01*
X116752398Y-119396730D01*
X116767077Y-119351355D01*
X116792061Y-119318336D01*
X116848730Y-119280395D01*
X116915614Y-119275163D01*
X116974412Y-119307311D01*
G37*
G36*
X117415497Y-125323217D02*
G01*
X117509939Y-125339226D01*
X117569075Y-125373087D01*
X117599627Y-125429280D01*
X117608318Y-125512287D01*
X117608318Y-125608317D01*
X117704348Y-125608317D01*
X117783314Y-125620023D01*
X117851796Y-125658555D01*
X117889032Y-125715396D01*
X117889678Y-125781644D01*
X117848393Y-125848393D01*
X117830461Y-125863974D01*
X117802146Y-125878489D01*
X117759885Y-125887925D01*
X117695162Y-125893348D01*
X117599464Y-125895820D01*
X117464272Y-125896408D01*
X117426039Y-125896386D01*
X117282352Y-125894660D01*
X117178687Y-125887048D01*
X117108515Y-125869196D01*
X117065303Y-125836751D01*
X117042524Y-125785358D01*
X117033645Y-125710665D01*
X117032136Y-125608317D01*
X117033643Y-125516723D01*
X117040489Y-125446635D01*
X117055168Y-125401260D01*
X117080151Y-125368242D01*
X117108702Y-125345720D01*
X117151895Y-125329910D01*
X117218285Y-125322236D01*
X117320227Y-125320227D01*
X117415497Y-125323217D01*
G37*
G36*
X119000756Y-129113421D02*
G01*
X119016337Y-129131354D01*
X119030852Y-129159669D01*
X119040288Y-129201930D01*
X119045711Y-129266652D01*
X119048184Y-129362351D01*
X119048771Y-129497542D01*
X119048435Y-129606943D01*
X119046464Y-129710520D01*
X119041775Y-129781264D01*
X119033303Y-129827692D01*
X119019985Y-129858320D01*
X119000756Y-129881663D01*
X118956989Y-129913385D01*
X118904726Y-129929678D01*
X118883868Y-129927727D01*
X118820755Y-129894209D01*
X118777030Y-129827289D01*
X118760681Y-129737618D01*
X118760681Y-129641588D01*
X118664650Y-129641588D01*
X118585685Y-129629882D01*
X118517202Y-129591351D01*
X118479966Y-129534509D01*
X118479320Y-129468261D01*
X118520605Y-129401512D01*
X118567426Y-129370473D01*
X118664650Y-129353497D01*
X118760681Y-129353497D01*
X118760681Y-129257467D01*
X118772386Y-129178501D01*
X118810918Y-129110019D01*
X118867760Y-129072783D01*
X118934007Y-129072136D01*
X119000756Y-129113421D01*
G37*
G36*
X119865028Y-125944423D02*
G01*
X119896068Y-125991245D01*
X119913044Y-126088469D01*
X119913044Y-126184499D01*
X120009074Y-126184499D01*
X120088039Y-126196204D01*
X120156522Y-126234736D01*
X120193758Y-126291578D01*
X120194404Y-126357825D01*
X120153119Y-126424575D01*
X120135187Y-126440155D01*
X120106871Y-126454670D01*
X120064610Y-126464107D01*
X119999888Y-126469529D01*
X119904190Y-126472002D01*
X119768998Y-126472590D01*
X119659597Y-126472254D01*
X119556021Y-126470282D01*
X119485277Y-126465593D01*
X119438848Y-126457122D01*
X119408220Y-126443804D01*
X119384877Y-126424575D01*
X119353156Y-126380807D01*
X119336862Y-126328544D01*
X119338814Y-126307686D01*
X119372332Y-126244574D01*
X119439251Y-126200849D01*
X119528923Y-126184499D01*
X119624953Y-126184499D01*
X119624953Y-126088469D01*
X119636658Y-126009503D01*
X119675190Y-125941021D01*
X119732032Y-125903785D01*
X119798279Y-125903138D01*
X119865028Y-125944423D01*
G37*
G36*
X121160677Y-127051761D02*
G01*
X121255119Y-127067771D01*
X121314255Y-127101632D01*
X121344807Y-127157825D01*
X121353497Y-127240832D01*
X121353497Y-127336862D01*
X121449528Y-127336862D01*
X121528493Y-127348567D01*
X121596976Y-127387099D01*
X121634212Y-127443941D01*
X121634858Y-127510188D01*
X121593573Y-127576937D01*
X121575641Y-127592518D01*
X121547325Y-127607033D01*
X121505064Y-127616470D01*
X121440342Y-127621892D01*
X121344643Y-127624365D01*
X121209452Y-127624953D01*
X121171219Y-127624931D01*
X121027532Y-127623205D01*
X120923867Y-127615593D01*
X120853694Y-127597741D01*
X120810483Y-127565295D01*
X120787703Y-127513903D01*
X120778824Y-127439209D01*
X120777316Y-127336862D01*
X120778823Y-127245267D01*
X120785669Y-127175180D01*
X120800348Y-127129805D01*
X120825331Y-127096786D01*
X120853881Y-127074264D01*
X120897075Y-127058454D01*
X120963464Y-127050780D01*
X121065407Y-127048771D01*
X121160677Y-127051761D01*
G37*
G36*
X121667077Y-123015534D02*
G01*
X121762868Y-123018123D01*
X121831978Y-123029541D01*
X121878760Y-123056319D01*
X121907567Y-123104987D01*
X121922754Y-123182076D01*
X121928673Y-123294116D01*
X121929679Y-123447637D01*
X121929343Y-123557038D01*
X121927371Y-123660614D01*
X121922682Y-123731358D01*
X121914211Y-123777787D01*
X121900893Y-123808415D01*
X121881664Y-123831758D01*
X121837896Y-123863479D01*
X121785633Y-123879773D01*
X121741866Y-123867727D01*
X121689603Y-123831758D01*
X121674942Y-123815106D01*
X121657696Y-123782070D01*
X121647568Y-123732894D01*
X121642788Y-123656964D01*
X121641588Y-123543667D01*
X121641588Y-123303592D01*
X121545558Y-123303592D01*
X121466592Y-123291886D01*
X121398110Y-123253354D01*
X121360874Y-123196513D01*
X121360227Y-123130265D01*
X121401512Y-123063516D01*
X121430063Y-123040994D01*
X121473256Y-123025184D01*
X121539646Y-123017510D01*
X121641588Y-123015501D01*
X121667077Y-123015534D01*
G37*
G36*
X111938097Y-124745552D02*
G01*
X112008185Y-124752398D01*
X112053560Y-124767077D01*
X112086579Y-124792060D01*
X112118300Y-124835828D01*
X112134594Y-124888091D01*
X112132642Y-124908949D01*
X112099124Y-124972061D01*
X112032205Y-125015786D01*
X111942533Y-125032136D01*
X111846503Y-125032136D01*
X111846503Y-125128166D01*
X111838612Y-125198136D01*
X111798488Y-125272212D01*
X111769937Y-125294733D01*
X111726744Y-125310544D01*
X111660354Y-125318218D01*
X111558412Y-125320227D01*
X111466818Y-125318720D01*
X111396730Y-125311874D01*
X111351355Y-125297195D01*
X111318337Y-125272212D01*
X111286615Y-125228444D01*
X111270322Y-125176181D01*
X111272273Y-125155323D01*
X111305791Y-125092211D01*
X111372711Y-125048486D01*
X111462382Y-125032136D01*
X111558412Y-125032136D01*
X111558412Y-124936106D01*
X111562897Y-124872592D01*
X111586912Y-124809631D01*
X111637703Y-124770207D01*
X111721993Y-124749839D01*
X111846503Y-124744045D01*
X111938097Y-124745552D01*
G37*
G36*
X119524675Y-121010912D02*
G01*
X119576938Y-121046881D01*
X119592518Y-121064813D01*
X119607033Y-121093129D01*
X119616470Y-121135390D01*
X119621892Y-121200112D01*
X119624365Y-121295810D01*
X119624953Y-121431002D01*
X119624617Y-121540403D01*
X119622645Y-121643979D01*
X119617956Y-121714723D01*
X119609485Y-121761152D01*
X119596167Y-121791780D01*
X119576938Y-121815123D01*
X119548387Y-121837645D01*
X119505194Y-121853455D01*
X119438804Y-121861129D01*
X119336862Y-121863138D01*
X119245268Y-121861631D01*
X119175180Y-121854785D01*
X119129805Y-121840106D01*
X119096787Y-121815123D01*
X119065065Y-121771355D01*
X119048771Y-121719092D01*
X119050723Y-121698234D01*
X119084241Y-121635122D01*
X119151160Y-121591397D01*
X119240832Y-121575047D01*
X119336862Y-121575047D01*
X119336862Y-121334972D01*
X119337260Y-121261265D01*
X119340418Y-121171879D01*
X119348228Y-121113429D01*
X119362458Y-121075301D01*
X119384877Y-121046881D01*
X119428645Y-121015160D01*
X119480908Y-120998866D01*
X119524675Y-121010912D01*
G37*
G36*
X112662760Y-123639697D02*
G01*
X112693799Y-123686519D01*
X112710775Y-123783743D01*
X112710775Y-123879773D01*
X112806805Y-123879773D01*
X112885771Y-123891478D01*
X112954254Y-123930010D01*
X112991489Y-123986852D01*
X112992136Y-124053100D01*
X112950851Y-124119849D01*
X112934199Y-124134510D01*
X112901163Y-124151756D01*
X112851987Y-124161884D01*
X112776057Y-124166664D01*
X112662760Y-124167864D01*
X112422684Y-124167864D01*
X112422684Y-124263894D01*
X112414793Y-124333864D01*
X112374669Y-124407939D01*
X112330902Y-124439661D01*
X112278639Y-124455954D01*
X112234872Y-124443908D01*
X112182609Y-124407939D01*
X112160087Y-124379389D01*
X112144277Y-124336196D01*
X112136603Y-124269806D01*
X112134594Y-124167864D01*
X112137584Y-124072593D01*
X112153593Y-123978152D01*
X112187454Y-123919016D01*
X112243647Y-123888463D01*
X112326654Y-123879773D01*
X112422684Y-123879773D01*
X112422684Y-123783743D01*
X112434390Y-123704777D01*
X112472922Y-123636295D01*
X112529763Y-123599059D01*
X112596011Y-123598412D01*
X112662760Y-123639697D01*
G37*
G36*
X111740690Y-127336884D02*
G01*
X111884378Y-127338610D01*
X111988043Y-127346222D01*
X112058215Y-127364074D01*
X112101427Y-127396519D01*
X112124206Y-127447912D01*
X112133085Y-127522605D01*
X112134594Y-127624953D01*
X112133087Y-127716547D01*
X112126241Y-127786635D01*
X112111562Y-127832010D01*
X112086579Y-127865028D01*
X112042811Y-127896749D01*
X111990548Y-127913043D01*
X111969690Y-127911091D01*
X111906578Y-127877574D01*
X111862853Y-127810654D01*
X111846503Y-127720983D01*
X111846503Y-127624953D01*
X111702458Y-127624953D01*
X111558412Y-127624953D01*
X111558412Y-127720983D01*
X111546707Y-127799948D01*
X111508175Y-127868431D01*
X111451333Y-127905667D01*
X111385086Y-127906313D01*
X111318337Y-127865028D01*
X111295815Y-127836478D01*
X111280004Y-127793284D01*
X111272330Y-127726895D01*
X111270322Y-127624953D01*
X111270355Y-127599464D01*
X111272943Y-127503672D01*
X111284361Y-127434563D01*
X111311139Y-127387781D01*
X111359807Y-127358973D01*
X111436896Y-127343787D01*
X111548936Y-127337867D01*
X111702458Y-127336862D01*
X111740690Y-127336884D01*
G37*
G36*
X113608575Y-121575054D02*
G01*
X113764800Y-121575479D01*
X113881106Y-121577013D01*
X113964330Y-121580276D01*
X114021314Y-121585891D01*
X114058896Y-121594479D01*
X114083917Y-121606662D01*
X114103214Y-121623062D01*
X114134935Y-121666830D01*
X114151229Y-121719092D01*
X114139183Y-121762860D01*
X114103214Y-121815123D01*
X114097242Y-121820870D01*
X114074448Y-121837411D01*
X114042803Y-121848993D01*
X113994476Y-121856487D01*
X113921634Y-121860762D01*
X113816445Y-121862689D01*
X113671078Y-121863138D01*
X113286957Y-121863138D01*
X113286957Y-121959168D01*
X113279066Y-122029138D01*
X113238942Y-122103213D01*
X113195174Y-122134935D01*
X113142911Y-122151229D01*
X113099144Y-122139182D01*
X113046881Y-122103213D01*
X113024359Y-122074663D01*
X113008549Y-122031470D01*
X113000875Y-121965080D01*
X112998866Y-121863138D01*
X112998921Y-121799883D01*
X113001842Y-121724099D01*
X113013196Y-121667592D01*
X113038638Y-121627535D01*
X113083820Y-121601100D01*
X113154398Y-121585461D01*
X113256026Y-121577791D01*
X113394358Y-121575262D01*
X113575047Y-121575047D01*
X113608575Y-121575054D01*
G37*
G36*
X117699912Y-128778823D02*
G01*
X117770000Y-128785668D01*
X117815375Y-128800347D01*
X117848393Y-128825331D01*
X117880115Y-128869098D01*
X117896408Y-128921361D01*
X117894457Y-128942219D01*
X117860939Y-129005332D01*
X117794019Y-129049056D01*
X117704348Y-129065406D01*
X117608318Y-129065406D01*
X117608318Y-129161437D01*
X117606074Y-129200714D01*
X117576753Y-129285593D01*
X117513481Y-129336521D01*
X117416257Y-129353497D01*
X117320227Y-129353497D01*
X117320227Y-129449527D01*
X117312336Y-129519497D01*
X117272212Y-129593573D01*
X117228445Y-129625294D01*
X117176182Y-129641588D01*
X117132414Y-129629542D01*
X117080151Y-129593573D01*
X117057630Y-129565022D01*
X117041819Y-129521829D01*
X117034145Y-129455439D01*
X117032136Y-129353497D01*
X117035126Y-129258227D01*
X117051136Y-129163785D01*
X117084997Y-129104649D01*
X117141190Y-129074097D01*
X117224197Y-129065406D01*
X117320227Y-129065406D01*
X117320227Y-128969376D01*
X117324712Y-128905863D01*
X117348726Y-128842901D01*
X117399518Y-128803477D01*
X117483807Y-128783109D01*
X117608318Y-128777316D01*
X117699912Y-128778823D01*
G37*
G36*
X118925584Y-125322179D02*
G01*
X118988697Y-125355696D01*
X119032422Y-125422616D01*
X119048771Y-125512287D01*
X119048771Y-125608317D01*
X119288847Y-125608317D01*
X119362553Y-125608715D01*
X119451939Y-125611874D01*
X119510389Y-125619683D01*
X119548518Y-125633913D01*
X119576938Y-125656333D01*
X119608659Y-125700100D01*
X119624953Y-125752363D01*
X119623001Y-125773221D01*
X119589483Y-125836334D01*
X119522564Y-125880058D01*
X119432892Y-125896408D01*
X119336862Y-125896408D01*
X119336862Y-125992438D01*
X119328971Y-126062408D01*
X119288847Y-126136484D01*
X119245080Y-126168205D01*
X119192817Y-126184499D01*
X119171959Y-126182547D01*
X119108846Y-126149029D01*
X119065121Y-126082110D01*
X119048771Y-125992438D01*
X119048771Y-125896408D01*
X118952741Y-125896408D01*
X118889228Y-125891923D01*
X118826267Y-125867909D01*
X118786842Y-125817118D01*
X118766474Y-125732828D01*
X118760681Y-125608317D01*
X118762188Y-125516723D01*
X118769034Y-125446635D01*
X118783712Y-125401260D01*
X118808696Y-125368242D01*
X118852463Y-125336521D01*
X118904726Y-125320227D01*
X118925584Y-125322179D01*
G37*
G36*
X121829401Y-125908454D02*
G01*
X121881664Y-125944423D01*
X121885016Y-125947844D01*
X121900596Y-125967679D01*
X121912073Y-125994491D01*
X121920069Y-126035120D01*
X121925206Y-126096405D01*
X121928105Y-126185185D01*
X121929389Y-126308300D01*
X121929679Y-126472590D01*
X121929672Y-126506118D01*
X121929246Y-126662343D01*
X121927713Y-126778648D01*
X121924450Y-126861873D01*
X121918835Y-126918856D01*
X121910247Y-126956439D01*
X121898064Y-126981459D01*
X121881664Y-127000756D01*
X121853113Y-127023278D01*
X121809920Y-127039088D01*
X121743530Y-127046762D01*
X121641588Y-127048771D01*
X121549994Y-127047264D01*
X121479906Y-127040418D01*
X121434531Y-127025739D01*
X121401512Y-127000756D01*
X121369791Y-126956989D01*
X121353497Y-126904726D01*
X121355449Y-126883868D01*
X121388967Y-126820755D01*
X121455886Y-126777030D01*
X121545558Y-126760680D01*
X121641588Y-126760680D01*
X121641588Y-126376559D01*
X121641616Y-126330556D01*
X121642398Y-126197444D01*
X121644906Y-126102277D01*
X121650010Y-126037224D01*
X121658581Y-125994452D01*
X121671488Y-125966129D01*
X121689603Y-125944423D01*
X121733371Y-125912702D01*
X121785633Y-125896408D01*
X121829401Y-125908454D01*
G37*
G36*
X120004638Y-126762188D02*
G01*
X120074726Y-126769033D01*
X120120101Y-126783712D01*
X120153119Y-126808696D01*
X120184840Y-126852463D01*
X120201134Y-126904726D01*
X120199182Y-126925584D01*
X120165665Y-126988697D01*
X120098745Y-127032421D01*
X120009074Y-127048771D01*
X119913044Y-127048771D01*
X119913044Y-127192816D01*
X119913044Y-127336862D01*
X120153119Y-127336862D01*
X120226825Y-127337260D01*
X120316211Y-127340418D01*
X120374662Y-127348228D01*
X120412790Y-127362458D01*
X120441210Y-127384877D01*
X120472931Y-127428644D01*
X120489225Y-127480907D01*
X120477179Y-127524675D01*
X120441210Y-127576937D01*
X120423278Y-127592518D01*
X120394962Y-127607033D01*
X120352701Y-127616470D01*
X120287979Y-127621892D01*
X120192280Y-127624365D01*
X120057089Y-127624953D01*
X119954754Y-127625026D01*
X119828170Y-127622545D01*
X119738932Y-127611167D01*
X119680528Y-127584378D01*
X119646442Y-127535662D01*
X119630161Y-127458507D01*
X119625169Y-127346396D01*
X119624953Y-127192816D01*
X119624975Y-127154584D01*
X119626701Y-127010896D01*
X119634313Y-126907231D01*
X119652165Y-126837059D01*
X119684610Y-126793848D01*
X119736003Y-126771068D01*
X119810696Y-126762189D01*
X119913044Y-126760680D01*
X120004638Y-126762188D01*
G37*
G36*
X117411821Y-123881280D02*
G01*
X117481909Y-123888126D01*
X117527284Y-123902805D01*
X117560303Y-123927788D01*
X117582824Y-123956339D01*
X117598635Y-123999532D01*
X117606309Y-124065922D01*
X117608318Y-124167864D01*
X117605328Y-124263134D01*
X117589318Y-124357576D01*
X117555457Y-124416712D01*
X117499264Y-124447264D01*
X117416257Y-124455954D01*
X117320227Y-124455954D01*
X117320227Y-124600000D01*
X117320227Y-124744045D01*
X117416257Y-124744045D01*
X117495223Y-124755751D01*
X117563705Y-124794282D01*
X117600941Y-124851124D01*
X117601588Y-124917372D01*
X117560303Y-124984121D01*
X117531752Y-125006643D01*
X117488559Y-125022453D01*
X117422169Y-125030127D01*
X117320227Y-125032136D01*
X117309156Y-125032124D01*
X117198296Y-125028654D01*
X117121700Y-125013953D01*
X117073078Y-124980681D01*
X117046138Y-124921496D01*
X117034588Y-124829059D01*
X117032136Y-124696030D01*
X117032136Y-124455954D01*
X116936106Y-124455954D01*
X116857140Y-124444249D01*
X116788658Y-124405717D01*
X116751422Y-124348875D01*
X116750775Y-124282628D01*
X116792061Y-124215879D01*
X116838882Y-124184840D01*
X116936106Y-124167864D01*
X116969763Y-124167633D01*
X117013655Y-124160614D01*
X117029826Y-124133301D01*
X117032136Y-124071834D01*
X117036621Y-124008320D01*
X117060636Y-123945359D01*
X117111427Y-123905935D01*
X117195717Y-123885567D01*
X117320227Y-123879773D01*
X117411821Y-123881280D01*
G37*
G36*
X117272212Y-120182609D02*
G01*
X117275564Y-120186030D01*
X117291144Y-120205864D01*
X117302621Y-120232676D01*
X117310617Y-120273305D01*
X117315754Y-120334590D01*
X117318654Y-120423370D01*
X117319937Y-120546485D01*
X117320227Y-120710775D01*
X117320220Y-120744303D01*
X117319795Y-120900528D01*
X117318261Y-121016833D01*
X117314998Y-121100058D01*
X117309383Y-121157042D01*
X117300795Y-121194624D01*
X117288612Y-121219644D01*
X117272212Y-121238941D01*
X117228445Y-121270662D01*
X117176182Y-121286956D01*
X117132414Y-121274910D01*
X117080151Y-121238941D01*
X117065490Y-121222289D01*
X117048244Y-121189253D01*
X117038116Y-121140077D01*
X117033336Y-121064148D01*
X117032136Y-120950851D01*
X117032136Y-120710775D01*
X116648015Y-120710775D01*
X116602012Y-120710747D01*
X116468900Y-120709965D01*
X116373733Y-120707457D01*
X116308680Y-120702353D01*
X116265908Y-120693782D01*
X116237585Y-120680875D01*
X116215879Y-120662760D01*
X116184158Y-120618992D01*
X116167864Y-120566730D01*
X116179910Y-120522962D01*
X116215879Y-120470699D01*
X116221851Y-120464952D01*
X116244645Y-120448411D01*
X116276290Y-120436829D01*
X116324617Y-120429335D01*
X116397459Y-120425060D01*
X116502648Y-120423133D01*
X116648015Y-120422684D01*
X117032136Y-120422684D01*
X117032136Y-120326654D01*
X117043842Y-120247688D01*
X117082373Y-120179206D01*
X117139215Y-120141970D01*
X117205463Y-120141323D01*
X117272212Y-120182609D01*
G37*
G36*
X121098935Y-123879780D02*
G01*
X121255160Y-123880205D01*
X121371465Y-123881739D01*
X121454690Y-123885002D01*
X121511673Y-123890617D01*
X121549256Y-123899205D01*
X121574276Y-123911388D01*
X121593573Y-123927788D01*
X121625294Y-123971555D01*
X121641588Y-124023818D01*
X121639636Y-124044676D01*
X121606118Y-124107789D01*
X121539199Y-124151514D01*
X121449528Y-124167864D01*
X121353497Y-124167864D01*
X121353497Y-124407939D01*
X121353099Y-124481645D01*
X121349941Y-124571031D01*
X121342132Y-124629482D01*
X121327902Y-124667610D01*
X121305482Y-124696030D01*
X121261715Y-124727751D01*
X121209452Y-124744045D01*
X121165685Y-124731999D01*
X121113422Y-124696030D01*
X121098760Y-124679378D01*
X121081515Y-124646342D01*
X121071386Y-124597166D01*
X121066607Y-124521236D01*
X121065407Y-124407939D01*
X121065407Y-124167864D01*
X120921361Y-124167864D01*
X120777316Y-124167864D01*
X120777316Y-124263894D01*
X120772831Y-124327408D01*
X120748816Y-124390369D01*
X120698025Y-124429793D01*
X120613735Y-124450161D01*
X120489225Y-124455954D01*
X120397631Y-124454447D01*
X120327543Y-124447602D01*
X120282168Y-124432923D01*
X120249149Y-124407939D01*
X120217428Y-124364172D01*
X120201134Y-124311909D01*
X120203086Y-124291051D01*
X120236604Y-124227938D01*
X120303523Y-124184214D01*
X120393195Y-124167864D01*
X120426852Y-124167633D01*
X120470744Y-124160614D01*
X120486915Y-124133301D01*
X120489225Y-124071834D01*
X120497116Y-124001864D01*
X120537240Y-123927788D01*
X120540661Y-123924436D01*
X120560496Y-123908856D01*
X120587308Y-123897379D01*
X120627937Y-123889383D01*
X120689222Y-123884246D01*
X120778002Y-123881346D01*
X120901117Y-123880063D01*
X121065407Y-123879773D01*
X121098935Y-123879780D01*
G37*
G36*
X116350142Y-127624975D02*
G01*
X116493830Y-127626700D01*
X116597494Y-127634312D01*
X116667667Y-127652164D01*
X116710878Y-127684610D01*
X116733658Y-127736002D01*
X116742537Y-127810696D01*
X116744046Y-127913043D01*
X116741056Y-128008314D01*
X116725046Y-128102755D01*
X116691185Y-128161891D01*
X116634992Y-128192444D01*
X116551985Y-128201134D01*
X116455955Y-128201134D01*
X116455955Y-128345179D01*
X116455955Y-128489225D01*
X116551985Y-128489225D01*
X116630951Y-128500930D01*
X116699433Y-128539462D01*
X116736669Y-128596304D01*
X116737316Y-128662551D01*
X116696030Y-128729300D01*
X116649209Y-128760340D01*
X116551985Y-128777316D01*
X116455955Y-128777316D01*
X116455955Y-128873346D01*
X116448064Y-128943315D01*
X116407940Y-129017391D01*
X116361118Y-129048430D01*
X116263894Y-129065406D01*
X116167864Y-129065406D01*
X116167864Y-129161437D01*
X116159973Y-129231406D01*
X116119849Y-129305482D01*
X116076082Y-129337203D01*
X116023819Y-129353497D01*
X115980051Y-129341451D01*
X115927788Y-129305482D01*
X115913127Y-129288830D01*
X115895881Y-129255794D01*
X115885753Y-129206618D01*
X115880973Y-129130688D01*
X115879773Y-129017391D01*
X115879773Y-128777316D01*
X115783743Y-128777316D01*
X115720230Y-128772831D01*
X115657268Y-128748816D01*
X115617844Y-128698025D01*
X115597476Y-128613735D01*
X115591683Y-128489225D01*
X115594673Y-128393955D01*
X115610682Y-128299513D01*
X115644543Y-128240377D01*
X115700736Y-128209824D01*
X115783743Y-128201134D01*
X115879773Y-128201134D01*
X115879773Y-127961058D01*
X115879817Y-127909356D01*
X115882436Y-127803413D01*
X115893869Y-127727710D01*
X115920649Y-127677166D01*
X115969309Y-127646701D01*
X116046384Y-127631231D01*
X116158406Y-127625675D01*
X116311909Y-127624953D01*
X116350142Y-127624975D01*
G37*
G36*
X121907265Y-120466731D02*
G01*
X121849421Y-120659597D01*
X121751332Y-120840784D01*
X121612526Y-121003968D01*
X121478165Y-121111545D01*
X121309065Y-121205279D01*
X121136342Y-121262246D01*
X121124671Y-121264550D01*
X120991010Y-121276756D01*
X120837433Y-121271399D01*
X120685673Y-121250251D01*
X120557467Y-121215083D01*
X120509376Y-121195270D01*
X120329152Y-121090812D01*
X120177353Y-120953400D01*
X120057182Y-120789520D01*
X119971841Y-120605657D01*
X119924535Y-120408296D01*
X119918986Y-120221422D01*
X120210998Y-120221422D01*
X120217117Y-120388375D01*
X120260003Y-120548642D01*
X120338306Y-120694806D01*
X120450677Y-120819451D01*
X120595765Y-120915160D01*
X120764196Y-120974278D01*
X120939525Y-120991903D01*
X121110579Y-120968289D01*
X121269752Y-120905448D01*
X121409440Y-120805391D01*
X121522037Y-120670129D01*
X121596031Y-120517885D01*
X121633689Y-120347148D01*
X121629749Y-120176365D01*
X121586202Y-120012767D01*
X121505038Y-119863586D01*
X121388247Y-119736053D01*
X121237819Y-119637399D01*
X121170320Y-119608901D01*
X121003787Y-119571528D01*
X120832293Y-119573064D01*
X120666172Y-119611620D01*
X120515753Y-119685304D01*
X120391372Y-119792228D01*
X120314462Y-119897127D01*
X120242996Y-120055201D01*
X120210998Y-120221422D01*
X119918986Y-120221422D01*
X119918466Y-120203923D01*
X119956837Y-119999023D01*
X119980347Y-119930001D01*
X120075688Y-119739288D01*
X120202650Y-119578480D01*
X120355529Y-119449581D01*
X120528618Y-119354592D01*
X120716213Y-119295516D01*
X120912608Y-119274354D01*
X121112098Y-119293108D01*
X121308978Y-119353781D01*
X121497543Y-119458375D01*
X121609263Y-119548479D01*
X121745592Y-119704912D01*
X121844027Y-119881276D01*
X121904097Y-120071249D01*
X121925334Y-120268508D01*
X121918166Y-120347148D01*
X121907265Y-120466731D01*
G37*
G36*
X113273230Y-120404420D02*
G01*
X113232006Y-120589723D01*
X113157159Y-120764835D01*
X113049749Y-120924080D01*
X112910834Y-121061782D01*
X112741472Y-121172266D01*
X112542722Y-121249855D01*
X112518100Y-121256098D01*
X112378899Y-121276247D01*
X112218620Y-121279140D01*
X112156792Y-121275896D01*
X112054492Y-121263071D01*
X111963454Y-121236941D01*
X111859167Y-121191532D01*
X111818515Y-121170979D01*
X111639806Y-121050808D01*
X111492855Y-120900549D01*
X111380914Y-120726297D01*
X111307233Y-120534143D01*
X111275063Y-120330181D01*
X111278159Y-120278639D01*
X111571409Y-120278639D01*
X111574402Y-120353272D01*
X111610647Y-120533779D01*
X111687098Y-120689105D01*
X111802613Y-120817354D01*
X111956050Y-120916631D01*
X112122553Y-120974878D01*
X112297275Y-120992045D01*
X112468099Y-120968075D01*
X112627239Y-120905046D01*
X112766907Y-120805038D01*
X112879315Y-120670129D01*
X112953309Y-120517885D01*
X112990966Y-120347148D01*
X112987026Y-120176365D01*
X112943479Y-120012767D01*
X112862316Y-119863586D01*
X112745525Y-119736053D01*
X112595097Y-119637399D01*
X112527598Y-119608901D01*
X112361065Y-119571528D01*
X112189571Y-119573064D01*
X112023449Y-119611620D01*
X111873031Y-119685304D01*
X111748649Y-119792228D01*
X111721439Y-119824572D01*
X111634836Y-119959575D01*
X111586453Y-120106467D01*
X111571409Y-120278639D01*
X111278159Y-120278639D01*
X111287657Y-120120503D01*
X111295606Y-120078924D01*
X111360617Y-119875496D01*
X111460872Y-119697840D01*
X111590892Y-119548193D01*
X111745197Y-119428791D01*
X111918307Y-119341872D01*
X112104741Y-119289673D01*
X112299020Y-119274431D01*
X112495665Y-119298384D01*
X112689194Y-119363768D01*
X112874129Y-119472821D01*
X112937975Y-119523689D01*
X113080738Y-119674811D01*
X113184587Y-119844121D01*
X113250579Y-120025943D01*
X113279774Y-120214602D01*
X113275204Y-120347148D01*
X113273230Y-120404420D01*
G37*
G36*
X114980857Y-123880109D02*
G01*
X115084433Y-123882080D01*
X115155177Y-123886770D01*
X115201606Y-123895241D01*
X115232233Y-123908559D01*
X115255577Y-123927788D01*
X115287298Y-123971555D01*
X115303592Y-124023818D01*
X115301640Y-124044676D01*
X115268122Y-124107789D01*
X115201203Y-124151514D01*
X115111531Y-124167864D01*
X115015501Y-124167864D01*
X115015501Y-124407939D01*
X115014945Y-124468651D01*
X115007633Y-124586027D01*
X114988734Y-124665417D01*
X114954340Y-124713658D01*
X114900545Y-124737588D01*
X114823441Y-124744045D01*
X114727410Y-124744045D01*
X114727410Y-125128166D01*
X114727382Y-125174170D01*
X114726601Y-125307282D01*
X114724093Y-125402448D01*
X114718989Y-125467501D01*
X114710418Y-125510273D01*
X114697510Y-125538596D01*
X114679395Y-125560302D01*
X114650845Y-125582824D01*
X114607651Y-125598635D01*
X114541262Y-125606309D01*
X114439320Y-125608317D01*
X114347725Y-125606810D01*
X114277638Y-125599965D01*
X114232263Y-125585286D01*
X114199244Y-125560302D01*
X114176722Y-125531752D01*
X114160912Y-125488558D01*
X114153238Y-125422169D01*
X114151229Y-125320227D01*
X114154219Y-125224956D01*
X114170228Y-125130515D01*
X114204089Y-125071379D01*
X114260283Y-125040826D01*
X114343289Y-125032136D01*
X114439320Y-125032136D01*
X114439320Y-124792060D01*
X114439876Y-124731349D01*
X114447188Y-124613973D01*
X114466087Y-124534583D01*
X114500480Y-124486342D01*
X114554276Y-124462412D01*
X114631380Y-124455954D01*
X114727410Y-124455954D01*
X114727410Y-124311909D01*
X114727410Y-124167864D01*
X114631380Y-124167864D01*
X114552415Y-124156158D01*
X114483932Y-124117627D01*
X114446696Y-124060785D01*
X114446050Y-123994537D01*
X114487335Y-123927788D01*
X114505267Y-123912207D01*
X114533583Y-123897692D01*
X114575844Y-123888256D01*
X114640566Y-123882834D01*
X114736264Y-123880361D01*
X114871456Y-123879773D01*
X114980857Y-123880109D01*
G37*
G36*
X115756586Y-123593634D02*
G01*
X115819699Y-123627152D01*
X115863423Y-123694071D01*
X115879773Y-123783743D01*
X115879773Y-123879773D01*
X115975804Y-123879773D01*
X116054769Y-123891478D01*
X116123252Y-123930010D01*
X116160488Y-123986852D01*
X116161134Y-124053100D01*
X116119849Y-124119849D01*
X116073027Y-124150888D01*
X115975804Y-124167864D01*
X115879773Y-124167864D01*
X115879773Y-124311909D01*
X115879773Y-124455954D01*
X115975804Y-124455954D01*
X116045773Y-124463846D01*
X116119849Y-124503970D01*
X116135430Y-124521902D01*
X116149945Y-124550217D01*
X116159381Y-124592478D01*
X116164803Y-124657201D01*
X116167276Y-124752899D01*
X116167864Y-124888091D01*
X116167528Y-124997492D01*
X116165557Y-125101068D01*
X116160867Y-125171812D01*
X116152396Y-125218240D01*
X116139078Y-125248868D01*
X116119849Y-125272212D01*
X116091299Y-125294733D01*
X116048105Y-125310544D01*
X115981715Y-125318218D01*
X115879773Y-125320227D01*
X115784503Y-125317237D01*
X115690061Y-125301227D01*
X115630925Y-125267366D01*
X115600373Y-125211173D01*
X115591683Y-125128166D01*
X115591683Y-125032136D01*
X115495652Y-125032136D01*
X115416687Y-125020431D01*
X115348204Y-124981899D01*
X115310968Y-124925057D01*
X115310322Y-124858809D01*
X115351607Y-124792060D01*
X115398428Y-124761021D01*
X115495652Y-124744045D01*
X115591683Y-124744045D01*
X115591683Y-124600000D01*
X115591683Y-124455954D01*
X115495652Y-124455954D01*
X115416687Y-124444249D01*
X115348204Y-124405717D01*
X115310968Y-124348875D01*
X115310322Y-124282628D01*
X115351607Y-124215879D01*
X115398428Y-124184840D01*
X115495652Y-124167864D01*
X115591683Y-124167864D01*
X115591683Y-123927788D01*
X115592081Y-123854082D01*
X115595239Y-123764696D01*
X115603048Y-123706246D01*
X115617278Y-123668117D01*
X115639698Y-123639697D01*
X115683465Y-123607976D01*
X115735728Y-123591682D01*
X115756586Y-123593634D01*
G37*
G36*
X118794209Y-119270328D02*
G01*
X118950434Y-119270754D01*
X119066739Y-119272287D01*
X119149964Y-119275550D01*
X119206947Y-119281165D01*
X119244530Y-119289753D01*
X119269550Y-119301936D01*
X119288847Y-119318336D01*
X119320568Y-119362104D01*
X119336862Y-119414367D01*
X119324816Y-119458134D01*
X119288847Y-119510397D01*
X119282876Y-119516144D01*
X119260081Y-119532685D01*
X119228436Y-119544267D01*
X119180109Y-119551761D01*
X119107267Y-119556036D01*
X119002079Y-119557963D01*
X118856711Y-119558412D01*
X118472590Y-119558412D01*
X118472590Y-120374669D01*
X118472547Y-120529736D01*
X118472197Y-120719631D01*
X118471255Y-120869994D01*
X118469441Y-120985864D01*
X118466476Y-121072281D01*
X118462079Y-121134283D01*
X118455970Y-121176911D01*
X118447870Y-121205204D01*
X118437498Y-121224201D01*
X118424575Y-121238941D01*
X118380807Y-121270662D01*
X118328545Y-121286956D01*
X118284777Y-121274910D01*
X118232514Y-121238941D01*
X118226767Y-121232970D01*
X118210226Y-121210175D01*
X118198644Y-121178530D01*
X118191150Y-121130203D01*
X118186875Y-121057361D01*
X118184948Y-120952173D01*
X118184499Y-120806805D01*
X118184499Y-120422684D01*
X118088469Y-120422684D01*
X118009503Y-120410979D01*
X117941021Y-120372447D01*
X117903785Y-120315605D01*
X117903138Y-120249358D01*
X117944424Y-120182609D01*
X117991245Y-120151569D01*
X118088469Y-120134593D01*
X118184499Y-120134593D01*
X118184499Y-119990548D01*
X118184499Y-119846503D01*
X118088469Y-119846503D01*
X118009503Y-119834797D01*
X117941021Y-119796265D01*
X117903785Y-119739424D01*
X117903138Y-119673176D01*
X117944424Y-119606427D01*
X117991245Y-119575388D01*
X118088469Y-119558412D01*
X118184499Y-119558412D01*
X118184499Y-119462382D01*
X118192390Y-119392412D01*
X118232514Y-119318336D01*
X118235935Y-119314984D01*
X118255770Y-119299404D01*
X118282582Y-119287927D01*
X118323211Y-119279931D01*
X118384496Y-119274794D01*
X118473276Y-119271895D01*
X118596391Y-119270611D01*
X118760681Y-119270321D01*
X118794209Y-119270328D01*
G37*
G36*
X121919797Y-129032122D02*
G01*
X121877367Y-129230475D01*
X121793288Y-129421400D01*
X121666418Y-129598945D01*
X121620459Y-129644485D01*
X121512021Y-129727271D01*
X121383123Y-129804883D01*
X121250675Y-129867620D01*
X121131589Y-129905779D01*
X121060827Y-129914887D01*
X120959604Y-129919195D01*
X120855236Y-129916856D01*
X120786342Y-129910397D01*
X120576188Y-129860705D01*
X120385781Y-129769489D01*
X120219908Y-129640227D01*
X120083354Y-129476396D01*
X119980905Y-129281474D01*
X119952841Y-129190168D01*
X119929143Y-129032679D01*
X119927029Y-128921361D01*
X120214131Y-128921361D01*
X120217124Y-128995994D01*
X120253369Y-129176502D01*
X120329820Y-129331827D01*
X120445335Y-129460076D01*
X120598772Y-129559353D01*
X120765275Y-129617601D01*
X120939997Y-129634767D01*
X121110822Y-129610797D01*
X121269961Y-129547768D01*
X121409629Y-129447760D01*
X121522037Y-129312851D01*
X121596031Y-129160607D01*
X121633689Y-128989870D01*
X121629749Y-128819087D01*
X121586202Y-128655489D01*
X121505038Y-128506308D01*
X121388247Y-128378775D01*
X121237819Y-128280121D01*
X121170320Y-128251623D01*
X121003787Y-128214250D01*
X120832293Y-128215786D01*
X120666172Y-128254342D01*
X120515753Y-128328026D01*
X120391372Y-128434950D01*
X120364161Y-128467294D01*
X120277558Y-128602297D01*
X120229175Y-128749189D01*
X120214131Y-128921361D01*
X119927029Y-128921361D01*
X119925921Y-128863003D01*
X119943175Y-128699680D01*
X119980905Y-128561247D01*
X120061840Y-128399561D01*
X120195522Y-128225923D01*
X120363042Y-128085238D01*
X120561248Y-127980657D01*
X120626669Y-127957470D01*
X120707916Y-127939211D01*
X120805877Y-127929658D01*
X120936108Y-127926566D01*
X120971618Y-127926460D01*
X121073624Y-127927730D01*
X121147936Y-127934203D01*
X121210443Y-127949328D01*
X121277031Y-127976552D01*
X121363590Y-128019320D01*
X121363645Y-128019349D01*
X121547148Y-128137270D01*
X121695847Y-128283478D01*
X121808603Y-128452020D01*
X121884274Y-128636942D01*
X121921719Y-128832294D01*
X121920203Y-128989870D01*
X121919797Y-129032122D01*
G37*
G36*
X116931858Y-122739456D02*
G01*
X116984121Y-122775425D01*
X116999702Y-122793357D01*
X117014217Y-122821673D01*
X117023653Y-122863934D01*
X117029076Y-122928656D01*
X117031549Y-123024355D01*
X117032136Y-123159546D01*
X117032103Y-123226021D01*
X117030065Y-123362234D01*
X117021173Y-123459566D01*
X117000344Y-123524550D01*
X116962497Y-123563721D01*
X116902550Y-123583611D01*
X116815422Y-123590753D01*
X116696030Y-123591682D01*
X116455955Y-123591682D01*
X116455955Y-123687713D01*
X116448064Y-123757682D01*
X116407940Y-123831758D01*
X116364172Y-123863479D01*
X116311909Y-123879773D01*
X116291051Y-123877821D01*
X116227939Y-123844303D01*
X116184214Y-123777384D01*
X116167864Y-123687713D01*
X116167864Y-123591682D01*
X116071834Y-123591682D01*
X116001864Y-123583791D01*
X115927788Y-123543667D01*
X115896749Y-123496846D01*
X115879773Y-123399622D01*
X115879773Y-123303592D01*
X115735728Y-123303592D01*
X115591683Y-123303592D01*
X115591683Y-123399622D01*
X115579977Y-123478587D01*
X115541445Y-123547070D01*
X115484604Y-123584306D01*
X115418356Y-123584952D01*
X115351607Y-123543667D01*
X115329085Y-123515117D01*
X115313275Y-123471923D01*
X115305601Y-123405534D01*
X115303592Y-123303592D01*
X115303604Y-123292521D01*
X115307074Y-123181660D01*
X115321775Y-123105065D01*
X115355047Y-123056443D01*
X115414232Y-123029503D01*
X115506668Y-123017953D01*
X115639698Y-123015501D01*
X115879773Y-123015501D01*
X115879773Y-122919471D01*
X115891479Y-122840505D01*
X115930011Y-122772022D01*
X115986852Y-122734787D01*
X116053100Y-122734140D01*
X116119849Y-122775425D01*
X116150888Y-122822247D01*
X116167864Y-122919471D01*
X116168095Y-122953127D01*
X116175114Y-122997020D01*
X116202427Y-123013191D01*
X116263894Y-123015501D01*
X116333864Y-123023392D01*
X116407940Y-123063516D01*
X116438979Y-123110337D01*
X116455955Y-123207561D01*
X116455955Y-123303592D01*
X116600000Y-123303592D01*
X116744046Y-123303592D01*
X116744046Y-123063516D01*
X116744444Y-122989810D01*
X116747602Y-122900424D01*
X116755411Y-122841974D01*
X116769641Y-122803845D01*
X116792061Y-122775425D01*
X116835828Y-122743704D01*
X116888091Y-122727410D01*
X116931858Y-122739456D01*
G37*
G36*
X120441210Y-121911153D02*
G01*
X120472249Y-121957974D01*
X120489225Y-122055198D01*
X120489225Y-122151229D01*
X120585255Y-122151229D01*
X120664221Y-122162934D01*
X120732704Y-122201466D01*
X120769939Y-122258308D01*
X120770586Y-122324555D01*
X120729301Y-122391304D01*
X120682479Y-122422343D01*
X120585255Y-122439319D01*
X120489225Y-122439319D01*
X120489225Y-122583365D01*
X120489225Y-122727410D01*
X120585255Y-122727410D01*
X120664221Y-122739115D01*
X120732704Y-122777647D01*
X120769939Y-122834489D01*
X120770586Y-122900737D01*
X120729301Y-122967486D01*
X120682479Y-122998525D01*
X120585255Y-123015501D01*
X120489225Y-123015501D01*
X120489225Y-123111531D01*
X120481334Y-123181501D01*
X120441210Y-123255576D01*
X120397443Y-123287298D01*
X120345180Y-123303592D01*
X120324322Y-123301640D01*
X120261209Y-123268122D01*
X120217484Y-123201202D01*
X120201134Y-123111531D01*
X120201134Y-123015501D01*
X120057089Y-123015501D01*
X119913044Y-123015501D01*
X119913044Y-123111531D01*
X119901338Y-123190497D01*
X119862806Y-123258979D01*
X119805965Y-123296215D01*
X119739717Y-123296862D01*
X119672968Y-123255576D01*
X119657387Y-123237644D01*
X119642872Y-123209329D01*
X119633436Y-123167068D01*
X119628013Y-123102346D01*
X119625541Y-123006647D01*
X119624953Y-122871455D01*
X119625289Y-122762054D01*
X119627260Y-122658478D01*
X119631950Y-122587734D01*
X119640421Y-122541306D01*
X119653739Y-122510678D01*
X119672968Y-122487334D01*
X119716735Y-122455613D01*
X119768998Y-122439319D01*
X119789856Y-122441271D01*
X119852969Y-122474789D01*
X119896694Y-122541708D01*
X119913044Y-122631380D01*
X119913044Y-122727410D01*
X120057089Y-122727410D01*
X120201134Y-122727410D01*
X120201134Y-122583365D01*
X120201134Y-122439319D01*
X120105104Y-122439319D01*
X120026139Y-122427614D01*
X119957656Y-122389082D01*
X119920420Y-122332240D01*
X119919774Y-122265993D01*
X119961059Y-122199244D01*
X120007880Y-122168205D01*
X120105104Y-122151229D01*
X120138761Y-122150998D01*
X120182653Y-122143978D01*
X120198824Y-122116666D01*
X120201134Y-122055198D01*
X120212840Y-121976233D01*
X120251372Y-121907750D01*
X120308213Y-121870514D01*
X120374461Y-121869868D01*
X120441210Y-121911153D01*
G37*
G36*
X118726036Y-127913379D02*
G01*
X118829612Y-127915351D01*
X118900357Y-127920040D01*
X118946785Y-127928511D01*
X118977413Y-127941829D01*
X119000756Y-127961058D01*
X119031795Y-128007880D01*
X119048771Y-128105104D01*
X119048771Y-128201134D01*
X119144802Y-128201134D01*
X119214771Y-128209025D01*
X119288847Y-128249149D01*
X119304428Y-128267081D01*
X119318943Y-128295397D01*
X119328379Y-128337658D01*
X119333802Y-128402380D01*
X119336274Y-128498079D01*
X119336862Y-128633270D01*
X119336526Y-128742671D01*
X119334555Y-128846247D01*
X119329865Y-128916992D01*
X119321394Y-128963420D01*
X119308076Y-128994048D01*
X119288847Y-129017391D01*
X119245080Y-129049112D01*
X119192817Y-129065406D01*
X119149049Y-129053360D01*
X119096787Y-129017391D01*
X119082125Y-129000739D01*
X119064879Y-128967703D01*
X119054751Y-128918527D01*
X119049972Y-128842597D01*
X119048771Y-128729300D01*
X119048771Y-128489225D01*
X118952741Y-128489225D01*
X118882772Y-128481334D01*
X118808696Y-128441210D01*
X118777657Y-128394388D01*
X118760681Y-128297164D01*
X118760681Y-128201134D01*
X118616635Y-128201134D01*
X118472590Y-128201134D01*
X118472590Y-128297164D01*
X118464699Y-128367134D01*
X118424575Y-128441210D01*
X118421154Y-128444562D01*
X118401319Y-128460142D01*
X118374507Y-128471619D01*
X118333878Y-128479615D01*
X118272593Y-128484752D01*
X118183813Y-128487651D01*
X118060698Y-128488935D01*
X117896408Y-128489225D01*
X117862881Y-128489218D01*
X117706656Y-128488792D01*
X117590350Y-128487259D01*
X117507125Y-128483996D01*
X117450142Y-128478381D01*
X117412559Y-128469793D01*
X117387539Y-128457610D01*
X117368242Y-128441210D01*
X117336521Y-128397442D01*
X117320227Y-128345179D01*
X117332273Y-128301412D01*
X117368242Y-128249149D01*
X117374214Y-128243402D01*
X117397008Y-128226861D01*
X117428653Y-128215279D01*
X117476980Y-128207785D01*
X117549822Y-128203510D01*
X117655011Y-128201583D01*
X117800378Y-128201134D01*
X118184499Y-128201134D01*
X118184499Y-128105104D01*
X118192390Y-128035134D01*
X118232514Y-127961058D01*
X118250447Y-127945478D01*
X118278762Y-127930963D01*
X118321023Y-127921526D01*
X118385745Y-127916104D01*
X118481444Y-127913631D01*
X118616635Y-127913043D01*
X118726036Y-127913379D01*
G37*
G36*
X118372312Y-122451365D02*
G01*
X118424575Y-122487334D01*
X118440156Y-122505267D01*
X118454670Y-122533582D01*
X118464107Y-122575843D01*
X118469529Y-122640565D01*
X118472002Y-122736264D01*
X118472590Y-122871455D01*
X118472254Y-122980856D01*
X118470282Y-123084433D01*
X118465593Y-123155177D01*
X118457122Y-123201605D01*
X118443804Y-123232233D01*
X118424575Y-123255576D01*
X118377753Y-123286616D01*
X118280529Y-123303592D01*
X118184499Y-123303592D01*
X118184499Y-123447637D01*
X118184499Y-123591682D01*
X118280529Y-123591682D01*
X118359495Y-123603388D01*
X118427978Y-123641920D01*
X118465213Y-123698761D01*
X118465860Y-123765009D01*
X118424575Y-123831758D01*
X118377753Y-123862797D01*
X118280529Y-123879773D01*
X118184499Y-123879773D01*
X118184499Y-124119849D01*
X118184101Y-124193555D01*
X118180943Y-124282941D01*
X118173133Y-124341391D01*
X118158903Y-124379519D01*
X118136484Y-124407939D01*
X118092717Y-124439661D01*
X118040454Y-124455954D01*
X117996686Y-124443908D01*
X117944424Y-124407939D01*
X117929762Y-124391288D01*
X117912516Y-124358252D01*
X117902388Y-124309075D01*
X117897609Y-124233146D01*
X117896408Y-124119849D01*
X117896408Y-123879773D01*
X117800378Y-123879773D01*
X117730409Y-123871882D01*
X117656333Y-123831758D01*
X117650854Y-123826074D01*
X117637463Y-123808159D01*
X117627217Y-123783289D01*
X117619696Y-123745599D01*
X117614483Y-123689224D01*
X117611157Y-123608296D01*
X117609300Y-123496951D01*
X117608494Y-123349323D01*
X117608318Y-123159546D01*
X117608334Y-123088310D01*
X117608682Y-122913876D01*
X117609806Y-122779549D01*
X117612127Y-122679462D01*
X117616063Y-122607750D01*
X117622032Y-122558547D01*
X117630454Y-122525987D01*
X117641748Y-122504205D01*
X117656333Y-122487334D01*
X117700100Y-122455613D01*
X117752363Y-122439319D01*
X117796130Y-122451365D01*
X117848393Y-122487334D01*
X117863055Y-122503986D01*
X117880301Y-122537022D01*
X117890429Y-122586198D01*
X117895208Y-122662128D01*
X117896408Y-122775425D01*
X117896408Y-123015501D01*
X118040454Y-123015501D01*
X118184499Y-123015501D01*
X118184499Y-122775425D01*
X118184897Y-122701719D01*
X118188055Y-122612333D01*
X118195865Y-122553883D01*
X118210095Y-122515754D01*
X118232514Y-122487334D01*
X118276282Y-122455613D01*
X118328545Y-122439319D01*
X118372312Y-122451365D01*
G37*
G36*
X119140366Y-126474097D02*
G01*
X119210453Y-126480943D01*
X119255828Y-126495621D01*
X119288847Y-126520605D01*
X119320568Y-126564372D01*
X119336862Y-126616635D01*
X119334910Y-126637493D01*
X119301392Y-126700606D01*
X119234473Y-126744331D01*
X119144802Y-126760680D01*
X119048771Y-126760680D01*
X119048771Y-126856711D01*
X119040880Y-126926680D01*
X119000756Y-127000756D01*
X118953935Y-127031795D01*
X118856711Y-127048771D01*
X118760681Y-127048771D01*
X118760681Y-127288847D01*
X118760595Y-127329470D01*
X118756820Y-127450548D01*
X118742006Y-127533040D01*
X118708765Y-127584336D01*
X118649706Y-127611827D01*
X118557439Y-127622903D01*
X118424575Y-127624953D01*
X118184499Y-127624953D01*
X118184499Y-127720983D01*
X118176608Y-127790952D01*
X118136484Y-127865028D01*
X118130513Y-127870775D01*
X118107718Y-127887316D01*
X118076073Y-127898899D01*
X118027746Y-127906392D01*
X117954904Y-127910668D01*
X117849716Y-127912594D01*
X117704348Y-127913043D01*
X117320227Y-127913043D01*
X117320227Y-128009074D01*
X117312336Y-128079043D01*
X117272212Y-128153119D01*
X117228445Y-128184840D01*
X117176182Y-128201134D01*
X117132414Y-128189088D01*
X117080151Y-128153119D01*
X117057630Y-128124569D01*
X117041819Y-128081375D01*
X117034145Y-128014985D01*
X117032136Y-127913043D01*
X117032149Y-127901973D01*
X117035618Y-127791112D01*
X117050319Y-127714517D01*
X117083592Y-127665895D01*
X117142776Y-127638955D01*
X117235213Y-127627404D01*
X117368242Y-127624953D01*
X117608318Y-127624953D01*
X117608318Y-127480907D01*
X117608318Y-127336862D01*
X117512287Y-127336862D01*
X117433322Y-127325157D01*
X117364839Y-127286625D01*
X117327604Y-127229783D01*
X117326957Y-127163535D01*
X117368242Y-127096786D01*
X117386174Y-127081206D01*
X117414490Y-127066691D01*
X117456751Y-127057254D01*
X117521473Y-127051832D01*
X117617172Y-127049359D01*
X117752363Y-127048771D01*
X117861764Y-127049107D01*
X117965340Y-127051079D01*
X118036085Y-127055768D01*
X118082513Y-127064239D01*
X118113141Y-127077557D01*
X118136484Y-127096786D01*
X118167523Y-127143608D01*
X118184499Y-127240832D01*
X118184499Y-127336862D01*
X118328545Y-127336862D01*
X118472590Y-127336862D01*
X118472590Y-127096786D01*
X118473146Y-127036075D01*
X118480458Y-126918698D01*
X118499357Y-126839309D01*
X118533751Y-126791068D01*
X118587546Y-126767138D01*
X118664650Y-126760680D01*
X118760681Y-126760680D01*
X118760681Y-126664650D01*
X118765166Y-126601137D01*
X118789180Y-126538175D01*
X118839971Y-126498751D01*
X118924261Y-126478383D01*
X119048771Y-126472590D01*
X119140366Y-126474097D01*
G37*
G36*
X115845129Y-119270657D02*
G01*
X115948705Y-119272629D01*
X116019449Y-119277318D01*
X116065878Y-119285789D01*
X116096506Y-119299107D01*
X116119849Y-119318336D01*
X116151570Y-119362104D01*
X116167864Y-119414367D01*
X116165912Y-119435225D01*
X116132394Y-119498337D01*
X116065475Y-119542062D01*
X115975804Y-119558412D01*
X115879773Y-119558412D01*
X115879773Y-119654442D01*
X115871882Y-119724412D01*
X115831758Y-119798488D01*
X115825787Y-119804235D01*
X115802992Y-119820776D01*
X115771347Y-119832358D01*
X115723020Y-119839852D01*
X115650178Y-119844127D01*
X115544990Y-119846054D01*
X115399622Y-119846503D01*
X115015501Y-119846503D01*
X115015501Y-119990548D01*
X115015501Y-120134593D01*
X115111531Y-120134593D01*
X115190497Y-120146299D01*
X115258979Y-120184831D01*
X115296215Y-120241672D01*
X115296862Y-120307920D01*
X115255577Y-120374669D01*
X115237644Y-120390250D01*
X115209329Y-120404765D01*
X115167068Y-120414201D01*
X115102346Y-120419624D01*
X115006647Y-120422096D01*
X114871456Y-120422684D01*
X114762055Y-120422348D01*
X114658479Y-120420377D01*
X114587734Y-120415687D01*
X114541306Y-120407216D01*
X114510678Y-120393898D01*
X114487335Y-120374669D01*
X114455614Y-120330902D01*
X114439320Y-120278639D01*
X114441272Y-120257781D01*
X114474789Y-120194668D01*
X114541709Y-120150943D01*
X114631380Y-120134593D01*
X114727410Y-120134593D01*
X114727410Y-119990548D01*
X114727410Y-119846503D01*
X114631380Y-119846503D01*
X114592103Y-119844259D01*
X114507223Y-119814938D01*
X114456296Y-119751666D01*
X114439320Y-119654442D01*
X114439320Y-119558412D01*
X114055199Y-119558412D01*
X114009195Y-119558384D01*
X113876083Y-119557602D01*
X113780916Y-119555094D01*
X113715863Y-119549990D01*
X113673092Y-119541419D01*
X113644769Y-119528512D01*
X113623063Y-119510397D01*
X113591341Y-119466629D01*
X113575047Y-119414367D01*
X113587094Y-119370599D01*
X113623063Y-119318336D01*
X113628746Y-119312858D01*
X113646662Y-119299467D01*
X113671531Y-119289220D01*
X113709221Y-119281700D01*
X113765597Y-119276486D01*
X113846524Y-119273161D01*
X113957869Y-119271304D01*
X114105497Y-119270497D01*
X114295274Y-119270321D01*
X114366510Y-119270337D01*
X114540944Y-119270685D01*
X114675272Y-119271810D01*
X114775358Y-119274131D01*
X114847071Y-119278066D01*
X114896274Y-119284036D01*
X114928833Y-119292458D01*
X114950616Y-119303752D01*
X114967486Y-119318336D01*
X114998525Y-119365158D01*
X115015501Y-119462382D01*
X115015501Y-119558412D01*
X115159546Y-119558412D01*
X115303592Y-119558412D01*
X115303592Y-119462382D01*
X115311483Y-119392412D01*
X115351607Y-119318336D01*
X115369539Y-119302756D01*
X115397855Y-119288241D01*
X115440116Y-119278804D01*
X115504838Y-119273382D01*
X115600537Y-119270909D01*
X115735728Y-119270321D01*
X115845129Y-119270657D01*
G37*
G36*
X112676131Y-122151565D02*
G01*
X112779707Y-122153536D01*
X112850451Y-122158225D01*
X112896880Y-122166697D01*
X112927508Y-122180015D01*
X112950851Y-122199244D01*
X112982572Y-122243011D01*
X112998866Y-122295274D01*
X112996914Y-122316132D01*
X112963396Y-122379245D01*
X112896477Y-122422970D01*
X112806805Y-122439319D01*
X112710775Y-122439319D01*
X112710775Y-122823440D01*
X112710825Y-122862074D01*
X112710870Y-123015830D01*
X112706065Y-123129111D01*
X112690253Y-123208075D01*
X112657277Y-123258878D01*
X112600983Y-123287674D01*
X112515213Y-123300621D01*
X112393812Y-123303875D01*
X112230624Y-123303592D01*
X111846503Y-123303592D01*
X111846503Y-123447637D01*
X111846503Y-123591682D01*
X111942533Y-123591682D01*
X112021499Y-123603388D01*
X112089981Y-123641920D01*
X112127217Y-123698761D01*
X112127864Y-123765009D01*
X112086579Y-123831758D01*
X112039757Y-123862797D01*
X111942533Y-123879773D01*
X111846503Y-123879773D01*
X111846503Y-123975803D01*
X111844259Y-124015081D01*
X111814939Y-124099960D01*
X111751666Y-124150888D01*
X111654442Y-124167864D01*
X111558412Y-124167864D01*
X111558412Y-124407939D01*
X111558014Y-124481645D01*
X111554856Y-124571031D01*
X111547047Y-124629482D01*
X111532817Y-124667610D01*
X111510397Y-124696030D01*
X111466630Y-124727751D01*
X111414367Y-124744045D01*
X111370600Y-124731999D01*
X111318337Y-124696030D01*
X111302756Y-124678098D01*
X111288241Y-124649782D01*
X111278805Y-124607521D01*
X111273382Y-124542799D01*
X111270909Y-124447100D01*
X111270322Y-124311909D01*
X111270657Y-124202508D01*
X111272629Y-124098932D01*
X111277318Y-124028188D01*
X111285790Y-123981759D01*
X111299108Y-123951131D01*
X111318337Y-123927788D01*
X111365158Y-123896749D01*
X111462382Y-123879773D01*
X111558412Y-123879773D01*
X111558412Y-123591682D01*
X111558412Y-123303592D01*
X111462382Y-123303592D01*
X111383416Y-123291886D01*
X111314934Y-123253354D01*
X111277698Y-123196513D01*
X111277051Y-123130265D01*
X111318337Y-123063516D01*
X111365158Y-123032477D01*
X111462382Y-123015501D01*
X111558412Y-123015501D01*
X111558412Y-122775425D01*
X111558423Y-122762510D01*
X111561397Y-122633172D01*
X111573998Y-122543811D01*
X111602517Y-122487085D01*
X111653246Y-122455655D01*
X111732478Y-122442180D01*
X111846503Y-122439319D01*
X111938097Y-122440826D01*
X112008185Y-122447672D01*
X112053560Y-122462351D01*
X112086579Y-122487334D01*
X112118300Y-122531102D01*
X112134594Y-122583365D01*
X112132642Y-122604223D01*
X112099124Y-122667335D01*
X112032205Y-122711060D01*
X111942533Y-122727410D01*
X111846503Y-122727410D01*
X111846503Y-122871455D01*
X111846503Y-123015501D01*
X111990548Y-123015501D01*
X112134594Y-123015501D01*
X112134594Y-122919471D01*
X112142485Y-122849501D01*
X112182609Y-122775425D01*
X112229430Y-122744386D01*
X112326654Y-122727410D01*
X112422684Y-122727410D01*
X112422684Y-122583365D01*
X112422684Y-122439319D01*
X112326654Y-122439319D01*
X112247689Y-122427614D01*
X112179206Y-122389082D01*
X112141970Y-122332240D01*
X112141324Y-122265993D01*
X112182609Y-122199244D01*
X112200541Y-122183663D01*
X112228857Y-122169148D01*
X112271118Y-122159712D01*
X112335840Y-122154289D01*
X112431539Y-122151816D01*
X112566730Y-122151229D01*
X112676131Y-122151565D01*
G37*
G36*
X114103214Y-123351607D02*
G01*
X114134253Y-123398428D01*
X114151229Y-123495652D01*
X114151460Y-123529309D01*
X114158479Y-123573201D01*
X114185792Y-123589372D01*
X114247259Y-123591682D01*
X114326225Y-123603388D01*
X114394707Y-123641920D01*
X114431943Y-123698761D01*
X114432590Y-123765009D01*
X114391304Y-123831758D01*
X114374653Y-123846419D01*
X114341617Y-123863665D01*
X114292441Y-123873793D01*
X114216511Y-123878573D01*
X114103214Y-123879773D01*
X113863138Y-123879773D01*
X113863138Y-124023818D01*
X113863138Y-124167864D01*
X114103214Y-124167864D01*
X114176920Y-124168262D01*
X114266306Y-124171420D01*
X114324756Y-124179229D01*
X114362884Y-124193459D01*
X114391304Y-124215879D01*
X114423026Y-124259646D01*
X114439320Y-124311909D01*
X114427273Y-124355676D01*
X114391304Y-124407939D01*
X114374653Y-124422601D01*
X114341617Y-124439847D01*
X114292441Y-124449975D01*
X114216511Y-124454754D01*
X114103214Y-124455954D01*
X113863138Y-124455954D01*
X113863138Y-124840075D01*
X113862876Y-124989410D01*
X113859353Y-125114343D01*
X113848239Y-125203061D01*
X113825197Y-125261758D01*
X113785891Y-125296629D01*
X113725986Y-125313868D01*
X113641145Y-125319669D01*
X113527032Y-125320227D01*
X113286957Y-125320227D01*
X113286957Y-125608317D01*
X113286957Y-125896408D01*
X113431002Y-125896408D01*
X113575047Y-125896408D01*
X113575047Y-125800378D01*
X113586753Y-125721412D01*
X113625285Y-125652930D01*
X113682126Y-125615694D01*
X113748374Y-125615047D01*
X113815123Y-125656333D01*
X113846162Y-125703154D01*
X113863138Y-125800378D01*
X113863138Y-125896408D01*
X113959168Y-125896408D01*
X114038134Y-125908113D01*
X114106617Y-125946645D01*
X114143852Y-126003487D01*
X114144499Y-126069735D01*
X114103214Y-126136484D01*
X114099793Y-126139836D01*
X114079958Y-126155416D01*
X114053146Y-126166893D01*
X114012517Y-126174889D01*
X113951232Y-126180026D01*
X113862452Y-126182925D01*
X113739337Y-126184209D01*
X113575047Y-126184499D01*
X113541519Y-126184492D01*
X113385294Y-126184067D01*
X113268989Y-126182533D01*
X113185764Y-126179270D01*
X113128781Y-126173655D01*
X113091198Y-126165067D01*
X113066178Y-126152884D01*
X113046881Y-126136484D01*
X113015842Y-126089662D01*
X112998866Y-125992438D01*
X112998866Y-125896408D01*
X112902836Y-125896408D01*
X112823870Y-125884703D01*
X112755388Y-125846171D01*
X112718152Y-125789329D01*
X112717505Y-125723082D01*
X112758790Y-125656333D01*
X112805612Y-125625293D01*
X112902836Y-125608317D01*
X112998866Y-125608317D01*
X112998866Y-125368242D01*
X112999422Y-125307531D01*
X113006734Y-125190154D01*
X113025633Y-125110764D01*
X113060027Y-125062523D01*
X113113822Y-125038593D01*
X113190926Y-125032136D01*
X113286957Y-125032136D01*
X113286957Y-124936106D01*
X113294848Y-124866136D01*
X113334972Y-124792060D01*
X113381793Y-124761021D01*
X113479017Y-124744045D01*
X113575047Y-124744045D01*
X113575047Y-124455954D01*
X113575047Y-124167864D01*
X113479017Y-124167864D01*
X113409048Y-124159973D01*
X113334972Y-124119849D01*
X113303933Y-124073027D01*
X113286957Y-123975803D01*
X113286957Y-123879773D01*
X113190926Y-123879773D01*
X113111961Y-123868068D01*
X113043478Y-123829536D01*
X113006242Y-123772694D01*
X113005596Y-123706446D01*
X113046881Y-123639697D01*
X113093702Y-123608658D01*
X113190926Y-123591682D01*
X113286957Y-123591682D01*
X113286957Y-123495652D01*
X113298662Y-123416686D01*
X113337194Y-123348204D01*
X113394036Y-123310968D01*
X113460283Y-123310322D01*
X113527032Y-123351607D01*
X113558071Y-123398428D01*
X113575047Y-123495652D01*
X113575047Y-123591682D01*
X113719093Y-123591682D01*
X113863138Y-123591682D01*
X113863138Y-123495652D01*
X113874843Y-123416686D01*
X113913375Y-123348204D01*
X113970217Y-123310968D01*
X114036465Y-123310322D01*
X114103214Y-123351607D01*
G37*
G36*
X116044677Y-121000818D02*
G01*
X116107789Y-121034335D01*
X116151514Y-121101255D01*
X116167864Y-121190926D01*
X116168095Y-121224583D01*
X116175114Y-121268475D01*
X116202427Y-121284646D01*
X116263894Y-121286956D01*
X116303172Y-121289201D01*
X116388051Y-121318521D01*
X116438979Y-121381793D01*
X116455955Y-121479017D01*
X116455955Y-121575047D01*
X116551985Y-121575047D01*
X116615499Y-121579532D01*
X116678460Y-121603547D01*
X116717884Y-121654338D01*
X116738252Y-121738628D01*
X116744046Y-121863138D01*
X116742538Y-121954732D01*
X116735693Y-122024820D01*
X116721014Y-122070195D01*
X116696030Y-122103213D01*
X116652263Y-122134935D01*
X116600000Y-122151229D01*
X116579142Y-122149277D01*
X116516029Y-122115759D01*
X116472305Y-122048840D01*
X116455955Y-121959168D01*
X116455955Y-121863138D01*
X116311909Y-121863138D01*
X116167864Y-121863138D01*
X116167864Y-122007183D01*
X116167864Y-122151229D01*
X116263894Y-122151229D01*
X116342860Y-122162934D01*
X116411342Y-122201466D01*
X116448578Y-122258308D01*
X116449225Y-122324555D01*
X116407940Y-122391304D01*
X116391288Y-122405966D01*
X116358252Y-122423211D01*
X116309076Y-122433340D01*
X116233146Y-122438119D01*
X116119849Y-122439319D01*
X115879773Y-122439319D01*
X115879773Y-122535350D01*
X115868068Y-122614315D01*
X115829536Y-122682798D01*
X115772694Y-122720034D01*
X115706447Y-122720680D01*
X115639698Y-122679395D01*
X115608658Y-122632574D01*
X115591683Y-122535350D01*
X115591683Y-122439319D01*
X115447637Y-122439319D01*
X115303592Y-122439319D01*
X115303592Y-122535350D01*
X115301348Y-122574627D01*
X115272027Y-122659506D01*
X115208755Y-122710434D01*
X115111531Y-122727410D01*
X115015501Y-122727410D01*
X115015501Y-122823440D01*
X115007610Y-122893410D01*
X114967486Y-122967486D01*
X114938936Y-122990008D01*
X114895742Y-123005818D01*
X114829352Y-123013492D01*
X114727410Y-123015501D01*
X114632140Y-123012511D01*
X114537698Y-122996501D01*
X114478562Y-122962640D01*
X114448010Y-122906447D01*
X114439320Y-122823440D01*
X114439320Y-122727410D01*
X114199244Y-122727410D01*
X114138533Y-122726854D01*
X114021156Y-122719542D01*
X113941766Y-122700643D01*
X113893525Y-122666249D01*
X113869595Y-122612454D01*
X113863138Y-122535350D01*
X113863138Y-122439319D01*
X113623063Y-122439319D01*
X113549356Y-122438921D01*
X113459970Y-122435763D01*
X113401520Y-122427954D01*
X113363392Y-122413724D01*
X113334972Y-122391304D01*
X113303251Y-122347537D01*
X113286957Y-122295274D01*
X113299003Y-122251507D01*
X113334972Y-122199244D01*
X113340943Y-122193497D01*
X113363738Y-122176955D01*
X113395383Y-122165373D01*
X113443710Y-122157880D01*
X113516552Y-122153604D01*
X113621740Y-122151678D01*
X113767108Y-122151229D01*
X114151229Y-122151229D01*
X114151229Y-122055198D01*
X114155714Y-121991685D01*
X114179728Y-121928724D01*
X114230520Y-121889300D01*
X114314809Y-121868931D01*
X114439320Y-121863138D01*
X114530914Y-121864645D01*
X114601002Y-121871491D01*
X114646377Y-121886170D01*
X114679395Y-121911153D01*
X114711116Y-121954920D01*
X114727410Y-122007183D01*
X114725458Y-122028041D01*
X114691941Y-122091154D01*
X114625021Y-122134879D01*
X114535350Y-122151229D01*
X114439320Y-122151229D01*
X114439320Y-122295274D01*
X114439320Y-122439319D01*
X114727410Y-122439319D01*
X115015501Y-122439319D01*
X115015501Y-122343289D01*
X115023392Y-122273320D01*
X115063516Y-122199244D01*
X115069488Y-122193497D01*
X115092282Y-122176955D01*
X115123927Y-122165373D01*
X115172254Y-122157880D01*
X115245096Y-122153604D01*
X115350285Y-122151678D01*
X115495652Y-122151229D01*
X115879773Y-122151229D01*
X115879773Y-122007183D01*
X115879773Y-121863138D01*
X115783743Y-121863138D01*
X115704777Y-121851433D01*
X115636295Y-121812901D01*
X115599059Y-121756059D01*
X115598413Y-121689811D01*
X115639698Y-121623062D01*
X115686519Y-121592023D01*
X115783743Y-121575047D01*
X115879773Y-121575047D01*
X115879773Y-121334972D01*
X115880171Y-121261265D01*
X115883329Y-121171879D01*
X115891139Y-121113429D01*
X115905369Y-121075301D01*
X115927788Y-121046881D01*
X115971556Y-121015160D01*
X116023819Y-120998866D01*
X116044677Y-121000818D01*
G37*
G36*
X116455955Y-126952741D02*
G01*
X116455955Y-127048771D01*
X116600000Y-127048771D01*
X116744046Y-127048771D01*
X116744046Y-126952741D01*
X116751937Y-126882771D01*
X116792061Y-126808696D01*
X116838882Y-126777656D01*
X116936106Y-126760680D01*
X117032136Y-126760680D01*
X117032136Y-126520605D01*
X117032534Y-126446899D01*
X117035692Y-126357513D01*
X117043502Y-126299062D01*
X117057732Y-126260934D01*
X117080151Y-126232514D01*
X117123919Y-126200793D01*
X117176182Y-126184499D01*
X117219949Y-126196545D01*
X117272212Y-126232514D01*
X117287793Y-126250446D01*
X117302308Y-126278762D01*
X117311744Y-126321023D01*
X117317166Y-126385745D01*
X117319639Y-126481444D01*
X117320227Y-126616635D01*
X117319891Y-126726036D01*
X117317920Y-126829612D01*
X117313230Y-126900357D01*
X117304759Y-126946785D01*
X117291441Y-126977413D01*
X117272212Y-127000756D01*
X117225390Y-127031795D01*
X117128166Y-127048771D01*
X117032136Y-127048771D01*
X117032136Y-127144801D01*
X117024245Y-127214771D01*
X116984121Y-127288847D01*
X116973533Y-127298646D01*
X116952744Y-127312017D01*
X116922725Y-127321853D01*
X116877012Y-127328693D01*
X116809141Y-127333075D01*
X116712648Y-127335538D01*
X116581069Y-127336621D01*
X116407940Y-127336862D01*
X115879773Y-127336862D01*
X115879773Y-127432892D01*
X115871882Y-127502862D01*
X115831758Y-127576937D01*
X115787991Y-127608659D01*
X115735728Y-127624953D01*
X115714870Y-127623001D01*
X115651757Y-127589483D01*
X115608032Y-127522564D01*
X115591683Y-127432892D01*
X115591683Y-127336862D01*
X115351607Y-127336862D01*
X115277901Y-127336464D01*
X115188515Y-127333306D01*
X115130065Y-127325496D01*
X115091936Y-127311266D01*
X115063516Y-127288847D01*
X115031795Y-127245079D01*
X115015501Y-127192816D01*
X115017453Y-127171958D01*
X115050971Y-127108846D01*
X115117890Y-127065121D01*
X115207562Y-127048771D01*
X115303592Y-127048771D01*
X115303592Y-126904726D01*
X115303592Y-126760680D01*
X115591683Y-126760680D01*
X115591683Y-126904726D01*
X115591683Y-127048771D01*
X115735728Y-127048771D01*
X115879773Y-127048771D01*
X115879773Y-126904726D01*
X115879773Y-126760680D01*
X115735728Y-126760680D01*
X115591683Y-126760680D01*
X115303592Y-126760680D01*
X115063516Y-126760680D01*
X114989810Y-126760282D01*
X114900424Y-126757124D01*
X114841974Y-126749315D01*
X114803845Y-126735085D01*
X114775425Y-126712665D01*
X114760764Y-126696013D01*
X114743518Y-126662977D01*
X114733390Y-126613801D01*
X114728610Y-126537872D01*
X114727410Y-126424575D01*
X114727410Y-126184499D01*
X114631380Y-126184499D01*
X114552415Y-126172794D01*
X114483932Y-126134262D01*
X114446696Y-126077420D01*
X114446050Y-126011172D01*
X114487335Y-125944423D01*
X114515885Y-125921901D01*
X114559079Y-125906091D01*
X114625468Y-125898417D01*
X114727410Y-125896408D01*
X114738481Y-125896420D01*
X114849342Y-125899890D01*
X114925937Y-125914591D01*
X114974559Y-125947864D01*
X115001499Y-126007048D01*
X115013049Y-126099485D01*
X115015501Y-126232514D01*
X115015501Y-126472590D01*
X115447637Y-126472590D01*
X115879773Y-126472590D01*
X115879773Y-126328544D01*
X115879773Y-126184499D01*
X115783743Y-126184499D01*
X115713774Y-126176608D01*
X115639698Y-126136484D01*
X115608658Y-126089662D01*
X115591683Y-125992438D01*
X115591683Y-125896408D01*
X115351607Y-125896408D01*
X115277901Y-125896010D01*
X115188515Y-125892852D01*
X115130065Y-125885042D01*
X115091936Y-125870812D01*
X115063516Y-125848393D01*
X115031795Y-125804626D01*
X115015501Y-125752363D01*
X115027547Y-125708595D01*
X115063516Y-125656333D01*
X115069200Y-125650854D01*
X115087115Y-125637463D01*
X115111985Y-125627217D01*
X115149675Y-125619696D01*
X115206051Y-125614482D01*
X115286978Y-125611157D01*
X115398323Y-125609300D01*
X115545951Y-125608493D01*
X115735728Y-125608317D01*
X115925711Y-125608233D01*
X116090820Y-125609189D01*
X116217607Y-125613202D01*
X116311118Y-125622289D01*
X116376398Y-125638469D01*
X116418494Y-125663761D01*
X116442452Y-125700182D01*
X116453318Y-125749752D01*
X116456136Y-125814487D01*
X116455955Y-125896408D01*
X116452965Y-125991678D01*
X116436955Y-126086120D01*
X116403094Y-126145256D01*
X116346901Y-126175809D01*
X116263894Y-126184499D01*
X116167864Y-126184499D01*
X116167864Y-126472590D01*
X116167864Y-126760680D01*
X116263894Y-126760680D01*
X116333864Y-126768571D01*
X116407940Y-126808696D01*
X116438979Y-126855517D01*
X116447571Y-126904726D01*
X116455955Y-126952741D01*
G37*
G36*
X113863138Y-128201134D02*
G01*
X114007184Y-128201134D01*
X114151229Y-128201134D01*
X114151229Y-128105104D01*
X114162934Y-128026138D01*
X114201466Y-127957656D01*
X114258308Y-127920420D01*
X114324555Y-127919773D01*
X114391304Y-127961058D01*
X114422344Y-128007880D01*
X114439320Y-128105104D01*
X114439320Y-128201134D01*
X114583365Y-128201134D01*
X114727410Y-128201134D01*
X114727410Y-128105104D01*
X114739116Y-128026138D01*
X114777648Y-127957656D01*
X114834489Y-127920420D01*
X114900737Y-127919773D01*
X114967486Y-127961058D01*
X114998525Y-128007880D01*
X115015501Y-128105104D01*
X115015501Y-128201134D01*
X115111531Y-128201134D01*
X115190497Y-128212839D01*
X115258979Y-128251371D01*
X115296215Y-128308213D01*
X115296862Y-128374461D01*
X115255577Y-128441210D01*
X115249605Y-128446957D01*
X115226811Y-128463498D01*
X115195166Y-128475080D01*
X115146839Y-128482574D01*
X115073997Y-128486849D01*
X114968808Y-128488776D01*
X114823441Y-128489225D01*
X114439320Y-128489225D01*
X114439320Y-128633270D01*
X114439320Y-128921361D01*
X114439320Y-129353497D01*
X114535350Y-129353497D01*
X114598863Y-129357982D01*
X114661825Y-129381996D01*
X114701249Y-129432788D01*
X114721617Y-129517078D01*
X114727410Y-129641588D01*
X114725903Y-129733182D01*
X114719057Y-129803270D01*
X114704379Y-129848645D01*
X114679395Y-129881663D01*
X114675974Y-129885015D01*
X114656139Y-129900595D01*
X114629327Y-129912073D01*
X114588699Y-129920069D01*
X114527414Y-129925206D01*
X114438634Y-129928105D01*
X114315518Y-129929389D01*
X114151229Y-129929678D01*
X114125678Y-129929699D01*
X113950324Y-129930268D01*
X113816592Y-129928257D01*
X113718877Y-129918993D01*
X113651573Y-129897805D01*
X113609076Y-129860023D01*
X113585781Y-129800975D01*
X113576081Y-129715991D01*
X113574372Y-129600399D01*
X113575047Y-129449527D01*
X113575047Y-129065406D01*
X113431002Y-129065406D01*
X113286957Y-129065406D01*
X113286957Y-129449527D01*
X113286929Y-129495531D01*
X113286147Y-129628643D01*
X113283639Y-129723809D01*
X113278535Y-129788863D01*
X113269964Y-129831634D01*
X113257056Y-129859957D01*
X113238942Y-129881663D01*
X113195174Y-129913385D01*
X113142911Y-129929678D01*
X113099144Y-129917632D01*
X113046881Y-129881663D01*
X113041134Y-129875692D01*
X113024593Y-129852897D01*
X113013010Y-129821252D01*
X113005517Y-129772925D01*
X113001242Y-129700083D01*
X112999315Y-129594895D01*
X112998866Y-129449527D01*
X112998866Y-129065406D01*
X112902836Y-129065406D01*
X112832866Y-129057515D01*
X112758790Y-129017391D01*
X112727751Y-128970570D01*
X112710775Y-128873346D01*
X112710775Y-128777316D01*
X112614745Y-128777316D01*
X112580053Y-128776343D01*
X112512980Y-128763546D01*
X112467615Y-128730473D01*
X112440049Y-128670284D01*
X112426374Y-128576143D01*
X112422684Y-128441210D01*
X112422684Y-128201134D01*
X112326654Y-128201134D01*
X112247689Y-128189429D01*
X112179206Y-128150897D01*
X112141970Y-128094055D01*
X112141324Y-128027808D01*
X112182609Y-127961058D01*
X112229430Y-127930019D01*
X112326654Y-127913043D01*
X112422684Y-127913043D01*
X112422684Y-127624953D01*
X112710775Y-127624953D01*
X112710775Y-128057089D01*
X112710775Y-128489225D01*
X113142911Y-128489225D01*
X113575047Y-128489225D01*
X113863138Y-128489225D01*
X113863138Y-128633270D01*
X113863138Y-128777316D01*
X114007184Y-128777316D01*
X114151229Y-128777316D01*
X114151229Y-128633270D01*
X114151229Y-128489225D01*
X114007184Y-128489225D01*
X113863138Y-128489225D01*
X113575047Y-128489225D01*
X113575047Y-128057089D01*
X113575047Y-127624953D01*
X113142911Y-127624953D01*
X112710775Y-127624953D01*
X112422684Y-127624953D01*
X112422684Y-127528922D01*
X112422947Y-127379588D01*
X112426469Y-127254655D01*
X112437583Y-127165937D01*
X112460625Y-127107240D01*
X112499931Y-127072368D01*
X112559837Y-127055129D01*
X112644678Y-127049328D01*
X112758790Y-127048771D01*
X112998866Y-127048771D01*
X112998866Y-126952741D01*
X113010571Y-126873775D01*
X113049103Y-126805293D01*
X113105945Y-126768057D01*
X113172192Y-126767410D01*
X113238942Y-126808696D01*
X113269981Y-126855517D01*
X113286957Y-126952741D01*
X113286957Y-127048771D01*
X113431002Y-127048771D01*
X113575047Y-127048771D01*
X113575047Y-126808696D01*
X113575445Y-126734989D01*
X113578604Y-126645603D01*
X113586413Y-126587153D01*
X113600643Y-126549025D01*
X113623063Y-126520605D01*
X113666830Y-126488884D01*
X113719093Y-126472590D01*
X113762860Y-126484636D01*
X113815123Y-126520605D01*
X113824923Y-126531193D01*
X113838293Y-126551982D01*
X113848129Y-126582001D01*
X113854969Y-126627713D01*
X113859351Y-126695584D01*
X113861814Y-126792078D01*
X113862897Y-126923657D01*
X113863138Y-127096786D01*
X113863138Y-127624953D01*
X113959168Y-127624953D01*
X114038134Y-127636658D01*
X114106617Y-127675190D01*
X114143852Y-127732032D01*
X114144499Y-127798279D01*
X114103214Y-127865028D01*
X114056392Y-127896067D01*
X113959168Y-127913043D01*
X113863138Y-127913043D01*
X113863138Y-128057089D01*
X113863138Y-128201134D01*
G37*
G36*
X119288847Y-120182609D02*
G01*
X119311369Y-120211159D01*
X119327179Y-120254352D01*
X119334853Y-120320742D01*
X119336862Y-120422684D01*
X119333872Y-120517954D01*
X119317863Y-120612396D01*
X119284002Y-120671532D01*
X119227808Y-120702085D01*
X119144802Y-120710775D01*
X119048771Y-120710775D01*
X119048771Y-121094896D01*
X119048743Y-121140899D01*
X119047962Y-121274012D01*
X119045454Y-121369178D01*
X119040350Y-121434231D01*
X119031779Y-121477003D01*
X119018871Y-121505326D01*
X119000756Y-121527032D01*
X118953935Y-121558071D01*
X118856711Y-121575047D01*
X118760681Y-121575047D01*
X118760681Y-121719092D01*
X118760681Y-121863138D01*
X118856711Y-121863138D01*
X118891403Y-121864111D01*
X118958475Y-121876907D01*
X119003841Y-121909980D01*
X119031407Y-121970169D01*
X119045082Y-122064311D01*
X119048771Y-122199244D01*
X119048771Y-122439319D01*
X119144802Y-122439319D01*
X119208315Y-122443804D01*
X119271276Y-122467819D01*
X119310700Y-122518610D01*
X119331069Y-122602900D01*
X119336862Y-122727410D01*
X119333872Y-122822680D01*
X119317863Y-122917122D01*
X119284002Y-122976258D01*
X119227808Y-123006810D01*
X119144802Y-123015501D01*
X119048771Y-123015501D01*
X119048771Y-123159546D01*
X119048771Y-123303592D01*
X119144802Y-123303592D01*
X119179494Y-123304565D01*
X119246566Y-123317361D01*
X119291932Y-123350434D01*
X119319498Y-123410623D01*
X119333172Y-123504765D01*
X119336862Y-123639697D01*
X119336862Y-123879773D01*
X119720983Y-123879773D01*
X119766987Y-123879801D01*
X119900099Y-123880583D01*
X119995265Y-123883091D01*
X120060318Y-123888195D01*
X120103090Y-123896766D01*
X120131413Y-123909673D01*
X120153119Y-123927788D01*
X120191060Y-123984457D01*
X120196293Y-124051342D01*
X120164145Y-124110140D01*
X120099957Y-124151949D01*
X120009074Y-124167864D01*
X119913044Y-124167864D01*
X119913044Y-124263894D01*
X119901338Y-124342860D01*
X119862806Y-124411342D01*
X119805965Y-124448578D01*
X119739717Y-124449225D01*
X119672968Y-124407939D01*
X119641929Y-124361118D01*
X119624953Y-124263894D01*
X119624953Y-124167864D01*
X119336862Y-124167864D01*
X119048771Y-124167864D01*
X119048771Y-124311909D01*
X119048771Y-124455954D01*
X119288847Y-124455954D01*
X119349558Y-124456511D01*
X119466935Y-124463823D01*
X119546325Y-124482722D01*
X119594566Y-124517115D01*
X119618496Y-124570910D01*
X119624953Y-124648015D01*
X119625184Y-124681672D01*
X119632203Y-124725564D01*
X119659516Y-124741735D01*
X119720983Y-124744045D01*
X119790953Y-124751936D01*
X119865028Y-124792060D01*
X119896068Y-124838882D01*
X119913044Y-124936106D01*
X119913044Y-125032136D01*
X120201134Y-125032136D01*
X120489225Y-125032136D01*
X120489225Y-124936106D01*
X120493710Y-124872592D01*
X120517725Y-124809631D01*
X120568516Y-124770207D01*
X120652806Y-124749839D01*
X120777316Y-124744045D01*
X120868910Y-124745552D01*
X120938998Y-124752398D01*
X120984373Y-124767077D01*
X121017391Y-124792060D01*
X121055332Y-124848730D01*
X121060565Y-124915614D01*
X121028417Y-124974412D01*
X120964230Y-125016221D01*
X120873346Y-125032136D01*
X120777316Y-125032136D01*
X120777316Y-125176181D01*
X120777316Y-125320227D01*
X121017391Y-125320227D01*
X121091097Y-125320625D01*
X121180483Y-125323783D01*
X121238934Y-125331592D01*
X121277062Y-125345822D01*
X121305482Y-125368242D01*
X121342450Y-125421242D01*
X121347736Y-125491716D01*
X121305482Y-125560302D01*
X121288830Y-125574964D01*
X121255794Y-125592209D01*
X121206618Y-125602338D01*
X121130689Y-125607117D01*
X121017391Y-125608317D01*
X120777316Y-125608317D01*
X120777316Y-125848393D01*
X120776918Y-125922099D01*
X120773760Y-126011485D01*
X120765950Y-126069935D01*
X120751720Y-126108064D01*
X120729301Y-126136484D01*
X120685533Y-126168205D01*
X120633270Y-126184499D01*
X120612412Y-126182547D01*
X120549300Y-126149029D01*
X120505575Y-126082110D01*
X120489225Y-125992438D01*
X120489225Y-125896408D01*
X120249149Y-125896408D01*
X120175443Y-125896010D01*
X120086057Y-125892852D01*
X120027607Y-125885042D01*
X119989479Y-125870812D01*
X119961059Y-125848393D01*
X119929338Y-125804626D01*
X119913044Y-125752363D01*
X119925090Y-125708595D01*
X119961059Y-125656333D01*
X119977711Y-125641671D01*
X120010747Y-125624425D01*
X120059923Y-125614297D01*
X120135852Y-125609518D01*
X120249149Y-125608317D01*
X120489225Y-125608317D01*
X120489225Y-125464272D01*
X120489225Y-125320227D01*
X120105104Y-125320227D01*
X120059101Y-125320199D01*
X119925988Y-125319417D01*
X119830822Y-125316909D01*
X119765769Y-125311805D01*
X119722997Y-125303234D01*
X119694674Y-125290326D01*
X119672968Y-125272212D01*
X119641929Y-125225390D01*
X119624953Y-125128166D01*
X119624722Y-125094509D01*
X119617703Y-125050617D01*
X119590390Y-125034446D01*
X119528923Y-125032136D01*
X119489645Y-125029892D01*
X119404766Y-125000572D01*
X119353838Y-124937299D01*
X119336862Y-124840075D01*
X119336862Y-124744045D01*
X119048771Y-124744045D01*
X118760681Y-124744045D01*
X118760681Y-124840075D01*
X118748975Y-124919041D01*
X118710443Y-124987524D01*
X118653602Y-125024759D01*
X118587354Y-125025406D01*
X118520605Y-124984121D01*
X118489566Y-124937299D01*
X118472590Y-124840075D01*
X118472590Y-124744045D01*
X118376560Y-124744045D01*
X118297594Y-124732340D01*
X118229112Y-124693808D01*
X118191876Y-124636966D01*
X118191229Y-124570719D01*
X118232514Y-124503970D01*
X118249166Y-124489308D01*
X118282202Y-124472062D01*
X118331378Y-124461934D01*
X118407308Y-124457155D01*
X118520605Y-124455954D01*
X118760681Y-124455954D01*
X118760681Y-123447637D01*
X118760681Y-122439319D01*
X118664650Y-122439319D01*
X118594681Y-122431428D01*
X118520605Y-122391304D01*
X118489566Y-122344483D01*
X118472590Y-122247259D01*
X118472590Y-122151229D01*
X118232514Y-122151229D01*
X118171803Y-122150673D01*
X118054427Y-122143361D01*
X117975037Y-122124461D01*
X117926796Y-122090068D01*
X117902866Y-122036273D01*
X117896408Y-121959168D01*
X117896408Y-121863138D01*
X117752363Y-121863138D01*
X117608318Y-121863138D01*
X117608318Y-122103213D01*
X117607920Y-122176920D01*
X117604762Y-122266305D01*
X117596952Y-122324756D01*
X117582722Y-122362884D01*
X117560303Y-122391304D01*
X117516535Y-122423025D01*
X117464272Y-122439319D01*
X117420505Y-122427273D01*
X117368242Y-122391304D01*
X117364890Y-122387883D01*
X117349310Y-122368048D01*
X117337833Y-122341236D01*
X117329837Y-122300608D01*
X117324700Y-122239323D01*
X117321800Y-122150543D01*
X117320517Y-122027427D01*
X117320227Y-121863138D01*
X117320234Y-121829610D01*
X117320659Y-121673385D01*
X117322193Y-121557080D01*
X117325456Y-121473855D01*
X117331071Y-121416871D01*
X117339659Y-121379289D01*
X117351842Y-121354269D01*
X117368242Y-121334972D01*
X117424911Y-121297031D01*
X117491795Y-121291798D01*
X117550594Y-121323946D01*
X117592403Y-121388133D01*
X117608318Y-121479017D01*
X117608318Y-121575047D01*
X118040454Y-121575047D01*
X118472590Y-121575047D01*
X118472590Y-121479017D01*
X118474834Y-121439740D01*
X118504154Y-121354860D01*
X118567426Y-121303932D01*
X118664650Y-121286956D01*
X118760681Y-121286956D01*
X118760681Y-120902835D01*
X118760709Y-120856832D01*
X118761490Y-120723720D01*
X118763998Y-120628553D01*
X118769102Y-120563500D01*
X118777673Y-120520728D01*
X118790581Y-120492405D01*
X118808696Y-120470699D01*
X118855517Y-120439660D01*
X118952741Y-120422684D01*
X118986398Y-120422453D01*
X119030290Y-120415434D01*
X119046461Y-120388121D01*
X119048771Y-120326654D01*
X119060477Y-120247688D01*
X119099009Y-120179206D01*
X119155850Y-120141970D01*
X119222098Y-120141323D01*
X119288847Y-120182609D01*
G37*
%TD*%
M02*
