%TF.GenerationSoftware,KiCad,Pcbnew,8.0.7-8.0.7-0~ubuntu24.04.1*%
%TF.CreationDate,2025-01-10T19:12:34-06:00*%
%TF.ProjectId,edge_human_detection_board,65646765-5f68-4756-9d61-6e5f64657465,rev?*%
%TF.SameCoordinates,Original*%
%TF.FileFunction,Copper,L1,Top*%
%TF.FilePolarity,Positive*%
%FSLAX46Y46*%
G04 Gerber Fmt 4.6, Leading zero omitted, Abs format (unit mm)*
G04 Created by KiCad (PCBNEW 8.0.7-8.0.7-0~ubuntu24.04.1) date 2025-01-10 19:12:34*
%MOMM*%
%LPD*%
G01*
G04 APERTURE LIST*
G04 Aperture macros list*
%AMRoundRect*
0 Rectangle with rounded corners*
0 $1 Rounding radius*
0 $2 $3 $4 $5 $6 $7 $8 $9 X,Y pos of 4 corners*
0 Add a 4 corners polygon primitive as box body*
4,1,4,$2,$3,$4,$5,$6,$7,$8,$9,$2,$3,0*
0 Add four circle primitives for the rounded corners*
1,1,$1+$1,$2,$3*
1,1,$1+$1,$4,$5*
1,1,$1+$1,$6,$7*
1,1,$1+$1,$8,$9*
0 Add four rect primitives between the rounded corners*
20,1,$1+$1,$2,$3,$4,$5,0*
20,1,$1+$1,$4,$5,$6,$7,0*
20,1,$1+$1,$6,$7,$8,$9,0*
20,1,$1+$1,$8,$9,$2,$3,0*%
G04 Aperture macros list end*
%TA.AperFunction,SMDPad,CuDef*%
%ADD10R,0.700000X0.700000*%
%TD*%
%TA.AperFunction,SMDPad,CuDef*%
%ADD11RoundRect,0.208750X-0.208750X-0.431250X0.208750X-0.431250X0.208750X0.431250X-0.208750X0.431250X0*%
%TD*%
%TA.AperFunction,SMDPad,CuDef*%
%ADD12RoundRect,0.250000X0.450000X-0.350000X0.450000X0.350000X-0.450000X0.350000X-0.450000X-0.350000X0*%
%TD*%
%TA.AperFunction,SMDPad,CuDef*%
%ADD13R,1.475000X0.450000*%
%TD*%
%TA.AperFunction,SMDPad,CuDef*%
%ADD14RoundRect,0.250000X-0.325000X-0.450000X0.325000X-0.450000X0.325000X0.450000X-0.325000X0.450000X0*%
%TD*%
%TA.AperFunction,SMDPad,CuDef*%
%ADD15RoundRect,0.250000X0.475000X-0.337500X0.475000X0.337500X-0.475000X0.337500X-0.475000X-0.337500X0*%
%TD*%
%TA.AperFunction,SMDPad,CuDef*%
%ADD16RoundRect,0.250000X-0.450000X0.350000X-0.450000X-0.350000X0.450000X-0.350000X0.450000X0.350000X0*%
%TD*%
%TA.AperFunction,SMDPad,CuDef*%
%ADD17RoundRect,0.250000X-0.337500X-0.475000X0.337500X-0.475000X0.337500X0.475000X-0.337500X0.475000X0*%
%TD*%
%TA.AperFunction,SMDPad,CuDef*%
%ADD18RoundRect,0.250000X0.337500X0.475000X-0.337500X0.475000X-0.337500X-0.475000X0.337500X-0.475000X0*%
%TD*%
%TA.AperFunction,SMDPad,CuDef*%
%ADD19RoundRect,0.208750X0.431250X-0.208750X0.431250X0.208750X-0.431250X0.208750X-0.431250X-0.208750X0*%
%TD*%
%TA.AperFunction,SMDPad,CuDef*%
%ADD20RoundRect,0.250000X-0.350000X-0.450000X0.350000X-0.450000X0.350000X0.450000X-0.350000X0.450000X0*%
%TD*%
%TA.AperFunction,ComponentPad*%
%ADD21R,1.700000X1.700000*%
%TD*%
%TA.AperFunction,ComponentPad*%
%ADD22O,1.700000X1.700000*%
%TD*%
%TA.AperFunction,ComponentPad*%
%ADD23C,5.500000*%
%TD*%
%TA.AperFunction,ComponentPad*%
%ADD24R,1.524000X1.524000*%
%TD*%
%TA.AperFunction,ComponentPad*%
%ADD25C,1.524000*%
%TD*%
%TA.AperFunction,SMDPad,CuDef*%
%ADD26RoundRect,0.250000X0.350000X0.450000X-0.350000X0.450000X-0.350000X-0.450000X0.350000X-0.450000X0*%
%TD*%
%TA.AperFunction,SMDPad,CuDef*%
%ADD27R,0.100000X0.200000*%
%TD*%
%TA.AperFunction,SMDPad,CuDef*%
%ADD28R,0.500000X0.889500*%
%TD*%
%TA.AperFunction,SMDPad,CuDef*%
%ADD29R,0.500000X0.899500*%
%TD*%
%TA.AperFunction,SMDPad,CuDef*%
%ADD30R,0.500000X0.919500*%
%TD*%
%TA.AperFunction,SMDPad,CuDef*%
%ADD31R,0.500000X0.909500*%
%TD*%
%TA.AperFunction,SMDPad,CuDef*%
%ADD32R,0.500000X0.969500*%
%TD*%
%TA.AperFunction,SMDPad,CuDef*%
%ADD33R,0.969500X0.500000*%
%TD*%
%TA.AperFunction,SMDPad,CuDef*%
%ADD34R,2.316000X1.200000*%
%TD*%
%TA.AperFunction,SMDPad,CuDef*%
%ADD35R,0.979500X0.500000*%
%TD*%
%TA.AperFunction,SMDPad,CuDef*%
%ADD36R,0.500000X0.949500*%
%TD*%
%TA.AperFunction,SMDPad,CuDef*%
%ADD37R,0.500000X0.959500*%
%TD*%
%TA.AperFunction,ViaPad*%
%ADD38C,0.533400*%
%TD*%
%TA.AperFunction,Conductor*%
%ADD39C,0.152400*%
%TD*%
%TA.AperFunction,Conductor*%
%ADD40C,0.508000*%
%TD*%
G04 APERTURE END LIST*
D10*
%TO.P,D3,1,DO*%
%TO.N,/RGB Signalling/SIG_IN_RGB3*%
X123950000Y-101415000D03*
%TO.P,D3,2,GND*%
%TO.N,GND*%
X125050000Y-101415000D03*
%TO.P,D3,3,DI*%
%TO.N,/RGB Signalling/SIG_IN_RGB2*%
X125050000Y-99585000D03*
%TO.P,D3,4,VDD*%
%TO.N,/Coral Micro Breakouts/+5VDC*%
X123950000Y-99585000D03*
%TD*%
D11*
%TO.P,C3,1*%
%TO.N,GND*%
X117245000Y-99000000D03*
%TO.P,C3,2*%
%TO.N,/Coral Micro Breakouts/+5VDC*%
X118500000Y-99000000D03*
%TD*%
D12*
%TO.P,R8,1*%
%TO.N,/TOF Sensor/CORE_1V8*%
X151500000Y-47725000D03*
%TO.P,R8,2*%
%TO.N,/TOF Sensor/LPn*%
X151500000Y-45725000D03*
%TD*%
D10*
%TO.P,D4,1,DO*%
%TO.N,unconnected-(D4-DO-Pad1)*%
X123950000Y-109915000D03*
%TO.P,D4,2,GND*%
%TO.N,GND*%
X125050000Y-109915000D03*
%TO.P,D4,3,DI*%
%TO.N,/RGB Signalling/SIG_IN_RGB3*%
X125050000Y-108085000D03*
%TO.P,D4,4,VDD*%
%TO.N,/Coral Micro Breakouts/+5VDC*%
X123950000Y-108085000D03*
%TD*%
D12*
%TO.P,R9,1*%
%TO.N,/TOF Sensor/CORE_1V8*%
X156000000Y-47725000D03*
%TO.P,R9,2*%
%TO.N,Net-(U2-INT_1)*%
X156000000Y-45725000D03*
%TD*%
D13*
%TO.P,IC1,1,A1*%
%TO.N,/RGB Signalling/SIG_IN_PWM0*%
X119062000Y-77575000D03*
%TO.P,IC1,2,VCCA*%
%TO.N,/Coral Micro Breakouts/+1.8VDC_RGB*%
X119062000Y-78225000D03*
%TO.P,IC1,3,A2*%
%TO.N,unconnected-(IC1-A2-Pad3)*%
X119062000Y-78875000D03*
%TO.P,IC1,4,A3*%
%TO.N,unconnected-(IC1-A3-Pad4)*%
X119062000Y-79525000D03*
%TO.P,IC1,5,A4*%
%TO.N,unconnected-(IC1-A4-Pad5)*%
X119062000Y-80175000D03*
%TO.P,IC1,6,A5*%
%TO.N,unconnected-(IC1-A5-Pad6)*%
X119062000Y-80825000D03*
%TO.P,IC1,7,A6*%
%TO.N,unconnected-(IC1-A6-Pad7)*%
X119062000Y-81475000D03*
%TO.P,IC1,8,A7*%
%TO.N,unconnected-(IC1-A7-Pad8)*%
X119062000Y-82125000D03*
%TO.P,IC1,9,A8*%
%TO.N,unconnected-(IC1-A8-Pad9)*%
X119062000Y-82775000D03*
%TO.P,IC1,10,OE*%
%TO.N,/Coral Micro Breakouts/+1.8VDC_RGB*%
X119062000Y-83425000D03*
%TO.P,IC1,11,GND*%
%TO.N,GND*%
X124938000Y-83425000D03*
%TO.P,IC1,12,B8*%
%TO.N,unconnected-(IC1-B8-Pad12)*%
X124938000Y-82775000D03*
%TO.P,IC1,13,B7*%
%TO.N,unconnected-(IC1-B7-Pad13)*%
X124938000Y-82125000D03*
%TO.P,IC1,14,B6*%
%TO.N,unconnected-(IC1-B6-Pad14)*%
X124938000Y-81475000D03*
%TO.P,IC1,15,B5*%
%TO.N,unconnected-(IC1-B5-Pad15)*%
X124938000Y-80825000D03*
%TO.P,IC1,16,B4*%
%TO.N,unconnected-(IC1-B4-Pad16)*%
X124938000Y-80175000D03*
%TO.P,IC1,17,B3*%
%TO.N,unconnected-(IC1-B3-Pad17)*%
X124938000Y-79525000D03*
%TO.P,IC1,18,B2*%
%TO.N,unconnected-(IC1-B2-Pad18)*%
X124938000Y-78875000D03*
%TO.P,IC1,19,VCCB*%
%TO.N,/Coral Micro Breakouts/+5VDC*%
X124938000Y-78225000D03*
%TO.P,IC1,20,B1*%
%TO.N,/RGB Signalling/SIG_IN_RGB1*%
X124938000Y-77575000D03*
%TD*%
D14*
%TO.P,D1,1,K*%
%TO.N,GND*%
X119975000Y-69500000D03*
%TO.P,D1,2,A*%
%TO.N,Net-(D1-A)*%
X122025000Y-69500000D03*
%TD*%
D11*
%TO.P,C4,1*%
%TO.N,GND*%
X117372500Y-107500000D03*
%TO.P,C4,2*%
%TO.N,/Coral Micro Breakouts/+5VDC*%
X118627500Y-107500000D03*
%TD*%
D15*
%TO.P,C6,1*%
%TO.N,GND*%
X147500000Y-45537500D03*
%TO.P,C6,2*%
%TO.N,/TOF Sensor/CORE_1V8*%
X147500000Y-43462500D03*
%TD*%
D16*
%TO.P,R3,1*%
%TO.N,/Coral Micro Breakouts/+1.8VDC_RGB*%
X128500000Y-54500000D03*
%TO.P,R3,2*%
%TO.N,Net-(R3-Pad2)*%
X128500000Y-56500000D03*
%TD*%
D11*
%TO.P,C2,1*%
%TO.N,GND*%
X117372500Y-91000000D03*
%TO.P,C2,2*%
%TO.N,/Coral Micro Breakouts/+5VDC*%
X118627500Y-91000000D03*
%TD*%
D17*
%TO.P,C5,1*%
%TO.N,GND*%
X137500000Y-38500000D03*
%TO.P,C5,2*%
%TO.N,/TOF Sensor/CORE_1V8*%
X139575000Y-38500000D03*
%TD*%
D18*
%TO.P,C7,1*%
%TO.N,/TOF Sensor/AVDD*%
X140200000Y-34600000D03*
%TO.P,C7,2*%
%TO.N,GND*%
X138125000Y-34600000D03*
%TD*%
D12*
%TO.P,R4,1*%
%TO.N,Net-(R4-Pad1)*%
X166500000Y-60000000D03*
%TO.P,R4,2*%
%TO.N,/TOF Sensor/CORE_1V8*%
X166500000Y-58000000D03*
%TD*%
D19*
%TO.P,C1,1*%
%TO.N,GND*%
X130000000Y-87627500D03*
%TO.P,C1,2*%
%TO.N,Net-(U1-VSYS)*%
X130000000Y-86372500D03*
%TD*%
D20*
%TO.P,R11,1*%
%TO.N,Net-(U2-SPI_I2C_N)*%
X158000000Y-40000000D03*
%TO.P,R11,2*%
%TO.N,GND*%
X160000000Y-40000000D03*
%TD*%
%TO.P,R1,1*%
%TO.N,/Coral Micro Breakouts/+5VDC*%
X128000000Y-78500000D03*
%TO.P,R1,2*%
%TO.N,Net-(U1-VSYS)*%
X130000000Y-78500000D03*
%TD*%
D21*
%TO.P,J1,1,Pin_1*%
%TO.N,GND*%
X122000000Y-54000000D03*
D22*
%TO.P,J1,2,Pin_2*%
%TO.N,/Coral Micro Breakouts/DEBUG_TX*%
X122000000Y-56540000D03*
%TO.P,J1,3,Pin_3*%
%TO.N,/Coral Micro Breakouts/DEBUG_RX*%
X122000000Y-59080000D03*
%TD*%
D10*
%TO.P,D2,4,VDD*%
%TO.N,/Coral Micro Breakouts/+5VDC*%
X123950000Y-91585000D03*
%TO.P,D2,3,DI*%
%TO.N,/RGB Signalling/SIG_IN_RGB1*%
X125050000Y-91585000D03*
%TO.P,D2,2,GND*%
%TO.N,GND*%
X125050000Y-93415000D03*
%TO.P,D2,1,DO*%
%TO.N,/RGB Signalling/SIG_IN_RGB2*%
X123950000Y-93415000D03*
%TD*%
D12*
%TO.P,R7,1*%
%TO.N,/TOF Sensor/CORE_1V8*%
X143500000Y-47725000D03*
%TO.P,R7,2*%
%TO.N,/TOF Sensor/SDA*%
X143500000Y-45725000D03*
%TD*%
D23*
%TO.P,U1,*%
%TO.N,*%
X159513240Y-53551320D03*
X136513240Y-53551320D03*
X159513240Y-111551320D03*
X136513240Y-111551320D03*
D24*
%TO.P,U1,1,GND*%
%TO.N,GND*%
X162000000Y-58060000D03*
D25*
%TO.P,U1,2,1.8V*%
%TO.N,Net-(R4-Pad1)*%
X162000000Y-60600000D03*
%TO.P,U1,3,3.3V*%
%TO.N,Net-(U1-3.3V)*%
X162000000Y-63140000D03*
%TO.P,U1,4,RTC_3V*%
%TO.N,unconnected-(U1-RTC_3V-Pad4)*%
X162000000Y-65680000D03*
%TO.P,U1,5,SPI6_CS0*%
%TO.N,unconnected-(U1-SPI6_CS0-Pad5)*%
X162000000Y-68220000D03*
%TO.P,U1,6,SPI6_SCK*%
%TO.N,unconnected-(U1-SPI6_SCK-Pad6)*%
X162000000Y-70760000D03*
%TO.P,U1,7,SPI6_SDO*%
%TO.N,unconnected-(U1-SPI6_SDO-Pad7)*%
X162000000Y-73300000D03*
%TO.P,U1,8,SPI6_SDI*%
%TO.N,unconnected-(U1-SPI6_SDI-Pad8)*%
X162000000Y-75840000D03*
%TO.P,U1,9,DAC_OUT*%
%TO.N,unconnected-(U1-DAC_OUT-Pad9)*%
X162000000Y-78380000D03*
%TO.P,U1,10,I2C6_SDA*%
%TO.N,unconnected-(U1-I2C6_SDA-Pad10)*%
X162000000Y-80920000D03*
%TO.P,U1,11,I2C1_SCL*%
%TO.N,/TOF Sensor/SCL*%
X162000000Y-83460000D03*
%TO.P,U1,12,I2C1_SDA*%
%TO.N,/TOF Sensor/SDA*%
X162000000Y-86000000D03*
D24*
%TO.P,U1,13,GND*%
%TO.N,GND*%
X134060000Y-58060000D03*
D25*
%TO.P,U1,14,1.8V*%
%TO.N,Net-(R3-Pad2)*%
X134060000Y-60600000D03*
%TO.P,U1,15,ADC1_CH0A*%
%TO.N,unconnected-(U1-ADC1_CH0A-Pad15)*%
X134060000Y-63140000D03*
%TO.P,U1,16,ADC1_CH0B*%
%TO.N,unconnected-(U1-ADC1_CH0B-Pad16)*%
X134060000Y-65680000D03*
%TO.P,U1,17,UART6_TX*%
%TO.N,/Coral Micro Breakouts/DEBUG_TX*%
X134060000Y-68220000D03*
%TO.P,U1,18,UART6_RX*%
%TO.N,/Coral Micro Breakouts/DEBUG_RX*%
X134060000Y-70760000D03*
%TO.P,U1,19,UART6_CTX*%
%TO.N,unconnected-(U1-UART6_CTX-Pad19)*%
X134060000Y-73300000D03*
%TO.P,U1,20,UART6_RTS*%
%TO.N,unconnected-(U1-UART6_RTS-Pad20)*%
X134060000Y-75840000D03*
%TO.P,U1,21,PWM_B*%
%TO.N,/TOF Sensor/LPn*%
X134060000Y-78380000D03*
%TO.P,U1,22,PWM_A*%
%TO.N,/RGB Signalling/SIG_IN_PWM0*%
X134060000Y-80920000D03*
%TO.P,U1,23,I2C6_SCL*%
%TO.N,unconnected-(U1-I2C6_SCL-Pad23)*%
X134060000Y-83460000D03*
%TO.P,U1,24,VSYS*%
%TO.N,Net-(U1-VSYS)*%
X134060000Y-86000000D03*
%TD*%
D12*
%TO.P,R10,1*%
%TO.N,/TOF Sensor/CORE_1V8*%
X160500000Y-47725000D03*
%TO.P,R10,2*%
%TO.N,Net-(U2-SYNC)*%
X160500000Y-45725000D03*
%TD*%
D26*
%TO.P,R2,1*%
%TO.N,Net-(U1-VSYS)*%
X127500000Y-69500000D03*
%TO.P,R2,2*%
%TO.N,Net-(D1-A)*%
X125500000Y-69500000D03*
%TD*%
D12*
%TO.P,R6,1*%
%TO.N,/TOF Sensor/CORE_1V8*%
X139000000Y-47725000D03*
%TO.P,R6,2*%
%TO.N,/TOF Sensor/SCL*%
X139000000Y-45725000D03*
%TD*%
%TO.P,R5,1*%
%TO.N,Net-(U1-3.3V)*%
X169500000Y-55500000D03*
%TO.P,R5,2*%
%TO.N,/TOF Sensor/AVDD*%
X169500000Y-53500000D03*
%TD*%
D20*
%TO.P,R12,1*%
%TO.N,Net-(U2-NCS)*%
X158000000Y-36500000D03*
%TO.P,R12,2*%
%TO.N,GND*%
X160000000Y-36500000D03*
%TD*%
D27*
%TO.P,U2,1,INT_1*%
%TO.N,Net-(U2-INT_1)*%
X151653750Y-38685250D03*
D28*
%TO.P,U2,A1,INT_2*%
X151353750Y-39030500D03*
D29*
%TO.P,U2,A2,XSHUT*%
%TO.N,/TOF Sensor/LPn*%
X150603750Y-39035500D03*
D30*
%TO.P,U2,A3,IOVDD*%
%TO.N,/TOF Sensor/CORE_1V8*%
X149853750Y-39045500D03*
D31*
%TO.P,U2,A4,MOSI*%
%TO.N,/TOF Sensor/SDA*%
X149103750Y-39040500D03*
%TO.P,U2,A5,MCLK*%
%TO.N,/TOF Sensor/SCL*%
X148353750Y-39040500D03*
%TO.P,U2,A6,SWD_IO*%
%TO.N,GND*%
X147603750Y-39040500D03*
D32*
%TO.P,U2,A7,SWD_CLK*%
X146853750Y-39015500D03*
D33*
%TO.P,U2,B1,SYNC*%
%TO.N,Net-(U2-SYNC)*%
X151989000Y-37785250D03*
D34*
%TO.P,U2,B4,GND_1*%
%TO.N,GND*%
X149103750Y-37785250D03*
D35*
%TO.P,U2,B7,CORE_1V8*%
%TO.N,/TOF Sensor/CORE_1V8*%
X146213500Y-37785250D03*
D36*
%TO.P,U2,C1,SPI_I2C_N*%
%TO.N,Net-(U2-SPI_I2C_N)*%
X151353750Y-36510000D03*
%TO.P,U2,C2,NCS*%
%TO.N,Net-(U2-NCS)*%
X150603750Y-36510000D03*
%TO.P,U2,C3,GND_2*%
%TO.N,GND*%
X149853750Y-36510000D03*
D37*
%TO.P,U2,C4,VDD*%
%TO.N,/TOF Sensor/AVDD*%
X149103750Y-36505000D03*
D32*
%TO.P,U2,C5,MISO*%
%TO.N,unconnected-(U2-MISO-PadC5)*%
X148353750Y-36500000D03*
%TO.P,U2,C6,ATEST1*%
%TO.N,GND*%
X147603750Y-36500000D03*
%TO.P,U2,C7,GND_3*%
X146853750Y-36500000D03*
%TD*%
D38*
%TO.N,GND*%
X147000000Y-42200000D03*
X127400000Y-63600000D03*
%TO.N,/RGB Signalling/SIG_IN_RGB2*%
X127000000Y-97000000D03*
%TO.N,GND*%
X138000000Y-43000000D03*
X127500000Y-101500000D03*
X161500000Y-117500000D03*
X136500000Y-103500000D03*
X151000000Y-34000000D03*
X169500000Y-87500000D03*
X121400000Y-104000000D03*
X169500000Y-74500000D03*
X164500000Y-45500000D03*
X143500000Y-42500000D03*
X168500000Y-43000000D03*
X120000000Y-110500000D03*
X126500000Y-116500000D03*
X120500000Y-96500000D03*
X165000000Y-54500000D03*
X118500000Y-75000000D03*
X141500000Y-68500000D03*
X152999195Y-43494745D03*
X168500000Y-110000000D03*
X136500000Y-99000000D03*
X139500000Y-88000000D03*
X159500000Y-99000000D03*
X125000000Y-85000000D03*
X121000000Y-75000000D03*
X128000000Y-76000000D03*
X159500000Y-104000000D03*
X157000000Y-80000000D03*
X129000000Y-94500000D03*
X135500000Y-117000000D03*
X131000000Y-90500000D03*
X156500000Y-88000000D03*
X125500000Y-50000000D03*
X156500000Y-74000000D03*
X120800000Y-47000000D03*
X145500000Y-46000000D03*
X169000000Y-99000000D03*
X140000000Y-80000000D03*
X157500000Y-45000000D03*
%TO.N,/RGB Signalling/SIG_IN_RGB1*%
X130000000Y-91500000D03*
X126500000Y-76000000D03*
%TO.N,/Coral Micro Breakouts/+1.8VDC_RGB*%
X128500000Y-53500000D03*
X117000000Y-75000000D03*
%TO.N,/RGB Signalling/SIG_IN_RGB3*%
X127000000Y-105050000D03*
%TO.N,/RGB Signalling/SIG_IN_PWM0*%
X121500000Y-76000000D03*
X137600000Y-80000000D03*
%TO.N,/TOF Sensor/SCL*%
X136000000Y-45500000D03*
%TO.N,/TOF Sensor/SDA*%
X141000000Y-45000000D03*
X153000000Y-65500000D03*
X148000000Y-76800000D03*
%TO.N,/TOF Sensor/CORE_1V8*%
X166500000Y-55000000D03*
X149500000Y-44500000D03*
X142000000Y-36000000D03*
%TO.N,/TOF Sensor/AVDD*%
X134600000Y-37600000D03*
X163800000Y-35600000D03*
%TO.N,/TOF Sensor/LPn*%
X153500000Y-49500000D03*
X141000000Y-75400000D03*
X153500000Y-45500000D03*
%TD*%
D39*
%TO.N,/TOF Sensor/SDA*%
X149103750Y-39040500D02*
X149103750Y-40396250D01*
X149103750Y-40396250D02*
X148100000Y-41400000D01*
X143500000Y-44300000D02*
X143500000Y-45725000D01*
X148100000Y-41400000D02*
X146400000Y-41400000D01*
X146400000Y-41400000D02*
X143500000Y-44300000D01*
%TO.N,/TOF Sensor/SCL*%
X148353750Y-39040500D02*
X148353750Y-40046250D01*
X148353750Y-40046250D02*
X147900000Y-40500000D01*
X147900000Y-40500000D02*
X143000000Y-40500000D01*
X139000000Y-44500000D02*
X139000000Y-45725000D01*
X143000000Y-40500000D02*
X139000000Y-44500000D01*
D40*
%TO.N,/TOF Sensor/AVDD*%
X169500000Y-45500000D02*
X169500000Y-53500000D01*
X163800000Y-35600000D02*
X163600000Y-35800000D01*
X163600000Y-35800000D02*
X163600000Y-42200000D01*
X163600000Y-42200000D02*
X163800000Y-42400000D01*
X163800000Y-42400000D02*
X166400000Y-42400000D01*
X166400000Y-42400000D02*
X169500000Y-45500000D01*
D39*
%TO.N,/RGB Signalling/SIG_IN_RGB2*%
X125050000Y-95650000D02*
X125050000Y-97000000D01*
X125050000Y-97000000D02*
X125050000Y-99585000D01*
X127000000Y-97000000D02*
X125050000Y-97000000D01*
X123950000Y-93415000D02*
X123950000Y-94550000D01*
X123950000Y-94550000D02*
X125050000Y-95650000D01*
D40*
%TO.N,/Coral Micro Breakouts/+5VDC*%
X123950000Y-91585000D02*
X119212500Y-91585000D01*
X119212500Y-91585000D02*
X118627500Y-91000000D01*
D39*
%TO.N,/RGB Signalling/SIG_IN_RGB1*%
X130000000Y-91500000D02*
X129915000Y-91585000D01*
X129915000Y-91585000D02*
X125050000Y-91585000D01*
D40*
%TO.N,GND*%
X125000000Y-85000000D02*
X125000000Y-83487000D01*
X125000000Y-83487000D02*
X124938000Y-83425000D01*
X149103750Y-37785250D02*
X149853750Y-37035250D01*
X122000000Y-54000000D02*
X122000000Y-53500000D01*
X131000000Y-88627500D02*
X130000000Y-87627500D01*
X149103750Y-37785250D02*
X147896250Y-37785250D01*
X147603750Y-38077750D02*
X147603750Y-39040500D01*
X127415000Y-101415000D02*
X127500000Y-101500000D01*
X147603750Y-37492750D02*
X147603750Y-36500000D01*
X147603750Y-39040500D02*
X146878750Y-39040500D01*
X146878750Y-39040500D02*
X146853750Y-39015500D01*
X147896250Y-37785250D02*
X147603750Y-38077750D01*
X147896250Y-37785250D02*
X147603750Y-37492750D01*
X149853750Y-37035250D02*
X149853750Y-36510000D01*
X125050000Y-101415000D02*
X127415000Y-101415000D01*
X146853750Y-36500000D02*
X147603750Y-36500000D01*
X147500000Y-45537500D02*
X145962500Y-45537500D01*
X145962500Y-45537500D02*
X145500000Y-46000000D01*
X149853750Y-35146250D02*
X151000000Y-34000000D01*
X149853750Y-36510000D02*
X149853750Y-35146250D01*
X131000000Y-90500000D02*
X131000000Y-88627500D01*
%TO.N,/Coral Micro Breakouts/+5VDC*%
X122785000Y-108085000D02*
X123950000Y-108085000D01*
X118627500Y-100127500D02*
X118627500Y-107500000D01*
X118777500Y-107350000D02*
X122050000Y-107350000D01*
X122050000Y-107350000D02*
X122785000Y-108085000D01*
X122050000Y-98850000D02*
X122785000Y-99585000D01*
X128000000Y-78500000D02*
X128000000Y-85500000D01*
X128000000Y-78500000D02*
X127725000Y-78225000D01*
X118627500Y-107500000D02*
X118777500Y-107350000D01*
X128000000Y-85500000D02*
X127000000Y-86500000D01*
X122785000Y-99585000D02*
X123950000Y-99585000D01*
X118650000Y-98850000D02*
X118500000Y-99000000D01*
X118627500Y-98872500D02*
X118500000Y-99000000D01*
X127000000Y-86500000D02*
X122000000Y-86500000D01*
X118500000Y-99000000D02*
X118500000Y-100000000D01*
X118627500Y-89872500D02*
X118627500Y-91000000D01*
X127725000Y-78225000D02*
X124938000Y-78225000D01*
X122050000Y-98850000D02*
X118650000Y-98850000D01*
X118500000Y-100000000D02*
X118627500Y-100127500D01*
X122000000Y-86500000D02*
X118627500Y-89872500D01*
X118627500Y-91000000D02*
X118627500Y-98872500D01*
D39*
%TO.N,/RGB Signalling/SIG_IN_RGB1*%
X124938000Y-77062000D02*
X126000000Y-76000000D01*
X126000000Y-76000000D02*
X126500000Y-76000000D01*
X124938000Y-77575000D02*
X124938000Y-77062000D01*
D40*
%TO.N,/Coral Micro Breakouts/+1.8VDC_RGB*%
X119062000Y-78225000D02*
X117275000Y-78225000D01*
X116500000Y-82850000D02*
X117075000Y-83425000D01*
X119062000Y-83425000D02*
X117075000Y-83425000D01*
X117275000Y-78225000D02*
X116500000Y-79000000D01*
X128500000Y-54500000D02*
X128500000Y-53500000D01*
X116500000Y-79000000D02*
X116500000Y-75500000D01*
X116500000Y-79000000D02*
X116500000Y-82850000D01*
X116500000Y-75500000D02*
X117000000Y-75000000D01*
D39*
%TO.N,/Coral Micro Breakouts/DEBUG_RX*%
X134060000Y-70060000D02*
X134060000Y-70760000D01*
D40*
%TO.N,Net-(D1-A)*%
X125500000Y-69500000D02*
X122025000Y-69500000D01*
D39*
%TO.N,/RGB Signalling/SIG_IN_RGB3*%
X127000000Y-105050000D02*
X125550000Y-105050000D01*
X125550000Y-105050000D02*
X125500000Y-105000000D01*
X123950000Y-101415000D02*
X125500000Y-102965000D01*
X125500000Y-107635000D02*
X125050000Y-108085000D01*
X125500000Y-102965000D02*
X125500000Y-107635000D01*
%TO.N,/RGB Signalling/SIG_IN_PWM0*%
X121500000Y-76000000D02*
X120637000Y-76000000D01*
X134060000Y-80920000D02*
X136680000Y-80920000D01*
X120637000Y-76000000D02*
X119062000Y-77575000D01*
X136680000Y-80920000D02*
X137600000Y-80000000D01*
D40*
%TO.N,Net-(U1-3.3V)*%
X169500000Y-62500000D02*
X169500000Y-55500000D01*
X168860000Y-63140000D02*
X169500000Y-62500000D01*
X162000000Y-63140000D02*
X168860000Y-63140000D01*
%TO.N,Net-(U1-VSYS)*%
X130000000Y-86372500D02*
X130000000Y-78500000D01*
X130000000Y-72000000D02*
X127500000Y-69500000D01*
X134060000Y-86000000D02*
X132500000Y-86000000D01*
X130127500Y-86500000D02*
X130000000Y-86372500D01*
X130000000Y-78500000D02*
X130000000Y-72000000D01*
X132000000Y-86500000D02*
X130127500Y-86500000D01*
X132500000Y-86000000D02*
X132000000Y-86500000D01*
D39*
%TO.N,/TOF Sensor/SCL*%
X139000000Y-45725000D02*
X137725000Y-45725000D01*
X137500000Y-45500000D02*
X136000000Y-45500000D01*
X137725000Y-45725000D02*
X137500000Y-45500000D01*
%TO.N,/TOF Sensor/SDA*%
X162000000Y-86000000D02*
X153000000Y-77000000D01*
X142225000Y-45725000D02*
X143500000Y-45725000D01*
X153000000Y-77000000D02*
X153000000Y-76200000D01*
X141000000Y-45000000D02*
X141500000Y-45000000D01*
X141500000Y-45000000D02*
X142225000Y-45725000D01*
X148600000Y-76200000D02*
X148000000Y-76800000D01*
X153000000Y-76200000D02*
X153000000Y-65500000D01*
X153000000Y-76200000D02*
X148600000Y-76200000D01*
D40*
%TO.N,Net-(R3-Pad2)*%
X128500000Y-58000000D02*
X128500000Y-56500000D01*
X133960000Y-60500000D02*
X131000000Y-60500000D01*
X134060000Y-60600000D02*
X133960000Y-60500000D01*
X131000000Y-60500000D02*
X128500000Y-58000000D01*
%TO.N,Net-(R4-Pad1)*%
X162000000Y-60600000D02*
X165900000Y-60600000D01*
X165900000Y-60600000D02*
X166500000Y-60000000D01*
%TO.N,/TOF Sensor/CORE_1V8*%
X145998750Y-38000000D02*
X142500000Y-38000000D01*
X139575000Y-38500000D02*
X135000000Y-43075000D01*
X141500000Y-38000000D02*
X141075000Y-38425000D01*
X147500000Y-43462500D02*
X149853750Y-41108750D01*
X135000000Y-46500000D02*
X136225000Y-47725000D01*
X141075000Y-38425000D02*
X140000000Y-38425000D01*
X148537500Y-44500000D02*
X149500000Y-44500000D01*
X142500000Y-38000000D02*
X141500000Y-38000000D01*
X166500000Y-58000000D02*
X166500000Y-55000000D01*
X136225000Y-47725000D02*
X139000000Y-47725000D01*
X147500000Y-43462500D02*
X148537500Y-44500000D01*
X149853750Y-41108750D02*
X149853750Y-39045500D01*
X139575000Y-38500000D02*
X139575000Y-37625000D01*
X141200000Y-36000000D02*
X142000000Y-36000000D01*
X146213500Y-37785250D02*
X145998750Y-38000000D01*
X139000000Y-47725000D02*
X160500000Y-47725000D01*
X139575000Y-37625000D02*
X141200000Y-36000000D01*
X135000000Y-43075000D02*
X135000000Y-46500000D01*
%TO.N,/TOF Sensor/AVDD*%
X135600000Y-36600000D02*
X134600000Y-37600000D01*
X148500000Y-34000000D02*
X149103750Y-34603750D01*
X140200000Y-34600000D02*
X138200000Y-36600000D01*
X141037500Y-34000000D02*
X148500000Y-34000000D01*
X149103750Y-34603750D02*
X149103750Y-36505000D01*
X138200000Y-36600000D02*
X135600000Y-36600000D01*
X140037500Y-35000000D02*
X141037500Y-34000000D01*
D39*
%TO.N,/TOF Sensor/LPn*%
X137220000Y-75220000D02*
X134060000Y-78380000D01*
X150900550Y-41900550D02*
X150900550Y-39332300D01*
X137220000Y-75220000D02*
X140820000Y-75220000D01*
X153500000Y-49500000D02*
X153500000Y-58940000D01*
X153275000Y-45725000D02*
X153500000Y-45500000D01*
X151500000Y-42500000D02*
X150900550Y-41900550D01*
X153500000Y-58940000D02*
X137220000Y-75220000D01*
X151500000Y-45725000D02*
X153275000Y-45725000D01*
X140820000Y-75220000D02*
X141000000Y-75400000D01*
X150900550Y-39332300D02*
X150603750Y-39035500D01*
X151500000Y-45725000D02*
X151500000Y-42500000D01*
%TO.N,Net-(U2-SYNC)*%
X159928750Y-45725000D02*
X151989000Y-37785250D01*
X160500000Y-45725000D02*
X159928750Y-45725000D01*
%TO.N,Net-(U2-SPI_I2C_N)*%
X154000000Y-36000000D02*
X158000000Y-40000000D01*
X151353750Y-36510000D02*
X151863750Y-36000000D01*
X151863750Y-36000000D02*
X154000000Y-36000000D01*
%TO.N,Net-(U2-NCS)*%
X156500000Y-35000000D02*
X158000000Y-36500000D01*
X151486600Y-35000000D02*
X156500000Y-35000000D01*
X150603750Y-35882850D02*
X151486600Y-35000000D01*
X150603750Y-36510000D02*
X150603750Y-35882850D01*
%TO.N,Net-(U2-INT_1)*%
X156000000Y-43676750D02*
X151353750Y-39030500D01*
X156000000Y-45725000D02*
X156000000Y-43676750D01*
%TD*%
%TA.AperFunction,Conductor*%
%TO.N,GND*%
G36*
X121907654Y-99251185D02*
G01*
X121928296Y-99267819D01*
X122479724Y-99819247D01*
X122550753Y-99890276D01*
X122637746Y-99940501D01*
X122734775Y-99966500D01*
X122991474Y-99966500D01*
X123058513Y-99986185D01*
X123104268Y-100038989D01*
X123107656Y-100047167D01*
X123156202Y-100177328D01*
X123156206Y-100177335D01*
X123242452Y-100292544D01*
X123242455Y-100292547D01*
X123357664Y-100378793D01*
X123357666Y-100378794D01*
X123357669Y-100378796D01*
X123365629Y-100381765D01*
X123371133Y-100383818D01*
X123427066Y-100425690D01*
X123451483Y-100491154D01*
X123436631Y-100559427D01*
X123387225Y-100608832D01*
X123371133Y-100616182D01*
X123357670Y-100621203D01*
X123357664Y-100621206D01*
X123242455Y-100707452D01*
X123242452Y-100707455D01*
X123156206Y-100822664D01*
X123156202Y-100822671D01*
X123105908Y-100957517D01*
X123099501Y-101017116D01*
X123099500Y-101017135D01*
X123099500Y-101812870D01*
X123099501Y-101812876D01*
X123105908Y-101872483D01*
X123156202Y-102007328D01*
X123156206Y-102007335D01*
X123242452Y-102122544D01*
X123242455Y-102122547D01*
X123357664Y-102208793D01*
X123357671Y-102208797D01*
X123492517Y-102259091D01*
X123492516Y-102259091D01*
X123495307Y-102259391D01*
X123552127Y-102265500D01*
X124347872Y-102265499D01*
X124407483Y-102259091D01*
X124407485Y-102259090D01*
X124407487Y-102259090D01*
X124415031Y-102257308D01*
X124415523Y-102259391D01*
X124474264Y-102255185D01*
X124535590Y-102288665D01*
X125259981Y-103013056D01*
X125293466Y-103074379D01*
X125296300Y-103100737D01*
X125296300Y-107110500D01*
X125276615Y-107177539D01*
X125223811Y-107223294D01*
X125172300Y-107234500D01*
X124652129Y-107234500D01*
X124652123Y-107234501D01*
X124592516Y-107240908D01*
X124543332Y-107259253D01*
X124473640Y-107264237D01*
X124456667Y-107259253D01*
X124407482Y-107240908D01*
X124407483Y-107240908D01*
X124347883Y-107234501D01*
X124347881Y-107234500D01*
X124347873Y-107234500D01*
X124347864Y-107234500D01*
X123552129Y-107234500D01*
X123552123Y-107234501D01*
X123492516Y-107240908D01*
X123357671Y-107291202D01*
X123357664Y-107291206D01*
X123242455Y-107377452D01*
X123242452Y-107377455D01*
X123156206Y-107492664D01*
X123156203Y-107492669D01*
X123108446Y-107620713D01*
X123066574Y-107676646D01*
X123001110Y-107701063D01*
X122932837Y-107686211D01*
X122904583Y-107665060D01*
X122284248Y-107044725D01*
X122284247Y-107044724D01*
X122197254Y-106994499D01*
X122197255Y-106994499D01*
X122172996Y-106987999D01*
X122100225Y-106968500D01*
X122100222Y-106968500D01*
X119639138Y-106968500D01*
X119572099Y-106948815D01*
X119526344Y-106896011D01*
X119520758Y-106881407D01*
X119487765Y-106775527D01*
X119398660Y-106628130D01*
X119398658Y-106628128D01*
X119398657Y-106628126D01*
X119276873Y-106506342D01*
X119276870Y-106506340D01*
X119129473Y-106417235D01*
X119129467Y-106417233D01*
X119096109Y-106406838D01*
X119037961Y-106368100D01*
X119009988Y-106304075D01*
X119009000Y-106288453D01*
X119009000Y-100148453D01*
X119028685Y-100081414D01*
X119068850Y-100042336D01*
X119149370Y-99993660D01*
X119271160Y-99871870D01*
X119360265Y-99724473D01*
X119411506Y-99560035D01*
X119418000Y-99488572D01*
X119418000Y-99355500D01*
X119437685Y-99288461D01*
X119490489Y-99242706D01*
X119542000Y-99231500D01*
X121840615Y-99231500D01*
X121907654Y-99251185D01*
G37*
%TD.AperFunction*%
%TA.AperFunction,Conductor*%
G36*
X123058513Y-91986185D02*
G01*
X123104268Y-92038989D01*
X123107656Y-92047167D01*
X123156202Y-92177328D01*
X123156206Y-92177335D01*
X123242452Y-92292544D01*
X123242455Y-92292547D01*
X123357664Y-92378793D01*
X123357666Y-92378794D01*
X123357669Y-92378796D01*
X123365629Y-92381765D01*
X123371133Y-92383818D01*
X123427066Y-92425690D01*
X123451483Y-92491154D01*
X123436631Y-92559427D01*
X123387225Y-92608832D01*
X123371133Y-92616182D01*
X123357670Y-92621203D01*
X123357664Y-92621206D01*
X123242455Y-92707452D01*
X123242452Y-92707455D01*
X123156206Y-92822664D01*
X123156202Y-92822671D01*
X123105908Y-92957517D01*
X123099501Y-93017116D01*
X123099500Y-93017135D01*
X123099500Y-93812870D01*
X123099501Y-93812876D01*
X123105908Y-93872483D01*
X123156202Y-94007328D01*
X123156206Y-94007335D01*
X123242452Y-94122544D01*
X123242455Y-94122547D01*
X123357664Y-94208793D01*
X123357671Y-94208797D01*
X123402618Y-94225561D01*
X123492517Y-94259091D01*
X123552127Y-94265500D01*
X123622300Y-94265499D01*
X123689338Y-94285183D01*
X123735094Y-94337986D01*
X123746300Y-94389499D01*
X123746300Y-94590517D01*
X123746301Y-94590522D01*
X123777308Y-94665384D01*
X123852049Y-94740125D01*
X123852055Y-94740130D01*
X124809981Y-95698056D01*
X124843466Y-95759379D01*
X124846300Y-95785737D01*
X124846300Y-98610500D01*
X124826615Y-98677539D01*
X124773811Y-98723294D01*
X124722302Y-98734500D01*
X124652130Y-98734500D01*
X124652123Y-98734501D01*
X124592516Y-98740908D01*
X124543332Y-98759253D01*
X124473640Y-98764237D01*
X124456667Y-98759253D01*
X124407482Y-98740908D01*
X124407483Y-98740908D01*
X124347883Y-98734501D01*
X124347881Y-98734500D01*
X124347873Y-98734500D01*
X124347864Y-98734500D01*
X123552129Y-98734500D01*
X123552123Y-98734501D01*
X123492516Y-98740908D01*
X123357671Y-98791202D01*
X123357664Y-98791206D01*
X123242455Y-98877452D01*
X123242452Y-98877455D01*
X123156206Y-98992664D01*
X123156203Y-98992669D01*
X123108446Y-99120713D01*
X123066574Y-99176646D01*
X123001110Y-99201063D01*
X122932837Y-99186211D01*
X122904583Y-99165060D01*
X122284248Y-98544725D01*
X122284247Y-98544724D01*
X122236225Y-98516999D01*
X122236225Y-98516997D01*
X122236222Y-98516997D01*
X122197259Y-98494501D01*
X122197258Y-98494500D01*
X122189301Y-98492368D01*
X122100225Y-98468500D01*
X122100222Y-98468500D01*
X119511638Y-98468500D01*
X119444599Y-98448815D01*
X119398844Y-98396011D01*
X119393258Y-98381407D01*
X119360265Y-98275527D01*
X119271160Y-98128130D01*
X119271158Y-98128128D01*
X119271157Y-98128126D01*
X119149374Y-98006343D01*
X119149370Y-98006340D01*
X119068849Y-97957662D01*
X119021662Y-97906134D01*
X119009000Y-97851546D01*
X119009000Y-92211546D01*
X119028685Y-92144507D01*
X119081489Y-92098752D01*
X119096105Y-92093162D01*
X119129473Y-92082765D01*
X119276870Y-91993660D01*
X119276877Y-91993652D01*
X119277857Y-91992886D01*
X119278713Y-91992544D01*
X119283289Y-91989779D01*
X119283749Y-91990540D01*
X119342771Y-91967040D01*
X119354327Y-91966500D01*
X122991474Y-91966500D01*
X123058513Y-91986185D01*
G37*
%TD.AperFunction*%
%TA.AperFunction,Conductor*%
G36*
X137136674Y-33519685D02*
G01*
X137182429Y-33572489D01*
X137192373Y-33641647D01*
X137175174Y-33689097D01*
X137103143Y-33805875D01*
X137103141Y-33805880D01*
X137047994Y-33972302D01*
X137047993Y-33972309D01*
X137037500Y-34075013D01*
X137037500Y-34350000D01*
X138001000Y-34350000D01*
X138068039Y-34369685D01*
X138113794Y-34422489D01*
X138125000Y-34474000D01*
X138125000Y-34600000D01*
X138251000Y-34600000D01*
X138318039Y-34619685D01*
X138363794Y-34672489D01*
X138375000Y-34724000D01*
X138375000Y-35834114D01*
X138355315Y-35901153D01*
X138338681Y-35921795D01*
X138078296Y-36182181D01*
X138016973Y-36215666D01*
X137990615Y-36218500D01*
X135657837Y-36218500D01*
X135657821Y-36218499D01*
X135650225Y-36218499D01*
X135549775Y-36218499D01*
X135505708Y-36230307D01*
X135452748Y-36244497D01*
X135416198Y-36265600D01*
X135416197Y-36265599D01*
X135365759Y-36294719D01*
X135365751Y-36294725D01*
X135294722Y-36365755D01*
X134851209Y-36809266D01*
X134789886Y-36842751D01*
X134749645Y-36844805D01*
X134600004Y-36827945D01*
X134599996Y-36827945D01*
X134428204Y-36847301D01*
X134265016Y-36904402D01*
X134118632Y-36996382D01*
X133996382Y-37118632D01*
X133904402Y-37265016D01*
X133847302Y-37428202D01*
X133847301Y-37428203D01*
X133827945Y-37599996D01*
X133827945Y-37600003D01*
X133847301Y-37771795D01*
X133904402Y-37934983D01*
X133996382Y-38081367D01*
X134118632Y-38203617D01*
X134248905Y-38285474D01*
X134265018Y-38295598D01*
X134428202Y-38352698D01*
X134485468Y-38359150D01*
X134599996Y-38372055D01*
X134600000Y-38372055D01*
X134600004Y-38372055D01*
X134698170Y-38360993D01*
X134771798Y-38352698D01*
X134934982Y-38295598D01*
X135081368Y-38203617D01*
X135203617Y-38081368D01*
X135270445Y-37975013D01*
X136412500Y-37975013D01*
X136412500Y-38250000D01*
X137250000Y-38250000D01*
X137250000Y-37275000D01*
X137112527Y-37275000D01*
X137112512Y-37275001D01*
X137009802Y-37285494D01*
X136843380Y-37340641D01*
X136843375Y-37340643D01*
X136694154Y-37432684D01*
X136570184Y-37556654D01*
X136478143Y-37705875D01*
X136478141Y-37705880D01*
X136422994Y-37872302D01*
X136422993Y-37872309D01*
X136412500Y-37975013D01*
X135270445Y-37975013D01*
X135295598Y-37934982D01*
X135352698Y-37771798D01*
X135367041Y-37644498D01*
X135372055Y-37600003D01*
X135372055Y-37599997D01*
X135355194Y-37450353D01*
X135367248Y-37381531D01*
X135390730Y-37348791D01*
X135721703Y-37017819D01*
X135783026Y-36984334D01*
X135809384Y-36981500D01*
X138250222Y-36981500D01*
X138250225Y-36981500D01*
X138347254Y-36955501D01*
X138434247Y-36905276D01*
X138505276Y-36834247D01*
X138505277Y-36834246D01*
X139516532Y-35822989D01*
X139577853Y-35789506D01*
X139643211Y-35792965D01*
X139709703Y-35814999D01*
X139812491Y-35825500D01*
X140535614Y-35825499D01*
X140602653Y-35845183D01*
X140648408Y-35897987D01*
X140658352Y-35967146D01*
X140629327Y-36030702D01*
X140623295Y-36037180D01*
X139422294Y-37238181D01*
X139360971Y-37271666D01*
X139334614Y-37274500D01*
X139187499Y-37274500D01*
X139187480Y-37274501D01*
X139084703Y-37285000D01*
X139084700Y-37285001D01*
X138918168Y-37340185D01*
X138918163Y-37340187D01*
X138768842Y-37432289D01*
X138644788Y-37556343D01*
X138644783Y-37556349D01*
X138642741Y-37559661D01*
X138640747Y-37561453D01*
X138640307Y-37562011D01*
X138640211Y-37561935D01*
X138590791Y-37606383D01*
X138521828Y-37617602D01*
X138457747Y-37589755D01*
X138431668Y-37559656D01*
X138429819Y-37556659D01*
X138429816Y-37556655D01*
X138305845Y-37432684D01*
X138156624Y-37340643D01*
X138156619Y-37340641D01*
X137990197Y-37285494D01*
X137990190Y-37285493D01*
X137887486Y-37275000D01*
X137750000Y-37275000D01*
X137750000Y-39734114D01*
X137730315Y-39801153D01*
X137713681Y-39821795D01*
X134765753Y-42769724D01*
X134694725Y-42840751D01*
X134694723Y-42840754D01*
X134644499Y-42927745D01*
X134644499Y-42927746D01*
X134618500Y-43024775D01*
X134618500Y-46550225D01*
X134638536Y-46624999D01*
X134644500Y-46647256D01*
X134669284Y-46690182D01*
X134669285Y-46690186D01*
X134669286Y-46690186D01*
X134694724Y-46734247D01*
X135990753Y-48030276D01*
X136077747Y-48080502D01*
X136174775Y-48106501D01*
X136174778Y-48106501D01*
X136282821Y-48106501D01*
X136282837Y-48106500D01*
X137685632Y-48106500D01*
X137752671Y-48126185D01*
X137798426Y-48178989D01*
X137808990Y-48217899D01*
X137810001Y-48227797D01*
X137810001Y-48227799D01*
X137865185Y-48394331D01*
X137865186Y-48394334D01*
X137957288Y-48543656D01*
X138081344Y-48667712D01*
X138230666Y-48759814D01*
X138397203Y-48814999D01*
X138499991Y-48825500D01*
X139500008Y-48825499D01*
X139500016Y-48825498D01*
X139500019Y-48825498D01*
X139556302Y-48819748D01*
X139602797Y-48814999D01*
X139769334Y-48759814D01*
X139918656Y-48667712D01*
X140042712Y-48543656D01*
X140134814Y-48394334D01*
X140189999Y-48227797D01*
X140191010Y-48217899D01*
X140217404Y-48153208D01*
X140274584Y-48113055D01*
X140314368Y-48106500D01*
X142185632Y-48106500D01*
X142252671Y-48126185D01*
X142298426Y-48178989D01*
X142308990Y-48217899D01*
X142310001Y-48227797D01*
X142310001Y-48227799D01*
X142365185Y-48394331D01*
X142365186Y-48394334D01*
X142457288Y-48543656D01*
X142581344Y-48667712D01*
X142730666Y-48759814D01*
X142897203Y-48814999D01*
X142999991Y-48825500D01*
X144000008Y-48825499D01*
X144000016Y-48825498D01*
X144000019Y-48825498D01*
X144056302Y-48819748D01*
X144102797Y-48814999D01*
X144269334Y-48759814D01*
X144418656Y-48667712D01*
X144542712Y-48543656D01*
X144634814Y-48394334D01*
X144689999Y-48227797D01*
X144691010Y-48217899D01*
X144717404Y-48153208D01*
X144774584Y-48113055D01*
X144814368Y-48106500D01*
X150185632Y-48106500D01*
X150252671Y-48126185D01*
X150298426Y-48178989D01*
X150308990Y-48217899D01*
X150310001Y-48227797D01*
X150310001Y-48227799D01*
X150365185Y-48394331D01*
X150365186Y-48394334D01*
X150457288Y-48543656D01*
X150581344Y-48667712D01*
X150730666Y-48759814D01*
X150897203Y-48814999D01*
X150999991Y-48825500D01*
X152000008Y-48825499D01*
X152000016Y-48825498D01*
X152000019Y-48825498D01*
X152056302Y-48819748D01*
X152102797Y-48814999D01*
X152269334Y-48759814D01*
X152418656Y-48667712D01*
X152542712Y-48543656D01*
X152634814Y-48394334D01*
X152689999Y-48227797D01*
X152691010Y-48217899D01*
X152717404Y-48153208D01*
X152774584Y-48113055D01*
X152814368Y-48106500D01*
X154685632Y-48106500D01*
X154752671Y-48126185D01*
X154798426Y-48178989D01*
X154808990Y-48217899D01*
X154810001Y-48227797D01*
X154810001Y-48227799D01*
X154865185Y-48394331D01*
X154865186Y-48394334D01*
X154957288Y-48543656D01*
X155081344Y-48667712D01*
X155230666Y-48759814D01*
X155397203Y-48814999D01*
X155499991Y-48825500D01*
X156500008Y-48825499D01*
X156500016Y-48825498D01*
X156500019Y-48825498D01*
X156556302Y-48819748D01*
X156602797Y-48814999D01*
X156769334Y-48759814D01*
X156918656Y-48667712D01*
X157042712Y-48543656D01*
X157134814Y-48394334D01*
X157189999Y-48227797D01*
X157191010Y-48217899D01*
X157217404Y-48153208D01*
X157274584Y-48113055D01*
X157314368Y-48106500D01*
X159185632Y-48106500D01*
X159252671Y-48126185D01*
X159298426Y-48178989D01*
X159308990Y-48217899D01*
X159310001Y-48227797D01*
X159310001Y-48227799D01*
X159365185Y-48394331D01*
X159365186Y-48394334D01*
X159457288Y-48543656D01*
X159581344Y-48667712D01*
X159730666Y-48759814D01*
X159897203Y-48814999D01*
X159999991Y-48825500D01*
X161000008Y-48825499D01*
X161000016Y-48825498D01*
X161000019Y-48825498D01*
X161056302Y-48819748D01*
X161102797Y-48814999D01*
X161269334Y-48759814D01*
X161418656Y-48667712D01*
X161542712Y-48543656D01*
X161634814Y-48394334D01*
X161689999Y-48227797D01*
X161700500Y-48125009D01*
X161700499Y-47324992D01*
X161697618Y-47296792D01*
X161689999Y-47222203D01*
X161689998Y-47222200D01*
X161634814Y-47055666D01*
X161542712Y-46906344D01*
X161449049Y-46812681D01*
X161415564Y-46751358D01*
X161420548Y-46681666D01*
X161449049Y-46637319D01*
X161471863Y-46614505D01*
X161542712Y-46543656D01*
X161634814Y-46394334D01*
X161689999Y-46227797D01*
X161700500Y-46125009D01*
X161700499Y-45324992D01*
X161695091Y-45272055D01*
X161689999Y-45222203D01*
X161689998Y-45222200D01*
X161671049Y-45165016D01*
X161634814Y-45055666D01*
X161542712Y-44906344D01*
X161418656Y-44782288D01*
X161269334Y-44690186D01*
X161102797Y-44635001D01*
X161102795Y-44635000D01*
X161000010Y-44624500D01*
X159999998Y-44624500D01*
X159999980Y-44624501D01*
X159897203Y-44635000D01*
X159897200Y-44635001D01*
X159730668Y-44690185D01*
X159730663Y-44690187D01*
X159581345Y-44782287D01*
X159515409Y-44848223D01*
X159454085Y-44881707D01*
X159384394Y-44876722D01*
X159340047Y-44848222D01*
X152930102Y-38438277D01*
X152896617Y-38376954D01*
X152901601Y-38307262D01*
X152913498Y-38285474D01*
X152913296Y-38285364D01*
X152917543Y-38277584D01*
X152917546Y-38277581D01*
X152967841Y-38142733D01*
X152974250Y-38083123D01*
X152974249Y-37487378D01*
X152967841Y-37427767D01*
X152965016Y-37420194D01*
X152917547Y-37292921D01*
X152917543Y-37292914D01*
X152831297Y-37177705D01*
X152831294Y-37177702D01*
X152716085Y-37091456D01*
X152716078Y-37091452D01*
X152581232Y-37041158D01*
X152581233Y-37041158D01*
X152521633Y-37034751D01*
X152521631Y-37034750D01*
X152521623Y-37034750D01*
X152521615Y-37034750D01*
X152228250Y-37034750D01*
X152161211Y-37015065D01*
X152115456Y-36962261D01*
X152104250Y-36910750D01*
X152104249Y-36327700D01*
X152123933Y-36260661D01*
X152176737Y-36214906D01*
X152228249Y-36203700D01*
X153864263Y-36203700D01*
X153931302Y-36223385D01*
X153951944Y-36240019D01*
X156905479Y-39193554D01*
X156938964Y-39254877D01*
X156935504Y-39320239D01*
X156910001Y-39397201D01*
X156899500Y-39499983D01*
X156899500Y-40500001D01*
X156899501Y-40500019D01*
X156910000Y-40602796D01*
X156910001Y-40602799D01*
X156943436Y-40703698D01*
X156965186Y-40769334D01*
X157057288Y-40918656D01*
X157181344Y-41042712D01*
X157330666Y-41134814D01*
X157497203Y-41189999D01*
X157599991Y-41200500D01*
X158400008Y-41200499D01*
X158400016Y-41200498D01*
X158400019Y-41200498D01*
X158468857Y-41193466D01*
X158502797Y-41189999D01*
X158669334Y-41134814D01*
X158818656Y-41042712D01*
X158912675Y-40948692D01*
X158973994Y-40915210D01*
X159043686Y-40920194D01*
X159088034Y-40948695D01*
X159181654Y-41042315D01*
X159330875Y-41134356D01*
X159330880Y-41134358D01*
X159497302Y-41189505D01*
X159497309Y-41189506D01*
X159600019Y-41199999D01*
X159749999Y-41199999D01*
X160250000Y-41199999D01*
X160399972Y-41199999D01*
X160399986Y-41199998D01*
X160502697Y-41189505D01*
X160669119Y-41134358D01*
X160669124Y-41134356D01*
X160818345Y-41042315D01*
X160942315Y-40918345D01*
X161034356Y-40769124D01*
X161034358Y-40769119D01*
X161089505Y-40602697D01*
X161089506Y-40602690D01*
X161099999Y-40499986D01*
X161100000Y-40499973D01*
X161100000Y-40250000D01*
X160250000Y-40250000D01*
X160250000Y-41199999D01*
X159749999Y-41199999D01*
X159750000Y-41199998D01*
X159750000Y-39750000D01*
X160250000Y-39750000D01*
X161099999Y-39750000D01*
X161099999Y-39500028D01*
X161099998Y-39500013D01*
X161089505Y-39397302D01*
X161034358Y-39230880D01*
X161034356Y-39230875D01*
X160942315Y-39081654D01*
X160818345Y-38957684D01*
X160669124Y-38865643D01*
X160669119Y-38865641D01*
X160502697Y-38810494D01*
X160502690Y-38810493D01*
X160399986Y-38800000D01*
X160250000Y-38800000D01*
X160250000Y-39750000D01*
X159750000Y-39750000D01*
X159750000Y-38800000D01*
X159600027Y-38800000D01*
X159600012Y-38800001D01*
X159497302Y-38810494D01*
X159330880Y-38865641D01*
X159330875Y-38865643D01*
X159181657Y-38957682D01*
X159088034Y-39051305D01*
X159026710Y-39084789D01*
X158957019Y-39079805D01*
X158912672Y-39051304D01*
X158818657Y-38957289D01*
X158818656Y-38957288D01*
X158670072Y-38865641D01*
X158669336Y-38865187D01*
X158669331Y-38865185D01*
X158664128Y-38863461D01*
X158502797Y-38810001D01*
X158502795Y-38810000D01*
X158400010Y-38799500D01*
X157599998Y-38799500D01*
X157599980Y-38799501D01*
X157497203Y-38810000D01*
X157497200Y-38810001D01*
X157330666Y-38865186D01*
X157330660Y-38865188D01*
X157304384Y-38881395D01*
X157236991Y-38899833D01*
X157170328Y-38878908D01*
X157151611Y-38863535D01*
X154190130Y-35902055D01*
X154190128Y-35902052D01*
X154115384Y-35827308D01*
X154040522Y-35796301D01*
X154040520Y-35796300D01*
X154040519Y-35796300D01*
X154040517Y-35796300D01*
X152112146Y-35796300D01*
X152045107Y-35776615D01*
X152012881Y-35746613D01*
X151961296Y-35677704D01*
X151934581Y-35657705D01*
X151846085Y-35591456D01*
X151846078Y-35591452D01*
X151711232Y-35541158D01*
X151711233Y-35541158D01*
X151651633Y-35534751D01*
X151651631Y-35534750D01*
X151651623Y-35534750D01*
X151651615Y-35534750D01*
X151539288Y-35534750D01*
X151472249Y-35515065D01*
X151426494Y-35462261D01*
X151416550Y-35393103D01*
X151445575Y-35329547D01*
X151451607Y-35323068D01*
X151534658Y-35240018D01*
X151595982Y-35206534D01*
X151622339Y-35203700D01*
X156364263Y-35203700D01*
X156431302Y-35223385D01*
X156451944Y-35240019D01*
X156905479Y-35693554D01*
X156938964Y-35754877D01*
X156935504Y-35820239D01*
X156910001Y-35897201D01*
X156899500Y-35999983D01*
X156899500Y-37000001D01*
X156899501Y-37000019D01*
X156910000Y-37102796D01*
X156910001Y-37102799D01*
X156965185Y-37269331D01*
X156965187Y-37269336D01*
X156979730Y-37292914D01*
X157057288Y-37418656D01*
X157181344Y-37542712D01*
X157330666Y-37634814D01*
X157497203Y-37689999D01*
X157599991Y-37700500D01*
X158400008Y-37700499D01*
X158400016Y-37700498D01*
X158400019Y-37700498D01*
X158456542Y-37694724D01*
X158502797Y-37689999D01*
X158669334Y-37634814D01*
X158818656Y-37542712D01*
X158912675Y-37448692D01*
X158973994Y-37415210D01*
X159043686Y-37420194D01*
X159088034Y-37448695D01*
X159181654Y-37542315D01*
X159330875Y-37634356D01*
X159330880Y-37634358D01*
X159497302Y-37689505D01*
X159497309Y-37689506D01*
X159600019Y-37699999D01*
X159749999Y-37699999D01*
X160250000Y-37699999D01*
X160399972Y-37699999D01*
X160399986Y-37699998D01*
X160502697Y-37689505D01*
X160669119Y-37634358D01*
X160669124Y-37634356D01*
X160818345Y-37542315D01*
X160942315Y-37418345D01*
X161034356Y-37269124D01*
X161034358Y-37269119D01*
X161089505Y-37102697D01*
X161089506Y-37102690D01*
X161099999Y-36999986D01*
X161100000Y-36999973D01*
X161100000Y-36750000D01*
X160250000Y-36750000D01*
X160250000Y-37699999D01*
X159749999Y-37699999D01*
X159750000Y-37699998D01*
X159750000Y-36250000D01*
X160250000Y-36250000D01*
X161099999Y-36250000D01*
X161099999Y-36000028D01*
X161099998Y-36000013D01*
X161089505Y-35897302D01*
X161034358Y-35730880D01*
X161034356Y-35730875D01*
X160942315Y-35581654D01*
X160818345Y-35457684D01*
X160669124Y-35365643D01*
X160669119Y-35365641D01*
X160502697Y-35310494D01*
X160502690Y-35310493D01*
X160399986Y-35300000D01*
X160250000Y-35300000D01*
X160250000Y-36250000D01*
X159750000Y-36250000D01*
X159750000Y-35300000D01*
X159600027Y-35300000D01*
X159600012Y-35300001D01*
X159497302Y-35310494D01*
X159330880Y-35365641D01*
X159330875Y-35365643D01*
X159181657Y-35457682D01*
X159088034Y-35551305D01*
X159026710Y-35584789D01*
X158957019Y-35579805D01*
X158912672Y-35551304D01*
X158818657Y-35457289D01*
X158818656Y-35457288D01*
X158670072Y-35365641D01*
X158669336Y-35365187D01*
X158669331Y-35365185D01*
X158664352Y-35363535D01*
X158502797Y-35310001D01*
X158502795Y-35310000D01*
X158400010Y-35299500D01*
X157599998Y-35299500D01*
X157599980Y-35299501D01*
X157497203Y-35310000D01*
X157497200Y-35310001D01*
X157330666Y-35365186D01*
X157330660Y-35365188D01*
X157304384Y-35381395D01*
X157236991Y-35399833D01*
X157170328Y-35378908D01*
X157151611Y-35363535D01*
X156690130Y-34902055D01*
X156690128Y-34902052D01*
X156615384Y-34827308D01*
X156540522Y-34796301D01*
X156540520Y-34796300D01*
X156540519Y-34796300D01*
X151527118Y-34796300D01*
X151446081Y-34796300D01*
X151446079Y-34796300D01*
X151446077Y-34796301D01*
X151371215Y-34827308D01*
X150700092Y-35498431D01*
X150638769Y-35531916D01*
X150612411Y-35534750D01*
X150305880Y-35534750D01*
X150305875Y-35534751D01*
X150257910Y-35539907D01*
X150246267Y-35541159D01*
X150246266Y-35541159D01*
X150239654Y-35541870D01*
X150213143Y-35541869D01*
X150151592Y-35535250D01*
X150103750Y-35535250D01*
X150103698Y-35535301D01*
X150084065Y-35602164D01*
X150054062Y-35634391D01*
X149996204Y-35677704D01*
X149956759Y-35730395D01*
X149900825Y-35772265D01*
X149831133Y-35777249D01*
X149769810Y-35743763D01*
X149758227Y-35730395D01*
X149726795Y-35688408D01*
X149711296Y-35667704D01*
X149666796Y-35634391D01*
X149653438Y-35624391D01*
X149611568Y-35568457D01*
X149605978Y-35537478D01*
X149601463Y-35532963D01*
X149542211Y-35515565D01*
X149496456Y-35462761D01*
X149485250Y-35411250D01*
X149485250Y-34553527D01*
X149485250Y-34553525D01*
X149459251Y-34456496D01*
X149434138Y-34412999D01*
X149409027Y-34369504D01*
X149333666Y-34294143D01*
X149333655Y-34294133D01*
X148751204Y-33711681D01*
X148717719Y-33650358D01*
X148722703Y-33580666D01*
X148764575Y-33524733D01*
X148830039Y-33500316D01*
X148838885Y-33500000D01*
X171876000Y-33500000D01*
X171943039Y-33519685D01*
X171988794Y-33572489D01*
X172000000Y-33624000D01*
X172000000Y-119876000D01*
X171980315Y-119943039D01*
X171927511Y-119988794D01*
X171876000Y-120000000D01*
X115124000Y-120000000D01*
X115056961Y-119980315D01*
X115011206Y-119927511D01*
X115000000Y-119876000D01*
X115000000Y-116281995D01*
X117399500Y-116281995D01*
X117399500Y-116518004D01*
X117399501Y-116518020D01*
X117430306Y-116752010D01*
X117491394Y-116979993D01*
X117581714Y-117198045D01*
X117581719Y-117198056D01*
X117640733Y-117300269D01*
X117699727Y-117402450D01*
X117699729Y-117402453D01*
X117699730Y-117402454D01*
X117843406Y-117589697D01*
X117843412Y-117589704D01*
X118010295Y-117756587D01*
X118010301Y-117756592D01*
X118197550Y-117900273D01*
X118328918Y-117976118D01*
X118401943Y-118018280D01*
X118401948Y-118018282D01*
X118401951Y-118018284D01*
X118620007Y-118108606D01*
X118847986Y-118169693D01*
X119081989Y-118200500D01*
X119081996Y-118200500D01*
X119318004Y-118200500D01*
X119318011Y-118200500D01*
X119552014Y-118169693D01*
X119779993Y-118108606D01*
X119998049Y-118018284D01*
X120202450Y-117900273D01*
X120389699Y-117756592D01*
X120556592Y-117589699D01*
X120700273Y-117402450D01*
X120818284Y-117198049D01*
X120908606Y-116979993D01*
X120930670Y-116897648D01*
X140099500Y-116897648D01*
X140099500Y-117102351D01*
X140131522Y-117304534D01*
X140194781Y-117499223D01*
X140287715Y-117681613D01*
X140408028Y-117847213D01*
X140552786Y-117991971D01*
X140707749Y-118104556D01*
X140718390Y-118112287D01*
X140834607Y-118171503D01*
X140900776Y-118205218D01*
X140900778Y-118205218D01*
X140900781Y-118205220D01*
X141005137Y-118239127D01*
X141095465Y-118268477D01*
X141196557Y-118284488D01*
X141297648Y-118300500D01*
X141297649Y-118300500D01*
X141502351Y-118300500D01*
X141502352Y-118300500D01*
X141704534Y-118268477D01*
X141899219Y-118205220D01*
X142081610Y-118112287D01*
X142210994Y-118018285D01*
X142247213Y-117991971D01*
X142247215Y-117991968D01*
X142247219Y-117991966D01*
X142391966Y-117847219D01*
X142391968Y-117847215D01*
X142391971Y-117847213D01*
X142457813Y-117756587D01*
X142512287Y-117681610D01*
X142605220Y-117499219D01*
X142668477Y-117304534D01*
X142700500Y-117102352D01*
X142700500Y-116897648D01*
X154299500Y-116897648D01*
X154299500Y-117102351D01*
X154331522Y-117304534D01*
X154394781Y-117499223D01*
X154487715Y-117681613D01*
X154608028Y-117847213D01*
X154752786Y-117991971D01*
X154907749Y-118104556D01*
X154918390Y-118112287D01*
X155034607Y-118171503D01*
X155100776Y-118205218D01*
X155100778Y-118205218D01*
X155100781Y-118205220D01*
X155205137Y-118239127D01*
X155295465Y-118268477D01*
X155396557Y-118284488D01*
X155497648Y-118300500D01*
X155497649Y-118300500D01*
X155702351Y-118300500D01*
X155702352Y-118300500D01*
X155904534Y-118268477D01*
X156099219Y-118205220D01*
X156281610Y-118112287D01*
X156410994Y-118018285D01*
X156447213Y-117991971D01*
X156447215Y-117991968D01*
X156447219Y-117991966D01*
X156591966Y-117847219D01*
X156591968Y-117847215D01*
X156591971Y-117847213D01*
X156657813Y-117756587D01*
X156712287Y-117681610D01*
X156805220Y-117499219D01*
X156868477Y-117304534D01*
X156900500Y-117102352D01*
X156900500Y-116897648D01*
X156885422Y-116802450D01*
X156868477Y-116695465D01*
X156805218Y-116500776D01*
X156743675Y-116379993D01*
X156712287Y-116318390D01*
X156685845Y-116281995D01*
X156591971Y-116152786D01*
X156447213Y-116008028D01*
X156281613Y-115887715D01*
X156281612Y-115887714D01*
X156281610Y-115887713D01*
X156224653Y-115858691D01*
X156099223Y-115794781D01*
X155904534Y-115731522D01*
X155729995Y-115703878D01*
X155702352Y-115699500D01*
X155497648Y-115699500D01*
X155473329Y-115703351D01*
X155295465Y-115731522D01*
X155100776Y-115794781D01*
X154918386Y-115887715D01*
X154752786Y-116008028D01*
X154608028Y-116152786D01*
X154487715Y-116318386D01*
X154394781Y-116500776D01*
X154331522Y-116695465D01*
X154299500Y-116897648D01*
X142700500Y-116897648D01*
X142685422Y-116802450D01*
X142668477Y-116695465D01*
X142605218Y-116500776D01*
X142543675Y-116379993D01*
X142512287Y-116318390D01*
X142485845Y-116281995D01*
X142391971Y-116152786D01*
X142247213Y-116008028D01*
X142081613Y-115887715D01*
X142081612Y-115887714D01*
X142081610Y-115887713D01*
X142024653Y-115858691D01*
X141899223Y-115794781D01*
X141704534Y-115731522D01*
X141529995Y-115703878D01*
X141502352Y-115699500D01*
X141297648Y-115699500D01*
X141273329Y-115703351D01*
X141095465Y-115731522D01*
X140900776Y-115794781D01*
X140718386Y-115887715D01*
X140552786Y-116008028D01*
X140408028Y-116152786D01*
X140287715Y-116318386D01*
X140194781Y-116500776D01*
X140131522Y-116695465D01*
X140099500Y-116897648D01*
X120930670Y-116897648D01*
X120969693Y-116752014D01*
X121000500Y-116518011D01*
X121000500Y-116281989D01*
X120969693Y-116047986D01*
X120908606Y-115820007D01*
X120851439Y-115681995D01*
X166399500Y-115681995D01*
X166399500Y-115918004D01*
X166399501Y-115918020D01*
X166430306Y-116152010D01*
X166491394Y-116379993D01*
X166581714Y-116598045D01*
X166581719Y-116598056D01*
X166637959Y-116695465D01*
X166699727Y-116802450D01*
X166699729Y-116802453D01*
X166699730Y-116802454D01*
X166843406Y-116989697D01*
X166843412Y-116989704D01*
X167010295Y-117156587D01*
X167010301Y-117156592D01*
X167197550Y-117300273D01*
X167328918Y-117376118D01*
X167401943Y-117418280D01*
X167401948Y-117418282D01*
X167401951Y-117418284D01*
X167620007Y-117508606D01*
X167847986Y-117569693D01*
X168081989Y-117600500D01*
X168081996Y-117600500D01*
X168318004Y-117600500D01*
X168318011Y-117600500D01*
X168552014Y-117569693D01*
X168779993Y-117508606D01*
X168998049Y-117418284D01*
X169202450Y-117300273D01*
X169389699Y-117156592D01*
X169556592Y-116989699D01*
X169700273Y-116802450D01*
X169818284Y-116598049D01*
X169908606Y-116379993D01*
X169969693Y-116152014D01*
X170000500Y-115918011D01*
X170000500Y-115681989D01*
X169969693Y-115447986D01*
X169908606Y-115220007D01*
X169818284Y-115001951D01*
X169818282Y-115001948D01*
X169818280Y-115001943D01*
X169776118Y-114928918D01*
X169700273Y-114797550D01*
X169571943Y-114630307D01*
X169556593Y-114610302D01*
X169556587Y-114610295D01*
X169389704Y-114443412D01*
X169389697Y-114443406D01*
X169202454Y-114299730D01*
X169202453Y-114299729D01*
X169202450Y-114299727D01*
X169108829Y-114245675D01*
X168998056Y-114181719D01*
X168998045Y-114181714D01*
X168779993Y-114091394D01*
X168559698Y-114032366D01*
X168552014Y-114030307D01*
X168552013Y-114030306D01*
X168552010Y-114030306D01*
X168318020Y-113999501D01*
X168318017Y-113999500D01*
X168318011Y-113999500D01*
X168081989Y-113999500D01*
X168081983Y-113999500D01*
X168081979Y-113999501D01*
X167847989Y-114030306D01*
X167620006Y-114091394D01*
X167401954Y-114181714D01*
X167401943Y-114181719D01*
X167197545Y-114299730D01*
X167010302Y-114443406D01*
X167010295Y-114443412D01*
X166843412Y-114610295D01*
X166843406Y-114610302D01*
X166699730Y-114797545D01*
X166581719Y-115001943D01*
X166581714Y-115001954D01*
X166491394Y-115220006D01*
X166430306Y-115447989D01*
X166399501Y-115681979D01*
X166399500Y-115681995D01*
X120851439Y-115681995D01*
X120818284Y-115601951D01*
X120818282Y-115601948D01*
X120818280Y-115601943D01*
X120776118Y-115528918D01*
X120700273Y-115397550D01*
X120556592Y-115210301D01*
X120556587Y-115210295D01*
X120389704Y-115043412D01*
X120389697Y-115043406D01*
X120202454Y-114899730D01*
X120202453Y-114899729D01*
X120202450Y-114899727D01*
X120120957Y-114852677D01*
X119998056Y-114781719D01*
X119998045Y-114781714D01*
X119779993Y-114691394D01*
X119552010Y-114630306D01*
X119318020Y-114599501D01*
X119318017Y-114599500D01*
X119318011Y-114599500D01*
X119081989Y-114599500D01*
X119081983Y-114599500D01*
X119081979Y-114599501D01*
X118847989Y-114630306D01*
X118620006Y-114691394D01*
X118401954Y-114781714D01*
X118401943Y-114781719D01*
X118197545Y-114899730D01*
X118010302Y-115043406D01*
X118010295Y-115043412D01*
X117843412Y-115210295D01*
X117843406Y-115210302D01*
X117699730Y-115397545D01*
X117581719Y-115601943D01*
X117581714Y-115601954D01*
X117491394Y-115820006D01*
X117430306Y-116047989D01*
X117399501Y-116281979D01*
X117399500Y-116281995D01*
X115000000Y-116281995D01*
X115000000Y-111551317D01*
X133257966Y-111551317D01*
X133257966Y-111551322D01*
X133277048Y-111903274D01*
X133334073Y-112251113D01*
X133334074Y-112251116D01*
X133428366Y-112590728D01*
X133428367Y-112590730D01*
X133558828Y-112918164D01*
X133558837Y-112918182D01*
X133723935Y-113229589D01*
X133921738Y-113521326D01*
X133921745Y-113521336D01*
X134149925Y-113789969D01*
X134149926Y-113789970D01*
X134405820Y-114032366D01*
X134686422Y-114245674D01*
X134988442Y-114427394D01*
X134988446Y-114427395D01*
X134988450Y-114427398D01*
X135308328Y-114575390D01*
X135308332Y-114575390D01*
X135308339Y-114575394D01*
X135642362Y-114687939D01*
X135986595Y-114763711D01*
X136337003Y-114801820D01*
X136337009Y-114801820D01*
X136689471Y-114801820D01*
X136689477Y-114801820D01*
X137039885Y-114763711D01*
X137384118Y-114687939D01*
X137718141Y-114575394D01*
X137718148Y-114575390D01*
X137718151Y-114575390D01*
X137971716Y-114458077D01*
X138038038Y-114427394D01*
X138340058Y-114245674D01*
X138620660Y-114032366D01*
X138876554Y-113789970D01*
X139104741Y-113521328D01*
X139302545Y-113229589D01*
X139467647Y-112918174D01*
X139598111Y-112590734D01*
X139692408Y-112251108D01*
X139749431Y-111903277D01*
X139768514Y-111551320D01*
X139768514Y-111551317D01*
X156257966Y-111551317D01*
X156257966Y-111551322D01*
X156277048Y-111903274D01*
X156334073Y-112251113D01*
X156334074Y-112251116D01*
X156428366Y-112590728D01*
X156428367Y-112590730D01*
X156558828Y-112918164D01*
X156558837Y-112918182D01*
X156723935Y-113229589D01*
X156921738Y-113521326D01*
X156921745Y-113521336D01*
X157149925Y-113789969D01*
X157149926Y-113789970D01*
X157405820Y-114032366D01*
X157686422Y-114245674D01*
X157988442Y-114427394D01*
X157988446Y-114427395D01*
X157988450Y-114427398D01*
X158308328Y-114575390D01*
X158308332Y-114575390D01*
X158308339Y-114575394D01*
X158642362Y-114687939D01*
X158986595Y-114763711D01*
X159337003Y-114801820D01*
X159337009Y-114801820D01*
X159689471Y-114801820D01*
X159689477Y-114801820D01*
X160039885Y-114763711D01*
X160384118Y-114687939D01*
X160718141Y-114575394D01*
X160718148Y-114575390D01*
X160718151Y-114575390D01*
X160971716Y-114458077D01*
X161038038Y-114427394D01*
X161340058Y-114245674D01*
X161620660Y-114032366D01*
X161876554Y-113789970D01*
X162104741Y-113521328D01*
X162302545Y-113229589D01*
X162467647Y-112918174D01*
X162598111Y-112590734D01*
X162692408Y-112251108D01*
X162749431Y-111903277D01*
X162768514Y-111551320D01*
X162749431Y-111199363D01*
X162692408Y-110851532D01*
X162649944Y-110698591D01*
X162598113Y-110511911D01*
X162598112Y-110511909D01*
X162596190Y-110507086D01*
X162518806Y-110312866D01*
X162467651Y-110184475D01*
X162467642Y-110184457D01*
X162457327Y-110165000D01*
X162302545Y-109873051D01*
X162104741Y-109581312D01*
X162104737Y-109581307D01*
X162104734Y-109581303D01*
X161876554Y-109312670D01*
X161620660Y-109070274D01*
X161620653Y-109070268D01*
X161620650Y-109070266D01*
X161430463Y-108925690D01*
X161340058Y-108856966D01*
X161340055Y-108856964D01*
X161038042Y-108675248D01*
X161038029Y-108675241D01*
X160718151Y-108527249D01*
X160718146Y-108527248D01*
X160718143Y-108527247D01*
X160718141Y-108527246D01*
X160586443Y-108482872D01*
X160384120Y-108414701D01*
X160039883Y-108338928D01*
X159689478Y-108300820D01*
X159689477Y-108300820D01*
X159337003Y-108300820D01*
X159337001Y-108300820D01*
X158986596Y-108338928D01*
X158642359Y-108414701D01*
X158308333Y-108527248D01*
X158308328Y-108527249D01*
X157988450Y-108675241D01*
X157988437Y-108675248D01*
X157686424Y-108856964D01*
X157405829Y-109070266D01*
X157405820Y-109070274D01*
X157149925Y-109312670D01*
X156921745Y-109581303D01*
X156921738Y-109581313D01*
X156723935Y-109873050D01*
X156558837Y-110184457D01*
X156558828Y-110184475D01*
X156428367Y-110511909D01*
X156428366Y-110511911D01*
X156334074Y-110851523D01*
X156334073Y-110851526D01*
X156277048Y-111199365D01*
X156257966Y-111551317D01*
X139768514Y-111551317D01*
X139749431Y-111199363D01*
X139692408Y-110851532D01*
X139649944Y-110698591D01*
X139598113Y-110511911D01*
X139598112Y-110511909D01*
X139596190Y-110507086D01*
X139518806Y-110312866D01*
X139467651Y-110184475D01*
X139467642Y-110184457D01*
X139457327Y-110165000D01*
X139302545Y-109873051D01*
X139104741Y-109581312D01*
X139104737Y-109581307D01*
X139104734Y-109581303D01*
X138876554Y-109312670D01*
X138620660Y-109070274D01*
X138620653Y-109070268D01*
X138620650Y-109070266D01*
X138430463Y-108925690D01*
X138340058Y-108856966D01*
X138340055Y-108856964D01*
X138038042Y-108675248D01*
X138038029Y-108675241D01*
X137718151Y-108527249D01*
X137718146Y-108527248D01*
X137718143Y-108527247D01*
X137718141Y-108527246D01*
X137586443Y-108482872D01*
X137384120Y-108414701D01*
X137039883Y-108338928D01*
X136689478Y-108300820D01*
X136689477Y-108300820D01*
X136337003Y-108300820D01*
X136337001Y-108300820D01*
X135986596Y-108338928D01*
X135642359Y-108414701D01*
X135308333Y-108527248D01*
X135308328Y-108527249D01*
X134988450Y-108675241D01*
X134988437Y-108675248D01*
X134686424Y-108856964D01*
X134405829Y-109070266D01*
X134405820Y-109070274D01*
X134149925Y-109312670D01*
X133921745Y-109581303D01*
X133921738Y-109581313D01*
X133723935Y-109873050D01*
X133558837Y-110184457D01*
X133558828Y-110184475D01*
X133428367Y-110511909D01*
X133428366Y-110511911D01*
X133334074Y-110851523D01*
X133334073Y-110851526D01*
X133277048Y-111199365D01*
X133257966Y-111551317D01*
X115000000Y-111551317D01*
X115000000Y-107988535D01*
X116455000Y-107988535D01*
X116461489Y-108059945D01*
X116512692Y-108224264D01*
X116601738Y-108371563D01*
X116723436Y-108493261D01*
X116870736Y-108582307D01*
X116870735Y-108582307D01*
X117035055Y-108633510D01*
X117035053Y-108633510D01*
X117106465Y-108640000D01*
X117122500Y-108640000D01*
X117122500Y-107750000D01*
X116455000Y-107750000D01*
X116455000Y-107988535D01*
X115000000Y-107988535D01*
X115000000Y-107011464D01*
X116455000Y-107011464D01*
X116455000Y-107250000D01*
X117122500Y-107250000D01*
X117122500Y-106360000D01*
X117106465Y-106360000D01*
X117035054Y-106366489D01*
X116870735Y-106417692D01*
X116723436Y-106506738D01*
X116601738Y-106628436D01*
X116512692Y-106775735D01*
X116461489Y-106940054D01*
X116455000Y-107011464D01*
X115000000Y-107011464D01*
X115000000Y-99488535D01*
X116327500Y-99488535D01*
X116333989Y-99559945D01*
X116385192Y-99724264D01*
X116474238Y-99871563D01*
X116595936Y-99993261D01*
X116743236Y-100082307D01*
X116743235Y-100082307D01*
X116907555Y-100133510D01*
X116907553Y-100133510D01*
X116978965Y-100140000D01*
X116995000Y-100140000D01*
X116995000Y-99250000D01*
X116327500Y-99250000D01*
X116327500Y-99488535D01*
X115000000Y-99488535D01*
X115000000Y-98511464D01*
X116327500Y-98511464D01*
X116327500Y-98750000D01*
X116995000Y-98750000D01*
X116995000Y-97860000D01*
X117495000Y-97860000D01*
X117495000Y-100140000D01*
X117511035Y-100140000D01*
X117582445Y-100133510D01*
X117746763Y-100082307D01*
X117807867Y-100045369D01*
X117875421Y-100027533D01*
X117936166Y-100045368D01*
X117998027Y-100082765D01*
X118025751Y-100091404D01*
X118084964Y-100109856D01*
X118143111Y-100148593D01*
X118155460Y-100166241D01*
X118194721Y-100234243D01*
X118194725Y-100234248D01*
X118209681Y-100249204D01*
X118243166Y-100310527D01*
X118246000Y-100336885D01*
X118246000Y-106288453D01*
X118226315Y-106355492D01*
X118173511Y-106401247D01*
X118158891Y-106406838D01*
X118125530Y-106417233D01*
X118063666Y-106454631D01*
X117996111Y-106472466D01*
X117935368Y-106454630D01*
X117874268Y-106417694D01*
X117874264Y-106417692D01*
X117709944Y-106366489D01*
X117709946Y-106366489D01*
X117638535Y-106360000D01*
X117622500Y-106360000D01*
X117622500Y-108640000D01*
X117638535Y-108640000D01*
X117709945Y-108633510D01*
X117874263Y-108582307D01*
X117935367Y-108545369D01*
X118002921Y-108527533D01*
X118063666Y-108545368D01*
X118124769Y-108582307D01*
X118125529Y-108582766D01*
X118183693Y-108600890D01*
X118289965Y-108634006D01*
X118361428Y-108640500D01*
X118361431Y-108640500D01*
X118893569Y-108640500D01*
X118893572Y-108640500D01*
X118965035Y-108634006D01*
X119129473Y-108582765D01*
X119276870Y-108493660D01*
X119398660Y-108371870D01*
X119487765Y-108224473D01*
X119539006Y-108060035D01*
X119545500Y-107988572D01*
X119545500Y-107855500D01*
X119565185Y-107788461D01*
X119617989Y-107742706D01*
X119669500Y-107731500D01*
X121840615Y-107731500D01*
X121907654Y-107751185D01*
X121928296Y-107767819D01*
X122479724Y-108319247D01*
X122550753Y-108390276D01*
X122637746Y-108440501D01*
X122734775Y-108466500D01*
X122835225Y-108466500D01*
X122991474Y-108466500D01*
X123058513Y-108486185D01*
X123104268Y-108538989D01*
X123107656Y-108547167D01*
X123156202Y-108677328D01*
X123156206Y-108677335D01*
X123242452Y-108792544D01*
X123242455Y-108792547D01*
X123357664Y-108878793D01*
X123357666Y-108878794D01*
X123357669Y-108878796D01*
X123365629Y-108881765D01*
X123371133Y-108883818D01*
X123427066Y-108925690D01*
X123451483Y-108991154D01*
X123436631Y-109059427D01*
X123387225Y-109108832D01*
X123371133Y-109116182D01*
X123357670Y-109121203D01*
X123357664Y-109121206D01*
X123242455Y-109207452D01*
X123242452Y-109207455D01*
X123156206Y-109322664D01*
X123156202Y-109322671D01*
X123105908Y-109457517D01*
X123099501Y-109517116D01*
X123099500Y-109517135D01*
X123099500Y-110312870D01*
X123099501Y-110312876D01*
X123105908Y-110372483D01*
X123156202Y-110507328D01*
X123156206Y-110507335D01*
X123242452Y-110622544D01*
X123242455Y-110622547D01*
X123357664Y-110708793D01*
X123357671Y-110708797D01*
X123492517Y-110759091D01*
X123492516Y-110759091D01*
X123499444Y-110759835D01*
X123552127Y-110765500D01*
X124347872Y-110765499D01*
X124407483Y-110759091D01*
X124457382Y-110740479D01*
X124527069Y-110735494D01*
X124544048Y-110740479D01*
X124592628Y-110758598D01*
X124592627Y-110758598D01*
X124652155Y-110764999D01*
X124652172Y-110765000D01*
X124800000Y-110765000D01*
X125300000Y-110765000D01*
X125447828Y-110765000D01*
X125447844Y-110764999D01*
X125507372Y-110758598D01*
X125507379Y-110758596D01*
X125642086Y-110708354D01*
X125642093Y-110708350D01*
X125757187Y-110622190D01*
X125757190Y-110622187D01*
X125843350Y-110507093D01*
X125843354Y-110507086D01*
X125893596Y-110372379D01*
X125893598Y-110372372D01*
X125899999Y-110312844D01*
X125900000Y-110312827D01*
X125900000Y-110165000D01*
X125300000Y-110165000D01*
X125300000Y-110765000D01*
X124800000Y-110765000D01*
X124800000Y-110324167D01*
X124800427Y-110316188D01*
X124800322Y-110316183D01*
X124800497Y-110312898D01*
X124800500Y-110312873D01*
X124800499Y-110038997D01*
X124820183Y-109971961D01*
X124872987Y-109926206D01*
X124924499Y-109915000D01*
X125050000Y-109915000D01*
X125050000Y-109789000D01*
X125069685Y-109721961D01*
X125122489Y-109676206D01*
X125174000Y-109665000D01*
X125900000Y-109665000D01*
X125900000Y-109517172D01*
X125899999Y-109517155D01*
X125893598Y-109457627D01*
X125893596Y-109457620D01*
X125843354Y-109322913D01*
X125843350Y-109322906D01*
X125757190Y-109207812D01*
X125757187Y-109207809D01*
X125642093Y-109121649D01*
X125642083Y-109121644D01*
X125628150Y-109116447D01*
X125572217Y-109074575D01*
X125547801Y-109009111D01*
X125562654Y-108940838D01*
X125612059Y-108891433D01*
X125628156Y-108884083D01*
X125642327Y-108878798D01*
X125642329Y-108878796D01*
X125642331Y-108878796D01*
X125757546Y-108792546D01*
X125843796Y-108677331D01*
X125894091Y-108542483D01*
X125900500Y-108482873D01*
X125900499Y-107687128D01*
X125894091Y-107627517D01*
X125891553Y-107620713D01*
X125843797Y-107492671D01*
X125843793Y-107492664D01*
X125757547Y-107377455D01*
X125757545Y-107377453D01*
X125753383Y-107374337D01*
X125711515Y-107318401D01*
X125703700Y-107275075D01*
X125703700Y-105377700D01*
X125723385Y-105310661D01*
X125776189Y-105264906D01*
X125827700Y-105253700D01*
X126170482Y-105253700D01*
X126237521Y-105273385D01*
X126283276Y-105326189D01*
X126287524Y-105336746D01*
X126304402Y-105384983D01*
X126396382Y-105531367D01*
X126396383Y-105531368D01*
X126518632Y-105653617D01*
X126665018Y-105745598D01*
X126828202Y-105802698D01*
X126885468Y-105809150D01*
X126999996Y-105822055D01*
X127000000Y-105822055D01*
X127000004Y-105822055D01*
X127098170Y-105810993D01*
X127171798Y-105802698D01*
X127334982Y-105745598D01*
X127481368Y-105653617D01*
X127603617Y-105531368D01*
X127695598Y-105384982D01*
X127752698Y-105221798D01*
X127772055Y-105050000D01*
X127752698Y-104878202D01*
X127695598Y-104715018D01*
X127603617Y-104568632D01*
X127481368Y-104446383D01*
X127481367Y-104446382D01*
X127334983Y-104354402D01*
X127171795Y-104297301D01*
X127000004Y-104277945D01*
X126999996Y-104277945D01*
X126828204Y-104297301D01*
X126665016Y-104354402D01*
X126518632Y-104446382D01*
X126396382Y-104568632D01*
X126304402Y-104715016D01*
X126287524Y-104763254D01*
X126246803Y-104820030D01*
X126181850Y-104845778D01*
X126170482Y-104846300D01*
X125827700Y-104846300D01*
X125760661Y-104826615D01*
X125714906Y-104773811D01*
X125703700Y-104722300D01*
X125703700Y-102924482D01*
X125703698Y-102924477D01*
X125672691Y-102849615D01*
X125608322Y-102785246D01*
X125608315Y-102785240D01*
X125299756Y-102476681D01*
X125266271Y-102415358D01*
X125271255Y-102345666D01*
X125313127Y-102289733D01*
X125378591Y-102265316D01*
X125387437Y-102265000D01*
X125447828Y-102265000D01*
X125447844Y-102264999D01*
X125507372Y-102258598D01*
X125507379Y-102258596D01*
X125642086Y-102208354D01*
X125642093Y-102208350D01*
X125757187Y-102122190D01*
X125757190Y-102122187D01*
X125843350Y-102007093D01*
X125843354Y-102007086D01*
X125893596Y-101872379D01*
X125893598Y-101872372D01*
X125899999Y-101812844D01*
X125900000Y-101812827D01*
X125900000Y-101665000D01*
X125174000Y-101665000D01*
X125106961Y-101645315D01*
X125061206Y-101592511D01*
X125050000Y-101541000D01*
X125050000Y-101289000D01*
X125069685Y-101221961D01*
X125122489Y-101176206D01*
X125174000Y-101165000D01*
X125900000Y-101165000D01*
X125900000Y-101017172D01*
X125899999Y-101017155D01*
X125893598Y-100957627D01*
X125893596Y-100957620D01*
X125843354Y-100822913D01*
X125843350Y-100822906D01*
X125757190Y-100707812D01*
X125757187Y-100707809D01*
X125642093Y-100621649D01*
X125642083Y-100621644D01*
X125628150Y-100616447D01*
X125572217Y-100574575D01*
X125547801Y-100509111D01*
X125562654Y-100440838D01*
X125612059Y-100391433D01*
X125628156Y-100384083D01*
X125642327Y-100378798D01*
X125642329Y-100378796D01*
X125642331Y-100378796D01*
X125757546Y-100292546D01*
X125843796Y-100177331D01*
X125894091Y-100042483D01*
X125900500Y-99982873D01*
X125900499Y-99187128D01*
X125894091Y-99127517D01*
X125891553Y-99120713D01*
X125843797Y-98992671D01*
X125843793Y-98992664D01*
X125757547Y-98877455D01*
X125757544Y-98877452D01*
X125642335Y-98791206D01*
X125642328Y-98791202D01*
X125507482Y-98740908D01*
X125507483Y-98740908D01*
X125447883Y-98734501D01*
X125447881Y-98734500D01*
X125447873Y-98734500D01*
X125447865Y-98734500D01*
X125377700Y-98734500D01*
X125310661Y-98714815D01*
X125264906Y-98662011D01*
X125253700Y-98610500D01*
X125253700Y-97327700D01*
X125273385Y-97260661D01*
X125326189Y-97214906D01*
X125377700Y-97203700D01*
X126170482Y-97203700D01*
X126237521Y-97223385D01*
X126283276Y-97276189D01*
X126287524Y-97286746D01*
X126304402Y-97334983D01*
X126396382Y-97481367D01*
X126396383Y-97481368D01*
X126518632Y-97603617D01*
X126665018Y-97695598D01*
X126828202Y-97752698D01*
X126885468Y-97759150D01*
X126999996Y-97772055D01*
X127000000Y-97772055D01*
X127000004Y-97772055D01*
X127098170Y-97760993D01*
X127171798Y-97752698D01*
X127334982Y-97695598D01*
X127481368Y-97603617D01*
X127603617Y-97481368D01*
X127695598Y-97334982D01*
X127752698Y-97171798D01*
X127772055Y-97000000D01*
X127752698Y-96828202D01*
X127695598Y-96665018D01*
X127603617Y-96518632D01*
X127481368Y-96396383D01*
X127481367Y-96396382D01*
X127334983Y-96304402D01*
X127171795Y-96247301D01*
X127000004Y-96227945D01*
X126999996Y-96227945D01*
X126828204Y-96247301D01*
X126665016Y-96304402D01*
X126518632Y-96396382D01*
X126396382Y-96518632D01*
X126304402Y-96665016D01*
X126287524Y-96713254D01*
X126246803Y-96770030D01*
X126181850Y-96795778D01*
X126170482Y-96796300D01*
X125377700Y-96796300D01*
X125310661Y-96776615D01*
X125264906Y-96723811D01*
X125253700Y-96672300D01*
X125253700Y-95704961D01*
X125253701Y-95704952D01*
X125253701Y-95609482D01*
X125253700Y-95609478D01*
X125232129Y-95557403D01*
X125232128Y-95557400D01*
X125232128Y-95557401D01*
X125222689Y-95534614D01*
X125222689Y-95534613D01*
X125165387Y-95477311D01*
X125158322Y-95470246D01*
X125158315Y-95470240D01*
X124190019Y-94501944D01*
X124156534Y-94440621D01*
X124153700Y-94414263D01*
X124153700Y-94389499D01*
X124173385Y-94322460D01*
X124226189Y-94276705D01*
X124277700Y-94265499D01*
X124347871Y-94265499D01*
X124347872Y-94265499D01*
X124407483Y-94259091D01*
X124457382Y-94240479D01*
X124527069Y-94235494D01*
X124544048Y-94240479D01*
X124592628Y-94258598D01*
X124592627Y-94258598D01*
X124652155Y-94264999D01*
X124652172Y-94265000D01*
X124800000Y-94265000D01*
X125300000Y-94265000D01*
X125447828Y-94265000D01*
X125447844Y-94264999D01*
X125507372Y-94258598D01*
X125507379Y-94258596D01*
X125642086Y-94208354D01*
X125642093Y-94208350D01*
X125757187Y-94122190D01*
X125757190Y-94122187D01*
X125843350Y-94007093D01*
X125843354Y-94007086D01*
X125893596Y-93872379D01*
X125893598Y-93872372D01*
X125899999Y-93812844D01*
X125900000Y-93812827D01*
X125900000Y-93665000D01*
X125300000Y-93665000D01*
X125300000Y-94265000D01*
X124800000Y-94265000D01*
X124800000Y-93824167D01*
X124800427Y-93816188D01*
X124800322Y-93816183D01*
X124800497Y-93812898D01*
X124800500Y-93812873D01*
X124800499Y-93538997D01*
X124820183Y-93471961D01*
X124872987Y-93426206D01*
X124924499Y-93415000D01*
X125050000Y-93415000D01*
X125050000Y-93289000D01*
X125069685Y-93221961D01*
X125122489Y-93176206D01*
X125174000Y-93165000D01*
X125900000Y-93165000D01*
X125900000Y-93017172D01*
X125899999Y-93017155D01*
X125893598Y-92957627D01*
X125893596Y-92957620D01*
X125843354Y-92822913D01*
X125843350Y-92822906D01*
X125757190Y-92707812D01*
X125757187Y-92707809D01*
X125642093Y-92621649D01*
X125642083Y-92621644D01*
X125628150Y-92616447D01*
X125572217Y-92574575D01*
X125547801Y-92509111D01*
X125562654Y-92440838D01*
X125612059Y-92391433D01*
X125628156Y-92384083D01*
X125642327Y-92378798D01*
X125642329Y-92378796D01*
X125642331Y-92378796D01*
X125757546Y-92292546D01*
X125843796Y-92177331D01*
X125894091Y-92042483D01*
X125900500Y-91982873D01*
X125900500Y-91912700D01*
X125920185Y-91845661D01*
X125972989Y-91799906D01*
X126024500Y-91788700D01*
X129206788Y-91788700D01*
X129273827Y-91808385D01*
X129311782Y-91846728D01*
X129396382Y-91981367D01*
X129518632Y-92103617D01*
X129635952Y-92177335D01*
X129665018Y-92195598D01*
X129828202Y-92252698D01*
X129885468Y-92259150D01*
X129999996Y-92272055D01*
X130000000Y-92272055D01*
X130000004Y-92272055D01*
X130098170Y-92260993D01*
X130171798Y-92252698D01*
X130334982Y-92195598D01*
X130481368Y-92103617D01*
X130603617Y-91981368D01*
X130695598Y-91834982D01*
X130752698Y-91671798D01*
X130772055Y-91500000D01*
X130770767Y-91488572D01*
X130752698Y-91328204D01*
X130752698Y-91328202D01*
X130695598Y-91165018D01*
X130672034Y-91127517D01*
X130603617Y-91018632D01*
X130481367Y-90896382D01*
X130334983Y-90804402D01*
X130192103Y-90754407D01*
X130171798Y-90747302D01*
X130171797Y-90747301D01*
X130171795Y-90747301D01*
X130000004Y-90727945D01*
X129999996Y-90727945D01*
X129828204Y-90747301D01*
X129665016Y-90804402D01*
X129518632Y-90896382D01*
X129396382Y-91018632D01*
X129304402Y-91165016D01*
X129257781Y-91298254D01*
X129217059Y-91355030D01*
X129152106Y-91380778D01*
X129140739Y-91381300D01*
X126024499Y-91381300D01*
X125957460Y-91361615D01*
X125911705Y-91308811D01*
X125900499Y-91257300D01*
X125900499Y-91187129D01*
X125900498Y-91187123D01*
X125900142Y-91183815D01*
X125894091Y-91127517D01*
X125843796Y-90992669D01*
X125843795Y-90992668D01*
X125843793Y-90992664D01*
X125757547Y-90877455D01*
X125757544Y-90877452D01*
X125642335Y-90791206D01*
X125642328Y-90791202D01*
X125507482Y-90740908D01*
X125507483Y-90740908D01*
X125447883Y-90734501D01*
X125447881Y-90734500D01*
X125447873Y-90734500D01*
X125447864Y-90734500D01*
X124652129Y-90734500D01*
X124652123Y-90734501D01*
X124592516Y-90740908D01*
X124543332Y-90759253D01*
X124473640Y-90764237D01*
X124456667Y-90759253D01*
X124407482Y-90740908D01*
X124407483Y-90740908D01*
X124347883Y-90734501D01*
X124347881Y-90734500D01*
X124347873Y-90734500D01*
X124347864Y-90734500D01*
X123552129Y-90734500D01*
X123552123Y-90734501D01*
X123492516Y-90740908D01*
X123357671Y-90791202D01*
X123357664Y-90791206D01*
X123242455Y-90877452D01*
X123242452Y-90877455D01*
X123156206Y-90992664D01*
X123156202Y-90992671D01*
X123107656Y-91122833D01*
X123065785Y-91178767D01*
X123000321Y-91203184D01*
X122991474Y-91203500D01*
X119669500Y-91203500D01*
X119602461Y-91183815D01*
X119556706Y-91131011D01*
X119545500Y-91079500D01*
X119545500Y-90511430D01*
X119545500Y-90511428D01*
X119539006Y-90439965D01*
X119487765Y-90275527D01*
X119398660Y-90128130D01*
X119398658Y-90128128D01*
X119398657Y-90128126D01*
X119276873Y-90006342D01*
X119276870Y-90006340D01*
X119260439Y-89996407D01*
X119213254Y-89944881D01*
X119201415Y-89876022D01*
X119228683Y-89811693D01*
X119236900Y-89802622D01*
X121145988Y-87893535D01*
X128860000Y-87893535D01*
X128866489Y-87964945D01*
X128917692Y-88129264D01*
X129006738Y-88276563D01*
X129128436Y-88398261D01*
X129275736Y-88487307D01*
X129275735Y-88487307D01*
X129440055Y-88538510D01*
X129440053Y-88538510D01*
X129511465Y-88545000D01*
X129750000Y-88545000D01*
X130250000Y-88545000D01*
X130488535Y-88545000D01*
X130559945Y-88538510D01*
X130724264Y-88487307D01*
X130871563Y-88398261D01*
X130993261Y-88276563D01*
X131082307Y-88129264D01*
X131133510Y-87964945D01*
X131140000Y-87893535D01*
X131140000Y-87877500D01*
X130250000Y-87877500D01*
X130250000Y-88545000D01*
X129750000Y-88545000D01*
X129750000Y-87877500D01*
X128860000Y-87877500D01*
X128860000Y-87893535D01*
X121145988Y-87893535D01*
X122121704Y-86917819D01*
X122183027Y-86884334D01*
X122209385Y-86881500D01*
X127050222Y-86881500D01*
X127050225Y-86881500D01*
X127147254Y-86855501D01*
X127234247Y-86805276D01*
X127305276Y-86734247D01*
X127305276Y-86734246D01*
X128224037Y-85815483D01*
X128224042Y-85815480D01*
X128234245Y-85805276D01*
X128234247Y-85805276D01*
X128305276Y-85734247D01*
X128355501Y-85647254D01*
X128355502Y-85647253D01*
X128381501Y-85550225D01*
X128381501Y-85449775D01*
X128381501Y-85442180D01*
X128381500Y-85442162D01*
X128381500Y-79814368D01*
X128401185Y-79747329D01*
X128453989Y-79701574D01*
X128492898Y-79691010D01*
X128502797Y-79689999D01*
X128669334Y-79634814D01*
X128818656Y-79542712D01*
X128912319Y-79449049D01*
X128973642Y-79415564D01*
X129043334Y-79420548D01*
X129087681Y-79449049D01*
X129181344Y-79542712D01*
X129330666Y-79634814D01*
X129497203Y-79689999D01*
X129507100Y-79691010D01*
X129571792Y-79717404D01*
X129611945Y-79774584D01*
X129618500Y-79814368D01*
X129618500Y-85331527D01*
X129598815Y-85398566D01*
X129546011Y-85444321D01*
X129505723Y-85455018D01*
X129439963Y-85460994D01*
X129275530Y-85512233D01*
X129128126Y-85601342D01*
X129006342Y-85723126D01*
X128917233Y-85870530D01*
X128865994Y-86034963D01*
X128859500Y-86106430D01*
X128859500Y-86638568D01*
X128865994Y-86710036D01*
X128917233Y-86874470D01*
X128917235Y-86874474D01*
X128954630Y-86936333D01*
X128972466Y-87003887D01*
X128954631Y-87064630D01*
X128917693Y-87125733D01*
X128917692Y-87125735D01*
X128866489Y-87290054D01*
X128860000Y-87361464D01*
X128860000Y-87377500D01*
X131140000Y-87377500D01*
X131140000Y-87361464D01*
X131133510Y-87290054D01*
X131082307Y-87125736D01*
X131048402Y-87069650D01*
X131030566Y-87002096D01*
X131052083Y-86935622D01*
X131106124Y-86891334D01*
X131154519Y-86881500D01*
X132050222Y-86881500D01*
X132050225Y-86881500D01*
X132147254Y-86855501D01*
X132234247Y-86805276D01*
X132305276Y-86734247D01*
X132621704Y-86417819D01*
X132683027Y-86384334D01*
X132709385Y-86381500D01*
X132765885Y-86381500D01*
X132832924Y-86401185D01*
X132878267Y-86453096D01*
X132962464Y-86633658D01*
X132962468Y-86633666D01*
X133089170Y-86814615D01*
X133089175Y-86814621D01*
X133245378Y-86970824D01*
X133245384Y-86970829D01*
X133426333Y-87097531D01*
X133426335Y-87097532D01*
X133426338Y-87097534D01*
X133626550Y-87190894D01*
X133839932Y-87248070D01*
X133997123Y-87261822D01*
X134059998Y-87267323D01*
X134060000Y-87267323D01*
X134060002Y-87267323D01*
X134115017Y-87262509D01*
X134280068Y-87248070D01*
X134493450Y-87190894D01*
X134693662Y-87097534D01*
X134874620Y-86970826D01*
X135030826Y-86814620D01*
X135157534Y-86633662D01*
X135250894Y-86433450D01*
X135308070Y-86220068D01*
X135327323Y-86000000D01*
X135308070Y-85779932D01*
X135250894Y-85566550D01*
X135157534Y-85366339D01*
X135030826Y-85185380D01*
X134874620Y-85029174D01*
X134874616Y-85029171D01*
X134874615Y-85029170D01*
X134693666Y-84902468D01*
X134693658Y-84902464D01*
X134564811Y-84842382D01*
X134512371Y-84796210D01*
X134493219Y-84729017D01*
X134513435Y-84662135D01*
X134564811Y-84617618D01*
X134570802Y-84614824D01*
X134693662Y-84557534D01*
X134874620Y-84430826D01*
X135030826Y-84274620D01*
X135157534Y-84093662D01*
X135250894Y-83893450D01*
X135308070Y-83680068D01*
X135323780Y-83500499D01*
X135327323Y-83460002D01*
X135327323Y-83459997D01*
X135318360Y-83357546D01*
X135308070Y-83239932D01*
X135250894Y-83026550D01*
X135157534Y-82826339D01*
X135063453Y-82691977D01*
X135030827Y-82645381D01*
X135026061Y-82640615D01*
X134874620Y-82489174D01*
X134874616Y-82489171D01*
X134874615Y-82489170D01*
X134693666Y-82362468D01*
X134693658Y-82362464D01*
X134564811Y-82302382D01*
X134512371Y-82256210D01*
X134493219Y-82189017D01*
X134513435Y-82122135D01*
X134564811Y-82077618D01*
X134570802Y-82074824D01*
X134693662Y-82017534D01*
X134874620Y-81890826D01*
X135030826Y-81734620D01*
X135157534Y-81553662D01*
X135250894Y-81353450D01*
X135287829Y-81215606D01*
X135324194Y-81155946D01*
X135387041Y-81125417D01*
X135407604Y-81123700D01*
X136720517Y-81123700D01*
X136720519Y-81123700D01*
X136757953Y-81108194D01*
X136795384Y-81092691D01*
X136795385Y-81092689D01*
X136795387Y-81092689D01*
X136852689Y-81035387D01*
X136852689Y-81035386D01*
X136870127Y-81017948D01*
X136870128Y-81017945D01*
X137156187Y-80731887D01*
X137217509Y-80698403D01*
X137284819Y-80702526D01*
X137356789Y-80727709D01*
X137428204Y-80752699D01*
X137599996Y-80772055D01*
X137600000Y-80772055D01*
X137600004Y-80772055D01*
X137698170Y-80760993D01*
X137771798Y-80752698D01*
X137934982Y-80695598D01*
X138081368Y-80603617D01*
X138203617Y-80481368D01*
X138295598Y-80334982D01*
X138352698Y-80171798D01*
X138372055Y-80000000D01*
X138366328Y-79949175D01*
X138355154Y-79849999D01*
X138352698Y-79828202D01*
X138295598Y-79665018D01*
X138284479Y-79647323D01*
X138203617Y-79518632D01*
X138081367Y-79396382D01*
X137934983Y-79304402D01*
X137771795Y-79247301D01*
X137600004Y-79227945D01*
X137599996Y-79227945D01*
X137428204Y-79247301D01*
X137265016Y-79304402D01*
X137118632Y-79396382D01*
X136996382Y-79518632D01*
X136904402Y-79665016D01*
X136847301Y-79828204D01*
X136827945Y-79999996D01*
X136827945Y-80000003D01*
X136847301Y-80171795D01*
X136897471Y-80315176D01*
X136901032Y-80384955D01*
X136868111Y-80443811D01*
X136631944Y-80679981D01*
X136570621Y-80713466D01*
X136544262Y-80716300D01*
X135407604Y-80716300D01*
X135340565Y-80696615D01*
X135294810Y-80643811D01*
X135287829Y-80624393D01*
X135250896Y-80486557D01*
X135250895Y-80486554D01*
X135250894Y-80486550D01*
X135157534Y-80286339D01*
X135030826Y-80105380D01*
X134874620Y-79949174D01*
X134874616Y-79949171D01*
X134874615Y-79949170D01*
X134693666Y-79822468D01*
X134693658Y-79822464D01*
X134564811Y-79762382D01*
X134512371Y-79716210D01*
X134493219Y-79649017D01*
X134513435Y-79582135D01*
X134564811Y-79537618D01*
X134570802Y-79534824D01*
X134693662Y-79477534D01*
X134874620Y-79350826D01*
X135030826Y-79194620D01*
X135157534Y-79013662D01*
X135250894Y-78813450D01*
X135308070Y-78600068D01*
X135327323Y-78380000D01*
X135308070Y-78159932D01*
X135250894Y-77946550D01*
X135157534Y-77746339D01*
X135144812Y-77728170D01*
X135122485Y-77661966D01*
X135139495Y-77594199D01*
X135158702Y-77569371D01*
X135928078Y-76799996D01*
X147227945Y-76799996D01*
X147227945Y-76800003D01*
X147247301Y-76971795D01*
X147304402Y-77134983D01*
X147396335Y-77281292D01*
X147396383Y-77281368D01*
X147518632Y-77403617D01*
X147665018Y-77495598D01*
X147828202Y-77552698D01*
X147885468Y-77559150D01*
X147999996Y-77572055D01*
X148000000Y-77572055D01*
X148000004Y-77572055D01*
X148098170Y-77560993D01*
X148171798Y-77552698D01*
X148334982Y-77495598D01*
X148481368Y-77403617D01*
X148603617Y-77281368D01*
X148695598Y-77134982D01*
X148752698Y-76971798D01*
X148770835Y-76810826D01*
X148772055Y-76800003D01*
X148772055Y-76799996D01*
X148752698Y-76628203D01*
X148752698Y-76628202D01*
X148731862Y-76568653D01*
X148728301Y-76498875D01*
X148763030Y-76438248D01*
X148825024Y-76406021D01*
X148848904Y-76403700D01*
X152672300Y-76403700D01*
X152739339Y-76423385D01*
X152785094Y-76476189D01*
X152796300Y-76527700D01*
X152796300Y-77040517D01*
X152796301Y-77040522D01*
X152827308Y-77115384D01*
X152902049Y-77190125D01*
X152902055Y-77190130D01*
X160901292Y-85189367D01*
X160934777Y-85250690D01*
X160929793Y-85320382D01*
X160915188Y-85348169D01*
X160902466Y-85366339D01*
X160816719Y-85550225D01*
X160809107Y-85566548D01*
X160809104Y-85566554D01*
X160751930Y-85779929D01*
X160751929Y-85779937D01*
X160732677Y-85999997D01*
X160732677Y-86000002D01*
X160751929Y-86220062D01*
X160751930Y-86220070D01*
X160809104Y-86433445D01*
X160809105Y-86433447D01*
X160809106Y-86433450D01*
X160902464Y-86633658D01*
X160902466Y-86633662D01*
X160902468Y-86633666D01*
X161029170Y-86814615D01*
X161029175Y-86814621D01*
X161185378Y-86970824D01*
X161185384Y-86970829D01*
X161366333Y-87097531D01*
X161366335Y-87097532D01*
X161366338Y-87097534D01*
X161566550Y-87190894D01*
X161779932Y-87248070D01*
X161937123Y-87261822D01*
X161999998Y-87267323D01*
X162000000Y-87267323D01*
X162000002Y-87267323D01*
X162055017Y-87262509D01*
X162220068Y-87248070D01*
X162433450Y-87190894D01*
X162633662Y-87097534D01*
X162814620Y-86970826D01*
X162970826Y-86814620D01*
X163097534Y-86633662D01*
X163190894Y-86433450D01*
X163248070Y-86220068D01*
X163267323Y-86000000D01*
X163248070Y-85779932D01*
X163190894Y-85566550D01*
X163097534Y-85366339D01*
X162970826Y-85185380D01*
X162814620Y-85029174D01*
X162814616Y-85029171D01*
X162814615Y-85029170D01*
X162633666Y-84902468D01*
X162633658Y-84902464D01*
X162504811Y-84842382D01*
X162452371Y-84796210D01*
X162433219Y-84729017D01*
X162453435Y-84662135D01*
X162504811Y-84617618D01*
X162510802Y-84614824D01*
X162633662Y-84557534D01*
X162814620Y-84430826D01*
X162970826Y-84274620D01*
X163097534Y-84093662D01*
X163190894Y-83893450D01*
X163248070Y-83680068D01*
X163263780Y-83500499D01*
X163267323Y-83460002D01*
X163267323Y-83459997D01*
X163258360Y-83357546D01*
X163248070Y-83239932D01*
X163190894Y-83026550D01*
X163097534Y-82826339D01*
X163003453Y-82691977D01*
X162970827Y-82645381D01*
X162966061Y-82640615D01*
X162814620Y-82489174D01*
X162814616Y-82489171D01*
X162814615Y-82489170D01*
X162633666Y-82362468D01*
X162633658Y-82362464D01*
X162504811Y-82302382D01*
X162452371Y-82256210D01*
X162433219Y-82189017D01*
X162453435Y-82122135D01*
X162504811Y-82077618D01*
X162510802Y-82074824D01*
X162633662Y-82017534D01*
X162814620Y-81890826D01*
X162970826Y-81734620D01*
X163097534Y-81553662D01*
X163190894Y-81353450D01*
X163248070Y-81140068D01*
X163267323Y-80920000D01*
X163248070Y-80699932D01*
X163190894Y-80486550D01*
X163097534Y-80286339D01*
X162970826Y-80105380D01*
X162814620Y-79949174D01*
X162814616Y-79949171D01*
X162814615Y-79949170D01*
X162633666Y-79822468D01*
X162633658Y-79822464D01*
X162504811Y-79762382D01*
X162452371Y-79716210D01*
X162433219Y-79649017D01*
X162453435Y-79582135D01*
X162504811Y-79537618D01*
X162510802Y-79534824D01*
X162633662Y-79477534D01*
X162814620Y-79350826D01*
X162970826Y-79194620D01*
X163097534Y-79013662D01*
X163190894Y-78813450D01*
X163248070Y-78600068D01*
X163267323Y-78380000D01*
X163248070Y-78159932D01*
X163190894Y-77946550D01*
X163097534Y-77746339D01*
X162982003Y-77581342D01*
X162970827Y-77565381D01*
X162901043Y-77495597D01*
X162814620Y-77409174D01*
X162814616Y-77409171D01*
X162814615Y-77409170D01*
X162633666Y-77282468D01*
X162633658Y-77282464D01*
X162504811Y-77222382D01*
X162452371Y-77176210D01*
X162433219Y-77109017D01*
X162453435Y-77042135D01*
X162504811Y-76997618D01*
X162515889Y-76992452D01*
X162633662Y-76937534D01*
X162814620Y-76810826D01*
X162970826Y-76654620D01*
X163097534Y-76473662D01*
X163190894Y-76273450D01*
X163248070Y-76060068D01*
X163267323Y-75840000D01*
X163248070Y-75619932D01*
X163190894Y-75406550D01*
X163097534Y-75206339D01*
X162986182Y-75047311D01*
X162970827Y-75025381D01*
X162903718Y-74958272D01*
X162814620Y-74869174D01*
X162814616Y-74869171D01*
X162814615Y-74869170D01*
X162633666Y-74742468D01*
X162633658Y-74742464D01*
X162504811Y-74682382D01*
X162452371Y-74636210D01*
X162433219Y-74569017D01*
X162453435Y-74502135D01*
X162504811Y-74457618D01*
X162510802Y-74454824D01*
X162633662Y-74397534D01*
X162814620Y-74270826D01*
X162970826Y-74114620D01*
X163097534Y-73933662D01*
X163190894Y-73733450D01*
X163248070Y-73520068D01*
X163267323Y-73300000D01*
X163248070Y-73079932D01*
X163190894Y-72866550D01*
X163097534Y-72666339D01*
X162970826Y-72485380D01*
X162814620Y-72329174D01*
X162814616Y-72329171D01*
X162814615Y-72329170D01*
X162633666Y-72202468D01*
X162633658Y-72202464D01*
X162504811Y-72142382D01*
X162452371Y-72096210D01*
X162433219Y-72029017D01*
X162453435Y-71962135D01*
X162504811Y-71917618D01*
X162510802Y-71914824D01*
X162633662Y-71857534D01*
X162814620Y-71730826D01*
X162970826Y-71574620D01*
X163097534Y-71393662D01*
X163190894Y-71193450D01*
X163248070Y-70980068D01*
X163267323Y-70760000D01*
X163262117Y-70700499D01*
X163248070Y-70539937D01*
X163248070Y-70539932D01*
X163190894Y-70326550D01*
X163097534Y-70126339D01*
X163008302Y-69998901D01*
X162970827Y-69945381D01*
X162906946Y-69881500D01*
X162814620Y-69789174D01*
X162814616Y-69789171D01*
X162814615Y-69789170D01*
X162633666Y-69662468D01*
X162633658Y-69662464D01*
X162504811Y-69602382D01*
X162452371Y-69556210D01*
X162433219Y-69489017D01*
X162453435Y-69422135D01*
X162504811Y-69377618D01*
X162510802Y-69374824D01*
X162633662Y-69317534D01*
X162814620Y-69190826D01*
X162970826Y-69034620D01*
X163097534Y-68853662D01*
X163190894Y-68653450D01*
X163248070Y-68440068D01*
X163267323Y-68220000D01*
X163248070Y-67999932D01*
X163190894Y-67786550D01*
X163097534Y-67586339D01*
X162970826Y-67405380D01*
X162814620Y-67249174D01*
X162814616Y-67249171D01*
X162814615Y-67249170D01*
X162633666Y-67122468D01*
X162633658Y-67122464D01*
X162504811Y-67062382D01*
X162452371Y-67016210D01*
X162433219Y-66949017D01*
X162453435Y-66882135D01*
X162504811Y-66837618D01*
X162510802Y-66834824D01*
X162633662Y-66777534D01*
X162814620Y-66650826D01*
X162970826Y-66494620D01*
X163097534Y-66313662D01*
X163190894Y-66113450D01*
X163248070Y-65900068D01*
X163267323Y-65680000D01*
X163266605Y-65671798D01*
X163260103Y-65597474D01*
X163248070Y-65459932D01*
X163190894Y-65246550D01*
X163097534Y-65046339D01*
X163034180Y-64955859D01*
X162970827Y-64865381D01*
X162909848Y-64804402D01*
X162814620Y-64709174D01*
X162814616Y-64709171D01*
X162814615Y-64709170D01*
X162633666Y-64582468D01*
X162633658Y-64582464D01*
X162504811Y-64522382D01*
X162452371Y-64476210D01*
X162433219Y-64409017D01*
X162453435Y-64342135D01*
X162504811Y-64297618D01*
X162510802Y-64294824D01*
X162633662Y-64237534D01*
X162814620Y-64110826D01*
X162970826Y-63954620D01*
X163097534Y-63773662D01*
X163181733Y-63593096D01*
X163227905Y-63540656D01*
X163294115Y-63521500D01*
X168910222Y-63521500D01*
X168910225Y-63521500D01*
X169007254Y-63495501D01*
X169094247Y-63445276D01*
X169165276Y-63374247D01*
X169805276Y-62734247D01*
X169855502Y-62647253D01*
X169881501Y-62550225D01*
X169881501Y-62449775D01*
X169881501Y-62442180D01*
X169881500Y-62442162D01*
X169881500Y-56724380D01*
X169901185Y-56657341D01*
X169953989Y-56611586D01*
X169996896Y-56601102D01*
X169996868Y-56600820D01*
X169998901Y-56600612D01*
X169999197Y-56600540D01*
X169999998Y-56600499D01*
X170000008Y-56600499D01*
X170102797Y-56589999D01*
X170269334Y-56534814D01*
X170418656Y-56442712D01*
X170542712Y-56318656D01*
X170634814Y-56169334D01*
X170689999Y-56002797D01*
X170700500Y-55900009D01*
X170700499Y-55099992D01*
X170699691Y-55092086D01*
X170689999Y-54997203D01*
X170689998Y-54997200D01*
X170634814Y-54830666D01*
X170542712Y-54681344D01*
X170449049Y-54587681D01*
X170415564Y-54526358D01*
X170420548Y-54456666D01*
X170449049Y-54412319D01*
X170464986Y-54396382D01*
X170542712Y-54318656D01*
X170634814Y-54169334D01*
X170689999Y-54002797D01*
X170700500Y-53900009D01*
X170700499Y-53099992D01*
X170689999Y-52997203D01*
X170634814Y-52830666D01*
X170542712Y-52681344D01*
X170418656Y-52557288D01*
X170269334Y-52465186D01*
X170102797Y-52410001D01*
X170102795Y-52410000D01*
X169999990Y-52399497D01*
X169999169Y-52399456D01*
X169998999Y-52399396D01*
X169996868Y-52399179D01*
X169996920Y-52398668D01*
X169933222Y-52376375D01*
X169890223Y-52321304D01*
X169881500Y-52275618D01*
X169881500Y-45449777D01*
X169881500Y-45449775D01*
X169855501Y-45352746D01*
X169805276Y-45265753D01*
X169734247Y-45194724D01*
X166634247Y-42094724D01*
X166547254Y-42044499D01*
X166547255Y-42044499D01*
X166522996Y-42037999D01*
X166450225Y-42018500D01*
X166450222Y-42018500D01*
X164105500Y-42018500D01*
X164038461Y-41998815D01*
X163992706Y-41946011D01*
X163981500Y-41894500D01*
X163981500Y-37281995D01*
X166599500Y-37281995D01*
X166599500Y-37518004D01*
X166599501Y-37518020D01*
X166630306Y-37752010D01*
X166691394Y-37979993D01*
X166781714Y-38198045D01*
X166781719Y-38198056D01*
X166832127Y-38285364D01*
X166899727Y-38402450D01*
X166899729Y-38402453D01*
X166899730Y-38402454D01*
X167043406Y-38589697D01*
X167043412Y-38589704D01*
X167210295Y-38756587D01*
X167210302Y-38756593D01*
X167289946Y-38817706D01*
X167397550Y-38900273D01*
X167496989Y-38957684D01*
X167601943Y-39018280D01*
X167601948Y-39018282D01*
X167601951Y-39018284D01*
X167820007Y-39108606D01*
X168047986Y-39169693D01*
X168281989Y-39200500D01*
X168281996Y-39200500D01*
X168518004Y-39200500D01*
X168518011Y-39200500D01*
X168752014Y-39169693D01*
X168979993Y-39108606D01*
X169198049Y-39018284D01*
X169402450Y-38900273D01*
X169589699Y-38756592D01*
X169756592Y-38589699D01*
X169900273Y-38402450D01*
X170018284Y-38198049D01*
X170108606Y-37979993D01*
X170169693Y-37752014D01*
X170200500Y-37518011D01*
X170200500Y-37281989D01*
X170169693Y-37047986D01*
X170108606Y-36820007D01*
X170018284Y-36601951D01*
X170018282Y-36601948D01*
X170018280Y-36601943D01*
X169976118Y-36528918D01*
X169900273Y-36397550D01*
X169782832Y-36244498D01*
X169756593Y-36210302D01*
X169756587Y-36210295D01*
X169589704Y-36043412D01*
X169589697Y-36043406D01*
X169402454Y-35899730D01*
X169402453Y-35899729D01*
X169402450Y-35899727D01*
X169278569Y-35828204D01*
X169198056Y-35781719D01*
X169198045Y-35781714D01*
X168979993Y-35691394D01*
X168855597Y-35658062D01*
X168752014Y-35630307D01*
X168752013Y-35630306D01*
X168752010Y-35630306D01*
X168518020Y-35599501D01*
X168518017Y-35599500D01*
X168518011Y-35599500D01*
X168281989Y-35599500D01*
X168281983Y-35599500D01*
X168281979Y-35599501D01*
X168047989Y-35630306D01*
X167820006Y-35691394D01*
X167601954Y-35781714D01*
X167601943Y-35781719D01*
X167397545Y-35899730D01*
X167210302Y-36043406D01*
X167210295Y-36043412D01*
X167043412Y-36210295D01*
X167043406Y-36210302D01*
X166899730Y-36397545D01*
X166781719Y-36601943D01*
X166781714Y-36601954D01*
X166691394Y-36820006D01*
X166630306Y-37047989D01*
X166599501Y-37281979D01*
X166599500Y-37281995D01*
X163981500Y-37281995D01*
X163981500Y-36437286D01*
X164001185Y-36370247D01*
X164053989Y-36324492D01*
X164064540Y-36320246D01*
X164134982Y-36295598D01*
X164281368Y-36203617D01*
X164403617Y-36081368D01*
X164495598Y-35934982D01*
X164552698Y-35771798D01*
X164564729Y-35665018D01*
X164572055Y-35600003D01*
X164572055Y-35599996D01*
X164556592Y-35462761D01*
X164552698Y-35428202D01*
X164495598Y-35265018D01*
X164479889Y-35240018D01*
X164403617Y-35118632D01*
X164281367Y-34996382D01*
X164134983Y-34904402D01*
X163992103Y-34854407D01*
X163971798Y-34847302D01*
X163971797Y-34847301D01*
X163971795Y-34847301D01*
X163800004Y-34827945D01*
X163799996Y-34827945D01*
X163628204Y-34847301D01*
X163465016Y-34904402D01*
X163318632Y-34996382D01*
X163196382Y-35118632D01*
X163104402Y-35265016D01*
X163047301Y-35428204D01*
X163027945Y-35599996D01*
X163027945Y-35600003D01*
X163047301Y-35771795D01*
X163104402Y-35934983D01*
X163199494Y-36086319D01*
X163218500Y-36152291D01*
X163218500Y-42250225D01*
X163237999Y-42322996D01*
X163244499Y-42347255D01*
X163244500Y-42347256D01*
X163260230Y-42374501D01*
X163294724Y-42434247D01*
X163565753Y-42705276D01*
X163652747Y-42755502D01*
X163749775Y-42781501D01*
X163749778Y-42781501D01*
X163857821Y-42781501D01*
X163857837Y-42781500D01*
X166190615Y-42781500D01*
X166257654Y-42801185D01*
X166278296Y-42817819D01*
X169082181Y-45621704D01*
X169115666Y-45683027D01*
X169118500Y-45709385D01*
X169118500Y-52275619D01*
X169098815Y-52342658D01*
X169046011Y-52388413D01*
X169003103Y-52398902D01*
X169003132Y-52399180D01*
X169001130Y-52399384D01*
X169000834Y-52399457D01*
X169000005Y-52399499D01*
X168897203Y-52410000D01*
X168897200Y-52410001D01*
X168730668Y-52465185D01*
X168730663Y-52465187D01*
X168581342Y-52557289D01*
X168457289Y-52681342D01*
X168365187Y-52830663D01*
X168365185Y-52830668D01*
X168339591Y-52907906D01*
X168310001Y-52997203D01*
X168310001Y-52997204D01*
X168310000Y-52997204D01*
X168299500Y-53099983D01*
X168299500Y-53900001D01*
X168299501Y-53900019D01*
X168310000Y-54002796D01*
X168310001Y-54002799D01*
X168365185Y-54169331D01*
X168365187Y-54169336D01*
X168457289Y-54318657D01*
X168550951Y-54412319D01*
X168584436Y-54473642D01*
X168579452Y-54543334D01*
X168550951Y-54587681D01*
X168457289Y-54681342D01*
X168365187Y-54830663D01*
X168365186Y-54830666D01*
X168310001Y-54997203D01*
X168310001Y-54997204D01*
X168310000Y-54997204D01*
X168299500Y-55099983D01*
X168299500Y-55900001D01*
X168299501Y-55900019D01*
X168310000Y-56002796D01*
X168310001Y-56002799D01*
X168334372Y-56076344D01*
X168365186Y-56169334D01*
X168457288Y-56318656D01*
X168581344Y-56442712D01*
X168730666Y-56534814D01*
X168897203Y-56589999D01*
X168999991Y-56600500D01*
X169000004Y-56600499D01*
X169000800Y-56600541D01*
X169000968Y-56600599D01*
X169003132Y-56600821D01*
X169003079Y-56601338D01*
X169066752Y-56623606D01*
X169109766Y-56678666D01*
X169118500Y-56724381D01*
X169118500Y-62290615D01*
X169098815Y-62357654D01*
X169082181Y-62378296D01*
X168738296Y-62722181D01*
X168676973Y-62755666D01*
X168650615Y-62758500D01*
X163294115Y-62758500D01*
X163227076Y-62738815D01*
X163181733Y-62686905D01*
X163097534Y-62506339D01*
X163007878Y-62378296D01*
X162970827Y-62325381D01*
X162936061Y-62290615D01*
X162814620Y-62169174D01*
X162814616Y-62169171D01*
X162814615Y-62169170D01*
X162633666Y-62042468D01*
X162633658Y-62042464D01*
X162504811Y-61982382D01*
X162452371Y-61936210D01*
X162433219Y-61869017D01*
X162453435Y-61802135D01*
X162504811Y-61757618D01*
X162510802Y-61754824D01*
X162633662Y-61697534D01*
X162814620Y-61570826D01*
X162970826Y-61414620D01*
X163097534Y-61233662D01*
X163181733Y-61053096D01*
X163227905Y-61000656D01*
X163294115Y-60981500D01*
X165609063Y-60981500D01*
X165674159Y-60999961D01*
X165730659Y-61034810D01*
X165730660Y-61034810D01*
X165730666Y-61034814D01*
X165897203Y-61089999D01*
X165999991Y-61100500D01*
X167000008Y-61100499D01*
X167000016Y-61100498D01*
X167000019Y-61100498D01*
X167056302Y-61094748D01*
X167102797Y-61089999D01*
X167269334Y-61034814D01*
X167418656Y-60942712D01*
X167542712Y-60818656D01*
X167634814Y-60669334D01*
X167689999Y-60502797D01*
X167700500Y-60400009D01*
X167700499Y-59599992D01*
X167689999Y-59497203D01*
X167634814Y-59330666D01*
X167542712Y-59181344D01*
X167449049Y-59087681D01*
X167415564Y-59026358D01*
X167420548Y-58956666D01*
X167449049Y-58912319D01*
X167491541Y-58869827D01*
X167542712Y-58818656D01*
X167634814Y-58669334D01*
X167689999Y-58502797D01*
X167700500Y-58400009D01*
X167700499Y-57599992D01*
X167698303Y-57578498D01*
X167689999Y-57497203D01*
X167689998Y-57497200D01*
X167661565Y-57411395D01*
X167634814Y-57330666D01*
X167542712Y-57181344D01*
X167418656Y-57057288D01*
X167269334Y-56965186D01*
X167102797Y-56910001D01*
X167102795Y-56910000D01*
X166999990Y-56899497D01*
X166999169Y-56899456D01*
X166998999Y-56899396D01*
X166996868Y-56899179D01*
X166996920Y-56898668D01*
X166933222Y-56876375D01*
X166890223Y-56821304D01*
X166881500Y-56775618D01*
X166881500Y-55734900D01*
X166901185Y-55667861D01*
X166939529Y-55629906D01*
X166981368Y-55603617D01*
X167103617Y-55481368D01*
X167195598Y-55334982D01*
X167252698Y-55171798D01*
X167272055Y-55000000D01*
X167262835Y-54918174D01*
X167252976Y-54830668D01*
X167252698Y-54828202D01*
X167195598Y-54665018D01*
X167148919Y-54590730D01*
X167103617Y-54518632D01*
X166981367Y-54396382D01*
X166834983Y-54304402D01*
X166682675Y-54251108D01*
X166671798Y-54247302D01*
X166671797Y-54247301D01*
X166671795Y-54247301D01*
X166500004Y-54227945D01*
X166499996Y-54227945D01*
X166328204Y-54247301D01*
X166165016Y-54304402D01*
X166018632Y-54396382D01*
X165896382Y-54518632D01*
X165804402Y-54665016D01*
X165747301Y-54828204D01*
X165727945Y-54999996D01*
X165727945Y-55000003D01*
X165747301Y-55171795D01*
X165804402Y-55334983D01*
X165896382Y-55481367D01*
X166018631Y-55603616D01*
X166018634Y-55603618D01*
X166060471Y-55629906D01*
X166106763Y-55682240D01*
X166118500Y-55734900D01*
X166118500Y-56775619D01*
X166098815Y-56842658D01*
X166046011Y-56888413D01*
X166003103Y-56898902D01*
X166003132Y-56899180D01*
X166001130Y-56899384D01*
X166000834Y-56899457D01*
X166000005Y-56899499D01*
X165897203Y-56910000D01*
X165897200Y-56910001D01*
X165730668Y-56965185D01*
X165730663Y-56965187D01*
X165581342Y-57057289D01*
X165457289Y-57181342D01*
X165365187Y-57330663D01*
X165365186Y-57330666D01*
X165310001Y-57497203D01*
X165310001Y-57497204D01*
X165310000Y-57497204D01*
X165299500Y-57599983D01*
X165299500Y-58400001D01*
X165299501Y-58400019D01*
X165310000Y-58502796D01*
X165310001Y-58502799D01*
X165365185Y-58669331D01*
X165365187Y-58669336D01*
X165457289Y-58818657D01*
X165550951Y-58912319D01*
X165584436Y-58973642D01*
X165579452Y-59043334D01*
X165550951Y-59087681D01*
X165457289Y-59181342D01*
X165365187Y-59330663D01*
X165365185Y-59330668D01*
X165337349Y-59414670D01*
X165310001Y-59497203D01*
X165310001Y-59497204D01*
X165310000Y-59497204D01*
X165299500Y-59599983D01*
X165299500Y-59599996D01*
X165299501Y-60094500D01*
X165279817Y-60161539D01*
X165227013Y-60207294D01*
X165175501Y-60218500D01*
X163294115Y-60218500D01*
X163227076Y-60198815D01*
X163181733Y-60146905D01*
X163168487Y-60118498D01*
X163097534Y-59966339D01*
X162970826Y-59785380D01*
X162814620Y-59629174D01*
X162814616Y-59629171D01*
X162814615Y-59629170D01*
X162698085Y-59547575D01*
X162654460Y-59492998D01*
X162647266Y-59423500D01*
X162678789Y-59361145D01*
X162739019Y-59325731D01*
X162769208Y-59322000D01*
X162809828Y-59322000D01*
X162809844Y-59321999D01*
X162869372Y-59315598D01*
X162869379Y-59315596D01*
X163004086Y-59265354D01*
X163004093Y-59265350D01*
X163119187Y-59179190D01*
X163119190Y-59179187D01*
X163205350Y-59064093D01*
X163205354Y-59064086D01*
X163255596Y-58929379D01*
X163255598Y-58929372D01*
X163261999Y-58869844D01*
X163262000Y-58869827D01*
X163262000Y-58310000D01*
X162442251Y-58310000D01*
X162473381Y-58256081D01*
X162508000Y-58126880D01*
X162508000Y-57993120D01*
X162473381Y-57863919D01*
X162442251Y-57810000D01*
X163262000Y-57810000D01*
X163262000Y-57250172D01*
X163261999Y-57250155D01*
X163255598Y-57190627D01*
X163255596Y-57190620D01*
X163205354Y-57055913D01*
X163205350Y-57055906D01*
X163119190Y-56940812D01*
X163119187Y-56940809D01*
X163004093Y-56854649D01*
X163004086Y-56854645D01*
X162869379Y-56804403D01*
X162869372Y-56804401D01*
X162809844Y-56798000D01*
X162250000Y-56798000D01*
X162250000Y-57617748D01*
X162196081Y-57586619D01*
X162066880Y-57552000D01*
X161933120Y-57552000D01*
X161803919Y-57586619D01*
X161750000Y-57617748D01*
X161750000Y-56798000D01*
X161190155Y-56798000D01*
X161130627Y-56804401D01*
X161130620Y-56804403D01*
X160995913Y-56854645D01*
X160995906Y-56854649D01*
X160880812Y-56940809D01*
X160880809Y-56940812D01*
X160794649Y-57055906D01*
X160794645Y-57055913D01*
X160744403Y-57190620D01*
X160744401Y-57190627D01*
X160738000Y-57250155D01*
X160738000Y-57810000D01*
X161557749Y-57810000D01*
X161526619Y-57863919D01*
X161492000Y-57993120D01*
X161492000Y-58126880D01*
X161526619Y-58256081D01*
X161557749Y-58310000D01*
X160738000Y-58310000D01*
X160738000Y-58869844D01*
X160744401Y-58929372D01*
X160744403Y-58929379D01*
X160794645Y-59064086D01*
X160794649Y-59064093D01*
X160880809Y-59179187D01*
X160880812Y-59179190D01*
X160995906Y-59265350D01*
X160995913Y-59265354D01*
X161130620Y-59315596D01*
X161130627Y-59315598D01*
X161190155Y-59321999D01*
X161190172Y-59322000D01*
X161230793Y-59322000D01*
X161297832Y-59341685D01*
X161343587Y-59394489D01*
X161353531Y-59463647D01*
X161324506Y-59527203D01*
X161301916Y-59547575D01*
X161185377Y-59629175D01*
X161029175Y-59785377D01*
X160902466Y-59966338D01*
X160902465Y-59966340D01*
X160809107Y-60166548D01*
X160809104Y-60166554D01*
X160751930Y-60379929D01*
X160751929Y-60379937D01*
X160732677Y-60599997D01*
X160732677Y-60600002D01*
X160751929Y-60820062D01*
X160751930Y-60820070D01*
X160809104Y-61033445D01*
X160809105Y-61033447D01*
X160809106Y-61033450D01*
X160840372Y-61100500D01*
X160902466Y-61233662D01*
X160902468Y-61233666D01*
X161029170Y-61414615D01*
X161029175Y-61414621D01*
X161185378Y-61570824D01*
X161185384Y-61570829D01*
X161366333Y-61697531D01*
X161366335Y-61697532D01*
X161366338Y-61697534D01*
X161485748Y-61753215D01*
X161495189Y-61757618D01*
X161547628Y-61803790D01*
X161566780Y-61870984D01*
X161546564Y-61937865D01*
X161495189Y-61982382D01*
X161366340Y-62042465D01*
X161366338Y-62042466D01*
X161185377Y-62169175D01*
X161029175Y-62325377D01*
X160902466Y-62506338D01*
X160902465Y-62506340D01*
X160809107Y-62706548D01*
X160809104Y-62706554D01*
X160751930Y-62919929D01*
X160751929Y-62919937D01*
X160732677Y-63139997D01*
X160732677Y-63140002D01*
X160751929Y-63360062D01*
X160751930Y-63360070D01*
X160809104Y-63573445D01*
X160809105Y-63573447D01*
X160809106Y-63573450D01*
X160902464Y-63773658D01*
X160902466Y-63773662D01*
X160902468Y-63773666D01*
X161029170Y-63954615D01*
X161029175Y-63954621D01*
X161185378Y-64110824D01*
X161185384Y-64110829D01*
X161366333Y-64237531D01*
X161366335Y-64237532D01*
X161366338Y-64237534D01*
X161485748Y-64293215D01*
X161495189Y-64297618D01*
X161547628Y-64343790D01*
X161566780Y-64410984D01*
X161546564Y-64477865D01*
X161495189Y-64522382D01*
X161366340Y-64582465D01*
X161366338Y-64582466D01*
X161185377Y-64709175D01*
X161029175Y-64865377D01*
X160902466Y-65046338D01*
X160902465Y-65046340D01*
X160809107Y-65246548D01*
X160809104Y-65246554D01*
X160751930Y-65459929D01*
X160751929Y-65459937D01*
X160732677Y-65679997D01*
X160732677Y-65680002D01*
X160751929Y-65900062D01*
X160751930Y-65900070D01*
X160809104Y-66113445D01*
X160809105Y-66113447D01*
X160809106Y-66113450D01*
X160868833Y-66241535D01*
X160902466Y-66313662D01*
X160902468Y-66313666D01*
X161029170Y-66494615D01*
X161029175Y-66494621D01*
X161185378Y-66650824D01*
X161185384Y-66650829D01*
X161366333Y-66777531D01*
X161366335Y-66777532D01*
X161366338Y-66777534D01*
X161485748Y-66833215D01*
X161495189Y-66837618D01*
X161547628Y-66883790D01*
X161566780Y-66950984D01*
X161546564Y-67017865D01*
X161495189Y-67062382D01*
X161366340Y-67122465D01*
X161366338Y-67122466D01*
X161185377Y-67249175D01*
X161029175Y-67405377D01*
X160902466Y-67586338D01*
X160902465Y-67586340D01*
X160809107Y-67786548D01*
X160809104Y-67786554D01*
X160751930Y-67999929D01*
X160751929Y-67999937D01*
X160732677Y-68219997D01*
X160732677Y-68220002D01*
X160751929Y-68440062D01*
X160751930Y-68440070D01*
X160809104Y-68653445D01*
X160809105Y-68653447D01*
X160809106Y-68653450D01*
X160845210Y-68730875D01*
X160902466Y-68853662D01*
X160902468Y-68853666D01*
X161029170Y-69034615D01*
X161029175Y-69034621D01*
X161185378Y-69190824D01*
X161185384Y-69190829D01*
X161366333Y-69317531D01*
X161366335Y-69317532D01*
X161366338Y-69317534D01*
X161485748Y-69373215D01*
X161495189Y-69377618D01*
X161547628Y-69423790D01*
X161566780Y-69490984D01*
X161546564Y-69557865D01*
X161495189Y-69602382D01*
X161366340Y-69662465D01*
X161366338Y-69662466D01*
X161185377Y-69789175D01*
X161029175Y-69945377D01*
X160902466Y-70126338D01*
X160902465Y-70126340D01*
X160809107Y-70326548D01*
X160809104Y-70326554D01*
X160751930Y-70539929D01*
X160751929Y-70539937D01*
X160732677Y-70759997D01*
X160732677Y-70760002D01*
X160751929Y-70980062D01*
X160751930Y-70980070D01*
X160809104Y-71193445D01*
X160809105Y-71193447D01*
X160809106Y-71193450D01*
X160902466Y-71393662D01*
X160902468Y-71393666D01*
X161029170Y-71574615D01*
X161029175Y-71574621D01*
X161185378Y-71730824D01*
X161185384Y-71730829D01*
X161366333Y-71857531D01*
X161366335Y-71857532D01*
X161366338Y-71857534D01*
X161485748Y-71913215D01*
X161495189Y-71917618D01*
X161547628Y-71963790D01*
X161566780Y-72030984D01*
X161546564Y-72097865D01*
X161495189Y-72142382D01*
X161366340Y-72202465D01*
X161366338Y-72202466D01*
X161185377Y-72329175D01*
X161029175Y-72485377D01*
X160902466Y-72666338D01*
X160902465Y-72666340D01*
X160809107Y-72866548D01*
X160809104Y-72866554D01*
X160751930Y-73079929D01*
X160751929Y-73079937D01*
X160732677Y-73299997D01*
X160732677Y-73300002D01*
X160751929Y-73520062D01*
X160751930Y-73520070D01*
X160809104Y-73733445D01*
X160809105Y-73733447D01*
X160809106Y-73733450D01*
X160902466Y-73933662D01*
X160902468Y-73933666D01*
X161029170Y-74114615D01*
X161029175Y-74114621D01*
X161185378Y-74270824D01*
X161185384Y-74270829D01*
X161366333Y-74397531D01*
X161366335Y-74397532D01*
X161366338Y-74397534D01*
X161485748Y-74453215D01*
X161495189Y-74457618D01*
X161547628Y-74503790D01*
X161566780Y-74570984D01*
X161546564Y-74637865D01*
X161495189Y-74682382D01*
X161366340Y-74742465D01*
X161366338Y-74742466D01*
X161185377Y-74869175D01*
X161029175Y-75025377D01*
X160902466Y-75206338D01*
X160902465Y-75206340D01*
X160809107Y-75406548D01*
X160809104Y-75406554D01*
X160751930Y-75619929D01*
X160751929Y-75619937D01*
X160732677Y-75839997D01*
X160732677Y-75840002D01*
X160751929Y-76060062D01*
X160751930Y-76060070D01*
X160809104Y-76273445D01*
X160809105Y-76273447D01*
X160809106Y-76273450D01*
X160870925Y-76406021D01*
X160902466Y-76473662D01*
X160902468Y-76473666D01*
X161029170Y-76654615D01*
X161029175Y-76654621D01*
X161185378Y-76810824D01*
X161185384Y-76810829D01*
X161366333Y-76937531D01*
X161366335Y-76937532D01*
X161366338Y-76937534D01*
X161439818Y-76971798D01*
X161495189Y-76997618D01*
X161547628Y-77043790D01*
X161566780Y-77110984D01*
X161546564Y-77177865D01*
X161495189Y-77222382D01*
X161366340Y-77282465D01*
X161366338Y-77282466D01*
X161185377Y-77409175D01*
X161029175Y-77565377D01*
X160902466Y-77746338D01*
X160902465Y-77746340D01*
X160809107Y-77946548D01*
X160809104Y-77946554D01*
X160751930Y-78159929D01*
X160751929Y-78159937D01*
X160732677Y-78379997D01*
X160732677Y-78380002D01*
X160751929Y-78600062D01*
X160751930Y-78600070D01*
X160809104Y-78813445D01*
X160809105Y-78813447D01*
X160809106Y-78813450D01*
X160872675Y-78949775D01*
X160902466Y-79013662D01*
X160902468Y-79013666D01*
X161029170Y-79194615D01*
X161029175Y-79194621D01*
X161185378Y-79350824D01*
X161185384Y-79350829D01*
X161366333Y-79477531D01*
X161366335Y-79477532D01*
X161366338Y-79477534D01*
X161485748Y-79533215D01*
X161495189Y-79537618D01*
X161547628Y-79583790D01*
X161566780Y-79650984D01*
X161546564Y-79717865D01*
X161495189Y-79762382D01*
X161366340Y-79822465D01*
X161366338Y-79822466D01*
X161185377Y-79949175D01*
X161029175Y-80105377D01*
X160902466Y-80286338D01*
X160902465Y-80286340D01*
X160809107Y-80486548D01*
X160809104Y-80486554D01*
X160751930Y-80699929D01*
X160751929Y-80699937D01*
X160732677Y-80919997D01*
X160732677Y-80920002D01*
X160751929Y-81140062D01*
X160751930Y-81140070D01*
X160809104Y-81353445D01*
X160809105Y-81353447D01*
X160809106Y-81353450D01*
X160902466Y-81553662D01*
X160902468Y-81553666D01*
X161029170Y-81734615D01*
X161029175Y-81734621D01*
X161185378Y-81890824D01*
X161185384Y-81890829D01*
X161366333Y-82017531D01*
X161366335Y-82017532D01*
X161366338Y-82017534D01*
X161485748Y-82073215D01*
X161495189Y-82077618D01*
X161547628Y-82123790D01*
X161566780Y-82190984D01*
X161546564Y-82257865D01*
X161495189Y-82302382D01*
X161366340Y-82362465D01*
X161366338Y-82362466D01*
X161185377Y-82489175D01*
X161029175Y-82645377D01*
X160902466Y-82826338D01*
X160902465Y-82826340D01*
X160809107Y-83026548D01*
X160809106Y-83026550D01*
X160751930Y-83239929D01*
X160751929Y-83239937D01*
X160732677Y-83459997D01*
X160732677Y-83460002D01*
X160751929Y-83680062D01*
X160751930Y-83680070D01*
X160809104Y-83893445D01*
X160809105Y-83893447D01*
X160809106Y-83893450D01*
X160862142Y-84007187D01*
X160902466Y-84093662D01*
X160902468Y-84093666D01*
X161029170Y-84274615D01*
X161029175Y-84274621D01*
X161185378Y-84430824D01*
X161185384Y-84430829D01*
X161366333Y-84557531D01*
X161366335Y-84557532D01*
X161366338Y-84557534D01*
X161485748Y-84613215D01*
X161495189Y-84617618D01*
X161547628Y-84663790D01*
X161566780Y-84730984D01*
X161546564Y-84797865D01*
X161495189Y-84842382D01*
X161366337Y-84902467D01*
X161348169Y-84915188D01*
X161281962Y-84937514D01*
X161214196Y-84920501D01*
X161189367Y-84901292D01*
X153240019Y-76951944D01*
X153206534Y-76890621D01*
X153203700Y-76864263D01*
X153203700Y-66329518D01*
X153223385Y-66262479D01*
X153276189Y-66216724D01*
X153286740Y-66212478D01*
X153334982Y-66195598D01*
X153481368Y-66103617D01*
X153603617Y-65981368D01*
X153695598Y-65834982D01*
X153752698Y-65671798D01*
X153772055Y-65500000D01*
X153767540Y-65459932D01*
X153752698Y-65328204D01*
X153752698Y-65328202D01*
X153695598Y-65165018D01*
X153603617Y-65018632D01*
X153481368Y-64896383D01*
X153481367Y-64896382D01*
X153334983Y-64804402D01*
X153171795Y-64747301D01*
X153000004Y-64727945D01*
X152999996Y-64727945D01*
X152828204Y-64747301D01*
X152665016Y-64804402D01*
X152518632Y-64896382D01*
X152396382Y-65018632D01*
X152304402Y-65165016D01*
X152247301Y-65328204D01*
X152227945Y-65499996D01*
X152227945Y-65500003D01*
X152247301Y-65671795D01*
X152304402Y-65834983D01*
X152396382Y-65981367D01*
X152396383Y-65981368D01*
X152518632Y-66103617D01*
X152665018Y-66195598D01*
X152713254Y-66212476D01*
X152770030Y-66253197D01*
X152795778Y-66318150D01*
X152796300Y-66329518D01*
X152796300Y-75872300D01*
X152776615Y-75939339D01*
X152723811Y-75985094D01*
X152672300Y-75996300D01*
X148559481Y-75996300D01*
X148559479Y-75996300D01*
X148559477Y-75996301D01*
X148484615Y-76027308D01*
X148484612Y-76027310D01*
X148443811Y-76068112D01*
X148382488Y-76101596D01*
X148315177Y-76097472D01*
X148171795Y-76047301D01*
X148000004Y-76027945D01*
X147999996Y-76027945D01*
X147828204Y-76047301D01*
X147665016Y-76104402D01*
X147518632Y-76196382D01*
X147396382Y-76318632D01*
X147304402Y-76465016D01*
X147247301Y-76628204D01*
X147227945Y-76799996D01*
X135928078Y-76799996D01*
X137268056Y-75460019D01*
X137329379Y-75426534D01*
X137355737Y-75423700D01*
X140119802Y-75423700D01*
X140186841Y-75443385D01*
X140232596Y-75496189D01*
X140243022Y-75533817D01*
X140247300Y-75571792D01*
X140247301Y-75571796D01*
X140304402Y-75734983D01*
X140396382Y-75881367D01*
X140518632Y-76003617D01*
X140647535Y-76084613D01*
X140665018Y-76095598D01*
X140828202Y-76152698D01*
X140885468Y-76159150D01*
X140999996Y-76172055D01*
X141000000Y-76172055D01*
X141000004Y-76172055D01*
X141111597Y-76159481D01*
X141171798Y-76152698D01*
X141334982Y-76095598D01*
X141481368Y-76003617D01*
X141603617Y-75881368D01*
X141695598Y-75734982D01*
X141752698Y-75571798D01*
X141762887Y-75481367D01*
X141772055Y-75400003D01*
X141772055Y-75399996D01*
X141756929Y-75265753D01*
X141752698Y-75228202D01*
X141695598Y-75065018D01*
X141657611Y-75004563D01*
X141603617Y-74918632D01*
X141481367Y-74796382D01*
X141334983Y-74704402D01*
X141192103Y-74654407D01*
X141171798Y-74647302D01*
X141171797Y-74647301D01*
X141171795Y-74647301D01*
X141000004Y-74627945D01*
X140999996Y-74627945D01*
X140828204Y-74647301D01*
X140665016Y-74704402D01*
X140518632Y-74796382D01*
X140396383Y-74918631D01*
X140382693Y-74940419D01*
X140371474Y-74958273D01*
X140319142Y-75004563D01*
X140266482Y-75016300D01*
X138011137Y-75016300D01*
X137944098Y-74996615D01*
X137898343Y-74943811D01*
X137888399Y-74874653D01*
X137917424Y-74811097D01*
X137923456Y-74804619D01*
X141748013Y-70980062D01*
X153597945Y-59130128D01*
X153597948Y-59130127D01*
X153615386Y-59112689D01*
X153615387Y-59112689D01*
X153672689Y-59055387D01*
X153703311Y-58981459D01*
X153703701Y-58980518D01*
X153703701Y-58899481D01*
X153703701Y-58889492D01*
X153703700Y-58889478D01*
X153703700Y-53551317D01*
X156257966Y-53551317D01*
X156257966Y-53551322D01*
X156277048Y-53903274D01*
X156303697Y-54065826D01*
X156333890Y-54250000D01*
X156334073Y-54251113D01*
X156334074Y-54251116D01*
X156428366Y-54590728D01*
X156428367Y-54590730D01*
X156558828Y-54918164D01*
X156558837Y-54918182D01*
X156693296Y-55171798D01*
X156723935Y-55229589D01*
X156919502Y-55518029D01*
X156921738Y-55521326D01*
X156921745Y-55521336D01*
X157013966Y-55629906D01*
X157149926Y-55789970D01*
X157405820Y-56032366D01*
X157686422Y-56245674D01*
X157988442Y-56427394D01*
X157988446Y-56427395D01*
X157988450Y-56427398D01*
X158308328Y-56575390D01*
X158308332Y-56575390D01*
X158308339Y-56575394D01*
X158642362Y-56687939D01*
X158986595Y-56763711D01*
X159337003Y-56801820D01*
X159337009Y-56801820D01*
X159689471Y-56801820D01*
X159689477Y-56801820D01*
X160039885Y-56763711D01*
X160384118Y-56687939D01*
X160718141Y-56575394D01*
X160718148Y-56575390D01*
X160718151Y-56575390D01*
X160971716Y-56458077D01*
X161038038Y-56427394D01*
X161340058Y-56245674D01*
X161620660Y-56032366D01*
X161876554Y-55789970D01*
X162104741Y-55521328D01*
X162302545Y-55229589D01*
X162467647Y-54918174D01*
X162598111Y-54590734D01*
X162692408Y-54251108D01*
X162749431Y-53903277D01*
X162768190Y-53557289D01*
X162768514Y-53551322D01*
X162768514Y-53551317D01*
X162749431Y-53199365D01*
X162749431Y-53199363D01*
X162692408Y-52851532D01*
X162610712Y-52557289D01*
X162598113Y-52511911D01*
X162598112Y-52511909D01*
X162467651Y-52184475D01*
X162467642Y-52184457D01*
X162302544Y-51873050D01*
X162104741Y-51581312D01*
X162104737Y-51581307D01*
X162104734Y-51581303D01*
X161876554Y-51312670D01*
X161620660Y-51070274D01*
X161620653Y-51070268D01*
X161620650Y-51070266D01*
X161340055Y-50856964D01*
X161038042Y-50675248D01*
X161038029Y-50675241D01*
X160718151Y-50527249D01*
X160718146Y-50527248D01*
X160718143Y-50527247D01*
X160718141Y-50527246D01*
X160611672Y-50491372D01*
X160384120Y-50414701D01*
X160039883Y-50338928D01*
X159689478Y-50300820D01*
X159689477Y-50300820D01*
X159337003Y-50300820D01*
X159337001Y-50300820D01*
X158986596Y-50338928D01*
X158642359Y-50414701D01*
X158308333Y-50527248D01*
X158308328Y-50527249D01*
X157988450Y-50675241D01*
X157988437Y-50675248D01*
X157686424Y-50856964D01*
X157405829Y-51070266D01*
X157405820Y-51070274D01*
X157149925Y-51312670D01*
X156921745Y-51581303D01*
X156921738Y-51581313D01*
X156723935Y-51873050D01*
X156558837Y-52184457D01*
X156558828Y-52184475D01*
X156428367Y-52511909D01*
X156428366Y-52511911D01*
X156334074Y-52851523D01*
X156334073Y-52851526D01*
X156277048Y-53199365D01*
X156257966Y-53551317D01*
X153703700Y-53551317D01*
X153703700Y-50329518D01*
X153723385Y-50262479D01*
X153776189Y-50216724D01*
X153786740Y-50212478D01*
X153834982Y-50195598D01*
X153981368Y-50103617D01*
X154103617Y-49981368D01*
X154195598Y-49834982D01*
X154252698Y-49671798D01*
X154272055Y-49500000D01*
X154252698Y-49328202D01*
X154195598Y-49165018D01*
X154103617Y-49018632D01*
X153981368Y-48896383D01*
X153981367Y-48896382D01*
X153834983Y-48804402D01*
X153671795Y-48747301D01*
X153500004Y-48727945D01*
X153499996Y-48727945D01*
X153328204Y-48747301D01*
X153165016Y-48804402D01*
X153018632Y-48896382D01*
X152896382Y-49018632D01*
X152804402Y-49165016D01*
X152747301Y-49328204D01*
X152727945Y-49499996D01*
X152727945Y-49500003D01*
X152747301Y-49671795D01*
X152804402Y-49834983D01*
X152896382Y-49981367D01*
X152896383Y-49981368D01*
X153018632Y-50103617D01*
X153165018Y-50195598D01*
X153213254Y-50212476D01*
X153270030Y-50253197D01*
X153295778Y-50318150D01*
X153296300Y-50329518D01*
X153296300Y-58804262D01*
X153276615Y-58871301D01*
X153259981Y-58891943D01*
X137047310Y-75104614D01*
X134870631Y-77281292D01*
X134809308Y-77314777D01*
X134739616Y-77309793D01*
X134711828Y-77295186D01*
X134701801Y-77288164D01*
X134693664Y-77282467D01*
X134693656Y-77282463D01*
X134564811Y-77222382D01*
X134512371Y-77176210D01*
X134493219Y-77109017D01*
X134513435Y-77042135D01*
X134564811Y-76997618D01*
X134575889Y-76992452D01*
X134693662Y-76937534D01*
X134874620Y-76810826D01*
X135030826Y-76654620D01*
X135157534Y-76473662D01*
X135250894Y-76273450D01*
X135308070Y-76060068D01*
X135327323Y-75840000D01*
X135308070Y-75619932D01*
X135250894Y-75406550D01*
X135157534Y-75206339D01*
X135046182Y-75047311D01*
X135030827Y-75025381D01*
X134963718Y-74958272D01*
X134874620Y-74869174D01*
X134874616Y-74869171D01*
X134874615Y-74869170D01*
X134693666Y-74742468D01*
X134693658Y-74742464D01*
X134564811Y-74682382D01*
X134512371Y-74636210D01*
X134493219Y-74569017D01*
X134513435Y-74502135D01*
X134564811Y-74457618D01*
X134570802Y-74454824D01*
X134693662Y-74397534D01*
X134874620Y-74270826D01*
X135030826Y-74114620D01*
X135157534Y-73933662D01*
X135250894Y-73733450D01*
X135308070Y-73520068D01*
X135327323Y-73300000D01*
X135308070Y-73079932D01*
X135250894Y-72866550D01*
X135157534Y-72666339D01*
X135030826Y-72485380D01*
X134874620Y-72329174D01*
X134874616Y-72329171D01*
X134874615Y-72329170D01*
X134693666Y-72202468D01*
X134693658Y-72202464D01*
X134564811Y-72142382D01*
X134512371Y-72096210D01*
X134493219Y-72029017D01*
X134513435Y-71962135D01*
X134564811Y-71917618D01*
X134570802Y-71914824D01*
X134693662Y-71857534D01*
X134874620Y-71730826D01*
X135030826Y-71574620D01*
X135157534Y-71393662D01*
X135250894Y-71193450D01*
X135308070Y-70980068D01*
X135327323Y-70760000D01*
X135322117Y-70700499D01*
X135308070Y-70539937D01*
X135308070Y-70539932D01*
X135250894Y-70326550D01*
X135157534Y-70126339D01*
X135068302Y-69998901D01*
X135030827Y-69945381D01*
X134966946Y-69881500D01*
X134874620Y-69789174D01*
X134874616Y-69789171D01*
X134874615Y-69789170D01*
X134693666Y-69662468D01*
X134693658Y-69662464D01*
X134564811Y-69602382D01*
X134512371Y-69556210D01*
X134493219Y-69489017D01*
X134513435Y-69422135D01*
X134564811Y-69377618D01*
X134570802Y-69374824D01*
X134693662Y-69317534D01*
X134874620Y-69190826D01*
X135030826Y-69034620D01*
X135157534Y-68853662D01*
X135250894Y-68653450D01*
X135308070Y-68440068D01*
X135327323Y-68220000D01*
X135308070Y-67999932D01*
X135250894Y-67786550D01*
X135157534Y-67586339D01*
X135030826Y-67405380D01*
X134874620Y-67249174D01*
X134874616Y-67249171D01*
X134874615Y-67249170D01*
X134693666Y-67122468D01*
X134693658Y-67122464D01*
X134564811Y-67062382D01*
X134512371Y-67016210D01*
X134493219Y-66949017D01*
X134513435Y-66882135D01*
X134564811Y-66837618D01*
X134570802Y-66834824D01*
X134693662Y-66777534D01*
X134874620Y-66650826D01*
X135030826Y-66494620D01*
X135157534Y-66313662D01*
X135250894Y-66113450D01*
X135308070Y-65900068D01*
X135327323Y-65680000D01*
X135326605Y-65671798D01*
X135320103Y-65597474D01*
X135308070Y-65459932D01*
X135250894Y-65246550D01*
X135157534Y-65046339D01*
X135094180Y-64955859D01*
X135030827Y-64865381D01*
X134969848Y-64804402D01*
X134874620Y-64709174D01*
X134874616Y-64709171D01*
X134874615Y-64709170D01*
X134693666Y-64582468D01*
X134693658Y-64582464D01*
X134564811Y-64522382D01*
X134512371Y-64476210D01*
X134493219Y-64409017D01*
X134513435Y-64342135D01*
X134564811Y-64297618D01*
X134570802Y-64294824D01*
X134693662Y-64237534D01*
X134874620Y-64110826D01*
X135030826Y-63954620D01*
X135157534Y-63773662D01*
X135250894Y-63573450D01*
X135308070Y-63360068D01*
X135327323Y-63140000D01*
X135308070Y-62919932D01*
X135250894Y-62706550D01*
X135157534Y-62506339D01*
X135067878Y-62378296D01*
X135030827Y-62325381D01*
X134996061Y-62290615D01*
X134874620Y-62169174D01*
X134874616Y-62169171D01*
X134874615Y-62169170D01*
X134693666Y-62042468D01*
X134693658Y-62042464D01*
X134564811Y-61982382D01*
X134512371Y-61936210D01*
X134493219Y-61869017D01*
X134513435Y-61802135D01*
X134564811Y-61757618D01*
X134570802Y-61754824D01*
X134693662Y-61697534D01*
X134874620Y-61570826D01*
X135030826Y-61414620D01*
X135157534Y-61233662D01*
X135250894Y-61033450D01*
X135308070Y-60820068D01*
X135327323Y-60600000D01*
X135308070Y-60379932D01*
X135250894Y-60166550D01*
X135157534Y-59966339D01*
X135030826Y-59785380D01*
X134874620Y-59629174D01*
X134874616Y-59629171D01*
X134874615Y-59629170D01*
X134758085Y-59547575D01*
X134714460Y-59492998D01*
X134707266Y-59423500D01*
X134738789Y-59361145D01*
X134799019Y-59325731D01*
X134829208Y-59322000D01*
X134869828Y-59322000D01*
X134869844Y-59321999D01*
X134929372Y-59315598D01*
X134929379Y-59315596D01*
X135064086Y-59265354D01*
X135064093Y-59265350D01*
X135179187Y-59179190D01*
X135179190Y-59179187D01*
X135265350Y-59064093D01*
X135265354Y-59064086D01*
X135315596Y-58929379D01*
X135315598Y-58929372D01*
X135321999Y-58869844D01*
X135322000Y-58869827D01*
X135322000Y-58310000D01*
X134502251Y-58310000D01*
X134533381Y-58256081D01*
X134568000Y-58126880D01*
X134568000Y-57993120D01*
X134533381Y-57863919D01*
X134502251Y-57810000D01*
X135322000Y-57810000D01*
X135322000Y-57250172D01*
X135321999Y-57250155D01*
X135315598Y-57190627D01*
X135315596Y-57190620D01*
X135265354Y-57055913D01*
X135265350Y-57055906D01*
X135179190Y-56940812D01*
X135179187Y-56940809D01*
X135064093Y-56854649D01*
X135064086Y-56854645D01*
X134929379Y-56804403D01*
X134929372Y-56804401D01*
X134869844Y-56798000D01*
X134310000Y-56798000D01*
X134310000Y-57617748D01*
X134256081Y-57586619D01*
X134126880Y-57552000D01*
X133993120Y-57552000D01*
X133863919Y-57586619D01*
X133810000Y-57617748D01*
X133810000Y-56798000D01*
X133250155Y-56798000D01*
X133190627Y-56804401D01*
X133190620Y-56804403D01*
X133055913Y-56854645D01*
X133055906Y-56854649D01*
X132940812Y-56940809D01*
X132940809Y-56940812D01*
X132854649Y-57055906D01*
X132854645Y-57055913D01*
X132804403Y-57190620D01*
X132804401Y-57190627D01*
X132798000Y-57250155D01*
X132798000Y-57810000D01*
X133617749Y-57810000D01*
X133586619Y-57863919D01*
X133552000Y-57993120D01*
X133552000Y-58126880D01*
X133586619Y-58256081D01*
X133617749Y-58310000D01*
X132798000Y-58310000D01*
X132798000Y-58869844D01*
X132804401Y-58929372D01*
X132804403Y-58929379D01*
X132854645Y-59064086D01*
X132854649Y-59064093D01*
X132940809Y-59179187D01*
X132940812Y-59179190D01*
X133055906Y-59265350D01*
X133055913Y-59265354D01*
X133190620Y-59315596D01*
X133190627Y-59315598D01*
X133250155Y-59321999D01*
X133250172Y-59322000D01*
X133290793Y-59322000D01*
X133357832Y-59341685D01*
X133403587Y-59394489D01*
X133413531Y-59463647D01*
X133384506Y-59527203D01*
X133361916Y-59547575D01*
X133245377Y-59629175D01*
X133089175Y-59785377D01*
X132962466Y-59966338D01*
X132962463Y-59966344D01*
X132924898Y-60046904D01*
X132878726Y-60099344D01*
X132812516Y-60118500D01*
X131209385Y-60118500D01*
X131142346Y-60098815D01*
X131121704Y-60082181D01*
X128917819Y-57878296D01*
X128884334Y-57816973D01*
X128881500Y-57790615D01*
X128881500Y-57724380D01*
X128901185Y-57657341D01*
X128953989Y-57611586D01*
X128996896Y-57601102D01*
X128996868Y-57600820D01*
X128998901Y-57600612D01*
X128999197Y-57600540D01*
X128999998Y-57600499D01*
X129000008Y-57600499D01*
X129102797Y-57589999D01*
X129269334Y-57534814D01*
X129418656Y-57442712D01*
X129542712Y-57318656D01*
X129634814Y-57169334D01*
X129689999Y-57002797D01*
X129700500Y-56900009D01*
X129700499Y-56099992D01*
X129698083Y-56076344D01*
X129689999Y-55997203D01*
X129689998Y-55997200D01*
X129657792Y-55900009D01*
X129634814Y-55830666D01*
X129542712Y-55681344D01*
X129449049Y-55587681D01*
X129415564Y-55526358D01*
X129420548Y-55456666D01*
X129449049Y-55412319D01*
X129495403Y-55365965D01*
X129542712Y-55318656D01*
X129634814Y-55169334D01*
X129689999Y-55002797D01*
X129700500Y-54900009D01*
X129700499Y-54099992D01*
X129689999Y-53997203D01*
X129634814Y-53830666D01*
X129542712Y-53681344D01*
X129418656Y-53557288D01*
X129408975Y-53551317D01*
X133257966Y-53551317D01*
X133257966Y-53551322D01*
X133277048Y-53903274D01*
X133303697Y-54065826D01*
X133333890Y-54250000D01*
X133334073Y-54251113D01*
X133334074Y-54251116D01*
X133428366Y-54590728D01*
X133428367Y-54590730D01*
X133558828Y-54918164D01*
X133558837Y-54918182D01*
X133693296Y-55171798D01*
X133723935Y-55229589D01*
X133919502Y-55518029D01*
X133921738Y-55521326D01*
X133921745Y-55521336D01*
X134013966Y-55629906D01*
X134149926Y-55789970D01*
X134405820Y-56032366D01*
X134686422Y-56245674D01*
X134988442Y-56427394D01*
X134988446Y-56427395D01*
X134988450Y-56427398D01*
X135308328Y-56575390D01*
X135308332Y-56575390D01*
X135308339Y-56575394D01*
X135642362Y-56687939D01*
X135986595Y-56763711D01*
X136337003Y-56801820D01*
X136337009Y-56801820D01*
X136689471Y-56801820D01*
X136689477Y-56801820D01*
X137039885Y-56763711D01*
X137384118Y-56687939D01*
X137718141Y-56575394D01*
X137718148Y-56575390D01*
X137718151Y-56575390D01*
X137971716Y-56458077D01*
X138038038Y-56427394D01*
X138340058Y-56245674D01*
X138620660Y-56032366D01*
X138876554Y-55789970D01*
X139104741Y-55521328D01*
X139302545Y-55229589D01*
X139467647Y-54918174D01*
X139598111Y-54590734D01*
X139692408Y-54251108D01*
X139749431Y-53903277D01*
X139768190Y-53557289D01*
X139768514Y-53551322D01*
X139768514Y-53551317D01*
X139749431Y-53199365D01*
X139749431Y-53199363D01*
X139692408Y-52851532D01*
X139610712Y-52557289D01*
X139598113Y-52511911D01*
X139598112Y-52511909D01*
X139467651Y-52184475D01*
X139467642Y-52184457D01*
X139302544Y-51873050D01*
X139104741Y-51581312D01*
X139104737Y-51581307D01*
X139104734Y-51581303D01*
X138876554Y-51312670D01*
X138620660Y-51070274D01*
X138620653Y-51070268D01*
X138620650Y-51070266D01*
X138340055Y-50856964D01*
X138038042Y-50675248D01*
X138038029Y-50675241D01*
X137718151Y-50527249D01*
X137718146Y-50527248D01*
X137718143Y-50527247D01*
X137718141Y-50527246D01*
X137611672Y-50491372D01*
X137384120Y-50414701D01*
X137039883Y-50338928D01*
X136689478Y-50300820D01*
X136689477Y-50300820D01*
X136337003Y-50300820D01*
X136337001Y-50300820D01*
X135986596Y-50338928D01*
X135642359Y-50414701D01*
X135308333Y-50527248D01*
X135308328Y-50527249D01*
X134988450Y-50675241D01*
X134988437Y-50675248D01*
X134686424Y-50856964D01*
X134405829Y-51070266D01*
X134405820Y-51070274D01*
X134149925Y-51312670D01*
X133921745Y-51581303D01*
X133921738Y-51581313D01*
X133723935Y-51873050D01*
X133558837Y-52184457D01*
X133558828Y-52184475D01*
X133428367Y-52511909D01*
X133428366Y-52511911D01*
X133334074Y-52851523D01*
X133334073Y-52851526D01*
X133277048Y-53199365D01*
X133257966Y-53551317D01*
X129408975Y-53551317D01*
X129319407Y-53496071D01*
X129272684Y-53444124D01*
X129261285Y-53404415D01*
X129252699Y-53328204D01*
X129195597Y-53165016D01*
X129103617Y-53018632D01*
X128981367Y-52896382D01*
X128834983Y-52804402D01*
X128671795Y-52747301D01*
X128500004Y-52727945D01*
X128499996Y-52727945D01*
X128328204Y-52747301D01*
X128165016Y-52804402D01*
X128018632Y-52896382D01*
X127896382Y-53018632D01*
X127804402Y-53165016D01*
X127747301Y-53328203D01*
X127747300Y-53328206D01*
X127738714Y-53404417D01*
X127711648Y-53468830D01*
X127680591Y-53496071D01*
X127581347Y-53557285D01*
X127581343Y-53557288D01*
X127457289Y-53681342D01*
X127365187Y-53830663D01*
X127365186Y-53830666D01*
X127310001Y-53997203D01*
X127310001Y-53997204D01*
X127310000Y-53997204D01*
X127299500Y-54099983D01*
X127299500Y-54900001D01*
X127299501Y-54900019D01*
X127310000Y-55002796D01*
X127310001Y-55002799D01*
X127339588Y-55092086D01*
X127365186Y-55169334D01*
X127441679Y-55293350D01*
X127457289Y-55318657D01*
X127550951Y-55412319D01*
X127584436Y-55473642D01*
X127579452Y-55543334D01*
X127550951Y-55587681D01*
X127457289Y-55681342D01*
X127365187Y-55830663D01*
X127365186Y-55830666D01*
X127310001Y-55997203D01*
X127310001Y-55997204D01*
X127310000Y-55997204D01*
X127299500Y-56099983D01*
X127299500Y-56900001D01*
X127299501Y-56900019D01*
X127310000Y-57002796D01*
X127310001Y-57002799D01*
X127365185Y-57169331D01*
X127365187Y-57169336D01*
X127395098Y-57217830D01*
X127457288Y-57318656D01*
X127581344Y-57442712D01*
X127730666Y-57534814D01*
X127897203Y-57589999D01*
X127999991Y-57600500D01*
X128000004Y-57600499D01*
X128000800Y-57600541D01*
X128000968Y-57600599D01*
X128003132Y-57600821D01*
X128003079Y-57601338D01*
X128066752Y-57623606D01*
X128109766Y-57678666D01*
X128118500Y-57724380D01*
X128118500Y-58050225D01*
X128139040Y-58126880D01*
X128144500Y-58147258D01*
X128144501Y-58147259D01*
X128171121Y-58193365D01*
X128171121Y-58193368D01*
X128171123Y-58193368D01*
X128194724Y-58234247D01*
X130765753Y-60805276D01*
X130852747Y-60855502D01*
X130949775Y-60881500D01*
X131050225Y-60881500D01*
X132733242Y-60881500D01*
X132800281Y-60901185D01*
X132846036Y-60953989D01*
X132853017Y-60973406D01*
X132869104Y-61033444D01*
X132869105Y-61033446D01*
X132869106Y-61033450D01*
X132900372Y-61100500D01*
X132962466Y-61233662D01*
X132962468Y-61233666D01*
X133089170Y-61414615D01*
X133089175Y-61414621D01*
X133245378Y-61570824D01*
X133245384Y-61570829D01*
X133426333Y-61697531D01*
X133426335Y-61697532D01*
X133426338Y-61697534D01*
X133545748Y-61753215D01*
X133555189Y-61757618D01*
X133607628Y-61803790D01*
X133626780Y-61870984D01*
X133606564Y-61937865D01*
X133555189Y-61982382D01*
X133426340Y-62042465D01*
X133426338Y-62042466D01*
X133245377Y-62169175D01*
X133089175Y-62325377D01*
X132962466Y-62506338D01*
X132962465Y-62506340D01*
X132869107Y-62706548D01*
X132869104Y-62706554D01*
X132811930Y-62919929D01*
X132811929Y-62919937D01*
X132792677Y-63139997D01*
X132792677Y-63140002D01*
X132811929Y-63360062D01*
X132811930Y-63360070D01*
X132869104Y-63573445D01*
X132869105Y-63573447D01*
X132869106Y-63573450D01*
X132962464Y-63773658D01*
X132962466Y-63773662D01*
X132962468Y-63773666D01*
X133089170Y-63954615D01*
X133089175Y-63954621D01*
X133245378Y-64110824D01*
X133245384Y-64110829D01*
X133426333Y-64237531D01*
X133426335Y-64237532D01*
X133426338Y-64237534D01*
X133545748Y-64293215D01*
X133555189Y-64297618D01*
X133607628Y-64343790D01*
X133626780Y-64410984D01*
X133606564Y-64477865D01*
X133555189Y-64522382D01*
X133426340Y-64582465D01*
X133426338Y-64582466D01*
X133245377Y-64709175D01*
X133089175Y-64865377D01*
X132962466Y-65046338D01*
X132962465Y-65046340D01*
X132869107Y-65246548D01*
X132869104Y-65246554D01*
X132811930Y-65459929D01*
X132811929Y-65459937D01*
X132792677Y-65679997D01*
X132792677Y-65680002D01*
X132811929Y-65900062D01*
X132811930Y-65900070D01*
X132869104Y-66113445D01*
X132869105Y-66113447D01*
X132869106Y-66113450D01*
X132928833Y-66241535D01*
X132962466Y-66313662D01*
X132962468Y-66313666D01*
X133089170Y-66494615D01*
X133089175Y-66494621D01*
X133245378Y-66650824D01*
X133245384Y-66650829D01*
X133426333Y-66777531D01*
X133426335Y-66777532D01*
X133426338Y-66777534D01*
X133545748Y-66833215D01*
X133555189Y-66837618D01*
X133607628Y-66883790D01*
X133626780Y-66950984D01*
X133606564Y-67017865D01*
X133555189Y-67062382D01*
X133426340Y-67122465D01*
X133426338Y-67122466D01*
X133245377Y-67249175D01*
X133089175Y-67405377D01*
X132962466Y-67586338D01*
X132962465Y-67586340D01*
X132869107Y-67786548D01*
X132869104Y-67786554D01*
X132811930Y-67999929D01*
X132811929Y-67999937D01*
X132792677Y-68219997D01*
X132792677Y-68220002D01*
X132811929Y-68440062D01*
X132811930Y-68440070D01*
X132869104Y-68653445D01*
X132869105Y-68653447D01*
X132869106Y-68653450D01*
X132905210Y-68730875D01*
X132962466Y-68853662D01*
X132962468Y-68853666D01*
X133089170Y-69034615D01*
X133089175Y-69034621D01*
X133245378Y-69190824D01*
X133245384Y-69190829D01*
X133426333Y-69317531D01*
X133426335Y-69317532D01*
X133426338Y-69317534D01*
X133545748Y-69373215D01*
X133555189Y-69377618D01*
X133607628Y-69423790D01*
X133626780Y-69490984D01*
X133606564Y-69557865D01*
X133555189Y-69602382D01*
X133426340Y-69662465D01*
X133426338Y-69662466D01*
X133245377Y-69789175D01*
X133089175Y-69945377D01*
X132962466Y-70126338D01*
X132962465Y-70126340D01*
X132869107Y-70326548D01*
X132869104Y-70326554D01*
X132811930Y-70539929D01*
X132811929Y-70539937D01*
X132792677Y-70759997D01*
X132792677Y-70760002D01*
X132811929Y-70980062D01*
X132811930Y-70980070D01*
X132869104Y-71193445D01*
X132869105Y-71193447D01*
X132869106Y-71193450D01*
X132962466Y-71393662D01*
X132962468Y-71393666D01*
X133089170Y-71574615D01*
X133089175Y-71574621D01*
X133245378Y-71730824D01*
X133245384Y-71730829D01*
X133426333Y-71857531D01*
X133426335Y-71857532D01*
X133426338Y-71857534D01*
X133545748Y-71913215D01*
X133555189Y-71917618D01*
X133607628Y-71963790D01*
X133626780Y-72030984D01*
X133606564Y-72097865D01*
X133555189Y-72142382D01*
X133426340Y-72202465D01*
X133426338Y-72202466D01*
X133245377Y-72329175D01*
X133089175Y-72485377D01*
X132962466Y-72666338D01*
X132962465Y-72666340D01*
X132869107Y-72866548D01*
X132869104Y-72866554D01*
X132811930Y-73079929D01*
X132811929Y-73079937D01*
X132792677Y-73299997D01*
X132792677Y-73300002D01*
X132811929Y-73520062D01*
X132811930Y-73520070D01*
X132869104Y-73733445D01*
X132869105Y-73733447D01*
X132869106Y-73733450D01*
X132962466Y-73933662D01*
X132962468Y-73933666D01*
X133089170Y-74114615D01*
X133089175Y-74114621D01*
X133245378Y-74270824D01*
X133245384Y-74270829D01*
X133426333Y-74397531D01*
X133426335Y-74397532D01*
X133426338Y-74397534D01*
X133545748Y-74453215D01*
X133555189Y-74457618D01*
X133607628Y-74503790D01*
X133626780Y-74570984D01*
X133606564Y-74637865D01*
X133555189Y-74682382D01*
X133426340Y-74742465D01*
X133426338Y-74742466D01*
X133245377Y-74869175D01*
X133089175Y-75025377D01*
X132962466Y-75206338D01*
X132962465Y-75206340D01*
X132869107Y-75406548D01*
X132869104Y-75406554D01*
X132811930Y-75619929D01*
X132811929Y-75619937D01*
X132792677Y-75839997D01*
X132792677Y-75840002D01*
X132811929Y-76060062D01*
X132811930Y-76060070D01*
X132869104Y-76273445D01*
X132869105Y-76273447D01*
X132869106Y-76273450D01*
X132930925Y-76406021D01*
X132962466Y-76473662D01*
X132962468Y-76473666D01*
X133089170Y-76654615D01*
X133089175Y-76654621D01*
X133245378Y-76810824D01*
X133245384Y-76810829D01*
X133426333Y-76937531D01*
X133426335Y-76937532D01*
X133426338Y-76937534D01*
X133499818Y-76971798D01*
X133555189Y-76997618D01*
X133607628Y-77043790D01*
X133626780Y-77110984D01*
X133606564Y-77177865D01*
X133555189Y-77222382D01*
X133426340Y-77282465D01*
X133426338Y-77282466D01*
X133245377Y-77409175D01*
X133089175Y-77565377D01*
X132962466Y-77746338D01*
X132962465Y-77746340D01*
X132869107Y-77946548D01*
X132869104Y-77946554D01*
X132811930Y-78159929D01*
X132811929Y-78159937D01*
X132792677Y-78379997D01*
X132792677Y-78380002D01*
X132811929Y-78600062D01*
X132811930Y-78600070D01*
X132869104Y-78813445D01*
X132869105Y-78813447D01*
X132869106Y-78813450D01*
X132932675Y-78949775D01*
X132962466Y-79013662D01*
X132962468Y-79013666D01*
X133089170Y-79194615D01*
X133089175Y-79194621D01*
X133245378Y-79350824D01*
X133245384Y-79350829D01*
X133426333Y-79477531D01*
X133426335Y-79477532D01*
X133426338Y-79477534D01*
X133545748Y-79533215D01*
X133555189Y-79537618D01*
X133607628Y-79583790D01*
X133626780Y-79650984D01*
X133606564Y-79717865D01*
X133555189Y-79762382D01*
X133426340Y-79822465D01*
X133426338Y-79822466D01*
X133245377Y-79949175D01*
X133089175Y-80105377D01*
X132962466Y-80286338D01*
X132962465Y-80286340D01*
X132869107Y-80486548D01*
X132869104Y-80486554D01*
X132811930Y-80699929D01*
X132811929Y-80699937D01*
X132792677Y-80919997D01*
X132792677Y-80920002D01*
X132811929Y-81140062D01*
X132811930Y-81140070D01*
X132869104Y-81353445D01*
X132869105Y-81353447D01*
X132869106Y-81353450D01*
X132962466Y-81553662D01*
X132962468Y-81553666D01*
X133089170Y-81734615D01*
X133089175Y-81734621D01*
X133245378Y-81890824D01*
X133245384Y-81890829D01*
X133426333Y-82017531D01*
X133426335Y-82017532D01*
X133426338Y-82017534D01*
X133545748Y-82073215D01*
X133555189Y-82077618D01*
X133607628Y-82123790D01*
X133626780Y-82190984D01*
X133606564Y-82257865D01*
X133555189Y-82302382D01*
X133426340Y-82362465D01*
X133426338Y-82362466D01*
X133245377Y-82489175D01*
X133089175Y-82645377D01*
X132962466Y-82826338D01*
X132962465Y-82826340D01*
X132869107Y-83026548D01*
X132869106Y-83026550D01*
X132811930Y-83239929D01*
X132811929Y-83239937D01*
X132792677Y-83459997D01*
X132792677Y-83460002D01*
X132811929Y-83680062D01*
X132811930Y-83680070D01*
X132869104Y-83893445D01*
X132869105Y-83893447D01*
X132869106Y-83893450D01*
X132922142Y-84007187D01*
X132962466Y-84093662D01*
X132962468Y-84093666D01*
X133089170Y-84274615D01*
X133089175Y-84274621D01*
X133245378Y-84430824D01*
X133245384Y-84430829D01*
X133426333Y-84557531D01*
X133426335Y-84557532D01*
X133426338Y-84557534D01*
X133545748Y-84613215D01*
X133555189Y-84617618D01*
X133607628Y-84663790D01*
X133626780Y-84730984D01*
X133606564Y-84797865D01*
X133555189Y-84842382D01*
X133426340Y-84902465D01*
X133426338Y-84902466D01*
X133245377Y-85029175D01*
X133089175Y-85185377D01*
X132962466Y-85366338D01*
X132962465Y-85366340D01*
X132959538Y-85372618D01*
X132894435Y-85512233D01*
X132878267Y-85546905D01*
X132832095Y-85599344D01*
X132765885Y-85618500D01*
X132557837Y-85618500D01*
X132557821Y-85618499D01*
X132550225Y-85618499D01*
X132449775Y-85618499D01*
X132352747Y-85644498D01*
X132352745Y-85644498D01*
X132352745Y-85644499D01*
X132265753Y-85694724D01*
X132265750Y-85694726D01*
X131878296Y-86082181D01*
X131816973Y-86115666D01*
X131790615Y-86118500D01*
X131251277Y-86118500D01*
X131184238Y-86098815D01*
X131138483Y-86046011D01*
X131132892Y-86031390D01*
X131082766Y-85870530D01*
X131082765Y-85870529D01*
X131082765Y-85870527D01*
X130993660Y-85723130D01*
X130993658Y-85723128D01*
X130993657Y-85723126D01*
X130871873Y-85601342D01*
X130814327Y-85566554D01*
X130724473Y-85512235D01*
X130724471Y-85512234D01*
X130724469Y-85512233D01*
X130724470Y-85512233D01*
X130560035Y-85460994D01*
X130560037Y-85460994D01*
X130494277Y-85455018D01*
X130429294Y-85429347D01*
X130388506Y-85372618D01*
X130381500Y-85331527D01*
X130381500Y-79814368D01*
X130401185Y-79747329D01*
X130453989Y-79701574D01*
X130492898Y-79691010D01*
X130502797Y-79689999D01*
X130669334Y-79634814D01*
X130818656Y-79542712D01*
X130942712Y-79418656D01*
X131034814Y-79269334D01*
X131089999Y-79102797D01*
X131100500Y-79000009D01*
X131100499Y-77999992D01*
X131099555Y-77990755D01*
X131089999Y-77897203D01*
X131089998Y-77897200D01*
X131073654Y-77847878D01*
X131034814Y-77730666D01*
X130942712Y-77581344D01*
X130818656Y-77457288D01*
X130669334Y-77365186D01*
X130502797Y-77310001D01*
X130502793Y-77310000D01*
X130502787Y-77309999D01*
X130492893Y-77308988D01*
X130428202Y-77282590D01*
X130388053Y-77225408D01*
X130381500Y-77185631D01*
X130381500Y-71949777D01*
X130381500Y-71949775D01*
X130355502Y-71852747D01*
X130305276Y-71765753D01*
X128636506Y-70096983D01*
X128603021Y-70035660D01*
X128600348Y-70002985D01*
X128600497Y-70000032D01*
X128600500Y-70000009D01*
X128600499Y-68999992D01*
X128589999Y-68897203D01*
X128534814Y-68730666D01*
X128442712Y-68581344D01*
X128318656Y-68457288D01*
X128169334Y-68365186D01*
X128002797Y-68310001D01*
X128002795Y-68310000D01*
X127900010Y-68299500D01*
X127099998Y-68299500D01*
X127099980Y-68299501D01*
X126997203Y-68310000D01*
X126997200Y-68310001D01*
X126830668Y-68365185D01*
X126830663Y-68365187D01*
X126681342Y-68457289D01*
X126587681Y-68550951D01*
X126526358Y-68584436D01*
X126456666Y-68579452D01*
X126412319Y-68550951D01*
X126318657Y-68457289D01*
X126318656Y-68457288D01*
X126169334Y-68365186D01*
X126002797Y-68310001D01*
X126002795Y-68310000D01*
X125900010Y-68299500D01*
X125099998Y-68299500D01*
X125099980Y-68299501D01*
X124997203Y-68310000D01*
X124997200Y-68310001D01*
X124830668Y-68365185D01*
X124830663Y-68365187D01*
X124681342Y-68457289D01*
X124557289Y-68581342D01*
X124465187Y-68730663D01*
X124465185Y-68730668D01*
X124465115Y-68730880D01*
X124410001Y-68897203D01*
X124410001Y-68897204D01*
X124410000Y-68897204D01*
X124399500Y-68999985D01*
X124399459Y-69000800D01*
X124399400Y-69000968D01*
X124399179Y-69003132D01*
X124398661Y-69003079D01*
X124376394Y-69066752D01*
X124321334Y-69109766D01*
X124275619Y-69118500D01*
X123224380Y-69118500D01*
X123157341Y-69098815D01*
X123111586Y-69046011D01*
X123101102Y-69003103D01*
X123100820Y-69003132D01*
X123100612Y-69001098D01*
X123100540Y-69000803D01*
X123100498Y-68999981D01*
X123089999Y-68897203D01*
X123089998Y-68897200D01*
X123075571Y-68853662D01*
X123034814Y-68730666D01*
X122942712Y-68581344D01*
X122818656Y-68457288D01*
X122669334Y-68365186D01*
X122502797Y-68310001D01*
X122502795Y-68310000D01*
X122400010Y-68299500D01*
X121649998Y-68299500D01*
X121649980Y-68299501D01*
X121547203Y-68310000D01*
X121547200Y-68310001D01*
X121380668Y-68365185D01*
X121380663Y-68365187D01*
X121231342Y-68457289D01*
X121107288Y-68581343D01*
X121107283Y-68581349D01*
X121105241Y-68584661D01*
X121103247Y-68586453D01*
X121102807Y-68587011D01*
X121102711Y-68586935D01*
X121053291Y-68631383D01*
X120984328Y-68642602D01*
X120920247Y-68614755D01*
X120894168Y-68584656D01*
X120892319Y-68581659D01*
X120892316Y-68581655D01*
X120768345Y-68457684D01*
X120619124Y-68365643D01*
X120619119Y-68365641D01*
X120452697Y-68310494D01*
X120452690Y-68310493D01*
X120349986Y-68300000D01*
X120225000Y-68300000D01*
X120225000Y-70699999D01*
X120349972Y-70699999D01*
X120349986Y-70699998D01*
X120452697Y-70689505D01*
X120619119Y-70634358D01*
X120619124Y-70634356D01*
X120768345Y-70542315D01*
X120892318Y-70418342D01*
X120894165Y-70415348D01*
X120895969Y-70413724D01*
X120896798Y-70412677D01*
X120896976Y-70412818D01*
X120946110Y-70368621D01*
X121015073Y-70357396D01*
X121079156Y-70385236D01*
X121105243Y-70415341D01*
X121107288Y-70418656D01*
X121231344Y-70542712D01*
X121380666Y-70634814D01*
X121547203Y-70689999D01*
X121649991Y-70700500D01*
X122400008Y-70700499D01*
X122400016Y-70700498D01*
X122400019Y-70700498D01*
X122456302Y-70694748D01*
X122502797Y-70689999D01*
X122669334Y-70634814D01*
X122818656Y-70542712D01*
X122942712Y-70418656D01*
X123034814Y-70269334D01*
X123089999Y-70102797D01*
X123100500Y-70000009D01*
X123100500Y-69999986D01*
X123100541Y-69999200D01*
X123100599Y-69999031D01*
X123100821Y-69996868D01*
X123101338Y-69996920D01*
X123123606Y-69933248D01*
X123178666Y-69890234D01*
X123224381Y-69881500D01*
X124275620Y-69881500D01*
X124342659Y-69901185D01*
X124388414Y-69953989D01*
X124398897Y-69996896D01*
X124399180Y-69996868D01*
X124399387Y-69998901D01*
X124399460Y-69999197D01*
X124399501Y-70000018D01*
X124410000Y-70102796D01*
X124410001Y-70102799D01*
X124417802Y-70126340D01*
X124465186Y-70269334D01*
X124557288Y-70418656D01*
X124681344Y-70542712D01*
X124830666Y-70634814D01*
X124997203Y-70689999D01*
X125099991Y-70700500D01*
X125900008Y-70700499D01*
X125900016Y-70700498D01*
X125900019Y-70700498D01*
X125956302Y-70694748D01*
X126002797Y-70689999D01*
X126169334Y-70634814D01*
X126318656Y-70542712D01*
X126412319Y-70449049D01*
X126473642Y-70415564D01*
X126543334Y-70420548D01*
X126587681Y-70449049D01*
X126681344Y-70542712D01*
X126830666Y-70634814D01*
X126997203Y-70689999D01*
X127099991Y-70700500D01*
X127900008Y-70700499D01*
X127900016Y-70700498D01*
X127900019Y-70700498D01*
X127923896Y-70698058D01*
X128002797Y-70689999D01*
X128041116Y-70677301D01*
X128110944Y-70674898D01*
X128167802Y-70707325D01*
X129582181Y-72121704D01*
X129615666Y-72183027D01*
X129618500Y-72209385D01*
X129618500Y-77185631D01*
X129598815Y-77252670D01*
X129546011Y-77298425D01*
X129507108Y-77308988D01*
X129497209Y-77309999D01*
X129497200Y-77310001D01*
X129330668Y-77365185D01*
X129330663Y-77365187D01*
X129181342Y-77457289D01*
X129087681Y-77550951D01*
X129026358Y-77584436D01*
X128956666Y-77579452D01*
X128912319Y-77550951D01*
X128818657Y-77457289D01*
X128818656Y-77457288D01*
X128669334Y-77365186D01*
X128502797Y-77310001D01*
X128502795Y-77310000D01*
X128400010Y-77299500D01*
X127599998Y-77299500D01*
X127599980Y-77299501D01*
X127497203Y-77310000D01*
X127497200Y-77310001D01*
X127330668Y-77365185D01*
X127330663Y-77365187D01*
X127181342Y-77457289D01*
X127057289Y-77581342D01*
X126965184Y-77730668D01*
X126955960Y-77758506D01*
X126916187Y-77815950D01*
X126851671Y-77842772D01*
X126838255Y-77843500D01*
X126300000Y-77843500D01*
X126232961Y-77823815D01*
X126187206Y-77771011D01*
X126176000Y-77719500D01*
X126175999Y-77302129D01*
X126175998Y-77302123D01*
X126175716Y-77299501D01*
X126169591Y-77242517D01*
X126145477Y-77177865D01*
X126119297Y-77107671D01*
X126119293Y-77107664D01*
X126033047Y-76992455D01*
X126033044Y-76992452D01*
X125917835Y-76906206D01*
X125917828Y-76906202D01*
X125782983Y-76855908D01*
X125723910Y-76849557D01*
X125659359Y-76822818D01*
X125619512Y-76765425D01*
X125617019Y-76695600D01*
X125649484Y-76638589D01*
X125763865Y-76524208D01*
X125825186Y-76490725D01*
X125894878Y-76495709D01*
X125939225Y-76524210D01*
X126018632Y-76603617D01*
X126057758Y-76628202D01*
X126165018Y-76695598D01*
X126328202Y-76752698D01*
X126385468Y-76759150D01*
X126499996Y-76772055D01*
X126500000Y-76772055D01*
X126500004Y-76772055D01*
X126598170Y-76760993D01*
X126671798Y-76752698D01*
X126834982Y-76695598D01*
X126981368Y-76603617D01*
X127103617Y-76481368D01*
X127195598Y-76334982D01*
X127252698Y-76171798D01*
X127266725Y-76047302D01*
X127272055Y-76000003D01*
X127272055Y-75999996D01*
X127257667Y-75872300D01*
X127252698Y-75828202D01*
X127195598Y-75665018D01*
X127167268Y-75619932D01*
X127103617Y-75518632D01*
X126981367Y-75396382D01*
X126834983Y-75304402D01*
X126671795Y-75247301D01*
X126500004Y-75227945D01*
X126499996Y-75227945D01*
X126328204Y-75247301D01*
X126165016Y-75304402D01*
X126018632Y-75396382D01*
X125896382Y-75518632D01*
X125804402Y-75665016D01*
X125747301Y-75828203D01*
X125747300Y-75828206D01*
X125734836Y-75938829D01*
X125707769Y-76003243D01*
X125699297Y-76012626D01*
X124898742Y-76813181D01*
X124837419Y-76846666D01*
X124811061Y-76849500D01*
X124152629Y-76849500D01*
X124152623Y-76849501D01*
X124093016Y-76855908D01*
X123958171Y-76906202D01*
X123958164Y-76906206D01*
X123842955Y-76992452D01*
X123842952Y-76992455D01*
X123756706Y-77107664D01*
X123756702Y-77107671D01*
X123712790Y-77225408D01*
X123706409Y-77242517D01*
X123700000Y-77302127D01*
X123700000Y-77302134D01*
X123700000Y-77302135D01*
X123700000Y-77847869D01*
X123700001Y-77847878D01*
X123704179Y-77886745D01*
X123704179Y-77913250D01*
X123700000Y-77952122D01*
X123700000Y-78497869D01*
X123700001Y-78497878D01*
X123704179Y-78536745D01*
X123704179Y-78563250D01*
X123700000Y-78602122D01*
X123700000Y-79147869D01*
X123700001Y-79147878D01*
X123704179Y-79186745D01*
X123704179Y-79213250D01*
X123700000Y-79252122D01*
X123700000Y-79797869D01*
X123700001Y-79797878D01*
X123704179Y-79836745D01*
X123704179Y-79863250D01*
X123700000Y-79902122D01*
X123700000Y-80447869D01*
X123700001Y-80447878D01*
X123704179Y-80486745D01*
X123704179Y-80513250D01*
X123700000Y-80552122D01*
X123700000Y-81097869D01*
X123700001Y-81097878D01*
X123704179Y-81136745D01*
X123704179Y-81163250D01*
X123700000Y-81202122D01*
X123700000Y-81747869D01*
X123700001Y-81747878D01*
X123704179Y-81786745D01*
X123704179Y-81813250D01*
X123700000Y-81852122D01*
X123700000Y-82397869D01*
X123700001Y-82397878D01*
X123704179Y-82436745D01*
X123704179Y-82463250D01*
X123700000Y-82502122D01*
X123700000Y-83047869D01*
X123700001Y-83047880D01*
X123704431Y-83089093D01*
X123704431Y-83115596D01*
X123700500Y-83152165D01*
X123700500Y-83200000D01*
X123716111Y-83215611D01*
X123729984Y-83219685D01*
X123762211Y-83249688D01*
X123842955Y-83357547D01*
X123935376Y-83426734D01*
X123977247Y-83482668D01*
X123982231Y-83552359D01*
X123948745Y-83613682D01*
X123887422Y-83647166D01*
X123861065Y-83650000D01*
X123700500Y-83650000D01*
X123700500Y-83697844D01*
X123706901Y-83757372D01*
X123706903Y-83757379D01*
X123757145Y-83892086D01*
X123757149Y-83892093D01*
X123843309Y-84007187D01*
X123843312Y-84007190D01*
X123958406Y-84093350D01*
X123958413Y-84093354D01*
X124093120Y-84143596D01*
X124093127Y-84143598D01*
X124152655Y-84149999D01*
X124152672Y-84150000D01*
X124713000Y-84150000D01*
X124713000Y-83624499D01*
X124732685Y-83557460D01*
X124785489Y-83511705D01*
X124836997Y-83500499D01*
X125039001Y-83500499D01*
X125106039Y-83520184D01*
X125151794Y-83572988D01*
X125163000Y-83624499D01*
X125163000Y-84150000D01*
X125723328Y-84150000D01*
X125723344Y-84149999D01*
X125782872Y-84143598D01*
X125782879Y-84143596D01*
X125917586Y-84093354D01*
X125917593Y-84093350D01*
X126032687Y-84007190D01*
X126032690Y-84007187D01*
X126118850Y-83892093D01*
X126118854Y-83892086D01*
X126169096Y-83757379D01*
X126169098Y-83757372D01*
X126175499Y-83697844D01*
X126175500Y-83697827D01*
X126175500Y-83650000D01*
X126014935Y-83650000D01*
X125947896Y-83630315D01*
X125902141Y-83577511D01*
X125892197Y-83508353D01*
X125921222Y-83444797D01*
X125940624Y-83426734D01*
X125998932Y-83383083D01*
X126033046Y-83357546D01*
X126113789Y-83249688D01*
X126161605Y-83213894D01*
X126175500Y-83200000D01*
X126175500Y-83152182D01*
X126175499Y-83152164D01*
X126171568Y-83115602D01*
X126171568Y-83089093D01*
X126176000Y-83047873D01*
X126175999Y-82502128D01*
X126175999Y-82502127D01*
X126175998Y-82502111D01*
X126171820Y-82463253D01*
X126171820Y-82436745D01*
X126176000Y-82397873D01*
X126175999Y-81852128D01*
X126175999Y-81852127D01*
X126175998Y-81852111D01*
X126171820Y-81813253D01*
X126171820Y-81786745D01*
X126176000Y-81747873D01*
X126175999Y-81202128D01*
X126175999Y-81202127D01*
X126175998Y-81202111D01*
X126171820Y-81163253D01*
X126171820Y-81136745D01*
X126176000Y-81097873D01*
X126175999Y-80552128D01*
X126175999Y-80552127D01*
X126175998Y-80552111D01*
X126171820Y-80513253D01*
X126171820Y-80486745D01*
X126176000Y-80447873D01*
X126175999Y-79902128D01*
X126175999Y-79902127D01*
X126175998Y-79902111D01*
X126171820Y-79863253D01*
X126171820Y-79836745D01*
X126176000Y-79797873D01*
X126175999Y-79252128D01*
X126175999Y-79252127D01*
X126175998Y-79252111D01*
X126171820Y-79213253D01*
X126171820Y-79186745D01*
X126176000Y-79147873D01*
X126175999Y-78730499D01*
X126195683Y-78663461D01*
X126248487Y-78617706D01*
X126299999Y-78606500D01*
X126775501Y-78606500D01*
X126842540Y-78626185D01*
X126888295Y-78678989D01*
X126899501Y-78730500D01*
X126899501Y-79000018D01*
X126910000Y-79102796D01*
X126910001Y-79102799D01*
X126951471Y-79227945D01*
X126965186Y-79269334D01*
X127057288Y-79418656D01*
X127181344Y-79542712D01*
X127330666Y-79634814D01*
X127497203Y-79689999D01*
X127507100Y-79691010D01*
X127571792Y-79717404D01*
X127611945Y-79774584D01*
X127618500Y-79814368D01*
X127618500Y-85290615D01*
X127598815Y-85357654D01*
X127582181Y-85378296D01*
X126878296Y-86082181D01*
X126816973Y-86115666D01*
X126790615Y-86118500D01*
X121949775Y-86118500D01*
X121877003Y-86137999D01*
X121852745Y-86144499D01*
X121765754Y-86194723D01*
X121765751Y-86194725D01*
X118322225Y-89638251D01*
X118322224Y-89638253D01*
X118271999Y-89725246D01*
X118246890Y-89818954D01*
X118210524Y-89878614D01*
X118164006Y-89905244D01*
X118125530Y-89917233D01*
X118063666Y-89954631D01*
X117996111Y-89972466D01*
X117935368Y-89954630D01*
X117874268Y-89917694D01*
X117874264Y-89917692D01*
X117709944Y-89866489D01*
X117709946Y-89866489D01*
X117638535Y-89860000D01*
X117622500Y-89860000D01*
X117622500Y-92140000D01*
X117638535Y-92140000D01*
X117709945Y-92133510D01*
X117874263Y-92082307D01*
X117935367Y-92045369D01*
X118002921Y-92027533D01*
X118063666Y-92045368D01*
X118125527Y-92082765D01*
X118158889Y-92093160D01*
X118217037Y-92131897D01*
X118245012Y-92195921D01*
X118246000Y-92211546D01*
X118246000Y-97748722D01*
X118226315Y-97815761D01*
X118173511Y-97861516D01*
X118158891Y-97867107D01*
X117998030Y-97917233D01*
X117936166Y-97954631D01*
X117868611Y-97972466D01*
X117807868Y-97954630D01*
X117746768Y-97917694D01*
X117746764Y-97917692D01*
X117582444Y-97866489D01*
X117582446Y-97866489D01*
X117511035Y-97860000D01*
X117495000Y-97860000D01*
X116995000Y-97860000D01*
X116978965Y-97860000D01*
X116907554Y-97866489D01*
X116743235Y-97917692D01*
X116595936Y-98006738D01*
X116474238Y-98128436D01*
X116385192Y-98275735D01*
X116333989Y-98440054D01*
X116327500Y-98511464D01*
X115000000Y-98511464D01*
X115000000Y-91488535D01*
X116455000Y-91488535D01*
X116461489Y-91559945D01*
X116512692Y-91724264D01*
X116601738Y-91871563D01*
X116723436Y-91993261D01*
X116870736Y-92082307D01*
X116870735Y-92082307D01*
X117035055Y-92133510D01*
X117035053Y-92133510D01*
X117106465Y-92140000D01*
X117122500Y-92140000D01*
X117122500Y-91250000D01*
X116455000Y-91250000D01*
X116455000Y-91488535D01*
X115000000Y-91488535D01*
X115000000Y-90511464D01*
X116455000Y-90511464D01*
X116455000Y-90750000D01*
X117122500Y-90750000D01*
X117122500Y-89860000D01*
X117106465Y-89860000D01*
X117035054Y-89866489D01*
X116870735Y-89917692D01*
X116723436Y-90006738D01*
X116601738Y-90128436D01*
X116512692Y-90275735D01*
X116461489Y-90440054D01*
X116455000Y-90511464D01*
X115000000Y-90511464D01*
X115000000Y-75449775D01*
X116118500Y-75449775D01*
X116118500Y-78949775D01*
X116118500Y-82900225D01*
X116123665Y-82919500D01*
X116144499Y-82997255D01*
X116144500Y-82997256D01*
X116161411Y-83026548D01*
X116161413Y-83026550D01*
X116171199Y-83043500D01*
X116194721Y-83084243D01*
X116194723Y-83084246D01*
X116194724Y-83084247D01*
X116840753Y-83730276D01*
X116927747Y-83780502D01*
X117024775Y-83806501D01*
X117024778Y-83806501D01*
X117132821Y-83806501D01*
X117132837Y-83806500D01*
X117762596Y-83806500D01*
X117829635Y-83826185D01*
X117875390Y-83878989D01*
X117878779Y-83887171D01*
X117880701Y-83892327D01*
X117880706Y-83892335D01*
X117966952Y-84007544D01*
X117966955Y-84007547D01*
X118082164Y-84093793D01*
X118082171Y-84093797D01*
X118217017Y-84144091D01*
X118217016Y-84144091D01*
X118223944Y-84144835D01*
X118276627Y-84150500D01*
X119847372Y-84150499D01*
X119906983Y-84144091D01*
X120041831Y-84093796D01*
X120157046Y-84007546D01*
X120243296Y-83892331D01*
X120293591Y-83757483D01*
X120300000Y-83697873D01*
X120299999Y-83152128D01*
X120299998Y-83152111D01*
X120295820Y-83113253D01*
X120295820Y-83086747D01*
X120300000Y-83047873D01*
X120299999Y-82502128D01*
X120299999Y-82502127D01*
X120299998Y-82502111D01*
X120295820Y-82463253D01*
X120295820Y-82436745D01*
X120300000Y-82397873D01*
X120299999Y-81852128D01*
X120299999Y-81852127D01*
X120299998Y-81852111D01*
X120295820Y-81813253D01*
X120295820Y-81786745D01*
X120300000Y-81747873D01*
X120299999Y-81202128D01*
X120299999Y-81202127D01*
X120299998Y-81202111D01*
X120295820Y-81163253D01*
X120295820Y-81136745D01*
X120300000Y-81097873D01*
X120299999Y-80552128D01*
X120299999Y-80552127D01*
X120299998Y-80552111D01*
X120295820Y-80513253D01*
X120295820Y-80486745D01*
X120300000Y-80447873D01*
X120299999Y-79902128D01*
X120299999Y-79902127D01*
X120299998Y-79902111D01*
X120295820Y-79863253D01*
X120295820Y-79836745D01*
X120300000Y-79797873D01*
X120299999Y-79252128D01*
X120299999Y-79252127D01*
X120299998Y-79252111D01*
X120295820Y-79213253D01*
X120295820Y-79186745D01*
X120300000Y-79147873D01*
X120299999Y-78602128D01*
X120299999Y-78602127D01*
X120299998Y-78602111D01*
X120295820Y-78563253D01*
X120295820Y-78536745D01*
X120300000Y-78497873D01*
X120299999Y-77952128D01*
X120299999Y-77952127D01*
X120299998Y-77952111D01*
X120295820Y-77913253D01*
X120295820Y-77886745D01*
X120300000Y-77847873D01*
X120299999Y-77302128D01*
X120293591Y-77242517D01*
X120269477Y-77177865D01*
X120243297Y-77107671D01*
X120243293Y-77107664D01*
X120185822Y-77030894D01*
X120157046Y-76992454D01*
X120143256Y-76982131D01*
X120101387Y-76926199D01*
X120096403Y-76856507D01*
X120129886Y-76795187D01*
X120611757Y-76313318D01*
X120673079Y-76279834D01*
X120742771Y-76284818D01*
X120798704Y-76326690D01*
X120804431Y-76335028D01*
X120896382Y-76481367D01*
X121018632Y-76603617D01*
X121057758Y-76628202D01*
X121165018Y-76695598D01*
X121328202Y-76752698D01*
X121385468Y-76759150D01*
X121499996Y-76772055D01*
X121500000Y-76772055D01*
X121500004Y-76772055D01*
X121598170Y-76760993D01*
X121671798Y-76752698D01*
X121834982Y-76695598D01*
X121981368Y-76603617D01*
X122103617Y-76481368D01*
X122195598Y-76334982D01*
X122252698Y-76171798D01*
X122266725Y-76047302D01*
X122272055Y-76000003D01*
X122272055Y-75999996D01*
X122257667Y-75872300D01*
X122252698Y-75828202D01*
X122195598Y-75665018D01*
X122167268Y-75619932D01*
X122103617Y-75518632D01*
X121981367Y-75396382D01*
X121834983Y-75304402D01*
X121671795Y-75247301D01*
X121500004Y-75227945D01*
X121499996Y-75227945D01*
X121328204Y-75247301D01*
X121165016Y-75304402D01*
X121018632Y-75396382D01*
X120896382Y-75518632D01*
X120804402Y-75665016D01*
X120787524Y-75713254D01*
X120746803Y-75770030D01*
X120681850Y-75795778D01*
X120670482Y-75796300D01*
X120596481Y-75796300D01*
X120596479Y-75796300D01*
X120596477Y-75796301D01*
X120521615Y-75827308D01*
X119535742Y-76813181D01*
X119474419Y-76846666D01*
X119448061Y-76849500D01*
X118276629Y-76849500D01*
X118276623Y-76849501D01*
X118217016Y-76855908D01*
X118082171Y-76906202D01*
X118082164Y-76906206D01*
X117966955Y-76992452D01*
X117966952Y-76992455D01*
X117880706Y-77107664D01*
X117880702Y-77107671D01*
X117836790Y-77225408D01*
X117830409Y-77242517D01*
X117824000Y-77302127D01*
X117824000Y-77572055D01*
X117824001Y-77719500D01*
X117804317Y-77786539D01*
X117751513Y-77832294D01*
X117700001Y-77843500D01*
X117332837Y-77843500D01*
X117332821Y-77843499D01*
X117325225Y-77843499D01*
X117224775Y-77843499D01*
X117127747Y-77869498D01*
X117090979Y-77890726D01*
X117090977Y-77890726D01*
X117090977Y-77890727D01*
X117067498Y-77904282D01*
X116999597Y-77920753D01*
X116933571Y-77897900D01*
X116890381Y-77842978D01*
X116881500Y-77796894D01*
X116881500Y-75896055D01*
X116901185Y-75829016D01*
X116953989Y-75783261D01*
X116993292Y-75774710D01*
X116993081Y-75772835D01*
X117091610Y-75761732D01*
X117171798Y-75752698D01*
X117334982Y-75695598D01*
X117481368Y-75603617D01*
X117603617Y-75481368D01*
X117695598Y-75334982D01*
X117752698Y-75171798D01*
X117764729Y-75065018D01*
X117772055Y-75000003D01*
X117772055Y-74999996D01*
X117757932Y-74874653D01*
X117752698Y-74828202D01*
X117695598Y-74665018D01*
X117672303Y-74627945D01*
X117603617Y-74518632D01*
X117481367Y-74396382D01*
X117334983Y-74304402D01*
X117171795Y-74247301D01*
X117000004Y-74227945D01*
X116999996Y-74227945D01*
X116828204Y-74247301D01*
X116665016Y-74304402D01*
X116518632Y-74396382D01*
X116396382Y-74518632D01*
X116304402Y-74665016D01*
X116247301Y-74828204D01*
X116227945Y-74999996D01*
X116227945Y-75000003D01*
X116244805Y-75149645D01*
X116232750Y-75218467D01*
X116209268Y-75251207D01*
X116194725Y-75265749D01*
X116144499Y-75352745D01*
X116144499Y-75352746D01*
X116118500Y-75449775D01*
X115000000Y-75449775D01*
X115000000Y-69999986D01*
X118900001Y-69999986D01*
X118910494Y-70102697D01*
X118965641Y-70269119D01*
X118965643Y-70269124D01*
X119057684Y-70418345D01*
X119181654Y-70542315D01*
X119330875Y-70634356D01*
X119330880Y-70634358D01*
X119497302Y-70689505D01*
X119497309Y-70689506D01*
X119600019Y-70699999D01*
X119724999Y-70699999D01*
X119725000Y-70699998D01*
X119725000Y-69750000D01*
X118900001Y-69750000D01*
X118900001Y-69999986D01*
X115000000Y-69999986D01*
X115000000Y-69000013D01*
X118900000Y-69000013D01*
X118900000Y-69250000D01*
X119725000Y-69250000D01*
X119725000Y-68300000D01*
X119600027Y-68300000D01*
X119600012Y-68300001D01*
X119497302Y-68310494D01*
X119330880Y-68365641D01*
X119330875Y-68365643D01*
X119181654Y-68457684D01*
X119057684Y-68581654D01*
X118965643Y-68730875D01*
X118965641Y-68730880D01*
X118910494Y-68897302D01*
X118910493Y-68897309D01*
X118900000Y-69000013D01*
X115000000Y-69000013D01*
X115000000Y-56539999D01*
X120644341Y-56539999D01*
X120644341Y-56540000D01*
X120664936Y-56775403D01*
X120664938Y-56775413D01*
X120726094Y-57003655D01*
X120726096Y-57003659D01*
X120726097Y-57003663D01*
X120803351Y-57169334D01*
X120825965Y-57217830D01*
X120825967Y-57217834D01*
X120961501Y-57411395D01*
X120961506Y-57411402D01*
X121128597Y-57578493D01*
X121128603Y-57578498D01*
X121314158Y-57708425D01*
X121357783Y-57763002D01*
X121364977Y-57832500D01*
X121333454Y-57894855D01*
X121314158Y-57911575D01*
X121128597Y-58041505D01*
X120961505Y-58208597D01*
X120825965Y-58402169D01*
X120825964Y-58402171D01*
X120726098Y-58616335D01*
X120726094Y-58616344D01*
X120664938Y-58844586D01*
X120664936Y-58844596D01*
X120644341Y-59079999D01*
X120644341Y-59080000D01*
X120664936Y-59315403D01*
X120664938Y-59315413D01*
X120726094Y-59543655D01*
X120726096Y-59543659D01*
X120726097Y-59543663D01*
X120752364Y-59599992D01*
X120825965Y-59757830D01*
X120825967Y-59757834D01*
X120845256Y-59785381D01*
X120961505Y-59951401D01*
X121128599Y-60118495D01*
X121225384Y-60186265D01*
X121322165Y-60254032D01*
X121322167Y-60254033D01*
X121322170Y-60254035D01*
X121536337Y-60353903D01*
X121764592Y-60415063D01*
X121952918Y-60431539D01*
X121999999Y-60435659D01*
X122000000Y-60435659D01*
X122000001Y-60435659D01*
X122039234Y-60432226D01*
X122235408Y-60415063D01*
X122463663Y-60353903D01*
X122677830Y-60254035D01*
X122871401Y-60118495D01*
X123038495Y-59951401D01*
X123174035Y-59757830D01*
X123273903Y-59543663D01*
X123335063Y-59315408D01*
X123355659Y-59080000D01*
X123335063Y-58844592D01*
X123273903Y-58616337D01*
X123174035Y-58402171D01*
X123172529Y-58400019D01*
X123038494Y-58208597D01*
X122871402Y-58041506D01*
X122871396Y-58041501D01*
X122685842Y-57911575D01*
X122642217Y-57856998D01*
X122635023Y-57787500D01*
X122666546Y-57725145D01*
X122685842Y-57708425D01*
X122758797Y-57657341D01*
X122871401Y-57578495D01*
X123038495Y-57411401D01*
X123174035Y-57217830D01*
X123273903Y-57003663D01*
X123335063Y-56775408D01*
X123355659Y-56540000D01*
X123335063Y-56304592D01*
X123273903Y-56076337D01*
X123174035Y-55862171D01*
X123151976Y-55830668D01*
X123038496Y-55668600D01*
X122999802Y-55629906D01*
X122916179Y-55546283D01*
X122882696Y-55484963D01*
X122887680Y-55415271D01*
X122929551Y-55359337D01*
X122960529Y-55342422D01*
X123092086Y-55293354D01*
X123092093Y-55293350D01*
X123207187Y-55207190D01*
X123207190Y-55207187D01*
X123293350Y-55092093D01*
X123293354Y-55092086D01*
X123343596Y-54957379D01*
X123343598Y-54957372D01*
X123349999Y-54897844D01*
X123350000Y-54897827D01*
X123350000Y-54250000D01*
X122433012Y-54250000D01*
X122465925Y-54192993D01*
X122500000Y-54065826D01*
X122500000Y-53934174D01*
X122465925Y-53807007D01*
X122433012Y-53750000D01*
X123350000Y-53750000D01*
X123350000Y-53102172D01*
X123349999Y-53102155D01*
X123343598Y-53042627D01*
X123343596Y-53042620D01*
X123293354Y-52907913D01*
X123293350Y-52907906D01*
X123207190Y-52792812D01*
X123207187Y-52792809D01*
X123092093Y-52706649D01*
X123092086Y-52706645D01*
X122957379Y-52656403D01*
X122957372Y-52656401D01*
X122897844Y-52650000D01*
X122250000Y-52650000D01*
X122250000Y-53566988D01*
X122192993Y-53534075D01*
X122065826Y-53500000D01*
X121934174Y-53500000D01*
X121807007Y-53534075D01*
X121750000Y-53566988D01*
X121750000Y-52650000D01*
X121102155Y-52650000D01*
X121042627Y-52656401D01*
X121042620Y-52656403D01*
X120907913Y-52706645D01*
X120907906Y-52706649D01*
X120792812Y-52792809D01*
X120792809Y-52792812D01*
X120706649Y-52907906D01*
X120706645Y-52907913D01*
X120656403Y-53042620D01*
X120656401Y-53042627D01*
X120650000Y-53102155D01*
X120650000Y-53750000D01*
X121566988Y-53750000D01*
X121534075Y-53807007D01*
X121500000Y-53934174D01*
X121500000Y-54065826D01*
X121534075Y-54192993D01*
X121566988Y-54250000D01*
X120650000Y-54250000D01*
X120650000Y-54897844D01*
X120656401Y-54957372D01*
X120656403Y-54957379D01*
X120706645Y-55092086D01*
X120706649Y-55092093D01*
X120792809Y-55207187D01*
X120792812Y-55207190D01*
X120907906Y-55293350D01*
X120907913Y-55293354D01*
X121039470Y-55342421D01*
X121095403Y-55384292D01*
X121119821Y-55449756D01*
X121104970Y-55518029D01*
X121083819Y-55546284D01*
X120961503Y-55668600D01*
X120825965Y-55862169D01*
X120825964Y-55862171D01*
X120726098Y-56076335D01*
X120726094Y-56076344D01*
X120664938Y-56304586D01*
X120664936Y-56304596D01*
X120644341Y-56539999D01*
X115000000Y-56539999D01*
X115000000Y-37881995D01*
X117599500Y-37881995D01*
X117599500Y-38118004D01*
X117599501Y-38118020D01*
X117622879Y-38295598D01*
X117630307Y-38352014D01*
X117653421Y-38438277D01*
X117691394Y-38579993D01*
X117781714Y-38798045D01*
X117781719Y-38798056D01*
X117820740Y-38865641D01*
X117899727Y-39002450D01*
X117899729Y-39002453D01*
X117899730Y-39002454D01*
X118043406Y-39189697D01*
X118043412Y-39189704D01*
X118210295Y-39356587D01*
X118210301Y-39356592D01*
X118397550Y-39500273D01*
X118513670Y-39567315D01*
X118601943Y-39618280D01*
X118601948Y-39618282D01*
X118601951Y-39618284D01*
X118820007Y-39708606D01*
X119047986Y-39769693D01*
X119281989Y-39800500D01*
X119281996Y-39800500D01*
X119518004Y-39800500D01*
X119518011Y-39800500D01*
X119752014Y-39769693D01*
X119979993Y-39708606D01*
X120198049Y-39618284D01*
X120402450Y-39500273D01*
X120589699Y-39356592D01*
X120756592Y-39189699D01*
X120882981Y-39024986D01*
X136412501Y-39024986D01*
X136422994Y-39127697D01*
X136478141Y-39294119D01*
X136478143Y-39294124D01*
X136570184Y-39443345D01*
X136694154Y-39567315D01*
X136843375Y-39659356D01*
X136843380Y-39659358D01*
X137009802Y-39714505D01*
X137009809Y-39714506D01*
X137112519Y-39724999D01*
X137249999Y-39724999D01*
X137250000Y-39724998D01*
X137250000Y-38750000D01*
X136412501Y-38750000D01*
X136412501Y-39024986D01*
X120882981Y-39024986D01*
X120900273Y-39002450D01*
X121018284Y-38798049D01*
X121108606Y-38579993D01*
X121169693Y-38352014D01*
X121200500Y-38118011D01*
X121200500Y-37881989D01*
X121169693Y-37647986D01*
X121108606Y-37420007D01*
X121018284Y-37201951D01*
X121018282Y-37201948D01*
X121018280Y-37201943D01*
X120970180Y-37118632D01*
X120900273Y-36997550D01*
X120828798Y-36904402D01*
X120756593Y-36810302D01*
X120756587Y-36810295D01*
X120589704Y-36643412D01*
X120589697Y-36643406D01*
X120402454Y-36499730D01*
X120402453Y-36499729D01*
X120402450Y-36499727D01*
X120294299Y-36437286D01*
X120198056Y-36381719D01*
X120198045Y-36381714D01*
X119979993Y-36291394D01*
X119804975Y-36244498D01*
X119752014Y-36230307D01*
X119752013Y-36230306D01*
X119752010Y-36230306D01*
X119518020Y-36199501D01*
X119518017Y-36199500D01*
X119518011Y-36199500D01*
X119281989Y-36199500D01*
X119281983Y-36199500D01*
X119281979Y-36199501D01*
X119047989Y-36230306D01*
X118820006Y-36291394D01*
X118601954Y-36381714D01*
X118601943Y-36381719D01*
X118397545Y-36499730D01*
X118210302Y-36643406D01*
X118210295Y-36643412D01*
X118043412Y-36810295D01*
X118043406Y-36810302D01*
X117899730Y-36997545D01*
X117781719Y-37201943D01*
X117781714Y-37201954D01*
X117691394Y-37420006D01*
X117630306Y-37647989D01*
X117599501Y-37881979D01*
X117599500Y-37881995D01*
X115000000Y-37881995D01*
X115000000Y-35124986D01*
X137037501Y-35124986D01*
X137047994Y-35227697D01*
X137103141Y-35394119D01*
X137103143Y-35394124D01*
X137195184Y-35543345D01*
X137319154Y-35667315D01*
X137468375Y-35759356D01*
X137468380Y-35759358D01*
X137634802Y-35814505D01*
X137634809Y-35814506D01*
X137737519Y-35824999D01*
X137874999Y-35824999D01*
X137875000Y-35824998D01*
X137875000Y-34850000D01*
X137037501Y-34850000D01*
X137037501Y-35124986D01*
X115000000Y-35124986D01*
X115000000Y-33624000D01*
X115019685Y-33556961D01*
X115072489Y-33511206D01*
X115124000Y-33500000D01*
X137069635Y-33500000D01*
X137136674Y-33519685D01*
G37*
%TD.AperFunction*%
%TA.AperFunction,Conductor*%
G36*
X150639889Y-40005434D02*
G01*
X150685644Y-40058238D01*
X150696850Y-40109749D01*
X150696850Y-41941067D01*
X150696851Y-41941072D01*
X150727858Y-42015934D01*
X150802599Y-42090675D01*
X150802605Y-42090680D01*
X151259981Y-42548056D01*
X151293466Y-42609379D01*
X151296300Y-42635737D01*
X151296300Y-44500500D01*
X151276615Y-44567539D01*
X151223811Y-44613294D01*
X151172301Y-44624500D01*
X150999999Y-44624500D01*
X150999980Y-44624501D01*
X150897203Y-44635000D01*
X150897200Y-44635001D01*
X150730668Y-44690185D01*
X150730663Y-44690187D01*
X150581342Y-44782289D01*
X150457289Y-44906342D01*
X150365187Y-45055663D01*
X150365185Y-45055668D01*
X150347250Y-45109794D01*
X150310001Y-45222203D01*
X150310001Y-45222204D01*
X150310000Y-45222204D01*
X150299500Y-45324983D01*
X150299500Y-46125001D01*
X150299501Y-46125019D01*
X150310000Y-46227796D01*
X150310001Y-46227799D01*
X150365185Y-46394331D01*
X150365187Y-46394336D01*
X150457289Y-46543657D01*
X150550951Y-46637319D01*
X150584436Y-46698642D01*
X150579452Y-46768334D01*
X150550951Y-46812681D01*
X150457289Y-46906342D01*
X150365187Y-47055663D01*
X150365186Y-47055666D01*
X150310002Y-47222202D01*
X150310001Y-47222204D01*
X150310000Y-47222206D01*
X150308990Y-47232100D01*
X150282596Y-47296792D01*
X150225416Y-47336945D01*
X150185632Y-47343500D01*
X144814368Y-47343500D01*
X144747329Y-47323815D01*
X144701574Y-47271011D01*
X144691010Y-47232101D01*
X144691010Y-47232100D01*
X144689999Y-47222203D01*
X144634814Y-47055666D01*
X144542712Y-46906344D01*
X144449049Y-46812681D01*
X144415564Y-46751358D01*
X144420548Y-46681666D01*
X144449049Y-46637319D01*
X144471863Y-46614505D01*
X144542712Y-46543656D01*
X144634814Y-46394334D01*
X144689999Y-46227797D01*
X144700500Y-46125009D01*
X144700500Y-45924986D01*
X146275001Y-45924986D01*
X146285494Y-46027697D01*
X146340641Y-46194119D01*
X146340643Y-46194124D01*
X146432684Y-46343345D01*
X146556654Y-46467315D01*
X146705875Y-46559356D01*
X146705880Y-46559358D01*
X146872302Y-46614505D01*
X146872309Y-46614506D01*
X146975019Y-46624999D01*
X147249999Y-46624999D01*
X147750000Y-46624999D01*
X148024972Y-46624999D01*
X148024986Y-46624998D01*
X148127697Y-46614505D01*
X148294119Y-46559358D01*
X148294124Y-46559356D01*
X148443345Y-46467315D01*
X148567315Y-46343345D01*
X148659356Y-46194124D01*
X148659358Y-46194119D01*
X148714505Y-46027697D01*
X148714506Y-46027690D01*
X148724999Y-45924986D01*
X148725000Y-45924973D01*
X148725000Y-45787500D01*
X147750000Y-45787500D01*
X147750000Y-46624999D01*
X147249999Y-46624999D01*
X147250000Y-46624998D01*
X147250000Y-45787500D01*
X146275001Y-45787500D01*
X146275001Y-45924986D01*
X144700500Y-45924986D01*
X144700499Y-45324992D01*
X144695091Y-45272055D01*
X144689999Y-45222203D01*
X144689998Y-45222200D01*
X144671049Y-45165016D01*
X144634814Y-45055666D01*
X144542712Y-44906344D01*
X144418656Y-44782288D01*
X144269334Y-44690186D01*
X144102797Y-44635001D01*
X144102795Y-44635000D01*
X144000016Y-44624500D01*
X144000009Y-44624500D01*
X143827700Y-44624500D01*
X143760661Y-44604815D01*
X143714906Y-44552011D01*
X143703700Y-44500500D01*
X143703700Y-44435737D01*
X143723385Y-44368698D01*
X143740019Y-44348056D01*
X146448057Y-41640019D01*
X146509380Y-41606534D01*
X146535738Y-41603700D01*
X148140517Y-41603700D01*
X148140519Y-41603700D01*
X148177953Y-41588194D01*
X148215384Y-41572691D01*
X148215385Y-41572689D01*
X148215387Y-41572689D01*
X148272689Y-41515387D01*
X148272689Y-41515386D01*
X148290127Y-41497948D01*
X148290129Y-41497945D01*
X149201695Y-40586379D01*
X149201698Y-40586377D01*
X149219136Y-40568939D01*
X149219137Y-40568939D01*
X149260569Y-40527507D01*
X149321892Y-40494022D01*
X149391584Y-40499006D01*
X149447517Y-40540878D01*
X149471934Y-40606342D01*
X149472250Y-40615188D01*
X149472250Y-40899364D01*
X149452565Y-40966403D01*
X149435931Y-40987045D01*
X148084794Y-42338181D01*
X148023471Y-42371666D01*
X147997113Y-42374500D01*
X146974998Y-42374500D01*
X146974980Y-42374501D01*
X146872203Y-42385000D01*
X146872200Y-42385001D01*
X146705668Y-42440185D01*
X146705663Y-42440187D01*
X146556342Y-42532289D01*
X146432289Y-42656342D01*
X146340187Y-42805663D01*
X146340186Y-42805666D01*
X146285001Y-42972203D01*
X146285001Y-42972204D01*
X146285000Y-42972204D01*
X146274500Y-43074983D01*
X146274500Y-43850001D01*
X146274501Y-43850019D01*
X146285000Y-43952796D01*
X146285001Y-43952799D01*
X146340185Y-44119331D01*
X146340187Y-44119336D01*
X146345106Y-44127311D01*
X146432288Y-44268656D01*
X146556344Y-44392712D01*
X146559628Y-44394737D01*
X146559653Y-44394753D01*
X146561445Y-44396746D01*
X146562011Y-44397193D01*
X146561934Y-44397289D01*
X146606379Y-44446699D01*
X146617603Y-44515661D01*
X146589761Y-44579744D01*
X146559665Y-44605826D01*
X146556660Y-44607679D01*
X146556655Y-44607683D01*
X146432684Y-44731654D01*
X146340643Y-44880875D01*
X146340641Y-44880880D01*
X146285494Y-45047302D01*
X146285493Y-45047309D01*
X146275000Y-45150013D01*
X146275000Y-45287500D01*
X148724999Y-45287500D01*
X148724999Y-45150028D01*
X148724998Y-45150018D01*
X148721731Y-45118040D01*
X148734499Y-45049347D01*
X148782379Y-44998462D01*
X148850168Y-44981540D01*
X148916345Y-45003954D01*
X148932770Y-45017755D01*
X149018632Y-45103617D01*
X149127140Y-45171798D01*
X149165018Y-45195598D01*
X149328202Y-45252698D01*
X149385468Y-45259150D01*
X149499996Y-45272055D01*
X149500000Y-45272055D01*
X149500004Y-45272055D01*
X149598170Y-45260993D01*
X149671798Y-45252698D01*
X149834982Y-45195598D01*
X149981368Y-45103617D01*
X150103617Y-44981368D01*
X150195598Y-44834982D01*
X150252698Y-44671798D01*
X150269956Y-44518632D01*
X150272055Y-44500003D01*
X150272055Y-44499996D01*
X150252698Y-44328204D01*
X150252698Y-44328202D01*
X150195598Y-44165018D01*
X150171904Y-44127310D01*
X150103617Y-44018632D01*
X149981367Y-43896382D01*
X149834983Y-43804402D01*
X149671795Y-43747301D01*
X149500004Y-43727945D01*
X149499996Y-43727945D01*
X149328204Y-43747301D01*
X149165016Y-43804402D01*
X149018635Y-43896380D01*
X148933332Y-43981683D01*
X148872008Y-44015167D01*
X148802317Y-44010183D01*
X148746383Y-43968311D01*
X148721967Y-43902846D01*
X148722293Y-43881397D01*
X148725500Y-43850009D01*
X148725499Y-43074992D01*
X148720369Y-43024777D01*
X148714999Y-42972203D01*
X148714998Y-42972200D01*
X148692967Y-42905714D01*
X148690565Y-42835886D01*
X148722990Y-42779031D01*
X150159026Y-41342997D01*
X150160659Y-41340168D01*
X150192724Y-41284631D01*
X150192727Y-41284622D01*
X150192733Y-41284614D01*
X150209251Y-41256004D01*
X150235250Y-41158975D01*
X150235250Y-40109749D01*
X150254935Y-40042710D01*
X150307739Y-39996955D01*
X150359246Y-39985749D01*
X150572851Y-39985749D01*
X150639889Y-40005434D01*
G37*
%TD.AperFunction*%
%TA.AperFunction,Conductor*%
G36*
X151981189Y-39946014D02*
G01*
X151981192Y-39946017D01*
X155759981Y-43724806D01*
X155793466Y-43786129D01*
X155796300Y-43812487D01*
X155796300Y-44500500D01*
X155776615Y-44567539D01*
X155723811Y-44613294D01*
X155672301Y-44624500D01*
X155499999Y-44624500D01*
X155499980Y-44624501D01*
X155397203Y-44635000D01*
X155397200Y-44635001D01*
X155230668Y-44690185D01*
X155230663Y-44690187D01*
X155081342Y-44782289D01*
X154957289Y-44906342D01*
X154865187Y-45055663D01*
X154865185Y-45055668D01*
X154847250Y-45109794D01*
X154810001Y-45222203D01*
X154810001Y-45222204D01*
X154810000Y-45222204D01*
X154799500Y-45324983D01*
X154799500Y-46125001D01*
X154799501Y-46125019D01*
X154810000Y-46227796D01*
X154810001Y-46227799D01*
X154865185Y-46394331D01*
X154865187Y-46394336D01*
X154957289Y-46543657D01*
X155050951Y-46637319D01*
X155084436Y-46698642D01*
X155079452Y-46768334D01*
X155050951Y-46812681D01*
X154957289Y-46906342D01*
X154865187Y-47055663D01*
X154865186Y-47055666D01*
X154810002Y-47222202D01*
X154810001Y-47222204D01*
X154810000Y-47222206D01*
X154808990Y-47232100D01*
X154782596Y-47296792D01*
X154725416Y-47336945D01*
X154685632Y-47343500D01*
X152814368Y-47343500D01*
X152747329Y-47323815D01*
X152701574Y-47271011D01*
X152691010Y-47232101D01*
X152691010Y-47232100D01*
X152689999Y-47222203D01*
X152634814Y-47055666D01*
X152542712Y-46906344D01*
X152449049Y-46812681D01*
X152415564Y-46751358D01*
X152420548Y-46681666D01*
X152449049Y-46637319D01*
X152471863Y-46614505D01*
X152542712Y-46543656D01*
X152634814Y-46394334D01*
X152689999Y-46227797D01*
X152700500Y-46125009D01*
X152700500Y-46084847D01*
X152720185Y-46017808D01*
X152772989Y-45972053D01*
X152842147Y-45962109D01*
X152905703Y-45991134D01*
X152912181Y-45997166D01*
X153018632Y-46103617D01*
X153165018Y-46195598D01*
X153328202Y-46252698D01*
X153385468Y-46259150D01*
X153499996Y-46272055D01*
X153500000Y-46272055D01*
X153500004Y-46272055D01*
X153598170Y-46260993D01*
X153671798Y-46252698D01*
X153834982Y-46195598D01*
X153981368Y-46103617D01*
X154103617Y-45981368D01*
X154195598Y-45834982D01*
X154252698Y-45671798D01*
X154272055Y-45500000D01*
X154264752Y-45435187D01*
X154252698Y-45328204D01*
X154252698Y-45328202D01*
X154195598Y-45165018D01*
X154142951Y-45081232D01*
X154103617Y-45018632D01*
X153981367Y-44896382D01*
X153834983Y-44804402D01*
X153671795Y-44747301D01*
X153500004Y-44727945D01*
X153499996Y-44727945D01*
X153328204Y-44747301D01*
X153165016Y-44804402D01*
X153018632Y-44896382D01*
X152896381Y-45018633D01*
X152896380Y-45018635D01*
X152857047Y-45081232D01*
X152804712Y-45127523D01*
X152735658Y-45138170D01*
X152671810Y-45109794D01*
X152639269Y-45061553D01*
X152637864Y-45062209D01*
X152634815Y-45055670D01*
X152634814Y-45055666D01*
X152542712Y-44906344D01*
X152418656Y-44782288D01*
X152269334Y-44690186D01*
X152102797Y-44635001D01*
X152102795Y-44635000D01*
X152000016Y-44624500D01*
X152000009Y-44624500D01*
X151827700Y-44624500D01*
X151760661Y-44604815D01*
X151714906Y-44552011D01*
X151703700Y-44500500D01*
X151703700Y-42459482D01*
X151703698Y-42459477D01*
X151672691Y-42384615D01*
X151140569Y-41852493D01*
X151107084Y-41791170D01*
X151104250Y-41764812D01*
X151104250Y-40099749D01*
X151123935Y-40032710D01*
X151176739Y-39986955D01*
X151228250Y-39975749D01*
X151651621Y-39975749D01*
X151651622Y-39975749D01*
X151711233Y-39969341D01*
X151846081Y-39919046D01*
X151846085Y-39919042D01*
X151850176Y-39917517D01*
X151919868Y-39912532D01*
X151981189Y-39946014D01*
G37*
%TD.AperFunction*%
%TA.AperFunction,Conductor*%
G36*
X152467101Y-38555434D02*
G01*
X152487743Y-38572068D01*
X159263181Y-45347506D01*
X159296666Y-45408829D01*
X159299500Y-45435187D01*
X159299500Y-46125001D01*
X159299501Y-46125019D01*
X159310000Y-46227796D01*
X159310001Y-46227799D01*
X159365185Y-46394331D01*
X159365187Y-46394336D01*
X159457289Y-46543657D01*
X159550951Y-46637319D01*
X159584436Y-46698642D01*
X159579452Y-46768334D01*
X159550951Y-46812681D01*
X159457289Y-46906342D01*
X159365187Y-47055663D01*
X159365186Y-47055666D01*
X159310002Y-47222202D01*
X159310001Y-47222204D01*
X159310000Y-47222206D01*
X159308990Y-47232100D01*
X159282596Y-47296792D01*
X159225416Y-47336945D01*
X159185632Y-47343500D01*
X157314368Y-47343500D01*
X157247329Y-47323815D01*
X157201574Y-47271011D01*
X157191010Y-47232101D01*
X157191010Y-47232100D01*
X157189999Y-47222203D01*
X157134814Y-47055666D01*
X157042712Y-46906344D01*
X156949049Y-46812681D01*
X156915564Y-46751358D01*
X156920548Y-46681666D01*
X156949049Y-46637319D01*
X156971863Y-46614505D01*
X157042712Y-46543656D01*
X157134814Y-46394334D01*
X157189999Y-46227797D01*
X157200500Y-46125009D01*
X157200499Y-45324992D01*
X157195091Y-45272055D01*
X157189999Y-45222203D01*
X157189998Y-45222200D01*
X157171049Y-45165016D01*
X157134814Y-45055666D01*
X157042712Y-44906344D01*
X156918656Y-44782288D01*
X156769334Y-44690186D01*
X156602797Y-44635001D01*
X156602795Y-44635000D01*
X156500016Y-44624500D01*
X156500009Y-44624500D01*
X156327700Y-44624500D01*
X156260661Y-44604815D01*
X156214906Y-44552011D01*
X156203700Y-44500500D01*
X156203700Y-43731711D01*
X156203701Y-43731702D01*
X156203701Y-43636233D01*
X156203701Y-43636232D01*
X156172689Y-43561364D01*
X156172689Y-43561363D01*
X156115387Y-43504061D01*
X156108322Y-43496996D01*
X156108315Y-43496990D01*
X152140568Y-39529243D01*
X152107083Y-39467920D01*
X152104249Y-39441562D01*
X152104249Y-39126689D01*
X152123934Y-39059650D01*
X152128983Y-39052377D01*
X152147546Y-39027581D01*
X152197841Y-38892733D01*
X152204250Y-38833123D01*
X152204249Y-38659748D01*
X152223933Y-38592710D01*
X152276737Y-38546955D01*
X152328249Y-38535749D01*
X152400062Y-38535749D01*
X152467101Y-38555434D01*
G37*
%TD.AperFunction*%
%TA.AperFunction,Conductor*%
G36*
X145376881Y-38401185D02*
G01*
X145384153Y-38406233D01*
X145480378Y-38478267D01*
X145481418Y-38479045D01*
X145481421Y-38479047D01*
X145526368Y-38495811D01*
X145616267Y-38529341D01*
X145675877Y-38535750D01*
X145979752Y-38535749D01*
X146046789Y-38555433D01*
X146092544Y-38608237D01*
X146103750Y-38659749D01*
X146103750Y-38765500D01*
X146729750Y-38765500D01*
X146796789Y-38785185D01*
X146842544Y-38837989D01*
X146853750Y-38889500D01*
X146853750Y-39015500D01*
X146979750Y-39015500D01*
X147046789Y-39035185D01*
X147092544Y-39087989D01*
X147103750Y-39139500D01*
X147103750Y-40000250D01*
X147151578Y-40000250D01*
X147151594Y-40000249D01*
X147211118Y-39993848D01*
X147216022Y-39992690D01*
X147257803Y-39990076D01*
X147305910Y-39995249D01*
X147305922Y-39995250D01*
X147353750Y-39995250D01*
X147353750Y-39164500D01*
X147373435Y-39097461D01*
X147426239Y-39051706D01*
X147477750Y-39040500D01*
X147479251Y-39040500D01*
X147546290Y-39060185D01*
X147592045Y-39112989D01*
X147603251Y-39164500D01*
X147603251Y-39543126D01*
X147609658Y-39602733D01*
X147659952Y-39737578D01*
X147659953Y-39737579D01*
X147659954Y-39737581D01*
X147707544Y-39801153D01*
X147746202Y-39852793D01*
X147746205Y-39852797D01*
X147757580Y-39861312D01*
X147804061Y-39896108D01*
X147845932Y-39952039D01*
X147853722Y-39995222D01*
X147868897Y-40010397D01*
X147884350Y-40014935D01*
X147930105Y-40067739D01*
X147940049Y-40136897D01*
X147911024Y-40200453D01*
X147904993Y-40206930D01*
X147851944Y-40259980D01*
X147790621Y-40293466D01*
X147764262Y-40296300D01*
X143040518Y-40296300D01*
X142959481Y-40296300D01*
X142959479Y-40296300D01*
X142959477Y-40296301D01*
X142884615Y-40327308D01*
X138827308Y-44384615D01*
X138796301Y-44459477D01*
X138796300Y-44459482D01*
X138796300Y-44500500D01*
X138776615Y-44567539D01*
X138723811Y-44613294D01*
X138672301Y-44624500D01*
X138499999Y-44624500D01*
X138499980Y-44624501D01*
X138397203Y-44635000D01*
X138397200Y-44635001D01*
X138230668Y-44690185D01*
X138230663Y-44690187D01*
X138081342Y-44782289D01*
X137957289Y-44906342D01*
X137865187Y-45055663D01*
X137865185Y-45055668D01*
X137847250Y-45109794D01*
X137812967Y-45213254D01*
X137810001Y-45222204D01*
X137809999Y-45222212D01*
X137808451Y-45237361D01*
X137782053Y-45302052D01*
X137724870Y-45342201D01*
X137655059Y-45345062D01*
X137616201Y-45327854D01*
X137615387Y-45327310D01*
X137540522Y-45296301D01*
X137540520Y-45296300D01*
X137540519Y-45296300D01*
X137540517Y-45296300D01*
X136829518Y-45296300D01*
X136762479Y-45276615D01*
X136716724Y-45223811D01*
X136712476Y-45213254D01*
X136695597Y-45165016D01*
X136603617Y-45018632D01*
X136481367Y-44896382D01*
X136334983Y-44804402D01*
X136171795Y-44747301D01*
X136000004Y-44727945D01*
X135999996Y-44727945D01*
X135828204Y-44747301D01*
X135665016Y-44804402D01*
X135571472Y-44863180D01*
X135504235Y-44882180D01*
X135437400Y-44861812D01*
X135392186Y-44808544D01*
X135381500Y-44758186D01*
X135381500Y-43284384D01*
X135401185Y-43217345D01*
X135417814Y-43196708D01*
X138891532Y-39722989D01*
X138952853Y-39689506D01*
X139018211Y-39692965D01*
X139084703Y-39714999D01*
X139187491Y-39725500D01*
X139962508Y-39725499D01*
X139962516Y-39725498D01*
X139962519Y-39725498D01*
X140018802Y-39719748D01*
X140065297Y-39714999D01*
X140231834Y-39659814D01*
X140381156Y-39567712D01*
X140400774Y-39548094D01*
X146103750Y-39548094D01*
X146110151Y-39607622D01*
X146110153Y-39607629D01*
X146160395Y-39742336D01*
X146160399Y-39742343D01*
X146246559Y-39857437D01*
X146246562Y-39857440D01*
X146361656Y-39943600D01*
X146361663Y-39943604D01*
X146496370Y-39993846D01*
X146496377Y-39993848D01*
X146555905Y-40000249D01*
X146555922Y-40000250D01*
X146603750Y-40000250D01*
X146603750Y-39265500D01*
X146103750Y-39265500D01*
X146103750Y-39548094D01*
X140400774Y-39548094D01*
X140505212Y-39443656D01*
X140597314Y-39294334D01*
X140652499Y-39127797D01*
X140663000Y-39025009D01*
X140663000Y-38930500D01*
X140682685Y-38863461D01*
X140735489Y-38817706D01*
X140787000Y-38806500D01*
X141125222Y-38806500D01*
X141125225Y-38806500D01*
X141222254Y-38780501D01*
X141309247Y-38730276D01*
X141380276Y-38659247D01*
X141621704Y-38417819D01*
X141683027Y-38384334D01*
X141709385Y-38381500D01*
X142449775Y-38381500D01*
X145309842Y-38381500D01*
X145376881Y-38401185D01*
G37*
%TD.AperFunction*%
%TA.AperFunction,Conductor*%
G36*
X148742004Y-39988883D02*
G01*
X148789306Y-39993969D01*
X148853857Y-40020707D01*
X148893705Y-40078100D01*
X148900050Y-40117258D01*
X148900050Y-40260513D01*
X148880365Y-40327552D01*
X148863731Y-40348194D01*
X148051944Y-41159981D01*
X147990621Y-41193466D01*
X147964263Y-41196300D01*
X146440518Y-41196300D01*
X146359481Y-41196300D01*
X146359479Y-41196300D01*
X146359477Y-41196301D01*
X146284615Y-41227308D01*
X143327308Y-44184615D01*
X143296301Y-44259477D01*
X143296300Y-44259482D01*
X143296300Y-44500500D01*
X143276615Y-44567539D01*
X143223811Y-44613294D01*
X143172301Y-44624500D01*
X142999999Y-44624500D01*
X142999980Y-44624501D01*
X142897203Y-44635000D01*
X142897200Y-44635001D01*
X142730668Y-44690185D01*
X142730663Y-44690187D01*
X142581342Y-44782289D01*
X142457289Y-44906342D01*
X142365187Y-45055663D01*
X142365185Y-45055668D01*
X142347250Y-45109794D01*
X142312967Y-45213254D01*
X142310001Y-45222204D01*
X142309999Y-45222211D01*
X142308738Y-45234553D01*
X142282339Y-45299243D01*
X142225156Y-45339392D01*
X142155345Y-45342251D01*
X142097700Y-45309625D01*
X141800701Y-45012626D01*
X141767216Y-44951303D01*
X141765162Y-44938827D01*
X141752699Y-44828204D01*
X141704405Y-44690187D01*
X141695598Y-44665018D01*
X141676736Y-44635000D01*
X141603617Y-44518632D01*
X141481367Y-44396382D01*
X141334983Y-44304402D01*
X141171795Y-44247301D01*
X141000004Y-44227945D01*
X140999996Y-44227945D01*
X140828204Y-44247301D01*
X140665016Y-44304402D01*
X140518632Y-44396382D01*
X140396382Y-44518632D01*
X140304402Y-44665016D01*
X140247300Y-44828205D01*
X140245752Y-44834991D01*
X140244069Y-44834606D01*
X140220424Y-44890859D01*
X140162825Y-44930407D01*
X140092987Y-44932537D01*
X140036599Y-44900231D01*
X139918657Y-44782289D01*
X139918656Y-44782288D01*
X139769334Y-44690186D01*
X139602797Y-44635001D01*
X139602795Y-44635000D01*
X139500016Y-44624500D01*
X139500009Y-44624500D01*
X139462937Y-44624500D01*
X139395898Y-44604815D01*
X139350143Y-44552011D01*
X139340199Y-44482853D01*
X139369224Y-44419297D01*
X139375256Y-44412819D01*
X141152339Y-42635737D01*
X143048057Y-40740019D01*
X143109380Y-40706534D01*
X143135738Y-40703700D01*
X147940517Y-40703700D01*
X147940519Y-40703700D01*
X147977953Y-40688194D01*
X148015384Y-40672691D01*
X148015385Y-40672689D01*
X148015387Y-40672689D01*
X148072689Y-40615387D01*
X148072689Y-40615386D01*
X148090125Y-40597950D01*
X148090126Y-40597947D01*
X148526439Y-40161637D01*
X148536687Y-40136897D01*
X148562124Y-40075486D01*
X148564918Y-40076643D01*
X148588492Y-40031564D01*
X148649204Y-39996983D01*
X148664470Y-39994367D01*
X148711233Y-39989341D01*
X148711236Y-39989339D01*
X148715494Y-39988882D01*
X148742004Y-39988883D01*
G37*
%TD.AperFunction*%
%TA.AperFunction,Conductor*%
G36*
X148357654Y-34401185D02*
G01*
X148378296Y-34417819D01*
X148685931Y-34725453D01*
X148719416Y-34786776D01*
X148722250Y-34813134D01*
X148722250Y-35390750D01*
X148702565Y-35457789D01*
X148649761Y-35503544D01*
X148598250Y-35514750D01*
X148055879Y-35514750D01*
X148055875Y-35514751D01*
X148007910Y-35519907D01*
X147996267Y-35521159D01*
X147996266Y-35521159D01*
X147989654Y-35521870D01*
X147963143Y-35521869D01*
X147901592Y-35515250D01*
X147853750Y-35515250D01*
X147853698Y-35515301D01*
X147834065Y-35582164D01*
X147804062Y-35614391D01*
X147746202Y-35657705D01*
X147659956Y-35772914D01*
X147659952Y-35772921D01*
X147611789Y-35902055D01*
X147609659Y-35907767D01*
X147603250Y-35967377D01*
X147603250Y-36376002D01*
X147583567Y-36443039D01*
X147530763Y-36488794D01*
X147479251Y-36500000D01*
X147477750Y-36500000D01*
X147410711Y-36480315D01*
X147364956Y-36427511D01*
X147353750Y-36376000D01*
X147353750Y-35515250D01*
X147305922Y-35515250D01*
X147305903Y-35515251D01*
X147242005Y-35522121D01*
X147215495Y-35522121D01*
X147151596Y-35515251D01*
X147151578Y-35515250D01*
X147103750Y-35515250D01*
X147103750Y-36376000D01*
X147084065Y-36443039D01*
X147031261Y-36488794D01*
X146979750Y-36500000D01*
X146853750Y-36500000D01*
X146853750Y-36626000D01*
X146834065Y-36693039D01*
X146781261Y-36738794D01*
X146729750Y-36750000D01*
X146103750Y-36750000D01*
X146103750Y-36910750D01*
X146084065Y-36977789D01*
X146031261Y-37023544D01*
X145979750Y-37034750D01*
X145675880Y-37034750D01*
X145675873Y-37034751D01*
X145616266Y-37041158D01*
X145481421Y-37091452D01*
X145481414Y-37091456D01*
X145366205Y-37177702D01*
X145366202Y-37177705D01*
X145279956Y-37292914D01*
X145279952Y-37292921D01*
X145229658Y-37427767D01*
X145223251Y-37487366D01*
X145223251Y-37487373D01*
X145223250Y-37487385D01*
X145223250Y-37494500D01*
X145203565Y-37561539D01*
X145150761Y-37607294D01*
X145099250Y-37618500D01*
X141557837Y-37618500D01*
X141557821Y-37618499D01*
X141550225Y-37618499D01*
X141449775Y-37618499D01*
X141352747Y-37644498D01*
X141352745Y-37644498D01*
X141352745Y-37644499D01*
X141265753Y-37694724D01*
X141265750Y-37694726D01*
X140953296Y-38007181D01*
X140891973Y-38040666D01*
X140865615Y-38043500D01*
X140781976Y-38043500D01*
X140714937Y-38023815D01*
X140669182Y-37971011D01*
X140658618Y-37932102D01*
X140653499Y-37881995D01*
X140652499Y-37872203D01*
X140597314Y-37705666D01*
X140505212Y-37556344D01*
X140431876Y-37483008D01*
X140398391Y-37421685D01*
X140403375Y-37351993D01*
X140431876Y-37307646D01*
X140835120Y-36904402D01*
X141239589Y-36499932D01*
X141300910Y-36466449D01*
X141370601Y-36471433D01*
X141414949Y-36499934D01*
X141518632Y-36603617D01*
X141581958Y-36643408D01*
X141665018Y-36695598D01*
X141828202Y-36752698D01*
X141885468Y-36759150D01*
X141999996Y-36772055D01*
X142000000Y-36772055D01*
X142000004Y-36772055D01*
X142098170Y-36760993D01*
X142171798Y-36752698D01*
X142334982Y-36695598D01*
X142481368Y-36603617D01*
X142603617Y-36481368D01*
X142695598Y-36334982D01*
X142752698Y-36171798D01*
X142772055Y-36000000D01*
X142772054Y-35999992D01*
X142768382Y-35967405D01*
X146103750Y-35967405D01*
X146103750Y-36250000D01*
X146603750Y-36250000D01*
X146603750Y-35515250D01*
X146555905Y-35515250D01*
X146496377Y-35521651D01*
X146496370Y-35521653D01*
X146361663Y-35571895D01*
X146361656Y-35571899D01*
X146246562Y-35658059D01*
X146246559Y-35658062D01*
X146160399Y-35773156D01*
X146160395Y-35773163D01*
X146110153Y-35907870D01*
X146110151Y-35907877D01*
X146103750Y-35967405D01*
X142768382Y-35967405D01*
X142752698Y-35828204D01*
X142752698Y-35828202D01*
X142695598Y-35665018D01*
X142691225Y-35658059D01*
X142603617Y-35518632D01*
X142481367Y-35396382D01*
X142334983Y-35304402D01*
X142171795Y-35247301D01*
X142000004Y-35227945D01*
X141999996Y-35227945D01*
X141828204Y-35247301D01*
X141665016Y-35304402D01*
X141518635Y-35396380D01*
X141444404Y-35470611D01*
X141383080Y-35504095D01*
X141313389Y-35499110D01*
X141257455Y-35457239D01*
X141233039Y-35391774D01*
X141239016Y-35343929D01*
X141277499Y-35227797D01*
X141288000Y-35125009D01*
X141287999Y-34505499D01*
X141307683Y-34438461D01*
X141360487Y-34392706D01*
X141411999Y-34381500D01*
X148290615Y-34381500D01*
X148357654Y-34401185D01*
G37*
%TD.AperFunction*%
%TD*%
M02*
