M48
; DRILL file {KiCad 8.0.8-8.0.8-0~ubuntu24.04.1} date 2025-02-14T12:47:51-0600
; FORMAT={-:-/ absolute / inch / decimal}
; #@! TF.CreationDate,2025-02-14T12:47:51-06:00
; #@! TF.GenerationSoftware,Kicad,Pcbnew,8.0.8-8.0.8-0~ubuntu24.04.1
; #@! TF.FileFunction,Plated,1,4,PTH
FMAT,2
INCH
; #@! TA.AperFunction,Plated,PTH,ViaDrill
T1C0.0130
; #@! TA.AperFunction,Plated,PTH,ComponentDrill
T2C0.0394
; #@! TA.AperFunction,Plated,PTH,ComponentDrill
T3C0.0400
; #@! TA.AperFunction,Plated,PTH,ComponentDrill
T4C0.1083
%
G90
G05
T1
X4.6063Y-2.9528
X4.6654Y-2.9528
X4.6772Y-1.9213
X4.7244Y-4.3504
X4.7441Y-3.7992
X4.7638Y-2.9528
X4.7795Y-4.0945
X4.7835Y-2.9921
X4.8268Y-2.5591
X4.9213Y-3.3465
X4.9803Y-2.9921
X4.9803Y-4.5866
X5.0157Y-2.5039
X5.0197Y-3.9961
X5.0394Y-2.9921
X5.0787Y-3.7205
X5.1024Y-2.2126
X5.1181Y-3.6024
X5.1575Y-3.563
X5.4252Y-1.811
X5.4331Y-1.4331
X5.4331Y-4.0472
X5.4724Y-3.5748
X5.5276Y-3.1654
X5.6772Y-1.5669
X5.8268Y-1.8583
X5.937Y-2.2677
X6.0394Y-1.5669
X6.2362Y-4.0315
X6.2913Y-3.5984
X6.3583Y-4.626
X6.6339Y-4.3307
X6.6535Y-3.8976
X6.6732Y-2.9331
X6.6732Y-3.4449
T2
X4.8031Y-2.126
X4.8031Y-2.226
X4.8031Y-2.326
T3
X5.278Y-2.2858
X5.278Y-2.3858
X5.278Y-2.4858
X5.278Y-2.5858
X5.278Y-2.6858
X5.278Y-2.7858
X5.278Y-2.8858
X5.278Y-2.9858
X5.278Y-3.0858
X5.278Y-3.1858
X5.278Y-3.2858
X5.278Y-3.3858
X6.378Y-2.2858
X6.378Y-2.3858
X6.378Y-2.4858
X6.378Y-2.5858
X6.378Y-2.6858
X6.378Y-2.7858
X6.378Y-2.8858
X6.378Y-2.9858
X6.378Y-3.0858
X6.378Y-3.1858
X6.378Y-3.2858
X6.378Y-3.3858
T4
X5.3745Y-2.1083
X5.3745Y-4.3918
X6.28Y-2.1083
X6.28Y-4.3918
M30
