%TF.GenerationSoftware,KiCad,Pcbnew,8.0.8-8.0.8-0~ubuntu24.04.1*%
%TF.CreationDate,2025-02-14T12:47:58-06:00*%
%TF.ProjectId,edge_human_detection_board,65646765-5f68-4756-9d61-6e5f64657465,rev?*%
%TF.SameCoordinates,Original*%
%TF.FileFunction,Legend,Top*%
%TF.FilePolarity,Positive*%
%FSLAX46Y46*%
G04 Gerber Fmt 4.6, Leading zero omitted, Abs format (unit mm)*
G04 Created by KiCad (PCBNEW 8.0.8-8.0.8-0~ubuntu24.04.1) date 2025-02-14 12:47:58*
%MOMM*%
%LPD*%
G01*
G04 APERTURE LIST*
%ADD10C,0.150000*%
%ADD11C,0.000000*%
G04 APERTURE END LIST*
D10*
X117574874Y-56294295D02*
X118032017Y-56294295D01*
X117803445Y-57094295D02*
X117803445Y-56294295D01*
X118222493Y-56294295D02*
X118755827Y-57094295D01*
X118755827Y-56294295D02*
X118222493Y-57094295D01*
X118146303Y-59494295D02*
X117879636Y-59113342D01*
X117689160Y-59494295D02*
X117689160Y-58694295D01*
X117689160Y-58694295D02*
X117993922Y-58694295D01*
X117993922Y-58694295D02*
X118070112Y-58732390D01*
X118070112Y-58732390D02*
X118108207Y-58770485D01*
X118108207Y-58770485D02*
X118146303Y-58846676D01*
X118146303Y-58846676D02*
X118146303Y-58960961D01*
X118146303Y-58960961D02*
X118108207Y-59037152D01*
X118108207Y-59037152D02*
X118070112Y-59075247D01*
X118070112Y-59075247D02*
X117993922Y-59113342D01*
X117993922Y-59113342D02*
X117689160Y-59113342D01*
X118412969Y-58694295D02*
X118946303Y-59494295D01*
X118946303Y-58694295D02*
X118412969Y-59494295D01*
X118108207Y-53532390D02*
X118032017Y-53494295D01*
X118032017Y-53494295D02*
X117917731Y-53494295D01*
X117917731Y-53494295D02*
X117803445Y-53532390D01*
X117803445Y-53532390D02*
X117727255Y-53608580D01*
X117727255Y-53608580D02*
X117689160Y-53684771D01*
X117689160Y-53684771D02*
X117651064Y-53837152D01*
X117651064Y-53837152D02*
X117651064Y-53951438D01*
X117651064Y-53951438D02*
X117689160Y-54103819D01*
X117689160Y-54103819D02*
X117727255Y-54180009D01*
X117727255Y-54180009D02*
X117803445Y-54256200D01*
X117803445Y-54256200D02*
X117917731Y-54294295D01*
X117917731Y-54294295D02*
X117993922Y-54294295D01*
X117993922Y-54294295D02*
X118108207Y-54256200D01*
X118108207Y-54256200D02*
X118146303Y-54218104D01*
X118146303Y-54218104D02*
X118146303Y-53951438D01*
X118146303Y-53951438D02*
X117993922Y-53951438D01*
X118489160Y-54294295D02*
X118489160Y-53494295D01*
X118489160Y-53494295D02*
X118946303Y-54294295D01*
X118946303Y-54294295D02*
X118946303Y-53494295D01*
X119327255Y-54294295D02*
X119327255Y-53494295D01*
X119327255Y-53494295D02*
X119517731Y-53494295D01*
X119517731Y-53494295D02*
X119632017Y-53532390D01*
X119632017Y-53532390D02*
X119708207Y-53608580D01*
X119708207Y-53608580D02*
X119746302Y-53684771D01*
X119746302Y-53684771D02*
X119784398Y-53837152D01*
X119784398Y-53837152D02*
X119784398Y-53951438D01*
X119784398Y-53951438D02*
X119746302Y-54103819D01*
X119746302Y-54103819D02*
X119708207Y-54180009D01*
X119708207Y-54180009D02*
X119632017Y-54256200D01*
X119632017Y-54256200D02*
X119517731Y-54294295D01*
X119517731Y-54294295D02*
X119327255Y-54294295D01*
X124137704Y-99909524D02*
X124937704Y-99909524D01*
X124937704Y-99909524D02*
X124937704Y-100100000D01*
X124937704Y-100100000D02*
X124899609Y-100214286D01*
X124899609Y-100214286D02*
X124823419Y-100290476D01*
X124823419Y-100290476D02*
X124747228Y-100328571D01*
X124747228Y-100328571D02*
X124594847Y-100366667D01*
X124594847Y-100366667D02*
X124480561Y-100366667D01*
X124480561Y-100366667D02*
X124328180Y-100328571D01*
X124328180Y-100328571D02*
X124251990Y-100290476D01*
X124251990Y-100290476D02*
X124175800Y-100214286D01*
X124175800Y-100214286D02*
X124137704Y-100100000D01*
X124137704Y-100100000D02*
X124137704Y-99909524D01*
X124937704Y-100633333D02*
X124937704Y-101128571D01*
X124937704Y-101128571D02*
X124632942Y-100861905D01*
X124632942Y-100861905D02*
X124632942Y-100976190D01*
X124632942Y-100976190D02*
X124594847Y-101052381D01*
X124594847Y-101052381D02*
X124556752Y-101090476D01*
X124556752Y-101090476D02*
X124480561Y-101128571D01*
X124480561Y-101128571D02*
X124290085Y-101128571D01*
X124290085Y-101128571D02*
X124213895Y-101090476D01*
X124213895Y-101090476D02*
X124175800Y-101052381D01*
X124175800Y-101052381D02*
X124137704Y-100976190D01*
X124137704Y-100976190D02*
X124137704Y-100747619D01*
X124137704Y-100747619D02*
X124175800Y-100671428D01*
X124175800Y-100671428D02*
X124213895Y-100633333D01*
X124137704Y-108409524D02*
X124937704Y-108409524D01*
X124937704Y-108409524D02*
X124937704Y-108600000D01*
X124937704Y-108600000D02*
X124899609Y-108714286D01*
X124899609Y-108714286D02*
X124823419Y-108790476D01*
X124823419Y-108790476D02*
X124747228Y-108828571D01*
X124747228Y-108828571D02*
X124594847Y-108866667D01*
X124594847Y-108866667D02*
X124480561Y-108866667D01*
X124480561Y-108866667D02*
X124328180Y-108828571D01*
X124328180Y-108828571D02*
X124251990Y-108790476D01*
X124251990Y-108790476D02*
X124175800Y-108714286D01*
X124175800Y-108714286D02*
X124137704Y-108600000D01*
X124137704Y-108600000D02*
X124137704Y-108409524D01*
X124671038Y-109552381D02*
X124137704Y-109552381D01*
X124975800Y-109361905D02*
X124404371Y-109171428D01*
X124404371Y-109171428D02*
X124404371Y-109666667D01*
X121219048Y-80862295D02*
X121219048Y-80062295D01*
X122057143Y-80786104D02*
X122019047Y-80824200D01*
X122019047Y-80824200D02*
X121904762Y-80862295D01*
X121904762Y-80862295D02*
X121828571Y-80862295D01*
X121828571Y-80862295D02*
X121714285Y-80824200D01*
X121714285Y-80824200D02*
X121638095Y-80748009D01*
X121638095Y-80748009D02*
X121600000Y-80671819D01*
X121600000Y-80671819D02*
X121561904Y-80519438D01*
X121561904Y-80519438D02*
X121561904Y-80405152D01*
X121561904Y-80405152D02*
X121600000Y-80252771D01*
X121600000Y-80252771D02*
X121638095Y-80176580D01*
X121638095Y-80176580D02*
X121714285Y-80100390D01*
X121714285Y-80100390D02*
X121828571Y-80062295D01*
X121828571Y-80062295D02*
X121904762Y-80062295D01*
X121904762Y-80062295D02*
X122019047Y-80100390D01*
X122019047Y-80100390D02*
X122057143Y-80138485D01*
X122819047Y-80862295D02*
X122361904Y-80862295D01*
X122590476Y-80862295D02*
X122590476Y-80062295D01*
X122590476Y-80062295D02*
X122514285Y-80176580D01*
X122514285Y-80176580D02*
X122438095Y-80252771D01*
X122438095Y-80252771D02*
X122361904Y-80290866D01*
X120409524Y-68212295D02*
X120409524Y-67412295D01*
X120409524Y-67412295D02*
X120600000Y-67412295D01*
X120600000Y-67412295D02*
X120714286Y-67450390D01*
X120714286Y-67450390D02*
X120790476Y-67526580D01*
X120790476Y-67526580D02*
X120828571Y-67602771D01*
X120828571Y-67602771D02*
X120866667Y-67755152D01*
X120866667Y-67755152D02*
X120866667Y-67869438D01*
X120866667Y-67869438D02*
X120828571Y-68021819D01*
X120828571Y-68021819D02*
X120790476Y-68098009D01*
X120790476Y-68098009D02*
X120714286Y-68174200D01*
X120714286Y-68174200D02*
X120600000Y-68212295D01*
X120600000Y-68212295D02*
X120409524Y-68212295D01*
X121628571Y-68212295D02*
X121171428Y-68212295D01*
X121400000Y-68212295D02*
X121400000Y-67412295D01*
X121400000Y-67412295D02*
X121323809Y-67526580D01*
X121323809Y-67526580D02*
X121247619Y-67602771D01*
X121247619Y-67602771D02*
X121171428Y-67640866D01*
X119357143Y-92254819D02*
X119452381Y-92254819D01*
X119452381Y-92254819D02*
X119547619Y-92302438D01*
X119547619Y-92302438D02*
X119595238Y-92350057D01*
X119595238Y-92350057D02*
X119642857Y-92445295D01*
X119642857Y-92445295D02*
X119690476Y-92635771D01*
X119690476Y-92635771D02*
X119690476Y-92873866D01*
X119690476Y-92873866D02*
X119642857Y-93064342D01*
X119642857Y-93064342D02*
X119595238Y-93159580D01*
X119595238Y-93159580D02*
X119547619Y-93207200D01*
X119547619Y-93207200D02*
X119452381Y-93254819D01*
X119452381Y-93254819D02*
X119357143Y-93254819D01*
X119357143Y-93254819D02*
X119261905Y-93207200D01*
X119261905Y-93207200D02*
X119214286Y-93159580D01*
X119214286Y-93159580D02*
X119166667Y-93064342D01*
X119166667Y-93064342D02*
X119119048Y-92873866D01*
X119119048Y-92873866D02*
X119119048Y-92635771D01*
X119119048Y-92635771D02*
X119166667Y-92445295D01*
X119166667Y-92445295D02*
X119214286Y-92350057D01*
X119214286Y-92350057D02*
X119261905Y-92302438D01*
X119261905Y-92302438D02*
X119357143Y-92254819D01*
X120119048Y-93159580D02*
X120166667Y-93207200D01*
X120166667Y-93207200D02*
X120119048Y-93254819D01*
X120119048Y-93254819D02*
X120071429Y-93207200D01*
X120071429Y-93207200D02*
X120119048Y-93159580D01*
X120119048Y-93159580D02*
X120119048Y-93254819D01*
X121119047Y-93254819D02*
X120547619Y-93254819D01*
X120833333Y-93254819D02*
X120833333Y-92254819D01*
X120833333Y-92254819D02*
X120738095Y-92397676D01*
X120738095Y-92397676D02*
X120642857Y-92492914D01*
X120642857Y-92492914D02*
X120547619Y-92540533D01*
X121976190Y-92588152D02*
X121976190Y-93254819D01*
X121547619Y-92588152D02*
X121547619Y-93111961D01*
X121547619Y-93111961D02*
X121595238Y-93207200D01*
X121595238Y-93207200D02*
X121690476Y-93254819D01*
X121690476Y-93254819D02*
X121833333Y-93254819D01*
X121833333Y-93254819D02*
X121928571Y-93207200D01*
X121928571Y-93207200D02*
X121976190Y-93159580D01*
X122785714Y-92731009D02*
X122452381Y-92731009D01*
X122452381Y-93254819D02*
X122452381Y-92254819D01*
X122452381Y-92254819D02*
X122928571Y-92254819D01*
X128454819Y-91642856D02*
X128454819Y-91547618D01*
X128454819Y-91547618D02*
X128502438Y-91452380D01*
X128502438Y-91452380D02*
X128550057Y-91404761D01*
X128550057Y-91404761D02*
X128645295Y-91357142D01*
X128645295Y-91357142D02*
X128835771Y-91309523D01*
X128835771Y-91309523D02*
X129073866Y-91309523D01*
X129073866Y-91309523D02*
X129264342Y-91357142D01*
X129264342Y-91357142D02*
X129359580Y-91404761D01*
X129359580Y-91404761D02*
X129407200Y-91452380D01*
X129407200Y-91452380D02*
X129454819Y-91547618D01*
X129454819Y-91547618D02*
X129454819Y-91642856D01*
X129454819Y-91642856D02*
X129407200Y-91738094D01*
X129407200Y-91738094D02*
X129359580Y-91785713D01*
X129359580Y-91785713D02*
X129264342Y-91833332D01*
X129264342Y-91833332D02*
X129073866Y-91880951D01*
X129073866Y-91880951D02*
X128835771Y-91880951D01*
X128835771Y-91880951D02*
X128645295Y-91833332D01*
X128645295Y-91833332D02*
X128550057Y-91785713D01*
X128550057Y-91785713D02*
X128502438Y-91738094D01*
X128502438Y-91738094D02*
X128454819Y-91642856D01*
X129359580Y-90880951D02*
X129407200Y-90833332D01*
X129407200Y-90833332D02*
X129454819Y-90880951D01*
X129454819Y-90880951D02*
X129407200Y-90928570D01*
X129407200Y-90928570D02*
X129359580Y-90880951D01*
X129359580Y-90880951D02*
X129454819Y-90880951D01*
X129454819Y-89880952D02*
X129454819Y-90452380D01*
X129454819Y-90166666D02*
X128454819Y-90166666D01*
X128454819Y-90166666D02*
X128597676Y-90261904D01*
X128597676Y-90261904D02*
X128692914Y-90357142D01*
X128692914Y-90357142D02*
X128740533Y-90452380D01*
X128788152Y-89023809D02*
X129454819Y-89023809D01*
X128788152Y-89452380D02*
X129311961Y-89452380D01*
X129311961Y-89452380D02*
X129407200Y-89404761D01*
X129407200Y-89404761D02*
X129454819Y-89309523D01*
X129454819Y-89309523D02*
X129454819Y-89166666D01*
X129454819Y-89166666D02*
X129407200Y-89071428D01*
X129407200Y-89071428D02*
X129359580Y-89023809D01*
X128931009Y-88214285D02*
X128931009Y-88547618D01*
X129454819Y-88547618D02*
X128454819Y-88547618D01*
X128454819Y-88547618D02*
X128454819Y-88071428D01*
X121733333Y-51232295D02*
X121733333Y-51803723D01*
X121733333Y-51803723D02*
X121695238Y-51918009D01*
X121695238Y-51918009D02*
X121619047Y-51994200D01*
X121619047Y-51994200D02*
X121504762Y-52032295D01*
X121504762Y-52032295D02*
X121428571Y-52032295D01*
X122533333Y-52032295D02*
X122076190Y-52032295D01*
X122304762Y-52032295D02*
X122304762Y-51232295D01*
X122304762Y-51232295D02*
X122228571Y-51346580D01*
X122228571Y-51346580D02*
X122152381Y-51422771D01*
X122152381Y-51422771D02*
X122076190Y-51460866D01*
X124137704Y-91909524D02*
X124937704Y-91909524D01*
X124937704Y-91909524D02*
X124937704Y-92100000D01*
X124937704Y-92100000D02*
X124899609Y-92214286D01*
X124899609Y-92214286D02*
X124823419Y-92290476D01*
X124823419Y-92290476D02*
X124747228Y-92328571D01*
X124747228Y-92328571D02*
X124594847Y-92366667D01*
X124594847Y-92366667D02*
X124480561Y-92366667D01*
X124480561Y-92366667D02*
X124328180Y-92328571D01*
X124328180Y-92328571D02*
X124251990Y-92290476D01*
X124251990Y-92290476D02*
X124175800Y-92214286D01*
X124175800Y-92214286D02*
X124137704Y-92100000D01*
X124137704Y-92100000D02*
X124137704Y-91909524D01*
X124861514Y-92671428D02*
X124899609Y-92709524D01*
X124899609Y-92709524D02*
X124937704Y-92785714D01*
X124937704Y-92785714D02*
X124937704Y-92976190D01*
X124937704Y-92976190D02*
X124899609Y-93052381D01*
X124899609Y-93052381D02*
X124861514Y-93090476D01*
X124861514Y-93090476D02*
X124785323Y-93128571D01*
X124785323Y-93128571D02*
X124709133Y-93128571D01*
X124709133Y-93128571D02*
X124594847Y-93090476D01*
X124594847Y-93090476D02*
X124137704Y-92633333D01*
X124137704Y-92633333D02*
X124137704Y-93128571D01*
X158305704Y-60708207D02*
X158305704Y-60251064D01*
X158305704Y-60479636D02*
X159105704Y-60479636D01*
X159105704Y-60479636D02*
X158991419Y-60403445D01*
X158991419Y-60403445D02*
X158915228Y-60327255D01*
X158915228Y-60327255D02*
X158877133Y-60251064D01*
X159105704Y-60936779D02*
X158305704Y-61203446D01*
X158305704Y-61203446D02*
X159105704Y-61470112D01*
X158762847Y-61851064D02*
X158800942Y-61774874D01*
X158800942Y-61774874D02*
X158839038Y-61736779D01*
X158839038Y-61736779D02*
X158915228Y-61698683D01*
X158915228Y-61698683D02*
X158953323Y-61698683D01*
X158953323Y-61698683D02*
X159029514Y-61736779D01*
X159029514Y-61736779D02*
X159067609Y-61774874D01*
X159067609Y-61774874D02*
X159105704Y-61851064D01*
X159105704Y-61851064D02*
X159105704Y-62003445D01*
X159105704Y-62003445D02*
X159067609Y-62079636D01*
X159067609Y-62079636D02*
X159029514Y-62117731D01*
X159029514Y-62117731D02*
X158953323Y-62155826D01*
X158953323Y-62155826D02*
X158915228Y-62155826D01*
X158915228Y-62155826D02*
X158839038Y-62117731D01*
X158839038Y-62117731D02*
X158800942Y-62079636D01*
X158800942Y-62079636D02*
X158762847Y-62003445D01*
X158762847Y-62003445D02*
X158762847Y-61851064D01*
X158762847Y-61851064D02*
X158724752Y-61774874D01*
X158724752Y-61774874D02*
X158686657Y-61736779D01*
X158686657Y-61736779D02*
X158610466Y-61698683D01*
X158610466Y-61698683D02*
X158458085Y-61698683D01*
X158458085Y-61698683D02*
X158381895Y-61736779D01*
X158381895Y-61736779D02*
X158343800Y-61774874D01*
X158343800Y-61774874D02*
X158305704Y-61851064D01*
X158305704Y-61851064D02*
X158305704Y-62003445D01*
X158305704Y-62003445D02*
X158343800Y-62079636D01*
X158343800Y-62079636D02*
X158381895Y-62117731D01*
X158381895Y-62117731D02*
X158458085Y-62155826D01*
X158458085Y-62155826D02*
X158610466Y-62155826D01*
X158610466Y-62155826D02*
X158686657Y-62117731D01*
X158686657Y-62117731D02*
X158724752Y-62079636D01*
X158724752Y-62079636D02*
X158762847Y-62003445D01*
X157543800Y-82051064D02*
X157505704Y-82165350D01*
X157505704Y-82165350D02*
X157505704Y-82355826D01*
X157505704Y-82355826D02*
X157543800Y-82432017D01*
X157543800Y-82432017D02*
X157581895Y-82470112D01*
X157581895Y-82470112D02*
X157658085Y-82508207D01*
X157658085Y-82508207D02*
X157734276Y-82508207D01*
X157734276Y-82508207D02*
X157810466Y-82470112D01*
X157810466Y-82470112D02*
X157848561Y-82432017D01*
X157848561Y-82432017D02*
X157886657Y-82355826D01*
X157886657Y-82355826D02*
X157924752Y-82203445D01*
X157924752Y-82203445D02*
X157962847Y-82127255D01*
X157962847Y-82127255D02*
X158000942Y-82089160D01*
X158000942Y-82089160D02*
X158077133Y-82051064D01*
X158077133Y-82051064D02*
X158153323Y-82051064D01*
X158153323Y-82051064D02*
X158229514Y-82089160D01*
X158229514Y-82089160D02*
X158267609Y-82127255D01*
X158267609Y-82127255D02*
X158305704Y-82203445D01*
X158305704Y-82203445D02*
X158305704Y-82393922D01*
X158305704Y-82393922D02*
X158267609Y-82508207D01*
X157581895Y-83308208D02*
X157543800Y-83270112D01*
X157543800Y-83270112D02*
X157505704Y-83155827D01*
X157505704Y-83155827D02*
X157505704Y-83079636D01*
X157505704Y-83079636D02*
X157543800Y-82965350D01*
X157543800Y-82965350D02*
X157619990Y-82889160D01*
X157619990Y-82889160D02*
X157696180Y-82851065D01*
X157696180Y-82851065D02*
X157848561Y-82812969D01*
X157848561Y-82812969D02*
X157962847Y-82812969D01*
X157962847Y-82812969D02*
X158115228Y-82851065D01*
X158115228Y-82851065D02*
X158191419Y-82889160D01*
X158191419Y-82889160D02*
X158267609Y-82965350D01*
X158267609Y-82965350D02*
X158305704Y-83079636D01*
X158305704Y-83079636D02*
X158305704Y-83155827D01*
X158305704Y-83155827D02*
X158267609Y-83270112D01*
X158267609Y-83270112D02*
X158229514Y-83308208D01*
X157505704Y-84032017D02*
X157505704Y-83651065D01*
X157505704Y-83651065D02*
X158305704Y-83651065D01*
X157505704Y-84717731D02*
X157505704Y-84260588D01*
X157505704Y-84489160D02*
X158305704Y-84489160D01*
X158305704Y-84489160D02*
X158191419Y-84412969D01*
X158191419Y-84412969D02*
X158115228Y-84336779D01*
X158115228Y-84336779D02*
X158077133Y-84260588D01*
X136905704Y-86174874D02*
X136105704Y-86441541D01*
X136105704Y-86441541D02*
X136905704Y-86708207D01*
X136143800Y-86936778D02*
X136105704Y-87051064D01*
X136105704Y-87051064D02*
X136105704Y-87241540D01*
X136105704Y-87241540D02*
X136143800Y-87317731D01*
X136143800Y-87317731D02*
X136181895Y-87355826D01*
X136181895Y-87355826D02*
X136258085Y-87393921D01*
X136258085Y-87393921D02*
X136334276Y-87393921D01*
X136334276Y-87393921D02*
X136410466Y-87355826D01*
X136410466Y-87355826D02*
X136448561Y-87317731D01*
X136448561Y-87317731D02*
X136486657Y-87241540D01*
X136486657Y-87241540D02*
X136524752Y-87089159D01*
X136524752Y-87089159D02*
X136562847Y-87012969D01*
X136562847Y-87012969D02*
X136600942Y-86974874D01*
X136600942Y-86974874D02*
X136677133Y-86936778D01*
X136677133Y-86936778D02*
X136753323Y-86936778D01*
X136753323Y-86936778D02*
X136829514Y-86974874D01*
X136829514Y-86974874D02*
X136867609Y-87012969D01*
X136867609Y-87012969D02*
X136905704Y-87089159D01*
X136905704Y-87089159D02*
X136905704Y-87279636D01*
X136905704Y-87279636D02*
X136867609Y-87393921D01*
X136486657Y-87889160D02*
X136105704Y-87889160D01*
X136905704Y-87622493D02*
X136486657Y-87889160D01*
X136486657Y-87889160D02*
X136905704Y-88155826D01*
X136143800Y-88384397D02*
X136105704Y-88498683D01*
X136105704Y-88498683D02*
X136105704Y-88689159D01*
X136105704Y-88689159D02*
X136143800Y-88765350D01*
X136143800Y-88765350D02*
X136181895Y-88803445D01*
X136181895Y-88803445D02*
X136258085Y-88841540D01*
X136258085Y-88841540D02*
X136334276Y-88841540D01*
X136334276Y-88841540D02*
X136410466Y-88803445D01*
X136410466Y-88803445D02*
X136448561Y-88765350D01*
X136448561Y-88765350D02*
X136486657Y-88689159D01*
X136486657Y-88689159D02*
X136524752Y-88536778D01*
X136524752Y-88536778D02*
X136562847Y-88460588D01*
X136562847Y-88460588D02*
X136600942Y-88422493D01*
X136600942Y-88422493D02*
X136677133Y-88384397D01*
X136677133Y-88384397D02*
X136753323Y-88384397D01*
X136753323Y-88384397D02*
X136829514Y-88422493D01*
X136829514Y-88422493D02*
X136867609Y-88460588D01*
X136867609Y-88460588D02*
X136905704Y-88536778D01*
X136905704Y-88536778D02*
X136905704Y-88727255D01*
X136905704Y-88727255D02*
X136867609Y-88841540D01*
X136284384Y-61108207D02*
X136284384Y-60651064D01*
X136284384Y-60879636D02*
X137084384Y-60879636D01*
X137084384Y-60879636D02*
X136970099Y-60803445D01*
X136970099Y-60803445D02*
X136893908Y-60727255D01*
X136893908Y-60727255D02*
X136855813Y-60651064D01*
X137084384Y-61336779D02*
X136284384Y-61603446D01*
X136284384Y-61603446D02*
X137084384Y-61870112D01*
X136741527Y-62251064D02*
X136779622Y-62174874D01*
X136779622Y-62174874D02*
X136817718Y-62136779D01*
X136817718Y-62136779D02*
X136893908Y-62098683D01*
X136893908Y-62098683D02*
X136932003Y-62098683D01*
X136932003Y-62098683D02*
X137008194Y-62136779D01*
X137008194Y-62136779D02*
X137046289Y-62174874D01*
X137046289Y-62174874D02*
X137084384Y-62251064D01*
X137084384Y-62251064D02*
X137084384Y-62403445D01*
X137084384Y-62403445D02*
X137046289Y-62479636D01*
X137046289Y-62479636D02*
X137008194Y-62517731D01*
X137008194Y-62517731D02*
X136932003Y-62555826D01*
X136932003Y-62555826D02*
X136893908Y-62555826D01*
X136893908Y-62555826D02*
X136817718Y-62517731D01*
X136817718Y-62517731D02*
X136779622Y-62479636D01*
X136779622Y-62479636D02*
X136741527Y-62403445D01*
X136741527Y-62403445D02*
X136741527Y-62251064D01*
X136741527Y-62251064D02*
X136703432Y-62174874D01*
X136703432Y-62174874D02*
X136665337Y-62136779D01*
X136665337Y-62136779D02*
X136589146Y-62098683D01*
X136589146Y-62098683D02*
X136436765Y-62098683D01*
X136436765Y-62098683D02*
X136360575Y-62136779D01*
X136360575Y-62136779D02*
X136322480Y-62174874D01*
X136322480Y-62174874D02*
X136284384Y-62251064D01*
X136284384Y-62251064D02*
X136284384Y-62403445D01*
X136284384Y-62403445D02*
X136322480Y-62479636D01*
X136322480Y-62479636D02*
X136360575Y-62517731D01*
X136360575Y-62517731D02*
X136436765Y-62555826D01*
X136436765Y-62555826D02*
X136589146Y-62555826D01*
X136589146Y-62555826D02*
X136665337Y-62517731D01*
X136665337Y-62517731D02*
X136703432Y-62479636D01*
X136703432Y-62479636D02*
X136741527Y-62403445D01*
X161207916Y-100655953D02*
X161588869Y-100389286D01*
X161207916Y-100198810D02*
X162007916Y-100198810D01*
X162007916Y-100198810D02*
X162007916Y-100503572D01*
X162007916Y-100503572D02*
X161969821Y-100579762D01*
X161969821Y-100579762D02*
X161931726Y-100617857D01*
X161931726Y-100617857D02*
X161855535Y-100655953D01*
X161855535Y-100655953D02*
X161741250Y-100655953D01*
X161741250Y-100655953D02*
X161665059Y-100617857D01*
X161665059Y-100617857D02*
X161626964Y-100579762D01*
X161626964Y-100579762D02*
X161588869Y-100503572D01*
X161588869Y-100503572D02*
X161588869Y-100198810D01*
X161246012Y-100960714D02*
X161207916Y-101075000D01*
X161207916Y-101075000D02*
X161207916Y-101265476D01*
X161207916Y-101265476D02*
X161246012Y-101341667D01*
X161246012Y-101341667D02*
X161284107Y-101379762D01*
X161284107Y-101379762D02*
X161360297Y-101417857D01*
X161360297Y-101417857D02*
X161436488Y-101417857D01*
X161436488Y-101417857D02*
X161512678Y-101379762D01*
X161512678Y-101379762D02*
X161550773Y-101341667D01*
X161550773Y-101341667D02*
X161588869Y-101265476D01*
X161588869Y-101265476D02*
X161626964Y-101113095D01*
X161626964Y-101113095D02*
X161665059Y-101036905D01*
X161665059Y-101036905D02*
X161703154Y-100998810D01*
X161703154Y-100998810D02*
X161779345Y-100960714D01*
X161779345Y-100960714D02*
X161855535Y-100960714D01*
X161855535Y-100960714D02*
X161931726Y-100998810D01*
X161931726Y-100998810D02*
X161969821Y-101036905D01*
X161969821Y-101036905D02*
X162007916Y-101113095D01*
X162007916Y-101113095D02*
X162007916Y-101303572D01*
X162007916Y-101303572D02*
X161969821Y-101417857D01*
X162007916Y-101646429D02*
X162007916Y-102103572D01*
X161207916Y-101875000D02*
X162007916Y-101875000D01*
X144904874Y-65031733D02*
X145362017Y-65031733D01*
X145133445Y-65831733D02*
X145133445Y-65031733D01*
X145628684Y-65831733D02*
X145628684Y-65031733D01*
X145628684Y-65031733D02*
X145933446Y-65031733D01*
X145933446Y-65031733D02*
X146009636Y-65069828D01*
X146009636Y-65069828D02*
X146047731Y-65107923D01*
X146047731Y-65107923D02*
X146085827Y-65184114D01*
X146085827Y-65184114D02*
X146085827Y-65298399D01*
X146085827Y-65298399D02*
X146047731Y-65374590D01*
X146047731Y-65374590D02*
X146009636Y-65412685D01*
X146009636Y-65412685D02*
X145933446Y-65450780D01*
X145933446Y-65450780D02*
X145628684Y-65450780D01*
X146428684Y-65031733D02*
X146428684Y-65679352D01*
X146428684Y-65679352D02*
X146466779Y-65755542D01*
X146466779Y-65755542D02*
X146504874Y-65793638D01*
X146504874Y-65793638D02*
X146581065Y-65831733D01*
X146581065Y-65831733D02*
X146733446Y-65831733D01*
X146733446Y-65831733D02*
X146809636Y-65793638D01*
X146809636Y-65793638D02*
X146847731Y-65755542D01*
X146847731Y-65755542D02*
X146885827Y-65679352D01*
X146885827Y-65679352D02*
X146885827Y-65031733D01*
X136505704Y-71146303D02*
X136886657Y-70879636D01*
X136505704Y-70689160D02*
X137305704Y-70689160D01*
X137305704Y-70689160D02*
X137305704Y-70993922D01*
X137305704Y-70993922D02*
X137267609Y-71070112D01*
X137267609Y-71070112D02*
X137229514Y-71108207D01*
X137229514Y-71108207D02*
X137153323Y-71146303D01*
X137153323Y-71146303D02*
X137039038Y-71146303D01*
X137039038Y-71146303D02*
X136962847Y-71108207D01*
X136962847Y-71108207D02*
X136924752Y-71070112D01*
X136924752Y-71070112D02*
X136886657Y-70993922D01*
X136886657Y-70993922D02*
X136886657Y-70689160D01*
X137305704Y-71412969D02*
X136505704Y-71946303D01*
X137305704Y-71946303D02*
X136505704Y-71412969D01*
X136505704Y-72251065D02*
X137305704Y-72251065D01*
X137305704Y-72251065D02*
X137305704Y-72441541D01*
X137305704Y-72441541D02*
X137267609Y-72555827D01*
X137267609Y-72555827D02*
X137191419Y-72632017D01*
X137191419Y-72632017D02*
X137115228Y-72670112D01*
X137115228Y-72670112D02*
X136962847Y-72708208D01*
X136962847Y-72708208D02*
X136848561Y-72708208D01*
X136848561Y-72708208D02*
X136696180Y-72670112D01*
X136696180Y-72670112D02*
X136619990Y-72632017D01*
X136619990Y-72632017D02*
X136543800Y-72555827D01*
X136543800Y-72555827D02*
X136505704Y-72441541D01*
X136505704Y-72441541D02*
X136505704Y-72251065D01*
X138505704Y-76689160D02*
X139305704Y-76689160D01*
X139305704Y-76689160D02*
X139305704Y-76993922D01*
X139305704Y-76993922D02*
X139267609Y-77070112D01*
X139267609Y-77070112D02*
X139229514Y-77108207D01*
X139229514Y-77108207D02*
X139153323Y-77146303D01*
X139153323Y-77146303D02*
X139039038Y-77146303D01*
X139039038Y-77146303D02*
X138962847Y-77108207D01*
X138962847Y-77108207D02*
X138924752Y-77070112D01*
X138924752Y-77070112D02*
X138886657Y-76993922D01*
X138886657Y-76993922D02*
X138886657Y-76689160D01*
X139305704Y-77412969D02*
X138505704Y-77603445D01*
X138505704Y-77603445D02*
X139077133Y-77755826D01*
X139077133Y-77755826D02*
X138505704Y-77908207D01*
X138505704Y-77908207D02*
X139305704Y-78098684D01*
X138505704Y-78403446D02*
X139305704Y-78403446D01*
X139305704Y-78403446D02*
X138734276Y-78670112D01*
X138734276Y-78670112D02*
X139305704Y-78936779D01*
X139305704Y-78936779D02*
X138505704Y-78936779D01*
X138505704Y-79736779D02*
X138505704Y-79279636D01*
X138505704Y-79508208D02*
X139305704Y-79508208D01*
X139305704Y-79508208D02*
X139191419Y-79432017D01*
X139191419Y-79432017D02*
X139115228Y-79355827D01*
X139115228Y-79355827D02*
X139077133Y-79279636D01*
X144946303Y-56755542D02*
X144908207Y-56793638D01*
X144908207Y-56793638D02*
X144793922Y-56831733D01*
X144793922Y-56831733D02*
X144717731Y-56831733D01*
X144717731Y-56831733D02*
X144603445Y-56793638D01*
X144603445Y-56793638D02*
X144527255Y-56717447D01*
X144527255Y-56717447D02*
X144489160Y-56641257D01*
X144489160Y-56641257D02*
X144451064Y-56488876D01*
X144451064Y-56488876D02*
X144451064Y-56374590D01*
X144451064Y-56374590D02*
X144489160Y-56222209D01*
X144489160Y-56222209D02*
X144527255Y-56146018D01*
X144527255Y-56146018D02*
X144603445Y-56069828D01*
X144603445Y-56069828D02*
X144717731Y-56031733D01*
X144717731Y-56031733D02*
X144793922Y-56031733D01*
X144793922Y-56031733D02*
X144908207Y-56069828D01*
X144908207Y-56069828D02*
X144946303Y-56107923D01*
X145251064Y-56603161D02*
X145632017Y-56603161D01*
X145174874Y-56831733D02*
X145441541Y-56031733D01*
X145441541Y-56031733D02*
X145708207Y-56831733D01*
X145974874Y-56831733D02*
X145974874Y-56031733D01*
X145974874Y-56031733D02*
X146241540Y-56603161D01*
X146241540Y-56603161D02*
X146508207Y-56031733D01*
X146508207Y-56031733D02*
X146508207Y-56831733D01*
X143231174Y-53949895D02*
X143231174Y-53149895D01*
X143231174Y-53149895D02*
X143421650Y-53149895D01*
X143421650Y-53149895D02*
X143535936Y-53187990D01*
X143535936Y-53187990D02*
X143612126Y-53264180D01*
X143612126Y-53264180D02*
X143650221Y-53340371D01*
X143650221Y-53340371D02*
X143688317Y-53492752D01*
X143688317Y-53492752D02*
X143688317Y-53607038D01*
X143688317Y-53607038D02*
X143650221Y-53759419D01*
X143650221Y-53759419D02*
X143612126Y-53835609D01*
X143612126Y-53835609D02*
X143535936Y-53911800D01*
X143535936Y-53911800D02*
X143421650Y-53949895D01*
X143421650Y-53949895D02*
X143231174Y-53949895D01*
X144335936Y-53911800D02*
X144259745Y-53949895D01*
X144259745Y-53949895D02*
X144107364Y-53949895D01*
X144107364Y-53949895D02*
X144031174Y-53911800D01*
X144031174Y-53911800D02*
X143993078Y-53835609D01*
X143993078Y-53835609D02*
X143993078Y-53530847D01*
X143993078Y-53530847D02*
X144031174Y-53454657D01*
X144031174Y-53454657D02*
X144107364Y-53416561D01*
X144107364Y-53416561D02*
X144259745Y-53416561D01*
X144259745Y-53416561D02*
X144335936Y-53454657D01*
X144335936Y-53454657D02*
X144374031Y-53530847D01*
X144374031Y-53530847D02*
X144374031Y-53607038D01*
X144374031Y-53607038D02*
X143993078Y-53683228D01*
X144640697Y-53416561D02*
X144831173Y-53949895D01*
X144831173Y-53949895D02*
X145021650Y-53416561D01*
X146202602Y-53530847D02*
X146316888Y-53568942D01*
X146316888Y-53568942D02*
X146354983Y-53607038D01*
X146354983Y-53607038D02*
X146393079Y-53683228D01*
X146393079Y-53683228D02*
X146393079Y-53797514D01*
X146393079Y-53797514D02*
X146354983Y-53873704D01*
X146354983Y-53873704D02*
X146316888Y-53911800D01*
X146316888Y-53911800D02*
X146240698Y-53949895D01*
X146240698Y-53949895D02*
X145935936Y-53949895D01*
X145935936Y-53949895D02*
X145935936Y-53149895D01*
X145935936Y-53149895D02*
X146202602Y-53149895D01*
X146202602Y-53149895D02*
X146278793Y-53187990D01*
X146278793Y-53187990D02*
X146316888Y-53226085D01*
X146316888Y-53226085D02*
X146354983Y-53302276D01*
X146354983Y-53302276D02*
X146354983Y-53378466D01*
X146354983Y-53378466D02*
X146316888Y-53454657D01*
X146316888Y-53454657D02*
X146278793Y-53492752D01*
X146278793Y-53492752D02*
X146202602Y-53530847D01*
X146202602Y-53530847D02*
X145935936Y-53530847D01*
X146850221Y-53949895D02*
X146774031Y-53911800D01*
X146774031Y-53911800D02*
X146735936Y-53873704D01*
X146735936Y-53873704D02*
X146697840Y-53797514D01*
X146697840Y-53797514D02*
X146697840Y-53568942D01*
X146697840Y-53568942D02*
X146735936Y-53492752D01*
X146735936Y-53492752D02*
X146774031Y-53454657D01*
X146774031Y-53454657D02*
X146850221Y-53416561D01*
X146850221Y-53416561D02*
X146964507Y-53416561D01*
X146964507Y-53416561D02*
X147040698Y-53454657D01*
X147040698Y-53454657D02*
X147078793Y-53492752D01*
X147078793Y-53492752D02*
X147116888Y-53568942D01*
X147116888Y-53568942D02*
X147116888Y-53797514D01*
X147116888Y-53797514D02*
X147078793Y-53873704D01*
X147078793Y-53873704D02*
X147040698Y-53911800D01*
X147040698Y-53911800D02*
X146964507Y-53949895D01*
X146964507Y-53949895D02*
X146850221Y-53949895D01*
X147802603Y-53949895D02*
X147802603Y-53530847D01*
X147802603Y-53530847D02*
X147764508Y-53454657D01*
X147764508Y-53454657D02*
X147688317Y-53416561D01*
X147688317Y-53416561D02*
X147535936Y-53416561D01*
X147535936Y-53416561D02*
X147459746Y-53454657D01*
X147802603Y-53911800D02*
X147726412Y-53949895D01*
X147726412Y-53949895D02*
X147535936Y-53949895D01*
X147535936Y-53949895D02*
X147459746Y-53911800D01*
X147459746Y-53911800D02*
X147421650Y-53835609D01*
X147421650Y-53835609D02*
X147421650Y-53759419D01*
X147421650Y-53759419D02*
X147459746Y-53683228D01*
X147459746Y-53683228D02*
X147535936Y-53645133D01*
X147535936Y-53645133D02*
X147726412Y-53645133D01*
X147726412Y-53645133D02*
X147802603Y-53607038D01*
X148183556Y-53949895D02*
X148183556Y-53416561D01*
X148183556Y-53568942D02*
X148221651Y-53492752D01*
X148221651Y-53492752D02*
X148259746Y-53454657D01*
X148259746Y-53454657D02*
X148335937Y-53416561D01*
X148335937Y-53416561D02*
X148412127Y-53416561D01*
X149021651Y-53949895D02*
X149021651Y-53149895D01*
X149021651Y-53911800D02*
X148945460Y-53949895D01*
X148945460Y-53949895D02*
X148793079Y-53949895D01*
X148793079Y-53949895D02*
X148716889Y-53911800D01*
X148716889Y-53911800D02*
X148678794Y-53873704D01*
X148678794Y-53873704D02*
X148640698Y-53797514D01*
X148640698Y-53797514D02*
X148640698Y-53568942D01*
X148640698Y-53568942D02*
X148678794Y-53492752D01*
X148678794Y-53492752D02*
X148716889Y-53454657D01*
X148716889Y-53454657D02*
X148793079Y-53416561D01*
X148793079Y-53416561D02*
X148945460Y-53416561D01*
X148945460Y-53416561D02*
X149021651Y-53454657D01*
X150012128Y-53949895D02*
X150012128Y-53149895D01*
X150012128Y-53149895D02*
X150278794Y-53721323D01*
X150278794Y-53721323D02*
X150545461Y-53149895D01*
X150545461Y-53149895D02*
X150545461Y-53949895D01*
X150926414Y-53949895D02*
X150926414Y-53416561D01*
X150926414Y-53149895D02*
X150888318Y-53187990D01*
X150888318Y-53187990D02*
X150926414Y-53226085D01*
X150926414Y-53226085D02*
X150964509Y-53187990D01*
X150964509Y-53187990D02*
X150926414Y-53149895D01*
X150926414Y-53149895D02*
X150926414Y-53226085D01*
X151650223Y-53911800D02*
X151574032Y-53949895D01*
X151574032Y-53949895D02*
X151421651Y-53949895D01*
X151421651Y-53949895D02*
X151345461Y-53911800D01*
X151345461Y-53911800D02*
X151307366Y-53873704D01*
X151307366Y-53873704D02*
X151269270Y-53797514D01*
X151269270Y-53797514D02*
X151269270Y-53568942D01*
X151269270Y-53568942D02*
X151307366Y-53492752D01*
X151307366Y-53492752D02*
X151345461Y-53454657D01*
X151345461Y-53454657D02*
X151421651Y-53416561D01*
X151421651Y-53416561D02*
X151574032Y-53416561D01*
X151574032Y-53416561D02*
X151650223Y-53454657D01*
X151993080Y-53949895D02*
X151993080Y-53416561D01*
X151993080Y-53568942D02*
X152031175Y-53492752D01*
X152031175Y-53492752D02*
X152069270Y-53454657D01*
X152069270Y-53454657D02*
X152145461Y-53416561D01*
X152145461Y-53416561D02*
X152221651Y-53416561D01*
X152602603Y-53949895D02*
X152526413Y-53911800D01*
X152526413Y-53911800D02*
X152488318Y-53873704D01*
X152488318Y-53873704D02*
X152450222Y-53797514D01*
X152450222Y-53797514D02*
X152450222Y-53568942D01*
X152450222Y-53568942D02*
X152488318Y-53492752D01*
X152488318Y-53492752D02*
X152526413Y-53454657D01*
X152526413Y-53454657D02*
X152602603Y-53416561D01*
X152602603Y-53416561D02*
X152716889Y-53416561D01*
X152716889Y-53416561D02*
X152793080Y-53454657D01*
X152793080Y-53454657D02*
X152831175Y-53492752D01*
X152831175Y-53492752D02*
X152869270Y-53568942D01*
X152869270Y-53568942D02*
X152869270Y-53797514D01*
X152869270Y-53797514D02*
X152831175Y-53873704D01*
X152831175Y-53873704D02*
X152793080Y-53911800D01*
X152793080Y-53911800D02*
X152716889Y-53949895D01*
X152716889Y-53949895D02*
X152602603Y-53949895D01*
X137046289Y-58093527D02*
X137084384Y-58017337D01*
X137084384Y-58017337D02*
X137084384Y-57903051D01*
X137084384Y-57903051D02*
X137046289Y-57788765D01*
X137046289Y-57788765D02*
X136970099Y-57712575D01*
X136970099Y-57712575D02*
X136893908Y-57674480D01*
X136893908Y-57674480D02*
X136741527Y-57636384D01*
X136741527Y-57636384D02*
X136627241Y-57636384D01*
X136627241Y-57636384D02*
X136474860Y-57674480D01*
X136474860Y-57674480D02*
X136398670Y-57712575D01*
X136398670Y-57712575D02*
X136322480Y-57788765D01*
X136322480Y-57788765D02*
X136284384Y-57903051D01*
X136284384Y-57903051D02*
X136284384Y-57979242D01*
X136284384Y-57979242D02*
X136322480Y-58093527D01*
X136322480Y-58093527D02*
X136360575Y-58131623D01*
X136360575Y-58131623D02*
X136627241Y-58131623D01*
X136627241Y-58131623D02*
X136627241Y-57979242D01*
X136284384Y-58474480D02*
X137084384Y-58474480D01*
X137084384Y-58474480D02*
X136284384Y-58931623D01*
X136284384Y-58931623D02*
X137084384Y-58931623D01*
X136284384Y-59312575D02*
X137084384Y-59312575D01*
X137084384Y-59312575D02*
X137084384Y-59503051D01*
X137084384Y-59503051D02*
X137046289Y-59617337D01*
X137046289Y-59617337D02*
X136970099Y-59693527D01*
X136970099Y-59693527D02*
X136893908Y-59731622D01*
X136893908Y-59731622D02*
X136741527Y-59769718D01*
X136741527Y-59769718D02*
X136627241Y-59769718D01*
X136627241Y-59769718D02*
X136474860Y-59731622D01*
X136474860Y-59731622D02*
X136398670Y-59693527D01*
X136398670Y-59693527D02*
X136322480Y-59617337D01*
X136322480Y-59617337D02*
X136284384Y-59503051D01*
X136284384Y-59503051D02*
X136284384Y-59312575D01*
X159267609Y-57908207D02*
X159305704Y-57832017D01*
X159305704Y-57832017D02*
X159305704Y-57717731D01*
X159305704Y-57717731D02*
X159267609Y-57603445D01*
X159267609Y-57603445D02*
X159191419Y-57527255D01*
X159191419Y-57527255D02*
X159115228Y-57489160D01*
X159115228Y-57489160D02*
X158962847Y-57451064D01*
X158962847Y-57451064D02*
X158848561Y-57451064D01*
X158848561Y-57451064D02*
X158696180Y-57489160D01*
X158696180Y-57489160D02*
X158619990Y-57527255D01*
X158619990Y-57527255D02*
X158543800Y-57603445D01*
X158543800Y-57603445D02*
X158505704Y-57717731D01*
X158505704Y-57717731D02*
X158505704Y-57793922D01*
X158505704Y-57793922D02*
X158543800Y-57908207D01*
X158543800Y-57908207D02*
X158581895Y-57946303D01*
X158581895Y-57946303D02*
X158848561Y-57946303D01*
X158848561Y-57946303D02*
X158848561Y-57793922D01*
X158505704Y-58289160D02*
X159305704Y-58289160D01*
X159305704Y-58289160D02*
X158505704Y-58746303D01*
X158505704Y-58746303D02*
X159305704Y-58746303D01*
X158505704Y-59127255D02*
X159305704Y-59127255D01*
X159305704Y-59127255D02*
X159305704Y-59317731D01*
X159305704Y-59317731D02*
X159267609Y-59432017D01*
X159267609Y-59432017D02*
X159191419Y-59508207D01*
X159191419Y-59508207D02*
X159115228Y-59546302D01*
X159115228Y-59546302D02*
X158962847Y-59584398D01*
X158962847Y-59584398D02*
X158848561Y-59584398D01*
X158848561Y-59584398D02*
X158696180Y-59546302D01*
X158696180Y-59546302D02*
X158619990Y-59508207D01*
X158619990Y-59508207D02*
X158543800Y-59432017D01*
X158543800Y-59432017D02*
X158505704Y-59317731D01*
X158505704Y-59317731D02*
X158505704Y-59127255D01*
X160464384Y-62738289D02*
X160464384Y-63233527D01*
X160464384Y-63233527D02*
X160159622Y-62966861D01*
X160159622Y-62966861D02*
X160159622Y-63081146D01*
X160159622Y-63081146D02*
X160121527Y-63157337D01*
X160121527Y-63157337D02*
X160083432Y-63195432D01*
X160083432Y-63195432D02*
X160007241Y-63233527D01*
X160007241Y-63233527D02*
X159816765Y-63233527D01*
X159816765Y-63233527D02*
X159740575Y-63195432D01*
X159740575Y-63195432D02*
X159702480Y-63157337D01*
X159702480Y-63157337D02*
X159664384Y-63081146D01*
X159664384Y-63081146D02*
X159664384Y-62852575D01*
X159664384Y-62852575D02*
X159702480Y-62776384D01*
X159702480Y-62776384D02*
X159740575Y-62738289D01*
X160464384Y-63462099D02*
X159664384Y-63728766D01*
X159664384Y-63728766D02*
X160464384Y-63995432D01*
X160464384Y-64185908D02*
X160464384Y-64681146D01*
X160464384Y-64681146D02*
X160159622Y-64414480D01*
X160159622Y-64414480D02*
X160159622Y-64528765D01*
X160159622Y-64528765D02*
X160121527Y-64604956D01*
X160121527Y-64604956D02*
X160083432Y-64643051D01*
X160083432Y-64643051D02*
X160007241Y-64681146D01*
X160007241Y-64681146D02*
X159816765Y-64681146D01*
X159816765Y-64681146D02*
X159740575Y-64643051D01*
X159740575Y-64643051D02*
X159702480Y-64604956D01*
X159702480Y-64604956D02*
X159664384Y-64528765D01*
X159664384Y-64528765D02*
X159664384Y-64300194D01*
X159664384Y-64300194D02*
X159702480Y-64224003D01*
X159702480Y-64224003D02*
X159740575Y-64185908D01*
X157543800Y-85651064D02*
X157505704Y-85765350D01*
X157505704Y-85765350D02*
X157505704Y-85955826D01*
X157505704Y-85955826D02*
X157543800Y-86032017D01*
X157543800Y-86032017D02*
X157581895Y-86070112D01*
X157581895Y-86070112D02*
X157658085Y-86108207D01*
X157658085Y-86108207D02*
X157734276Y-86108207D01*
X157734276Y-86108207D02*
X157810466Y-86070112D01*
X157810466Y-86070112D02*
X157848561Y-86032017D01*
X157848561Y-86032017D02*
X157886657Y-85955826D01*
X157886657Y-85955826D02*
X157924752Y-85803445D01*
X157924752Y-85803445D02*
X157962847Y-85727255D01*
X157962847Y-85727255D02*
X158000942Y-85689160D01*
X158000942Y-85689160D02*
X158077133Y-85651064D01*
X158077133Y-85651064D02*
X158153323Y-85651064D01*
X158153323Y-85651064D02*
X158229514Y-85689160D01*
X158229514Y-85689160D02*
X158267609Y-85727255D01*
X158267609Y-85727255D02*
X158305704Y-85803445D01*
X158305704Y-85803445D02*
X158305704Y-85993922D01*
X158305704Y-85993922D02*
X158267609Y-86108207D01*
X157505704Y-86451065D02*
X158305704Y-86451065D01*
X158305704Y-86451065D02*
X158305704Y-86641541D01*
X158305704Y-86641541D02*
X158267609Y-86755827D01*
X158267609Y-86755827D02*
X158191419Y-86832017D01*
X158191419Y-86832017D02*
X158115228Y-86870112D01*
X158115228Y-86870112D02*
X157962847Y-86908208D01*
X157962847Y-86908208D02*
X157848561Y-86908208D01*
X157848561Y-86908208D02*
X157696180Y-86870112D01*
X157696180Y-86870112D02*
X157619990Y-86832017D01*
X157619990Y-86832017D02*
X157543800Y-86755827D01*
X157543800Y-86755827D02*
X157505704Y-86641541D01*
X157505704Y-86641541D02*
X157505704Y-86451065D01*
X157734276Y-87212969D02*
X157734276Y-87593922D01*
X157505704Y-87136779D02*
X158305704Y-87403446D01*
X158305704Y-87403446D02*
X157505704Y-87670112D01*
X157505704Y-88355826D02*
X157505704Y-87898683D01*
X157505704Y-88127255D02*
X158305704Y-88127255D01*
X158305704Y-88127255D02*
X158191419Y-88051064D01*
X158191419Y-88051064D02*
X158115228Y-87974874D01*
X158115228Y-87974874D02*
X158077133Y-87898683D01*
X138505704Y-80289160D02*
X139305704Y-80289160D01*
X139305704Y-80289160D02*
X139305704Y-80593922D01*
X139305704Y-80593922D02*
X139267609Y-80670112D01*
X139267609Y-80670112D02*
X139229514Y-80708207D01*
X139229514Y-80708207D02*
X139153323Y-80746303D01*
X139153323Y-80746303D02*
X139039038Y-80746303D01*
X139039038Y-80746303D02*
X138962847Y-80708207D01*
X138962847Y-80708207D02*
X138924752Y-80670112D01*
X138924752Y-80670112D02*
X138886657Y-80593922D01*
X138886657Y-80593922D02*
X138886657Y-80289160D01*
X139305704Y-81012969D02*
X138505704Y-81203445D01*
X138505704Y-81203445D02*
X139077133Y-81355826D01*
X139077133Y-81355826D02*
X138505704Y-81508207D01*
X138505704Y-81508207D02*
X139305704Y-81698684D01*
X138505704Y-82003446D02*
X139305704Y-82003446D01*
X139305704Y-82003446D02*
X138734276Y-82270112D01*
X138734276Y-82270112D02*
X139305704Y-82536779D01*
X139305704Y-82536779D02*
X138505704Y-82536779D01*
X139305704Y-83070113D02*
X139305704Y-83146303D01*
X139305704Y-83146303D02*
X139267609Y-83222494D01*
X139267609Y-83222494D02*
X139229514Y-83260589D01*
X139229514Y-83260589D02*
X139153323Y-83298684D01*
X139153323Y-83298684D02*
X139000942Y-83336779D01*
X139000942Y-83336779D02*
X138810466Y-83336779D01*
X138810466Y-83336779D02*
X138658085Y-83298684D01*
X138658085Y-83298684D02*
X138581895Y-83260589D01*
X138581895Y-83260589D02*
X138543800Y-83222494D01*
X138543800Y-83222494D02*
X138505704Y-83146303D01*
X138505704Y-83146303D02*
X138505704Y-83070113D01*
X138505704Y-83070113D02*
X138543800Y-82993922D01*
X138543800Y-82993922D02*
X138581895Y-82955827D01*
X138581895Y-82955827D02*
X138658085Y-82917732D01*
X138658085Y-82917732D02*
X138810466Y-82879636D01*
X138810466Y-82879636D02*
X139000942Y-82879636D01*
X139000942Y-82879636D02*
X139153323Y-82917732D01*
X139153323Y-82917732D02*
X139229514Y-82955827D01*
X139229514Y-82955827D02*
X139267609Y-82993922D01*
X139267609Y-82993922D02*
X139305704Y-83070113D01*
X137305704Y-67774874D02*
X137305704Y-68232017D01*
X136505704Y-68003445D02*
X137305704Y-68003445D01*
X137305704Y-68422493D02*
X136505704Y-68955827D01*
X137305704Y-68955827D02*
X136505704Y-68422493D01*
X136505704Y-69260589D02*
X137305704Y-69260589D01*
X137305704Y-69260589D02*
X137305704Y-69451065D01*
X137305704Y-69451065D02*
X137267609Y-69565351D01*
X137267609Y-69565351D02*
X137191419Y-69641541D01*
X137191419Y-69641541D02*
X137115228Y-69679636D01*
X137115228Y-69679636D02*
X136962847Y-69717732D01*
X136962847Y-69717732D02*
X136848561Y-69717732D01*
X136848561Y-69717732D02*
X136696180Y-69679636D01*
X136696180Y-69679636D02*
X136619990Y-69641541D01*
X136619990Y-69641541D02*
X136543800Y-69565351D01*
X136543800Y-69565351D02*
X136505704Y-69451065D01*
X136505704Y-69451065D02*
X136505704Y-69260589D01*
X126366667Y-67862295D02*
X126100000Y-67481342D01*
X125909524Y-67862295D02*
X125909524Y-67062295D01*
X125909524Y-67062295D02*
X126214286Y-67062295D01*
X126214286Y-67062295D02*
X126290476Y-67100390D01*
X126290476Y-67100390D02*
X126328571Y-67138485D01*
X126328571Y-67138485D02*
X126366667Y-67214676D01*
X126366667Y-67214676D02*
X126366667Y-67328961D01*
X126366667Y-67328961D02*
X126328571Y-67405152D01*
X126328571Y-67405152D02*
X126290476Y-67443247D01*
X126290476Y-67443247D02*
X126214286Y-67481342D01*
X126214286Y-67481342D02*
X125909524Y-67481342D01*
X126671428Y-67138485D02*
X126709524Y-67100390D01*
X126709524Y-67100390D02*
X126785714Y-67062295D01*
X126785714Y-67062295D02*
X126976190Y-67062295D01*
X126976190Y-67062295D02*
X127052381Y-67100390D01*
X127052381Y-67100390D02*
X127090476Y-67138485D01*
X127090476Y-67138485D02*
X127128571Y-67214676D01*
X127128571Y-67214676D02*
X127128571Y-67290866D01*
X127128571Y-67290866D02*
X127090476Y-67405152D01*
X127090476Y-67405152D02*
X126633333Y-67862295D01*
X126633333Y-67862295D02*
X127128571Y-67862295D01*
X125666666Y-71954819D02*
X125095238Y-71954819D01*
X125380952Y-71954819D02*
X125380952Y-70954819D01*
X125380952Y-70954819D02*
X125285714Y-71097676D01*
X125285714Y-71097676D02*
X125190476Y-71192914D01*
X125190476Y-71192914D02*
X125095238Y-71240533D01*
X126095238Y-71859580D02*
X126142857Y-71907200D01*
X126142857Y-71907200D02*
X126095238Y-71954819D01*
X126095238Y-71954819D02*
X126047619Y-71907200D01*
X126047619Y-71907200D02*
X126095238Y-71859580D01*
X126095238Y-71859580D02*
X126095238Y-71954819D01*
X127047618Y-70954819D02*
X126571428Y-70954819D01*
X126571428Y-70954819D02*
X126523809Y-71431009D01*
X126523809Y-71431009D02*
X126571428Y-71383390D01*
X126571428Y-71383390D02*
X126666666Y-71335771D01*
X126666666Y-71335771D02*
X126904761Y-71335771D01*
X126904761Y-71335771D02*
X126999999Y-71383390D01*
X126999999Y-71383390D02*
X127047618Y-71431009D01*
X127047618Y-71431009D02*
X127095237Y-71526247D01*
X127095237Y-71526247D02*
X127095237Y-71764342D01*
X127095237Y-71764342D02*
X127047618Y-71859580D01*
X127047618Y-71859580D02*
X126999999Y-71907200D01*
X126999999Y-71907200D02*
X126904761Y-71954819D01*
X126904761Y-71954819D02*
X126666666Y-71954819D01*
X126666666Y-71954819D02*
X126571428Y-71907200D01*
X126571428Y-71907200D02*
X126523809Y-71859580D01*
X127523809Y-71954819D02*
X127523809Y-70954819D01*
X127619047Y-71573866D02*
X127904761Y-71954819D01*
X127904761Y-71288152D02*
X127523809Y-71669104D01*
X147982333Y-40556885D02*
X147982333Y-41204504D01*
X147982333Y-41204504D02*
X148020428Y-41280694D01*
X148020428Y-41280694D02*
X148058523Y-41318790D01*
X148058523Y-41318790D02*
X148134714Y-41356885D01*
X148134714Y-41356885D02*
X148287095Y-41356885D01*
X148287095Y-41356885D02*
X148363285Y-41318790D01*
X148363285Y-41318790D02*
X148401380Y-41280694D01*
X148401380Y-41280694D02*
X148439476Y-41204504D01*
X148439476Y-41204504D02*
X148439476Y-40556885D01*
X148782332Y-40633075D02*
X148820428Y-40594980D01*
X148820428Y-40594980D02*
X148896618Y-40556885D01*
X148896618Y-40556885D02*
X149087094Y-40556885D01*
X149087094Y-40556885D02*
X149163285Y-40594980D01*
X149163285Y-40594980D02*
X149201380Y-40633075D01*
X149201380Y-40633075D02*
X149239475Y-40709266D01*
X149239475Y-40709266D02*
X149239475Y-40785456D01*
X149239475Y-40785456D02*
X149201380Y-40899742D01*
X149201380Y-40899742D02*
X148744237Y-41356885D01*
X148744237Y-41356885D02*
X149239475Y-41356885D01*
%TO.C,D3*%
X123950000Y-102200000D02*
X123950000Y-102200000D01*
X123950000Y-102300000D02*
X123950000Y-102300000D01*
X123950000Y-102200000D02*
G75*
G02*
X123950000Y-102300000I0J-50000D01*
G01*
X123950000Y-102300000D02*
G75*
G02*
X123950000Y-102200000I0J50000D01*
G01*
%TO.C,C3*%
X117770531Y-98380000D02*
X117974469Y-98380000D01*
X117770531Y-99620000D02*
X117974469Y-99620000D01*
%TO.C,D4*%
X123950000Y-110700000D02*
X123950000Y-110700000D01*
X123950000Y-110800000D02*
X123950000Y-110800000D01*
X123950000Y-110700000D02*
G75*
G02*
X123950000Y-110800000I0J-50000D01*
G01*
X123950000Y-110800000D02*
G75*
G02*
X123950000Y-110700000I0J50000D01*
G01*
%TO.C,IC1*%
X118325000Y-77000000D02*
X119800000Y-77000000D01*
X120150000Y-77250000D02*
X123850000Y-77250000D01*
X120150000Y-83750000D02*
X120150000Y-77250000D01*
X123850000Y-77250000D02*
X123850000Y-83750000D01*
X123850000Y-83750000D02*
X120150000Y-83750000D01*
%TO.C,D1*%
X119140000Y-68540000D02*
X119140000Y-70460000D01*
X119140000Y-70460000D02*
X122000000Y-70460000D01*
X122000000Y-68540000D02*
X119140000Y-68540000D01*
%TO.C,C4*%
X117898031Y-106880000D02*
X118101969Y-106880000D01*
X117898031Y-108120000D02*
X118101969Y-108120000D01*
%TO.C,C2*%
X117898031Y-90380000D02*
X118101969Y-90380000D01*
X117898031Y-91620000D02*
X118101969Y-91620000D01*
%TO.C,C1*%
X129380000Y-87101969D02*
X129380000Y-86898031D01*
X130620000Y-87101969D02*
X130620000Y-86898031D01*
D11*
%TO.C,G\u002A\u002A\u002A*%
G36*
X120874182Y-40676277D02*
G01*
X120927673Y-40725329D01*
X120956965Y-40785232D01*
X120958412Y-40800000D01*
X120942118Y-40852263D01*
X120910397Y-40896030D01*
X120858134Y-40931999D01*
X120814367Y-40944045D01*
X120762104Y-40927751D01*
X120718336Y-40896030D01*
X120682367Y-40843767D01*
X120670321Y-40800000D01*
X120690644Y-40740185D01*
X120739696Y-40686693D01*
X120799599Y-40657402D01*
X120814367Y-40655954D01*
X120874182Y-40676277D01*
G37*
G36*
X120874182Y-41252459D02*
G01*
X120927673Y-41301510D01*
X120956965Y-41361414D01*
X120958412Y-41376181D01*
X120942118Y-41428444D01*
X120910397Y-41472212D01*
X120858134Y-41508181D01*
X120814367Y-41520227D01*
X120762104Y-41503933D01*
X120718336Y-41472212D01*
X120682367Y-41419949D01*
X120670321Y-41376181D01*
X120690644Y-41316366D01*
X120739696Y-41262875D01*
X120799599Y-41233583D01*
X120814367Y-41232136D01*
X120874182Y-41252459D01*
G37*
G36*
X121162272Y-38659642D02*
G01*
X121215764Y-38708694D01*
X121245056Y-38768597D01*
X121246503Y-38783365D01*
X121230209Y-38835628D01*
X121198488Y-38879395D01*
X121146225Y-38915364D01*
X121102457Y-38927410D01*
X121050194Y-38911116D01*
X121006427Y-38879395D01*
X120970458Y-38827132D01*
X120958412Y-38783365D01*
X120978735Y-38723550D01*
X121027786Y-38670058D01*
X121087690Y-38640766D01*
X121102457Y-38639319D01*
X121162272Y-38659642D01*
G37*
G36*
X121450363Y-39523914D02*
G01*
X121503854Y-39572966D01*
X121533146Y-39632870D01*
X121534593Y-39647637D01*
X121518299Y-39699900D01*
X121486578Y-39743667D01*
X121434315Y-39779636D01*
X121390548Y-39791682D01*
X121338285Y-39775388D01*
X121294518Y-39743667D01*
X121258549Y-39691404D01*
X121246503Y-39647637D01*
X121266826Y-39587822D01*
X121315877Y-39534331D01*
X121375781Y-39505039D01*
X121390548Y-39503592D01*
X121450363Y-39523914D01*
G37*
G36*
X121450363Y-42404822D02*
G01*
X121503854Y-42453873D01*
X121533146Y-42513777D01*
X121534593Y-42528544D01*
X121518299Y-42580807D01*
X121486578Y-42624575D01*
X121434315Y-42660543D01*
X121390548Y-42672590D01*
X121338285Y-42656296D01*
X121294518Y-42624575D01*
X121258549Y-42572312D01*
X121246503Y-42528544D01*
X121266826Y-42468729D01*
X121315877Y-42415238D01*
X121375781Y-42385946D01*
X121390548Y-42384499D01*
X121450363Y-42404822D01*
G37*
G36*
X121730902Y-38079432D02*
G01*
X121774669Y-38111153D01*
X121810638Y-38163416D01*
X121822684Y-38207183D01*
X121806390Y-38259446D01*
X121774669Y-38303213D01*
X121722406Y-38339182D01*
X121678639Y-38351229D01*
X121626376Y-38334935D01*
X121582609Y-38303213D01*
X121546640Y-38250951D01*
X121534593Y-38207183D01*
X121550887Y-38154920D01*
X121582609Y-38111153D01*
X121634871Y-38075184D01*
X121678639Y-38063138D01*
X121730902Y-38079432D01*
G37*
G36*
X121730902Y-38655613D02*
G01*
X121774669Y-38687334D01*
X121810638Y-38739597D01*
X121822684Y-38783365D01*
X121806390Y-38835628D01*
X121774669Y-38879395D01*
X121722406Y-38915364D01*
X121678639Y-38927410D01*
X121626376Y-38911116D01*
X121582609Y-38879395D01*
X121546640Y-38827132D01*
X121534593Y-38783365D01*
X121550887Y-38731102D01*
X121582609Y-38687334D01*
X121634871Y-38651365D01*
X121678639Y-38639319D01*
X121730902Y-38655613D01*
G37*
G36*
X121730902Y-42688884D02*
G01*
X121774669Y-42720605D01*
X121810638Y-42772868D01*
X121822684Y-42816635D01*
X121806390Y-42868898D01*
X121774669Y-42912665D01*
X121722406Y-42948634D01*
X121678639Y-42960680D01*
X121626376Y-42944386D01*
X121582609Y-42912665D01*
X121546640Y-42860402D01*
X121534593Y-42816635D01*
X121550887Y-42764372D01*
X121582609Y-42720605D01*
X121634871Y-42684636D01*
X121678639Y-42672590D01*
X121730902Y-42688884D01*
G37*
G36*
X122595174Y-37791341D02*
G01*
X122638941Y-37823062D01*
X122674910Y-37875325D01*
X122686956Y-37919092D01*
X122670662Y-37971355D01*
X122638941Y-38015123D01*
X122586678Y-38051092D01*
X122542911Y-38063138D01*
X122490648Y-38046844D01*
X122446881Y-38015123D01*
X122410912Y-37962860D01*
X122398866Y-37919092D01*
X122415160Y-37866830D01*
X122446881Y-37823062D01*
X122499144Y-37787093D01*
X122542911Y-37775047D01*
X122595174Y-37791341D01*
G37*
G36*
X122595174Y-39519885D02*
G01*
X122638941Y-39551607D01*
X122674910Y-39603870D01*
X122686956Y-39647637D01*
X122670662Y-39699900D01*
X122638941Y-39743667D01*
X122586678Y-39779636D01*
X122542911Y-39791682D01*
X122490648Y-39775388D01*
X122446881Y-39743667D01*
X122410912Y-39691404D01*
X122398866Y-39647637D01*
X122415160Y-39595374D01*
X122446881Y-39551607D01*
X122499144Y-39515638D01*
X122542911Y-39503592D01*
X122595174Y-39519885D01*
G37*
G36*
X122595174Y-40672248D02*
G01*
X122638941Y-40703970D01*
X122674910Y-40756233D01*
X122686956Y-40800000D01*
X122670662Y-40852263D01*
X122638941Y-40896030D01*
X122586678Y-40931999D01*
X122542911Y-40944045D01*
X122490648Y-40927751D01*
X122446881Y-40896030D01*
X122410912Y-40843767D01*
X122398866Y-40800000D01*
X122415160Y-40747737D01*
X122446881Y-40703970D01*
X122499144Y-40668001D01*
X122542911Y-40655954D01*
X122595174Y-40672248D01*
G37*
G36*
X122883265Y-38079432D02*
G01*
X122927032Y-38111153D01*
X122963001Y-38163416D01*
X122975047Y-38207183D01*
X122958753Y-38259446D01*
X122927032Y-38303213D01*
X122874769Y-38339182D01*
X122831002Y-38351229D01*
X122778739Y-38334935D01*
X122734972Y-38303213D01*
X122699003Y-38250951D01*
X122686956Y-38207183D01*
X122703250Y-38154920D01*
X122734972Y-38111153D01*
X122787234Y-38075184D01*
X122831002Y-38063138D01*
X122883265Y-38079432D01*
G37*
G36*
X123171355Y-35774706D02*
G01*
X123215123Y-35806427D01*
X123251092Y-35858690D01*
X123263138Y-35902457D01*
X123246844Y-35954720D01*
X123215123Y-35998488D01*
X123162860Y-36034457D01*
X123119092Y-36046503D01*
X123066830Y-36030209D01*
X123023062Y-35998488D01*
X122987093Y-35946225D01*
X122975047Y-35902457D01*
X122995370Y-35842642D01*
X123044421Y-35789151D01*
X123104325Y-35759859D01*
X123119092Y-35758412D01*
X123171355Y-35774706D01*
G37*
G36*
X123171355Y-38367523D02*
G01*
X123215123Y-38399244D01*
X123251092Y-38451507D01*
X123263138Y-38495274D01*
X123246844Y-38547537D01*
X123215123Y-38591304D01*
X123162860Y-38627273D01*
X123119092Y-38639319D01*
X123066830Y-38623025D01*
X123023062Y-38591304D01*
X122987093Y-38539041D01*
X122975047Y-38495274D01*
X122991341Y-38443011D01*
X123023062Y-38399244D01*
X123075325Y-38363275D01*
X123119092Y-38351229D01*
X123171355Y-38367523D01*
G37*
G36*
X124323718Y-41248430D02*
G01*
X124367486Y-41280151D01*
X124403455Y-41332414D01*
X124415501Y-41376181D01*
X124399207Y-41428444D01*
X124367486Y-41472212D01*
X124315223Y-41508181D01*
X124271455Y-41520227D01*
X124219193Y-41503933D01*
X124175425Y-41472212D01*
X124139456Y-41419949D01*
X124127410Y-41376181D01*
X124143704Y-41323918D01*
X124175425Y-41280151D01*
X124227688Y-41244182D01*
X124271455Y-41232136D01*
X124323718Y-41248430D01*
G37*
G36*
X124611809Y-41536521D02*
G01*
X124655576Y-41568242D01*
X124691545Y-41620505D01*
X124703592Y-41664272D01*
X124687298Y-41716535D01*
X124655576Y-41760302D01*
X124603314Y-41796271D01*
X124559546Y-41808317D01*
X124507283Y-41792023D01*
X124463516Y-41760302D01*
X124427547Y-41708039D01*
X124415501Y-41664272D01*
X124431795Y-41612009D01*
X124463516Y-41568242D01*
X124515779Y-41532273D01*
X124559546Y-41520227D01*
X124611809Y-41536521D01*
G37*
G36*
X124611809Y-45281700D02*
G01*
X124655576Y-45313421D01*
X124691545Y-45365684D01*
X124703592Y-45409452D01*
X124687298Y-45461715D01*
X124655576Y-45505482D01*
X124603314Y-45541451D01*
X124559546Y-45553497D01*
X124507283Y-45537203D01*
X124463516Y-45505482D01*
X124427547Y-45453219D01*
X124415501Y-45409452D01*
X124431795Y-45357189D01*
X124463516Y-45313421D01*
X124515779Y-45277452D01*
X124559546Y-45265406D01*
X124611809Y-45281700D01*
G37*
G36*
X124899900Y-37215160D02*
G01*
X124943667Y-37246881D01*
X124979636Y-37299144D01*
X124991682Y-37342911D01*
X124975388Y-37395174D01*
X124943667Y-37438941D01*
X124891404Y-37474910D01*
X124847637Y-37486956D01*
X124795374Y-37470662D01*
X124751607Y-37438941D01*
X124715638Y-37386678D01*
X124703592Y-37342911D01*
X124719885Y-37290648D01*
X124751607Y-37246881D01*
X124803870Y-37210912D01*
X124847637Y-37198866D01*
X124899900Y-37215160D01*
G37*
G36*
X124899900Y-40672248D02*
G01*
X124943667Y-40703970D01*
X124979636Y-40756233D01*
X124991682Y-40800000D01*
X124975388Y-40852263D01*
X124943667Y-40896030D01*
X124891404Y-40931999D01*
X124847637Y-40944045D01*
X124795374Y-40927751D01*
X124751607Y-40896030D01*
X124715638Y-40843767D01*
X124703592Y-40800000D01*
X124719885Y-40747737D01*
X124751607Y-40703970D01*
X124803870Y-40668001D01*
X124847637Y-40655954D01*
X124899900Y-40672248D01*
G37*
G36*
X124899900Y-41248430D02*
G01*
X124943667Y-41280151D01*
X124979636Y-41332414D01*
X124991682Y-41376181D01*
X124975388Y-41428444D01*
X124943667Y-41472212D01*
X124891404Y-41508181D01*
X124847637Y-41520227D01*
X124795374Y-41503933D01*
X124751607Y-41472212D01*
X124715638Y-41419949D01*
X124703592Y-41376181D01*
X124719885Y-41323918D01*
X124751607Y-41280151D01*
X124803870Y-41244182D01*
X124847637Y-41232136D01*
X124899900Y-41248430D01*
G37*
G36*
X125476081Y-38655613D02*
G01*
X125519849Y-38687334D01*
X125555818Y-38739597D01*
X125567864Y-38783365D01*
X125551570Y-38835628D01*
X125519849Y-38879395D01*
X125467586Y-38915364D01*
X125423818Y-38927410D01*
X125371555Y-38911116D01*
X125327788Y-38879395D01*
X125291819Y-38827132D01*
X125279773Y-38783365D01*
X125296067Y-38731102D01*
X125327788Y-38687334D01*
X125380051Y-38651365D01*
X125423818Y-38639319D01*
X125476081Y-38655613D01*
G37*
G36*
X125476081Y-44705519D02*
G01*
X125519849Y-44737240D01*
X125555818Y-44789503D01*
X125567864Y-44833270D01*
X125551570Y-44885533D01*
X125519849Y-44929300D01*
X125467586Y-44965269D01*
X125423818Y-44977316D01*
X125371555Y-44961022D01*
X125327788Y-44929300D01*
X125291819Y-44877038D01*
X125279773Y-44833270D01*
X125296067Y-44781007D01*
X125327788Y-44737240D01*
X125380051Y-44701271D01*
X125423818Y-44689225D01*
X125476081Y-44705519D01*
G37*
G36*
X125764172Y-38367523D02*
G01*
X125807939Y-38399244D01*
X125843908Y-38451507D01*
X125855954Y-38495274D01*
X125839661Y-38547537D01*
X125807939Y-38591304D01*
X125755676Y-38627273D01*
X125711909Y-38639319D01*
X125659646Y-38623025D01*
X125615879Y-38591304D01*
X125579910Y-38539041D01*
X125567864Y-38495274D01*
X125584158Y-38443011D01*
X125615879Y-38399244D01*
X125668142Y-38363275D01*
X125711909Y-38351229D01*
X125764172Y-38367523D01*
G37*
G36*
X126052263Y-36062797D02*
G01*
X126096030Y-36094518D01*
X126131999Y-36146781D01*
X126144045Y-36190548D01*
X126127751Y-36242811D01*
X126096030Y-36286578D01*
X126043767Y-36322547D01*
X126000000Y-36334593D01*
X125947737Y-36318299D01*
X125903970Y-36286578D01*
X125868001Y-36234315D01*
X125855954Y-36190548D01*
X125876277Y-36130733D01*
X125925329Y-36077242D01*
X125985232Y-36047950D01*
X126000000Y-36046503D01*
X126052263Y-36062797D01*
G37*
G36*
X126052263Y-37215160D02*
G01*
X126096030Y-37246881D01*
X126131999Y-37299144D01*
X126144045Y-37342911D01*
X126127751Y-37395174D01*
X126096030Y-37438941D01*
X126043767Y-37474910D01*
X126000000Y-37486956D01*
X125947737Y-37470662D01*
X125903970Y-37438941D01*
X125868001Y-37386678D01*
X125855954Y-37342911D01*
X125872248Y-37290648D01*
X125903970Y-37246881D01*
X125956233Y-37210912D01*
X126000000Y-37198866D01*
X126052263Y-37215160D01*
G37*
G36*
X126052263Y-45857882D02*
G01*
X126096030Y-45889603D01*
X126131999Y-45941866D01*
X126144045Y-45985633D01*
X126127751Y-46037896D01*
X126096030Y-46081663D01*
X126043767Y-46117632D01*
X126000000Y-46129678D01*
X125947737Y-46113385D01*
X125903970Y-46081663D01*
X125868001Y-46029400D01*
X125855954Y-45985633D01*
X125872248Y-45933370D01*
X125903970Y-45889603D01*
X125956233Y-45853634D01*
X126000000Y-45841588D01*
X126052263Y-45857882D01*
G37*
G36*
X126340354Y-35774706D02*
G01*
X126384121Y-35806427D01*
X126420090Y-35858690D01*
X126432136Y-35902457D01*
X126415842Y-35954720D01*
X126384121Y-35998488D01*
X126331858Y-36034457D01*
X126288091Y-36046503D01*
X126235828Y-36030209D01*
X126192060Y-35998488D01*
X126156091Y-35946225D01*
X126144045Y-35902457D01*
X126164368Y-35842642D01*
X126213420Y-35789151D01*
X126273323Y-35759859D01*
X126288091Y-35758412D01*
X126340354Y-35774706D01*
G37*
G36*
X126340354Y-40384158D02*
G01*
X126384121Y-40415879D01*
X126420090Y-40468142D01*
X126432136Y-40511909D01*
X126415842Y-40564172D01*
X126384121Y-40607939D01*
X126331858Y-40643908D01*
X126288091Y-40655954D01*
X126235828Y-40639661D01*
X126192060Y-40607939D01*
X126156091Y-40555676D01*
X126144045Y-40511909D01*
X126160339Y-40459646D01*
X126192060Y-40415879D01*
X126244323Y-40379910D01*
X126288091Y-40367864D01*
X126340354Y-40384158D01*
G37*
G36*
X126340354Y-45569791D02*
G01*
X126384121Y-45601512D01*
X126420090Y-45653775D01*
X126432136Y-45697542D01*
X126415842Y-45749805D01*
X126384121Y-45793573D01*
X126331858Y-45829542D01*
X126288091Y-45841588D01*
X126235828Y-45825294D01*
X126192060Y-45793573D01*
X126156091Y-45741310D01*
X126144045Y-45697542D01*
X126160339Y-45645279D01*
X126192060Y-45601512D01*
X126244323Y-45565543D01*
X126288091Y-45553497D01*
X126340354Y-45569791D01*
G37*
G36*
X127204626Y-44129337D02*
G01*
X127248393Y-44161058D01*
X127284362Y-44213321D01*
X127296408Y-44257089D01*
X127280114Y-44309352D01*
X127248393Y-44353119D01*
X127196130Y-44389088D01*
X127152363Y-44401134D01*
X127100100Y-44384840D01*
X127056333Y-44353119D01*
X127020364Y-44300856D01*
X127008317Y-44257089D01*
X127024611Y-44204826D01*
X127056333Y-44161058D01*
X127108595Y-44125089D01*
X127152363Y-44113043D01*
X127204626Y-44129337D01*
G37*
G36*
X127492716Y-41248430D02*
G01*
X127536484Y-41280151D01*
X127572453Y-41332414D01*
X127584499Y-41376181D01*
X127568205Y-41428444D01*
X127536484Y-41472212D01*
X127484221Y-41508181D01*
X127440454Y-41520227D01*
X127388191Y-41503933D01*
X127344423Y-41472212D01*
X127308454Y-41419949D01*
X127296408Y-41376181D01*
X127312702Y-41323918D01*
X127344423Y-41280151D01*
X127396686Y-41244182D01*
X127440454Y-41232136D01*
X127492716Y-41248430D01*
G37*
G36*
X127780807Y-37215160D02*
G01*
X127824575Y-37246881D01*
X127860543Y-37299144D01*
X127872590Y-37342911D01*
X127856296Y-37395174D01*
X127824575Y-37438941D01*
X127772312Y-37474910D01*
X127728544Y-37486956D01*
X127676281Y-37470662D01*
X127632514Y-37438941D01*
X127596545Y-37386678D01*
X127584499Y-37342911D01*
X127600793Y-37290648D01*
X127632514Y-37246881D01*
X127684777Y-37210912D01*
X127728544Y-37198866D01*
X127780807Y-37215160D01*
G37*
G36*
X127780807Y-43553156D02*
G01*
X127824575Y-43584877D01*
X127860543Y-43637140D01*
X127872590Y-43680907D01*
X127856296Y-43733170D01*
X127824575Y-43776937D01*
X127772312Y-43812906D01*
X127728544Y-43824953D01*
X127676281Y-43808659D01*
X127632514Y-43776937D01*
X127596545Y-43724675D01*
X127584499Y-43680907D01*
X127600793Y-43628644D01*
X127632514Y-43584877D01*
X127684777Y-43548908D01*
X127728544Y-43536862D01*
X127780807Y-43553156D01*
G37*
G36*
X128068898Y-36927069D02*
G01*
X128112665Y-36958790D01*
X128148634Y-37011053D01*
X128160680Y-37054820D01*
X128144386Y-37107083D01*
X128112665Y-37150851D01*
X128060402Y-37186819D01*
X128016635Y-37198866D01*
X127964372Y-37182572D01*
X127920605Y-37150851D01*
X127884636Y-37098588D01*
X127872590Y-37054820D01*
X127888884Y-37002557D01*
X127920605Y-36958790D01*
X127972868Y-36922821D01*
X128016635Y-36910775D01*
X128068898Y-36927069D01*
G37*
G36*
X128356989Y-36062797D02*
G01*
X128400756Y-36094518D01*
X128436725Y-36146781D01*
X128448771Y-36190548D01*
X128432477Y-36242811D01*
X128400756Y-36286578D01*
X128348493Y-36322547D01*
X128304726Y-36334593D01*
X128252463Y-36318299D01*
X128208696Y-36286578D01*
X128172727Y-36234315D01*
X128160680Y-36190548D01*
X128181003Y-36130733D01*
X128230055Y-36077242D01*
X128289958Y-36047950D01*
X128304726Y-36046503D01*
X128356989Y-36062797D01*
G37*
G36*
X128356989Y-36638978D02*
G01*
X128400756Y-36670699D01*
X128436725Y-36722962D01*
X128448771Y-36766730D01*
X128432477Y-36818992D01*
X128400756Y-36862760D01*
X128348493Y-36898729D01*
X128304726Y-36910775D01*
X128252463Y-36894481D01*
X128208696Y-36862760D01*
X128172727Y-36810497D01*
X128160680Y-36766730D01*
X128176974Y-36714467D01*
X128208696Y-36670699D01*
X128260958Y-36634730D01*
X128304726Y-36622684D01*
X128356989Y-36638978D01*
G37*
G36*
X128645079Y-36350887D02*
G01*
X128688847Y-36382609D01*
X128724816Y-36434871D01*
X128736862Y-36478639D01*
X128720568Y-36530902D01*
X128688847Y-36574669D01*
X128636584Y-36610638D01*
X128592816Y-36622684D01*
X128540554Y-36606390D01*
X128496786Y-36574669D01*
X128460817Y-36522406D01*
X128448771Y-36478639D01*
X128465065Y-36426376D01*
X128496786Y-36382609D01*
X128549049Y-36346640D01*
X128592816Y-36334593D01*
X128645079Y-36350887D01*
G37*
G36*
X128645079Y-36927069D02*
G01*
X128688847Y-36958790D01*
X128724816Y-37011053D01*
X128736862Y-37054820D01*
X128720568Y-37107083D01*
X128688847Y-37150851D01*
X128636584Y-37186819D01*
X128592816Y-37198866D01*
X128540554Y-37182572D01*
X128496786Y-37150851D01*
X128460817Y-37098588D01*
X128448771Y-37054820D01*
X128465065Y-37002557D01*
X128496786Y-36958790D01*
X128549049Y-36922821D01*
X128592816Y-36910775D01*
X128645079Y-36927069D01*
G37*
G36*
X128933170Y-36638978D02*
G01*
X128976937Y-36670699D01*
X129012906Y-36722962D01*
X129024953Y-36766730D01*
X129008659Y-36818992D01*
X128976937Y-36862760D01*
X128924675Y-36898729D01*
X128880907Y-36910775D01*
X128828644Y-36894481D01*
X128784877Y-36862760D01*
X128748908Y-36810497D01*
X128736862Y-36766730D01*
X128753156Y-36714467D01*
X128784877Y-36670699D01*
X128837140Y-36634730D01*
X128880907Y-36622684D01*
X128933170Y-36638978D01*
G37*
G36*
X128933170Y-37215160D02*
G01*
X128976937Y-37246881D01*
X129012906Y-37299144D01*
X129024953Y-37342911D01*
X129008659Y-37395174D01*
X128976937Y-37438941D01*
X128924675Y-37474910D01*
X128880907Y-37486956D01*
X128828644Y-37470662D01*
X128784877Y-37438941D01*
X128748908Y-37386678D01*
X128736862Y-37342911D01*
X128753156Y-37290648D01*
X128784877Y-37246881D01*
X128837140Y-37210912D01*
X128880907Y-37198866D01*
X128933170Y-37215160D01*
G37*
G36*
X128933170Y-39231795D02*
G01*
X128976937Y-39263516D01*
X129012906Y-39315779D01*
X129024953Y-39359546D01*
X129008659Y-39411809D01*
X128976937Y-39455576D01*
X128924675Y-39491545D01*
X128880907Y-39503592D01*
X128828644Y-39487298D01*
X128784877Y-39455576D01*
X128748908Y-39403314D01*
X128736862Y-39359546D01*
X128753156Y-39307283D01*
X128784877Y-39263516D01*
X128837140Y-39227547D01*
X128880907Y-39215501D01*
X128933170Y-39231795D01*
G37*
G36*
X129509352Y-39231795D02*
G01*
X129553119Y-39263516D01*
X129589088Y-39315779D01*
X129601134Y-39359546D01*
X129584840Y-39411809D01*
X129553119Y-39455576D01*
X129500856Y-39491545D01*
X129457089Y-39503592D01*
X129404826Y-39487298D01*
X129361058Y-39455576D01*
X129325089Y-39403314D01*
X129313043Y-39359546D01*
X129329337Y-39307283D01*
X129361058Y-39263516D01*
X129413321Y-39227547D01*
X129457089Y-39215501D01*
X129509352Y-39231795D01*
G37*
G36*
X129509352Y-44129337D02*
G01*
X129553119Y-44161058D01*
X129589088Y-44213321D01*
X129601134Y-44257089D01*
X129584840Y-44309352D01*
X129553119Y-44353119D01*
X129500856Y-44389088D01*
X129457089Y-44401134D01*
X129404826Y-44384840D01*
X129361058Y-44353119D01*
X129325089Y-44300856D01*
X129313043Y-44257089D01*
X129329337Y-44204826D01*
X129361058Y-44161058D01*
X129413321Y-44125089D01*
X129457089Y-44113043D01*
X129509352Y-44129337D01*
G37*
G36*
X129797442Y-39519885D02*
G01*
X129841210Y-39551607D01*
X129877179Y-39603870D01*
X129889225Y-39647637D01*
X129872931Y-39699900D01*
X129841210Y-39743667D01*
X129788947Y-39779636D01*
X129745179Y-39791682D01*
X129692917Y-39775388D01*
X129649149Y-39743667D01*
X129613180Y-39691404D01*
X129601134Y-39647637D01*
X129617428Y-39595374D01*
X129649149Y-39551607D01*
X129701412Y-39515638D01*
X129745179Y-39503592D01*
X129797442Y-39519885D01*
G37*
G36*
X129797442Y-42400793D02*
G01*
X129841210Y-42432514D01*
X129877179Y-42484777D01*
X129889225Y-42528544D01*
X129872931Y-42580807D01*
X129841210Y-42624575D01*
X129788947Y-42660543D01*
X129745179Y-42672590D01*
X129692917Y-42656296D01*
X129649149Y-42624575D01*
X129613180Y-42572312D01*
X129601134Y-42528544D01*
X129617428Y-42476281D01*
X129649149Y-42432514D01*
X129701412Y-42396545D01*
X129745179Y-42384499D01*
X129797442Y-42400793D01*
G37*
G36*
X130085533Y-42112702D02*
G01*
X130129300Y-42144423D01*
X130165269Y-42196686D01*
X130177316Y-42240454D01*
X130161022Y-42292716D01*
X130129300Y-42336484D01*
X130077038Y-42372453D01*
X130033270Y-42384499D01*
X129981007Y-42368205D01*
X129937240Y-42336484D01*
X129901271Y-42284221D01*
X129889225Y-42240454D01*
X129905519Y-42188191D01*
X129937240Y-42144423D01*
X129989503Y-42108454D01*
X130033270Y-42096408D01*
X130085533Y-42112702D01*
G37*
G36*
X130085533Y-42688884D02*
G01*
X130129300Y-42720605D01*
X130165269Y-42772868D01*
X130177316Y-42816635D01*
X130161022Y-42868898D01*
X130129300Y-42912665D01*
X130077038Y-42948634D01*
X130033270Y-42960680D01*
X129981007Y-42944386D01*
X129937240Y-42912665D01*
X129901271Y-42860402D01*
X129889225Y-42816635D01*
X129905519Y-42764372D01*
X129937240Y-42720605D01*
X129989503Y-42684636D01*
X130033270Y-42672590D01*
X130085533Y-42688884D01*
G37*
G36*
X130085533Y-45281700D02*
G01*
X130129300Y-45313421D01*
X130165269Y-45365684D01*
X130177316Y-45409452D01*
X130161022Y-45461715D01*
X130129300Y-45505482D01*
X130077038Y-45541451D01*
X130033270Y-45553497D01*
X129981007Y-45537203D01*
X129937240Y-45505482D01*
X129901271Y-45453219D01*
X129889225Y-45409452D01*
X129905519Y-45357189D01*
X129937240Y-45313421D01*
X129989503Y-45277452D01*
X130033270Y-45265406D01*
X130085533Y-45281700D01*
G37*
G36*
X130085533Y-45857882D02*
G01*
X130129300Y-45889603D01*
X130165269Y-45941866D01*
X130177316Y-45985633D01*
X130161022Y-46037896D01*
X130129300Y-46081663D01*
X130077038Y-46117632D01*
X130033270Y-46129678D01*
X129981007Y-46113385D01*
X129937240Y-46081663D01*
X129901271Y-46029400D01*
X129889225Y-45985633D01*
X129905519Y-45933370D01*
X129937240Y-45889603D01*
X129989503Y-45853634D01*
X130033270Y-45841588D01*
X130085533Y-45857882D01*
G37*
G36*
X130373624Y-42400793D02*
G01*
X130417391Y-42432514D01*
X130453360Y-42484777D01*
X130465406Y-42528544D01*
X130449112Y-42580807D01*
X130417391Y-42624575D01*
X130365128Y-42660543D01*
X130321361Y-42672590D01*
X130269098Y-42656296D01*
X130225331Y-42624575D01*
X130189362Y-42572312D01*
X130177316Y-42528544D01*
X130193609Y-42476281D01*
X130225331Y-42432514D01*
X130277594Y-42396545D01*
X130321361Y-42384499D01*
X130373624Y-42400793D01*
G37*
G36*
X130373624Y-44993609D02*
G01*
X130417391Y-45025331D01*
X130453360Y-45077594D01*
X130465406Y-45121361D01*
X130449112Y-45173624D01*
X130417391Y-45217391D01*
X130365128Y-45253360D01*
X130321361Y-45265406D01*
X130269098Y-45249112D01*
X130225331Y-45217391D01*
X130189362Y-45165128D01*
X130177316Y-45121361D01*
X130193609Y-45069098D01*
X130225331Y-45025331D01*
X130277594Y-44989362D01*
X130321361Y-44977316D01*
X130373624Y-44993609D01*
G37*
G36*
X130373624Y-45569791D02*
G01*
X130417391Y-45601512D01*
X130453360Y-45653775D01*
X130465406Y-45697542D01*
X130449112Y-45749805D01*
X130417391Y-45793573D01*
X130365128Y-45829542D01*
X130321361Y-45841588D01*
X130269098Y-45825294D01*
X130225331Y-45793573D01*
X130189362Y-45741310D01*
X130177316Y-45697542D01*
X130193609Y-45645279D01*
X130225331Y-45601512D01*
X130277594Y-45565543D01*
X130321361Y-45553497D01*
X130373624Y-45569791D01*
G37*
G36*
X130661715Y-45281700D02*
G01*
X130705482Y-45313421D01*
X130741451Y-45365684D01*
X130753497Y-45409452D01*
X130737203Y-45461715D01*
X130705482Y-45505482D01*
X130653219Y-45541451D01*
X130609452Y-45553497D01*
X130557189Y-45537203D01*
X130513421Y-45505482D01*
X130477452Y-45453219D01*
X130465406Y-45409452D01*
X130481700Y-45357189D01*
X130513421Y-45313421D01*
X130565684Y-45277452D01*
X130609452Y-45265406D01*
X130661715Y-45281700D01*
G37*
G36*
X130949805Y-37791341D02*
G01*
X130993573Y-37823062D01*
X131029542Y-37875325D01*
X131041588Y-37919092D01*
X131025294Y-37971355D01*
X130993573Y-38015123D01*
X130941310Y-38051092D01*
X130897542Y-38063138D01*
X130845279Y-38046844D01*
X130801512Y-38015123D01*
X130765543Y-37962860D01*
X130753497Y-37919092D01*
X130769791Y-37866830D01*
X130801512Y-37823062D01*
X130853775Y-37787093D01*
X130897542Y-37775047D01*
X130949805Y-37791341D01*
G37*
G36*
X131237896Y-38367523D02*
G01*
X131281663Y-38399244D01*
X131317632Y-38451507D01*
X131329678Y-38495274D01*
X131313385Y-38547537D01*
X131281663Y-38591304D01*
X131229400Y-38627273D01*
X131185633Y-38639319D01*
X131133370Y-38623025D01*
X131089603Y-38591304D01*
X131053634Y-38539041D01*
X131041588Y-38495274D01*
X131057882Y-38443011D01*
X131089603Y-38399244D01*
X131141866Y-38363275D01*
X131185633Y-38351229D01*
X131237896Y-38367523D01*
G37*
G36*
X123171355Y-45569791D02*
G01*
X123215123Y-45601512D01*
X123240106Y-45634531D01*
X123254785Y-45679906D01*
X123261631Y-45749993D01*
X123263138Y-45841588D01*
X123261129Y-45943530D01*
X123253455Y-46009920D01*
X123237645Y-46053113D01*
X123215123Y-46081663D01*
X123162860Y-46117632D01*
X123119092Y-46129678D01*
X123066830Y-46113385D01*
X123023062Y-46081663D01*
X122998079Y-46048645D01*
X122983400Y-46003270D01*
X122976554Y-45933182D01*
X122975047Y-45841588D01*
X122977056Y-45739646D01*
X122984730Y-45673256D01*
X123000540Y-45630063D01*
X123023062Y-45601512D01*
X123075325Y-45565543D01*
X123119092Y-45553497D01*
X123171355Y-45569791D01*
G37*
G36*
X123365080Y-43826961D02*
G01*
X123431470Y-43834635D01*
X123474663Y-43850446D01*
X123503213Y-43872968D01*
X123539182Y-43925231D01*
X123551229Y-43968998D01*
X123534935Y-44021261D01*
X123503213Y-44065028D01*
X123470195Y-44090012D01*
X123424820Y-44104690D01*
X123354732Y-44111536D01*
X123263138Y-44113043D01*
X123161196Y-44111035D01*
X123094806Y-44103360D01*
X123051613Y-44087550D01*
X123023062Y-44065028D01*
X122987093Y-44012765D01*
X122975047Y-43968998D01*
X122991341Y-43916735D01*
X123023062Y-43872968D01*
X123056081Y-43847984D01*
X123101456Y-43833305D01*
X123171543Y-43826460D01*
X123263138Y-43824953D01*
X123365080Y-43826961D01*
G37*
G36*
X124229352Y-44979324D02*
G01*
X124295742Y-44986998D01*
X124338935Y-45002809D01*
X124367486Y-45025331D01*
X124403455Y-45077594D01*
X124415501Y-45121361D01*
X124399207Y-45173624D01*
X124367486Y-45217391D01*
X124334467Y-45242374D01*
X124289092Y-45257053D01*
X124219005Y-45263899D01*
X124127410Y-45265406D01*
X124025468Y-45263397D01*
X123959078Y-45255723D01*
X123915885Y-45239913D01*
X123887334Y-45217391D01*
X123851365Y-45165128D01*
X123839319Y-45121361D01*
X123855613Y-45069098D01*
X123887334Y-45025331D01*
X123920353Y-45000347D01*
X123965728Y-44985668D01*
X124035816Y-44978823D01*
X124127410Y-44977316D01*
X124229352Y-44979324D01*
G37*
G36*
X124899900Y-42400793D02*
G01*
X124943667Y-42432514D01*
X124968650Y-42465533D01*
X124983329Y-42510908D01*
X124990175Y-42580995D01*
X124991682Y-42672590D01*
X124989673Y-42774532D01*
X124981999Y-42840921D01*
X124966189Y-42884115D01*
X124943667Y-42912665D01*
X124891404Y-42948634D01*
X124847637Y-42960680D01*
X124795374Y-42944386D01*
X124751607Y-42912665D01*
X124726623Y-42879647D01*
X124711944Y-42834272D01*
X124705099Y-42764184D01*
X124703592Y-42672590D01*
X124705600Y-42570648D01*
X124713274Y-42504258D01*
X124729085Y-42461064D01*
X124751607Y-42432514D01*
X124803870Y-42396545D01*
X124847637Y-42384499D01*
X124899900Y-42400793D01*
G37*
G36*
X124899900Y-45569791D02*
G01*
X124943667Y-45601512D01*
X124968650Y-45634531D01*
X124983329Y-45679906D01*
X124990175Y-45749993D01*
X124991682Y-45841588D01*
X124989673Y-45943530D01*
X124981999Y-46009920D01*
X124966189Y-46053113D01*
X124943667Y-46081663D01*
X124891404Y-46117632D01*
X124847637Y-46129678D01*
X124795374Y-46113385D01*
X124751607Y-46081663D01*
X124726623Y-46048645D01*
X124711944Y-46003270D01*
X124705099Y-45933182D01*
X124703592Y-45841588D01*
X124705600Y-45739646D01*
X124713274Y-45673256D01*
X124729085Y-45630063D01*
X124751607Y-45601512D01*
X124803870Y-45565543D01*
X124847637Y-45553497D01*
X124899900Y-45569791D01*
G37*
G36*
X126052263Y-41248430D02*
G01*
X126096030Y-41280151D01*
X126121013Y-41313170D01*
X126135692Y-41358545D01*
X126142538Y-41428632D01*
X126144045Y-41520227D01*
X126142036Y-41622169D01*
X126134362Y-41688558D01*
X126118552Y-41731752D01*
X126096030Y-41760302D01*
X126043767Y-41796271D01*
X126000000Y-41808317D01*
X125947737Y-41792023D01*
X125903970Y-41760302D01*
X125878986Y-41727284D01*
X125864307Y-41681909D01*
X125857462Y-41611821D01*
X125855954Y-41520227D01*
X125857963Y-41418285D01*
X125865637Y-41351895D01*
X125881448Y-41308701D01*
X125903970Y-41280151D01*
X125956233Y-41244182D01*
X126000000Y-41232136D01*
X126052263Y-41248430D01*
G37*
G36*
X126052263Y-42400793D02*
G01*
X126096030Y-42432514D01*
X126121013Y-42465533D01*
X126135692Y-42510908D01*
X126142538Y-42580995D01*
X126144045Y-42672590D01*
X126142036Y-42774532D01*
X126134362Y-42840921D01*
X126118552Y-42884115D01*
X126096030Y-42912665D01*
X126043767Y-42948634D01*
X126000000Y-42960680D01*
X125947737Y-42944386D01*
X125903970Y-42912665D01*
X125878986Y-42879647D01*
X125864307Y-42834272D01*
X125857462Y-42764184D01*
X125855954Y-42672590D01*
X125857963Y-42570648D01*
X125865637Y-42504258D01*
X125881448Y-42461064D01*
X125903970Y-42432514D01*
X125956233Y-42396545D01*
X126000000Y-42384499D01*
X126052263Y-42400793D01*
G37*
G36*
X127398350Y-44979324D02*
G01*
X127464740Y-44986998D01*
X127507933Y-45002809D01*
X127536484Y-45025331D01*
X127572453Y-45077594D01*
X127584499Y-45121361D01*
X127568205Y-45173624D01*
X127536484Y-45217391D01*
X127503465Y-45242374D01*
X127458090Y-45257053D01*
X127388003Y-45263899D01*
X127296408Y-45265406D01*
X127194466Y-45263397D01*
X127128076Y-45255723D01*
X127084883Y-45239913D01*
X127056333Y-45217391D01*
X127020364Y-45165128D01*
X127008317Y-45121361D01*
X127024611Y-45069098D01*
X127056333Y-45025331D01*
X127089351Y-45000347D01*
X127134726Y-44985668D01*
X127204814Y-44978823D01*
X127296408Y-44977316D01*
X127398350Y-44979324D01*
G37*
G36*
X127974532Y-39505600D02*
G01*
X128040921Y-39513274D01*
X128084115Y-39529085D01*
X128112665Y-39551607D01*
X128148634Y-39603870D01*
X128160680Y-39647637D01*
X128144386Y-39699900D01*
X128112665Y-39743667D01*
X128079647Y-39768650D01*
X128034272Y-39783329D01*
X127964184Y-39790175D01*
X127872590Y-39791682D01*
X127770648Y-39789673D01*
X127704258Y-39781999D01*
X127661064Y-39766189D01*
X127632514Y-39743667D01*
X127596545Y-39691404D01*
X127584499Y-39647637D01*
X127600793Y-39595374D01*
X127632514Y-39551607D01*
X127665533Y-39526623D01*
X127710908Y-39511944D01*
X127780995Y-39505099D01*
X127872590Y-39503592D01*
X127974532Y-39505600D01*
G37*
G36*
X130279258Y-41522236D02*
G01*
X130345647Y-41529910D01*
X130388841Y-41545720D01*
X130417391Y-41568242D01*
X130453360Y-41620505D01*
X130465406Y-41664272D01*
X130449112Y-41716535D01*
X130417391Y-41760302D01*
X130384372Y-41785286D01*
X130338998Y-41799965D01*
X130268910Y-41806810D01*
X130177316Y-41808317D01*
X130075373Y-41806309D01*
X130008984Y-41798635D01*
X129965790Y-41782824D01*
X129937240Y-41760302D01*
X129901271Y-41708039D01*
X129889225Y-41664272D01*
X129905519Y-41612009D01*
X129937240Y-41568242D01*
X129970259Y-41543258D01*
X130015634Y-41528580D01*
X130085721Y-41521734D01*
X130177316Y-41520227D01*
X130279258Y-41522236D01*
G37*
G36*
X130567348Y-42962689D02*
G01*
X130633738Y-42970363D01*
X130676932Y-42986174D01*
X130705482Y-43008696D01*
X130741451Y-43060958D01*
X130753497Y-43104726D01*
X130737203Y-43156989D01*
X130705482Y-43200756D01*
X130672463Y-43225739D01*
X130627088Y-43240418D01*
X130557001Y-43247264D01*
X130465406Y-43248771D01*
X130363464Y-43246762D01*
X130297074Y-43239088D01*
X130253881Y-43223278D01*
X130225331Y-43200756D01*
X130189362Y-43148493D01*
X130177316Y-43104726D01*
X130193609Y-43052463D01*
X130225331Y-43008696D01*
X130258349Y-42983712D01*
X130303724Y-42969033D01*
X130373812Y-42962188D01*
X130465406Y-42960680D01*
X130567348Y-42962689D01*
G37*
G36*
X130855439Y-41810326D02*
G01*
X130921829Y-41818000D01*
X130965022Y-41833811D01*
X130993573Y-41856333D01*
X131029542Y-41908595D01*
X131041588Y-41952363D01*
X131025294Y-42004626D01*
X130993573Y-42048393D01*
X130960554Y-42073376D01*
X130915179Y-42088055D01*
X130845091Y-42094901D01*
X130753497Y-42096408D01*
X130651555Y-42094399D01*
X130585165Y-42086725D01*
X130541972Y-42070915D01*
X130513421Y-42048393D01*
X130477452Y-41996130D01*
X130465406Y-41952363D01*
X130481700Y-41900100D01*
X130513421Y-41856333D01*
X130546440Y-41831349D01*
X130591815Y-41816670D01*
X130661903Y-41809825D01*
X130753497Y-41808317D01*
X130855439Y-41810326D01*
G37*
G36*
X130855439Y-44403143D02*
G01*
X130921829Y-44410817D01*
X130965022Y-44426627D01*
X130993573Y-44449149D01*
X131029542Y-44501412D01*
X131041588Y-44545179D01*
X131025294Y-44597442D01*
X130993573Y-44641210D01*
X130960554Y-44666193D01*
X130915179Y-44680872D01*
X130845091Y-44687718D01*
X130753497Y-44689225D01*
X130651555Y-44687216D01*
X130585165Y-44679542D01*
X130541972Y-44663732D01*
X130513421Y-44641210D01*
X130477452Y-44588947D01*
X130465406Y-44545179D01*
X130481700Y-44492917D01*
X130513421Y-44449149D01*
X130546440Y-44424166D01*
X130591815Y-44409487D01*
X130661903Y-44402641D01*
X130753497Y-44401134D01*
X130855439Y-44403143D01*
G37*
G36*
X121742108Y-36055021D02*
G01*
X121871420Y-36100520D01*
X121983798Y-36180821D01*
X122060217Y-36284163D01*
X122100677Y-36401769D01*
X122105179Y-36524863D01*
X122073721Y-36644667D01*
X122006304Y-36752404D01*
X121902929Y-36839297D01*
X121871420Y-36856758D01*
X121788533Y-36889621D01*
X121705724Y-36908773D01*
X121678639Y-36910775D01*
X121604192Y-36899554D01*
X121517835Y-36871305D01*
X121485857Y-36856758D01*
X121373479Y-36776457D01*
X121297060Y-36673115D01*
X121256600Y-36555508D01*
X121252099Y-36432415D01*
X121283557Y-36312611D01*
X121350973Y-36204874D01*
X121454348Y-36117981D01*
X121485857Y-36100520D01*
X121616311Y-36054814D01*
X121742108Y-36055021D01*
G37*
G36*
X130384830Y-36055021D02*
G01*
X130514143Y-36100520D01*
X130626520Y-36180821D01*
X130702939Y-36284163D01*
X130743399Y-36401769D01*
X130747901Y-36524863D01*
X130716443Y-36644667D01*
X130649027Y-36752404D01*
X130545651Y-36839297D01*
X130514143Y-36856758D01*
X130431255Y-36889621D01*
X130348446Y-36908773D01*
X130321361Y-36910775D01*
X130246914Y-36899554D01*
X130160558Y-36871305D01*
X130128579Y-36856758D01*
X130016201Y-36776457D01*
X129939783Y-36673115D01*
X129899322Y-36555508D01*
X129894821Y-36432415D01*
X129926279Y-36312611D01*
X129993695Y-36204874D01*
X130097071Y-36117981D01*
X130128579Y-36100520D01*
X130259033Y-36054814D01*
X130384830Y-36055021D01*
G37*
G36*
X121753085Y-44700446D02*
G01*
X121839442Y-44728695D01*
X121871420Y-44743242D01*
X121983798Y-44823543D01*
X122060217Y-44926885D01*
X122100677Y-45044491D01*
X122105179Y-45167585D01*
X122073721Y-45287389D01*
X122006304Y-45395126D01*
X121902929Y-45482019D01*
X121871420Y-45499480D01*
X121788533Y-45532343D01*
X121705724Y-45551495D01*
X121678639Y-45553497D01*
X121604192Y-45542276D01*
X121517835Y-45514027D01*
X121485857Y-45499480D01*
X121373479Y-45419179D01*
X121297060Y-45315837D01*
X121256600Y-45198231D01*
X121252099Y-45075137D01*
X121283557Y-44955333D01*
X121350973Y-44847596D01*
X121454348Y-44760703D01*
X121485857Y-44743242D01*
X121568745Y-44710378D01*
X121651553Y-44691227D01*
X121678639Y-44689225D01*
X121753085Y-44700446D01*
G37*
G36*
X121060354Y-37777056D02*
G01*
X121126744Y-37784730D01*
X121169937Y-37800540D01*
X121198488Y-37823062D01*
X121239773Y-37889811D01*
X121239126Y-37956059D01*
X121201890Y-38012901D01*
X121133408Y-38051433D01*
X121054442Y-38063138D01*
X120958412Y-38063138D01*
X120958412Y-38159168D01*
X120942062Y-38248840D01*
X120898337Y-38315759D01*
X120835225Y-38349277D01*
X120814367Y-38351229D01*
X120762104Y-38334935D01*
X120718336Y-38303213D01*
X120693353Y-38270195D01*
X120678674Y-38224820D01*
X120671828Y-38154732D01*
X120670321Y-38063138D01*
X120672330Y-37961196D01*
X120680004Y-37894806D01*
X120695815Y-37851613D01*
X120718336Y-37823062D01*
X120751355Y-37798079D01*
X120796730Y-37783400D01*
X120866817Y-37776554D01*
X120958412Y-37775047D01*
X121060354Y-37777056D01*
G37*
G36*
X124517443Y-42098417D02*
G01*
X124583833Y-42106091D01*
X124627026Y-42121901D01*
X124655576Y-42144423D01*
X124696862Y-42211172D01*
X124696215Y-42277420D01*
X124658979Y-42334262D01*
X124590497Y-42372794D01*
X124511531Y-42384499D01*
X124415501Y-42384499D01*
X124415501Y-42480529D01*
X124399151Y-42570201D01*
X124355426Y-42637120D01*
X124292314Y-42670638D01*
X124271455Y-42672590D01*
X124219193Y-42656296D01*
X124175425Y-42624575D01*
X124150442Y-42591556D01*
X124135763Y-42546181D01*
X124128917Y-42476093D01*
X124127410Y-42384499D01*
X124129419Y-42282557D01*
X124137093Y-42216167D01*
X124152903Y-42172974D01*
X124175425Y-42144423D01*
X124208444Y-42119440D01*
X124253819Y-42104761D01*
X124323906Y-42097915D01*
X124415501Y-42096408D01*
X124517443Y-42098417D01*
G37*
G36*
X127477420Y-37494333D02*
G01*
X127534262Y-37531569D01*
X127572794Y-37600051D01*
X127584499Y-37679017D01*
X127584499Y-37775047D01*
X127680529Y-37775047D01*
X127770201Y-37791397D01*
X127837120Y-37835122D01*
X127870638Y-37898234D01*
X127872590Y-37919092D01*
X127856296Y-37971355D01*
X127824575Y-38015123D01*
X127791556Y-38040106D01*
X127746181Y-38054785D01*
X127676093Y-38061631D01*
X127584499Y-38063138D01*
X127482557Y-38061129D01*
X127416167Y-38053455D01*
X127372974Y-38037645D01*
X127344423Y-38015123D01*
X127319440Y-37982104D01*
X127304761Y-37936729D01*
X127297915Y-37866642D01*
X127296408Y-37775047D01*
X127298417Y-37673105D01*
X127306091Y-37606715D01*
X127321901Y-37563522D01*
X127344423Y-37534972D01*
X127411172Y-37493686D01*
X127477420Y-37494333D01*
G37*
G36*
X128356989Y-37215160D02*
G01*
X128400756Y-37246881D01*
X128425739Y-37279899D01*
X128440418Y-37325274D01*
X128447264Y-37395362D01*
X128448771Y-37486956D01*
X128446762Y-37588899D01*
X128439088Y-37655288D01*
X128423278Y-37698482D01*
X128400756Y-37727032D01*
X128367737Y-37752015D01*
X128322362Y-37766694D01*
X128252275Y-37773540D01*
X128160680Y-37775047D01*
X128058738Y-37773038D01*
X127992349Y-37765364D01*
X127949155Y-37749554D01*
X127920605Y-37727032D01*
X127879320Y-37660283D01*
X127879966Y-37594035D01*
X127917202Y-37537194D01*
X127985685Y-37498662D01*
X128064650Y-37486956D01*
X128160680Y-37486956D01*
X128160680Y-37390926D01*
X128177030Y-37301255D01*
X128220755Y-37234335D01*
X128283868Y-37200818D01*
X128304726Y-37198866D01*
X128356989Y-37215160D01*
G37*
G36*
X129782146Y-40663331D02*
G01*
X129838988Y-40700567D01*
X129877520Y-40769049D01*
X129889225Y-40848015D01*
X129889225Y-40944045D01*
X129985255Y-40944045D01*
X130074927Y-40960395D01*
X130141846Y-41004120D01*
X130175364Y-41067233D01*
X130177316Y-41088091D01*
X130161022Y-41140354D01*
X130129300Y-41184121D01*
X130096282Y-41209104D01*
X130050907Y-41223783D01*
X129980819Y-41230629D01*
X129889225Y-41232136D01*
X129787283Y-41230127D01*
X129720893Y-41222453D01*
X129677700Y-41206643D01*
X129649149Y-41184121D01*
X129624166Y-41151102D01*
X129609487Y-41105727D01*
X129602641Y-41035640D01*
X129601134Y-40944045D01*
X129603143Y-40842103D01*
X129610817Y-40775713D01*
X129626627Y-40732520D01*
X129649149Y-40703970D01*
X129715898Y-40662684D01*
X129782146Y-40663331D01*
G37*
G36*
X131237896Y-42112702D02*
G01*
X131281663Y-42144423D01*
X131306647Y-42177442D01*
X131321326Y-42222817D01*
X131328171Y-42292904D01*
X131329678Y-42384499D01*
X131327670Y-42486441D01*
X131319996Y-42552831D01*
X131304185Y-42596024D01*
X131281663Y-42624575D01*
X131248645Y-42649558D01*
X131203270Y-42664237D01*
X131133182Y-42671083D01*
X131041588Y-42672590D01*
X130939646Y-42670581D01*
X130873256Y-42662907D01*
X130830063Y-42647096D01*
X130801512Y-42624575D01*
X130760227Y-42557825D01*
X130760874Y-42491578D01*
X130798109Y-42434736D01*
X130866592Y-42396204D01*
X130945558Y-42384499D01*
X131041588Y-42384499D01*
X131041588Y-42288469D01*
X131057938Y-42198797D01*
X131101662Y-42131878D01*
X131164775Y-42098360D01*
X131185633Y-42096408D01*
X131237896Y-42112702D01*
G37*
G36*
X131237896Y-44705519D02*
G01*
X131281663Y-44737240D01*
X131306647Y-44770259D01*
X131321326Y-44815634D01*
X131328171Y-44885721D01*
X131329678Y-44977316D01*
X131327670Y-45079258D01*
X131319996Y-45145647D01*
X131304185Y-45188841D01*
X131281663Y-45217391D01*
X131248645Y-45242374D01*
X131203270Y-45257053D01*
X131133182Y-45263899D01*
X131041588Y-45265406D01*
X130939646Y-45263397D01*
X130873256Y-45255723D01*
X130830063Y-45239913D01*
X130801512Y-45217391D01*
X130760227Y-45150642D01*
X130760874Y-45084395D01*
X130798109Y-45027553D01*
X130866592Y-44989021D01*
X130945558Y-44977316D01*
X131041588Y-44977316D01*
X131041588Y-44881285D01*
X131057938Y-44791614D01*
X131101662Y-44724695D01*
X131164775Y-44691177D01*
X131185633Y-44689225D01*
X131237896Y-44705519D01*
G37*
G36*
X128356989Y-42688884D02*
G01*
X128400756Y-42720605D01*
X128419985Y-42743948D01*
X128433303Y-42774576D01*
X128441774Y-42821004D01*
X128446464Y-42891749D01*
X128448435Y-42995325D01*
X128448771Y-43104726D01*
X128448183Y-43239917D01*
X128445711Y-43335616D01*
X128440288Y-43400338D01*
X128430852Y-43442599D01*
X128416337Y-43470915D01*
X128400756Y-43488847D01*
X128348493Y-43524816D01*
X128304726Y-43536862D01*
X128252463Y-43520568D01*
X128208696Y-43488847D01*
X128189466Y-43465504D01*
X128176148Y-43434876D01*
X128167677Y-43388447D01*
X128162988Y-43317703D01*
X128161016Y-43214127D01*
X128160680Y-43104726D01*
X128161268Y-42969535D01*
X128163741Y-42873836D01*
X128169163Y-42809114D01*
X128178600Y-42766853D01*
X128193115Y-42738537D01*
X128208696Y-42720605D01*
X128260958Y-42684636D01*
X128304726Y-42672590D01*
X128356989Y-42688884D01*
G37*
G36*
X131032734Y-45842175D02*
G01*
X131128432Y-45844648D01*
X131193155Y-45850071D01*
X131235416Y-45859507D01*
X131263731Y-45874022D01*
X131281663Y-45889603D01*
X131317632Y-45941866D01*
X131329678Y-45985633D01*
X131313385Y-46037896D01*
X131281663Y-46081663D01*
X131258320Y-46100892D01*
X131227692Y-46114210D01*
X131181264Y-46122682D01*
X131110520Y-46127371D01*
X131006943Y-46129343D01*
X130897542Y-46129678D01*
X130762351Y-46129091D01*
X130666652Y-46126618D01*
X130601930Y-46121195D01*
X130559669Y-46111759D01*
X130531354Y-46097244D01*
X130513421Y-46081663D01*
X130477452Y-46029400D01*
X130465406Y-45985633D01*
X130481700Y-45933370D01*
X130513421Y-45889603D01*
X130536765Y-45870374D01*
X130567393Y-45857056D01*
X130613821Y-45848584D01*
X130684565Y-45843895D01*
X130788141Y-45841924D01*
X130897542Y-45841588D01*
X131032734Y-45842175D01*
G37*
G36*
X121060354Y-39217510D02*
G01*
X121126744Y-39225184D01*
X121169937Y-39240994D01*
X121198488Y-39263516D01*
X121239773Y-39330265D01*
X121239126Y-39396513D01*
X121201890Y-39453354D01*
X121133408Y-39491886D01*
X121054442Y-39503592D01*
X120958412Y-39503592D01*
X120958412Y-39743667D01*
X120957212Y-39856964D01*
X120952432Y-39932894D01*
X120942304Y-39982070D01*
X120925058Y-40015106D01*
X120910397Y-40031758D01*
X120858134Y-40067727D01*
X120814367Y-40079773D01*
X120762104Y-40063479D01*
X120718336Y-40031758D01*
X120699107Y-40008415D01*
X120685789Y-39977787D01*
X120677318Y-39931358D01*
X120672629Y-39860614D01*
X120670657Y-39757038D01*
X120670321Y-39647637D01*
X120671327Y-39494116D01*
X120677246Y-39382076D01*
X120692433Y-39304987D01*
X120721240Y-39256319D01*
X120768022Y-39229541D01*
X120837132Y-39218123D01*
X120932923Y-39215534D01*
X120958412Y-39215501D01*
X121060354Y-39217510D01*
G37*
G36*
X121636536Y-43250780D02*
G01*
X121702925Y-43258454D01*
X121746119Y-43274264D01*
X121774669Y-43296786D01*
X121799652Y-43329805D01*
X121814331Y-43375180D01*
X121821177Y-43445267D01*
X121822684Y-43536862D01*
X121821176Y-43639209D01*
X121812297Y-43713903D01*
X121789517Y-43765295D01*
X121746306Y-43797741D01*
X121676133Y-43815593D01*
X121572468Y-43823205D01*
X121428781Y-43824931D01*
X121390548Y-43824953D01*
X121255357Y-43824365D01*
X121159658Y-43821892D01*
X121094936Y-43816470D01*
X121052675Y-43807033D01*
X121024359Y-43792518D01*
X121006427Y-43776937D01*
X120965142Y-43710188D01*
X120965788Y-43643941D01*
X121003024Y-43587099D01*
X121071507Y-43548567D01*
X121150472Y-43536862D01*
X121246503Y-43536862D01*
X121246503Y-43440832D01*
X121255193Y-43357825D01*
X121285745Y-43301632D01*
X121344881Y-43267771D01*
X121439323Y-43251761D01*
X121534593Y-43248771D01*
X121636536Y-43250780D01*
G37*
G36*
X122867968Y-42103785D02*
G01*
X122924810Y-42141021D01*
X122963342Y-42209503D01*
X122975047Y-42288469D01*
X122975047Y-42384499D01*
X123071077Y-42384499D01*
X123160749Y-42400849D01*
X123227668Y-42444574D01*
X123261186Y-42507686D01*
X123263138Y-42528544D01*
X123246844Y-42580807D01*
X123215123Y-42624575D01*
X123191780Y-42643804D01*
X123161152Y-42657122D01*
X123114723Y-42665593D01*
X123043979Y-42670282D01*
X122940403Y-42672254D01*
X122831002Y-42672590D01*
X122695810Y-42672002D01*
X122600112Y-42669529D01*
X122535390Y-42664107D01*
X122493129Y-42654670D01*
X122464813Y-42640155D01*
X122446881Y-42624575D01*
X122405596Y-42557825D01*
X122406242Y-42491578D01*
X122443478Y-42434736D01*
X122511961Y-42396204D01*
X122590926Y-42384499D01*
X122686956Y-42384499D01*
X122686956Y-42288469D01*
X122703932Y-42191245D01*
X122734972Y-42144423D01*
X122801721Y-42103138D01*
X122867968Y-42103785D01*
G37*
G36*
X123732240Y-45272783D02*
G01*
X123789082Y-45310019D01*
X123827614Y-45378501D01*
X123839319Y-45457467D01*
X123839319Y-45553497D01*
X123935350Y-45553497D01*
X124032574Y-45570473D01*
X124079395Y-45601512D01*
X124120680Y-45668261D01*
X124120034Y-45734509D01*
X124082798Y-45791351D01*
X124014315Y-45829882D01*
X123935350Y-45841588D01*
X123839319Y-45841588D01*
X123839319Y-45937618D01*
X123822970Y-46027289D01*
X123779245Y-46094209D01*
X123716132Y-46127727D01*
X123695274Y-46129678D01*
X123643011Y-46113385D01*
X123599244Y-46081663D01*
X123580015Y-46058320D01*
X123566697Y-46027692D01*
X123558225Y-45981264D01*
X123553536Y-45910520D01*
X123551565Y-45806943D01*
X123551229Y-45697542D01*
X123551816Y-45562351D01*
X123554289Y-45466652D01*
X123559712Y-45401930D01*
X123569148Y-45359669D01*
X123583663Y-45331354D01*
X123599244Y-45313421D01*
X123665993Y-45272136D01*
X123732240Y-45272783D01*
G37*
G36*
X125381715Y-41522236D02*
G01*
X125448105Y-41529910D01*
X125491298Y-41545720D01*
X125519849Y-41568242D01*
X125544832Y-41601260D01*
X125559511Y-41646635D01*
X125566357Y-41716723D01*
X125567864Y-41808317D01*
X125566355Y-41910665D01*
X125557476Y-41985358D01*
X125534697Y-42036751D01*
X125491485Y-42069196D01*
X125421313Y-42087048D01*
X125317648Y-42094660D01*
X125173961Y-42096386D01*
X125135728Y-42096408D01*
X125000536Y-42095820D01*
X124904838Y-42093348D01*
X124840115Y-42087925D01*
X124797854Y-42078489D01*
X124769539Y-42063974D01*
X124751607Y-42048393D01*
X124710322Y-41981644D01*
X124710968Y-41915396D01*
X124748204Y-41858555D01*
X124816686Y-41820023D01*
X124895652Y-41808317D01*
X124991682Y-41808317D01*
X124991682Y-41712287D01*
X125000373Y-41629280D01*
X125030925Y-41573087D01*
X125090061Y-41539226D01*
X125184503Y-41523217D01*
X125279773Y-41520227D01*
X125381715Y-41522236D01*
G37*
G36*
X125751270Y-35480395D02*
G01*
X125807939Y-35518336D01*
X125832923Y-35551355D01*
X125847602Y-35596730D01*
X125854447Y-35666817D01*
X125855954Y-35758412D01*
X125854446Y-35860760D01*
X125845567Y-35935453D01*
X125822787Y-35986845D01*
X125779576Y-36019291D01*
X125709403Y-36037143D01*
X125605739Y-36044755D01*
X125462051Y-36046481D01*
X125423818Y-36046503D01*
X125288627Y-36045915D01*
X125192928Y-36043442D01*
X125128206Y-36038020D01*
X125085945Y-36028583D01*
X125057630Y-36014068D01*
X125039697Y-35998488D01*
X125003728Y-35946225D01*
X124991682Y-35902457D01*
X125007976Y-35850194D01*
X125039697Y-35806427D01*
X125068117Y-35784008D01*
X125106246Y-35769778D01*
X125164696Y-35761968D01*
X125254082Y-35758810D01*
X125327788Y-35758412D01*
X125567864Y-35758412D01*
X125567864Y-35662382D01*
X125583779Y-35571498D01*
X125625588Y-35507311D01*
X125684386Y-35475163D01*
X125751270Y-35480395D01*
G37*
G36*
X127110260Y-45555506D02*
G01*
X127176649Y-45563180D01*
X127219843Y-45578990D01*
X127248393Y-45601512D01*
X127273376Y-45634531D01*
X127288055Y-45679906D01*
X127294901Y-45749993D01*
X127296408Y-45841588D01*
X127294900Y-45943935D01*
X127286021Y-46018629D01*
X127263241Y-46070021D01*
X127220030Y-46102467D01*
X127149857Y-46120319D01*
X127046192Y-46127931D01*
X126902505Y-46129656D01*
X126864272Y-46129678D01*
X126729081Y-46129091D01*
X126633382Y-46126618D01*
X126568660Y-46121195D01*
X126526399Y-46111759D01*
X126498083Y-46097244D01*
X126480151Y-46081663D01*
X126438866Y-46014914D01*
X126439512Y-45948667D01*
X126476748Y-45891825D01*
X126545231Y-45853293D01*
X126624196Y-45841588D01*
X126720227Y-45841588D01*
X126720227Y-45745558D01*
X126728917Y-45662551D01*
X126759469Y-45606357D01*
X126818605Y-45572497D01*
X126913047Y-45556487D01*
X127008317Y-45553497D01*
X127110260Y-45555506D01*
G37*
G36*
X127189329Y-36630061D02*
G01*
X127246171Y-36667296D01*
X127284703Y-36735779D01*
X127296408Y-36814745D01*
X127296408Y-36910775D01*
X127392438Y-36910775D01*
X127489662Y-36927751D01*
X127536484Y-36958790D01*
X127577769Y-37025539D01*
X127577122Y-37091787D01*
X127539887Y-37148628D01*
X127471404Y-37187160D01*
X127392438Y-37198866D01*
X127296408Y-37198866D01*
X127296408Y-37294896D01*
X127280058Y-37384567D01*
X127236334Y-37451487D01*
X127173221Y-37485004D01*
X127152363Y-37486956D01*
X127100100Y-37470662D01*
X127056333Y-37438941D01*
X127037103Y-37415598D01*
X127023785Y-37384970D01*
X127015314Y-37338542D01*
X127010625Y-37267797D01*
X127008653Y-37164221D01*
X127008317Y-37054820D01*
X127008905Y-36919629D01*
X127011378Y-36823930D01*
X127016800Y-36759208D01*
X127026237Y-36716947D01*
X127040752Y-36688631D01*
X127056333Y-36670699D01*
X127123082Y-36629414D01*
X127189329Y-36630061D01*
G37*
G36*
X130878007Y-40949839D02*
G01*
X130962297Y-40970207D01*
X131013088Y-41009631D01*
X131037103Y-41072592D01*
X131041588Y-41136106D01*
X131041588Y-41232136D01*
X131137618Y-41232136D01*
X131227289Y-41248486D01*
X131294209Y-41292211D01*
X131327727Y-41355323D01*
X131329678Y-41376181D01*
X131313385Y-41428444D01*
X131281663Y-41472212D01*
X131248645Y-41497195D01*
X131203270Y-41511874D01*
X131133182Y-41518720D01*
X131041588Y-41520227D01*
X130939646Y-41518218D01*
X130873256Y-41510544D01*
X130830063Y-41494733D01*
X130801512Y-41472212D01*
X130761388Y-41398136D01*
X130753497Y-41328166D01*
X130753497Y-41232136D01*
X130657467Y-41232136D01*
X130567795Y-41215786D01*
X130500876Y-41172061D01*
X130467358Y-41108949D01*
X130465406Y-41088091D01*
X130481700Y-41035828D01*
X130513421Y-40992060D01*
X130546440Y-40967077D01*
X130591815Y-40952398D01*
X130661903Y-40945552D01*
X130753497Y-40944045D01*
X130878007Y-40949839D01*
G37*
G36*
X123171355Y-37215160D02*
G01*
X123215123Y-37246881D01*
X123237542Y-37275301D01*
X123251772Y-37313429D01*
X123259582Y-37371879D01*
X123262740Y-37461265D01*
X123263138Y-37534972D01*
X123263138Y-37775047D01*
X123359168Y-37775047D01*
X123448840Y-37791397D01*
X123515759Y-37835122D01*
X123549277Y-37898234D01*
X123551229Y-37919092D01*
X123534935Y-37971355D01*
X123503213Y-38015123D01*
X123470195Y-38040106D01*
X123424820Y-38054785D01*
X123354732Y-38061631D01*
X123263138Y-38063138D01*
X123161196Y-38061129D01*
X123094806Y-38053455D01*
X123051613Y-38037645D01*
X123023062Y-38015123D01*
X123003833Y-37991780D01*
X122990515Y-37961152D01*
X122982044Y-37914723D01*
X122977355Y-37843979D01*
X122975383Y-37740403D01*
X122975047Y-37631002D01*
X122975635Y-37495810D01*
X122978108Y-37400112D01*
X122983530Y-37335390D01*
X122992967Y-37293129D01*
X123007482Y-37264813D01*
X123023062Y-37246881D01*
X123075325Y-37210912D01*
X123119092Y-37198866D01*
X123171355Y-37215160D01*
G37*
G36*
X130070237Y-39799059D02*
G01*
X130127078Y-39836295D01*
X130165610Y-39904777D01*
X130177316Y-39983743D01*
X130177316Y-40079773D01*
X130273346Y-40079773D01*
X130356353Y-40088463D01*
X130412546Y-40119016D01*
X130446407Y-40178152D01*
X130462416Y-40272593D01*
X130465406Y-40367864D01*
X130463397Y-40469806D01*
X130455723Y-40536196D01*
X130439913Y-40579389D01*
X130417391Y-40607939D01*
X130365128Y-40643908D01*
X130321361Y-40655954D01*
X130269098Y-40639661D01*
X130225331Y-40607939D01*
X130185207Y-40533864D01*
X130177316Y-40463894D01*
X130177316Y-40367864D01*
X129937240Y-40367864D01*
X129823943Y-40366664D01*
X129748013Y-40361884D01*
X129698837Y-40351756D01*
X129665801Y-40334510D01*
X129649149Y-40319849D01*
X129607864Y-40253100D01*
X129608511Y-40186852D01*
X129645746Y-40130010D01*
X129714229Y-40091478D01*
X129793195Y-40079773D01*
X129889225Y-40079773D01*
X129889225Y-39983743D01*
X129906201Y-39886519D01*
X129937240Y-39839697D01*
X130003989Y-39798412D01*
X130070237Y-39799059D01*
G37*
G36*
X131051064Y-43537867D02*
G01*
X131163104Y-43543787D01*
X131240193Y-43558973D01*
X131288861Y-43587781D01*
X131315639Y-43634563D01*
X131327057Y-43703672D01*
X131329645Y-43799464D01*
X131329678Y-43824953D01*
X131327670Y-43926895D01*
X131319996Y-43993284D01*
X131304185Y-44036478D01*
X131281663Y-44065028D01*
X131214914Y-44106313D01*
X131148667Y-44105667D01*
X131091825Y-44068431D01*
X131053293Y-43999948D01*
X131041588Y-43920983D01*
X131041588Y-43824953D01*
X130897542Y-43824953D01*
X130753497Y-43824953D01*
X130753497Y-43920983D01*
X130737147Y-44010654D01*
X130693422Y-44077574D01*
X130630310Y-44111091D01*
X130609452Y-44113043D01*
X130557189Y-44096749D01*
X130513421Y-44065028D01*
X130488438Y-44032010D01*
X130473759Y-43986635D01*
X130466913Y-43916547D01*
X130465406Y-43824953D01*
X130466915Y-43722605D01*
X130475794Y-43647912D01*
X130498573Y-43596519D01*
X130541785Y-43564074D01*
X130611957Y-43546222D01*
X130715622Y-43538610D01*
X130859310Y-43536884D01*
X130897542Y-43536862D01*
X131051064Y-43537867D01*
G37*
G36*
X123747537Y-41536521D02*
G01*
X123791304Y-41568242D01*
X123816288Y-41601260D01*
X123830966Y-41646635D01*
X123837812Y-41716723D01*
X123839319Y-41808317D01*
X123833526Y-41932828D01*
X123813158Y-42017118D01*
X123773733Y-42067909D01*
X123710772Y-42091923D01*
X123647259Y-42096408D01*
X123551229Y-42096408D01*
X123551229Y-42192438D01*
X123534879Y-42282110D01*
X123491154Y-42349029D01*
X123428041Y-42382547D01*
X123407183Y-42384499D01*
X123354920Y-42368205D01*
X123311153Y-42336484D01*
X123271029Y-42262408D01*
X123263138Y-42192438D01*
X123263138Y-42096408D01*
X123167108Y-42096408D01*
X123077436Y-42080058D01*
X123010517Y-42036334D01*
X122976999Y-41973221D01*
X122975047Y-41952363D01*
X122991341Y-41900100D01*
X123023062Y-41856333D01*
X123051482Y-41833913D01*
X123089611Y-41819683D01*
X123148061Y-41811874D01*
X123237447Y-41808715D01*
X123311153Y-41808317D01*
X123551229Y-41808317D01*
X123551229Y-41712287D01*
X123567578Y-41622616D01*
X123611303Y-41555696D01*
X123674416Y-41522179D01*
X123695274Y-41520227D01*
X123747537Y-41536521D01*
G37*
G36*
X125116193Y-44983109D02*
G01*
X125200482Y-45003477D01*
X125251274Y-45042901D01*
X125275288Y-45105863D01*
X125279773Y-45169376D01*
X125279773Y-45265406D01*
X125375803Y-45265406D01*
X125458810Y-45274097D01*
X125515003Y-45304649D01*
X125548864Y-45363785D01*
X125564874Y-45458227D01*
X125567864Y-45553497D01*
X125565855Y-45655439D01*
X125558181Y-45721829D01*
X125542370Y-45765022D01*
X125519849Y-45793573D01*
X125467586Y-45829542D01*
X125423818Y-45841588D01*
X125371555Y-45825294D01*
X125327788Y-45793573D01*
X125287664Y-45719497D01*
X125279773Y-45649527D01*
X125279773Y-45553497D01*
X125183743Y-45553497D01*
X125086519Y-45536521D01*
X125023247Y-45485593D01*
X124993926Y-45400714D01*
X124991682Y-45361437D01*
X124991682Y-45265406D01*
X124895652Y-45265406D01*
X124805981Y-45249056D01*
X124739061Y-45205332D01*
X124705543Y-45142219D01*
X124703592Y-45121361D01*
X124719885Y-45069098D01*
X124751607Y-45025331D01*
X124784625Y-45000347D01*
X124830000Y-44985668D01*
X124900088Y-44978823D01*
X124991682Y-44977316D01*
X125116193Y-44983109D01*
G37*
G36*
X129205642Y-37775262D02*
G01*
X129343974Y-37777791D01*
X129445602Y-37785461D01*
X129516180Y-37801100D01*
X129561362Y-37827535D01*
X129586804Y-37867592D01*
X129598158Y-37924099D01*
X129601079Y-37999883D01*
X129601134Y-38063138D01*
X129599125Y-38165080D01*
X129591451Y-38231470D01*
X129575641Y-38274663D01*
X129553119Y-38303213D01*
X129500856Y-38339182D01*
X129457089Y-38351229D01*
X129404826Y-38334935D01*
X129361058Y-38303213D01*
X129320934Y-38229138D01*
X129313043Y-38159168D01*
X129313043Y-38063138D01*
X128928922Y-38063138D01*
X128783555Y-38062689D01*
X128678366Y-38060762D01*
X128605524Y-38056487D01*
X128557197Y-38048993D01*
X128525552Y-38037411D01*
X128502758Y-38020870D01*
X128496786Y-38015123D01*
X128460817Y-37962860D01*
X128448771Y-37919092D01*
X128465065Y-37866830D01*
X128496786Y-37823062D01*
X128516083Y-37806662D01*
X128541104Y-37794479D01*
X128578686Y-37785891D01*
X128635670Y-37780276D01*
X128718894Y-37777013D01*
X128835200Y-37775479D01*
X128991425Y-37775054D01*
X129024953Y-37775047D01*
X129205642Y-37775262D01*
G37*
G36*
X120866629Y-42112702D02*
G01*
X120910397Y-42144423D01*
X120928512Y-42166129D01*
X120941419Y-42194452D01*
X120949990Y-42237224D01*
X120955094Y-42302277D01*
X120957602Y-42397444D01*
X120958384Y-42530556D01*
X120958412Y-42576559D01*
X120958412Y-42960680D01*
X121054442Y-42960680D01*
X121144114Y-42977030D01*
X121211033Y-43020755D01*
X121244551Y-43083868D01*
X121246503Y-43104726D01*
X121230209Y-43156989D01*
X121198488Y-43200756D01*
X121165469Y-43225739D01*
X121120094Y-43240418D01*
X121050006Y-43247264D01*
X120958412Y-43248771D01*
X120856470Y-43246762D01*
X120790080Y-43239088D01*
X120746887Y-43223278D01*
X120718336Y-43200756D01*
X120701936Y-43181459D01*
X120689753Y-43156439D01*
X120681165Y-43118856D01*
X120675550Y-43061873D01*
X120672287Y-42978648D01*
X120670754Y-42862343D01*
X120670328Y-42706118D01*
X120670321Y-42672590D01*
X120670611Y-42508300D01*
X120671895Y-42385185D01*
X120674794Y-42296405D01*
X120679931Y-42235120D01*
X120687927Y-42194491D01*
X120699404Y-42167679D01*
X120714984Y-42147844D01*
X120718336Y-42144423D01*
X120770599Y-42108454D01*
X120814367Y-42096408D01*
X120866629Y-42112702D01*
G37*
G36*
X122789304Y-42962189D02*
G01*
X122863997Y-42971068D01*
X122915390Y-42993848D01*
X122947835Y-43037059D01*
X122965687Y-43107231D01*
X122973299Y-43210896D01*
X122975025Y-43354584D01*
X122975047Y-43392816D01*
X122974831Y-43546396D01*
X122969839Y-43658507D01*
X122953558Y-43735662D01*
X122919472Y-43784378D01*
X122861068Y-43811167D01*
X122771830Y-43822545D01*
X122645246Y-43825026D01*
X122542911Y-43824953D01*
X122407720Y-43824365D01*
X122312021Y-43821892D01*
X122247299Y-43816470D01*
X122205038Y-43807033D01*
X122176722Y-43792518D01*
X122158790Y-43776937D01*
X122122821Y-43724675D01*
X122110775Y-43680907D01*
X122127069Y-43628644D01*
X122158790Y-43584877D01*
X122187210Y-43562458D01*
X122225338Y-43548228D01*
X122283789Y-43540418D01*
X122373175Y-43537260D01*
X122446881Y-43536862D01*
X122686956Y-43536862D01*
X122686956Y-43392816D01*
X122686956Y-43248771D01*
X122590926Y-43248771D01*
X122501255Y-43232421D01*
X122434335Y-43188697D01*
X122400818Y-43125584D01*
X122398866Y-43104726D01*
X122415160Y-43052463D01*
X122446881Y-43008696D01*
X122479899Y-42983712D01*
X122525274Y-42969033D01*
X122595362Y-42962188D01*
X122686956Y-42960680D01*
X122789304Y-42962189D01*
G37*
G36*
X125404283Y-40085567D02*
G01*
X125488573Y-40105935D01*
X125539364Y-40145359D01*
X125563379Y-40208320D01*
X125567864Y-40271834D01*
X125570174Y-40333301D01*
X125586345Y-40360614D01*
X125630237Y-40367633D01*
X125663894Y-40367864D01*
X125761118Y-40384840D01*
X125807939Y-40415879D01*
X125849225Y-40482628D01*
X125848578Y-40548875D01*
X125811342Y-40605717D01*
X125742860Y-40644249D01*
X125663894Y-40655954D01*
X125567864Y-40655954D01*
X125567864Y-40896030D01*
X125565412Y-41029059D01*
X125553862Y-41121496D01*
X125526922Y-41180681D01*
X125478300Y-41213953D01*
X125401704Y-41228654D01*
X125290844Y-41232124D01*
X125279773Y-41232136D01*
X125177831Y-41230127D01*
X125111441Y-41222453D01*
X125068248Y-41206643D01*
X125039697Y-41184121D01*
X124998412Y-41117372D01*
X124999059Y-41051124D01*
X125036295Y-40994282D01*
X125104777Y-40955751D01*
X125183743Y-40944045D01*
X125279773Y-40944045D01*
X125279773Y-40800000D01*
X125279773Y-40655954D01*
X125183743Y-40655954D01*
X125100736Y-40647264D01*
X125044543Y-40616712D01*
X125010682Y-40557576D01*
X124994672Y-40463134D01*
X124991682Y-40367864D01*
X124993691Y-40265922D01*
X125001365Y-40199532D01*
X125017176Y-40156339D01*
X125039697Y-40127788D01*
X125072716Y-40102805D01*
X125118091Y-40088126D01*
X125188179Y-40081280D01*
X125279773Y-40079773D01*
X125404283Y-40085567D01*
G37*
G36*
X125460785Y-36341970D02*
G01*
X125517627Y-36379206D01*
X125556158Y-36447688D01*
X125567864Y-36526654D01*
X125567864Y-36622684D01*
X125951985Y-36622684D01*
X126097352Y-36623133D01*
X126202541Y-36625060D01*
X126275383Y-36629335D01*
X126323710Y-36636829D01*
X126355355Y-36648411D01*
X126378149Y-36664952D01*
X126384121Y-36670699D01*
X126420090Y-36722962D01*
X126432136Y-36766730D01*
X126415842Y-36818992D01*
X126384121Y-36862760D01*
X126362415Y-36880875D01*
X126334092Y-36893782D01*
X126291320Y-36902353D01*
X126226267Y-36907457D01*
X126131100Y-36909965D01*
X125997988Y-36910747D01*
X125951985Y-36910775D01*
X125567864Y-36910775D01*
X125567864Y-37150851D01*
X125566664Y-37264148D01*
X125561884Y-37340077D01*
X125551756Y-37389253D01*
X125534510Y-37422289D01*
X125519849Y-37438941D01*
X125467586Y-37474910D01*
X125423818Y-37486956D01*
X125371555Y-37470662D01*
X125327788Y-37438941D01*
X125311388Y-37419644D01*
X125299205Y-37394624D01*
X125290617Y-37357042D01*
X125285002Y-37300058D01*
X125281739Y-37216833D01*
X125280205Y-37100528D01*
X125279780Y-36944303D01*
X125279773Y-36910775D01*
X125280063Y-36746485D01*
X125281346Y-36623370D01*
X125284246Y-36534590D01*
X125289383Y-36473305D01*
X125297379Y-36432676D01*
X125308856Y-36405864D01*
X125324436Y-36386030D01*
X125327788Y-36382609D01*
X125394537Y-36341323D01*
X125460785Y-36341970D01*
G37*
G36*
X121698883Y-40080063D02*
G01*
X121821998Y-40081346D01*
X121910778Y-40084246D01*
X121972063Y-40089383D01*
X122012692Y-40097379D01*
X122039504Y-40108856D01*
X122059339Y-40124436D01*
X122062760Y-40127788D01*
X122102884Y-40201864D01*
X122110775Y-40271834D01*
X122113085Y-40333301D01*
X122129256Y-40360614D01*
X122173148Y-40367633D01*
X122206805Y-40367864D01*
X122296477Y-40384214D01*
X122363396Y-40427938D01*
X122396914Y-40491051D01*
X122398866Y-40511909D01*
X122382572Y-40564172D01*
X122350851Y-40607939D01*
X122317832Y-40632923D01*
X122272457Y-40647602D01*
X122202369Y-40654447D01*
X122110775Y-40655954D01*
X121986265Y-40650161D01*
X121901975Y-40629793D01*
X121851184Y-40590369D01*
X121827169Y-40527408D01*
X121822684Y-40463894D01*
X121822684Y-40367864D01*
X121678639Y-40367864D01*
X121534593Y-40367864D01*
X121534593Y-40607939D01*
X121533393Y-40721236D01*
X121528614Y-40797166D01*
X121518485Y-40846342D01*
X121501240Y-40879378D01*
X121486578Y-40896030D01*
X121434315Y-40931999D01*
X121390548Y-40944045D01*
X121338285Y-40927751D01*
X121294518Y-40896030D01*
X121272098Y-40867610D01*
X121257868Y-40829482D01*
X121250059Y-40771031D01*
X121246901Y-40681645D01*
X121246503Y-40607939D01*
X121246503Y-40367864D01*
X121150472Y-40367864D01*
X121060801Y-40351514D01*
X120993882Y-40307789D01*
X120960364Y-40244676D01*
X120958412Y-40223818D01*
X120974706Y-40171555D01*
X121006427Y-40127788D01*
X121025724Y-40111388D01*
X121050744Y-40099205D01*
X121088327Y-40090617D01*
X121145310Y-40085002D01*
X121228535Y-40081739D01*
X121344840Y-40080205D01*
X121501065Y-40079780D01*
X121534593Y-40079773D01*
X121698883Y-40080063D01*
G37*
G36*
X121883787Y-35495516D02*
G01*
X122071382Y-35554592D01*
X122244471Y-35649581D01*
X122397350Y-35778480D01*
X122524312Y-35939288D01*
X122619653Y-36130001D01*
X122643163Y-36199023D01*
X122681534Y-36403923D01*
X122675465Y-36608296D01*
X122628159Y-36805657D01*
X122542818Y-36989520D01*
X122422647Y-37153400D01*
X122270848Y-37290812D01*
X122090624Y-37395270D01*
X122042533Y-37415083D01*
X121914327Y-37450251D01*
X121762567Y-37471399D01*
X121608990Y-37476756D01*
X121475329Y-37464550D01*
X121463658Y-37462246D01*
X121290935Y-37405279D01*
X121121835Y-37311545D01*
X120987474Y-37203968D01*
X120848668Y-37040784D01*
X120750579Y-36859597D01*
X120692735Y-36666731D01*
X120681834Y-36547148D01*
X120966311Y-36547148D01*
X121003969Y-36717885D01*
X121077963Y-36870129D01*
X121190560Y-37005391D01*
X121330248Y-37105448D01*
X121489421Y-37168289D01*
X121660475Y-37191903D01*
X121835804Y-37174278D01*
X122004235Y-37115160D01*
X122149323Y-37019451D01*
X122261694Y-36894806D01*
X122339997Y-36748642D01*
X122382883Y-36588375D01*
X122389002Y-36421422D01*
X122357004Y-36255201D01*
X122285538Y-36097127D01*
X122208628Y-35992228D01*
X122084247Y-35885304D01*
X121933828Y-35811620D01*
X121767707Y-35773064D01*
X121596213Y-35771528D01*
X121429680Y-35808901D01*
X121362181Y-35837399D01*
X121211753Y-35936053D01*
X121094962Y-36063586D01*
X121013798Y-36212767D01*
X120970251Y-36376365D01*
X120966311Y-36547148D01*
X120681834Y-36547148D01*
X120674666Y-36468508D01*
X120695903Y-36271249D01*
X120755973Y-36081276D01*
X120854408Y-35904912D01*
X120990737Y-35748479D01*
X121102457Y-35658375D01*
X121291022Y-35553781D01*
X121487902Y-35493108D01*
X121687392Y-35474354D01*
X121883787Y-35495516D01*
G37*
G36*
X126441594Y-43825675D02*
G01*
X126553616Y-43831231D01*
X126630691Y-43846701D01*
X126679351Y-43877166D01*
X126706131Y-43927710D01*
X126717564Y-44003413D01*
X126720183Y-44109356D01*
X126720227Y-44161058D01*
X126720227Y-44401134D01*
X126816257Y-44401134D01*
X126899264Y-44409824D01*
X126955457Y-44440377D01*
X126989318Y-44499513D01*
X127005327Y-44593955D01*
X127008317Y-44689225D01*
X127002524Y-44813735D01*
X126982156Y-44898025D01*
X126942732Y-44948816D01*
X126879770Y-44972831D01*
X126816257Y-44977316D01*
X126720227Y-44977316D01*
X126720227Y-45217391D01*
X126719027Y-45330688D01*
X126714247Y-45406618D01*
X126704119Y-45455794D01*
X126686873Y-45488830D01*
X126672212Y-45505482D01*
X126619949Y-45541451D01*
X126576181Y-45553497D01*
X126523918Y-45537203D01*
X126480151Y-45505482D01*
X126440027Y-45431406D01*
X126432136Y-45361437D01*
X126432136Y-45265406D01*
X126336106Y-45265406D01*
X126238882Y-45248430D01*
X126192060Y-45217391D01*
X126151936Y-45143315D01*
X126144045Y-45073346D01*
X126144045Y-44977316D01*
X126048015Y-44977316D01*
X125950791Y-44960340D01*
X125903970Y-44929300D01*
X125862684Y-44862551D01*
X125863331Y-44796304D01*
X125900567Y-44739462D01*
X125969049Y-44700930D01*
X126048015Y-44689225D01*
X126144045Y-44689225D01*
X126144045Y-44545179D01*
X126144045Y-44401134D01*
X126048015Y-44401134D01*
X125965008Y-44392444D01*
X125908815Y-44361891D01*
X125874954Y-44302755D01*
X125858944Y-44208314D01*
X125855954Y-44113043D01*
X125857463Y-44010696D01*
X125866342Y-43936002D01*
X125889122Y-43884610D01*
X125932333Y-43852164D01*
X126002506Y-43834312D01*
X126106170Y-43826700D01*
X126249858Y-43824975D01*
X126288091Y-43824953D01*
X126441594Y-43825675D01*
G37*
G36*
X130495259Y-35489673D02*
G01*
X130681693Y-35541872D01*
X130854803Y-35628791D01*
X131009108Y-35748193D01*
X131139128Y-35897840D01*
X131239383Y-36075496D01*
X131304394Y-36278924D01*
X131312343Y-36320503D01*
X131324937Y-36530181D01*
X131292767Y-36734143D01*
X131219086Y-36926297D01*
X131107145Y-37100549D01*
X130960194Y-37250808D01*
X130781485Y-37370979D01*
X130740833Y-37391532D01*
X130636546Y-37436941D01*
X130545508Y-37463071D01*
X130443208Y-37475896D01*
X130381380Y-37479140D01*
X130221101Y-37476247D01*
X130081900Y-37456098D01*
X130057278Y-37449855D01*
X129858528Y-37372266D01*
X129689166Y-37261782D01*
X129550251Y-37124080D01*
X129442841Y-36964835D01*
X129367994Y-36789723D01*
X129326770Y-36604420D01*
X129324796Y-36547148D01*
X129609034Y-36547148D01*
X129646691Y-36717885D01*
X129720685Y-36870129D01*
X129833093Y-37005038D01*
X129972761Y-37105046D01*
X130131901Y-37168075D01*
X130302725Y-37192045D01*
X130477447Y-37174878D01*
X130643950Y-37116631D01*
X130797387Y-37017354D01*
X130912902Y-36889105D01*
X130989353Y-36733779D01*
X131025598Y-36553272D01*
X131028591Y-36478639D01*
X131013547Y-36306467D01*
X130965164Y-36159575D01*
X130878561Y-36024572D01*
X130851351Y-35992228D01*
X130726969Y-35885304D01*
X130576551Y-35811620D01*
X130410429Y-35773064D01*
X130238935Y-35771528D01*
X130072402Y-35808901D01*
X130004903Y-35837399D01*
X129854475Y-35936053D01*
X129737684Y-36063586D01*
X129656521Y-36212767D01*
X129612974Y-36376365D01*
X129609034Y-36547148D01*
X129324796Y-36547148D01*
X129320226Y-36414602D01*
X129349421Y-36225943D01*
X129415413Y-36044121D01*
X129519262Y-35874811D01*
X129662025Y-35723689D01*
X129725871Y-35672821D01*
X129910806Y-35563768D01*
X130104335Y-35498384D01*
X130300980Y-35474431D01*
X130495259Y-35489673D01*
G37*
G36*
X126916535Y-39807976D02*
G01*
X126960302Y-39839697D01*
X126982722Y-39868117D01*
X126996952Y-39906246D01*
X127004761Y-39964696D01*
X127007919Y-40054082D01*
X127008317Y-40127788D01*
X127008317Y-40367864D01*
X127104348Y-40367864D01*
X127201572Y-40384840D01*
X127248393Y-40415879D01*
X127289678Y-40482628D01*
X127289032Y-40548875D01*
X127251796Y-40605717D01*
X127183313Y-40644249D01*
X127104348Y-40655954D01*
X127008317Y-40655954D01*
X127008317Y-40800000D01*
X127008317Y-40944045D01*
X127104348Y-40944045D01*
X127201572Y-40961021D01*
X127248393Y-40992060D01*
X127289678Y-41058809D01*
X127289032Y-41125057D01*
X127251796Y-41181899D01*
X127183313Y-41220431D01*
X127104348Y-41232136D01*
X127008317Y-41232136D01*
X127008317Y-41328166D01*
X126999627Y-41411173D01*
X126969075Y-41467366D01*
X126909939Y-41501227D01*
X126815497Y-41517237D01*
X126720227Y-41520227D01*
X126618285Y-41518218D01*
X126551895Y-41510544D01*
X126508701Y-41494733D01*
X126480151Y-41472212D01*
X126460922Y-41448868D01*
X126447604Y-41418240D01*
X126439133Y-41371812D01*
X126434443Y-41301068D01*
X126432472Y-41197492D01*
X126432136Y-41088091D01*
X126432724Y-40952899D01*
X126435197Y-40857201D01*
X126440619Y-40792478D01*
X126450055Y-40750217D01*
X126464570Y-40721902D01*
X126480151Y-40703970D01*
X126554227Y-40663846D01*
X126624196Y-40655954D01*
X126720227Y-40655954D01*
X126720227Y-40511909D01*
X126720227Y-40367864D01*
X126624196Y-40367864D01*
X126526973Y-40350888D01*
X126480151Y-40319849D01*
X126438866Y-40253100D01*
X126439512Y-40186852D01*
X126476748Y-40130010D01*
X126545231Y-40091478D01*
X126624196Y-40079773D01*
X126720227Y-40079773D01*
X126720227Y-39983743D01*
X126736577Y-39894071D01*
X126780301Y-39827152D01*
X126843414Y-39793634D01*
X126864272Y-39791682D01*
X126916535Y-39807976D01*
G37*
G36*
X127863736Y-40080361D02*
G01*
X127959434Y-40082834D01*
X128024156Y-40088256D01*
X128066417Y-40097692D01*
X128094733Y-40112207D01*
X128112665Y-40127788D01*
X128153950Y-40194537D01*
X128153304Y-40260785D01*
X128116068Y-40317627D01*
X128047585Y-40356158D01*
X127968620Y-40367864D01*
X127872590Y-40367864D01*
X127872590Y-40511909D01*
X127872590Y-40655954D01*
X127968620Y-40655954D01*
X128045724Y-40662412D01*
X128099520Y-40686342D01*
X128133913Y-40734583D01*
X128152812Y-40813973D01*
X128160124Y-40931349D01*
X128160680Y-40992060D01*
X128160680Y-41232136D01*
X128256711Y-41232136D01*
X128339717Y-41240826D01*
X128395911Y-41271379D01*
X128429772Y-41330515D01*
X128445781Y-41424956D01*
X128448771Y-41520227D01*
X128446762Y-41622169D01*
X128439088Y-41688558D01*
X128423278Y-41731752D01*
X128400756Y-41760302D01*
X128367737Y-41785286D01*
X128322362Y-41799965D01*
X128252275Y-41806810D01*
X128160680Y-41808317D01*
X128058738Y-41806309D01*
X127992349Y-41798635D01*
X127949155Y-41782824D01*
X127920605Y-41760302D01*
X127902490Y-41738596D01*
X127889582Y-41710273D01*
X127881011Y-41667501D01*
X127875907Y-41602448D01*
X127873399Y-41507282D01*
X127872618Y-41374170D01*
X127872590Y-41328166D01*
X127872590Y-40944045D01*
X127776559Y-40944045D01*
X127699455Y-40937588D01*
X127645660Y-40913658D01*
X127611266Y-40865417D01*
X127592367Y-40786027D01*
X127585055Y-40668651D01*
X127584499Y-40607939D01*
X127584499Y-40367864D01*
X127488469Y-40367864D01*
X127398797Y-40351514D01*
X127331878Y-40307789D01*
X127298360Y-40244676D01*
X127296408Y-40223818D01*
X127312702Y-40171555D01*
X127344423Y-40127788D01*
X127367767Y-40108559D01*
X127398394Y-40095241D01*
X127444823Y-40086770D01*
X127515567Y-40082080D01*
X127619143Y-40080109D01*
X127728544Y-40079773D01*
X127863736Y-40080361D01*
G37*
G36*
X121663892Y-44126566D02*
G01*
X121794123Y-44129658D01*
X121892084Y-44139211D01*
X121973331Y-44157470D01*
X122038752Y-44180657D01*
X122236958Y-44285238D01*
X122404478Y-44425923D01*
X122538160Y-44599561D01*
X122619095Y-44761247D01*
X122656825Y-44899680D01*
X122674079Y-45063003D01*
X122670857Y-45232679D01*
X122647159Y-45390168D01*
X122619095Y-45481474D01*
X122516646Y-45676396D01*
X122380092Y-45840227D01*
X122214219Y-45969489D01*
X122023812Y-46060705D01*
X121813658Y-46110397D01*
X121744764Y-46116856D01*
X121640396Y-46119195D01*
X121539173Y-46114887D01*
X121468411Y-46105779D01*
X121349325Y-46067620D01*
X121216877Y-46004883D01*
X121087979Y-45927271D01*
X120979541Y-45844485D01*
X120933582Y-45798945D01*
X120806712Y-45621400D01*
X120722633Y-45430475D01*
X120680203Y-45232122D01*
X120679797Y-45189870D01*
X120966311Y-45189870D01*
X121003969Y-45360607D01*
X121077963Y-45512851D01*
X121190371Y-45647760D01*
X121330039Y-45747768D01*
X121489178Y-45810797D01*
X121660003Y-45834767D01*
X121834725Y-45817601D01*
X122001228Y-45759353D01*
X122154665Y-45660076D01*
X122270180Y-45531827D01*
X122346631Y-45376502D01*
X122382876Y-45195994D01*
X122385869Y-45121361D01*
X122370825Y-44949189D01*
X122322442Y-44802297D01*
X122235839Y-44667294D01*
X122208628Y-44634950D01*
X122084247Y-44528026D01*
X121933828Y-44454342D01*
X121767707Y-44415786D01*
X121596213Y-44414250D01*
X121429680Y-44451623D01*
X121362181Y-44480121D01*
X121211753Y-44578775D01*
X121094962Y-44706308D01*
X121013798Y-44855489D01*
X120970251Y-45019087D01*
X120966311Y-45189870D01*
X120679797Y-45189870D01*
X120678281Y-45032294D01*
X120715726Y-44836942D01*
X120791397Y-44652020D01*
X120904153Y-44483478D01*
X121052852Y-44337270D01*
X121236355Y-44219349D01*
X121236410Y-44219320D01*
X121322969Y-44176552D01*
X121389557Y-44149328D01*
X121452064Y-44134203D01*
X121526376Y-44127730D01*
X121628382Y-44126460D01*
X121663892Y-44126566D01*
G37*
G36*
X124003609Y-35470611D02*
G01*
X124126724Y-35471895D01*
X124215504Y-35474794D01*
X124276789Y-35479931D01*
X124317418Y-35487927D01*
X124344230Y-35499404D01*
X124364065Y-35514984D01*
X124367486Y-35518336D01*
X124407610Y-35592412D01*
X124415501Y-35662382D01*
X124415501Y-35758412D01*
X124511531Y-35758412D01*
X124608755Y-35775388D01*
X124655576Y-35806427D01*
X124696862Y-35873176D01*
X124696215Y-35939424D01*
X124658979Y-35996265D01*
X124590497Y-36034797D01*
X124511531Y-36046503D01*
X124415501Y-36046503D01*
X124415501Y-36190548D01*
X124415501Y-36334593D01*
X124511531Y-36334593D01*
X124608755Y-36351569D01*
X124655576Y-36382609D01*
X124696862Y-36449358D01*
X124696215Y-36515605D01*
X124658979Y-36572447D01*
X124590497Y-36610979D01*
X124511531Y-36622684D01*
X124415501Y-36622684D01*
X124415501Y-37006805D01*
X124415052Y-37152173D01*
X124413125Y-37257361D01*
X124408850Y-37330203D01*
X124401356Y-37378530D01*
X124389774Y-37410175D01*
X124373233Y-37432970D01*
X124367486Y-37438941D01*
X124315223Y-37474910D01*
X124271455Y-37486956D01*
X124219193Y-37470662D01*
X124175425Y-37438941D01*
X124162502Y-37424201D01*
X124152130Y-37405204D01*
X124144030Y-37376911D01*
X124137921Y-37334283D01*
X124133524Y-37272281D01*
X124130559Y-37185864D01*
X124128745Y-37069994D01*
X124127803Y-36919631D01*
X124127453Y-36729736D01*
X124127410Y-36574669D01*
X124127410Y-35758412D01*
X123743289Y-35758412D01*
X123597921Y-35757963D01*
X123492733Y-35756036D01*
X123419891Y-35751761D01*
X123371564Y-35744267D01*
X123339919Y-35732685D01*
X123317124Y-35716144D01*
X123311153Y-35710397D01*
X123275184Y-35658134D01*
X123263138Y-35614367D01*
X123279432Y-35562104D01*
X123311153Y-35518336D01*
X123330450Y-35501936D01*
X123355470Y-35489753D01*
X123393053Y-35481165D01*
X123450036Y-35475550D01*
X123533261Y-35472287D01*
X123649566Y-35470754D01*
X123805791Y-35470328D01*
X123839319Y-35470321D01*
X124003609Y-35470611D01*
G37*
G36*
X125764172Y-38943704D02*
G01*
X125807939Y-38975425D01*
X125830359Y-39003845D01*
X125844589Y-39041974D01*
X125852398Y-39100424D01*
X125855556Y-39189810D01*
X125855954Y-39263516D01*
X125855954Y-39503592D01*
X126000000Y-39503592D01*
X126144045Y-39503592D01*
X126144045Y-39407561D01*
X126161021Y-39310337D01*
X126192060Y-39263516D01*
X126266136Y-39223392D01*
X126336106Y-39215501D01*
X126397573Y-39213191D01*
X126424886Y-39197020D01*
X126431905Y-39153127D01*
X126432136Y-39119471D01*
X126449112Y-39022247D01*
X126480151Y-38975425D01*
X126546900Y-38934140D01*
X126613148Y-38934787D01*
X126669989Y-38972022D01*
X126708521Y-39040505D01*
X126720227Y-39119471D01*
X126720227Y-39215501D01*
X126960302Y-39215501D01*
X127093332Y-39217953D01*
X127185768Y-39229503D01*
X127244953Y-39256443D01*
X127278225Y-39305065D01*
X127292926Y-39381660D01*
X127296396Y-39492521D01*
X127296408Y-39503592D01*
X127294399Y-39605534D01*
X127286725Y-39671923D01*
X127270915Y-39715117D01*
X127248393Y-39743667D01*
X127181644Y-39784952D01*
X127115396Y-39784306D01*
X127058555Y-39747070D01*
X127020023Y-39678587D01*
X127008317Y-39599622D01*
X127008317Y-39503592D01*
X126864272Y-39503592D01*
X126720227Y-39503592D01*
X126720227Y-39599622D01*
X126703251Y-39696846D01*
X126672212Y-39743667D01*
X126598136Y-39783791D01*
X126528166Y-39791682D01*
X126432136Y-39791682D01*
X126432136Y-39887713D01*
X126415786Y-39977384D01*
X126372061Y-40044303D01*
X126308949Y-40077821D01*
X126288091Y-40079773D01*
X126235828Y-40063479D01*
X126192060Y-40031758D01*
X126151936Y-39957682D01*
X126144045Y-39887713D01*
X126144045Y-39791682D01*
X125903970Y-39791682D01*
X125784578Y-39790753D01*
X125697450Y-39783611D01*
X125637503Y-39763721D01*
X125599656Y-39724550D01*
X125578827Y-39659566D01*
X125569935Y-39562234D01*
X125567897Y-39426021D01*
X125567864Y-39359546D01*
X125568451Y-39224355D01*
X125570924Y-39128656D01*
X125576347Y-39063934D01*
X125585783Y-39021673D01*
X125600298Y-38993357D01*
X125615879Y-38975425D01*
X125668142Y-38939456D01*
X125711909Y-38927410D01*
X125764172Y-38943704D01*
G37*
G36*
X122291787Y-38070514D02*
G01*
X122348628Y-38107750D01*
X122387160Y-38176233D01*
X122398866Y-38255198D01*
X122401176Y-38316666D01*
X122417347Y-38343978D01*
X122461239Y-38350998D01*
X122494896Y-38351229D01*
X122592120Y-38368205D01*
X122638941Y-38399244D01*
X122680226Y-38465993D01*
X122679580Y-38532240D01*
X122642344Y-38589082D01*
X122573861Y-38627614D01*
X122494896Y-38639319D01*
X122398866Y-38639319D01*
X122398866Y-38783365D01*
X122398866Y-38927410D01*
X122542911Y-38927410D01*
X122686956Y-38927410D01*
X122686956Y-38831380D01*
X122703306Y-38741708D01*
X122747031Y-38674789D01*
X122810144Y-38641271D01*
X122831002Y-38639319D01*
X122883265Y-38655613D01*
X122927032Y-38687334D01*
X122946261Y-38710678D01*
X122959579Y-38741306D01*
X122968050Y-38787734D01*
X122972740Y-38858478D01*
X122974711Y-38962054D01*
X122975047Y-39071455D01*
X122974459Y-39206647D01*
X122971987Y-39302346D01*
X122966564Y-39367068D01*
X122957128Y-39409329D01*
X122942613Y-39437644D01*
X122927032Y-39455576D01*
X122860283Y-39496862D01*
X122794035Y-39496215D01*
X122737194Y-39458979D01*
X122698662Y-39390497D01*
X122686956Y-39311531D01*
X122686956Y-39215501D01*
X122542911Y-39215501D01*
X122398866Y-39215501D01*
X122398866Y-39311531D01*
X122382516Y-39401202D01*
X122338791Y-39468122D01*
X122275678Y-39501640D01*
X122254820Y-39503592D01*
X122202557Y-39487298D01*
X122158790Y-39455576D01*
X122118666Y-39381501D01*
X122110775Y-39311531D01*
X122110775Y-39215501D01*
X122014745Y-39215501D01*
X121917521Y-39198525D01*
X121870699Y-39167486D01*
X121829414Y-39100737D01*
X121830061Y-39034489D01*
X121867296Y-38977647D01*
X121935779Y-38939115D01*
X122014745Y-38927410D01*
X122110775Y-38927410D01*
X122110775Y-38783365D01*
X122110775Y-38639319D01*
X122014745Y-38639319D01*
X121917521Y-38622343D01*
X121870699Y-38591304D01*
X121829414Y-38524555D01*
X121830061Y-38458308D01*
X121867296Y-38401466D01*
X121935779Y-38362934D01*
X122014745Y-38351229D01*
X122110775Y-38351229D01*
X122110775Y-38255198D01*
X122127751Y-38157974D01*
X122158790Y-38111153D01*
X122225539Y-38069868D01*
X122291787Y-38070514D01*
G37*
G36*
X124118556Y-44113631D02*
G01*
X124214255Y-44116104D01*
X124278977Y-44121526D01*
X124321238Y-44130963D01*
X124349553Y-44145478D01*
X124367486Y-44161058D01*
X124407610Y-44235134D01*
X124415501Y-44305104D01*
X124415501Y-44401134D01*
X124799622Y-44401134D01*
X124944989Y-44401583D01*
X125050178Y-44403510D01*
X125123020Y-44407785D01*
X125171347Y-44415279D01*
X125202992Y-44426861D01*
X125225786Y-44443402D01*
X125231758Y-44449149D01*
X125267727Y-44501412D01*
X125279773Y-44545179D01*
X125263479Y-44597442D01*
X125231758Y-44641210D01*
X125212461Y-44657610D01*
X125187441Y-44669793D01*
X125149858Y-44678381D01*
X125092875Y-44683996D01*
X125009650Y-44687259D01*
X124893344Y-44688792D01*
X124737119Y-44689218D01*
X124703592Y-44689225D01*
X124539302Y-44688935D01*
X124416187Y-44687651D01*
X124327407Y-44684752D01*
X124266122Y-44679615D01*
X124225493Y-44671619D01*
X124198681Y-44660142D01*
X124178846Y-44644562D01*
X124175425Y-44641210D01*
X124135301Y-44567134D01*
X124127410Y-44497164D01*
X124127410Y-44401134D01*
X123983365Y-44401134D01*
X123839319Y-44401134D01*
X123839319Y-44497164D01*
X123822343Y-44594388D01*
X123791304Y-44641210D01*
X123717228Y-44681334D01*
X123647259Y-44689225D01*
X123551229Y-44689225D01*
X123551229Y-44929300D01*
X123550028Y-45042597D01*
X123545249Y-45118527D01*
X123535121Y-45167703D01*
X123517875Y-45200739D01*
X123503213Y-45217391D01*
X123450951Y-45253360D01*
X123407183Y-45265406D01*
X123354920Y-45249112D01*
X123311153Y-45217391D01*
X123291924Y-45194048D01*
X123278606Y-45163420D01*
X123270135Y-45116992D01*
X123265445Y-45046247D01*
X123263474Y-44942671D01*
X123263138Y-44833270D01*
X123263726Y-44698079D01*
X123266198Y-44602380D01*
X123271621Y-44537658D01*
X123281057Y-44495397D01*
X123295572Y-44467081D01*
X123311153Y-44449149D01*
X123385229Y-44409025D01*
X123455198Y-44401134D01*
X123551229Y-44401134D01*
X123551229Y-44305104D01*
X123568205Y-44207880D01*
X123599244Y-44161058D01*
X123622587Y-44141829D01*
X123653215Y-44128511D01*
X123699643Y-44120040D01*
X123770388Y-44115351D01*
X123873964Y-44113379D01*
X123983365Y-44113043D01*
X124118556Y-44113631D01*
G37*
G36*
X124899900Y-38655613D02*
G01*
X124943667Y-38687334D01*
X124958252Y-38704205D01*
X124969546Y-38725987D01*
X124977968Y-38758547D01*
X124983937Y-38807750D01*
X124987873Y-38879462D01*
X124990194Y-38979549D01*
X124991318Y-39113876D01*
X124991666Y-39288310D01*
X124991682Y-39359546D01*
X124991506Y-39549323D01*
X124990700Y-39696951D01*
X124988843Y-39808296D01*
X124985517Y-39889224D01*
X124980304Y-39945599D01*
X124972783Y-39983289D01*
X124962537Y-40008159D01*
X124949146Y-40026074D01*
X124943667Y-40031758D01*
X124869591Y-40071882D01*
X124799622Y-40079773D01*
X124703592Y-40079773D01*
X124703592Y-40319849D01*
X124702391Y-40433146D01*
X124697612Y-40509075D01*
X124687484Y-40558252D01*
X124670238Y-40591288D01*
X124655576Y-40607939D01*
X124603314Y-40643908D01*
X124559546Y-40655954D01*
X124507283Y-40639661D01*
X124463516Y-40607939D01*
X124441097Y-40579519D01*
X124426867Y-40541391D01*
X124419057Y-40482941D01*
X124415899Y-40393555D01*
X124415501Y-40319849D01*
X124415501Y-40079773D01*
X124319471Y-40079773D01*
X124222247Y-40062797D01*
X124175425Y-40031758D01*
X124134140Y-39965009D01*
X124134787Y-39898761D01*
X124172022Y-39841920D01*
X124240505Y-39803388D01*
X124319471Y-39791682D01*
X124415501Y-39791682D01*
X124415501Y-39647637D01*
X124415501Y-39503592D01*
X124319471Y-39503592D01*
X124222247Y-39486616D01*
X124175425Y-39455576D01*
X124156196Y-39432233D01*
X124142878Y-39401605D01*
X124134407Y-39355177D01*
X124129718Y-39284433D01*
X124127746Y-39180856D01*
X124127410Y-39071455D01*
X124127998Y-38936264D01*
X124130471Y-38840565D01*
X124135893Y-38775843D01*
X124145330Y-38733582D01*
X124159844Y-38705267D01*
X124175425Y-38687334D01*
X124227688Y-38651365D01*
X124271455Y-38639319D01*
X124323718Y-38655613D01*
X124367486Y-38687334D01*
X124389905Y-38715754D01*
X124404135Y-38753883D01*
X124411945Y-38812333D01*
X124415103Y-38901719D01*
X124415501Y-38975425D01*
X124415501Y-39215501D01*
X124559546Y-39215501D01*
X124703592Y-39215501D01*
X124703592Y-38975425D01*
X124704792Y-38862128D01*
X124709571Y-38786198D01*
X124719699Y-38737022D01*
X124736945Y-38703986D01*
X124751607Y-38687334D01*
X124803870Y-38651365D01*
X124847637Y-38639319D01*
X124899900Y-38655613D01*
G37*
G36*
X123675739Y-42678383D02*
G01*
X123760029Y-42698751D01*
X123810820Y-42738175D01*
X123834834Y-42801137D01*
X123839319Y-42864650D01*
X123839319Y-42960680D01*
X123935350Y-42960680D01*
X124012454Y-42967138D01*
X124066249Y-42991068D01*
X124100643Y-43039309D01*
X124119542Y-43118698D01*
X124126854Y-43236075D01*
X124127410Y-43296786D01*
X124127410Y-43536862D01*
X124271455Y-43536862D01*
X124415501Y-43536862D01*
X124415501Y-43440832D01*
X124432477Y-43343608D01*
X124463516Y-43296786D01*
X124486859Y-43277557D01*
X124517487Y-43264239D01*
X124563915Y-43255768D01*
X124634660Y-43251079D01*
X124738236Y-43249107D01*
X124847637Y-43248771D01*
X124982828Y-43249359D01*
X125078527Y-43251832D01*
X125143249Y-43257254D01*
X125185510Y-43266691D01*
X125213826Y-43281206D01*
X125231758Y-43296786D01*
X125273043Y-43363535D01*
X125272396Y-43429783D01*
X125235161Y-43486625D01*
X125166678Y-43525157D01*
X125087713Y-43536862D01*
X124991682Y-43536862D01*
X124991682Y-43680907D01*
X124991682Y-43824953D01*
X125231758Y-43824953D01*
X125364787Y-43827404D01*
X125457224Y-43838955D01*
X125516408Y-43865895D01*
X125549681Y-43914517D01*
X125564382Y-43991112D01*
X125567851Y-44101973D01*
X125567864Y-44113043D01*
X125565855Y-44214985D01*
X125558181Y-44281375D01*
X125542370Y-44324569D01*
X125519849Y-44353119D01*
X125467586Y-44389088D01*
X125423818Y-44401134D01*
X125371555Y-44384840D01*
X125327788Y-44353119D01*
X125287664Y-44279043D01*
X125279773Y-44209074D01*
X125279773Y-44113043D01*
X124895652Y-44113043D01*
X124750284Y-44112594D01*
X124645096Y-44110668D01*
X124572254Y-44106392D01*
X124523927Y-44098899D01*
X124492282Y-44087316D01*
X124469487Y-44070775D01*
X124463516Y-44065028D01*
X124423392Y-43990952D01*
X124415501Y-43920983D01*
X124415501Y-43824953D01*
X124175425Y-43824953D01*
X124042561Y-43822903D01*
X123950294Y-43811827D01*
X123891235Y-43784336D01*
X123857994Y-43733040D01*
X123843180Y-43650548D01*
X123839405Y-43529470D01*
X123839319Y-43488847D01*
X123839319Y-43248771D01*
X123743289Y-43248771D01*
X123646065Y-43231795D01*
X123599244Y-43200756D01*
X123559120Y-43126680D01*
X123551229Y-43056711D01*
X123551229Y-42960680D01*
X123455198Y-42960680D01*
X123365527Y-42944331D01*
X123298608Y-42900606D01*
X123265090Y-42837493D01*
X123263138Y-42816635D01*
X123279432Y-42764372D01*
X123311153Y-42720605D01*
X123344172Y-42695621D01*
X123389547Y-42680943D01*
X123459634Y-42674097D01*
X123551229Y-42672590D01*
X123675739Y-42678383D01*
G37*
G36*
X128494503Y-35470497D02*
G01*
X128642131Y-35471304D01*
X128753476Y-35473161D01*
X128834403Y-35476486D01*
X128890779Y-35481700D01*
X128928469Y-35489220D01*
X128953338Y-35499467D01*
X128971254Y-35512858D01*
X128976937Y-35518336D01*
X129012906Y-35570599D01*
X129024953Y-35614367D01*
X129008659Y-35666629D01*
X128976937Y-35710397D01*
X128955231Y-35728512D01*
X128926908Y-35741419D01*
X128884137Y-35749990D01*
X128819084Y-35755094D01*
X128723917Y-35757602D01*
X128590805Y-35758384D01*
X128544801Y-35758412D01*
X128160680Y-35758412D01*
X128160680Y-35854442D01*
X128143704Y-35951666D01*
X128092777Y-36014938D01*
X128007897Y-36044259D01*
X127968620Y-36046503D01*
X127872590Y-36046503D01*
X127872590Y-36190548D01*
X127872590Y-36334593D01*
X127968620Y-36334593D01*
X128058291Y-36350943D01*
X128125211Y-36394668D01*
X128158728Y-36457781D01*
X128160680Y-36478639D01*
X128144386Y-36530902D01*
X128112665Y-36574669D01*
X128089322Y-36593898D01*
X128058694Y-36607216D01*
X128012266Y-36615687D01*
X127941521Y-36620377D01*
X127837945Y-36622348D01*
X127728544Y-36622684D01*
X127593353Y-36622096D01*
X127497654Y-36619624D01*
X127432932Y-36614201D01*
X127390671Y-36604765D01*
X127362356Y-36590250D01*
X127344423Y-36574669D01*
X127303138Y-36507920D01*
X127303785Y-36441672D01*
X127341021Y-36384831D01*
X127409503Y-36346299D01*
X127488469Y-36334593D01*
X127584499Y-36334593D01*
X127584499Y-36190548D01*
X127584499Y-36046503D01*
X127200378Y-36046503D01*
X127055010Y-36046054D01*
X126949822Y-36044127D01*
X126876980Y-36039852D01*
X126828653Y-36032358D01*
X126797008Y-36020776D01*
X126774213Y-36004235D01*
X126768242Y-35998488D01*
X126728118Y-35924412D01*
X126720227Y-35854442D01*
X126720227Y-35758412D01*
X126624196Y-35758412D01*
X126534525Y-35742062D01*
X126467606Y-35698337D01*
X126434088Y-35635225D01*
X126432136Y-35614367D01*
X126448430Y-35562104D01*
X126480151Y-35518336D01*
X126503494Y-35499107D01*
X126534122Y-35485789D01*
X126580551Y-35477318D01*
X126651295Y-35472629D01*
X126754871Y-35470657D01*
X126864272Y-35470321D01*
X126999463Y-35470909D01*
X127095162Y-35473382D01*
X127159884Y-35478804D01*
X127202145Y-35488241D01*
X127230461Y-35502756D01*
X127248393Y-35518336D01*
X127288517Y-35592412D01*
X127296408Y-35662382D01*
X127296408Y-35758412D01*
X127440454Y-35758412D01*
X127584499Y-35758412D01*
X127584499Y-35662382D01*
X127601475Y-35565158D01*
X127632514Y-35518336D01*
X127649384Y-35503752D01*
X127671167Y-35492458D01*
X127703726Y-35484036D01*
X127752929Y-35478066D01*
X127824642Y-35474131D01*
X127924728Y-35471810D01*
X128059056Y-35470685D01*
X128233490Y-35470337D01*
X128304726Y-35470321D01*
X128494503Y-35470497D01*
G37*
G36*
X130168461Y-38351816D02*
G01*
X130264160Y-38354289D01*
X130328882Y-38359712D01*
X130371143Y-38369148D01*
X130399459Y-38383663D01*
X130417391Y-38399244D01*
X130458676Y-38465993D01*
X130458030Y-38532240D01*
X130420794Y-38589082D01*
X130352311Y-38627614D01*
X130273346Y-38639319D01*
X130177316Y-38639319D01*
X130177316Y-38783365D01*
X130177316Y-38927410D01*
X130273346Y-38927410D01*
X130370570Y-38944386D01*
X130417391Y-38975425D01*
X130457515Y-39049501D01*
X130465406Y-39119471D01*
X130465406Y-39215501D01*
X130609452Y-39215501D01*
X130753497Y-39215501D01*
X130753497Y-39071455D01*
X130753497Y-38927410D01*
X130657467Y-38927410D01*
X130567795Y-38911060D01*
X130500876Y-38867335D01*
X130467358Y-38804223D01*
X130465406Y-38783365D01*
X130481700Y-38731102D01*
X130513421Y-38687334D01*
X130546440Y-38662351D01*
X130591815Y-38647672D01*
X130661903Y-38640826D01*
X130753497Y-38639319D01*
X130867522Y-38642180D01*
X130946754Y-38655655D01*
X130997483Y-38687085D01*
X131026002Y-38743811D01*
X131038603Y-38833172D01*
X131041577Y-38962510D01*
X131041588Y-38975425D01*
X131041588Y-39215501D01*
X131137618Y-39215501D01*
X131234842Y-39232477D01*
X131281663Y-39263516D01*
X131322949Y-39330265D01*
X131322302Y-39396513D01*
X131285066Y-39453354D01*
X131216584Y-39491886D01*
X131137618Y-39503592D01*
X131041588Y-39503592D01*
X131041588Y-39791682D01*
X131041588Y-40079773D01*
X131137618Y-40079773D01*
X131234842Y-40096749D01*
X131281663Y-40127788D01*
X131300892Y-40151131D01*
X131314210Y-40181759D01*
X131322682Y-40228188D01*
X131327371Y-40298932D01*
X131329343Y-40402508D01*
X131329678Y-40511909D01*
X131329091Y-40647100D01*
X131326618Y-40742799D01*
X131321195Y-40807521D01*
X131311759Y-40849782D01*
X131297244Y-40878098D01*
X131281663Y-40896030D01*
X131229400Y-40931999D01*
X131185633Y-40944045D01*
X131133370Y-40927751D01*
X131089603Y-40896030D01*
X131067183Y-40867610D01*
X131052953Y-40829482D01*
X131045144Y-40771031D01*
X131041986Y-40681645D01*
X131041588Y-40607939D01*
X131041588Y-40367864D01*
X130945558Y-40367864D01*
X130848334Y-40350888D01*
X130785061Y-40299960D01*
X130755741Y-40215081D01*
X130753497Y-40175803D01*
X130753497Y-40079773D01*
X130657467Y-40079773D01*
X130560243Y-40062797D01*
X130513421Y-40031758D01*
X130472136Y-39965009D01*
X130472783Y-39898761D01*
X130510019Y-39841920D01*
X130578501Y-39803388D01*
X130657467Y-39791682D01*
X130753497Y-39791682D01*
X130753497Y-39647637D01*
X130753497Y-39503592D01*
X130369376Y-39503592D01*
X130206188Y-39503875D01*
X130084787Y-39500621D01*
X129999017Y-39487674D01*
X129942723Y-39458878D01*
X129909747Y-39408075D01*
X129893935Y-39329111D01*
X129889130Y-39215830D01*
X129889175Y-39062074D01*
X129889225Y-39023440D01*
X129889225Y-38639319D01*
X129793195Y-38639319D01*
X129703523Y-38622970D01*
X129636604Y-38579245D01*
X129603086Y-38516132D01*
X129601134Y-38495274D01*
X129617428Y-38443011D01*
X129649149Y-38399244D01*
X129672492Y-38380015D01*
X129703120Y-38366697D01*
X129749549Y-38358225D01*
X129820293Y-38353536D01*
X129923869Y-38351565D01*
X130033270Y-38351229D01*
X130168461Y-38351816D01*
G37*
G36*
X129205964Y-39510968D02*
G01*
X129262806Y-39548204D01*
X129301338Y-39616686D01*
X129313043Y-39695652D01*
X129313043Y-39791682D01*
X129409074Y-39791682D01*
X129506298Y-39808658D01*
X129553119Y-39839697D01*
X129594404Y-39906446D01*
X129593758Y-39972694D01*
X129556522Y-40029536D01*
X129488039Y-40068068D01*
X129409074Y-40079773D01*
X129313043Y-40079773D01*
X129313043Y-40175803D01*
X129296067Y-40273027D01*
X129265028Y-40319849D01*
X129190952Y-40359973D01*
X129120983Y-40367864D01*
X129024953Y-40367864D01*
X129024953Y-40655954D01*
X129024953Y-40944045D01*
X129120983Y-40944045D01*
X129218207Y-40961021D01*
X129265028Y-40992060D01*
X129305152Y-41066136D01*
X129313043Y-41136106D01*
X129313043Y-41232136D01*
X129409074Y-41232136D01*
X129486178Y-41238593D01*
X129539973Y-41262523D01*
X129574367Y-41310764D01*
X129593266Y-41390154D01*
X129600578Y-41507531D01*
X129601134Y-41568242D01*
X129601134Y-41808317D01*
X129697164Y-41808317D01*
X129794388Y-41825293D01*
X129841210Y-41856333D01*
X129882495Y-41923082D01*
X129881848Y-41989329D01*
X129844612Y-42046171D01*
X129776130Y-42084703D01*
X129697164Y-42096408D01*
X129601134Y-42096408D01*
X129601134Y-42192438D01*
X129584158Y-42289662D01*
X129553119Y-42336484D01*
X129533822Y-42352884D01*
X129508802Y-42365067D01*
X129471219Y-42373655D01*
X129414236Y-42379270D01*
X129331011Y-42382533D01*
X129214706Y-42384067D01*
X129058481Y-42384492D01*
X129024953Y-42384499D01*
X128860663Y-42384209D01*
X128737548Y-42382925D01*
X128648768Y-42380026D01*
X128587483Y-42374889D01*
X128546854Y-42366893D01*
X128520042Y-42355416D01*
X128500207Y-42339836D01*
X128496786Y-42336484D01*
X128455501Y-42269735D01*
X128456148Y-42203487D01*
X128493383Y-42146645D01*
X128561866Y-42108113D01*
X128640832Y-42096408D01*
X128736862Y-42096408D01*
X128736862Y-42000378D01*
X128753838Y-41903154D01*
X128784877Y-41856333D01*
X128851626Y-41815047D01*
X128917874Y-41815694D01*
X128974715Y-41852930D01*
X129013247Y-41921412D01*
X129024953Y-42000378D01*
X129024953Y-42096408D01*
X129168998Y-42096408D01*
X129313043Y-42096408D01*
X129313043Y-41808317D01*
X129313043Y-41520227D01*
X129072968Y-41520227D01*
X128958855Y-41519669D01*
X128874014Y-41513868D01*
X128814109Y-41496629D01*
X128774803Y-41461758D01*
X128751761Y-41403061D01*
X128740647Y-41314343D01*
X128737124Y-41189410D01*
X128736862Y-41040075D01*
X128736862Y-40655954D01*
X128496786Y-40655954D01*
X128383489Y-40654754D01*
X128307559Y-40649975D01*
X128258383Y-40639847D01*
X128225347Y-40622601D01*
X128208696Y-40607939D01*
X128172727Y-40555676D01*
X128160680Y-40511909D01*
X128176974Y-40459646D01*
X128208696Y-40415879D01*
X128237116Y-40393459D01*
X128275244Y-40379229D01*
X128333694Y-40371420D01*
X128423080Y-40368262D01*
X128496786Y-40367864D01*
X128736862Y-40367864D01*
X128736862Y-40223818D01*
X128736862Y-40079773D01*
X128496786Y-40079773D01*
X128383489Y-40078573D01*
X128307559Y-40073793D01*
X128258383Y-40063665D01*
X128225347Y-40046419D01*
X128208696Y-40031758D01*
X128167410Y-39965009D01*
X128168057Y-39898761D01*
X128205293Y-39841920D01*
X128273775Y-39803388D01*
X128352741Y-39791682D01*
X128414208Y-39789372D01*
X128441521Y-39773201D01*
X128448540Y-39729309D01*
X128448771Y-39695652D01*
X128465747Y-39598428D01*
X128496786Y-39551607D01*
X128563535Y-39510322D01*
X128629783Y-39510968D01*
X128686625Y-39548204D01*
X128725157Y-39616686D01*
X128736862Y-39695652D01*
X128736862Y-39791682D01*
X128880907Y-39791682D01*
X129024953Y-39791682D01*
X129024953Y-39695652D01*
X129041929Y-39598428D01*
X129072968Y-39551607D01*
X129139717Y-39510322D01*
X129205964Y-39510968D01*
G37*
G36*
X126628444Y-37215160D02*
G01*
X126672212Y-37246881D01*
X126694631Y-37275301D01*
X126708861Y-37313429D01*
X126716671Y-37371879D01*
X126719829Y-37461265D01*
X126720227Y-37534972D01*
X126720227Y-37775047D01*
X126816257Y-37775047D01*
X126913481Y-37792023D01*
X126960302Y-37823062D01*
X127001587Y-37889811D01*
X127000941Y-37956059D01*
X126963705Y-38012901D01*
X126895223Y-38051433D01*
X126816257Y-38063138D01*
X126720227Y-38063138D01*
X126720227Y-38207183D01*
X126720227Y-38351229D01*
X127104348Y-38351229D01*
X127249715Y-38351678D01*
X127354904Y-38353604D01*
X127427746Y-38357880D01*
X127476073Y-38365373D01*
X127507718Y-38376955D01*
X127530512Y-38393497D01*
X127536484Y-38399244D01*
X127576608Y-38473320D01*
X127584499Y-38543289D01*
X127584499Y-38639319D01*
X127872590Y-38639319D01*
X128160680Y-38639319D01*
X128160680Y-38495274D01*
X128160680Y-38351229D01*
X128064650Y-38351229D01*
X127974979Y-38334879D01*
X127908059Y-38291154D01*
X127874542Y-38228041D01*
X127872590Y-38207183D01*
X127888884Y-38154920D01*
X127920605Y-38111153D01*
X127953623Y-38086170D01*
X127998998Y-38071491D01*
X128069086Y-38064645D01*
X128160680Y-38063138D01*
X128285191Y-38068931D01*
X128369480Y-38089300D01*
X128420272Y-38128724D01*
X128444286Y-38191685D01*
X128448771Y-38255198D01*
X128448771Y-38351229D01*
X128832892Y-38351229D01*
X128978260Y-38351678D01*
X129083448Y-38353604D01*
X129156290Y-38357880D01*
X129204617Y-38365373D01*
X129236262Y-38376955D01*
X129259057Y-38393497D01*
X129265028Y-38399244D01*
X129300997Y-38451507D01*
X129313043Y-38495274D01*
X129296749Y-38547537D01*
X129265028Y-38591304D01*
X129236608Y-38613724D01*
X129198480Y-38627954D01*
X129140030Y-38635763D01*
X129050644Y-38638921D01*
X128976937Y-38639319D01*
X128736862Y-38639319D01*
X128736862Y-38735350D01*
X128730405Y-38812454D01*
X128706475Y-38866249D01*
X128658234Y-38900643D01*
X128578844Y-38919542D01*
X128461467Y-38926854D01*
X128400756Y-38927410D01*
X128160680Y-38927410D01*
X128160680Y-39023440D01*
X128151990Y-39106447D01*
X128121438Y-39162640D01*
X128062302Y-39196501D01*
X127967860Y-39212511D01*
X127872590Y-39215501D01*
X127770648Y-39213492D01*
X127704258Y-39205818D01*
X127661064Y-39190008D01*
X127632514Y-39167486D01*
X127592390Y-39093410D01*
X127584499Y-39023440D01*
X127584499Y-38927410D01*
X127488469Y-38927410D01*
X127391245Y-38910434D01*
X127327973Y-38859506D01*
X127298652Y-38774627D01*
X127296408Y-38735350D01*
X127296408Y-38639319D01*
X127152363Y-38639319D01*
X127008317Y-38639319D01*
X127008317Y-38735350D01*
X126991342Y-38832574D01*
X126960302Y-38879395D01*
X126893553Y-38920680D01*
X126827306Y-38920034D01*
X126770464Y-38882798D01*
X126731932Y-38814315D01*
X126720227Y-38735350D01*
X126720227Y-38639319D01*
X126480151Y-38639319D01*
X126366854Y-38638119D01*
X126290924Y-38633340D01*
X126241748Y-38623211D01*
X126208712Y-38605966D01*
X126192060Y-38591304D01*
X126150775Y-38524555D01*
X126151422Y-38458308D01*
X126188658Y-38401466D01*
X126257140Y-38362934D01*
X126336106Y-38351229D01*
X126432136Y-38351229D01*
X126432136Y-38207183D01*
X126432136Y-38063138D01*
X126288091Y-38063138D01*
X126144045Y-38063138D01*
X126144045Y-38159168D01*
X126127695Y-38248840D01*
X126083971Y-38315759D01*
X126020858Y-38349277D01*
X126000000Y-38351229D01*
X125947737Y-38334935D01*
X125903970Y-38303213D01*
X125878986Y-38270195D01*
X125864307Y-38224820D01*
X125857462Y-38154732D01*
X125855954Y-38063138D01*
X125861748Y-37938628D01*
X125882116Y-37854338D01*
X125921540Y-37803547D01*
X125984501Y-37779532D01*
X126048015Y-37775047D01*
X126144045Y-37775047D01*
X126144045Y-37679017D01*
X126161021Y-37581793D01*
X126211949Y-37518521D01*
X126296828Y-37489201D01*
X126336106Y-37486956D01*
X126397573Y-37484646D01*
X126424886Y-37468475D01*
X126431905Y-37424583D01*
X126432136Y-37390926D01*
X126448486Y-37301255D01*
X126492211Y-37234335D01*
X126555323Y-37200818D01*
X126576181Y-37198866D01*
X126628444Y-37215160D01*
G37*
G36*
X126864272Y-41808317D02*
G01*
X127054049Y-41808493D01*
X127201677Y-41809300D01*
X127313022Y-41811157D01*
X127393949Y-41814482D01*
X127450325Y-41819696D01*
X127488015Y-41827217D01*
X127512885Y-41837463D01*
X127530800Y-41850854D01*
X127536484Y-41856333D01*
X127572453Y-41908595D01*
X127584499Y-41952363D01*
X127568205Y-42004626D01*
X127536484Y-42048393D01*
X127508064Y-42070812D01*
X127469935Y-42085042D01*
X127411485Y-42092852D01*
X127322099Y-42096010D01*
X127248393Y-42096408D01*
X127008317Y-42096408D01*
X127008317Y-42192438D01*
X126991342Y-42289662D01*
X126960302Y-42336484D01*
X126886226Y-42376608D01*
X126816257Y-42384499D01*
X126720227Y-42384499D01*
X126720227Y-42528544D01*
X126720227Y-42672590D01*
X127152363Y-42672590D01*
X127584499Y-42672590D01*
X127584499Y-42432514D01*
X127586951Y-42299485D01*
X127598501Y-42207048D01*
X127625441Y-42147864D01*
X127674063Y-42114591D01*
X127750658Y-42099890D01*
X127861519Y-42096420D01*
X127872590Y-42096408D01*
X127974532Y-42098417D01*
X128040921Y-42106091D01*
X128084115Y-42121901D01*
X128112665Y-42144423D01*
X128153950Y-42211172D01*
X128153304Y-42277420D01*
X128116068Y-42334262D01*
X128047585Y-42372794D01*
X127968620Y-42384499D01*
X127872590Y-42384499D01*
X127872590Y-42624575D01*
X127871390Y-42737872D01*
X127866610Y-42813801D01*
X127856482Y-42862977D01*
X127839236Y-42896013D01*
X127824575Y-42912665D01*
X127796155Y-42935085D01*
X127758026Y-42949315D01*
X127699576Y-42957124D01*
X127610190Y-42960282D01*
X127536484Y-42960680D01*
X127296408Y-42960680D01*
X127296408Y-43104726D01*
X127296408Y-43248771D01*
X127392438Y-43248771D01*
X127482110Y-43265121D01*
X127549029Y-43308846D01*
X127582547Y-43371958D01*
X127584499Y-43392816D01*
X127568205Y-43445079D01*
X127536484Y-43488847D01*
X127508064Y-43511266D01*
X127469935Y-43525496D01*
X127411485Y-43533306D01*
X127322099Y-43536464D01*
X127248393Y-43536862D01*
X127008317Y-43536862D01*
X127008317Y-43632892D01*
X126991968Y-43722564D01*
X126948243Y-43789483D01*
X126885130Y-43823001D01*
X126864272Y-43824953D01*
X126812009Y-43808659D01*
X126768242Y-43776937D01*
X126728118Y-43702862D01*
X126720227Y-43632892D01*
X126720227Y-43536862D01*
X126192060Y-43536862D01*
X126018931Y-43536621D01*
X125887352Y-43535538D01*
X125790859Y-43533075D01*
X125722988Y-43528693D01*
X125677275Y-43521853D01*
X125647256Y-43512017D01*
X125626467Y-43498646D01*
X125615879Y-43488847D01*
X125575755Y-43414771D01*
X125567864Y-43344801D01*
X125567864Y-43248771D01*
X125471834Y-43248771D01*
X125374610Y-43231795D01*
X125327788Y-43200756D01*
X125308559Y-43177413D01*
X125295241Y-43146785D01*
X125286770Y-43100357D01*
X125282080Y-43029612D01*
X125280109Y-42926036D01*
X125279773Y-42816635D01*
X125280361Y-42681444D01*
X125282834Y-42585745D01*
X125288256Y-42521023D01*
X125297692Y-42478762D01*
X125312207Y-42450446D01*
X125327788Y-42432514D01*
X125380051Y-42396545D01*
X125423818Y-42384499D01*
X125476081Y-42400793D01*
X125519849Y-42432514D01*
X125542268Y-42460934D01*
X125556498Y-42499062D01*
X125564308Y-42557513D01*
X125567466Y-42646899D01*
X125567864Y-42720605D01*
X125567864Y-42960680D01*
X125663894Y-42960680D01*
X125761118Y-42977656D01*
X125807939Y-43008696D01*
X125848063Y-43082771D01*
X125855954Y-43152741D01*
X125855954Y-43248771D01*
X126000000Y-43248771D01*
X126144045Y-43248771D01*
X126720227Y-43248771D01*
X126864272Y-43248771D01*
X127008317Y-43248771D01*
X127008317Y-43104726D01*
X127008317Y-42960680D01*
X126864272Y-42960680D01*
X126720227Y-42960680D01*
X126720227Y-43104726D01*
X126720227Y-43248771D01*
X126144045Y-43248771D01*
X126144045Y-43152741D01*
X126152429Y-43104726D01*
X126161021Y-43055517D01*
X126192060Y-43008696D01*
X126266136Y-42968571D01*
X126336106Y-42960680D01*
X126432136Y-42960680D01*
X126432136Y-42672590D01*
X126432136Y-42384499D01*
X126336106Y-42384499D01*
X126253099Y-42375809D01*
X126196906Y-42345256D01*
X126163045Y-42286120D01*
X126147035Y-42191678D01*
X126144045Y-42096408D01*
X126143864Y-42014487D01*
X126146682Y-41949752D01*
X126157548Y-41900182D01*
X126181506Y-41863761D01*
X126223602Y-41838469D01*
X126288882Y-41822289D01*
X126382393Y-41813202D01*
X126509180Y-41809189D01*
X126674289Y-41808233D01*
X126864272Y-41808317D01*
G37*
G36*
X128933170Y-42688884D02*
G01*
X128976937Y-42720605D01*
X128999357Y-42749025D01*
X129013587Y-42787153D01*
X129021396Y-42845603D01*
X129024555Y-42934989D01*
X129024953Y-43008696D01*
X129024953Y-43248771D01*
X129168998Y-43248771D01*
X129313043Y-43248771D01*
X129313043Y-43152741D01*
X129330019Y-43055517D01*
X129361058Y-43008696D01*
X129427808Y-42967410D01*
X129494055Y-42968057D01*
X129550897Y-43005293D01*
X129589429Y-43073775D01*
X129601134Y-43152741D01*
X129601134Y-43248771D01*
X129841210Y-43248771D01*
X129955322Y-43249328D01*
X130040163Y-43255129D01*
X130100069Y-43272368D01*
X130139375Y-43307240D01*
X130162417Y-43365937D01*
X130173531Y-43454655D01*
X130177053Y-43579588D01*
X130177316Y-43728922D01*
X130177316Y-44113043D01*
X130273346Y-44113043D01*
X130370570Y-44130019D01*
X130417391Y-44161058D01*
X130458676Y-44227808D01*
X130458030Y-44294055D01*
X130420794Y-44350897D01*
X130352311Y-44389429D01*
X130273346Y-44401134D01*
X130177316Y-44401134D01*
X130177316Y-44641210D01*
X130173626Y-44776143D01*
X130159951Y-44870284D01*
X130132385Y-44930473D01*
X130087020Y-44963546D01*
X130019947Y-44976343D01*
X129985255Y-44977316D01*
X129889225Y-44977316D01*
X129889225Y-45073346D01*
X129872249Y-45170570D01*
X129841210Y-45217391D01*
X129767134Y-45257515D01*
X129697164Y-45265406D01*
X129601134Y-45265406D01*
X129601134Y-45649527D01*
X129600685Y-45794895D01*
X129598758Y-45900083D01*
X129594483Y-45972925D01*
X129586990Y-46021252D01*
X129575407Y-46052897D01*
X129558866Y-46075692D01*
X129553119Y-46081663D01*
X129500856Y-46117632D01*
X129457089Y-46129678D01*
X129404826Y-46113385D01*
X129361058Y-46081663D01*
X129342944Y-46059957D01*
X129330036Y-46031634D01*
X129321465Y-45988863D01*
X129316361Y-45923809D01*
X129313853Y-45828643D01*
X129313071Y-45695531D01*
X129313043Y-45649527D01*
X129313043Y-45265406D01*
X129168998Y-45265406D01*
X129024953Y-45265406D01*
X129024953Y-45649527D01*
X129025628Y-45800399D01*
X129023919Y-45915991D01*
X129014219Y-46000975D01*
X128990924Y-46060023D01*
X128948427Y-46097805D01*
X128881123Y-46118993D01*
X128783408Y-46128257D01*
X128649676Y-46130268D01*
X128474322Y-46129699D01*
X128448771Y-46129678D01*
X128284482Y-46129389D01*
X128161366Y-46128105D01*
X128072586Y-46125206D01*
X128011301Y-46120069D01*
X127970673Y-46112073D01*
X127943861Y-46100595D01*
X127924026Y-46085015D01*
X127920605Y-46081663D01*
X127895621Y-46048645D01*
X127880943Y-46003270D01*
X127874097Y-45933182D01*
X127872590Y-45841588D01*
X127878383Y-45717078D01*
X127898751Y-45632788D01*
X127938175Y-45581996D01*
X128001137Y-45557982D01*
X128064650Y-45553497D01*
X128160680Y-45553497D01*
X128160680Y-45121361D01*
X128160680Y-44977316D01*
X128448771Y-44977316D01*
X128592816Y-44977316D01*
X128736862Y-44977316D01*
X128736862Y-44833270D01*
X128736862Y-44689225D01*
X129024953Y-44689225D01*
X129457089Y-44689225D01*
X129889225Y-44689225D01*
X129889225Y-44257089D01*
X129889225Y-43824953D01*
X129457089Y-43824953D01*
X129024953Y-43824953D01*
X129024953Y-44257089D01*
X129024953Y-44689225D01*
X128736862Y-44689225D01*
X128592816Y-44689225D01*
X128448771Y-44689225D01*
X128448771Y-44833270D01*
X128448771Y-44977316D01*
X128160680Y-44977316D01*
X128160680Y-44833270D01*
X128160680Y-44689225D01*
X127776559Y-44689225D01*
X127631192Y-44688776D01*
X127526003Y-44686849D01*
X127453161Y-44682574D01*
X127404834Y-44675080D01*
X127373189Y-44663498D01*
X127350395Y-44646957D01*
X127344423Y-44641210D01*
X127303138Y-44574461D01*
X127303785Y-44508213D01*
X127341021Y-44451371D01*
X127409503Y-44412839D01*
X127488469Y-44401134D01*
X127584499Y-44401134D01*
X127584499Y-44305104D01*
X127601475Y-44207880D01*
X127632514Y-44161058D01*
X127699263Y-44119773D01*
X127765511Y-44120420D01*
X127822352Y-44157656D01*
X127860884Y-44226138D01*
X127872590Y-44305104D01*
X127872590Y-44401134D01*
X128016635Y-44401134D01*
X128160680Y-44401134D01*
X128160680Y-44305104D01*
X128177656Y-44207880D01*
X128208696Y-44161058D01*
X128275445Y-44119773D01*
X128341692Y-44120420D01*
X128398534Y-44157656D01*
X128437066Y-44226138D01*
X128448771Y-44305104D01*
X128448771Y-44401134D01*
X128592816Y-44401134D01*
X128736862Y-44401134D01*
X128736862Y-44257089D01*
X128736862Y-44113043D01*
X128640832Y-44113043D01*
X128543608Y-44096067D01*
X128496786Y-44065028D01*
X128455501Y-43998279D01*
X128456148Y-43932032D01*
X128493383Y-43875190D01*
X128561866Y-43836658D01*
X128640832Y-43824953D01*
X128736862Y-43824953D01*
X128736862Y-43296786D01*
X128737103Y-43123657D01*
X128738186Y-42992078D01*
X128740649Y-42895584D01*
X128745031Y-42827713D01*
X128751871Y-42782001D01*
X128761707Y-42751982D01*
X128775077Y-42731193D01*
X128784877Y-42720605D01*
X128837140Y-42684636D01*
X128880907Y-42672590D01*
X128933170Y-42688884D01*
G37*
G36*
X123444150Y-36341970D02*
G01*
X123500991Y-36379206D01*
X123539523Y-36447688D01*
X123551229Y-36526654D01*
X123553539Y-36588121D01*
X123569710Y-36615434D01*
X123613602Y-36622453D01*
X123647259Y-36622684D01*
X123744483Y-36639660D01*
X123791304Y-36670699D01*
X123809419Y-36692405D01*
X123822327Y-36720728D01*
X123830898Y-36763500D01*
X123836002Y-36828553D01*
X123838510Y-36923720D01*
X123839291Y-37056832D01*
X123839319Y-37102835D01*
X123839319Y-37486956D01*
X123935350Y-37486956D01*
X124032574Y-37503932D01*
X124095846Y-37554860D01*
X124125166Y-37639740D01*
X124127410Y-37679017D01*
X124127410Y-37775047D01*
X124559546Y-37775047D01*
X124991682Y-37775047D01*
X124991682Y-37679017D01*
X125007597Y-37588133D01*
X125049406Y-37523946D01*
X125108205Y-37491798D01*
X125175089Y-37497031D01*
X125231758Y-37534972D01*
X125248158Y-37554269D01*
X125260341Y-37579289D01*
X125268929Y-37616871D01*
X125274544Y-37673855D01*
X125277807Y-37757080D01*
X125279341Y-37873385D01*
X125279766Y-38029610D01*
X125279773Y-38063138D01*
X125279483Y-38227427D01*
X125278200Y-38350543D01*
X125275300Y-38439323D01*
X125270163Y-38500608D01*
X125262167Y-38541236D01*
X125250690Y-38568048D01*
X125235110Y-38587883D01*
X125231758Y-38591304D01*
X125179495Y-38627273D01*
X125135728Y-38639319D01*
X125083465Y-38623025D01*
X125039697Y-38591304D01*
X125017278Y-38562884D01*
X125003048Y-38524756D01*
X124995238Y-38466305D01*
X124992080Y-38376920D01*
X124991682Y-38303213D01*
X124991682Y-38063138D01*
X124847637Y-38063138D01*
X124703592Y-38063138D01*
X124703592Y-38159168D01*
X124697134Y-38236273D01*
X124673204Y-38290068D01*
X124624963Y-38324461D01*
X124545573Y-38343361D01*
X124428197Y-38350673D01*
X124367486Y-38351229D01*
X124127410Y-38351229D01*
X124127410Y-38447259D01*
X124110434Y-38544483D01*
X124079395Y-38591304D01*
X124005319Y-38631428D01*
X123935350Y-38639319D01*
X123839319Y-38639319D01*
X123839319Y-39647637D01*
X123839319Y-40655954D01*
X124079395Y-40655954D01*
X124192692Y-40657155D01*
X124268622Y-40661934D01*
X124317798Y-40672062D01*
X124350834Y-40689308D01*
X124367486Y-40703970D01*
X124408771Y-40770719D01*
X124408124Y-40836966D01*
X124370888Y-40893808D01*
X124302406Y-40932340D01*
X124223440Y-40944045D01*
X124127410Y-40944045D01*
X124127410Y-41040075D01*
X124110434Y-41137299D01*
X124079395Y-41184121D01*
X124012646Y-41225406D01*
X123946398Y-41224759D01*
X123889557Y-41187524D01*
X123851025Y-41119041D01*
X123839319Y-41040075D01*
X123839319Y-40944045D01*
X123551229Y-40944045D01*
X123263138Y-40944045D01*
X123263138Y-41040075D01*
X123246162Y-41137299D01*
X123195234Y-41200572D01*
X123110355Y-41229892D01*
X123071077Y-41232136D01*
X123009610Y-41234446D01*
X122982297Y-41250617D01*
X122975278Y-41294509D01*
X122975047Y-41328166D01*
X122958071Y-41425390D01*
X122927032Y-41472212D01*
X122905326Y-41490326D01*
X122877003Y-41503234D01*
X122834231Y-41511805D01*
X122769178Y-41516909D01*
X122674012Y-41519417D01*
X122540899Y-41520199D01*
X122494896Y-41520227D01*
X122110775Y-41520227D01*
X122110775Y-41664272D01*
X122110775Y-41808317D01*
X122350851Y-41808317D01*
X122464148Y-41809518D01*
X122540077Y-41814297D01*
X122589253Y-41824425D01*
X122622289Y-41841671D01*
X122638941Y-41856333D01*
X122674910Y-41908595D01*
X122686956Y-41952363D01*
X122670662Y-42004626D01*
X122638941Y-42048393D01*
X122610521Y-42070812D01*
X122572393Y-42085042D01*
X122513943Y-42092852D01*
X122424557Y-42096010D01*
X122350851Y-42096408D01*
X122110775Y-42096408D01*
X122110775Y-42192438D01*
X122094425Y-42282110D01*
X122050700Y-42349029D01*
X121987588Y-42382547D01*
X121966730Y-42384499D01*
X121914467Y-42368205D01*
X121870699Y-42336484D01*
X121848280Y-42308064D01*
X121834050Y-42269935D01*
X121826240Y-42211485D01*
X121823082Y-42122099D01*
X121822684Y-42048393D01*
X121822684Y-41808317D01*
X121582609Y-41808317D01*
X121469311Y-41807117D01*
X121393382Y-41802338D01*
X121344206Y-41792209D01*
X121311170Y-41774964D01*
X121294518Y-41760302D01*
X121252264Y-41691716D01*
X121257550Y-41621242D01*
X121294518Y-41568242D01*
X121322938Y-41545822D01*
X121361066Y-41531592D01*
X121419517Y-41523783D01*
X121508903Y-41520625D01*
X121582609Y-41520227D01*
X121822684Y-41520227D01*
X121822684Y-41376181D01*
X121822684Y-41232136D01*
X121726654Y-41232136D01*
X121635770Y-41216221D01*
X121571583Y-41174412D01*
X121539435Y-41115614D01*
X121544668Y-41048730D01*
X121582609Y-40992060D01*
X121615627Y-40967077D01*
X121661002Y-40952398D01*
X121731090Y-40945552D01*
X121822684Y-40944045D01*
X121947194Y-40949839D01*
X122031484Y-40970207D01*
X122082275Y-41009631D01*
X122106290Y-41072592D01*
X122110775Y-41136106D01*
X122110775Y-41232136D01*
X122398866Y-41232136D01*
X122686956Y-41232136D01*
X122686956Y-41136106D01*
X122703932Y-41038882D01*
X122734972Y-40992060D01*
X122809047Y-40951936D01*
X122879017Y-40944045D01*
X122940484Y-40941735D01*
X122967797Y-40925564D01*
X122974816Y-40881672D01*
X122975047Y-40848015D01*
X122981504Y-40770910D01*
X123005434Y-40717115D01*
X123053675Y-40682722D01*
X123133065Y-40663823D01*
X123250442Y-40656511D01*
X123311153Y-40655954D01*
X123551229Y-40655954D01*
X123551229Y-40511909D01*
X123551229Y-40367864D01*
X123263138Y-40367864D01*
X122975047Y-40367864D01*
X122975047Y-40463894D01*
X122958071Y-40561118D01*
X122927032Y-40607939D01*
X122860283Y-40649225D01*
X122794035Y-40648578D01*
X122737194Y-40611342D01*
X122698662Y-40542860D01*
X122686956Y-40463894D01*
X122686956Y-40367864D01*
X122590926Y-40367864D01*
X122500043Y-40351949D01*
X122435855Y-40310140D01*
X122403707Y-40251342D01*
X122408940Y-40184457D01*
X122446881Y-40127788D01*
X122468587Y-40109673D01*
X122496910Y-40096766D01*
X122539682Y-40088195D01*
X122604735Y-40083091D01*
X122699901Y-40080583D01*
X122833013Y-40079801D01*
X122879017Y-40079773D01*
X123263138Y-40079773D01*
X123263138Y-39839697D01*
X123266828Y-39704765D01*
X123280502Y-39610623D01*
X123308068Y-39550434D01*
X123353434Y-39517361D01*
X123420506Y-39504565D01*
X123455198Y-39503592D01*
X123551229Y-39503592D01*
X123551229Y-39359546D01*
X123551229Y-39215501D01*
X123455198Y-39215501D01*
X123372192Y-39206810D01*
X123315998Y-39176258D01*
X123282137Y-39117122D01*
X123266128Y-39022680D01*
X123263138Y-38927410D01*
X123268931Y-38802900D01*
X123289300Y-38718610D01*
X123328724Y-38667819D01*
X123391685Y-38643804D01*
X123455198Y-38639319D01*
X123551229Y-38639319D01*
X123551229Y-38399244D01*
X123554918Y-38264311D01*
X123568593Y-38170169D01*
X123596159Y-38109980D01*
X123641525Y-38076907D01*
X123708597Y-38064111D01*
X123743289Y-38063138D01*
X123839319Y-38063138D01*
X123839319Y-37919092D01*
X123839319Y-37775047D01*
X123743289Y-37775047D01*
X123646065Y-37758071D01*
X123599244Y-37727032D01*
X123581129Y-37705326D01*
X123568221Y-37677003D01*
X123559650Y-37634231D01*
X123554546Y-37569178D01*
X123552038Y-37474012D01*
X123551257Y-37340899D01*
X123551229Y-37294896D01*
X123551229Y-36910775D01*
X123455198Y-36910775D01*
X123372192Y-36902085D01*
X123315998Y-36871532D01*
X123282137Y-36812396D01*
X123266128Y-36717954D01*
X123263138Y-36622684D01*
X123265147Y-36520742D01*
X123272821Y-36454352D01*
X123288631Y-36411159D01*
X123311153Y-36382609D01*
X123377902Y-36341323D01*
X123444150Y-36341970D01*
G37*
D10*
%TO.C,J1*%
X120670000Y-52670000D02*
X122000000Y-52670000D01*
X120670000Y-54000000D02*
X120670000Y-52670000D01*
X120670000Y-55270000D02*
X120670000Y-60410000D01*
X120670000Y-55270000D02*
X123330000Y-55270000D01*
X120670000Y-60410000D02*
X123330000Y-60410000D01*
X123330000Y-55270000D02*
X123330000Y-60410000D01*
%TO.C,D2*%
X123950000Y-94200000D02*
X123950000Y-94200000D01*
X123950000Y-94300000D02*
X123950000Y-94300000D01*
X123950000Y-94200000D02*
G75*
G02*
X123950000Y-94300000I0J-50000D01*
G01*
X123950000Y-94300000D02*
G75*
G02*
X123950000Y-94200000I0J50000D01*
G01*
%TO.C,U1*%
X132778680Y-56741320D02*
X134108680Y-56741320D01*
X132778680Y-58071320D02*
X132778680Y-56741320D01*
X132778680Y-59341320D02*
X132778680Y-87341320D01*
X132778680Y-59341320D02*
X135438680Y-59341320D01*
X132778680Y-87341320D02*
X135438680Y-87341320D01*
X133030000Y-112060000D02*
X133030000Y-53060000D01*
X135438680Y-59341320D02*
X135438680Y-87341320D01*
X136030000Y-50060000D02*
X160030000Y-50060000D01*
X140428000Y-65934650D02*
X140428000Y-68093650D01*
X140428000Y-65934650D02*
X142587000Y-65934650D01*
X140428000Y-68093650D02*
X141444000Y-68093650D01*
X141825000Y-68347650D02*
X141825000Y-73046650D01*
X141825000Y-73046650D02*
X141698000Y-73173650D01*
X142079000Y-68093650D02*
X142587000Y-68093650D01*
X142360000Y-109960000D02*
X142360000Y-115060000D01*
X142360000Y-115060000D02*
X136030000Y-115060000D01*
X142587000Y-65934650D02*
X142587000Y-68093650D01*
X143218070Y-109460000D02*
X142860000Y-109460000D01*
X143682960Y-109253170D02*
X143218070Y-109460000D01*
X143682970Y-109253170D02*
X143682960Y-109253170D01*
X146880000Y-56159650D02*
X149180000Y-56159650D01*
X146880000Y-56959650D02*
X146880000Y-56159650D01*
X148030000Y-56959650D02*
X148030000Y-55431320D01*
X149180000Y-56159650D02*
X146880000Y-56159650D01*
X149180000Y-56159650D02*
X149180000Y-56959650D01*
X149180000Y-56959650D02*
X146880000Y-56959650D01*
X152173800Y-109210000D02*
X143886210Y-109210000D01*
X152841930Y-109460000D02*
X152377040Y-109253170D01*
X153200000Y-109460000D02*
X152841930Y-109460000D01*
X153700000Y-115060000D02*
X153700000Y-109960000D01*
X160030000Y-115060000D02*
X153700000Y-115060000D01*
X160678680Y-56701320D02*
X162008680Y-56701320D01*
X160678680Y-58031320D02*
X160678680Y-56701320D01*
X160678680Y-59301320D02*
X160678680Y-87301320D01*
X160678680Y-59301320D02*
X163338680Y-59301320D01*
X160678680Y-87301320D02*
X163338680Y-87301320D01*
X162180000Y-108110000D02*
X163030000Y-108110000D01*
X163030000Y-53060000D02*
X163030000Y-103010000D01*
X163030000Y-103010000D02*
X162180000Y-103010000D01*
X163030000Y-108110000D02*
X163030000Y-112060000D01*
X163338680Y-59301320D02*
X163338680Y-87301320D01*
X133030000Y-53060000D02*
G75*
G02*
X136030000Y-50060000I3000001J-1D01*
G01*
X136030000Y-115060000D02*
G75*
G02*
X133030000Y-112060000I0J3000000D01*
G01*
X142360000Y-109960000D02*
G75*
G02*
X142860000Y-109460040I499980J-20D01*
G01*
X143682970Y-109253170D02*
G75*
G02*
X143886210Y-109209999I203310J-457150D01*
G01*
X152173800Y-109210000D02*
G75*
G02*
X152377037Y-109253176I-20J-500020D01*
G01*
X153200000Y-109460000D02*
G75*
G02*
X153700000Y-109960000I-20J-500020D01*
G01*
X160030000Y-50060000D02*
G75*
G02*
X163030000Y-53060000I-1J-3000001D01*
G01*
X163030000Y-112060000D02*
G75*
G02*
X160030000Y-115060000I-3000020J20D01*
G01*
X136095120Y-87016650D02*
G75*
G02*
X136023280Y-87016650I-35920J0D01*
G01*
X136023280Y-87016650D02*
G75*
G02*
X136095120Y-87016650I35920J0D01*
G01*
X151500910Y-106479630D02*
G75*
G02*
X151450110Y-106479630I-25400J0D01*
G01*
X151450110Y-106479630D02*
G75*
G02*
X151500910Y-106479630I25400J0D01*
G01*
X152493000Y-91487050D02*
G75*
G02*
X152340600Y-91487050I-76200J0D01*
G01*
X152340600Y-91487050D02*
G75*
G02*
X152493000Y-91487050I76200J0D01*
G01*
X154708800Y-101367650D02*
G75*
G02*
X154595200Y-101367650I-56800J0D01*
G01*
X154595200Y-101367650D02*
G75*
G02*
X154708800Y-101367650I56800J0D01*
G01*
%TO.C,R2*%
X126727064Y-68765000D02*
X126272936Y-68765000D01*
X126727064Y-70235000D02*
X126272936Y-70235000D01*
%TO.C,U2*%
X139381857Y-34684590D02*
X157781857Y-34684590D01*
X157781857Y-48684590D01*
X139381857Y-48684590D01*
X139381857Y-34684590D01*
%TD*%
M02*
