%TF.GenerationSoftware,KiCad,Pcbnew,8.0.6-8.0.6-0~ubuntu24.04.1*%
%TF.CreationDate,2024-11-24T15:52:50-06:00*%
%TF.ProjectId,edge_human_detection_board,65646765-5f68-4756-9d61-6e5f64657465,rev?*%
%TF.SameCoordinates,Original*%
%TF.FileFunction,Soldermask,Bot*%
%TF.FilePolarity,Negative*%
%FSLAX46Y46*%
G04 Gerber Fmt 4.6, Leading zero omitted, Abs format (unit mm)*
G04 Created by KiCad (PCBNEW 8.0.6-8.0.6-0~ubuntu24.04.1) date 2024-11-24 15:52:50*
%MOMM*%
%LPD*%
G01*
G04 APERTURE LIST*
G04 APERTURE END LIST*
G36*
X142301029Y-116441992D02*
G01*
X142490312Y-116515320D01*
X142662898Y-116622181D01*
X142812910Y-116758935D01*
X142935239Y-116920925D01*
X143025719Y-117102634D01*
X143081270Y-117297876D01*
X143100000Y-117500000D01*
X143081270Y-117702124D01*
X143025719Y-117897366D01*
X142935239Y-118079075D01*
X142812910Y-118241065D01*
X142662898Y-118377819D01*
X142490312Y-118484680D01*
X142301029Y-118558008D01*
X142101495Y-118595308D01*
X141898505Y-118595308D01*
X141698971Y-118558008D01*
X141509688Y-118484680D01*
X141337102Y-118377819D01*
X141187090Y-118241065D01*
X141064761Y-118079075D01*
X140974281Y-117897366D01*
X140918730Y-117702124D01*
X140900000Y-117500000D01*
X140918730Y-117297876D01*
X140974281Y-117102634D01*
X141064761Y-116920925D01*
X141187090Y-116758935D01*
X141337102Y-116622181D01*
X141509688Y-116515320D01*
X141698971Y-116441992D01*
X141898505Y-116404692D01*
X142101495Y-116404692D01*
X142301029Y-116441992D01*
G37*
G36*
X154301029Y-116441992D02*
G01*
X154490312Y-116515320D01*
X154662898Y-116622181D01*
X154812910Y-116758935D01*
X154935239Y-116920925D01*
X155025719Y-117102634D01*
X155081270Y-117297876D01*
X155100000Y-117500000D01*
X155081270Y-117702124D01*
X155025719Y-117897366D01*
X154935239Y-118079075D01*
X154812910Y-118241065D01*
X154662898Y-118377819D01*
X154490312Y-118484680D01*
X154301029Y-118558008D01*
X154101495Y-118595308D01*
X153898505Y-118595308D01*
X153698971Y-118558008D01*
X153509688Y-118484680D01*
X153337102Y-118377819D01*
X153187090Y-118241065D01*
X153064761Y-118079075D01*
X152974281Y-117897366D01*
X152918730Y-117702124D01*
X152900000Y-117500000D01*
X152918730Y-117297876D01*
X152974281Y-117102634D01*
X153064761Y-116920925D01*
X153187090Y-116758935D01*
X153337102Y-116622181D01*
X153509688Y-116515320D01*
X153698971Y-116441992D01*
X153898505Y-116404692D01*
X154101495Y-116404692D01*
X154301029Y-116441992D01*
G37*
G36*
X119250295Y-114919699D02*
G01*
X119494427Y-114978310D01*
X119726385Y-115074390D01*
X119940456Y-115205573D01*
X120131371Y-115368629D01*
X120294427Y-115559544D01*
X120425610Y-115773615D01*
X120521690Y-116005573D01*
X120580301Y-116249705D01*
X120600000Y-116500000D01*
X120580301Y-116750295D01*
X120521690Y-116994427D01*
X120425610Y-117226385D01*
X120294427Y-117440456D01*
X120131371Y-117631371D01*
X119940456Y-117794427D01*
X119726385Y-117925610D01*
X119494427Y-118021690D01*
X119250295Y-118080301D01*
X119000000Y-118100000D01*
X118749705Y-118080301D01*
X118505573Y-118021690D01*
X118273615Y-117925610D01*
X118059544Y-117794427D01*
X117868629Y-117631371D01*
X117705573Y-117440456D01*
X117574390Y-117226385D01*
X117478310Y-116994427D01*
X117419699Y-116750295D01*
X117400000Y-116500000D01*
X117419699Y-116249705D01*
X117478310Y-116005573D01*
X117574390Y-115773615D01*
X117705573Y-115559544D01*
X117868629Y-115368629D01*
X118059544Y-115205573D01*
X118273615Y-115074390D01*
X118505573Y-114978310D01*
X118749705Y-114919699D01*
X119000000Y-114900000D01*
X119250295Y-114919699D01*
G37*
G36*
X168750295Y-114919699D02*
G01*
X168994427Y-114978310D01*
X169226385Y-115074390D01*
X169440456Y-115205573D01*
X169631371Y-115368629D01*
X169794427Y-115559544D01*
X169925610Y-115773615D01*
X170021690Y-116005573D01*
X170080301Y-116249705D01*
X170100000Y-116500000D01*
X170080301Y-116750295D01*
X170021690Y-116994427D01*
X169925610Y-117226385D01*
X169794427Y-117440456D01*
X169631371Y-117631371D01*
X169440456Y-117794427D01*
X169226385Y-117925610D01*
X168994427Y-118021690D01*
X168750295Y-118080301D01*
X168500000Y-118100000D01*
X168249705Y-118080301D01*
X168005573Y-118021690D01*
X167773615Y-117925610D01*
X167559544Y-117794427D01*
X167368629Y-117631371D01*
X167205573Y-117440456D01*
X167074390Y-117226385D01*
X166978310Y-116994427D01*
X166919699Y-116750295D01*
X166900000Y-116500000D01*
X166919699Y-116249705D01*
X166978310Y-116005573D01*
X167074390Y-115773615D01*
X167205573Y-115559544D01*
X167368629Y-115368629D01*
X167559544Y-115205573D01*
X167773615Y-115074390D01*
X168005573Y-114978310D01*
X168249705Y-114919699D01*
X168500000Y-114900000D01*
X168750295Y-114919699D01*
G37*
G36*
X130695090Y-110019215D02*
G01*
X130882683Y-110076120D01*
X131055570Y-110168530D01*
X131207107Y-110292893D01*
X131331470Y-110444430D01*
X131423880Y-110617317D01*
X131480785Y-110804910D01*
X131500000Y-111000000D01*
X131480785Y-111195090D01*
X131423880Y-111382683D01*
X131331470Y-111555570D01*
X131207107Y-111707107D01*
X131055570Y-111831470D01*
X130882683Y-111923880D01*
X130695090Y-111980785D01*
X130500000Y-112000000D01*
X130304910Y-111980785D01*
X130117317Y-111923880D01*
X129944430Y-111831470D01*
X129792893Y-111707107D01*
X129668530Y-111555570D01*
X129576120Y-111382683D01*
X129519215Y-111195090D01*
X129500000Y-111000000D01*
X129519215Y-110804910D01*
X129576120Y-110617317D01*
X129668530Y-110444430D01*
X129792893Y-110292893D01*
X129944430Y-110168530D01*
X130117317Y-110076120D01*
X130304910Y-110019215D01*
X130500000Y-110000000D01*
X130695090Y-110019215D01*
G37*
G36*
X130695090Y-106019215D02*
G01*
X130882683Y-106076120D01*
X131055570Y-106168530D01*
X131207107Y-106292893D01*
X131331470Y-106444430D01*
X131423880Y-106617317D01*
X131480785Y-106804910D01*
X131500000Y-107000000D01*
X131480785Y-107195090D01*
X131423880Y-107382683D01*
X131331470Y-107555570D01*
X131207107Y-107707107D01*
X131055570Y-107831470D01*
X130882683Y-107923880D01*
X130695090Y-107980785D01*
X130500000Y-108000000D01*
X130304910Y-107980785D01*
X130117317Y-107923880D01*
X129944430Y-107831470D01*
X129792893Y-107707107D01*
X129668530Y-107555570D01*
X129576120Y-107382683D01*
X129519215Y-107195090D01*
X129500000Y-107000000D01*
X129519215Y-106804910D01*
X129576120Y-106617317D01*
X129668530Y-106444430D01*
X129792893Y-106292893D01*
X129944430Y-106168530D01*
X130117317Y-106076120D01*
X130304910Y-106019215D01*
X130500000Y-106000000D01*
X130695090Y-106019215D01*
G37*
G36*
X130195090Y-100519215D02*
G01*
X130382683Y-100576120D01*
X130555570Y-100668530D01*
X130707107Y-100792893D01*
X130831470Y-100944430D01*
X130923880Y-101117317D01*
X130980785Y-101304910D01*
X131000000Y-101500000D01*
X130980785Y-101695090D01*
X130923880Y-101882683D01*
X130831470Y-102055570D01*
X130707107Y-102207107D01*
X130555570Y-102331470D01*
X130382683Y-102423880D01*
X130195090Y-102480785D01*
X130000000Y-102500000D01*
X129804910Y-102480785D01*
X129617317Y-102423880D01*
X129444430Y-102331470D01*
X129292893Y-102207107D01*
X129168530Y-102055570D01*
X129076120Y-101882683D01*
X129019215Y-101695090D01*
X129000000Y-101500000D01*
X129019215Y-101304910D01*
X129076120Y-101117317D01*
X129168530Y-100944430D01*
X129292893Y-100792893D01*
X129444430Y-100668530D01*
X129617317Y-100576120D01*
X129804910Y-100519215D01*
X130000000Y-100500000D01*
X130195090Y-100519215D01*
G37*
G36*
X130195090Y-96519215D02*
G01*
X130382683Y-96576120D01*
X130555570Y-96668530D01*
X130707107Y-96792893D01*
X130831470Y-96944430D01*
X130923880Y-97117317D01*
X130980785Y-97304910D01*
X131000000Y-97500000D01*
X130980785Y-97695090D01*
X130923880Y-97882683D01*
X130831470Y-98055570D01*
X130707107Y-98207107D01*
X130555570Y-98331470D01*
X130382683Y-98423880D01*
X130195090Y-98480785D01*
X130000000Y-98500000D01*
X129804910Y-98480785D01*
X129617317Y-98423880D01*
X129444430Y-98331470D01*
X129292893Y-98207107D01*
X129168530Y-98055570D01*
X129076120Y-97882683D01*
X129019215Y-97695090D01*
X129000000Y-97500000D01*
X129019215Y-97304910D01*
X129076120Y-97117317D01*
X129168530Y-96944430D01*
X129292893Y-96792893D01*
X129444430Y-96668530D01*
X129617317Y-96576120D01*
X129804910Y-96519215D01*
X130000000Y-96500000D01*
X130195090Y-96519215D01*
G37*
G36*
X124695090Y-91519215D02*
G01*
X124882683Y-91576120D01*
X125055570Y-91668530D01*
X125207107Y-91792893D01*
X125331470Y-91944430D01*
X125423880Y-92117317D01*
X125480785Y-92304910D01*
X125500000Y-92500000D01*
X125480785Y-92695090D01*
X125423880Y-92882683D01*
X125331470Y-93055570D01*
X125207107Y-93207107D01*
X125055570Y-93331470D01*
X124882683Y-93423880D01*
X124695090Y-93480785D01*
X124500000Y-93500000D01*
X124304910Y-93480785D01*
X124117317Y-93423880D01*
X123944430Y-93331470D01*
X123792893Y-93207107D01*
X123668530Y-93055570D01*
X123576120Y-92882683D01*
X123519215Y-92695090D01*
X123500000Y-92500000D01*
X123519215Y-92304910D01*
X123576120Y-92117317D01*
X123668530Y-91944430D01*
X123792893Y-91792893D01*
X123944430Y-91668530D01*
X124117317Y-91576120D01*
X124304910Y-91519215D01*
X124500000Y-91500000D01*
X124695090Y-91519215D01*
G37*
G36*
X124695090Y-87519215D02*
G01*
X124882683Y-87576120D01*
X125055570Y-87668530D01*
X125207107Y-87792893D01*
X125331470Y-87944430D01*
X125423880Y-88117317D01*
X125480785Y-88304910D01*
X125500000Y-88500000D01*
X125480785Y-88695090D01*
X125423880Y-88882683D01*
X125331470Y-89055570D01*
X125207107Y-89207107D01*
X125055570Y-89331470D01*
X124882683Y-89423880D01*
X124695090Y-89480785D01*
X124500000Y-89500000D01*
X124304910Y-89480785D01*
X124117317Y-89423880D01*
X123944430Y-89331470D01*
X123792893Y-89207107D01*
X123668530Y-89055570D01*
X123576120Y-88882683D01*
X123519215Y-88695090D01*
X123500000Y-88500000D01*
X123519215Y-88304910D01*
X123576120Y-88117317D01*
X123668530Y-87944430D01*
X123792893Y-87792893D01*
X123944430Y-87668530D01*
X124117317Y-87576120D01*
X124304910Y-87519215D01*
X124500000Y-87500000D01*
X124695090Y-87519215D01*
G37*
G36*
X147695090Y-85519215D02*
G01*
X147882683Y-85576120D01*
X148055570Y-85668530D01*
X148207107Y-85792893D01*
X148331470Y-85944430D01*
X148423880Y-86117317D01*
X148480785Y-86304910D01*
X148500000Y-86500000D01*
X148480785Y-86695090D01*
X148423880Y-86882683D01*
X148331470Y-87055570D01*
X148207107Y-87207107D01*
X148055570Y-87331470D01*
X147882683Y-87423880D01*
X147695090Y-87480785D01*
X147500000Y-87500000D01*
X147304910Y-87480785D01*
X147117317Y-87423880D01*
X146944430Y-87331470D01*
X146792893Y-87207107D01*
X146668530Y-87055570D01*
X146576120Y-86882683D01*
X146519215Y-86695090D01*
X146500000Y-86500000D01*
X146519215Y-86304910D01*
X146576120Y-86117317D01*
X146668530Y-85944430D01*
X146792893Y-85792893D01*
X146944430Y-85668530D01*
X147117317Y-85576120D01*
X147304910Y-85519215D01*
X147500000Y-85500000D01*
X147695090Y-85519215D01*
G37*
G36*
X134101952Y-85192727D02*
G01*
X134144848Y-85192727D01*
X134193243Y-85203013D01*
X134240687Y-85208359D01*
X134275180Y-85220428D01*
X134310836Y-85228007D01*
X134362216Y-85250883D01*
X134412314Y-85268413D01*
X134438393Y-85284800D01*
X134465860Y-85297029D01*
X134517077Y-85334240D01*
X134566274Y-85365153D01*
X134583940Y-85382819D01*
X134603146Y-85396773D01*
X134650627Y-85449506D01*
X134694847Y-85493726D01*
X134705018Y-85509913D01*
X134716696Y-85522883D01*
X134756639Y-85592067D01*
X134791587Y-85647686D01*
X134795950Y-85660157D01*
X134801541Y-85669840D01*
X134830179Y-85757977D01*
X134851641Y-85819313D01*
X134852454Y-85826532D01*
X134853982Y-85831234D01*
X134867821Y-85962915D01*
X134872000Y-86000000D01*
X134867821Y-86037087D01*
X134853982Y-86168765D01*
X134852454Y-86173465D01*
X134851641Y-86180687D01*
X134830174Y-86242035D01*
X134801541Y-86330159D01*
X134795951Y-86339839D01*
X134791587Y-86352314D01*
X134756632Y-86407944D01*
X134716696Y-86477116D01*
X134705020Y-86490082D01*
X134694847Y-86506274D01*
X134650618Y-86550502D01*
X134603146Y-86603226D01*
X134583943Y-86617177D01*
X134566274Y-86634847D01*
X134517067Y-86665765D01*
X134465860Y-86702970D01*
X134438399Y-86715196D01*
X134412314Y-86731587D01*
X134362206Y-86749120D01*
X134310836Y-86771992D01*
X134275185Y-86779569D01*
X134240687Y-86791641D01*
X134193240Y-86796987D01*
X134144848Y-86807273D01*
X134101952Y-86807273D01*
X134060000Y-86812000D01*
X134018048Y-86807273D01*
X133975152Y-86807273D01*
X133926758Y-86796986D01*
X133879313Y-86791641D01*
X133844815Y-86779569D01*
X133809163Y-86771992D01*
X133757789Y-86749118D01*
X133707686Y-86731587D01*
X133681603Y-86715198D01*
X133654139Y-86702970D01*
X133602925Y-86665761D01*
X133553726Y-86634847D01*
X133536058Y-86617179D01*
X133516853Y-86603226D01*
X133469371Y-86550492D01*
X133425153Y-86506274D01*
X133414981Y-86490086D01*
X133403303Y-86477116D01*
X133363355Y-86407924D01*
X133328413Y-86352314D01*
X133324049Y-86339844D01*
X133318458Y-86330159D01*
X133289811Y-86241995D01*
X133268359Y-86180687D01*
X133267545Y-86173470D01*
X133266017Y-86168765D01*
X133252163Y-86036955D01*
X133248000Y-86000000D01*
X133252163Y-85963047D01*
X133266017Y-85831234D01*
X133267546Y-85826528D01*
X133268359Y-85819313D01*
X133289806Y-85758017D01*
X133318458Y-85669840D01*
X133324050Y-85660153D01*
X133328413Y-85647686D01*
X133363348Y-85592086D01*
X133403303Y-85522883D01*
X133414983Y-85509910D01*
X133425153Y-85493726D01*
X133469362Y-85449516D01*
X133516853Y-85396773D01*
X133536062Y-85382816D01*
X133553726Y-85365153D01*
X133602919Y-85334242D01*
X133654140Y-85297029D01*
X133681606Y-85284799D01*
X133707686Y-85268413D01*
X133757780Y-85250884D01*
X133809163Y-85228007D01*
X133844820Y-85220428D01*
X133879313Y-85208359D01*
X133926755Y-85203013D01*
X133975152Y-85192727D01*
X134018048Y-85192727D01*
X134060000Y-85188000D01*
X134101952Y-85192727D01*
G37*
G36*
X162041952Y-85192727D02*
G01*
X162084848Y-85192727D01*
X162133243Y-85203013D01*
X162180687Y-85208359D01*
X162215180Y-85220428D01*
X162250836Y-85228007D01*
X162302216Y-85250883D01*
X162352314Y-85268413D01*
X162378393Y-85284800D01*
X162405860Y-85297029D01*
X162457077Y-85334240D01*
X162506274Y-85365153D01*
X162523940Y-85382819D01*
X162543146Y-85396773D01*
X162590627Y-85449506D01*
X162634847Y-85493726D01*
X162645018Y-85509913D01*
X162656696Y-85522883D01*
X162696639Y-85592067D01*
X162731587Y-85647686D01*
X162735950Y-85660157D01*
X162741541Y-85669840D01*
X162770179Y-85757977D01*
X162791641Y-85819313D01*
X162792454Y-85826532D01*
X162793982Y-85831234D01*
X162807821Y-85962915D01*
X162812000Y-86000000D01*
X162807821Y-86037087D01*
X162793982Y-86168765D01*
X162792454Y-86173465D01*
X162791641Y-86180687D01*
X162770174Y-86242035D01*
X162741541Y-86330159D01*
X162735951Y-86339839D01*
X162731587Y-86352314D01*
X162696632Y-86407944D01*
X162656696Y-86477116D01*
X162645020Y-86490082D01*
X162634847Y-86506274D01*
X162590618Y-86550502D01*
X162543146Y-86603226D01*
X162523943Y-86617177D01*
X162506274Y-86634847D01*
X162457067Y-86665765D01*
X162405860Y-86702970D01*
X162378399Y-86715196D01*
X162352314Y-86731587D01*
X162302206Y-86749120D01*
X162250836Y-86771992D01*
X162215185Y-86779569D01*
X162180687Y-86791641D01*
X162133240Y-86796987D01*
X162084848Y-86807273D01*
X162041952Y-86807273D01*
X162000000Y-86812000D01*
X161958048Y-86807273D01*
X161915152Y-86807273D01*
X161866758Y-86796986D01*
X161819313Y-86791641D01*
X161784815Y-86779569D01*
X161749163Y-86771992D01*
X161697789Y-86749118D01*
X161647686Y-86731587D01*
X161621603Y-86715198D01*
X161594139Y-86702970D01*
X161542925Y-86665761D01*
X161493726Y-86634847D01*
X161476058Y-86617179D01*
X161456853Y-86603226D01*
X161409371Y-86550492D01*
X161365153Y-86506274D01*
X161354981Y-86490086D01*
X161343303Y-86477116D01*
X161303355Y-86407924D01*
X161268413Y-86352314D01*
X161264049Y-86339844D01*
X161258458Y-86330159D01*
X161229811Y-86241995D01*
X161208359Y-86180687D01*
X161207545Y-86173470D01*
X161206017Y-86168765D01*
X161192163Y-86036955D01*
X161188000Y-86000000D01*
X161192163Y-85963047D01*
X161206017Y-85831234D01*
X161207546Y-85826528D01*
X161208359Y-85819313D01*
X161229806Y-85758017D01*
X161258458Y-85669840D01*
X161264050Y-85660153D01*
X161268413Y-85647686D01*
X161303348Y-85592086D01*
X161343303Y-85522883D01*
X161354983Y-85509910D01*
X161365153Y-85493726D01*
X161409362Y-85449516D01*
X161456853Y-85396773D01*
X161476062Y-85382816D01*
X161493726Y-85365153D01*
X161542919Y-85334242D01*
X161594140Y-85297029D01*
X161621606Y-85284799D01*
X161647686Y-85268413D01*
X161697780Y-85250884D01*
X161749163Y-85228007D01*
X161784820Y-85220428D01*
X161819313Y-85208359D01*
X161866755Y-85203013D01*
X161915152Y-85192727D01*
X161958048Y-85192727D01*
X162000000Y-85188000D01*
X162041952Y-85192727D01*
G37*
G36*
X134101952Y-82652727D02*
G01*
X134144848Y-82652727D01*
X134193243Y-82663013D01*
X134240687Y-82668359D01*
X134275180Y-82680428D01*
X134310836Y-82688007D01*
X134362216Y-82710883D01*
X134412314Y-82728413D01*
X134438393Y-82744800D01*
X134465860Y-82757029D01*
X134517077Y-82794240D01*
X134566274Y-82825153D01*
X134583940Y-82842819D01*
X134603146Y-82856773D01*
X134650627Y-82909506D01*
X134694847Y-82953726D01*
X134705018Y-82969913D01*
X134716696Y-82982883D01*
X134756639Y-83052067D01*
X134791587Y-83107686D01*
X134795950Y-83120157D01*
X134801541Y-83129840D01*
X134830179Y-83217977D01*
X134851641Y-83279313D01*
X134852454Y-83286532D01*
X134853982Y-83291234D01*
X134867821Y-83422915D01*
X134872000Y-83460000D01*
X134867821Y-83497087D01*
X134853982Y-83628765D01*
X134852454Y-83633465D01*
X134851641Y-83640687D01*
X134830174Y-83702035D01*
X134801541Y-83790159D01*
X134795951Y-83799839D01*
X134791587Y-83812314D01*
X134756632Y-83867944D01*
X134716696Y-83937116D01*
X134705020Y-83950082D01*
X134694847Y-83966274D01*
X134650618Y-84010502D01*
X134603146Y-84063226D01*
X134583943Y-84077177D01*
X134566274Y-84094847D01*
X134517067Y-84125765D01*
X134465860Y-84162970D01*
X134438399Y-84175196D01*
X134412314Y-84191587D01*
X134362206Y-84209120D01*
X134310836Y-84231992D01*
X134275185Y-84239569D01*
X134240687Y-84251641D01*
X134193240Y-84256987D01*
X134144848Y-84267273D01*
X134101952Y-84267273D01*
X134060000Y-84272000D01*
X134018048Y-84267273D01*
X133975152Y-84267273D01*
X133926758Y-84256986D01*
X133879313Y-84251641D01*
X133844815Y-84239569D01*
X133809163Y-84231992D01*
X133757789Y-84209118D01*
X133707686Y-84191587D01*
X133681603Y-84175198D01*
X133654139Y-84162970D01*
X133602925Y-84125761D01*
X133553726Y-84094847D01*
X133536058Y-84077179D01*
X133516853Y-84063226D01*
X133469371Y-84010492D01*
X133425153Y-83966274D01*
X133414981Y-83950086D01*
X133403303Y-83937116D01*
X133363355Y-83867924D01*
X133328413Y-83812314D01*
X133324049Y-83799844D01*
X133318458Y-83790159D01*
X133289811Y-83701995D01*
X133268359Y-83640687D01*
X133267545Y-83633470D01*
X133266017Y-83628765D01*
X133252163Y-83496955D01*
X133248000Y-83460000D01*
X133252163Y-83423047D01*
X133266017Y-83291234D01*
X133267546Y-83286528D01*
X133268359Y-83279313D01*
X133289806Y-83218017D01*
X133318458Y-83129840D01*
X133324050Y-83120153D01*
X133328413Y-83107686D01*
X133363348Y-83052086D01*
X133403303Y-82982883D01*
X133414983Y-82969910D01*
X133425153Y-82953726D01*
X133469362Y-82909516D01*
X133516853Y-82856773D01*
X133536062Y-82842816D01*
X133553726Y-82825153D01*
X133602919Y-82794242D01*
X133654140Y-82757029D01*
X133681606Y-82744799D01*
X133707686Y-82728413D01*
X133757780Y-82710884D01*
X133809163Y-82688007D01*
X133844820Y-82680428D01*
X133879313Y-82668359D01*
X133926755Y-82663013D01*
X133975152Y-82652727D01*
X134018048Y-82652727D01*
X134060000Y-82648000D01*
X134101952Y-82652727D01*
G37*
G36*
X162041952Y-82652727D02*
G01*
X162084848Y-82652727D01*
X162133243Y-82663013D01*
X162180687Y-82668359D01*
X162215180Y-82680428D01*
X162250836Y-82688007D01*
X162302216Y-82710883D01*
X162352314Y-82728413D01*
X162378393Y-82744800D01*
X162405860Y-82757029D01*
X162457077Y-82794240D01*
X162506274Y-82825153D01*
X162523940Y-82842819D01*
X162543146Y-82856773D01*
X162590627Y-82909506D01*
X162634847Y-82953726D01*
X162645018Y-82969913D01*
X162656696Y-82982883D01*
X162696639Y-83052067D01*
X162731587Y-83107686D01*
X162735950Y-83120157D01*
X162741541Y-83129840D01*
X162770179Y-83217977D01*
X162791641Y-83279313D01*
X162792454Y-83286532D01*
X162793982Y-83291234D01*
X162807821Y-83422915D01*
X162812000Y-83460000D01*
X162807821Y-83497087D01*
X162793982Y-83628765D01*
X162792454Y-83633465D01*
X162791641Y-83640687D01*
X162770174Y-83702035D01*
X162741541Y-83790159D01*
X162735951Y-83799839D01*
X162731587Y-83812314D01*
X162696632Y-83867944D01*
X162656696Y-83937116D01*
X162645020Y-83950082D01*
X162634847Y-83966274D01*
X162590618Y-84010502D01*
X162543146Y-84063226D01*
X162523943Y-84077177D01*
X162506274Y-84094847D01*
X162457067Y-84125765D01*
X162405860Y-84162970D01*
X162378399Y-84175196D01*
X162352314Y-84191587D01*
X162302206Y-84209120D01*
X162250836Y-84231992D01*
X162215185Y-84239569D01*
X162180687Y-84251641D01*
X162133240Y-84256987D01*
X162084848Y-84267273D01*
X162041952Y-84267273D01*
X162000000Y-84272000D01*
X161958048Y-84267273D01*
X161915152Y-84267273D01*
X161866758Y-84256986D01*
X161819313Y-84251641D01*
X161784815Y-84239569D01*
X161749163Y-84231992D01*
X161697789Y-84209118D01*
X161647686Y-84191587D01*
X161621603Y-84175198D01*
X161594139Y-84162970D01*
X161542925Y-84125761D01*
X161493726Y-84094847D01*
X161476058Y-84077179D01*
X161456853Y-84063226D01*
X161409371Y-84010492D01*
X161365153Y-83966274D01*
X161354981Y-83950086D01*
X161343303Y-83937116D01*
X161303355Y-83867924D01*
X161268413Y-83812314D01*
X161264049Y-83799844D01*
X161258458Y-83790159D01*
X161229811Y-83701995D01*
X161208359Y-83640687D01*
X161207545Y-83633470D01*
X161206017Y-83628765D01*
X161192163Y-83496955D01*
X161188000Y-83460000D01*
X161192163Y-83423047D01*
X161206017Y-83291234D01*
X161207546Y-83286528D01*
X161208359Y-83279313D01*
X161229806Y-83218017D01*
X161258458Y-83129840D01*
X161264050Y-83120153D01*
X161268413Y-83107686D01*
X161303348Y-83052086D01*
X161343303Y-82982883D01*
X161354983Y-82969910D01*
X161365153Y-82953726D01*
X161409362Y-82909516D01*
X161456853Y-82856773D01*
X161476062Y-82842816D01*
X161493726Y-82825153D01*
X161542919Y-82794242D01*
X161594140Y-82757029D01*
X161621606Y-82744799D01*
X161647686Y-82728413D01*
X161697780Y-82710884D01*
X161749163Y-82688007D01*
X161784820Y-82680428D01*
X161819313Y-82668359D01*
X161866755Y-82663013D01*
X161915152Y-82652727D01*
X161958048Y-82652727D01*
X162000000Y-82648000D01*
X162041952Y-82652727D01*
G37*
G36*
X147695090Y-81019215D02*
G01*
X147882683Y-81076120D01*
X148055570Y-81168530D01*
X148207107Y-81292893D01*
X148331470Y-81444430D01*
X148423880Y-81617317D01*
X148480785Y-81804910D01*
X148500000Y-82000000D01*
X148480785Y-82195090D01*
X148423880Y-82382683D01*
X148331470Y-82555570D01*
X148207107Y-82707107D01*
X148055570Y-82831470D01*
X147882683Y-82923880D01*
X147695090Y-82980785D01*
X147500000Y-83000000D01*
X147304910Y-82980785D01*
X147117317Y-82923880D01*
X146944430Y-82831470D01*
X146792893Y-82707107D01*
X146668530Y-82555570D01*
X146576120Y-82382683D01*
X146519215Y-82195090D01*
X146500000Y-82000000D01*
X146519215Y-81804910D01*
X146576120Y-81617317D01*
X146668530Y-81444430D01*
X146792893Y-81292893D01*
X146944430Y-81168530D01*
X147117317Y-81076120D01*
X147304910Y-81019215D01*
X147500000Y-81000000D01*
X147695090Y-81019215D01*
G37*
G36*
X134101952Y-80112727D02*
G01*
X134144848Y-80112727D01*
X134193243Y-80123013D01*
X134240687Y-80128359D01*
X134275180Y-80140428D01*
X134310836Y-80148007D01*
X134362216Y-80170883D01*
X134412314Y-80188413D01*
X134438393Y-80204800D01*
X134465860Y-80217029D01*
X134517077Y-80254240D01*
X134566274Y-80285153D01*
X134583940Y-80302819D01*
X134603146Y-80316773D01*
X134650627Y-80369506D01*
X134694847Y-80413726D01*
X134705018Y-80429913D01*
X134716696Y-80442883D01*
X134756639Y-80512067D01*
X134791587Y-80567686D01*
X134795950Y-80580157D01*
X134801541Y-80589840D01*
X134830179Y-80677977D01*
X134851641Y-80739313D01*
X134852454Y-80746532D01*
X134853982Y-80751234D01*
X134867821Y-80882915D01*
X134872000Y-80920000D01*
X134867821Y-80957087D01*
X134853982Y-81088765D01*
X134852454Y-81093465D01*
X134851641Y-81100687D01*
X134830174Y-81162035D01*
X134801541Y-81250159D01*
X134795951Y-81259839D01*
X134791587Y-81272314D01*
X134756632Y-81327944D01*
X134716696Y-81397116D01*
X134705020Y-81410082D01*
X134694847Y-81426274D01*
X134650618Y-81470502D01*
X134603146Y-81523226D01*
X134583943Y-81537177D01*
X134566274Y-81554847D01*
X134517067Y-81585765D01*
X134465860Y-81622970D01*
X134438399Y-81635196D01*
X134412314Y-81651587D01*
X134362206Y-81669120D01*
X134310836Y-81691992D01*
X134275185Y-81699569D01*
X134240687Y-81711641D01*
X134193240Y-81716987D01*
X134144848Y-81727273D01*
X134101952Y-81727273D01*
X134060000Y-81732000D01*
X134018048Y-81727273D01*
X133975152Y-81727273D01*
X133926758Y-81716986D01*
X133879313Y-81711641D01*
X133844815Y-81699569D01*
X133809163Y-81691992D01*
X133757789Y-81669118D01*
X133707686Y-81651587D01*
X133681603Y-81635198D01*
X133654139Y-81622970D01*
X133602925Y-81585761D01*
X133553726Y-81554847D01*
X133536058Y-81537179D01*
X133516853Y-81523226D01*
X133469371Y-81470492D01*
X133425153Y-81426274D01*
X133414981Y-81410086D01*
X133403303Y-81397116D01*
X133363355Y-81327924D01*
X133328413Y-81272314D01*
X133324049Y-81259844D01*
X133318458Y-81250159D01*
X133289811Y-81161995D01*
X133268359Y-81100687D01*
X133267545Y-81093470D01*
X133266017Y-81088765D01*
X133252163Y-80956955D01*
X133248000Y-80920000D01*
X133252163Y-80883047D01*
X133266017Y-80751234D01*
X133267546Y-80746528D01*
X133268359Y-80739313D01*
X133289806Y-80678017D01*
X133318458Y-80589840D01*
X133324050Y-80580153D01*
X133328413Y-80567686D01*
X133363348Y-80512086D01*
X133403303Y-80442883D01*
X133414983Y-80429910D01*
X133425153Y-80413726D01*
X133469362Y-80369516D01*
X133516853Y-80316773D01*
X133536062Y-80302816D01*
X133553726Y-80285153D01*
X133602919Y-80254242D01*
X133654140Y-80217029D01*
X133681606Y-80204799D01*
X133707686Y-80188413D01*
X133757780Y-80170884D01*
X133809163Y-80148007D01*
X133844820Y-80140428D01*
X133879313Y-80128359D01*
X133926755Y-80123013D01*
X133975152Y-80112727D01*
X134018048Y-80112727D01*
X134060000Y-80108000D01*
X134101952Y-80112727D01*
G37*
G36*
X162041952Y-80112727D02*
G01*
X162084848Y-80112727D01*
X162133243Y-80123013D01*
X162180687Y-80128359D01*
X162215180Y-80140428D01*
X162250836Y-80148007D01*
X162302216Y-80170883D01*
X162352314Y-80188413D01*
X162378393Y-80204800D01*
X162405860Y-80217029D01*
X162457077Y-80254240D01*
X162506274Y-80285153D01*
X162523940Y-80302819D01*
X162543146Y-80316773D01*
X162590627Y-80369506D01*
X162634847Y-80413726D01*
X162645018Y-80429913D01*
X162656696Y-80442883D01*
X162696639Y-80512067D01*
X162731587Y-80567686D01*
X162735950Y-80580157D01*
X162741541Y-80589840D01*
X162770179Y-80677977D01*
X162791641Y-80739313D01*
X162792454Y-80746532D01*
X162793982Y-80751234D01*
X162807821Y-80882915D01*
X162812000Y-80920000D01*
X162807821Y-80957087D01*
X162793982Y-81088765D01*
X162792454Y-81093465D01*
X162791641Y-81100687D01*
X162770174Y-81162035D01*
X162741541Y-81250159D01*
X162735951Y-81259839D01*
X162731587Y-81272314D01*
X162696632Y-81327944D01*
X162656696Y-81397116D01*
X162645020Y-81410082D01*
X162634847Y-81426274D01*
X162590618Y-81470502D01*
X162543146Y-81523226D01*
X162523943Y-81537177D01*
X162506274Y-81554847D01*
X162457067Y-81585765D01*
X162405860Y-81622970D01*
X162378399Y-81635196D01*
X162352314Y-81651587D01*
X162302206Y-81669120D01*
X162250836Y-81691992D01*
X162215185Y-81699569D01*
X162180687Y-81711641D01*
X162133240Y-81716987D01*
X162084848Y-81727273D01*
X162041952Y-81727273D01*
X162000000Y-81732000D01*
X161958048Y-81727273D01*
X161915152Y-81727273D01*
X161866758Y-81716986D01*
X161819313Y-81711641D01*
X161784815Y-81699569D01*
X161749163Y-81691992D01*
X161697789Y-81669118D01*
X161647686Y-81651587D01*
X161621603Y-81635198D01*
X161594139Y-81622970D01*
X161542925Y-81585761D01*
X161493726Y-81554847D01*
X161476058Y-81537179D01*
X161456853Y-81523226D01*
X161409371Y-81470492D01*
X161365153Y-81426274D01*
X161354981Y-81410086D01*
X161343303Y-81397116D01*
X161303355Y-81327924D01*
X161268413Y-81272314D01*
X161264049Y-81259844D01*
X161258458Y-81250159D01*
X161229811Y-81161995D01*
X161208359Y-81100687D01*
X161207545Y-81093470D01*
X161206017Y-81088765D01*
X161192163Y-80956955D01*
X161188000Y-80920000D01*
X161192163Y-80883047D01*
X161206017Y-80751234D01*
X161207546Y-80746528D01*
X161208359Y-80739313D01*
X161229806Y-80678017D01*
X161258458Y-80589840D01*
X161264050Y-80580153D01*
X161268413Y-80567686D01*
X161303348Y-80512086D01*
X161343303Y-80442883D01*
X161354983Y-80429910D01*
X161365153Y-80413726D01*
X161409362Y-80369516D01*
X161456853Y-80316773D01*
X161476062Y-80302816D01*
X161493726Y-80285153D01*
X161542919Y-80254242D01*
X161594140Y-80217029D01*
X161621606Y-80204799D01*
X161647686Y-80188413D01*
X161697780Y-80170884D01*
X161749163Y-80148007D01*
X161784820Y-80140428D01*
X161819313Y-80128359D01*
X161866755Y-80123013D01*
X161915152Y-80112727D01*
X161958048Y-80112727D01*
X162000000Y-80108000D01*
X162041952Y-80112727D01*
G37*
G36*
X134101952Y-77572727D02*
G01*
X134144848Y-77572727D01*
X134193243Y-77583013D01*
X134240687Y-77588359D01*
X134275180Y-77600428D01*
X134310836Y-77608007D01*
X134362216Y-77630883D01*
X134412314Y-77648413D01*
X134438393Y-77664800D01*
X134465860Y-77677029D01*
X134517077Y-77714240D01*
X134566274Y-77745153D01*
X134583940Y-77762819D01*
X134603146Y-77776773D01*
X134650627Y-77829506D01*
X134694847Y-77873726D01*
X134705018Y-77889913D01*
X134716696Y-77902883D01*
X134756639Y-77972067D01*
X134791587Y-78027686D01*
X134795950Y-78040157D01*
X134801541Y-78049840D01*
X134830179Y-78137977D01*
X134851641Y-78199313D01*
X134852454Y-78206532D01*
X134853982Y-78211234D01*
X134867821Y-78342915D01*
X134872000Y-78380000D01*
X134867821Y-78417087D01*
X134853982Y-78548765D01*
X134852454Y-78553465D01*
X134851641Y-78560687D01*
X134830174Y-78622035D01*
X134801541Y-78710159D01*
X134795951Y-78719839D01*
X134791587Y-78732314D01*
X134756632Y-78787944D01*
X134716696Y-78857116D01*
X134705020Y-78870082D01*
X134694847Y-78886274D01*
X134650618Y-78930502D01*
X134603146Y-78983226D01*
X134583943Y-78997177D01*
X134566274Y-79014847D01*
X134517067Y-79045765D01*
X134465860Y-79082970D01*
X134438399Y-79095196D01*
X134412314Y-79111587D01*
X134362206Y-79129120D01*
X134310836Y-79151992D01*
X134275185Y-79159569D01*
X134240687Y-79171641D01*
X134193240Y-79176987D01*
X134144848Y-79187273D01*
X134101952Y-79187273D01*
X134060000Y-79192000D01*
X134018048Y-79187273D01*
X133975152Y-79187273D01*
X133926758Y-79176986D01*
X133879313Y-79171641D01*
X133844815Y-79159569D01*
X133809163Y-79151992D01*
X133757789Y-79129118D01*
X133707686Y-79111587D01*
X133681603Y-79095198D01*
X133654139Y-79082970D01*
X133602925Y-79045761D01*
X133553726Y-79014847D01*
X133536058Y-78997179D01*
X133516853Y-78983226D01*
X133469371Y-78930492D01*
X133425153Y-78886274D01*
X133414981Y-78870086D01*
X133403303Y-78857116D01*
X133363355Y-78787924D01*
X133328413Y-78732314D01*
X133324049Y-78719844D01*
X133318458Y-78710159D01*
X133289811Y-78621995D01*
X133268359Y-78560687D01*
X133267545Y-78553470D01*
X133266017Y-78548765D01*
X133252163Y-78416955D01*
X133248000Y-78380000D01*
X133252163Y-78343047D01*
X133266017Y-78211234D01*
X133267546Y-78206528D01*
X133268359Y-78199313D01*
X133289806Y-78138017D01*
X133318458Y-78049840D01*
X133324050Y-78040153D01*
X133328413Y-78027686D01*
X133363348Y-77972086D01*
X133403303Y-77902883D01*
X133414983Y-77889910D01*
X133425153Y-77873726D01*
X133469362Y-77829516D01*
X133516853Y-77776773D01*
X133536062Y-77762816D01*
X133553726Y-77745153D01*
X133602919Y-77714242D01*
X133654140Y-77677029D01*
X133681606Y-77664799D01*
X133707686Y-77648413D01*
X133757780Y-77630884D01*
X133809163Y-77608007D01*
X133844820Y-77600428D01*
X133879313Y-77588359D01*
X133926755Y-77583013D01*
X133975152Y-77572727D01*
X134018048Y-77572727D01*
X134060000Y-77568000D01*
X134101952Y-77572727D01*
G37*
G36*
X162041952Y-77572727D02*
G01*
X162084848Y-77572727D01*
X162133243Y-77583013D01*
X162180687Y-77588359D01*
X162215180Y-77600428D01*
X162250836Y-77608007D01*
X162302216Y-77630883D01*
X162352314Y-77648413D01*
X162378393Y-77664800D01*
X162405860Y-77677029D01*
X162457077Y-77714240D01*
X162506274Y-77745153D01*
X162523940Y-77762819D01*
X162543146Y-77776773D01*
X162590627Y-77829506D01*
X162634847Y-77873726D01*
X162645018Y-77889913D01*
X162656696Y-77902883D01*
X162696639Y-77972067D01*
X162731587Y-78027686D01*
X162735950Y-78040157D01*
X162741541Y-78049840D01*
X162770179Y-78137977D01*
X162791641Y-78199313D01*
X162792454Y-78206532D01*
X162793982Y-78211234D01*
X162807821Y-78342915D01*
X162812000Y-78380000D01*
X162807821Y-78417087D01*
X162793982Y-78548765D01*
X162792454Y-78553465D01*
X162791641Y-78560687D01*
X162770174Y-78622035D01*
X162741541Y-78710159D01*
X162735951Y-78719839D01*
X162731587Y-78732314D01*
X162696632Y-78787944D01*
X162656696Y-78857116D01*
X162645020Y-78870082D01*
X162634847Y-78886274D01*
X162590618Y-78930502D01*
X162543146Y-78983226D01*
X162523943Y-78997177D01*
X162506274Y-79014847D01*
X162457067Y-79045765D01*
X162405860Y-79082970D01*
X162378399Y-79095196D01*
X162352314Y-79111587D01*
X162302206Y-79129120D01*
X162250836Y-79151992D01*
X162215185Y-79159569D01*
X162180687Y-79171641D01*
X162133240Y-79176987D01*
X162084848Y-79187273D01*
X162041952Y-79187273D01*
X162000000Y-79192000D01*
X161958048Y-79187273D01*
X161915152Y-79187273D01*
X161866758Y-79176986D01*
X161819313Y-79171641D01*
X161784815Y-79159569D01*
X161749163Y-79151992D01*
X161697789Y-79129118D01*
X161647686Y-79111587D01*
X161621603Y-79095198D01*
X161594139Y-79082970D01*
X161542925Y-79045761D01*
X161493726Y-79014847D01*
X161476058Y-78997179D01*
X161456853Y-78983226D01*
X161409371Y-78930492D01*
X161365153Y-78886274D01*
X161354981Y-78870086D01*
X161343303Y-78857116D01*
X161303355Y-78787924D01*
X161268413Y-78732314D01*
X161264049Y-78719844D01*
X161258458Y-78710159D01*
X161229811Y-78621995D01*
X161208359Y-78560687D01*
X161207545Y-78553470D01*
X161206017Y-78548765D01*
X161192163Y-78416955D01*
X161188000Y-78380000D01*
X161192163Y-78343047D01*
X161206017Y-78211234D01*
X161207546Y-78206528D01*
X161208359Y-78199313D01*
X161229806Y-78138017D01*
X161258458Y-78049840D01*
X161264050Y-78040153D01*
X161268413Y-78027686D01*
X161303348Y-77972086D01*
X161343303Y-77902883D01*
X161354983Y-77889910D01*
X161365153Y-77873726D01*
X161409362Y-77829516D01*
X161456853Y-77776773D01*
X161476062Y-77762816D01*
X161493726Y-77745153D01*
X161542919Y-77714242D01*
X161594140Y-77677029D01*
X161621606Y-77664799D01*
X161647686Y-77648413D01*
X161697780Y-77630884D01*
X161749163Y-77608007D01*
X161784820Y-77600428D01*
X161819313Y-77588359D01*
X161866755Y-77583013D01*
X161915152Y-77572727D01*
X161958048Y-77572727D01*
X162000000Y-77568000D01*
X162041952Y-77572727D01*
G37*
G36*
X134101952Y-75032727D02*
G01*
X134144848Y-75032727D01*
X134193243Y-75043013D01*
X134240687Y-75048359D01*
X134275180Y-75060428D01*
X134310836Y-75068007D01*
X134362216Y-75090883D01*
X134412314Y-75108413D01*
X134438393Y-75124800D01*
X134465860Y-75137029D01*
X134517077Y-75174240D01*
X134566274Y-75205153D01*
X134583940Y-75222819D01*
X134603146Y-75236773D01*
X134650627Y-75289506D01*
X134694847Y-75333726D01*
X134705018Y-75349913D01*
X134716696Y-75362883D01*
X134756639Y-75432067D01*
X134791587Y-75487686D01*
X134795950Y-75500157D01*
X134801541Y-75509840D01*
X134830179Y-75597977D01*
X134851641Y-75659313D01*
X134852454Y-75666532D01*
X134853982Y-75671234D01*
X134867821Y-75802915D01*
X134872000Y-75840000D01*
X134867821Y-75877087D01*
X134853982Y-76008765D01*
X134852454Y-76013465D01*
X134851641Y-76020687D01*
X134830174Y-76082035D01*
X134801541Y-76170159D01*
X134795951Y-76179839D01*
X134791587Y-76192314D01*
X134756632Y-76247944D01*
X134716696Y-76317116D01*
X134705020Y-76330082D01*
X134694847Y-76346274D01*
X134650618Y-76390502D01*
X134603146Y-76443226D01*
X134583943Y-76457177D01*
X134566274Y-76474847D01*
X134517067Y-76505765D01*
X134465860Y-76542970D01*
X134438399Y-76555196D01*
X134412314Y-76571587D01*
X134362206Y-76589120D01*
X134310836Y-76611992D01*
X134275185Y-76619569D01*
X134240687Y-76631641D01*
X134193240Y-76636987D01*
X134144848Y-76647273D01*
X134101952Y-76647273D01*
X134060000Y-76652000D01*
X134018048Y-76647273D01*
X133975152Y-76647273D01*
X133926758Y-76636986D01*
X133879313Y-76631641D01*
X133844815Y-76619569D01*
X133809163Y-76611992D01*
X133757789Y-76589118D01*
X133707686Y-76571587D01*
X133681603Y-76555198D01*
X133654139Y-76542970D01*
X133602925Y-76505761D01*
X133553726Y-76474847D01*
X133536058Y-76457179D01*
X133516853Y-76443226D01*
X133469371Y-76390492D01*
X133425153Y-76346274D01*
X133414981Y-76330086D01*
X133403303Y-76317116D01*
X133363355Y-76247924D01*
X133328413Y-76192314D01*
X133324049Y-76179844D01*
X133318458Y-76170159D01*
X133289811Y-76081995D01*
X133268359Y-76020687D01*
X133267545Y-76013470D01*
X133266017Y-76008765D01*
X133252163Y-75876955D01*
X133248000Y-75840000D01*
X133252163Y-75803047D01*
X133266017Y-75671234D01*
X133267546Y-75666528D01*
X133268359Y-75659313D01*
X133289806Y-75598017D01*
X133318458Y-75509840D01*
X133324050Y-75500153D01*
X133328413Y-75487686D01*
X133363348Y-75432086D01*
X133403303Y-75362883D01*
X133414983Y-75349910D01*
X133425153Y-75333726D01*
X133469362Y-75289516D01*
X133516853Y-75236773D01*
X133536062Y-75222816D01*
X133553726Y-75205153D01*
X133602919Y-75174242D01*
X133654140Y-75137029D01*
X133681606Y-75124799D01*
X133707686Y-75108413D01*
X133757780Y-75090884D01*
X133809163Y-75068007D01*
X133844820Y-75060428D01*
X133879313Y-75048359D01*
X133926755Y-75043013D01*
X133975152Y-75032727D01*
X134018048Y-75032727D01*
X134060000Y-75028000D01*
X134101952Y-75032727D01*
G37*
G36*
X162041952Y-75032727D02*
G01*
X162084848Y-75032727D01*
X162133243Y-75043013D01*
X162180687Y-75048359D01*
X162215180Y-75060428D01*
X162250836Y-75068007D01*
X162302216Y-75090883D01*
X162352314Y-75108413D01*
X162378393Y-75124800D01*
X162405860Y-75137029D01*
X162457077Y-75174240D01*
X162506274Y-75205153D01*
X162523940Y-75222819D01*
X162543146Y-75236773D01*
X162590627Y-75289506D01*
X162634847Y-75333726D01*
X162645018Y-75349913D01*
X162656696Y-75362883D01*
X162696639Y-75432067D01*
X162731587Y-75487686D01*
X162735950Y-75500157D01*
X162741541Y-75509840D01*
X162770179Y-75597977D01*
X162791641Y-75659313D01*
X162792454Y-75666532D01*
X162793982Y-75671234D01*
X162807821Y-75802915D01*
X162812000Y-75840000D01*
X162807821Y-75877087D01*
X162793982Y-76008765D01*
X162792454Y-76013465D01*
X162791641Y-76020687D01*
X162770174Y-76082035D01*
X162741541Y-76170159D01*
X162735951Y-76179839D01*
X162731587Y-76192314D01*
X162696632Y-76247944D01*
X162656696Y-76317116D01*
X162645020Y-76330082D01*
X162634847Y-76346274D01*
X162590618Y-76390502D01*
X162543146Y-76443226D01*
X162523943Y-76457177D01*
X162506274Y-76474847D01*
X162457067Y-76505765D01*
X162405860Y-76542970D01*
X162378399Y-76555196D01*
X162352314Y-76571587D01*
X162302206Y-76589120D01*
X162250836Y-76611992D01*
X162215185Y-76619569D01*
X162180687Y-76631641D01*
X162133240Y-76636987D01*
X162084848Y-76647273D01*
X162041952Y-76647273D01*
X162000000Y-76652000D01*
X161958048Y-76647273D01*
X161915152Y-76647273D01*
X161866758Y-76636986D01*
X161819313Y-76631641D01*
X161784815Y-76619569D01*
X161749163Y-76611992D01*
X161697789Y-76589118D01*
X161647686Y-76571587D01*
X161621603Y-76555198D01*
X161594139Y-76542970D01*
X161542925Y-76505761D01*
X161493726Y-76474847D01*
X161476058Y-76457179D01*
X161456853Y-76443226D01*
X161409371Y-76390492D01*
X161365153Y-76346274D01*
X161354981Y-76330086D01*
X161343303Y-76317116D01*
X161303355Y-76247924D01*
X161268413Y-76192314D01*
X161264049Y-76179844D01*
X161258458Y-76170159D01*
X161229811Y-76081995D01*
X161208359Y-76020687D01*
X161207545Y-76013470D01*
X161206017Y-76008765D01*
X161192163Y-75876955D01*
X161188000Y-75840000D01*
X161192163Y-75803047D01*
X161206017Y-75671234D01*
X161207546Y-75666528D01*
X161208359Y-75659313D01*
X161229806Y-75598017D01*
X161258458Y-75509840D01*
X161264050Y-75500153D01*
X161268413Y-75487686D01*
X161303348Y-75432086D01*
X161343303Y-75362883D01*
X161354983Y-75349910D01*
X161365153Y-75333726D01*
X161409362Y-75289516D01*
X161456853Y-75236773D01*
X161476062Y-75222816D01*
X161493726Y-75205153D01*
X161542919Y-75174242D01*
X161594140Y-75137029D01*
X161621606Y-75124799D01*
X161647686Y-75108413D01*
X161697780Y-75090884D01*
X161749163Y-75068007D01*
X161784820Y-75060428D01*
X161819313Y-75048359D01*
X161866755Y-75043013D01*
X161915152Y-75032727D01*
X161958048Y-75032727D01*
X162000000Y-75028000D01*
X162041952Y-75032727D01*
G37*
G36*
X134101952Y-72492727D02*
G01*
X134144848Y-72492727D01*
X134193243Y-72503013D01*
X134240687Y-72508359D01*
X134275180Y-72520428D01*
X134310836Y-72528007D01*
X134362216Y-72550883D01*
X134412314Y-72568413D01*
X134438393Y-72584800D01*
X134465860Y-72597029D01*
X134517077Y-72634240D01*
X134566274Y-72665153D01*
X134583940Y-72682819D01*
X134603146Y-72696773D01*
X134650627Y-72749506D01*
X134694847Y-72793726D01*
X134705018Y-72809913D01*
X134716696Y-72822883D01*
X134756639Y-72892067D01*
X134791587Y-72947686D01*
X134795950Y-72960157D01*
X134801541Y-72969840D01*
X134830179Y-73057977D01*
X134851641Y-73119313D01*
X134852454Y-73126532D01*
X134853982Y-73131234D01*
X134867821Y-73262915D01*
X134872000Y-73300000D01*
X134867821Y-73337087D01*
X134853982Y-73468765D01*
X134852454Y-73473465D01*
X134851641Y-73480687D01*
X134830174Y-73542035D01*
X134801541Y-73630159D01*
X134795951Y-73639839D01*
X134791587Y-73652314D01*
X134756632Y-73707944D01*
X134716696Y-73777116D01*
X134705020Y-73790082D01*
X134694847Y-73806274D01*
X134650618Y-73850502D01*
X134603146Y-73903226D01*
X134583943Y-73917177D01*
X134566274Y-73934847D01*
X134517067Y-73965765D01*
X134465860Y-74002970D01*
X134438399Y-74015196D01*
X134412314Y-74031587D01*
X134362206Y-74049120D01*
X134310836Y-74071992D01*
X134275185Y-74079569D01*
X134240687Y-74091641D01*
X134193240Y-74096987D01*
X134144848Y-74107273D01*
X134101952Y-74107273D01*
X134060000Y-74112000D01*
X134018048Y-74107273D01*
X133975152Y-74107273D01*
X133926758Y-74096986D01*
X133879313Y-74091641D01*
X133844815Y-74079569D01*
X133809163Y-74071992D01*
X133757789Y-74049118D01*
X133707686Y-74031587D01*
X133681603Y-74015198D01*
X133654139Y-74002970D01*
X133602925Y-73965761D01*
X133553726Y-73934847D01*
X133536058Y-73917179D01*
X133516853Y-73903226D01*
X133469371Y-73850492D01*
X133425153Y-73806274D01*
X133414981Y-73790086D01*
X133403303Y-73777116D01*
X133363355Y-73707924D01*
X133328413Y-73652314D01*
X133324049Y-73639844D01*
X133318458Y-73630159D01*
X133289811Y-73541995D01*
X133268359Y-73480687D01*
X133267545Y-73473470D01*
X133266017Y-73468765D01*
X133252163Y-73336955D01*
X133248000Y-73300000D01*
X133252163Y-73263047D01*
X133266017Y-73131234D01*
X133267546Y-73126528D01*
X133268359Y-73119313D01*
X133289806Y-73058017D01*
X133318458Y-72969840D01*
X133324050Y-72960153D01*
X133328413Y-72947686D01*
X133363348Y-72892086D01*
X133403303Y-72822883D01*
X133414983Y-72809910D01*
X133425153Y-72793726D01*
X133469362Y-72749516D01*
X133516853Y-72696773D01*
X133536062Y-72682816D01*
X133553726Y-72665153D01*
X133602919Y-72634242D01*
X133654140Y-72597029D01*
X133681606Y-72584799D01*
X133707686Y-72568413D01*
X133757780Y-72550884D01*
X133809163Y-72528007D01*
X133844820Y-72520428D01*
X133879313Y-72508359D01*
X133926755Y-72503013D01*
X133975152Y-72492727D01*
X134018048Y-72492727D01*
X134060000Y-72488000D01*
X134101952Y-72492727D01*
G37*
G36*
X162041952Y-72492727D02*
G01*
X162084848Y-72492727D01*
X162133243Y-72503013D01*
X162180687Y-72508359D01*
X162215180Y-72520428D01*
X162250836Y-72528007D01*
X162302216Y-72550883D01*
X162352314Y-72568413D01*
X162378393Y-72584800D01*
X162405860Y-72597029D01*
X162457077Y-72634240D01*
X162506274Y-72665153D01*
X162523940Y-72682819D01*
X162543146Y-72696773D01*
X162590627Y-72749506D01*
X162634847Y-72793726D01*
X162645018Y-72809913D01*
X162656696Y-72822883D01*
X162696639Y-72892067D01*
X162731587Y-72947686D01*
X162735950Y-72960157D01*
X162741541Y-72969840D01*
X162770179Y-73057977D01*
X162791641Y-73119313D01*
X162792454Y-73126532D01*
X162793982Y-73131234D01*
X162807821Y-73262915D01*
X162812000Y-73300000D01*
X162807821Y-73337087D01*
X162793982Y-73468765D01*
X162792454Y-73473465D01*
X162791641Y-73480687D01*
X162770174Y-73542035D01*
X162741541Y-73630159D01*
X162735951Y-73639839D01*
X162731587Y-73652314D01*
X162696632Y-73707944D01*
X162656696Y-73777116D01*
X162645020Y-73790082D01*
X162634847Y-73806274D01*
X162590618Y-73850502D01*
X162543146Y-73903226D01*
X162523943Y-73917177D01*
X162506274Y-73934847D01*
X162457067Y-73965765D01*
X162405860Y-74002970D01*
X162378399Y-74015196D01*
X162352314Y-74031587D01*
X162302206Y-74049120D01*
X162250836Y-74071992D01*
X162215185Y-74079569D01*
X162180687Y-74091641D01*
X162133240Y-74096987D01*
X162084848Y-74107273D01*
X162041952Y-74107273D01*
X162000000Y-74112000D01*
X161958048Y-74107273D01*
X161915152Y-74107273D01*
X161866758Y-74096986D01*
X161819313Y-74091641D01*
X161784815Y-74079569D01*
X161749163Y-74071992D01*
X161697789Y-74049118D01*
X161647686Y-74031587D01*
X161621603Y-74015198D01*
X161594139Y-74002970D01*
X161542925Y-73965761D01*
X161493726Y-73934847D01*
X161476058Y-73917179D01*
X161456853Y-73903226D01*
X161409371Y-73850492D01*
X161365153Y-73806274D01*
X161354981Y-73790086D01*
X161343303Y-73777116D01*
X161303355Y-73707924D01*
X161268413Y-73652314D01*
X161264049Y-73639844D01*
X161258458Y-73630159D01*
X161229811Y-73541995D01*
X161208359Y-73480687D01*
X161207545Y-73473470D01*
X161206017Y-73468765D01*
X161192163Y-73336955D01*
X161188000Y-73300000D01*
X161192163Y-73263047D01*
X161206017Y-73131234D01*
X161207546Y-73126528D01*
X161208359Y-73119313D01*
X161229806Y-73058017D01*
X161258458Y-72969840D01*
X161264050Y-72960153D01*
X161268413Y-72947686D01*
X161303348Y-72892086D01*
X161343303Y-72822883D01*
X161354983Y-72809910D01*
X161365153Y-72793726D01*
X161409362Y-72749516D01*
X161456853Y-72696773D01*
X161476062Y-72682816D01*
X161493726Y-72665153D01*
X161542919Y-72634242D01*
X161594140Y-72597029D01*
X161621606Y-72584799D01*
X161647686Y-72568413D01*
X161697780Y-72550884D01*
X161749163Y-72528007D01*
X161784820Y-72520428D01*
X161819313Y-72508359D01*
X161866755Y-72503013D01*
X161915152Y-72492727D01*
X161958048Y-72492727D01*
X162000000Y-72488000D01*
X162041952Y-72492727D01*
G37*
G36*
X120695090Y-72019215D02*
G01*
X120882683Y-72076120D01*
X121055570Y-72168530D01*
X121207107Y-72292893D01*
X121331470Y-72444430D01*
X121423880Y-72617317D01*
X121480785Y-72804910D01*
X121500000Y-73000000D01*
X121480785Y-73195090D01*
X121423880Y-73382683D01*
X121331470Y-73555570D01*
X121207107Y-73707107D01*
X121055570Y-73831470D01*
X120882683Y-73923880D01*
X120695090Y-73980785D01*
X120500000Y-74000000D01*
X120304910Y-73980785D01*
X120117317Y-73923880D01*
X119944430Y-73831470D01*
X119792893Y-73707107D01*
X119668530Y-73555570D01*
X119576120Y-73382683D01*
X119519215Y-73195090D01*
X119500000Y-73000000D01*
X119519215Y-72804910D01*
X119576120Y-72617317D01*
X119668530Y-72444430D01*
X119792893Y-72292893D01*
X119944430Y-72168530D01*
X120117317Y-72076120D01*
X120304910Y-72019215D01*
X120500000Y-72000000D01*
X120695090Y-72019215D01*
G37*
G36*
X126695090Y-72019215D02*
G01*
X126882683Y-72076120D01*
X127055570Y-72168530D01*
X127207107Y-72292893D01*
X127331470Y-72444430D01*
X127423880Y-72617317D01*
X127480785Y-72804910D01*
X127500000Y-73000000D01*
X127480785Y-73195090D01*
X127423880Y-73382683D01*
X127331470Y-73555570D01*
X127207107Y-73707107D01*
X127055570Y-73831470D01*
X126882683Y-73923880D01*
X126695090Y-73980785D01*
X126500000Y-74000000D01*
X126304910Y-73980785D01*
X126117317Y-73923880D01*
X125944430Y-73831470D01*
X125792893Y-73707107D01*
X125668530Y-73555570D01*
X125576120Y-73382683D01*
X125519215Y-73195090D01*
X125500000Y-73000000D01*
X125519215Y-72804910D01*
X125576120Y-72617317D01*
X125668530Y-72444430D01*
X125792893Y-72292893D01*
X125944430Y-72168530D01*
X126117317Y-72076120D01*
X126304910Y-72019215D01*
X126500000Y-72000000D01*
X126695090Y-72019215D01*
G37*
G36*
X154195090Y-70519215D02*
G01*
X154382683Y-70576120D01*
X154555570Y-70668530D01*
X154707107Y-70792893D01*
X154831470Y-70944430D01*
X154923880Y-71117317D01*
X154980785Y-71304910D01*
X155000000Y-71500000D01*
X154980785Y-71695090D01*
X154923880Y-71882683D01*
X154831470Y-72055570D01*
X154707107Y-72207107D01*
X154555570Y-72331470D01*
X154382683Y-72423880D01*
X154195090Y-72480785D01*
X154000000Y-72500000D01*
X153804910Y-72480785D01*
X153617317Y-72423880D01*
X153444430Y-72331470D01*
X153292893Y-72207107D01*
X153168530Y-72055570D01*
X153076120Y-71882683D01*
X153019215Y-71695090D01*
X153000000Y-71500000D01*
X153019215Y-71304910D01*
X153076120Y-71117317D01*
X153168530Y-70944430D01*
X153292893Y-70792893D01*
X153444430Y-70668530D01*
X153617317Y-70576120D01*
X153804910Y-70519215D01*
X154000000Y-70500000D01*
X154195090Y-70519215D01*
G37*
G36*
X134101952Y-69952727D02*
G01*
X134144848Y-69952727D01*
X134193243Y-69963013D01*
X134240687Y-69968359D01*
X134275180Y-69980428D01*
X134310836Y-69988007D01*
X134362216Y-70010883D01*
X134412314Y-70028413D01*
X134438393Y-70044800D01*
X134465860Y-70057029D01*
X134517077Y-70094240D01*
X134566274Y-70125153D01*
X134583940Y-70142819D01*
X134603146Y-70156773D01*
X134650627Y-70209506D01*
X134694847Y-70253726D01*
X134705018Y-70269913D01*
X134716696Y-70282883D01*
X134756639Y-70352067D01*
X134791587Y-70407686D01*
X134795950Y-70420157D01*
X134801541Y-70429840D01*
X134830179Y-70517977D01*
X134851641Y-70579313D01*
X134852454Y-70586532D01*
X134853982Y-70591234D01*
X134867821Y-70722915D01*
X134872000Y-70760000D01*
X134867821Y-70797087D01*
X134853982Y-70928765D01*
X134852454Y-70933465D01*
X134851641Y-70940687D01*
X134830174Y-71002035D01*
X134801541Y-71090159D01*
X134795951Y-71099839D01*
X134791587Y-71112314D01*
X134756632Y-71167944D01*
X134716696Y-71237116D01*
X134705020Y-71250082D01*
X134694847Y-71266274D01*
X134650618Y-71310502D01*
X134603146Y-71363226D01*
X134583943Y-71377177D01*
X134566274Y-71394847D01*
X134517067Y-71425765D01*
X134465860Y-71462970D01*
X134438399Y-71475196D01*
X134412314Y-71491587D01*
X134362206Y-71509120D01*
X134310836Y-71531992D01*
X134275185Y-71539569D01*
X134240687Y-71551641D01*
X134193240Y-71556987D01*
X134144848Y-71567273D01*
X134101952Y-71567273D01*
X134060000Y-71572000D01*
X134018048Y-71567273D01*
X133975152Y-71567273D01*
X133926758Y-71556986D01*
X133879313Y-71551641D01*
X133844815Y-71539569D01*
X133809163Y-71531992D01*
X133757789Y-71509118D01*
X133707686Y-71491587D01*
X133681603Y-71475198D01*
X133654139Y-71462970D01*
X133602925Y-71425761D01*
X133553726Y-71394847D01*
X133536058Y-71377179D01*
X133516853Y-71363226D01*
X133469371Y-71310492D01*
X133425153Y-71266274D01*
X133414981Y-71250086D01*
X133403303Y-71237116D01*
X133363355Y-71167924D01*
X133328413Y-71112314D01*
X133324049Y-71099844D01*
X133318458Y-71090159D01*
X133289811Y-71001995D01*
X133268359Y-70940687D01*
X133267545Y-70933470D01*
X133266017Y-70928765D01*
X133252163Y-70796955D01*
X133248000Y-70760000D01*
X133252163Y-70723047D01*
X133266017Y-70591234D01*
X133267546Y-70586528D01*
X133268359Y-70579313D01*
X133289806Y-70518017D01*
X133318458Y-70429840D01*
X133324050Y-70420153D01*
X133328413Y-70407686D01*
X133363348Y-70352086D01*
X133403303Y-70282883D01*
X133414983Y-70269910D01*
X133425153Y-70253726D01*
X133469362Y-70209516D01*
X133516853Y-70156773D01*
X133536062Y-70142816D01*
X133553726Y-70125153D01*
X133602919Y-70094242D01*
X133654140Y-70057029D01*
X133681606Y-70044799D01*
X133707686Y-70028413D01*
X133757780Y-70010884D01*
X133809163Y-69988007D01*
X133844820Y-69980428D01*
X133879313Y-69968359D01*
X133926755Y-69963013D01*
X133975152Y-69952727D01*
X134018048Y-69952727D01*
X134060000Y-69948000D01*
X134101952Y-69952727D01*
G37*
G36*
X162041952Y-69952727D02*
G01*
X162084848Y-69952727D01*
X162133243Y-69963013D01*
X162180687Y-69968359D01*
X162215180Y-69980428D01*
X162250836Y-69988007D01*
X162302216Y-70010883D01*
X162352314Y-70028413D01*
X162378393Y-70044800D01*
X162405860Y-70057029D01*
X162457077Y-70094240D01*
X162506274Y-70125153D01*
X162523940Y-70142819D01*
X162543146Y-70156773D01*
X162590627Y-70209506D01*
X162634847Y-70253726D01*
X162645018Y-70269913D01*
X162656696Y-70282883D01*
X162696639Y-70352067D01*
X162731587Y-70407686D01*
X162735950Y-70420157D01*
X162741541Y-70429840D01*
X162770179Y-70517977D01*
X162791641Y-70579313D01*
X162792454Y-70586532D01*
X162793982Y-70591234D01*
X162807821Y-70722915D01*
X162812000Y-70760000D01*
X162807821Y-70797087D01*
X162793982Y-70928765D01*
X162792454Y-70933465D01*
X162791641Y-70940687D01*
X162770174Y-71002035D01*
X162741541Y-71090159D01*
X162735951Y-71099839D01*
X162731587Y-71112314D01*
X162696632Y-71167944D01*
X162656696Y-71237116D01*
X162645020Y-71250082D01*
X162634847Y-71266274D01*
X162590618Y-71310502D01*
X162543146Y-71363226D01*
X162523943Y-71377177D01*
X162506274Y-71394847D01*
X162457067Y-71425765D01*
X162405860Y-71462970D01*
X162378399Y-71475196D01*
X162352314Y-71491587D01*
X162302206Y-71509120D01*
X162250836Y-71531992D01*
X162215185Y-71539569D01*
X162180687Y-71551641D01*
X162133240Y-71556987D01*
X162084848Y-71567273D01*
X162041952Y-71567273D01*
X162000000Y-71572000D01*
X161958048Y-71567273D01*
X161915152Y-71567273D01*
X161866758Y-71556986D01*
X161819313Y-71551641D01*
X161784815Y-71539569D01*
X161749163Y-71531992D01*
X161697789Y-71509118D01*
X161647686Y-71491587D01*
X161621603Y-71475198D01*
X161594139Y-71462970D01*
X161542925Y-71425761D01*
X161493726Y-71394847D01*
X161476058Y-71377179D01*
X161456853Y-71363226D01*
X161409371Y-71310492D01*
X161365153Y-71266274D01*
X161354981Y-71250086D01*
X161343303Y-71237116D01*
X161303355Y-71167924D01*
X161268413Y-71112314D01*
X161264049Y-71099844D01*
X161258458Y-71090159D01*
X161229811Y-71001995D01*
X161208359Y-70940687D01*
X161207545Y-70933470D01*
X161206017Y-70928765D01*
X161192163Y-70796955D01*
X161188000Y-70760000D01*
X161192163Y-70723047D01*
X161206017Y-70591234D01*
X161207546Y-70586528D01*
X161208359Y-70579313D01*
X161229806Y-70518017D01*
X161258458Y-70429840D01*
X161264050Y-70420153D01*
X161268413Y-70407686D01*
X161303348Y-70352086D01*
X161343303Y-70282883D01*
X161354983Y-70269910D01*
X161365153Y-70253726D01*
X161409362Y-70209516D01*
X161456853Y-70156773D01*
X161476062Y-70142816D01*
X161493726Y-70125153D01*
X161542919Y-70094242D01*
X161594140Y-70057029D01*
X161621606Y-70044799D01*
X161647686Y-70028413D01*
X161697780Y-70010884D01*
X161749163Y-69988007D01*
X161784820Y-69980428D01*
X161819313Y-69968359D01*
X161866755Y-69963013D01*
X161915152Y-69952727D01*
X161958048Y-69952727D01*
X162000000Y-69948000D01*
X162041952Y-69952727D01*
G37*
G36*
X134101952Y-67412727D02*
G01*
X134144848Y-67412727D01*
X134193243Y-67423013D01*
X134240687Y-67428359D01*
X134275180Y-67440428D01*
X134310836Y-67448007D01*
X134362216Y-67470883D01*
X134412314Y-67488413D01*
X134438393Y-67504800D01*
X134465860Y-67517029D01*
X134517077Y-67554240D01*
X134566274Y-67585153D01*
X134583940Y-67602819D01*
X134603146Y-67616773D01*
X134650627Y-67669506D01*
X134694847Y-67713726D01*
X134705018Y-67729913D01*
X134716696Y-67742883D01*
X134756639Y-67812067D01*
X134791587Y-67867686D01*
X134795950Y-67880157D01*
X134801541Y-67889840D01*
X134830179Y-67977977D01*
X134851641Y-68039313D01*
X134852454Y-68046532D01*
X134853982Y-68051234D01*
X134867821Y-68182915D01*
X134872000Y-68220000D01*
X134867821Y-68257087D01*
X134853982Y-68388765D01*
X134852454Y-68393465D01*
X134851641Y-68400687D01*
X134830174Y-68462035D01*
X134801541Y-68550159D01*
X134795951Y-68559839D01*
X134791587Y-68572314D01*
X134756632Y-68627944D01*
X134716696Y-68697116D01*
X134705020Y-68710082D01*
X134694847Y-68726274D01*
X134650618Y-68770502D01*
X134603146Y-68823226D01*
X134583943Y-68837177D01*
X134566274Y-68854847D01*
X134517067Y-68885765D01*
X134465860Y-68922970D01*
X134438399Y-68935196D01*
X134412314Y-68951587D01*
X134362206Y-68969120D01*
X134310836Y-68991992D01*
X134275185Y-68999569D01*
X134240687Y-69011641D01*
X134193240Y-69016987D01*
X134144848Y-69027273D01*
X134101952Y-69027273D01*
X134060000Y-69032000D01*
X134018048Y-69027273D01*
X133975152Y-69027273D01*
X133926758Y-69016986D01*
X133879313Y-69011641D01*
X133844815Y-68999569D01*
X133809163Y-68991992D01*
X133757789Y-68969118D01*
X133707686Y-68951587D01*
X133681603Y-68935198D01*
X133654139Y-68922970D01*
X133602925Y-68885761D01*
X133553726Y-68854847D01*
X133536058Y-68837179D01*
X133516853Y-68823226D01*
X133469371Y-68770492D01*
X133425153Y-68726274D01*
X133414981Y-68710086D01*
X133403303Y-68697116D01*
X133363355Y-68627924D01*
X133328413Y-68572314D01*
X133324049Y-68559844D01*
X133318458Y-68550159D01*
X133289811Y-68461995D01*
X133268359Y-68400687D01*
X133267545Y-68393470D01*
X133266017Y-68388765D01*
X133252163Y-68256955D01*
X133248000Y-68220000D01*
X133252163Y-68183047D01*
X133266017Y-68051234D01*
X133267546Y-68046528D01*
X133268359Y-68039313D01*
X133289806Y-67978017D01*
X133318458Y-67889840D01*
X133324050Y-67880153D01*
X133328413Y-67867686D01*
X133363348Y-67812086D01*
X133403303Y-67742883D01*
X133414983Y-67729910D01*
X133425153Y-67713726D01*
X133469362Y-67669516D01*
X133516853Y-67616773D01*
X133536062Y-67602816D01*
X133553726Y-67585153D01*
X133602919Y-67554242D01*
X133654140Y-67517029D01*
X133681606Y-67504799D01*
X133707686Y-67488413D01*
X133757780Y-67470884D01*
X133809163Y-67448007D01*
X133844820Y-67440428D01*
X133879313Y-67428359D01*
X133926755Y-67423013D01*
X133975152Y-67412727D01*
X134018048Y-67412727D01*
X134060000Y-67408000D01*
X134101952Y-67412727D01*
G37*
G36*
X162041952Y-67412727D02*
G01*
X162084848Y-67412727D01*
X162133243Y-67423013D01*
X162180687Y-67428359D01*
X162215180Y-67440428D01*
X162250836Y-67448007D01*
X162302216Y-67470883D01*
X162352314Y-67488413D01*
X162378393Y-67504800D01*
X162405860Y-67517029D01*
X162457077Y-67554240D01*
X162506274Y-67585153D01*
X162523940Y-67602819D01*
X162543146Y-67616773D01*
X162590627Y-67669506D01*
X162634847Y-67713726D01*
X162645018Y-67729913D01*
X162656696Y-67742883D01*
X162696639Y-67812067D01*
X162731587Y-67867686D01*
X162735950Y-67880157D01*
X162741541Y-67889840D01*
X162770179Y-67977977D01*
X162791641Y-68039313D01*
X162792454Y-68046532D01*
X162793982Y-68051234D01*
X162807821Y-68182915D01*
X162812000Y-68220000D01*
X162807821Y-68257087D01*
X162793982Y-68388765D01*
X162792454Y-68393465D01*
X162791641Y-68400687D01*
X162770174Y-68462035D01*
X162741541Y-68550159D01*
X162735951Y-68559839D01*
X162731587Y-68572314D01*
X162696632Y-68627944D01*
X162656696Y-68697116D01*
X162645020Y-68710082D01*
X162634847Y-68726274D01*
X162590618Y-68770502D01*
X162543146Y-68823226D01*
X162523943Y-68837177D01*
X162506274Y-68854847D01*
X162457067Y-68885765D01*
X162405860Y-68922970D01*
X162378399Y-68935196D01*
X162352314Y-68951587D01*
X162302206Y-68969120D01*
X162250836Y-68991992D01*
X162215185Y-68999569D01*
X162180687Y-69011641D01*
X162133240Y-69016987D01*
X162084848Y-69027273D01*
X162041952Y-69027273D01*
X162000000Y-69032000D01*
X161958048Y-69027273D01*
X161915152Y-69027273D01*
X161866758Y-69016986D01*
X161819313Y-69011641D01*
X161784815Y-68999569D01*
X161749163Y-68991992D01*
X161697789Y-68969118D01*
X161647686Y-68951587D01*
X161621603Y-68935198D01*
X161594139Y-68922970D01*
X161542925Y-68885761D01*
X161493726Y-68854847D01*
X161476058Y-68837179D01*
X161456853Y-68823226D01*
X161409371Y-68770492D01*
X161365153Y-68726274D01*
X161354981Y-68710086D01*
X161343303Y-68697116D01*
X161303355Y-68627924D01*
X161268413Y-68572314D01*
X161264049Y-68559844D01*
X161258458Y-68550159D01*
X161229811Y-68461995D01*
X161208359Y-68400687D01*
X161207545Y-68393470D01*
X161206017Y-68388765D01*
X161192163Y-68256955D01*
X161188000Y-68220000D01*
X161192163Y-68183047D01*
X161206017Y-68051234D01*
X161207546Y-68046528D01*
X161208359Y-68039313D01*
X161229806Y-67978017D01*
X161258458Y-67889840D01*
X161264050Y-67880153D01*
X161268413Y-67867686D01*
X161303348Y-67812086D01*
X161343303Y-67742883D01*
X161354983Y-67729910D01*
X161365153Y-67713726D01*
X161409362Y-67669516D01*
X161456853Y-67616773D01*
X161476062Y-67602816D01*
X161493726Y-67585153D01*
X161542919Y-67554242D01*
X161594140Y-67517029D01*
X161621606Y-67504799D01*
X161647686Y-67488413D01*
X161697780Y-67470884D01*
X161749163Y-67448007D01*
X161784820Y-67440428D01*
X161819313Y-67428359D01*
X161866755Y-67423013D01*
X161915152Y-67412727D01*
X161958048Y-67412727D01*
X162000000Y-67408000D01*
X162041952Y-67412727D01*
G37*
G36*
X154195090Y-65519215D02*
G01*
X154382683Y-65576120D01*
X154555570Y-65668530D01*
X154707107Y-65792893D01*
X154831470Y-65944430D01*
X154923880Y-66117317D01*
X154980785Y-66304910D01*
X155000000Y-66500000D01*
X154980785Y-66695090D01*
X154923880Y-66882683D01*
X154831470Y-67055570D01*
X154707107Y-67207107D01*
X154555570Y-67331470D01*
X154382683Y-67423880D01*
X154195090Y-67480785D01*
X154000000Y-67500000D01*
X153804910Y-67480785D01*
X153617317Y-67423880D01*
X153444430Y-67331470D01*
X153292893Y-67207107D01*
X153168530Y-67055570D01*
X153076120Y-66882683D01*
X153019215Y-66695090D01*
X153000000Y-66500000D01*
X153019215Y-66304910D01*
X153076120Y-66117317D01*
X153168530Y-65944430D01*
X153292893Y-65792893D01*
X153444430Y-65668530D01*
X153617317Y-65576120D01*
X153804910Y-65519215D01*
X154000000Y-65500000D01*
X154195090Y-65519215D01*
G37*
G36*
X134101952Y-64872727D02*
G01*
X134144848Y-64872727D01*
X134193243Y-64883013D01*
X134240687Y-64888359D01*
X134275180Y-64900428D01*
X134310836Y-64908007D01*
X134362216Y-64930883D01*
X134412314Y-64948413D01*
X134438393Y-64964800D01*
X134465860Y-64977029D01*
X134517077Y-65014240D01*
X134566274Y-65045153D01*
X134583940Y-65062819D01*
X134603146Y-65076773D01*
X134650627Y-65129506D01*
X134694847Y-65173726D01*
X134705018Y-65189913D01*
X134716696Y-65202883D01*
X134756639Y-65272067D01*
X134791587Y-65327686D01*
X134795950Y-65340157D01*
X134801541Y-65349840D01*
X134830179Y-65437977D01*
X134851641Y-65499313D01*
X134852454Y-65506532D01*
X134853982Y-65511234D01*
X134867821Y-65642915D01*
X134872000Y-65680000D01*
X134867821Y-65717087D01*
X134853982Y-65848765D01*
X134852454Y-65853465D01*
X134851641Y-65860687D01*
X134830174Y-65922035D01*
X134801541Y-66010159D01*
X134795951Y-66019839D01*
X134791587Y-66032314D01*
X134756632Y-66087944D01*
X134716696Y-66157116D01*
X134705020Y-66170082D01*
X134694847Y-66186274D01*
X134650618Y-66230502D01*
X134603146Y-66283226D01*
X134583943Y-66297177D01*
X134566274Y-66314847D01*
X134517067Y-66345765D01*
X134465860Y-66382970D01*
X134438399Y-66395196D01*
X134412314Y-66411587D01*
X134362206Y-66429120D01*
X134310836Y-66451992D01*
X134275185Y-66459569D01*
X134240687Y-66471641D01*
X134193240Y-66476987D01*
X134144848Y-66487273D01*
X134101952Y-66487273D01*
X134060000Y-66492000D01*
X134018048Y-66487273D01*
X133975152Y-66487273D01*
X133926758Y-66476986D01*
X133879313Y-66471641D01*
X133844815Y-66459569D01*
X133809163Y-66451992D01*
X133757789Y-66429118D01*
X133707686Y-66411587D01*
X133681603Y-66395198D01*
X133654139Y-66382970D01*
X133602925Y-66345761D01*
X133553726Y-66314847D01*
X133536058Y-66297179D01*
X133516853Y-66283226D01*
X133469371Y-66230492D01*
X133425153Y-66186274D01*
X133414981Y-66170086D01*
X133403303Y-66157116D01*
X133363355Y-66087924D01*
X133328413Y-66032314D01*
X133324049Y-66019844D01*
X133318458Y-66010159D01*
X133289811Y-65921995D01*
X133268359Y-65860687D01*
X133267545Y-65853470D01*
X133266017Y-65848765D01*
X133252163Y-65716955D01*
X133248000Y-65680000D01*
X133252163Y-65643047D01*
X133266017Y-65511234D01*
X133267546Y-65506528D01*
X133268359Y-65499313D01*
X133289806Y-65438017D01*
X133318458Y-65349840D01*
X133324050Y-65340153D01*
X133328413Y-65327686D01*
X133363348Y-65272086D01*
X133403303Y-65202883D01*
X133414983Y-65189910D01*
X133425153Y-65173726D01*
X133469362Y-65129516D01*
X133516853Y-65076773D01*
X133536062Y-65062816D01*
X133553726Y-65045153D01*
X133602919Y-65014242D01*
X133654140Y-64977029D01*
X133681606Y-64964799D01*
X133707686Y-64948413D01*
X133757780Y-64930884D01*
X133809163Y-64908007D01*
X133844820Y-64900428D01*
X133879313Y-64888359D01*
X133926755Y-64883013D01*
X133975152Y-64872727D01*
X134018048Y-64872727D01*
X134060000Y-64868000D01*
X134101952Y-64872727D01*
G37*
G36*
X162041952Y-64872727D02*
G01*
X162084848Y-64872727D01*
X162133243Y-64883013D01*
X162180687Y-64888359D01*
X162215180Y-64900428D01*
X162250836Y-64908007D01*
X162302216Y-64930883D01*
X162352314Y-64948413D01*
X162378393Y-64964800D01*
X162405860Y-64977029D01*
X162457077Y-65014240D01*
X162506274Y-65045153D01*
X162523940Y-65062819D01*
X162543146Y-65076773D01*
X162590627Y-65129506D01*
X162634847Y-65173726D01*
X162645018Y-65189913D01*
X162656696Y-65202883D01*
X162696639Y-65272067D01*
X162731587Y-65327686D01*
X162735950Y-65340157D01*
X162741541Y-65349840D01*
X162770179Y-65437977D01*
X162791641Y-65499313D01*
X162792454Y-65506532D01*
X162793982Y-65511234D01*
X162807821Y-65642915D01*
X162812000Y-65680000D01*
X162807821Y-65717087D01*
X162793982Y-65848765D01*
X162792454Y-65853465D01*
X162791641Y-65860687D01*
X162770174Y-65922035D01*
X162741541Y-66010159D01*
X162735951Y-66019839D01*
X162731587Y-66032314D01*
X162696632Y-66087944D01*
X162656696Y-66157116D01*
X162645020Y-66170082D01*
X162634847Y-66186274D01*
X162590618Y-66230502D01*
X162543146Y-66283226D01*
X162523943Y-66297177D01*
X162506274Y-66314847D01*
X162457067Y-66345765D01*
X162405860Y-66382970D01*
X162378399Y-66395196D01*
X162352314Y-66411587D01*
X162302206Y-66429120D01*
X162250836Y-66451992D01*
X162215185Y-66459569D01*
X162180687Y-66471641D01*
X162133240Y-66476987D01*
X162084848Y-66487273D01*
X162041952Y-66487273D01*
X162000000Y-66492000D01*
X161958048Y-66487273D01*
X161915152Y-66487273D01*
X161866758Y-66476986D01*
X161819313Y-66471641D01*
X161784815Y-66459569D01*
X161749163Y-66451992D01*
X161697789Y-66429118D01*
X161647686Y-66411587D01*
X161621603Y-66395198D01*
X161594139Y-66382970D01*
X161542925Y-66345761D01*
X161493726Y-66314847D01*
X161476058Y-66297179D01*
X161456853Y-66283226D01*
X161409371Y-66230492D01*
X161365153Y-66186274D01*
X161354981Y-66170086D01*
X161343303Y-66157116D01*
X161303355Y-66087924D01*
X161268413Y-66032314D01*
X161264049Y-66019844D01*
X161258458Y-66010159D01*
X161229811Y-65921995D01*
X161208359Y-65860687D01*
X161207545Y-65853470D01*
X161206017Y-65848765D01*
X161192163Y-65716955D01*
X161188000Y-65680000D01*
X161192163Y-65643047D01*
X161206017Y-65511234D01*
X161207546Y-65506528D01*
X161208359Y-65499313D01*
X161229806Y-65438017D01*
X161258458Y-65349840D01*
X161264050Y-65340153D01*
X161268413Y-65327686D01*
X161303348Y-65272086D01*
X161343303Y-65202883D01*
X161354983Y-65189910D01*
X161365153Y-65173726D01*
X161409362Y-65129516D01*
X161456853Y-65076773D01*
X161476062Y-65062816D01*
X161493726Y-65045153D01*
X161542919Y-65014242D01*
X161594140Y-64977029D01*
X161621606Y-64964799D01*
X161647686Y-64948413D01*
X161697780Y-64930884D01*
X161749163Y-64908007D01*
X161784820Y-64900428D01*
X161819313Y-64888359D01*
X161866755Y-64883013D01*
X161915152Y-64872727D01*
X161958048Y-64872727D01*
X162000000Y-64868000D01*
X162041952Y-64872727D01*
G37*
G36*
X142195090Y-64019215D02*
G01*
X142382683Y-64076120D01*
X142555570Y-64168530D01*
X142707107Y-64292893D01*
X142831470Y-64444430D01*
X142923880Y-64617317D01*
X142980785Y-64804910D01*
X143000000Y-65000000D01*
X142980785Y-65195090D01*
X142923880Y-65382683D01*
X142831470Y-65555570D01*
X142707107Y-65707107D01*
X142555570Y-65831470D01*
X142382683Y-65923880D01*
X142195090Y-65980785D01*
X142000000Y-66000000D01*
X141804910Y-65980785D01*
X141617317Y-65923880D01*
X141444430Y-65831470D01*
X141292893Y-65707107D01*
X141168530Y-65555570D01*
X141076120Y-65382683D01*
X141019215Y-65195090D01*
X141000000Y-65000000D01*
X141019215Y-64804910D01*
X141076120Y-64617317D01*
X141168530Y-64444430D01*
X141292893Y-64292893D01*
X141444430Y-64168530D01*
X141617317Y-64076120D01*
X141804910Y-64019215D01*
X142000000Y-64000000D01*
X142195090Y-64019215D01*
G37*
G36*
X134101952Y-62332727D02*
G01*
X134144848Y-62332727D01*
X134193243Y-62343013D01*
X134240687Y-62348359D01*
X134275180Y-62360428D01*
X134310836Y-62368007D01*
X134362216Y-62390883D01*
X134412314Y-62408413D01*
X134438393Y-62424800D01*
X134465860Y-62437029D01*
X134517077Y-62474240D01*
X134566274Y-62505153D01*
X134583940Y-62522819D01*
X134603146Y-62536773D01*
X134650627Y-62589506D01*
X134694847Y-62633726D01*
X134705018Y-62649913D01*
X134716696Y-62662883D01*
X134756639Y-62732067D01*
X134791587Y-62787686D01*
X134795950Y-62800157D01*
X134801541Y-62809840D01*
X134830179Y-62897977D01*
X134851641Y-62959313D01*
X134852454Y-62966532D01*
X134853982Y-62971234D01*
X134867821Y-63102915D01*
X134872000Y-63140000D01*
X134867821Y-63177087D01*
X134853982Y-63308765D01*
X134852454Y-63313465D01*
X134851641Y-63320687D01*
X134830174Y-63382035D01*
X134801541Y-63470159D01*
X134795951Y-63479839D01*
X134791587Y-63492314D01*
X134756632Y-63547944D01*
X134716696Y-63617116D01*
X134705020Y-63630082D01*
X134694847Y-63646274D01*
X134650618Y-63690502D01*
X134603146Y-63743226D01*
X134583943Y-63757177D01*
X134566274Y-63774847D01*
X134517067Y-63805765D01*
X134465860Y-63842970D01*
X134438399Y-63855196D01*
X134412314Y-63871587D01*
X134362206Y-63889120D01*
X134310836Y-63911992D01*
X134275185Y-63919569D01*
X134240687Y-63931641D01*
X134193240Y-63936987D01*
X134144848Y-63947273D01*
X134101952Y-63947273D01*
X134060000Y-63952000D01*
X134018048Y-63947273D01*
X133975152Y-63947273D01*
X133926758Y-63936986D01*
X133879313Y-63931641D01*
X133844815Y-63919569D01*
X133809163Y-63911992D01*
X133757789Y-63889118D01*
X133707686Y-63871587D01*
X133681603Y-63855198D01*
X133654139Y-63842970D01*
X133602925Y-63805761D01*
X133553726Y-63774847D01*
X133536058Y-63757179D01*
X133516853Y-63743226D01*
X133469371Y-63690492D01*
X133425153Y-63646274D01*
X133414981Y-63630086D01*
X133403303Y-63617116D01*
X133363355Y-63547924D01*
X133328413Y-63492314D01*
X133324049Y-63479844D01*
X133318458Y-63470159D01*
X133289811Y-63381995D01*
X133268359Y-63320687D01*
X133267545Y-63313470D01*
X133266017Y-63308765D01*
X133252163Y-63176955D01*
X133248000Y-63140000D01*
X133252163Y-63103047D01*
X133266017Y-62971234D01*
X133267546Y-62966528D01*
X133268359Y-62959313D01*
X133289806Y-62898017D01*
X133318458Y-62809840D01*
X133324050Y-62800153D01*
X133328413Y-62787686D01*
X133363348Y-62732086D01*
X133403303Y-62662883D01*
X133414983Y-62649910D01*
X133425153Y-62633726D01*
X133469362Y-62589516D01*
X133516853Y-62536773D01*
X133536062Y-62522816D01*
X133553726Y-62505153D01*
X133602919Y-62474242D01*
X133654140Y-62437029D01*
X133681606Y-62424799D01*
X133707686Y-62408413D01*
X133757780Y-62390884D01*
X133809163Y-62368007D01*
X133844820Y-62360428D01*
X133879313Y-62348359D01*
X133926755Y-62343013D01*
X133975152Y-62332727D01*
X134018048Y-62332727D01*
X134060000Y-62328000D01*
X134101952Y-62332727D01*
G37*
G36*
X162041952Y-62332727D02*
G01*
X162084848Y-62332727D01*
X162133243Y-62343013D01*
X162180687Y-62348359D01*
X162215180Y-62360428D01*
X162250836Y-62368007D01*
X162302216Y-62390883D01*
X162352314Y-62408413D01*
X162378393Y-62424800D01*
X162405860Y-62437029D01*
X162457077Y-62474240D01*
X162506274Y-62505153D01*
X162523940Y-62522819D01*
X162543146Y-62536773D01*
X162590627Y-62589506D01*
X162634847Y-62633726D01*
X162645018Y-62649913D01*
X162656696Y-62662883D01*
X162696639Y-62732067D01*
X162731587Y-62787686D01*
X162735950Y-62800157D01*
X162741541Y-62809840D01*
X162770179Y-62897977D01*
X162791641Y-62959313D01*
X162792454Y-62966532D01*
X162793982Y-62971234D01*
X162807821Y-63102915D01*
X162812000Y-63140000D01*
X162807821Y-63177087D01*
X162793982Y-63308765D01*
X162792454Y-63313465D01*
X162791641Y-63320687D01*
X162770174Y-63382035D01*
X162741541Y-63470159D01*
X162735951Y-63479839D01*
X162731587Y-63492314D01*
X162696632Y-63547944D01*
X162656696Y-63617116D01*
X162645020Y-63630082D01*
X162634847Y-63646274D01*
X162590618Y-63690502D01*
X162543146Y-63743226D01*
X162523943Y-63757177D01*
X162506274Y-63774847D01*
X162457067Y-63805765D01*
X162405860Y-63842970D01*
X162378399Y-63855196D01*
X162352314Y-63871587D01*
X162302206Y-63889120D01*
X162250836Y-63911992D01*
X162215185Y-63919569D01*
X162180687Y-63931641D01*
X162133240Y-63936987D01*
X162084848Y-63947273D01*
X162041952Y-63947273D01*
X162000000Y-63952000D01*
X161958048Y-63947273D01*
X161915152Y-63947273D01*
X161866758Y-63936986D01*
X161819313Y-63931641D01*
X161784815Y-63919569D01*
X161749163Y-63911992D01*
X161697789Y-63889118D01*
X161647686Y-63871587D01*
X161621603Y-63855198D01*
X161594139Y-63842970D01*
X161542925Y-63805761D01*
X161493726Y-63774847D01*
X161476058Y-63757179D01*
X161456853Y-63743226D01*
X161409371Y-63690492D01*
X161365153Y-63646274D01*
X161354981Y-63630086D01*
X161343303Y-63617116D01*
X161303355Y-63547924D01*
X161268413Y-63492314D01*
X161264049Y-63479844D01*
X161258458Y-63470159D01*
X161229811Y-63381995D01*
X161208359Y-63320687D01*
X161207545Y-63313470D01*
X161206017Y-63308765D01*
X161192163Y-63176955D01*
X161188000Y-63140000D01*
X161192163Y-63103047D01*
X161206017Y-62971234D01*
X161207546Y-62966528D01*
X161208359Y-62959313D01*
X161229806Y-62898017D01*
X161258458Y-62809840D01*
X161264050Y-62800153D01*
X161268413Y-62787686D01*
X161303348Y-62732086D01*
X161343303Y-62662883D01*
X161354983Y-62649910D01*
X161365153Y-62633726D01*
X161409362Y-62589516D01*
X161456853Y-62536773D01*
X161476062Y-62522816D01*
X161493726Y-62505153D01*
X161542919Y-62474242D01*
X161594140Y-62437029D01*
X161621606Y-62424799D01*
X161647686Y-62408413D01*
X161697780Y-62390884D01*
X161749163Y-62368007D01*
X161784820Y-62360428D01*
X161819313Y-62348359D01*
X161866755Y-62343013D01*
X161915152Y-62332727D01*
X161958048Y-62332727D01*
X162000000Y-62328000D01*
X162041952Y-62332727D01*
G37*
G36*
X134101952Y-59792727D02*
G01*
X134144848Y-59792727D01*
X134193243Y-59803013D01*
X134240687Y-59808359D01*
X134275180Y-59820428D01*
X134310836Y-59828007D01*
X134362216Y-59850883D01*
X134412314Y-59868413D01*
X134438393Y-59884800D01*
X134465860Y-59897029D01*
X134517077Y-59934240D01*
X134566274Y-59965153D01*
X134583940Y-59982819D01*
X134603146Y-59996773D01*
X134650627Y-60049506D01*
X134694847Y-60093726D01*
X134705018Y-60109913D01*
X134716696Y-60122883D01*
X134756639Y-60192067D01*
X134791587Y-60247686D01*
X134795950Y-60260157D01*
X134801541Y-60269840D01*
X134830179Y-60357977D01*
X134851641Y-60419313D01*
X134852454Y-60426532D01*
X134853982Y-60431234D01*
X134867821Y-60562915D01*
X134872000Y-60600000D01*
X134867821Y-60637087D01*
X134853982Y-60768765D01*
X134852454Y-60773465D01*
X134851641Y-60780687D01*
X134830174Y-60842035D01*
X134801541Y-60930159D01*
X134795951Y-60939839D01*
X134791587Y-60952314D01*
X134756632Y-61007944D01*
X134716696Y-61077116D01*
X134705020Y-61090082D01*
X134694847Y-61106274D01*
X134650618Y-61150502D01*
X134603146Y-61203226D01*
X134583943Y-61217177D01*
X134566274Y-61234847D01*
X134517067Y-61265765D01*
X134465860Y-61302970D01*
X134438399Y-61315196D01*
X134412314Y-61331587D01*
X134362206Y-61349120D01*
X134310836Y-61371992D01*
X134275185Y-61379569D01*
X134240687Y-61391641D01*
X134193240Y-61396987D01*
X134144848Y-61407273D01*
X134101952Y-61407273D01*
X134060000Y-61412000D01*
X134018048Y-61407273D01*
X133975152Y-61407273D01*
X133926758Y-61396986D01*
X133879313Y-61391641D01*
X133844815Y-61379569D01*
X133809163Y-61371992D01*
X133757789Y-61349118D01*
X133707686Y-61331587D01*
X133681603Y-61315198D01*
X133654139Y-61302970D01*
X133602925Y-61265761D01*
X133553726Y-61234847D01*
X133536058Y-61217179D01*
X133516853Y-61203226D01*
X133469371Y-61150492D01*
X133425153Y-61106274D01*
X133414981Y-61090086D01*
X133403303Y-61077116D01*
X133363355Y-61007924D01*
X133328413Y-60952314D01*
X133324049Y-60939844D01*
X133318458Y-60930159D01*
X133289811Y-60841995D01*
X133268359Y-60780687D01*
X133267545Y-60773470D01*
X133266017Y-60768765D01*
X133252163Y-60636955D01*
X133248000Y-60600000D01*
X133252163Y-60563047D01*
X133266017Y-60431234D01*
X133267546Y-60426528D01*
X133268359Y-60419313D01*
X133289806Y-60358017D01*
X133318458Y-60269840D01*
X133324050Y-60260153D01*
X133328413Y-60247686D01*
X133363348Y-60192086D01*
X133403303Y-60122883D01*
X133414983Y-60109910D01*
X133425153Y-60093726D01*
X133469362Y-60049516D01*
X133516853Y-59996773D01*
X133536062Y-59982816D01*
X133553726Y-59965153D01*
X133602919Y-59934242D01*
X133654140Y-59897029D01*
X133681606Y-59884799D01*
X133707686Y-59868413D01*
X133757780Y-59850884D01*
X133809163Y-59828007D01*
X133844820Y-59820428D01*
X133879313Y-59808359D01*
X133926755Y-59803013D01*
X133975152Y-59792727D01*
X134018048Y-59792727D01*
X134060000Y-59788000D01*
X134101952Y-59792727D01*
G37*
G36*
X162041952Y-59792727D02*
G01*
X162084848Y-59792727D01*
X162133243Y-59803013D01*
X162180687Y-59808359D01*
X162215180Y-59820428D01*
X162250836Y-59828007D01*
X162302216Y-59850883D01*
X162352314Y-59868413D01*
X162378393Y-59884800D01*
X162405860Y-59897029D01*
X162457077Y-59934240D01*
X162506274Y-59965153D01*
X162523940Y-59982819D01*
X162543146Y-59996773D01*
X162590627Y-60049506D01*
X162634847Y-60093726D01*
X162645018Y-60109913D01*
X162656696Y-60122883D01*
X162696639Y-60192067D01*
X162731587Y-60247686D01*
X162735950Y-60260157D01*
X162741541Y-60269840D01*
X162770179Y-60357977D01*
X162791641Y-60419313D01*
X162792454Y-60426532D01*
X162793982Y-60431234D01*
X162807821Y-60562915D01*
X162812000Y-60600000D01*
X162807821Y-60637087D01*
X162793982Y-60768765D01*
X162792454Y-60773465D01*
X162791641Y-60780687D01*
X162770174Y-60842035D01*
X162741541Y-60930159D01*
X162735951Y-60939839D01*
X162731587Y-60952314D01*
X162696632Y-61007944D01*
X162656696Y-61077116D01*
X162645020Y-61090082D01*
X162634847Y-61106274D01*
X162590618Y-61150502D01*
X162543146Y-61203226D01*
X162523943Y-61217177D01*
X162506274Y-61234847D01*
X162457067Y-61265765D01*
X162405860Y-61302970D01*
X162378399Y-61315196D01*
X162352314Y-61331587D01*
X162302206Y-61349120D01*
X162250836Y-61371992D01*
X162215185Y-61379569D01*
X162180687Y-61391641D01*
X162133240Y-61396987D01*
X162084848Y-61407273D01*
X162041952Y-61407273D01*
X162000000Y-61412000D01*
X161958048Y-61407273D01*
X161915152Y-61407273D01*
X161866758Y-61396986D01*
X161819313Y-61391641D01*
X161784815Y-61379569D01*
X161749163Y-61371992D01*
X161697789Y-61349118D01*
X161647686Y-61331587D01*
X161621603Y-61315198D01*
X161594139Y-61302970D01*
X161542925Y-61265761D01*
X161493726Y-61234847D01*
X161476058Y-61217179D01*
X161456853Y-61203226D01*
X161409371Y-61150492D01*
X161365153Y-61106274D01*
X161354981Y-61090086D01*
X161343303Y-61077116D01*
X161303355Y-61007924D01*
X161268413Y-60952314D01*
X161264049Y-60939844D01*
X161258458Y-60930159D01*
X161229811Y-60841995D01*
X161208359Y-60780687D01*
X161207545Y-60773470D01*
X161206017Y-60768765D01*
X161192163Y-60636955D01*
X161188000Y-60600000D01*
X161192163Y-60563047D01*
X161206017Y-60431234D01*
X161207546Y-60426528D01*
X161208359Y-60419313D01*
X161229806Y-60358017D01*
X161258458Y-60269840D01*
X161264050Y-60260153D01*
X161268413Y-60247686D01*
X161303348Y-60192086D01*
X161343303Y-60122883D01*
X161354983Y-60109910D01*
X161365153Y-60093726D01*
X161409362Y-60049516D01*
X161456853Y-59996773D01*
X161476062Y-59982816D01*
X161493726Y-59965153D01*
X161542919Y-59934242D01*
X161594140Y-59897029D01*
X161621606Y-59884799D01*
X161647686Y-59868413D01*
X161697780Y-59850884D01*
X161749163Y-59828007D01*
X161784820Y-59820428D01*
X161819313Y-59808359D01*
X161866755Y-59803013D01*
X161915152Y-59792727D01*
X161958048Y-59792727D01*
X162000000Y-59788000D01*
X162041952Y-59792727D01*
G37*
G36*
X142195090Y-59019215D02*
G01*
X142382683Y-59076120D01*
X142555570Y-59168530D01*
X142707107Y-59292893D01*
X142831470Y-59444430D01*
X142923880Y-59617317D01*
X142980785Y-59804910D01*
X143000000Y-60000000D01*
X142980785Y-60195090D01*
X142923880Y-60382683D01*
X142831470Y-60555570D01*
X142707107Y-60707107D01*
X142555570Y-60831470D01*
X142382683Y-60923880D01*
X142195090Y-60980785D01*
X142000000Y-61000000D01*
X141804910Y-60980785D01*
X141617317Y-60923880D01*
X141444430Y-60831470D01*
X141292893Y-60707107D01*
X141168530Y-60555570D01*
X141076120Y-60382683D01*
X141019215Y-60195090D01*
X141000000Y-60000000D01*
X141019215Y-59804910D01*
X141076120Y-59617317D01*
X141168530Y-59444430D01*
X141292893Y-59292893D01*
X141444430Y-59168530D01*
X141617317Y-59076120D01*
X141804910Y-59019215D01*
X142000000Y-59000000D01*
X142195090Y-59019215D01*
G37*
G36*
X122262664Y-58271602D02*
G01*
X122425000Y-58343878D01*
X122568761Y-58448327D01*
X122687664Y-58580383D01*
X122776514Y-58734274D01*
X122831425Y-58903275D01*
X122850000Y-59080000D01*
X122831425Y-59256725D01*
X122776514Y-59425726D01*
X122687664Y-59579617D01*
X122568761Y-59711673D01*
X122425000Y-59816122D01*
X122262664Y-59888398D01*
X122088849Y-59925344D01*
X121911151Y-59925344D01*
X121737336Y-59888398D01*
X121575000Y-59816122D01*
X121431239Y-59711673D01*
X121312336Y-59579617D01*
X121223486Y-59425726D01*
X121168575Y-59256725D01*
X121150000Y-59080000D01*
X121168575Y-58903275D01*
X121223486Y-58734274D01*
X121312336Y-58580383D01*
X121431239Y-58448327D01*
X121575000Y-58343878D01*
X121737336Y-58271602D01*
X121911151Y-58234656D01*
X122088849Y-58234656D01*
X122262664Y-58271602D01*
G37*
G36*
X134841134Y-57251806D02*
G01*
X134857355Y-57262645D01*
X134868194Y-57278866D01*
X134872000Y-57298000D01*
X134872000Y-58822000D01*
X134868194Y-58841134D01*
X134857355Y-58857355D01*
X134841134Y-58868194D01*
X134822000Y-58872000D01*
X133298000Y-58872000D01*
X133278866Y-58868194D01*
X133262645Y-58857355D01*
X133251806Y-58841134D01*
X133248000Y-58822000D01*
X133248000Y-57298000D01*
X133251806Y-57278866D01*
X133262645Y-57262645D01*
X133278866Y-57251806D01*
X133298000Y-57248000D01*
X134822000Y-57248000D01*
X134841134Y-57251806D01*
G37*
G36*
X162781134Y-57251806D02*
G01*
X162797355Y-57262645D01*
X162808194Y-57278866D01*
X162812000Y-57298000D01*
X162812000Y-58822000D01*
X162808194Y-58841134D01*
X162797355Y-58857355D01*
X162781134Y-58868194D01*
X162762000Y-58872000D01*
X161238000Y-58872000D01*
X161218866Y-58868194D01*
X161202645Y-58857355D01*
X161191806Y-58841134D01*
X161188000Y-58822000D01*
X161188000Y-57298000D01*
X161191806Y-57278866D01*
X161202645Y-57262645D01*
X161218866Y-57251806D01*
X161238000Y-57248000D01*
X162762000Y-57248000D01*
X162781134Y-57251806D01*
G37*
G36*
X122262664Y-55731602D02*
G01*
X122425000Y-55803878D01*
X122568761Y-55908327D01*
X122687664Y-56040383D01*
X122776514Y-56194274D01*
X122831425Y-56363275D01*
X122850000Y-56540000D01*
X122831425Y-56716725D01*
X122776514Y-56885726D01*
X122687664Y-57039617D01*
X122568761Y-57171673D01*
X122425000Y-57276122D01*
X122262664Y-57348398D01*
X122088849Y-57385344D01*
X121911151Y-57385344D01*
X121737336Y-57348398D01*
X121575000Y-57276122D01*
X121431239Y-57171673D01*
X121312336Y-57039617D01*
X121223486Y-56885726D01*
X121168575Y-56716725D01*
X121150000Y-56540000D01*
X121168575Y-56363275D01*
X121223486Y-56194274D01*
X121312336Y-56040383D01*
X121431239Y-55908327D01*
X121575000Y-55803878D01*
X121737336Y-55731602D01*
X121911151Y-55694656D01*
X122088849Y-55694656D01*
X122262664Y-55731602D01*
G37*
G36*
X122850000Y-54850000D02*
G01*
X121150000Y-54850000D01*
X121150000Y-53150000D01*
X122850000Y-53150000D01*
X122850000Y-54850000D01*
G37*
G36*
X118750295Y-35419699D02*
G01*
X118994427Y-35478310D01*
X119226385Y-35574390D01*
X119440456Y-35705573D01*
X119631371Y-35868629D01*
X119794427Y-36059544D01*
X119925610Y-36273615D01*
X120021690Y-36505573D01*
X120080301Y-36749705D01*
X120100000Y-37000000D01*
X120080301Y-37250295D01*
X120021690Y-37494427D01*
X119925610Y-37726385D01*
X119794427Y-37940456D01*
X119631371Y-38131371D01*
X119440456Y-38294427D01*
X119226385Y-38425610D01*
X118994427Y-38521690D01*
X118750295Y-38580301D01*
X118500000Y-38600000D01*
X118249705Y-38580301D01*
X118005573Y-38521690D01*
X117773615Y-38425610D01*
X117559544Y-38294427D01*
X117368629Y-38131371D01*
X117205573Y-37940456D01*
X117074390Y-37726385D01*
X116978310Y-37494427D01*
X116919699Y-37250295D01*
X116900000Y-37000000D01*
X116919699Y-36749705D01*
X116978310Y-36505573D01*
X117074390Y-36273615D01*
X117205573Y-36059544D01*
X117368629Y-35868629D01*
X117559544Y-35705573D01*
X117773615Y-35574390D01*
X118005573Y-35478310D01*
X118249705Y-35419699D01*
X118500000Y-35400000D01*
X118750295Y-35419699D01*
G37*
G36*
X168250295Y-35419699D02*
G01*
X168494427Y-35478310D01*
X168726385Y-35574390D01*
X168940456Y-35705573D01*
X169131371Y-35868629D01*
X169294427Y-36059544D01*
X169425610Y-36273615D01*
X169521690Y-36505573D01*
X169580301Y-36749705D01*
X169600000Y-37000000D01*
X169580301Y-37250295D01*
X169521690Y-37494427D01*
X169425610Y-37726385D01*
X169294427Y-37940456D01*
X169131371Y-38131371D01*
X168940456Y-38294427D01*
X168726385Y-38425610D01*
X168494427Y-38521690D01*
X168250295Y-38580301D01*
X168000000Y-38600000D01*
X167749705Y-38580301D01*
X167505573Y-38521690D01*
X167273615Y-38425610D01*
X167059544Y-38294427D01*
X166868629Y-38131371D01*
X166705573Y-37940456D01*
X166574390Y-37726385D01*
X166478310Y-37494427D01*
X166419699Y-37250295D01*
X166400000Y-37000000D01*
X166419699Y-36749705D01*
X166478310Y-36505573D01*
X166574390Y-36273615D01*
X166705573Y-36059544D01*
X166868629Y-35868629D01*
X167059544Y-35705573D01*
X167273615Y-35574390D01*
X167505573Y-35478310D01*
X167749705Y-35419699D01*
X168000000Y-35400000D01*
X168250295Y-35419699D01*
G37*
M02*
