%TF.GenerationSoftware,KiCad,Pcbnew,8.0.6-8.0.6-0~ubuntu24.04.1*%
%TF.CreationDate,2024-11-24T15:52:48-06:00*%
%TF.ProjectId,edge_human_detection_board,65646765-5f68-4756-9d61-6e5f64657465,rev?*%
%TF.SameCoordinates,Original*%
%TF.FileFunction,Drillmap*%
%TF.FilePolarity,Positive*%
%FSLAX45Y45*%
G04 Gerber Fmt 4.5, Leading zero omitted, Abs format (unit mm)*
G04 Created by KiCad (PCBNEW 8.0.6-8.0.6-0~ubuntu24.04.1) date 2024-11-24 15:52:48*
%MOMM*%
%LPD*%
G01*
G04 APERTURE LIST*
%ADD10C,0.050000*%
%ADD11C,0.200000*%
%ADD12C,0.100000*%
%ADD13C,0.101600*%
%ADD14C,0.275000*%
G04 APERTURE END LIST*
D10*
X11450000Y-3300000D02*
X17250000Y-3300000D01*
X17250000Y-12050000D01*
X11450000Y-12050000D01*
X11450000Y-3300000D01*
D11*
D12*
X11683490Y-7483490D02*
X11716510Y-7516510D01*
X11716510Y-7483490D02*
X11683490Y-7516510D01*
X11833490Y-7483490D02*
X11866510Y-7516510D01*
X11866510Y-7483490D02*
X11833490Y-7516510D01*
X12033490Y-9633490D02*
X12066510Y-9666510D01*
X12066510Y-9633490D02*
X12033490Y-9666510D01*
X12083490Y-4283490D02*
X12116510Y-4316510D01*
X12116510Y-4283490D02*
X12083490Y-4316510D01*
X12083490Y-7483490D02*
X12116510Y-7516510D01*
X12116510Y-7483490D02*
X12083490Y-7516510D01*
X12133490Y-7583490D02*
X12166510Y-7616510D01*
X12166510Y-7583490D02*
X12133490Y-7616510D01*
X12483490Y-8483490D02*
X12516510Y-8516510D01*
X12516510Y-8483490D02*
X12483490Y-8516510D01*
X12533490Y-4983490D02*
X12566510Y-5016510D01*
X12566510Y-4983490D02*
X12533490Y-5016510D01*
X12633490Y-7583490D02*
X12666510Y-7616510D01*
X12666510Y-7583490D02*
X12633490Y-7616510D01*
X12733490Y-9633490D02*
X12766510Y-9666510D01*
X12766510Y-9633490D02*
X12733490Y-9666510D01*
X12783490Y-7583490D02*
X12816510Y-7616510D01*
X12816510Y-7583490D02*
X12783490Y-7616510D01*
X12833490Y-5333490D02*
X12866510Y-5366510D01*
X12866510Y-5333490D02*
X12833490Y-5366510D01*
X12883490Y-10533490D02*
X12916510Y-10566510D01*
X12916510Y-10533490D02*
X12883490Y-10566510D01*
X12883490Y-11183490D02*
X12916510Y-11216510D01*
X12916510Y-11183490D02*
X12883490Y-11216510D01*
X12933490Y-9533490D02*
X12966510Y-9566510D01*
X12966510Y-9533490D02*
X12933490Y-9566510D01*
X12933490Y-10333490D02*
X12966510Y-10366510D01*
X12966510Y-10333490D02*
X12933490Y-10366510D01*
X12983490Y-9133490D02*
X13016510Y-9166510D01*
X13016510Y-9133490D02*
X12983490Y-9166510D01*
X13083490Y-9033490D02*
X13116510Y-9066510D01*
X13116510Y-9033490D02*
X13083490Y-9066510D01*
X13483490Y-4283490D02*
X13516510Y-4316510D01*
X13516510Y-4283490D02*
X13483490Y-4316510D01*
X13633490Y-9883490D02*
X13666510Y-9916510D01*
X13666510Y-9883490D02*
X13633490Y-9916510D01*
X13633490Y-10333490D02*
X13666510Y-10366510D01*
X13666510Y-10333490D02*
X13633490Y-10366510D01*
X13733490Y-7983490D02*
X13766510Y-8016510D01*
X13766510Y-7983490D02*
X13733490Y-8016510D01*
X13833490Y-7983490D02*
X13866510Y-8016510D01*
X13866510Y-7983490D02*
X13833490Y-8016510D01*
X14033490Y-3433490D02*
X14066510Y-3466510D01*
X14066510Y-3433490D02*
X14033490Y-3466510D01*
X14133490Y-6833490D02*
X14166510Y-6866510D01*
X14166510Y-6833490D02*
X14133490Y-6866510D01*
X14233490Y-3433490D02*
X14266510Y-3466510D01*
X14266510Y-3433490D02*
X14233490Y-3466510D01*
X14233490Y-6783490D02*
X14266510Y-6816510D01*
X14266510Y-6783490D02*
X14233490Y-6816510D01*
X14533490Y-7983490D02*
X14566510Y-8016510D01*
X14566510Y-7983490D02*
X14533490Y-8016510D01*
X14633490Y-7933490D02*
X14666510Y-7966510D01*
X14666510Y-7933490D02*
X14633490Y-7966510D01*
X14983490Y-3433490D02*
X15016510Y-3466510D01*
X15016510Y-3433490D02*
X14983490Y-3466510D01*
X15283490Y-3433490D02*
X15316510Y-3466510D01*
X15316510Y-3433490D02*
X15283490Y-3466510D01*
X15433490Y-3433490D02*
X15466510Y-3466510D01*
X15466510Y-3433490D02*
X15433490Y-3466510D01*
X15533490Y-7383490D02*
X15566510Y-7416510D01*
X15566510Y-7383490D02*
X15533490Y-7416510D01*
X15633490Y-7383490D02*
X15666510Y-7416510D01*
X15666510Y-7383490D02*
X15633490Y-7416510D01*
X15683490Y-3433490D02*
X15716510Y-3466510D01*
X15716510Y-3433490D02*
X15683490Y-3466510D01*
X15933490Y-9883490D02*
X15966510Y-9916510D01*
X15966510Y-9883490D02*
X15933490Y-9916510D01*
X15933490Y-10383490D02*
X15966510Y-10416510D01*
X15966510Y-10383490D02*
X15933490Y-10416510D01*
X16033490Y-4283490D02*
X16066510Y-4316510D01*
X16066510Y-4283490D02*
X16033490Y-4316510D01*
X16483490Y-5433490D02*
X16516510Y-5466510D01*
X16516510Y-5433490D02*
X16483490Y-5466510D01*
X16633490Y-5483490D02*
X16666510Y-5516510D01*
X16666510Y-5483490D02*
X16633490Y-5516510D01*
X16833490Y-10983490D02*
X16866510Y-11016510D01*
X16866510Y-10983490D02*
X16833490Y-11016510D01*
X16883490Y-9883490D02*
X16916510Y-9916510D01*
X16916510Y-9883490D02*
X16883490Y-9916510D01*
X16933490Y-7433490D02*
X16966510Y-7466510D01*
X16966510Y-7433490D02*
X16933490Y-7466510D01*
X16933490Y-8733490D02*
X16966510Y-8766510D01*
X16966510Y-8733490D02*
X16933490Y-8766510D01*
X12250000Y-5400000D02*
G75*
G02*
X12150000Y-5400000I-50000J0D01*
G01*
X12150000Y-5400000D02*
G75*
G02*
X12250000Y-5400000I50000J0D01*
G01*
X12250000Y-5654000D02*
G75*
G02*
X12150000Y-5654000I-50000J0D01*
G01*
X12150000Y-5654000D02*
G75*
G02*
X12250000Y-5654000I50000J0D01*
G01*
X12250000Y-5908000D02*
G75*
G02*
X12150000Y-5908000I-50000J0D01*
G01*
X12150000Y-5908000D02*
G75*
G02*
X12250000Y-5908000I50000J0D01*
G01*
D13*
X13406000Y-5755200D02*
X13406000Y-5856800D01*
X13355200Y-5806000D02*
X13456800Y-5806000D01*
X13406000Y-6009200D02*
X13406000Y-6110800D01*
X13355200Y-6060000D02*
X13456800Y-6060000D01*
X13406000Y-6263200D02*
X13406000Y-6364800D01*
X13355200Y-6314000D02*
X13456800Y-6314000D01*
X13406000Y-6517200D02*
X13406000Y-6618800D01*
X13355200Y-6568000D02*
X13456800Y-6568000D01*
X13406000Y-6771200D02*
X13406000Y-6872800D01*
X13355200Y-6822000D02*
X13456800Y-6822000D01*
X13406000Y-7025200D02*
X13406000Y-7126800D01*
X13355200Y-7076000D02*
X13456800Y-7076000D01*
X13406000Y-7279200D02*
X13406000Y-7380800D01*
X13355200Y-7330000D02*
X13456800Y-7330000D01*
X13406000Y-7533200D02*
X13406000Y-7634800D01*
X13355200Y-7584000D02*
X13456800Y-7584000D01*
X13406000Y-7787200D02*
X13406000Y-7888800D01*
X13355200Y-7838000D02*
X13456800Y-7838000D01*
X13406000Y-8041200D02*
X13406000Y-8142800D01*
X13355200Y-8092000D02*
X13456800Y-8092000D01*
X13406000Y-8295200D02*
X13406000Y-8396800D01*
X13355200Y-8346000D02*
X13456800Y-8346000D01*
X13406000Y-8549200D02*
X13406000Y-8650800D01*
X13355200Y-8600000D02*
X13456800Y-8600000D01*
X16200000Y-5755200D02*
X16200000Y-5856800D01*
X16149200Y-5806000D02*
X16250800Y-5806000D01*
X16200000Y-6009200D02*
X16200000Y-6110800D01*
X16149200Y-6060000D02*
X16250800Y-6060000D01*
X16200000Y-6263200D02*
X16200000Y-6364800D01*
X16149200Y-6314000D02*
X16250800Y-6314000D01*
X16200000Y-6517200D02*
X16200000Y-6618800D01*
X16149200Y-6568000D02*
X16250800Y-6568000D01*
X16200000Y-6771200D02*
X16200000Y-6872800D01*
X16149200Y-6822000D02*
X16250800Y-6822000D01*
X16200000Y-7025200D02*
X16200000Y-7126800D01*
X16149200Y-7076000D02*
X16250800Y-7076000D01*
X16200000Y-7279200D02*
X16200000Y-7380800D01*
X16149200Y-7330000D02*
X16250800Y-7330000D01*
X16200000Y-7533200D02*
X16200000Y-7634800D01*
X16149200Y-7584000D02*
X16250800Y-7584000D01*
X16200000Y-7787200D02*
X16200000Y-7888800D01*
X16149200Y-7838000D02*
X16250800Y-7838000D01*
X16200000Y-8041200D02*
X16200000Y-8142800D01*
X16149200Y-8092000D02*
X16250800Y-8092000D01*
X16200000Y-8295200D02*
X16200000Y-8396800D01*
X16149200Y-8346000D02*
X16250800Y-8346000D01*
X16200000Y-8549200D02*
X16200000Y-8650800D01*
X16149200Y-8600000D02*
X16250800Y-8600000D01*
D14*
X13748552Y-5452360D02*
X13748552Y-5257904D01*
X13554096Y-5257904D01*
X13554096Y-5452360D01*
X13748552Y-5452360D01*
X13748552Y-11252360D02*
X13748552Y-11057904D01*
X13554096Y-11057904D01*
X13554096Y-11252360D01*
X13748552Y-11252360D01*
X16048552Y-5452360D02*
X16048552Y-5257904D01*
X15854096Y-5257904D01*
X15854096Y-5452360D01*
X16048552Y-5452360D01*
X16048552Y-11252360D02*
X16048552Y-11057904D01*
X15854096Y-11057904D01*
X15854096Y-11252360D01*
X16048552Y-11252360D01*
D11*
X11708277Y-12363984D02*
X11708277Y-12163984D01*
X11708277Y-12163984D02*
X11755896Y-12163984D01*
X11755896Y-12163984D02*
X11784467Y-12173508D01*
X11784467Y-12173508D02*
X11803515Y-12192555D01*
X11803515Y-12192555D02*
X11813039Y-12211603D01*
X11813039Y-12211603D02*
X11822562Y-12249698D01*
X11822562Y-12249698D02*
X11822562Y-12278269D01*
X11822562Y-12278269D02*
X11813039Y-12316365D01*
X11813039Y-12316365D02*
X11803515Y-12335412D01*
X11803515Y-12335412D02*
X11784467Y-12354460D01*
X11784467Y-12354460D02*
X11755896Y-12363984D01*
X11755896Y-12363984D02*
X11708277Y-12363984D01*
X11908277Y-12363984D02*
X11908277Y-12230650D01*
X11908277Y-12268746D02*
X11917801Y-12249698D01*
X11917801Y-12249698D02*
X11927324Y-12240174D01*
X11927324Y-12240174D02*
X11946372Y-12230650D01*
X11946372Y-12230650D02*
X11965420Y-12230650D01*
X12032086Y-12363984D02*
X12032086Y-12230650D01*
X12032086Y-12163984D02*
X12022562Y-12173508D01*
X12022562Y-12173508D02*
X12032086Y-12183031D01*
X12032086Y-12183031D02*
X12041610Y-12173508D01*
X12041610Y-12173508D02*
X12032086Y-12163984D01*
X12032086Y-12163984D02*
X12032086Y-12183031D01*
X12155896Y-12363984D02*
X12136848Y-12354460D01*
X12136848Y-12354460D02*
X12127324Y-12335412D01*
X12127324Y-12335412D02*
X12127324Y-12163984D01*
X12260658Y-12363984D02*
X12241610Y-12354460D01*
X12241610Y-12354460D02*
X12232086Y-12335412D01*
X12232086Y-12335412D02*
X12232086Y-12163984D01*
X12489229Y-12363984D02*
X12489229Y-12163984D01*
X12489229Y-12163984D02*
X12555896Y-12306841D01*
X12555896Y-12306841D02*
X12622562Y-12163984D01*
X12622562Y-12163984D02*
X12622562Y-12363984D01*
X12803515Y-12363984D02*
X12803515Y-12259222D01*
X12803515Y-12259222D02*
X12793991Y-12240174D01*
X12793991Y-12240174D02*
X12774943Y-12230650D01*
X12774943Y-12230650D02*
X12736848Y-12230650D01*
X12736848Y-12230650D02*
X12717801Y-12240174D01*
X12803515Y-12354460D02*
X12784467Y-12363984D01*
X12784467Y-12363984D02*
X12736848Y-12363984D01*
X12736848Y-12363984D02*
X12717801Y-12354460D01*
X12717801Y-12354460D02*
X12708277Y-12335412D01*
X12708277Y-12335412D02*
X12708277Y-12316365D01*
X12708277Y-12316365D02*
X12717801Y-12297317D01*
X12717801Y-12297317D02*
X12736848Y-12287793D01*
X12736848Y-12287793D02*
X12784467Y-12287793D01*
X12784467Y-12287793D02*
X12803515Y-12278269D01*
X12898753Y-12230650D02*
X12898753Y-12430650D01*
X12898753Y-12240174D02*
X12917801Y-12230650D01*
X12917801Y-12230650D02*
X12955896Y-12230650D01*
X12955896Y-12230650D02*
X12974943Y-12240174D01*
X12974943Y-12240174D02*
X12984467Y-12249698D01*
X12984467Y-12249698D02*
X12993991Y-12268746D01*
X12993991Y-12268746D02*
X12993991Y-12325888D01*
X12993991Y-12325888D02*
X12984467Y-12344936D01*
X12984467Y-12344936D02*
X12974943Y-12354460D01*
X12974943Y-12354460D02*
X12955896Y-12363984D01*
X12955896Y-12363984D02*
X12917801Y-12363984D01*
X12917801Y-12363984D02*
X12898753Y-12354460D01*
X13079705Y-12344936D02*
X13089229Y-12354460D01*
X13089229Y-12354460D02*
X13079705Y-12363984D01*
X13079705Y-12363984D02*
X13070182Y-12354460D01*
X13070182Y-12354460D02*
X13079705Y-12344936D01*
X13079705Y-12344936D02*
X13079705Y-12363984D01*
X13079705Y-12240174D02*
X13089229Y-12249698D01*
X13089229Y-12249698D02*
X13079705Y-12259222D01*
X13079705Y-12259222D02*
X13070182Y-12249698D01*
X13070182Y-12249698D02*
X13079705Y-12240174D01*
X13079705Y-12240174D02*
X13079705Y-12259222D01*
D12*
X11414480Y-12675990D02*
X11447500Y-12709010D01*
X11447500Y-12675990D02*
X11414480Y-12709010D01*
D11*
X11746372Y-12583984D02*
X11765420Y-12583984D01*
X11765420Y-12583984D02*
X11784467Y-12593508D01*
X11784467Y-12593508D02*
X11793991Y-12603031D01*
X11793991Y-12603031D02*
X11803515Y-12622079D01*
X11803515Y-12622079D02*
X11813039Y-12660174D01*
X11813039Y-12660174D02*
X11813039Y-12707793D01*
X11813039Y-12707793D02*
X11803515Y-12745888D01*
X11803515Y-12745888D02*
X11793991Y-12764936D01*
X11793991Y-12764936D02*
X11784467Y-12774460D01*
X11784467Y-12774460D02*
X11765420Y-12783984D01*
X11765420Y-12783984D02*
X11746372Y-12783984D01*
X11746372Y-12783984D02*
X11727324Y-12774460D01*
X11727324Y-12774460D02*
X11717801Y-12764936D01*
X11717801Y-12764936D02*
X11708277Y-12745888D01*
X11708277Y-12745888D02*
X11698753Y-12707793D01*
X11698753Y-12707793D02*
X11698753Y-12660174D01*
X11698753Y-12660174D02*
X11708277Y-12622079D01*
X11708277Y-12622079D02*
X11717801Y-12603031D01*
X11717801Y-12603031D02*
X11727324Y-12593508D01*
X11727324Y-12593508D02*
X11746372Y-12583984D01*
X11898753Y-12764936D02*
X11908277Y-12774460D01*
X11908277Y-12774460D02*
X11898753Y-12783984D01*
X11898753Y-12783984D02*
X11889229Y-12774460D01*
X11889229Y-12774460D02*
X11898753Y-12764936D01*
X11898753Y-12764936D02*
X11898753Y-12783984D01*
X11974943Y-12583984D02*
X12098753Y-12583984D01*
X12098753Y-12583984D02*
X12032086Y-12660174D01*
X12032086Y-12660174D02*
X12060658Y-12660174D01*
X12060658Y-12660174D02*
X12079705Y-12669698D01*
X12079705Y-12669698D02*
X12089229Y-12679222D01*
X12089229Y-12679222D02*
X12098753Y-12698269D01*
X12098753Y-12698269D02*
X12098753Y-12745888D01*
X12098753Y-12745888D02*
X12089229Y-12764936D01*
X12089229Y-12764936D02*
X12079705Y-12774460D01*
X12079705Y-12774460D02*
X12060658Y-12783984D01*
X12060658Y-12783984D02*
X12003515Y-12783984D01*
X12003515Y-12783984D02*
X11984467Y-12774460D01*
X11984467Y-12774460D02*
X11974943Y-12764936D01*
X12165420Y-12583984D02*
X12289229Y-12583984D01*
X12289229Y-12583984D02*
X12222562Y-12660174D01*
X12222562Y-12660174D02*
X12251134Y-12660174D01*
X12251134Y-12660174D02*
X12270182Y-12669698D01*
X12270182Y-12669698D02*
X12279705Y-12679222D01*
X12279705Y-12679222D02*
X12289229Y-12698269D01*
X12289229Y-12698269D02*
X12289229Y-12745888D01*
X12289229Y-12745888D02*
X12279705Y-12764936D01*
X12279705Y-12764936D02*
X12270182Y-12774460D01*
X12270182Y-12774460D02*
X12251134Y-12783984D01*
X12251134Y-12783984D02*
X12193991Y-12783984D01*
X12193991Y-12783984D02*
X12174943Y-12774460D01*
X12174943Y-12774460D02*
X12165420Y-12764936D01*
X12413039Y-12583984D02*
X12432086Y-12583984D01*
X12432086Y-12583984D02*
X12451134Y-12593508D01*
X12451134Y-12593508D02*
X12460658Y-12603031D01*
X12460658Y-12603031D02*
X12470182Y-12622079D01*
X12470182Y-12622079D02*
X12479705Y-12660174D01*
X12479705Y-12660174D02*
X12479705Y-12707793D01*
X12479705Y-12707793D02*
X12470182Y-12745888D01*
X12470182Y-12745888D02*
X12460658Y-12764936D01*
X12460658Y-12764936D02*
X12451134Y-12774460D01*
X12451134Y-12774460D02*
X12432086Y-12783984D01*
X12432086Y-12783984D02*
X12413039Y-12783984D01*
X12413039Y-12783984D02*
X12393991Y-12774460D01*
X12393991Y-12774460D02*
X12384467Y-12764936D01*
X12384467Y-12764936D02*
X12374943Y-12745888D01*
X12374943Y-12745888D02*
X12365420Y-12707793D01*
X12365420Y-12707793D02*
X12365420Y-12660174D01*
X12365420Y-12660174D02*
X12374943Y-12622079D01*
X12374943Y-12622079D02*
X12384467Y-12603031D01*
X12384467Y-12603031D02*
X12393991Y-12593508D01*
X12393991Y-12593508D02*
X12413039Y-12583984D01*
X12565420Y-12783984D02*
X12565420Y-12650650D01*
X12565420Y-12669698D02*
X12574943Y-12660174D01*
X12574943Y-12660174D02*
X12593991Y-12650650D01*
X12593991Y-12650650D02*
X12622563Y-12650650D01*
X12622563Y-12650650D02*
X12641610Y-12660174D01*
X12641610Y-12660174D02*
X12651134Y-12679222D01*
X12651134Y-12679222D02*
X12651134Y-12783984D01*
X12651134Y-12679222D02*
X12660658Y-12660174D01*
X12660658Y-12660174D02*
X12679705Y-12650650D01*
X12679705Y-12650650D02*
X12708277Y-12650650D01*
X12708277Y-12650650D02*
X12727324Y-12660174D01*
X12727324Y-12660174D02*
X12736848Y-12679222D01*
X12736848Y-12679222D02*
X12736848Y-12783984D01*
X12832086Y-12783984D02*
X12832086Y-12650650D01*
X12832086Y-12669698D02*
X12841610Y-12660174D01*
X12841610Y-12660174D02*
X12860658Y-12650650D01*
X12860658Y-12650650D02*
X12889229Y-12650650D01*
X12889229Y-12650650D02*
X12908277Y-12660174D01*
X12908277Y-12660174D02*
X12917801Y-12679222D01*
X12917801Y-12679222D02*
X12917801Y-12783984D01*
X12917801Y-12679222D02*
X12927324Y-12660174D01*
X12927324Y-12660174D02*
X12946372Y-12650650D01*
X12946372Y-12650650D02*
X12974943Y-12650650D01*
X12974943Y-12650650D02*
X12993991Y-12660174D01*
X12993991Y-12660174D02*
X13003515Y-12679222D01*
X13003515Y-12679222D02*
X13003515Y-12783984D01*
X13393991Y-12574460D02*
X13222563Y-12831603D01*
X13651134Y-12583984D02*
X13670182Y-12583984D01*
X13670182Y-12583984D02*
X13689229Y-12593508D01*
X13689229Y-12593508D02*
X13698753Y-12603031D01*
X13698753Y-12603031D02*
X13708277Y-12622079D01*
X13708277Y-12622079D02*
X13717801Y-12660174D01*
X13717801Y-12660174D02*
X13717801Y-12707793D01*
X13717801Y-12707793D02*
X13708277Y-12745888D01*
X13708277Y-12745888D02*
X13698753Y-12764936D01*
X13698753Y-12764936D02*
X13689229Y-12774460D01*
X13689229Y-12774460D02*
X13670182Y-12783984D01*
X13670182Y-12783984D02*
X13651134Y-12783984D01*
X13651134Y-12783984D02*
X13632086Y-12774460D01*
X13632086Y-12774460D02*
X13622563Y-12764936D01*
X13622563Y-12764936D02*
X13613039Y-12745888D01*
X13613039Y-12745888D02*
X13603515Y-12707793D01*
X13603515Y-12707793D02*
X13603515Y-12660174D01*
X13603515Y-12660174D02*
X13613039Y-12622079D01*
X13613039Y-12622079D02*
X13622563Y-12603031D01*
X13622563Y-12603031D02*
X13632086Y-12593508D01*
X13632086Y-12593508D02*
X13651134Y-12583984D01*
X13803515Y-12764936D02*
X13813039Y-12774460D01*
X13813039Y-12774460D02*
X13803515Y-12783984D01*
X13803515Y-12783984D02*
X13793991Y-12774460D01*
X13793991Y-12774460D02*
X13803515Y-12764936D01*
X13803515Y-12764936D02*
X13803515Y-12783984D01*
X13936848Y-12583984D02*
X13955896Y-12583984D01*
X13955896Y-12583984D02*
X13974944Y-12593508D01*
X13974944Y-12593508D02*
X13984467Y-12603031D01*
X13984467Y-12603031D02*
X13993991Y-12622079D01*
X13993991Y-12622079D02*
X14003515Y-12660174D01*
X14003515Y-12660174D02*
X14003515Y-12707793D01*
X14003515Y-12707793D02*
X13993991Y-12745888D01*
X13993991Y-12745888D02*
X13984467Y-12764936D01*
X13984467Y-12764936D02*
X13974944Y-12774460D01*
X13974944Y-12774460D02*
X13955896Y-12783984D01*
X13955896Y-12783984D02*
X13936848Y-12783984D01*
X13936848Y-12783984D02*
X13917801Y-12774460D01*
X13917801Y-12774460D02*
X13908277Y-12764936D01*
X13908277Y-12764936D02*
X13898753Y-12745888D01*
X13898753Y-12745888D02*
X13889229Y-12707793D01*
X13889229Y-12707793D02*
X13889229Y-12660174D01*
X13889229Y-12660174D02*
X13898753Y-12622079D01*
X13898753Y-12622079D02*
X13908277Y-12603031D01*
X13908277Y-12603031D02*
X13917801Y-12593508D01*
X13917801Y-12593508D02*
X13936848Y-12583984D01*
X14193991Y-12783984D02*
X14079706Y-12783984D01*
X14136848Y-12783984D02*
X14136848Y-12583984D01*
X14136848Y-12583984D02*
X14117801Y-12612555D01*
X14117801Y-12612555D02*
X14098753Y-12631603D01*
X14098753Y-12631603D02*
X14079706Y-12641127D01*
X14260658Y-12583984D02*
X14384467Y-12583984D01*
X14384467Y-12583984D02*
X14317801Y-12660174D01*
X14317801Y-12660174D02*
X14346372Y-12660174D01*
X14346372Y-12660174D02*
X14365420Y-12669698D01*
X14365420Y-12669698D02*
X14374944Y-12679222D01*
X14374944Y-12679222D02*
X14384467Y-12698269D01*
X14384467Y-12698269D02*
X14384467Y-12745888D01*
X14384467Y-12745888D02*
X14374944Y-12764936D01*
X14374944Y-12764936D02*
X14365420Y-12774460D01*
X14365420Y-12774460D02*
X14346372Y-12783984D01*
X14346372Y-12783984D02*
X14289229Y-12783984D01*
X14289229Y-12783984D02*
X14270182Y-12774460D01*
X14270182Y-12774460D02*
X14260658Y-12764936D01*
X14508277Y-12583984D02*
X14527325Y-12583984D01*
X14527325Y-12583984D02*
X14546372Y-12593508D01*
X14546372Y-12593508D02*
X14555896Y-12603031D01*
X14555896Y-12603031D02*
X14565420Y-12622079D01*
X14565420Y-12622079D02*
X14574944Y-12660174D01*
X14574944Y-12660174D02*
X14574944Y-12707793D01*
X14574944Y-12707793D02*
X14565420Y-12745888D01*
X14565420Y-12745888D02*
X14555896Y-12764936D01*
X14555896Y-12764936D02*
X14546372Y-12774460D01*
X14546372Y-12774460D02*
X14527325Y-12783984D01*
X14527325Y-12783984D02*
X14508277Y-12783984D01*
X14508277Y-12783984D02*
X14489229Y-12774460D01*
X14489229Y-12774460D02*
X14479706Y-12764936D01*
X14479706Y-12764936D02*
X14470182Y-12745888D01*
X14470182Y-12745888D02*
X14460658Y-12707793D01*
X14460658Y-12707793D02*
X14460658Y-12660174D01*
X14460658Y-12660174D02*
X14470182Y-12622079D01*
X14470182Y-12622079D02*
X14479706Y-12603031D01*
X14479706Y-12603031D02*
X14489229Y-12593508D01*
X14489229Y-12593508D02*
X14508277Y-12583984D01*
X14651134Y-12583984D02*
X14651134Y-12622079D01*
X14727325Y-12583984D02*
X14727325Y-12622079D01*
X15022563Y-12860174D02*
X15013039Y-12850650D01*
X15013039Y-12850650D02*
X14993991Y-12822079D01*
X14993991Y-12822079D02*
X14984468Y-12803031D01*
X14984468Y-12803031D02*
X14974944Y-12774460D01*
X14974944Y-12774460D02*
X14965420Y-12726841D01*
X14965420Y-12726841D02*
X14965420Y-12688746D01*
X14965420Y-12688746D02*
X14974944Y-12641127D01*
X14974944Y-12641127D02*
X14984468Y-12612555D01*
X14984468Y-12612555D02*
X14993991Y-12593508D01*
X14993991Y-12593508D02*
X15013039Y-12564936D01*
X15013039Y-12564936D02*
X15022563Y-12555412D01*
X15184468Y-12650650D02*
X15184468Y-12783984D01*
X15136848Y-12574460D02*
X15089229Y-12717317D01*
X15089229Y-12717317D02*
X15213039Y-12717317D01*
X15374944Y-12650650D02*
X15374944Y-12783984D01*
X15327325Y-12574460D02*
X15279706Y-12717317D01*
X15279706Y-12717317D02*
X15403515Y-12717317D01*
X15632087Y-12783984D02*
X15632087Y-12583984D01*
X15717801Y-12783984D02*
X15717801Y-12679222D01*
X15717801Y-12679222D02*
X15708277Y-12660174D01*
X15708277Y-12660174D02*
X15689230Y-12650650D01*
X15689230Y-12650650D02*
X15660658Y-12650650D01*
X15660658Y-12650650D02*
X15641610Y-12660174D01*
X15641610Y-12660174D02*
X15632087Y-12669698D01*
X15841610Y-12783984D02*
X15822563Y-12774460D01*
X15822563Y-12774460D02*
X15813039Y-12764936D01*
X15813039Y-12764936D02*
X15803515Y-12745888D01*
X15803515Y-12745888D02*
X15803515Y-12688746D01*
X15803515Y-12688746D02*
X15813039Y-12669698D01*
X15813039Y-12669698D02*
X15822563Y-12660174D01*
X15822563Y-12660174D02*
X15841610Y-12650650D01*
X15841610Y-12650650D02*
X15870182Y-12650650D01*
X15870182Y-12650650D02*
X15889230Y-12660174D01*
X15889230Y-12660174D02*
X15898753Y-12669698D01*
X15898753Y-12669698D02*
X15908277Y-12688746D01*
X15908277Y-12688746D02*
X15908277Y-12745888D01*
X15908277Y-12745888D02*
X15898753Y-12764936D01*
X15898753Y-12764936D02*
X15889230Y-12774460D01*
X15889230Y-12774460D02*
X15870182Y-12783984D01*
X15870182Y-12783984D02*
X15841610Y-12783984D01*
X16022563Y-12783984D02*
X16003515Y-12774460D01*
X16003515Y-12774460D02*
X15993991Y-12755412D01*
X15993991Y-12755412D02*
X15993991Y-12583984D01*
X16174944Y-12774460D02*
X16155896Y-12783984D01*
X16155896Y-12783984D02*
X16117801Y-12783984D01*
X16117801Y-12783984D02*
X16098753Y-12774460D01*
X16098753Y-12774460D02*
X16089230Y-12755412D01*
X16089230Y-12755412D02*
X16089230Y-12679222D01*
X16089230Y-12679222D02*
X16098753Y-12660174D01*
X16098753Y-12660174D02*
X16117801Y-12650650D01*
X16117801Y-12650650D02*
X16155896Y-12650650D01*
X16155896Y-12650650D02*
X16174944Y-12660174D01*
X16174944Y-12660174D02*
X16184468Y-12679222D01*
X16184468Y-12679222D02*
X16184468Y-12698269D01*
X16184468Y-12698269D02*
X16089230Y-12717317D01*
X16260658Y-12774460D02*
X16279706Y-12783984D01*
X16279706Y-12783984D02*
X16317801Y-12783984D01*
X16317801Y-12783984D02*
X16336849Y-12774460D01*
X16336849Y-12774460D02*
X16346372Y-12755412D01*
X16346372Y-12755412D02*
X16346372Y-12745888D01*
X16346372Y-12745888D02*
X16336849Y-12726841D01*
X16336849Y-12726841D02*
X16317801Y-12717317D01*
X16317801Y-12717317D02*
X16289230Y-12717317D01*
X16289230Y-12717317D02*
X16270182Y-12707793D01*
X16270182Y-12707793D02*
X16260658Y-12688746D01*
X16260658Y-12688746D02*
X16260658Y-12679222D01*
X16260658Y-12679222D02*
X16270182Y-12660174D01*
X16270182Y-12660174D02*
X16289230Y-12650650D01*
X16289230Y-12650650D02*
X16317801Y-12650650D01*
X16317801Y-12650650D02*
X16336849Y-12660174D01*
X16413039Y-12860174D02*
X16422563Y-12850650D01*
X16422563Y-12850650D02*
X16441611Y-12822079D01*
X16441611Y-12822079D02*
X16451134Y-12803031D01*
X16451134Y-12803031D02*
X16460658Y-12774460D01*
X16460658Y-12774460D02*
X16470182Y-12726841D01*
X16470182Y-12726841D02*
X16470182Y-12688746D01*
X16470182Y-12688746D02*
X16460658Y-12641127D01*
X16460658Y-12641127D02*
X16451134Y-12612555D01*
X16451134Y-12612555D02*
X16441611Y-12593508D01*
X16441611Y-12593508D02*
X16422563Y-12564936D01*
X16422563Y-12564936D02*
X16413039Y-12555412D01*
D12*
X11447500Y-12956500D02*
G75*
G02*
X11347500Y-12956500I-50000J0D01*
G01*
X11347500Y-12956500D02*
G75*
G02*
X11447500Y-12956500I50000J0D01*
G01*
D11*
X11813039Y-13047984D02*
X11698753Y-13047984D01*
X11755896Y-13047984D02*
X11755896Y-12847984D01*
X11755896Y-12847984D02*
X11736848Y-12876555D01*
X11736848Y-12876555D02*
X11717801Y-12895603D01*
X11717801Y-12895603D02*
X11698753Y-12905127D01*
X11898753Y-13028936D02*
X11908277Y-13038460D01*
X11908277Y-13038460D02*
X11898753Y-13047984D01*
X11898753Y-13047984D02*
X11889229Y-13038460D01*
X11889229Y-13038460D02*
X11898753Y-13028936D01*
X11898753Y-13028936D02*
X11898753Y-13047984D01*
X12032086Y-12847984D02*
X12051134Y-12847984D01*
X12051134Y-12847984D02*
X12070182Y-12857508D01*
X12070182Y-12857508D02*
X12079705Y-12867031D01*
X12079705Y-12867031D02*
X12089229Y-12886079D01*
X12089229Y-12886079D02*
X12098753Y-12924174D01*
X12098753Y-12924174D02*
X12098753Y-12971793D01*
X12098753Y-12971793D02*
X12089229Y-13009888D01*
X12089229Y-13009888D02*
X12079705Y-13028936D01*
X12079705Y-13028936D02*
X12070182Y-13038460D01*
X12070182Y-13038460D02*
X12051134Y-13047984D01*
X12051134Y-13047984D02*
X12032086Y-13047984D01*
X12032086Y-13047984D02*
X12013039Y-13038460D01*
X12013039Y-13038460D02*
X12003515Y-13028936D01*
X12003515Y-13028936D02*
X11993991Y-13009888D01*
X11993991Y-13009888D02*
X11984467Y-12971793D01*
X11984467Y-12971793D02*
X11984467Y-12924174D01*
X11984467Y-12924174D02*
X11993991Y-12886079D01*
X11993991Y-12886079D02*
X12003515Y-12867031D01*
X12003515Y-12867031D02*
X12013039Y-12857508D01*
X12013039Y-12857508D02*
X12032086Y-12847984D01*
X12222562Y-12847984D02*
X12241610Y-12847984D01*
X12241610Y-12847984D02*
X12260658Y-12857508D01*
X12260658Y-12857508D02*
X12270182Y-12867031D01*
X12270182Y-12867031D02*
X12279705Y-12886079D01*
X12279705Y-12886079D02*
X12289229Y-12924174D01*
X12289229Y-12924174D02*
X12289229Y-12971793D01*
X12289229Y-12971793D02*
X12279705Y-13009888D01*
X12279705Y-13009888D02*
X12270182Y-13028936D01*
X12270182Y-13028936D02*
X12260658Y-13038460D01*
X12260658Y-13038460D02*
X12241610Y-13047984D01*
X12241610Y-13047984D02*
X12222562Y-13047984D01*
X12222562Y-13047984D02*
X12203515Y-13038460D01*
X12203515Y-13038460D02*
X12193991Y-13028936D01*
X12193991Y-13028936D02*
X12184467Y-13009888D01*
X12184467Y-13009888D02*
X12174943Y-12971793D01*
X12174943Y-12971793D02*
X12174943Y-12924174D01*
X12174943Y-12924174D02*
X12184467Y-12886079D01*
X12184467Y-12886079D02*
X12193991Y-12867031D01*
X12193991Y-12867031D02*
X12203515Y-12857508D01*
X12203515Y-12857508D02*
X12222562Y-12847984D01*
X12413039Y-12847984D02*
X12432086Y-12847984D01*
X12432086Y-12847984D02*
X12451134Y-12857508D01*
X12451134Y-12857508D02*
X12460658Y-12867031D01*
X12460658Y-12867031D02*
X12470182Y-12886079D01*
X12470182Y-12886079D02*
X12479705Y-12924174D01*
X12479705Y-12924174D02*
X12479705Y-12971793D01*
X12479705Y-12971793D02*
X12470182Y-13009888D01*
X12470182Y-13009888D02*
X12460658Y-13028936D01*
X12460658Y-13028936D02*
X12451134Y-13038460D01*
X12451134Y-13038460D02*
X12432086Y-13047984D01*
X12432086Y-13047984D02*
X12413039Y-13047984D01*
X12413039Y-13047984D02*
X12393991Y-13038460D01*
X12393991Y-13038460D02*
X12384467Y-13028936D01*
X12384467Y-13028936D02*
X12374943Y-13009888D01*
X12374943Y-13009888D02*
X12365420Y-12971793D01*
X12365420Y-12971793D02*
X12365420Y-12924174D01*
X12365420Y-12924174D02*
X12374943Y-12886079D01*
X12374943Y-12886079D02*
X12384467Y-12867031D01*
X12384467Y-12867031D02*
X12393991Y-12857508D01*
X12393991Y-12857508D02*
X12413039Y-12847984D01*
X12565420Y-13047984D02*
X12565420Y-12914650D01*
X12565420Y-12933698D02*
X12574943Y-12924174D01*
X12574943Y-12924174D02*
X12593991Y-12914650D01*
X12593991Y-12914650D02*
X12622563Y-12914650D01*
X12622563Y-12914650D02*
X12641610Y-12924174D01*
X12641610Y-12924174D02*
X12651134Y-12943222D01*
X12651134Y-12943222D02*
X12651134Y-13047984D01*
X12651134Y-12943222D02*
X12660658Y-12924174D01*
X12660658Y-12924174D02*
X12679705Y-12914650D01*
X12679705Y-12914650D02*
X12708277Y-12914650D01*
X12708277Y-12914650D02*
X12727324Y-12924174D01*
X12727324Y-12924174D02*
X12736848Y-12943222D01*
X12736848Y-12943222D02*
X12736848Y-13047984D01*
X12832086Y-13047984D02*
X12832086Y-12914650D01*
X12832086Y-12933698D02*
X12841610Y-12924174D01*
X12841610Y-12924174D02*
X12860658Y-12914650D01*
X12860658Y-12914650D02*
X12889229Y-12914650D01*
X12889229Y-12914650D02*
X12908277Y-12924174D01*
X12908277Y-12924174D02*
X12917801Y-12943222D01*
X12917801Y-12943222D02*
X12917801Y-13047984D01*
X12917801Y-12943222D02*
X12927324Y-12924174D01*
X12927324Y-12924174D02*
X12946372Y-12914650D01*
X12946372Y-12914650D02*
X12974943Y-12914650D01*
X12974943Y-12914650D02*
X12993991Y-12924174D01*
X12993991Y-12924174D02*
X13003515Y-12943222D01*
X13003515Y-12943222D02*
X13003515Y-13047984D01*
X13393991Y-12838460D02*
X13222563Y-13095603D01*
X13651134Y-12847984D02*
X13670182Y-12847984D01*
X13670182Y-12847984D02*
X13689229Y-12857508D01*
X13689229Y-12857508D02*
X13698753Y-12867031D01*
X13698753Y-12867031D02*
X13708277Y-12886079D01*
X13708277Y-12886079D02*
X13717801Y-12924174D01*
X13717801Y-12924174D02*
X13717801Y-12971793D01*
X13717801Y-12971793D02*
X13708277Y-13009888D01*
X13708277Y-13009888D02*
X13698753Y-13028936D01*
X13698753Y-13028936D02*
X13689229Y-13038460D01*
X13689229Y-13038460D02*
X13670182Y-13047984D01*
X13670182Y-13047984D02*
X13651134Y-13047984D01*
X13651134Y-13047984D02*
X13632086Y-13038460D01*
X13632086Y-13038460D02*
X13622563Y-13028936D01*
X13622563Y-13028936D02*
X13613039Y-13009888D01*
X13613039Y-13009888D02*
X13603515Y-12971793D01*
X13603515Y-12971793D02*
X13603515Y-12924174D01*
X13603515Y-12924174D02*
X13613039Y-12886079D01*
X13613039Y-12886079D02*
X13622563Y-12867031D01*
X13622563Y-12867031D02*
X13632086Y-12857508D01*
X13632086Y-12857508D02*
X13651134Y-12847984D01*
X13803515Y-13028936D02*
X13813039Y-13038460D01*
X13813039Y-13038460D02*
X13803515Y-13047984D01*
X13803515Y-13047984D02*
X13793991Y-13038460D01*
X13793991Y-13038460D02*
X13803515Y-13028936D01*
X13803515Y-13028936D02*
X13803515Y-13047984D01*
X13936848Y-12847984D02*
X13955896Y-12847984D01*
X13955896Y-12847984D02*
X13974944Y-12857508D01*
X13974944Y-12857508D02*
X13984467Y-12867031D01*
X13984467Y-12867031D02*
X13993991Y-12886079D01*
X13993991Y-12886079D02*
X14003515Y-12924174D01*
X14003515Y-12924174D02*
X14003515Y-12971793D01*
X14003515Y-12971793D02*
X13993991Y-13009888D01*
X13993991Y-13009888D02*
X13984467Y-13028936D01*
X13984467Y-13028936D02*
X13974944Y-13038460D01*
X13974944Y-13038460D02*
X13955896Y-13047984D01*
X13955896Y-13047984D02*
X13936848Y-13047984D01*
X13936848Y-13047984D02*
X13917801Y-13038460D01*
X13917801Y-13038460D02*
X13908277Y-13028936D01*
X13908277Y-13028936D02*
X13898753Y-13009888D01*
X13898753Y-13009888D02*
X13889229Y-12971793D01*
X13889229Y-12971793D02*
X13889229Y-12924174D01*
X13889229Y-12924174D02*
X13898753Y-12886079D01*
X13898753Y-12886079D02*
X13908277Y-12867031D01*
X13908277Y-12867031D02*
X13917801Y-12857508D01*
X13917801Y-12857508D02*
X13936848Y-12847984D01*
X14070182Y-12847984D02*
X14193991Y-12847984D01*
X14193991Y-12847984D02*
X14127325Y-12924174D01*
X14127325Y-12924174D02*
X14155896Y-12924174D01*
X14155896Y-12924174D02*
X14174944Y-12933698D01*
X14174944Y-12933698D02*
X14184467Y-12943222D01*
X14184467Y-12943222D02*
X14193991Y-12962269D01*
X14193991Y-12962269D02*
X14193991Y-13009888D01*
X14193991Y-13009888D02*
X14184467Y-13028936D01*
X14184467Y-13028936D02*
X14174944Y-13038460D01*
X14174944Y-13038460D02*
X14155896Y-13047984D01*
X14155896Y-13047984D02*
X14098753Y-13047984D01*
X14098753Y-13047984D02*
X14079706Y-13038460D01*
X14079706Y-13038460D02*
X14070182Y-13028936D01*
X14289229Y-13047984D02*
X14327325Y-13047984D01*
X14327325Y-13047984D02*
X14346372Y-13038460D01*
X14346372Y-13038460D02*
X14355896Y-13028936D01*
X14355896Y-13028936D02*
X14374944Y-13000365D01*
X14374944Y-13000365D02*
X14384467Y-12962269D01*
X14384467Y-12962269D02*
X14384467Y-12886079D01*
X14384467Y-12886079D02*
X14374944Y-12867031D01*
X14374944Y-12867031D02*
X14365420Y-12857508D01*
X14365420Y-12857508D02*
X14346372Y-12847984D01*
X14346372Y-12847984D02*
X14308277Y-12847984D01*
X14308277Y-12847984D02*
X14289229Y-12857508D01*
X14289229Y-12857508D02*
X14279706Y-12867031D01*
X14279706Y-12867031D02*
X14270182Y-12886079D01*
X14270182Y-12886079D02*
X14270182Y-12933698D01*
X14270182Y-12933698D02*
X14279706Y-12952746D01*
X14279706Y-12952746D02*
X14289229Y-12962269D01*
X14289229Y-12962269D02*
X14308277Y-12971793D01*
X14308277Y-12971793D02*
X14346372Y-12971793D01*
X14346372Y-12971793D02*
X14365420Y-12962269D01*
X14365420Y-12962269D02*
X14374944Y-12952746D01*
X14374944Y-12952746D02*
X14384467Y-12933698D01*
X14555896Y-12914650D02*
X14555896Y-13047984D01*
X14508277Y-12838460D02*
X14460658Y-12981317D01*
X14460658Y-12981317D02*
X14584467Y-12981317D01*
X14651134Y-12847984D02*
X14651134Y-12886079D01*
X14727325Y-12847984D02*
X14727325Y-12886079D01*
X15022563Y-13124174D02*
X15013039Y-13114650D01*
X15013039Y-13114650D02*
X14993991Y-13086079D01*
X14993991Y-13086079D02*
X14984468Y-13067031D01*
X14984468Y-13067031D02*
X14974944Y-13038460D01*
X14974944Y-13038460D02*
X14965420Y-12990841D01*
X14965420Y-12990841D02*
X14965420Y-12952746D01*
X14965420Y-12952746D02*
X14974944Y-12905127D01*
X14974944Y-12905127D02*
X14984468Y-12876555D01*
X14984468Y-12876555D02*
X14993991Y-12857508D01*
X14993991Y-12857508D02*
X15013039Y-12828936D01*
X15013039Y-12828936D02*
X15022563Y-12819412D01*
X15079706Y-12847984D02*
X15203515Y-12847984D01*
X15203515Y-12847984D02*
X15136848Y-12924174D01*
X15136848Y-12924174D02*
X15165420Y-12924174D01*
X15165420Y-12924174D02*
X15184468Y-12933698D01*
X15184468Y-12933698D02*
X15193991Y-12943222D01*
X15193991Y-12943222D02*
X15203515Y-12962269D01*
X15203515Y-12962269D02*
X15203515Y-13009888D01*
X15203515Y-13009888D02*
X15193991Y-13028936D01*
X15193991Y-13028936D02*
X15184468Y-13038460D01*
X15184468Y-13038460D02*
X15165420Y-13047984D01*
X15165420Y-13047984D02*
X15108277Y-13047984D01*
X15108277Y-13047984D02*
X15089229Y-13038460D01*
X15089229Y-13038460D02*
X15079706Y-13028936D01*
X15441610Y-13047984D02*
X15441610Y-12847984D01*
X15527325Y-13047984D02*
X15527325Y-12943222D01*
X15527325Y-12943222D02*
X15517801Y-12924174D01*
X15517801Y-12924174D02*
X15498753Y-12914650D01*
X15498753Y-12914650D02*
X15470182Y-12914650D01*
X15470182Y-12914650D02*
X15451134Y-12924174D01*
X15451134Y-12924174D02*
X15441610Y-12933698D01*
X15651134Y-13047984D02*
X15632087Y-13038460D01*
X15632087Y-13038460D02*
X15622563Y-13028936D01*
X15622563Y-13028936D02*
X15613039Y-13009888D01*
X15613039Y-13009888D02*
X15613039Y-12952746D01*
X15613039Y-12952746D02*
X15622563Y-12933698D01*
X15622563Y-12933698D02*
X15632087Y-12924174D01*
X15632087Y-12924174D02*
X15651134Y-12914650D01*
X15651134Y-12914650D02*
X15679706Y-12914650D01*
X15679706Y-12914650D02*
X15698753Y-12924174D01*
X15698753Y-12924174D02*
X15708277Y-12933698D01*
X15708277Y-12933698D02*
X15717801Y-12952746D01*
X15717801Y-12952746D02*
X15717801Y-13009888D01*
X15717801Y-13009888D02*
X15708277Y-13028936D01*
X15708277Y-13028936D02*
X15698753Y-13038460D01*
X15698753Y-13038460D02*
X15679706Y-13047984D01*
X15679706Y-13047984D02*
X15651134Y-13047984D01*
X15832087Y-13047984D02*
X15813039Y-13038460D01*
X15813039Y-13038460D02*
X15803515Y-13019412D01*
X15803515Y-13019412D02*
X15803515Y-12847984D01*
X15984468Y-13038460D02*
X15965420Y-13047984D01*
X15965420Y-13047984D02*
X15927325Y-13047984D01*
X15927325Y-13047984D02*
X15908277Y-13038460D01*
X15908277Y-13038460D02*
X15898753Y-13019412D01*
X15898753Y-13019412D02*
X15898753Y-12943222D01*
X15898753Y-12943222D02*
X15908277Y-12924174D01*
X15908277Y-12924174D02*
X15927325Y-12914650D01*
X15927325Y-12914650D02*
X15965420Y-12914650D01*
X15965420Y-12914650D02*
X15984468Y-12924174D01*
X15984468Y-12924174D02*
X15993991Y-12943222D01*
X15993991Y-12943222D02*
X15993991Y-12962269D01*
X15993991Y-12962269D02*
X15898753Y-12981317D01*
X16070182Y-13038460D02*
X16089230Y-13047984D01*
X16089230Y-13047984D02*
X16127325Y-13047984D01*
X16127325Y-13047984D02*
X16146372Y-13038460D01*
X16146372Y-13038460D02*
X16155896Y-13019412D01*
X16155896Y-13019412D02*
X16155896Y-13009888D01*
X16155896Y-13009888D02*
X16146372Y-12990841D01*
X16146372Y-12990841D02*
X16127325Y-12981317D01*
X16127325Y-12981317D02*
X16098753Y-12981317D01*
X16098753Y-12981317D02*
X16079706Y-12971793D01*
X16079706Y-12971793D02*
X16070182Y-12952746D01*
X16070182Y-12952746D02*
X16070182Y-12943222D01*
X16070182Y-12943222D02*
X16079706Y-12924174D01*
X16079706Y-12924174D02*
X16098753Y-12914650D01*
X16098753Y-12914650D02*
X16127325Y-12914650D01*
X16127325Y-12914650D02*
X16146372Y-12924174D01*
X16222563Y-13124174D02*
X16232087Y-13114650D01*
X16232087Y-13114650D02*
X16251134Y-13086079D01*
X16251134Y-13086079D02*
X16260658Y-13067031D01*
X16260658Y-13067031D02*
X16270182Y-13038460D01*
X16270182Y-13038460D02*
X16279706Y-12990841D01*
X16279706Y-12990841D02*
X16279706Y-12952746D01*
X16279706Y-12952746D02*
X16270182Y-12905127D01*
X16270182Y-12905127D02*
X16260658Y-12876555D01*
X16260658Y-12876555D02*
X16251134Y-12857508D01*
X16251134Y-12857508D02*
X16232087Y-12828936D01*
X16232087Y-12828936D02*
X16222563Y-12819412D01*
D13*
X11396700Y-13169700D02*
X11396700Y-13271300D01*
X11345900Y-13220500D02*
X11447500Y-13220500D01*
D11*
X11813039Y-13311984D02*
X11698753Y-13311984D01*
X11755896Y-13311984D02*
X11755896Y-13111984D01*
X11755896Y-13111984D02*
X11736848Y-13140555D01*
X11736848Y-13140555D02*
X11717801Y-13159603D01*
X11717801Y-13159603D02*
X11698753Y-13169127D01*
X11898753Y-13292936D02*
X11908277Y-13302460D01*
X11908277Y-13302460D02*
X11898753Y-13311984D01*
X11898753Y-13311984D02*
X11889229Y-13302460D01*
X11889229Y-13302460D02*
X11898753Y-13292936D01*
X11898753Y-13292936D02*
X11898753Y-13311984D01*
X12032086Y-13111984D02*
X12051134Y-13111984D01*
X12051134Y-13111984D02*
X12070182Y-13121508D01*
X12070182Y-13121508D02*
X12079705Y-13131031D01*
X12079705Y-13131031D02*
X12089229Y-13150079D01*
X12089229Y-13150079D02*
X12098753Y-13188174D01*
X12098753Y-13188174D02*
X12098753Y-13235793D01*
X12098753Y-13235793D02*
X12089229Y-13273888D01*
X12089229Y-13273888D02*
X12079705Y-13292936D01*
X12079705Y-13292936D02*
X12070182Y-13302460D01*
X12070182Y-13302460D02*
X12051134Y-13311984D01*
X12051134Y-13311984D02*
X12032086Y-13311984D01*
X12032086Y-13311984D02*
X12013039Y-13302460D01*
X12013039Y-13302460D02*
X12003515Y-13292936D01*
X12003515Y-13292936D02*
X11993991Y-13273888D01*
X11993991Y-13273888D02*
X11984467Y-13235793D01*
X11984467Y-13235793D02*
X11984467Y-13188174D01*
X11984467Y-13188174D02*
X11993991Y-13150079D01*
X11993991Y-13150079D02*
X12003515Y-13131031D01*
X12003515Y-13131031D02*
X12013039Y-13121508D01*
X12013039Y-13121508D02*
X12032086Y-13111984D01*
X12289229Y-13311984D02*
X12174943Y-13311984D01*
X12232086Y-13311984D02*
X12232086Y-13111984D01*
X12232086Y-13111984D02*
X12213039Y-13140555D01*
X12213039Y-13140555D02*
X12193991Y-13159603D01*
X12193991Y-13159603D02*
X12174943Y-13169127D01*
X12460658Y-13111984D02*
X12422562Y-13111984D01*
X12422562Y-13111984D02*
X12403515Y-13121508D01*
X12403515Y-13121508D02*
X12393991Y-13131031D01*
X12393991Y-13131031D02*
X12374943Y-13159603D01*
X12374943Y-13159603D02*
X12365420Y-13197698D01*
X12365420Y-13197698D02*
X12365420Y-13273888D01*
X12365420Y-13273888D02*
X12374943Y-13292936D01*
X12374943Y-13292936D02*
X12384467Y-13302460D01*
X12384467Y-13302460D02*
X12403515Y-13311984D01*
X12403515Y-13311984D02*
X12441610Y-13311984D01*
X12441610Y-13311984D02*
X12460658Y-13302460D01*
X12460658Y-13302460D02*
X12470182Y-13292936D01*
X12470182Y-13292936D02*
X12479705Y-13273888D01*
X12479705Y-13273888D02*
X12479705Y-13226269D01*
X12479705Y-13226269D02*
X12470182Y-13207222D01*
X12470182Y-13207222D02*
X12460658Y-13197698D01*
X12460658Y-13197698D02*
X12441610Y-13188174D01*
X12441610Y-13188174D02*
X12403515Y-13188174D01*
X12403515Y-13188174D02*
X12384467Y-13197698D01*
X12384467Y-13197698D02*
X12374943Y-13207222D01*
X12374943Y-13207222D02*
X12365420Y-13226269D01*
X12565420Y-13311984D02*
X12565420Y-13178650D01*
X12565420Y-13197698D02*
X12574943Y-13188174D01*
X12574943Y-13188174D02*
X12593991Y-13178650D01*
X12593991Y-13178650D02*
X12622563Y-13178650D01*
X12622563Y-13178650D02*
X12641610Y-13188174D01*
X12641610Y-13188174D02*
X12651134Y-13207222D01*
X12651134Y-13207222D02*
X12651134Y-13311984D01*
X12651134Y-13207222D02*
X12660658Y-13188174D01*
X12660658Y-13188174D02*
X12679705Y-13178650D01*
X12679705Y-13178650D02*
X12708277Y-13178650D01*
X12708277Y-13178650D02*
X12727324Y-13188174D01*
X12727324Y-13188174D02*
X12736848Y-13207222D01*
X12736848Y-13207222D02*
X12736848Y-13311984D01*
X12832086Y-13311984D02*
X12832086Y-13178650D01*
X12832086Y-13197698D02*
X12841610Y-13188174D01*
X12841610Y-13188174D02*
X12860658Y-13178650D01*
X12860658Y-13178650D02*
X12889229Y-13178650D01*
X12889229Y-13178650D02*
X12908277Y-13188174D01*
X12908277Y-13188174D02*
X12917801Y-13207222D01*
X12917801Y-13207222D02*
X12917801Y-13311984D01*
X12917801Y-13207222D02*
X12927324Y-13188174D01*
X12927324Y-13188174D02*
X12946372Y-13178650D01*
X12946372Y-13178650D02*
X12974943Y-13178650D01*
X12974943Y-13178650D02*
X12993991Y-13188174D01*
X12993991Y-13188174D02*
X13003515Y-13207222D01*
X13003515Y-13207222D02*
X13003515Y-13311984D01*
X13393991Y-13102460D02*
X13222563Y-13359603D01*
X13651134Y-13111984D02*
X13670182Y-13111984D01*
X13670182Y-13111984D02*
X13689229Y-13121508D01*
X13689229Y-13121508D02*
X13698753Y-13131031D01*
X13698753Y-13131031D02*
X13708277Y-13150079D01*
X13708277Y-13150079D02*
X13717801Y-13188174D01*
X13717801Y-13188174D02*
X13717801Y-13235793D01*
X13717801Y-13235793D02*
X13708277Y-13273888D01*
X13708277Y-13273888D02*
X13698753Y-13292936D01*
X13698753Y-13292936D02*
X13689229Y-13302460D01*
X13689229Y-13302460D02*
X13670182Y-13311984D01*
X13670182Y-13311984D02*
X13651134Y-13311984D01*
X13651134Y-13311984D02*
X13632086Y-13302460D01*
X13632086Y-13302460D02*
X13622563Y-13292936D01*
X13622563Y-13292936D02*
X13613039Y-13273888D01*
X13613039Y-13273888D02*
X13603515Y-13235793D01*
X13603515Y-13235793D02*
X13603515Y-13188174D01*
X13603515Y-13188174D02*
X13613039Y-13150079D01*
X13613039Y-13150079D02*
X13622563Y-13131031D01*
X13622563Y-13131031D02*
X13632086Y-13121508D01*
X13632086Y-13121508D02*
X13651134Y-13111984D01*
X13803515Y-13292936D02*
X13813039Y-13302460D01*
X13813039Y-13302460D02*
X13803515Y-13311984D01*
X13803515Y-13311984D02*
X13793991Y-13302460D01*
X13793991Y-13302460D02*
X13803515Y-13292936D01*
X13803515Y-13292936D02*
X13803515Y-13311984D01*
X13936848Y-13111984D02*
X13955896Y-13111984D01*
X13955896Y-13111984D02*
X13974944Y-13121508D01*
X13974944Y-13121508D02*
X13984467Y-13131031D01*
X13984467Y-13131031D02*
X13993991Y-13150079D01*
X13993991Y-13150079D02*
X14003515Y-13188174D01*
X14003515Y-13188174D02*
X14003515Y-13235793D01*
X14003515Y-13235793D02*
X13993991Y-13273888D01*
X13993991Y-13273888D02*
X13984467Y-13292936D01*
X13984467Y-13292936D02*
X13974944Y-13302460D01*
X13974944Y-13302460D02*
X13955896Y-13311984D01*
X13955896Y-13311984D02*
X13936848Y-13311984D01*
X13936848Y-13311984D02*
X13917801Y-13302460D01*
X13917801Y-13302460D02*
X13908277Y-13292936D01*
X13908277Y-13292936D02*
X13898753Y-13273888D01*
X13898753Y-13273888D02*
X13889229Y-13235793D01*
X13889229Y-13235793D02*
X13889229Y-13188174D01*
X13889229Y-13188174D02*
X13898753Y-13150079D01*
X13898753Y-13150079D02*
X13908277Y-13131031D01*
X13908277Y-13131031D02*
X13917801Y-13121508D01*
X13917801Y-13121508D02*
X13936848Y-13111984D01*
X14174944Y-13178650D02*
X14174944Y-13311984D01*
X14127325Y-13102460D02*
X14079706Y-13245317D01*
X14079706Y-13245317D02*
X14203515Y-13245317D01*
X14317801Y-13111984D02*
X14336848Y-13111984D01*
X14336848Y-13111984D02*
X14355896Y-13121508D01*
X14355896Y-13121508D02*
X14365420Y-13131031D01*
X14365420Y-13131031D02*
X14374944Y-13150079D01*
X14374944Y-13150079D02*
X14384467Y-13188174D01*
X14384467Y-13188174D02*
X14384467Y-13235793D01*
X14384467Y-13235793D02*
X14374944Y-13273888D01*
X14374944Y-13273888D02*
X14365420Y-13292936D01*
X14365420Y-13292936D02*
X14355896Y-13302460D01*
X14355896Y-13302460D02*
X14336848Y-13311984D01*
X14336848Y-13311984D02*
X14317801Y-13311984D01*
X14317801Y-13311984D02*
X14298753Y-13302460D01*
X14298753Y-13302460D02*
X14289229Y-13292936D01*
X14289229Y-13292936D02*
X14279706Y-13273888D01*
X14279706Y-13273888D02*
X14270182Y-13235793D01*
X14270182Y-13235793D02*
X14270182Y-13188174D01*
X14270182Y-13188174D02*
X14279706Y-13150079D01*
X14279706Y-13150079D02*
X14289229Y-13131031D01*
X14289229Y-13131031D02*
X14298753Y-13121508D01*
X14298753Y-13121508D02*
X14317801Y-13111984D01*
X14508277Y-13111984D02*
X14527325Y-13111984D01*
X14527325Y-13111984D02*
X14546372Y-13121508D01*
X14546372Y-13121508D02*
X14555896Y-13131031D01*
X14555896Y-13131031D02*
X14565420Y-13150079D01*
X14565420Y-13150079D02*
X14574944Y-13188174D01*
X14574944Y-13188174D02*
X14574944Y-13235793D01*
X14574944Y-13235793D02*
X14565420Y-13273888D01*
X14565420Y-13273888D02*
X14555896Y-13292936D01*
X14555896Y-13292936D02*
X14546372Y-13302460D01*
X14546372Y-13302460D02*
X14527325Y-13311984D01*
X14527325Y-13311984D02*
X14508277Y-13311984D01*
X14508277Y-13311984D02*
X14489229Y-13302460D01*
X14489229Y-13302460D02*
X14479706Y-13292936D01*
X14479706Y-13292936D02*
X14470182Y-13273888D01*
X14470182Y-13273888D02*
X14460658Y-13235793D01*
X14460658Y-13235793D02*
X14460658Y-13188174D01*
X14460658Y-13188174D02*
X14470182Y-13150079D01*
X14470182Y-13150079D02*
X14479706Y-13131031D01*
X14479706Y-13131031D02*
X14489229Y-13121508D01*
X14489229Y-13121508D02*
X14508277Y-13111984D01*
X14651134Y-13111984D02*
X14651134Y-13150079D01*
X14727325Y-13111984D02*
X14727325Y-13150079D01*
X15022563Y-13388174D02*
X15013039Y-13378650D01*
X15013039Y-13378650D02*
X14993991Y-13350079D01*
X14993991Y-13350079D02*
X14984468Y-13331031D01*
X14984468Y-13331031D02*
X14974944Y-13302460D01*
X14974944Y-13302460D02*
X14965420Y-13254841D01*
X14965420Y-13254841D02*
X14965420Y-13216746D01*
X14965420Y-13216746D02*
X14974944Y-13169127D01*
X14974944Y-13169127D02*
X14984468Y-13140555D01*
X14984468Y-13140555D02*
X14993991Y-13121508D01*
X14993991Y-13121508D02*
X15013039Y-13092936D01*
X15013039Y-13092936D02*
X15022563Y-13083412D01*
X15089229Y-13131031D02*
X15098753Y-13121508D01*
X15098753Y-13121508D02*
X15117801Y-13111984D01*
X15117801Y-13111984D02*
X15165420Y-13111984D01*
X15165420Y-13111984D02*
X15184468Y-13121508D01*
X15184468Y-13121508D02*
X15193991Y-13131031D01*
X15193991Y-13131031D02*
X15203515Y-13150079D01*
X15203515Y-13150079D02*
X15203515Y-13169127D01*
X15203515Y-13169127D02*
X15193991Y-13197698D01*
X15193991Y-13197698D02*
X15079706Y-13311984D01*
X15079706Y-13311984D02*
X15203515Y-13311984D01*
X15374944Y-13178650D02*
X15374944Y-13311984D01*
X15327325Y-13102460D02*
X15279706Y-13245317D01*
X15279706Y-13245317D02*
X15403515Y-13245317D01*
X15632087Y-13311984D02*
X15632087Y-13111984D01*
X15717801Y-13311984D02*
X15717801Y-13207222D01*
X15717801Y-13207222D02*
X15708277Y-13188174D01*
X15708277Y-13188174D02*
X15689230Y-13178650D01*
X15689230Y-13178650D02*
X15660658Y-13178650D01*
X15660658Y-13178650D02*
X15641610Y-13188174D01*
X15641610Y-13188174D02*
X15632087Y-13197698D01*
X15841610Y-13311984D02*
X15822563Y-13302460D01*
X15822563Y-13302460D02*
X15813039Y-13292936D01*
X15813039Y-13292936D02*
X15803515Y-13273888D01*
X15803515Y-13273888D02*
X15803515Y-13216746D01*
X15803515Y-13216746D02*
X15813039Y-13197698D01*
X15813039Y-13197698D02*
X15822563Y-13188174D01*
X15822563Y-13188174D02*
X15841610Y-13178650D01*
X15841610Y-13178650D02*
X15870182Y-13178650D01*
X15870182Y-13178650D02*
X15889230Y-13188174D01*
X15889230Y-13188174D02*
X15898753Y-13197698D01*
X15898753Y-13197698D02*
X15908277Y-13216746D01*
X15908277Y-13216746D02*
X15908277Y-13273888D01*
X15908277Y-13273888D02*
X15898753Y-13292936D01*
X15898753Y-13292936D02*
X15889230Y-13302460D01*
X15889230Y-13302460D02*
X15870182Y-13311984D01*
X15870182Y-13311984D02*
X15841610Y-13311984D01*
X16022563Y-13311984D02*
X16003515Y-13302460D01*
X16003515Y-13302460D02*
X15993991Y-13283412D01*
X15993991Y-13283412D02*
X15993991Y-13111984D01*
X16174944Y-13302460D02*
X16155896Y-13311984D01*
X16155896Y-13311984D02*
X16117801Y-13311984D01*
X16117801Y-13311984D02*
X16098753Y-13302460D01*
X16098753Y-13302460D02*
X16089230Y-13283412D01*
X16089230Y-13283412D02*
X16089230Y-13207222D01*
X16089230Y-13207222D02*
X16098753Y-13188174D01*
X16098753Y-13188174D02*
X16117801Y-13178650D01*
X16117801Y-13178650D02*
X16155896Y-13178650D01*
X16155896Y-13178650D02*
X16174944Y-13188174D01*
X16174944Y-13188174D02*
X16184468Y-13207222D01*
X16184468Y-13207222D02*
X16184468Y-13226269D01*
X16184468Y-13226269D02*
X16089230Y-13245317D01*
X16260658Y-13302460D02*
X16279706Y-13311984D01*
X16279706Y-13311984D02*
X16317801Y-13311984D01*
X16317801Y-13311984D02*
X16336849Y-13302460D01*
X16336849Y-13302460D02*
X16346372Y-13283412D01*
X16346372Y-13283412D02*
X16346372Y-13273888D01*
X16346372Y-13273888D02*
X16336849Y-13254841D01*
X16336849Y-13254841D02*
X16317801Y-13245317D01*
X16317801Y-13245317D02*
X16289230Y-13245317D01*
X16289230Y-13245317D02*
X16270182Y-13235793D01*
X16270182Y-13235793D02*
X16260658Y-13216746D01*
X16260658Y-13216746D02*
X16260658Y-13207222D01*
X16260658Y-13207222D02*
X16270182Y-13188174D01*
X16270182Y-13188174D02*
X16289230Y-13178650D01*
X16289230Y-13178650D02*
X16317801Y-13178650D01*
X16317801Y-13178650D02*
X16336849Y-13188174D01*
X16413039Y-13388174D02*
X16422563Y-13378650D01*
X16422563Y-13378650D02*
X16441611Y-13350079D01*
X16441611Y-13350079D02*
X16451134Y-13331031D01*
X16451134Y-13331031D02*
X16460658Y-13302460D01*
X16460658Y-13302460D02*
X16470182Y-13254841D01*
X16470182Y-13254841D02*
X16470182Y-13216746D01*
X16470182Y-13216746D02*
X16460658Y-13169127D01*
X16460658Y-13169127D02*
X16451134Y-13140555D01*
X16451134Y-13140555D02*
X16441611Y-13121508D01*
X16441611Y-13121508D02*
X16422563Y-13092936D01*
X16422563Y-13092936D02*
X16413039Y-13083412D01*
X11418211Y-13555211D02*
X11418211Y-13413789D01*
X11276789Y-13413789D01*
X11276789Y-13555211D01*
X11418211Y-13555211D01*
X11698753Y-13395031D02*
X11708277Y-13385508D01*
X11708277Y-13385508D02*
X11727324Y-13375984D01*
X11727324Y-13375984D02*
X11774943Y-13375984D01*
X11774943Y-13375984D02*
X11793991Y-13385508D01*
X11793991Y-13385508D02*
X11803515Y-13395031D01*
X11803515Y-13395031D02*
X11813039Y-13414079D01*
X11813039Y-13414079D02*
X11813039Y-13433127D01*
X11813039Y-13433127D02*
X11803515Y-13461698D01*
X11803515Y-13461698D02*
X11689229Y-13575984D01*
X11689229Y-13575984D02*
X11813039Y-13575984D01*
X11898753Y-13556936D02*
X11908277Y-13566460D01*
X11908277Y-13566460D02*
X11898753Y-13575984D01*
X11898753Y-13575984D02*
X11889229Y-13566460D01*
X11889229Y-13566460D02*
X11898753Y-13556936D01*
X11898753Y-13556936D02*
X11898753Y-13575984D01*
X11974943Y-13375984D02*
X12108277Y-13375984D01*
X12108277Y-13375984D02*
X12022562Y-13575984D01*
X12279705Y-13375984D02*
X12184467Y-13375984D01*
X12184467Y-13375984D02*
X12174943Y-13471222D01*
X12174943Y-13471222D02*
X12184467Y-13461698D01*
X12184467Y-13461698D02*
X12203515Y-13452174D01*
X12203515Y-13452174D02*
X12251134Y-13452174D01*
X12251134Y-13452174D02*
X12270182Y-13461698D01*
X12270182Y-13461698D02*
X12279705Y-13471222D01*
X12279705Y-13471222D02*
X12289229Y-13490269D01*
X12289229Y-13490269D02*
X12289229Y-13537888D01*
X12289229Y-13537888D02*
X12279705Y-13556936D01*
X12279705Y-13556936D02*
X12270182Y-13566460D01*
X12270182Y-13566460D02*
X12251134Y-13575984D01*
X12251134Y-13575984D02*
X12203515Y-13575984D01*
X12203515Y-13575984D02*
X12184467Y-13566460D01*
X12184467Y-13566460D02*
X12174943Y-13556936D01*
X12413039Y-13375984D02*
X12432086Y-13375984D01*
X12432086Y-13375984D02*
X12451134Y-13385508D01*
X12451134Y-13385508D02*
X12460658Y-13395031D01*
X12460658Y-13395031D02*
X12470182Y-13414079D01*
X12470182Y-13414079D02*
X12479705Y-13452174D01*
X12479705Y-13452174D02*
X12479705Y-13499793D01*
X12479705Y-13499793D02*
X12470182Y-13537888D01*
X12470182Y-13537888D02*
X12460658Y-13556936D01*
X12460658Y-13556936D02*
X12451134Y-13566460D01*
X12451134Y-13566460D02*
X12432086Y-13575984D01*
X12432086Y-13575984D02*
X12413039Y-13575984D01*
X12413039Y-13575984D02*
X12393991Y-13566460D01*
X12393991Y-13566460D02*
X12384467Y-13556936D01*
X12384467Y-13556936D02*
X12374943Y-13537888D01*
X12374943Y-13537888D02*
X12365420Y-13499793D01*
X12365420Y-13499793D02*
X12365420Y-13452174D01*
X12365420Y-13452174D02*
X12374943Y-13414079D01*
X12374943Y-13414079D02*
X12384467Y-13395031D01*
X12384467Y-13395031D02*
X12393991Y-13385508D01*
X12393991Y-13385508D02*
X12413039Y-13375984D01*
X12565420Y-13575984D02*
X12565420Y-13442650D01*
X12565420Y-13461698D02*
X12574943Y-13452174D01*
X12574943Y-13452174D02*
X12593991Y-13442650D01*
X12593991Y-13442650D02*
X12622563Y-13442650D01*
X12622563Y-13442650D02*
X12641610Y-13452174D01*
X12641610Y-13452174D02*
X12651134Y-13471222D01*
X12651134Y-13471222D02*
X12651134Y-13575984D01*
X12651134Y-13471222D02*
X12660658Y-13452174D01*
X12660658Y-13452174D02*
X12679705Y-13442650D01*
X12679705Y-13442650D02*
X12708277Y-13442650D01*
X12708277Y-13442650D02*
X12727324Y-13452174D01*
X12727324Y-13452174D02*
X12736848Y-13471222D01*
X12736848Y-13471222D02*
X12736848Y-13575984D01*
X12832086Y-13575984D02*
X12832086Y-13442650D01*
X12832086Y-13461698D02*
X12841610Y-13452174D01*
X12841610Y-13452174D02*
X12860658Y-13442650D01*
X12860658Y-13442650D02*
X12889229Y-13442650D01*
X12889229Y-13442650D02*
X12908277Y-13452174D01*
X12908277Y-13452174D02*
X12917801Y-13471222D01*
X12917801Y-13471222D02*
X12917801Y-13575984D01*
X12917801Y-13471222D02*
X12927324Y-13452174D01*
X12927324Y-13452174D02*
X12946372Y-13442650D01*
X12946372Y-13442650D02*
X12974943Y-13442650D01*
X12974943Y-13442650D02*
X12993991Y-13452174D01*
X12993991Y-13452174D02*
X13003515Y-13471222D01*
X13003515Y-13471222D02*
X13003515Y-13575984D01*
X13393991Y-13366460D02*
X13222563Y-13623603D01*
X13651134Y-13375984D02*
X13670182Y-13375984D01*
X13670182Y-13375984D02*
X13689229Y-13385508D01*
X13689229Y-13385508D02*
X13698753Y-13395031D01*
X13698753Y-13395031D02*
X13708277Y-13414079D01*
X13708277Y-13414079D02*
X13717801Y-13452174D01*
X13717801Y-13452174D02*
X13717801Y-13499793D01*
X13717801Y-13499793D02*
X13708277Y-13537888D01*
X13708277Y-13537888D02*
X13698753Y-13556936D01*
X13698753Y-13556936D02*
X13689229Y-13566460D01*
X13689229Y-13566460D02*
X13670182Y-13575984D01*
X13670182Y-13575984D02*
X13651134Y-13575984D01*
X13651134Y-13575984D02*
X13632086Y-13566460D01*
X13632086Y-13566460D02*
X13622563Y-13556936D01*
X13622563Y-13556936D02*
X13613039Y-13537888D01*
X13613039Y-13537888D02*
X13603515Y-13499793D01*
X13603515Y-13499793D02*
X13603515Y-13452174D01*
X13603515Y-13452174D02*
X13613039Y-13414079D01*
X13613039Y-13414079D02*
X13622563Y-13395031D01*
X13622563Y-13395031D02*
X13632086Y-13385508D01*
X13632086Y-13385508D02*
X13651134Y-13375984D01*
X13803515Y-13556936D02*
X13813039Y-13566460D01*
X13813039Y-13566460D02*
X13803515Y-13575984D01*
X13803515Y-13575984D02*
X13793991Y-13566460D01*
X13793991Y-13566460D02*
X13803515Y-13556936D01*
X13803515Y-13556936D02*
X13803515Y-13575984D01*
X14003515Y-13575984D02*
X13889229Y-13575984D01*
X13946372Y-13575984D02*
X13946372Y-13375984D01*
X13946372Y-13375984D02*
X13927325Y-13404555D01*
X13927325Y-13404555D02*
X13908277Y-13423603D01*
X13908277Y-13423603D02*
X13889229Y-13433127D01*
X14127325Y-13375984D02*
X14146372Y-13375984D01*
X14146372Y-13375984D02*
X14165420Y-13385508D01*
X14165420Y-13385508D02*
X14174944Y-13395031D01*
X14174944Y-13395031D02*
X14184467Y-13414079D01*
X14184467Y-13414079D02*
X14193991Y-13452174D01*
X14193991Y-13452174D02*
X14193991Y-13499793D01*
X14193991Y-13499793D02*
X14184467Y-13537888D01*
X14184467Y-13537888D02*
X14174944Y-13556936D01*
X14174944Y-13556936D02*
X14165420Y-13566460D01*
X14165420Y-13566460D02*
X14146372Y-13575984D01*
X14146372Y-13575984D02*
X14127325Y-13575984D01*
X14127325Y-13575984D02*
X14108277Y-13566460D01*
X14108277Y-13566460D02*
X14098753Y-13556936D01*
X14098753Y-13556936D02*
X14089229Y-13537888D01*
X14089229Y-13537888D02*
X14079706Y-13499793D01*
X14079706Y-13499793D02*
X14079706Y-13452174D01*
X14079706Y-13452174D02*
X14089229Y-13414079D01*
X14089229Y-13414079D02*
X14098753Y-13395031D01*
X14098753Y-13395031D02*
X14108277Y-13385508D01*
X14108277Y-13385508D02*
X14127325Y-13375984D01*
X14308277Y-13461698D02*
X14289229Y-13452174D01*
X14289229Y-13452174D02*
X14279706Y-13442650D01*
X14279706Y-13442650D02*
X14270182Y-13423603D01*
X14270182Y-13423603D02*
X14270182Y-13414079D01*
X14270182Y-13414079D02*
X14279706Y-13395031D01*
X14279706Y-13395031D02*
X14289229Y-13385508D01*
X14289229Y-13385508D02*
X14308277Y-13375984D01*
X14308277Y-13375984D02*
X14346372Y-13375984D01*
X14346372Y-13375984D02*
X14365420Y-13385508D01*
X14365420Y-13385508D02*
X14374944Y-13395031D01*
X14374944Y-13395031D02*
X14384467Y-13414079D01*
X14384467Y-13414079D02*
X14384467Y-13423603D01*
X14384467Y-13423603D02*
X14374944Y-13442650D01*
X14374944Y-13442650D02*
X14365420Y-13452174D01*
X14365420Y-13452174D02*
X14346372Y-13461698D01*
X14346372Y-13461698D02*
X14308277Y-13461698D01*
X14308277Y-13461698D02*
X14289229Y-13471222D01*
X14289229Y-13471222D02*
X14279706Y-13480746D01*
X14279706Y-13480746D02*
X14270182Y-13499793D01*
X14270182Y-13499793D02*
X14270182Y-13537888D01*
X14270182Y-13537888D02*
X14279706Y-13556936D01*
X14279706Y-13556936D02*
X14289229Y-13566460D01*
X14289229Y-13566460D02*
X14308277Y-13575984D01*
X14308277Y-13575984D02*
X14346372Y-13575984D01*
X14346372Y-13575984D02*
X14365420Y-13566460D01*
X14365420Y-13566460D02*
X14374944Y-13556936D01*
X14374944Y-13556936D02*
X14384467Y-13537888D01*
X14384467Y-13537888D02*
X14384467Y-13499793D01*
X14384467Y-13499793D02*
X14374944Y-13480746D01*
X14374944Y-13480746D02*
X14365420Y-13471222D01*
X14365420Y-13471222D02*
X14346372Y-13461698D01*
X14451134Y-13375984D02*
X14574944Y-13375984D01*
X14574944Y-13375984D02*
X14508277Y-13452174D01*
X14508277Y-13452174D02*
X14536848Y-13452174D01*
X14536848Y-13452174D02*
X14555896Y-13461698D01*
X14555896Y-13461698D02*
X14565420Y-13471222D01*
X14565420Y-13471222D02*
X14574944Y-13490269D01*
X14574944Y-13490269D02*
X14574944Y-13537888D01*
X14574944Y-13537888D02*
X14565420Y-13556936D01*
X14565420Y-13556936D02*
X14555896Y-13566460D01*
X14555896Y-13566460D02*
X14536848Y-13575984D01*
X14536848Y-13575984D02*
X14479706Y-13575984D01*
X14479706Y-13575984D02*
X14460658Y-13566460D01*
X14460658Y-13566460D02*
X14451134Y-13556936D01*
X14651134Y-13375984D02*
X14651134Y-13414079D01*
X14727325Y-13375984D02*
X14727325Y-13414079D01*
X15022563Y-13652174D02*
X15013039Y-13642650D01*
X15013039Y-13642650D02*
X14993991Y-13614079D01*
X14993991Y-13614079D02*
X14984468Y-13595031D01*
X14984468Y-13595031D02*
X14974944Y-13566460D01*
X14974944Y-13566460D02*
X14965420Y-13518841D01*
X14965420Y-13518841D02*
X14965420Y-13480746D01*
X14965420Y-13480746D02*
X14974944Y-13433127D01*
X14974944Y-13433127D02*
X14984468Y-13404555D01*
X14984468Y-13404555D02*
X14993991Y-13385508D01*
X14993991Y-13385508D02*
X15013039Y-13356936D01*
X15013039Y-13356936D02*
X15022563Y-13347412D01*
X15184468Y-13442650D02*
X15184468Y-13575984D01*
X15136848Y-13366460D02*
X15089229Y-13509317D01*
X15089229Y-13509317D02*
X15213039Y-13509317D01*
X15441610Y-13575984D02*
X15441610Y-13375984D01*
X15527325Y-13575984D02*
X15527325Y-13471222D01*
X15527325Y-13471222D02*
X15517801Y-13452174D01*
X15517801Y-13452174D02*
X15498753Y-13442650D01*
X15498753Y-13442650D02*
X15470182Y-13442650D01*
X15470182Y-13442650D02*
X15451134Y-13452174D01*
X15451134Y-13452174D02*
X15441610Y-13461698D01*
X15651134Y-13575984D02*
X15632087Y-13566460D01*
X15632087Y-13566460D02*
X15622563Y-13556936D01*
X15622563Y-13556936D02*
X15613039Y-13537888D01*
X15613039Y-13537888D02*
X15613039Y-13480746D01*
X15613039Y-13480746D02*
X15622563Y-13461698D01*
X15622563Y-13461698D02*
X15632087Y-13452174D01*
X15632087Y-13452174D02*
X15651134Y-13442650D01*
X15651134Y-13442650D02*
X15679706Y-13442650D01*
X15679706Y-13442650D02*
X15698753Y-13452174D01*
X15698753Y-13452174D02*
X15708277Y-13461698D01*
X15708277Y-13461698D02*
X15717801Y-13480746D01*
X15717801Y-13480746D02*
X15717801Y-13537888D01*
X15717801Y-13537888D02*
X15708277Y-13556936D01*
X15708277Y-13556936D02*
X15698753Y-13566460D01*
X15698753Y-13566460D02*
X15679706Y-13575984D01*
X15679706Y-13575984D02*
X15651134Y-13575984D01*
X15832087Y-13575984D02*
X15813039Y-13566460D01*
X15813039Y-13566460D02*
X15803515Y-13547412D01*
X15803515Y-13547412D02*
X15803515Y-13375984D01*
X15984468Y-13566460D02*
X15965420Y-13575984D01*
X15965420Y-13575984D02*
X15927325Y-13575984D01*
X15927325Y-13575984D02*
X15908277Y-13566460D01*
X15908277Y-13566460D02*
X15898753Y-13547412D01*
X15898753Y-13547412D02*
X15898753Y-13471222D01*
X15898753Y-13471222D02*
X15908277Y-13452174D01*
X15908277Y-13452174D02*
X15927325Y-13442650D01*
X15927325Y-13442650D02*
X15965420Y-13442650D01*
X15965420Y-13442650D02*
X15984468Y-13452174D01*
X15984468Y-13452174D02*
X15993991Y-13471222D01*
X15993991Y-13471222D02*
X15993991Y-13490269D01*
X15993991Y-13490269D02*
X15898753Y-13509317D01*
X16070182Y-13566460D02*
X16089230Y-13575984D01*
X16089230Y-13575984D02*
X16127325Y-13575984D01*
X16127325Y-13575984D02*
X16146372Y-13566460D01*
X16146372Y-13566460D02*
X16155896Y-13547412D01*
X16155896Y-13547412D02*
X16155896Y-13537888D01*
X16155896Y-13537888D02*
X16146372Y-13518841D01*
X16146372Y-13518841D02*
X16127325Y-13509317D01*
X16127325Y-13509317D02*
X16098753Y-13509317D01*
X16098753Y-13509317D02*
X16079706Y-13499793D01*
X16079706Y-13499793D02*
X16070182Y-13480746D01*
X16070182Y-13480746D02*
X16070182Y-13471222D01*
X16070182Y-13471222D02*
X16079706Y-13452174D01*
X16079706Y-13452174D02*
X16098753Y-13442650D01*
X16098753Y-13442650D02*
X16127325Y-13442650D01*
X16127325Y-13442650D02*
X16146372Y-13452174D01*
X16222563Y-13652174D02*
X16232087Y-13642650D01*
X16232087Y-13642650D02*
X16251134Y-13614079D01*
X16251134Y-13614079D02*
X16260658Y-13595031D01*
X16260658Y-13595031D02*
X16270182Y-13566460D01*
X16270182Y-13566460D02*
X16279706Y-13518841D01*
X16279706Y-13518841D02*
X16279706Y-13480746D01*
X16279706Y-13480746D02*
X16270182Y-13433127D01*
X16270182Y-13433127D02*
X16260658Y-13404555D01*
X16260658Y-13404555D02*
X16251134Y-13385508D01*
X16251134Y-13385508D02*
X16232087Y-13356936D01*
X16232087Y-13356936D02*
X16222563Y-13347412D01*
M02*
