%TF.GenerationSoftware,KiCad,Pcbnew,8.0.6-8.0.6-0~ubuntu24.04.1*%
%TF.CreationDate,2024-11-24T15:52:50-06:00*%
%TF.ProjectId,edge_human_detection_board,65646765-5f68-4756-9d61-6e5f64657465,rev?*%
%TF.SameCoordinates,Original*%
%TF.FileFunction,Legend,Bot*%
%TF.FilePolarity,Positive*%
%FSLAX46Y46*%
G04 Gerber Fmt 4.6, Leading zero omitted, Abs format (unit mm)*
G04 Created by KiCad (PCBNEW 8.0.6-8.0.6-0~ubuntu24.04.1) date 2024-11-24 15:52:50*
%MOMM*%
%LPD*%
G01*
G04 APERTURE LIST*
%ADD10C,0.150000*%
G04 APERTURE END LIST*
D10*
X129966740Y-66472744D02*
X129966740Y-65872744D01*
X129023883Y-65615601D02*
X129023883Y-66472744D01*
X129023883Y-66472744D02*
X130823883Y-66472744D01*
X130823883Y-66472744D02*
X130823883Y-65615601D01*
X129023883Y-64844173D02*
X130823883Y-64844173D01*
X130823883Y-64844173D02*
X130823883Y-64415602D01*
X130823883Y-64415602D02*
X130738169Y-64158459D01*
X130738169Y-64158459D02*
X130566740Y-63987030D01*
X130566740Y-63987030D02*
X130395312Y-63901316D01*
X130395312Y-63901316D02*
X130052455Y-63815602D01*
X130052455Y-63815602D02*
X129795312Y-63815602D01*
X129795312Y-63815602D02*
X129452455Y-63901316D01*
X129452455Y-63901316D02*
X129281026Y-63987030D01*
X129281026Y-63987030D02*
X129109598Y-64158459D01*
X129109598Y-64158459D02*
X129023883Y-64415602D01*
X129023883Y-64415602D02*
X129023883Y-64844173D01*
X130738169Y-62101316D02*
X130823883Y-62272745D01*
X130823883Y-62272745D02*
X130823883Y-62529887D01*
X130823883Y-62529887D02*
X130738169Y-62787030D01*
X130738169Y-62787030D02*
X130566740Y-62958459D01*
X130566740Y-62958459D02*
X130395312Y-63044173D01*
X130395312Y-63044173D02*
X130052455Y-63129887D01*
X130052455Y-63129887D02*
X129795312Y-63129887D01*
X129795312Y-63129887D02*
X129452455Y-63044173D01*
X129452455Y-63044173D02*
X129281026Y-62958459D01*
X129281026Y-62958459D02*
X129109598Y-62787030D01*
X129109598Y-62787030D02*
X129023883Y-62529887D01*
X129023883Y-62529887D02*
X129023883Y-62358459D01*
X129023883Y-62358459D02*
X129109598Y-62101316D01*
X129109598Y-62101316D02*
X129195312Y-62015602D01*
X129195312Y-62015602D02*
X129795312Y-62015602D01*
X129795312Y-62015602D02*
X129795312Y-62358459D01*
X129966740Y-61244173D02*
X129966740Y-60644173D01*
X129023883Y-60387030D02*
X129023883Y-61244173D01*
X129023883Y-61244173D02*
X130823883Y-61244173D01*
X130823883Y-61244173D02*
X130823883Y-60387030D01*
X129023883Y-58244173D02*
X130823883Y-58244173D01*
X130823883Y-58244173D02*
X130823883Y-57815602D01*
X130823883Y-57815602D02*
X130738169Y-57558459D01*
X130738169Y-57558459D02*
X130566740Y-57387030D01*
X130566740Y-57387030D02*
X130395312Y-57301316D01*
X130395312Y-57301316D02*
X130052455Y-57215602D01*
X130052455Y-57215602D02*
X129795312Y-57215602D01*
X129795312Y-57215602D02*
X129452455Y-57301316D01*
X129452455Y-57301316D02*
X129281026Y-57387030D01*
X129281026Y-57387030D02*
X129109598Y-57558459D01*
X129109598Y-57558459D02*
X129023883Y-57815602D01*
X129023883Y-57815602D02*
X129023883Y-58244173D01*
X129966740Y-56444173D02*
X129966740Y-55844173D01*
X129023883Y-55587030D02*
X129023883Y-56444173D01*
X129023883Y-56444173D02*
X130823883Y-56444173D01*
X130823883Y-56444173D02*
X130823883Y-55587030D01*
X130823883Y-55072745D02*
X130823883Y-54044174D01*
X129023883Y-54558459D02*
X130823883Y-54558459D01*
X129966740Y-53444173D02*
X129966740Y-52844173D01*
X129023883Y-52587030D02*
X129023883Y-53444173D01*
X129023883Y-53444173D02*
X130823883Y-53444173D01*
X130823883Y-53444173D02*
X130823883Y-52587030D01*
X129195312Y-50787031D02*
X129109598Y-50872745D01*
X129109598Y-50872745D02*
X129023883Y-51129888D01*
X129023883Y-51129888D02*
X129023883Y-51301316D01*
X129023883Y-51301316D02*
X129109598Y-51558459D01*
X129109598Y-51558459D02*
X129281026Y-51729888D01*
X129281026Y-51729888D02*
X129452455Y-51815602D01*
X129452455Y-51815602D02*
X129795312Y-51901316D01*
X129795312Y-51901316D02*
X130052455Y-51901316D01*
X130052455Y-51901316D02*
X130395312Y-51815602D01*
X130395312Y-51815602D02*
X130566740Y-51729888D01*
X130566740Y-51729888D02*
X130738169Y-51558459D01*
X130738169Y-51558459D02*
X130823883Y-51301316D01*
X130823883Y-51301316D02*
X130823883Y-51129888D01*
X130823883Y-51129888D02*
X130738169Y-50872745D01*
X130738169Y-50872745D02*
X130652455Y-50787031D01*
X130823883Y-50272745D02*
X130823883Y-49244174D01*
X129023883Y-49758459D02*
X130823883Y-49758459D01*
X129023883Y-48644173D02*
X130823883Y-48644173D01*
X130823883Y-47444173D02*
X130823883Y-47101316D01*
X130823883Y-47101316D02*
X130738169Y-46929887D01*
X130738169Y-46929887D02*
X130566740Y-46758459D01*
X130566740Y-46758459D02*
X130223883Y-46672744D01*
X130223883Y-46672744D02*
X129623883Y-46672744D01*
X129623883Y-46672744D02*
X129281026Y-46758459D01*
X129281026Y-46758459D02*
X129109598Y-46929887D01*
X129109598Y-46929887D02*
X129023883Y-47101316D01*
X129023883Y-47101316D02*
X129023883Y-47444173D01*
X129023883Y-47444173D02*
X129109598Y-47615602D01*
X129109598Y-47615602D02*
X129281026Y-47787030D01*
X129281026Y-47787030D02*
X129623883Y-47872744D01*
X129623883Y-47872744D02*
X130223883Y-47872744D01*
X130223883Y-47872744D02*
X130566740Y-47787030D01*
X130566740Y-47787030D02*
X130738169Y-47615602D01*
X130738169Y-47615602D02*
X130823883Y-47444173D01*
X129023883Y-45901316D02*
X130823883Y-45901316D01*
X130823883Y-45901316D02*
X129023883Y-44872745D01*
X129023883Y-44872745D02*
X130823883Y-44872745D01*
X129966740Y-42044173D02*
X129881026Y-41787030D01*
X129881026Y-41787030D02*
X129795312Y-41701316D01*
X129795312Y-41701316D02*
X129623883Y-41615602D01*
X129623883Y-41615602D02*
X129366740Y-41615602D01*
X129366740Y-41615602D02*
X129195312Y-41701316D01*
X129195312Y-41701316D02*
X129109598Y-41787030D01*
X129109598Y-41787030D02*
X129023883Y-41958459D01*
X129023883Y-41958459D02*
X129023883Y-42644173D01*
X129023883Y-42644173D02*
X130823883Y-42644173D01*
X130823883Y-42644173D02*
X130823883Y-42044173D01*
X130823883Y-42044173D02*
X130738169Y-41872745D01*
X130738169Y-41872745D02*
X130652455Y-41787030D01*
X130652455Y-41787030D02*
X130481026Y-41701316D01*
X130481026Y-41701316D02*
X130309598Y-41701316D01*
X130309598Y-41701316D02*
X130138169Y-41787030D01*
X130138169Y-41787030D02*
X130052455Y-41872745D01*
X130052455Y-41872745D02*
X129966740Y-42044173D01*
X129966740Y-42044173D02*
X129966740Y-42644173D01*
X130823883Y-40501316D02*
X130823883Y-40158459D01*
X130823883Y-40158459D02*
X130738169Y-39987030D01*
X130738169Y-39987030D02*
X130566740Y-39815602D01*
X130566740Y-39815602D02*
X130223883Y-39729887D01*
X130223883Y-39729887D02*
X129623883Y-39729887D01*
X129623883Y-39729887D02*
X129281026Y-39815602D01*
X129281026Y-39815602D02*
X129109598Y-39987030D01*
X129109598Y-39987030D02*
X129023883Y-40158459D01*
X129023883Y-40158459D02*
X129023883Y-40501316D01*
X129023883Y-40501316D02*
X129109598Y-40672745D01*
X129109598Y-40672745D02*
X129281026Y-40844173D01*
X129281026Y-40844173D02*
X129623883Y-40929887D01*
X129623883Y-40929887D02*
X130223883Y-40929887D01*
X130223883Y-40929887D02*
X130566740Y-40844173D01*
X130566740Y-40844173D02*
X130738169Y-40672745D01*
X130738169Y-40672745D02*
X130823883Y-40501316D01*
X129538169Y-39044173D02*
X129538169Y-38187031D01*
X129023883Y-39215602D02*
X130823883Y-38615602D01*
X130823883Y-38615602D02*
X129023883Y-38015602D01*
X129023883Y-36387031D02*
X129881026Y-36987031D01*
X129023883Y-37415602D02*
X130823883Y-37415602D01*
X130823883Y-37415602D02*
X130823883Y-36729888D01*
X130823883Y-36729888D02*
X130738169Y-36558459D01*
X130738169Y-36558459D02*
X130652455Y-36472745D01*
X130652455Y-36472745D02*
X130481026Y-36387031D01*
X130481026Y-36387031D02*
X130223883Y-36387031D01*
X130223883Y-36387031D02*
X130052455Y-36472745D01*
X130052455Y-36472745D02*
X129966740Y-36558459D01*
X129966740Y-36558459D02*
X129881026Y-36729888D01*
X129881026Y-36729888D02*
X129881026Y-37415602D01*
X129023883Y-35615602D02*
X130823883Y-35615602D01*
X130823883Y-35615602D02*
X130823883Y-35187031D01*
X130823883Y-35187031D02*
X130738169Y-34929888D01*
X130738169Y-34929888D02*
X130566740Y-34758459D01*
X130566740Y-34758459D02*
X130395312Y-34672745D01*
X130395312Y-34672745D02*
X130052455Y-34587031D01*
X130052455Y-34587031D02*
X129795312Y-34587031D01*
X129795312Y-34587031D02*
X129452455Y-34672745D01*
X129452455Y-34672745D02*
X129281026Y-34758459D01*
X129281026Y-34758459D02*
X129109598Y-34929888D01*
X129109598Y-34929888D02*
X129023883Y-35187031D01*
X129023883Y-35187031D02*
X129023883Y-35615602D01*
X126125984Y-65444173D02*
X126983127Y-66044173D01*
X126125984Y-66472744D02*
X127925984Y-66472744D01*
X127925984Y-66472744D02*
X127925984Y-65787030D01*
X127925984Y-65787030D02*
X127840270Y-65615601D01*
X127840270Y-65615601D02*
X127754556Y-65529887D01*
X127754556Y-65529887D02*
X127583127Y-65444173D01*
X127583127Y-65444173D02*
X127325984Y-65444173D01*
X127325984Y-65444173D02*
X127154556Y-65529887D01*
X127154556Y-65529887D02*
X127068841Y-65615601D01*
X127068841Y-65615601D02*
X126983127Y-65787030D01*
X126983127Y-65787030D02*
X126983127Y-66472744D01*
X127068841Y-64672744D02*
X127068841Y-64072744D01*
X126125984Y-63815601D02*
X126125984Y-64672744D01*
X126125984Y-64672744D02*
X127925984Y-64672744D01*
X127925984Y-64672744D02*
X127925984Y-63815601D01*
X127925984Y-63301316D02*
X126125984Y-62701316D01*
X126125984Y-62701316D02*
X127925984Y-62101316D01*
X126125984Y-59187030D02*
X126125984Y-60215601D01*
X126125984Y-59701316D02*
X127925984Y-59701316D01*
X127925984Y-59701316D02*
X127668841Y-59872744D01*
X127668841Y-59872744D02*
X127497413Y-60044173D01*
X127497413Y-60044173D02*
X127411699Y-60215601D01*
X126297413Y-58415601D02*
X126211699Y-58329887D01*
X126211699Y-58329887D02*
X126125984Y-58415601D01*
X126125984Y-58415601D02*
X126211699Y-58501315D01*
X126211699Y-58501315D02*
X126297413Y-58415601D01*
X126297413Y-58415601D02*
X126125984Y-58415601D01*
X127925984Y-57215601D02*
X127925984Y-57044172D01*
X127925984Y-57044172D02*
X127840270Y-56872744D01*
X127840270Y-56872744D02*
X127754556Y-56787030D01*
X127754556Y-56787030D02*
X127583127Y-56701315D01*
X127583127Y-56701315D02*
X127240270Y-56615601D01*
X127240270Y-56615601D02*
X126811699Y-56615601D01*
X126811699Y-56615601D02*
X126468841Y-56701315D01*
X126468841Y-56701315D02*
X126297413Y-56787030D01*
X126297413Y-56787030D02*
X126211699Y-56872744D01*
X126211699Y-56872744D02*
X126125984Y-57044172D01*
X126125984Y-57044172D02*
X126125984Y-57215601D01*
X126125984Y-57215601D02*
X126211699Y-57387030D01*
X126211699Y-57387030D02*
X126297413Y-57472744D01*
X126297413Y-57472744D02*
X126468841Y-57558458D01*
X126468841Y-57558458D02*
X126811699Y-57644172D01*
X126811699Y-57644172D02*
X127240270Y-57644172D01*
X127240270Y-57644172D02*
X127583127Y-57558458D01*
X127583127Y-57558458D02*
X127754556Y-57472744D01*
X127754556Y-57472744D02*
X127840270Y-57387030D01*
X127840270Y-57387030D02*
X127925984Y-57215601D01*
X126297413Y-55844172D02*
X126211699Y-55758458D01*
X126211699Y-55758458D02*
X126125984Y-55844172D01*
X126125984Y-55844172D02*
X126211699Y-55929886D01*
X126211699Y-55929886D02*
X126297413Y-55844172D01*
X126297413Y-55844172D02*
X126125984Y-55844172D01*
X127925984Y-54644172D02*
X127925984Y-54472743D01*
X127925984Y-54472743D02*
X127840270Y-54301315D01*
X127840270Y-54301315D02*
X127754556Y-54215601D01*
X127754556Y-54215601D02*
X127583127Y-54129886D01*
X127583127Y-54129886D02*
X127240270Y-54044172D01*
X127240270Y-54044172D02*
X126811699Y-54044172D01*
X126811699Y-54044172D02*
X126468841Y-54129886D01*
X126468841Y-54129886D02*
X126297413Y-54215601D01*
X126297413Y-54215601D02*
X126211699Y-54301315D01*
X126211699Y-54301315D02*
X126125984Y-54472743D01*
X126125984Y-54472743D02*
X126125984Y-54644172D01*
X126125984Y-54644172D02*
X126211699Y-54815601D01*
X126211699Y-54815601D02*
X126297413Y-54901315D01*
X126297413Y-54901315D02*
X126468841Y-54987029D01*
X126468841Y-54987029D02*
X126811699Y-55072743D01*
X126811699Y-55072743D02*
X127240270Y-55072743D01*
X127240270Y-55072743D02*
X127583127Y-54987029D01*
X127583127Y-54987029D02*
X127754556Y-54901315D01*
X127754556Y-54901315D02*
X127840270Y-54815601D01*
X127840270Y-54815601D02*
X127925984Y-54644172D01*
X124170942Y-65872744D02*
X124085228Y-65615601D01*
X124085228Y-65615601D02*
X123999514Y-65529887D01*
X123999514Y-65529887D02*
X123828085Y-65444173D01*
X123828085Y-65444173D02*
X123570942Y-65444173D01*
X123570942Y-65444173D02*
X123399514Y-65529887D01*
X123399514Y-65529887D02*
X123313800Y-65615601D01*
X123313800Y-65615601D02*
X123228085Y-65787030D01*
X123228085Y-65787030D02*
X123228085Y-66472744D01*
X123228085Y-66472744D02*
X125028085Y-66472744D01*
X125028085Y-66472744D02*
X125028085Y-65872744D01*
X125028085Y-65872744D02*
X124942371Y-65701316D01*
X124942371Y-65701316D02*
X124856657Y-65615601D01*
X124856657Y-65615601D02*
X124685228Y-65529887D01*
X124685228Y-65529887D02*
X124513800Y-65529887D01*
X124513800Y-65529887D02*
X124342371Y-65615601D01*
X124342371Y-65615601D02*
X124256657Y-65701316D01*
X124256657Y-65701316D02*
X124170942Y-65872744D01*
X124170942Y-65872744D02*
X124170942Y-66472744D01*
X124085228Y-64329887D02*
X123228085Y-64329887D01*
X125028085Y-64929887D02*
X124085228Y-64329887D01*
X124085228Y-64329887D02*
X125028085Y-63729887D01*
X125028085Y-61244172D02*
X123742371Y-61244172D01*
X123742371Y-61244172D02*
X123485228Y-61329887D01*
X123485228Y-61329887D02*
X123313800Y-61501315D01*
X123313800Y-61501315D02*
X123228085Y-61758458D01*
X123228085Y-61758458D02*
X123228085Y-61929887D01*
X123399514Y-59358458D02*
X123313800Y-59444172D01*
X123313800Y-59444172D02*
X123228085Y-59701315D01*
X123228085Y-59701315D02*
X123228085Y-59872743D01*
X123228085Y-59872743D02*
X123313800Y-60129886D01*
X123313800Y-60129886D02*
X123485228Y-60301315D01*
X123485228Y-60301315D02*
X123656657Y-60387029D01*
X123656657Y-60387029D02*
X123999514Y-60472743D01*
X123999514Y-60472743D02*
X124256657Y-60472743D01*
X124256657Y-60472743D02*
X124599514Y-60387029D01*
X124599514Y-60387029D02*
X124770942Y-60301315D01*
X124770942Y-60301315D02*
X124942371Y-60129886D01*
X124942371Y-60129886D02*
X125028085Y-59872743D01*
X125028085Y-59872743D02*
X125028085Y-59701315D01*
X125028085Y-59701315D02*
X124942371Y-59444172D01*
X124942371Y-59444172D02*
X124856657Y-59358458D01*
X150642856Y-84064295D02*
X150185713Y-84064295D01*
X150414285Y-84864295D02*
X150414285Y-84064295D01*
X149919046Y-84864295D02*
X149919046Y-84064295D01*
X149919046Y-84064295D02*
X149614284Y-84064295D01*
X149614284Y-84064295D02*
X149538094Y-84102390D01*
X149538094Y-84102390D02*
X149499999Y-84140485D01*
X149499999Y-84140485D02*
X149461903Y-84216676D01*
X149461903Y-84216676D02*
X149461903Y-84330961D01*
X149461903Y-84330961D02*
X149499999Y-84407152D01*
X149499999Y-84407152D02*
X149538094Y-84445247D01*
X149538094Y-84445247D02*
X149614284Y-84483342D01*
X149614284Y-84483342D02*
X149919046Y-84483342D01*
X148699999Y-84864295D02*
X149157142Y-84864295D01*
X148928570Y-84864295D02*
X148928570Y-84064295D01*
X148928570Y-84064295D02*
X149004761Y-84178580D01*
X149004761Y-84178580D02*
X149080951Y-84254771D01*
X149080951Y-84254771D02*
X149157142Y-84292866D01*
X148014284Y-84330961D02*
X148014284Y-84864295D01*
X148204760Y-84026200D02*
X148395237Y-84597628D01*
X148395237Y-84597628D02*
X147899998Y-84597628D01*
X147366665Y-85169057D02*
X147404760Y-85130961D01*
X147404760Y-85130961D02*
X147480951Y-85016676D01*
X147480951Y-85016676D02*
X147519046Y-84940485D01*
X147519046Y-84940485D02*
X147557141Y-84826200D01*
X147557141Y-84826200D02*
X147595236Y-84635723D01*
X147595236Y-84635723D02*
X147595236Y-84483342D01*
X147595236Y-84483342D02*
X147557141Y-84292866D01*
X147557141Y-84292866D02*
X147519046Y-84178580D01*
X147519046Y-84178580D02*
X147480951Y-84102390D01*
X147480951Y-84102390D02*
X147404760Y-83988104D01*
X147404760Y-83988104D02*
X147366665Y-83950009D01*
X146642856Y-84102390D02*
X146719046Y-84064295D01*
X146719046Y-84064295D02*
X146833332Y-84064295D01*
X146833332Y-84064295D02*
X146947618Y-84102390D01*
X146947618Y-84102390D02*
X147023808Y-84178580D01*
X147023808Y-84178580D02*
X147061903Y-84254771D01*
X147061903Y-84254771D02*
X147099999Y-84407152D01*
X147099999Y-84407152D02*
X147099999Y-84521438D01*
X147099999Y-84521438D02*
X147061903Y-84673819D01*
X147061903Y-84673819D02*
X147023808Y-84750009D01*
X147023808Y-84750009D02*
X146947618Y-84826200D01*
X146947618Y-84826200D02*
X146833332Y-84864295D01*
X146833332Y-84864295D02*
X146757141Y-84864295D01*
X146757141Y-84864295D02*
X146642856Y-84826200D01*
X146642856Y-84826200D02*
X146604760Y-84788104D01*
X146604760Y-84788104D02*
X146604760Y-84521438D01*
X146604760Y-84521438D02*
X146757141Y-84521438D01*
X146261903Y-84864295D02*
X146261903Y-84064295D01*
X146261903Y-84064295D02*
X145804760Y-84864295D01*
X145804760Y-84864295D02*
X145804760Y-84064295D01*
X145423808Y-84864295D02*
X145423808Y-84064295D01*
X145423808Y-84064295D02*
X145233332Y-84064295D01*
X145233332Y-84064295D02*
X145119046Y-84102390D01*
X145119046Y-84102390D02*
X145042856Y-84178580D01*
X145042856Y-84178580D02*
X145004761Y-84254771D01*
X145004761Y-84254771D02*
X144966665Y-84407152D01*
X144966665Y-84407152D02*
X144966665Y-84521438D01*
X144966665Y-84521438D02*
X145004761Y-84673819D01*
X145004761Y-84673819D02*
X145042856Y-84750009D01*
X145042856Y-84750009D02*
X145119046Y-84826200D01*
X145119046Y-84826200D02*
X145233332Y-84864295D01*
X145233332Y-84864295D02*
X145423808Y-84864295D01*
X144699999Y-85169057D02*
X144661904Y-85130961D01*
X144661904Y-85130961D02*
X144585713Y-85016676D01*
X144585713Y-85016676D02*
X144547618Y-84940485D01*
X144547618Y-84940485D02*
X144509523Y-84826200D01*
X144509523Y-84826200D02*
X144471427Y-84635723D01*
X144471427Y-84635723D02*
X144471427Y-84483342D01*
X144471427Y-84483342D02*
X144509523Y-84292866D01*
X144509523Y-84292866D02*
X144547618Y-84178580D01*
X144547618Y-84178580D02*
X144585713Y-84102390D01*
X144585713Y-84102390D02*
X144661904Y-83988104D01*
X144661904Y-83988104D02*
X144699999Y-83950009D01*
X145923809Y-62564295D02*
X145466666Y-62564295D01*
X145695238Y-63364295D02*
X145695238Y-62564295D01*
X145199999Y-63364295D02*
X145199999Y-62564295D01*
X145199999Y-62564295D02*
X144895237Y-62564295D01*
X144895237Y-62564295D02*
X144819047Y-62602390D01*
X144819047Y-62602390D02*
X144780952Y-62640485D01*
X144780952Y-62640485D02*
X144742856Y-62716676D01*
X144742856Y-62716676D02*
X144742856Y-62830961D01*
X144742856Y-62830961D02*
X144780952Y-62907152D01*
X144780952Y-62907152D02*
X144819047Y-62945247D01*
X144819047Y-62945247D02*
X144895237Y-62983342D01*
X144895237Y-62983342D02*
X145199999Y-62983342D01*
X143980952Y-63364295D02*
X144438095Y-63364295D01*
X144209523Y-63364295D02*
X144209523Y-62564295D01*
X144209523Y-62564295D02*
X144285714Y-62678580D01*
X144285714Y-62678580D02*
X144361904Y-62754771D01*
X144361904Y-62754771D02*
X144438095Y-62792866D01*
X143714285Y-62564295D02*
X143219047Y-62564295D01*
X143219047Y-62564295D02*
X143485713Y-62869057D01*
X143485713Y-62869057D02*
X143371428Y-62869057D01*
X143371428Y-62869057D02*
X143295237Y-62907152D01*
X143295237Y-62907152D02*
X143257142Y-62945247D01*
X143257142Y-62945247D02*
X143219047Y-63021438D01*
X143219047Y-63021438D02*
X143219047Y-63211914D01*
X143219047Y-63211914D02*
X143257142Y-63288104D01*
X143257142Y-63288104D02*
X143295237Y-63326200D01*
X143295237Y-63326200D02*
X143371428Y-63364295D01*
X143371428Y-63364295D02*
X143599999Y-63364295D01*
X143599999Y-63364295D02*
X143676190Y-63326200D01*
X143676190Y-63326200D02*
X143714285Y-63288104D01*
X142647618Y-63669057D02*
X142685713Y-63630961D01*
X142685713Y-63630961D02*
X142761904Y-63516676D01*
X142761904Y-63516676D02*
X142799999Y-63440485D01*
X142799999Y-63440485D02*
X142838094Y-63326200D01*
X142838094Y-63326200D02*
X142876189Y-63135723D01*
X142876189Y-63135723D02*
X142876189Y-62983342D01*
X142876189Y-62983342D02*
X142838094Y-62792866D01*
X142838094Y-62792866D02*
X142799999Y-62678580D01*
X142799999Y-62678580D02*
X142761904Y-62602390D01*
X142761904Y-62602390D02*
X142685713Y-62488104D01*
X142685713Y-62488104D02*
X142647618Y-62450009D01*
X142342856Y-63364295D02*
X142342856Y-62564295D01*
X142342856Y-62564295D02*
X142038094Y-62564295D01*
X142038094Y-62564295D02*
X141961904Y-62602390D01*
X141961904Y-62602390D02*
X141923809Y-62640485D01*
X141923809Y-62640485D02*
X141885713Y-62716676D01*
X141885713Y-62716676D02*
X141885713Y-62830961D01*
X141885713Y-62830961D02*
X141923809Y-62907152D01*
X141923809Y-62907152D02*
X141961904Y-62945247D01*
X141961904Y-62945247D02*
X142038094Y-62983342D01*
X142038094Y-62983342D02*
X142342856Y-62983342D01*
X141619047Y-62564295D02*
X141428571Y-63364295D01*
X141428571Y-63364295D02*
X141276190Y-62792866D01*
X141276190Y-62792866D02*
X141123809Y-63364295D01*
X141123809Y-63364295D02*
X140933333Y-62564295D01*
X140628570Y-63364295D02*
X140628570Y-62564295D01*
X140628570Y-62564295D02*
X140361904Y-63135723D01*
X140361904Y-63135723D02*
X140095237Y-62564295D01*
X140095237Y-62564295D02*
X140095237Y-63364295D01*
X139904761Y-63440485D02*
X139295237Y-63440485D01*
X138685713Y-63364295D02*
X139142856Y-63364295D01*
X138914284Y-63364295D02*
X138914284Y-62564295D01*
X138914284Y-62564295D02*
X138990475Y-62678580D01*
X138990475Y-62678580D02*
X139066665Y-62754771D01*
X139066665Y-62754771D02*
X139142856Y-62792866D01*
X138419046Y-63669057D02*
X138380951Y-63630961D01*
X138380951Y-63630961D02*
X138304760Y-63516676D01*
X138304760Y-63516676D02*
X138266665Y-63440485D01*
X138266665Y-63440485D02*
X138228570Y-63326200D01*
X138228570Y-63326200D02*
X138190474Y-63135723D01*
X138190474Y-63135723D02*
X138190474Y-62983342D01*
X138190474Y-62983342D02*
X138228570Y-62792866D01*
X138228570Y-62792866D02*
X138266665Y-62678580D01*
X138266665Y-62678580D02*
X138304760Y-62602390D01*
X138304760Y-62602390D02*
X138380951Y-62488104D01*
X138380951Y-62488104D02*
X138419046Y-62450009D01*
X145142856Y-57564295D02*
X144685713Y-57564295D01*
X144914285Y-58364295D02*
X144914285Y-57564295D01*
X144419046Y-58364295D02*
X144419046Y-57564295D01*
X144419046Y-57564295D02*
X144114284Y-57564295D01*
X144114284Y-57564295D02*
X144038094Y-57602390D01*
X144038094Y-57602390D02*
X143999999Y-57640485D01*
X143999999Y-57640485D02*
X143961903Y-57716676D01*
X143961903Y-57716676D02*
X143961903Y-57830961D01*
X143961903Y-57830961D02*
X143999999Y-57907152D01*
X143999999Y-57907152D02*
X144038094Y-57945247D01*
X144038094Y-57945247D02*
X144114284Y-57983342D01*
X144114284Y-57983342D02*
X144419046Y-57983342D01*
X143199999Y-58364295D02*
X143657142Y-58364295D01*
X143428570Y-58364295D02*
X143428570Y-57564295D01*
X143428570Y-57564295D02*
X143504761Y-57678580D01*
X143504761Y-57678580D02*
X143580951Y-57754771D01*
X143580951Y-57754771D02*
X143657142Y-57792866D01*
X142895237Y-57640485D02*
X142857141Y-57602390D01*
X142857141Y-57602390D02*
X142780951Y-57564295D01*
X142780951Y-57564295D02*
X142590475Y-57564295D01*
X142590475Y-57564295D02*
X142514284Y-57602390D01*
X142514284Y-57602390D02*
X142476189Y-57640485D01*
X142476189Y-57640485D02*
X142438094Y-57716676D01*
X142438094Y-57716676D02*
X142438094Y-57792866D01*
X142438094Y-57792866D02*
X142476189Y-57907152D01*
X142476189Y-57907152D02*
X142933332Y-58364295D01*
X142933332Y-58364295D02*
X142438094Y-58364295D01*
X141866665Y-58669057D02*
X141904760Y-58630961D01*
X141904760Y-58630961D02*
X141980951Y-58516676D01*
X141980951Y-58516676D02*
X142019046Y-58440485D01*
X142019046Y-58440485D02*
X142057141Y-58326200D01*
X142057141Y-58326200D02*
X142095236Y-58135723D01*
X142095236Y-58135723D02*
X142095236Y-57983342D01*
X142095236Y-57983342D02*
X142057141Y-57792866D01*
X142057141Y-57792866D02*
X142019046Y-57678580D01*
X142019046Y-57678580D02*
X141980951Y-57602390D01*
X141980951Y-57602390D02*
X141904760Y-57488104D01*
X141904760Y-57488104D02*
X141866665Y-57450009D01*
X141142856Y-57602390D02*
X141219046Y-57564295D01*
X141219046Y-57564295D02*
X141333332Y-57564295D01*
X141333332Y-57564295D02*
X141447618Y-57602390D01*
X141447618Y-57602390D02*
X141523808Y-57678580D01*
X141523808Y-57678580D02*
X141561903Y-57754771D01*
X141561903Y-57754771D02*
X141599999Y-57907152D01*
X141599999Y-57907152D02*
X141599999Y-58021438D01*
X141599999Y-58021438D02*
X141561903Y-58173819D01*
X141561903Y-58173819D02*
X141523808Y-58250009D01*
X141523808Y-58250009D02*
X141447618Y-58326200D01*
X141447618Y-58326200D02*
X141333332Y-58364295D01*
X141333332Y-58364295D02*
X141257141Y-58364295D01*
X141257141Y-58364295D02*
X141142856Y-58326200D01*
X141142856Y-58326200D02*
X141104760Y-58288104D01*
X141104760Y-58288104D02*
X141104760Y-58021438D01*
X141104760Y-58021438D02*
X141257141Y-58021438D01*
X140761903Y-58364295D02*
X140761903Y-57564295D01*
X140761903Y-57564295D02*
X140304760Y-58364295D01*
X140304760Y-58364295D02*
X140304760Y-57564295D01*
X139923808Y-58364295D02*
X139923808Y-57564295D01*
X139923808Y-57564295D02*
X139733332Y-57564295D01*
X139733332Y-57564295D02*
X139619046Y-57602390D01*
X139619046Y-57602390D02*
X139542856Y-57678580D01*
X139542856Y-57678580D02*
X139504761Y-57754771D01*
X139504761Y-57754771D02*
X139466665Y-57907152D01*
X139466665Y-57907152D02*
X139466665Y-58021438D01*
X139466665Y-58021438D02*
X139504761Y-58173819D01*
X139504761Y-58173819D02*
X139542856Y-58250009D01*
X139542856Y-58250009D02*
X139619046Y-58326200D01*
X139619046Y-58326200D02*
X139733332Y-58364295D01*
X139733332Y-58364295D02*
X139923808Y-58364295D01*
X139199999Y-58669057D02*
X139161904Y-58630961D01*
X139161904Y-58630961D02*
X139085713Y-58516676D01*
X139085713Y-58516676D02*
X139047618Y-58440485D01*
X139047618Y-58440485D02*
X139009523Y-58326200D01*
X139009523Y-58326200D02*
X138971427Y-58135723D01*
X138971427Y-58135723D02*
X138971427Y-57983342D01*
X138971427Y-57983342D02*
X139009523Y-57792866D01*
X139009523Y-57792866D02*
X139047618Y-57678580D01*
X139047618Y-57678580D02*
X139085713Y-57602390D01*
X139085713Y-57602390D02*
X139161904Y-57488104D01*
X139161904Y-57488104D02*
X139199999Y-57450009D01*
X150547618Y-79564295D02*
X150090475Y-79564295D01*
X150319047Y-80364295D02*
X150319047Y-79564295D01*
X149823808Y-80364295D02*
X149823808Y-79564295D01*
X149823808Y-79564295D02*
X149519046Y-79564295D01*
X149519046Y-79564295D02*
X149442856Y-79602390D01*
X149442856Y-79602390D02*
X149404761Y-79640485D01*
X149404761Y-79640485D02*
X149366665Y-79716676D01*
X149366665Y-79716676D02*
X149366665Y-79830961D01*
X149366665Y-79830961D02*
X149404761Y-79907152D01*
X149404761Y-79907152D02*
X149442856Y-79945247D01*
X149442856Y-79945247D02*
X149519046Y-79983342D01*
X149519046Y-79983342D02*
X149823808Y-79983342D01*
X148604761Y-80364295D02*
X149061904Y-80364295D01*
X148833332Y-80364295D02*
X148833332Y-79564295D01*
X148833332Y-79564295D02*
X148909523Y-79678580D01*
X148909523Y-79678580D02*
X148985713Y-79754771D01*
X148985713Y-79754771D02*
X149061904Y-79792866D01*
X147842856Y-80364295D02*
X148299999Y-80364295D01*
X148071427Y-80364295D02*
X148071427Y-79564295D01*
X148071427Y-79564295D02*
X148147618Y-79678580D01*
X148147618Y-79678580D02*
X148223808Y-79754771D01*
X148223808Y-79754771D02*
X148299999Y-79792866D01*
X147271427Y-80669057D02*
X147309522Y-80630961D01*
X147309522Y-80630961D02*
X147385713Y-80516676D01*
X147385713Y-80516676D02*
X147423808Y-80440485D01*
X147423808Y-80440485D02*
X147461903Y-80326200D01*
X147461903Y-80326200D02*
X147499998Y-80135723D01*
X147499998Y-80135723D02*
X147499998Y-79983342D01*
X147499998Y-79983342D02*
X147461903Y-79792866D01*
X147461903Y-79792866D02*
X147423808Y-79678580D01*
X147423808Y-79678580D02*
X147385713Y-79602390D01*
X147385713Y-79602390D02*
X147309522Y-79488104D01*
X147309522Y-79488104D02*
X147271427Y-79450009D01*
X147004761Y-80326200D02*
X146890475Y-80364295D01*
X146890475Y-80364295D02*
X146699999Y-80364295D01*
X146699999Y-80364295D02*
X146623808Y-80326200D01*
X146623808Y-80326200D02*
X146585713Y-80288104D01*
X146585713Y-80288104D02*
X146547618Y-80211914D01*
X146547618Y-80211914D02*
X146547618Y-80135723D01*
X146547618Y-80135723D02*
X146585713Y-80059533D01*
X146585713Y-80059533D02*
X146623808Y-80021438D01*
X146623808Y-80021438D02*
X146699999Y-79983342D01*
X146699999Y-79983342D02*
X146852380Y-79945247D01*
X146852380Y-79945247D02*
X146928570Y-79907152D01*
X146928570Y-79907152D02*
X146966665Y-79869057D01*
X146966665Y-79869057D02*
X147004761Y-79792866D01*
X147004761Y-79792866D02*
X147004761Y-79716676D01*
X147004761Y-79716676D02*
X146966665Y-79640485D01*
X146966665Y-79640485D02*
X146928570Y-79602390D01*
X146928570Y-79602390D02*
X146852380Y-79564295D01*
X146852380Y-79564295D02*
X146661903Y-79564295D01*
X146661903Y-79564295D02*
X146547618Y-79602390D01*
X146204760Y-80364295D02*
X146204760Y-79564295D01*
X146204760Y-79564295D02*
X146014284Y-79564295D01*
X146014284Y-79564295D02*
X145899998Y-79602390D01*
X145899998Y-79602390D02*
X145823808Y-79678580D01*
X145823808Y-79678580D02*
X145785713Y-79754771D01*
X145785713Y-79754771D02*
X145747617Y-79907152D01*
X145747617Y-79907152D02*
X145747617Y-80021438D01*
X145747617Y-80021438D02*
X145785713Y-80173819D01*
X145785713Y-80173819D02*
X145823808Y-80250009D01*
X145823808Y-80250009D02*
X145899998Y-80326200D01*
X145899998Y-80326200D02*
X146014284Y-80364295D01*
X146014284Y-80364295D02*
X146204760Y-80364295D01*
X145442856Y-80135723D02*
X145061903Y-80135723D01*
X145519046Y-80364295D02*
X145252379Y-79564295D01*
X145252379Y-79564295D02*
X144985713Y-80364295D01*
X144795237Y-80669057D02*
X144757142Y-80630961D01*
X144757142Y-80630961D02*
X144680951Y-80516676D01*
X144680951Y-80516676D02*
X144642856Y-80440485D01*
X144642856Y-80440485D02*
X144604761Y-80326200D01*
X144604761Y-80326200D02*
X144566665Y-80135723D01*
X144566665Y-80135723D02*
X144566665Y-79983342D01*
X144566665Y-79983342D02*
X144604761Y-79792866D01*
X144604761Y-79792866D02*
X144642856Y-79678580D01*
X144642856Y-79678580D02*
X144680951Y-79602390D01*
X144680951Y-79602390D02*
X144757142Y-79488104D01*
X144757142Y-79488104D02*
X144795237Y-79450009D01*
X157142856Y-64064295D02*
X156685713Y-64064295D01*
X156914285Y-64864295D02*
X156914285Y-64064295D01*
X156419046Y-64864295D02*
X156419046Y-64064295D01*
X156419046Y-64064295D02*
X156114284Y-64064295D01*
X156114284Y-64064295D02*
X156038094Y-64102390D01*
X156038094Y-64102390D02*
X155999999Y-64140485D01*
X155999999Y-64140485D02*
X155961903Y-64216676D01*
X155961903Y-64216676D02*
X155961903Y-64330961D01*
X155961903Y-64330961D02*
X155999999Y-64407152D01*
X155999999Y-64407152D02*
X156038094Y-64445247D01*
X156038094Y-64445247D02*
X156114284Y-64483342D01*
X156114284Y-64483342D02*
X156419046Y-64483342D01*
X155199999Y-64864295D02*
X155657142Y-64864295D01*
X155428570Y-64864295D02*
X155428570Y-64064295D01*
X155428570Y-64064295D02*
X155504761Y-64178580D01*
X155504761Y-64178580D02*
X155580951Y-64254771D01*
X155580951Y-64254771D02*
X155657142Y-64292866D01*
X154704760Y-64064295D02*
X154628570Y-64064295D01*
X154628570Y-64064295D02*
X154552379Y-64102390D01*
X154552379Y-64102390D02*
X154514284Y-64140485D01*
X154514284Y-64140485D02*
X154476189Y-64216676D01*
X154476189Y-64216676D02*
X154438094Y-64369057D01*
X154438094Y-64369057D02*
X154438094Y-64559533D01*
X154438094Y-64559533D02*
X154476189Y-64711914D01*
X154476189Y-64711914D02*
X154514284Y-64788104D01*
X154514284Y-64788104D02*
X154552379Y-64826200D01*
X154552379Y-64826200D02*
X154628570Y-64864295D01*
X154628570Y-64864295D02*
X154704760Y-64864295D01*
X154704760Y-64864295D02*
X154780951Y-64826200D01*
X154780951Y-64826200D02*
X154819046Y-64788104D01*
X154819046Y-64788104D02*
X154857141Y-64711914D01*
X154857141Y-64711914D02*
X154895237Y-64559533D01*
X154895237Y-64559533D02*
X154895237Y-64369057D01*
X154895237Y-64369057D02*
X154857141Y-64216676D01*
X154857141Y-64216676D02*
X154819046Y-64140485D01*
X154819046Y-64140485D02*
X154780951Y-64102390D01*
X154780951Y-64102390D02*
X154704760Y-64064295D01*
X153866665Y-65169057D02*
X153904760Y-65130961D01*
X153904760Y-65130961D02*
X153980951Y-65016676D01*
X153980951Y-65016676D02*
X154019046Y-64940485D01*
X154019046Y-64940485D02*
X154057141Y-64826200D01*
X154057141Y-64826200D02*
X154095236Y-64635723D01*
X154095236Y-64635723D02*
X154095236Y-64483342D01*
X154095236Y-64483342D02*
X154057141Y-64292866D01*
X154057141Y-64292866D02*
X154019046Y-64178580D01*
X154019046Y-64178580D02*
X153980951Y-64102390D01*
X153980951Y-64102390D02*
X153904760Y-63988104D01*
X153904760Y-63988104D02*
X153866665Y-63950009D01*
X153142856Y-64102390D02*
X153219046Y-64064295D01*
X153219046Y-64064295D02*
X153333332Y-64064295D01*
X153333332Y-64064295D02*
X153447618Y-64102390D01*
X153447618Y-64102390D02*
X153523808Y-64178580D01*
X153523808Y-64178580D02*
X153561903Y-64254771D01*
X153561903Y-64254771D02*
X153599999Y-64407152D01*
X153599999Y-64407152D02*
X153599999Y-64521438D01*
X153599999Y-64521438D02*
X153561903Y-64673819D01*
X153561903Y-64673819D02*
X153523808Y-64750009D01*
X153523808Y-64750009D02*
X153447618Y-64826200D01*
X153447618Y-64826200D02*
X153333332Y-64864295D01*
X153333332Y-64864295D02*
X153257141Y-64864295D01*
X153257141Y-64864295D02*
X153142856Y-64826200D01*
X153142856Y-64826200D02*
X153104760Y-64788104D01*
X153104760Y-64788104D02*
X153104760Y-64521438D01*
X153104760Y-64521438D02*
X153257141Y-64521438D01*
X152761903Y-64864295D02*
X152761903Y-64064295D01*
X152761903Y-64064295D02*
X152304760Y-64864295D01*
X152304760Y-64864295D02*
X152304760Y-64064295D01*
X151923808Y-64864295D02*
X151923808Y-64064295D01*
X151923808Y-64064295D02*
X151733332Y-64064295D01*
X151733332Y-64064295D02*
X151619046Y-64102390D01*
X151619046Y-64102390D02*
X151542856Y-64178580D01*
X151542856Y-64178580D02*
X151504761Y-64254771D01*
X151504761Y-64254771D02*
X151466665Y-64407152D01*
X151466665Y-64407152D02*
X151466665Y-64521438D01*
X151466665Y-64521438D02*
X151504761Y-64673819D01*
X151504761Y-64673819D02*
X151542856Y-64750009D01*
X151542856Y-64750009D02*
X151619046Y-64826200D01*
X151619046Y-64826200D02*
X151733332Y-64864295D01*
X151733332Y-64864295D02*
X151923808Y-64864295D01*
X151199999Y-65169057D02*
X151161904Y-65130961D01*
X151161904Y-65130961D02*
X151085713Y-65016676D01*
X151085713Y-65016676D02*
X151047618Y-64940485D01*
X151047618Y-64940485D02*
X151009523Y-64826200D01*
X151009523Y-64826200D02*
X150971427Y-64635723D01*
X150971427Y-64635723D02*
X150971427Y-64483342D01*
X150971427Y-64483342D02*
X151009523Y-64292866D01*
X151009523Y-64292866D02*
X151047618Y-64178580D01*
X151047618Y-64178580D02*
X151085713Y-64102390D01*
X151085713Y-64102390D02*
X151161904Y-63988104D01*
X151161904Y-63988104D02*
X151199999Y-63950009D01*
X156647618Y-69064295D02*
X156190475Y-69064295D01*
X156419047Y-69864295D02*
X156419047Y-69064295D01*
X155923808Y-69864295D02*
X155923808Y-69064295D01*
X155923808Y-69064295D02*
X155619046Y-69064295D01*
X155619046Y-69064295D02*
X155542856Y-69102390D01*
X155542856Y-69102390D02*
X155504761Y-69140485D01*
X155504761Y-69140485D02*
X155466665Y-69216676D01*
X155466665Y-69216676D02*
X155466665Y-69330961D01*
X155466665Y-69330961D02*
X155504761Y-69407152D01*
X155504761Y-69407152D02*
X155542856Y-69445247D01*
X155542856Y-69445247D02*
X155619046Y-69483342D01*
X155619046Y-69483342D02*
X155923808Y-69483342D01*
X155085713Y-69864295D02*
X154933332Y-69864295D01*
X154933332Y-69864295D02*
X154857142Y-69826200D01*
X154857142Y-69826200D02*
X154819046Y-69788104D01*
X154819046Y-69788104D02*
X154742856Y-69673819D01*
X154742856Y-69673819D02*
X154704761Y-69521438D01*
X154704761Y-69521438D02*
X154704761Y-69216676D01*
X154704761Y-69216676D02*
X154742856Y-69140485D01*
X154742856Y-69140485D02*
X154780951Y-69102390D01*
X154780951Y-69102390D02*
X154857142Y-69064295D01*
X154857142Y-69064295D02*
X155009523Y-69064295D01*
X155009523Y-69064295D02*
X155085713Y-69102390D01*
X155085713Y-69102390D02*
X155123808Y-69140485D01*
X155123808Y-69140485D02*
X155161904Y-69216676D01*
X155161904Y-69216676D02*
X155161904Y-69407152D01*
X155161904Y-69407152D02*
X155123808Y-69483342D01*
X155123808Y-69483342D02*
X155085713Y-69521438D01*
X155085713Y-69521438D02*
X155009523Y-69559533D01*
X155009523Y-69559533D02*
X154857142Y-69559533D01*
X154857142Y-69559533D02*
X154780951Y-69521438D01*
X154780951Y-69521438D02*
X154742856Y-69483342D01*
X154742856Y-69483342D02*
X154704761Y-69407152D01*
X154133332Y-70169057D02*
X154171427Y-70130961D01*
X154171427Y-70130961D02*
X154247618Y-70016676D01*
X154247618Y-70016676D02*
X154285713Y-69940485D01*
X154285713Y-69940485D02*
X154323808Y-69826200D01*
X154323808Y-69826200D02*
X154361903Y-69635723D01*
X154361903Y-69635723D02*
X154361903Y-69483342D01*
X154361903Y-69483342D02*
X154323808Y-69292866D01*
X154323808Y-69292866D02*
X154285713Y-69178580D01*
X154285713Y-69178580D02*
X154247618Y-69102390D01*
X154247618Y-69102390D02*
X154171427Y-68988104D01*
X154171427Y-68988104D02*
X154133332Y-68950009D01*
X153866666Y-69826200D02*
X153752380Y-69864295D01*
X153752380Y-69864295D02*
X153561904Y-69864295D01*
X153561904Y-69864295D02*
X153485713Y-69826200D01*
X153485713Y-69826200D02*
X153447618Y-69788104D01*
X153447618Y-69788104D02*
X153409523Y-69711914D01*
X153409523Y-69711914D02*
X153409523Y-69635723D01*
X153409523Y-69635723D02*
X153447618Y-69559533D01*
X153447618Y-69559533D02*
X153485713Y-69521438D01*
X153485713Y-69521438D02*
X153561904Y-69483342D01*
X153561904Y-69483342D02*
X153714285Y-69445247D01*
X153714285Y-69445247D02*
X153790475Y-69407152D01*
X153790475Y-69407152D02*
X153828570Y-69369057D01*
X153828570Y-69369057D02*
X153866666Y-69292866D01*
X153866666Y-69292866D02*
X153866666Y-69216676D01*
X153866666Y-69216676D02*
X153828570Y-69140485D01*
X153828570Y-69140485D02*
X153790475Y-69102390D01*
X153790475Y-69102390D02*
X153714285Y-69064295D01*
X153714285Y-69064295D02*
X153523808Y-69064295D01*
X153523808Y-69064295D02*
X153409523Y-69102390D01*
X152609522Y-69788104D02*
X152647618Y-69826200D01*
X152647618Y-69826200D02*
X152761903Y-69864295D01*
X152761903Y-69864295D02*
X152838094Y-69864295D01*
X152838094Y-69864295D02*
X152952380Y-69826200D01*
X152952380Y-69826200D02*
X153028570Y-69750009D01*
X153028570Y-69750009D02*
X153066665Y-69673819D01*
X153066665Y-69673819D02*
X153104761Y-69521438D01*
X153104761Y-69521438D02*
X153104761Y-69407152D01*
X153104761Y-69407152D02*
X153066665Y-69254771D01*
X153066665Y-69254771D02*
X153028570Y-69178580D01*
X153028570Y-69178580D02*
X152952380Y-69102390D01*
X152952380Y-69102390D02*
X152838094Y-69064295D01*
X152838094Y-69064295D02*
X152761903Y-69064295D01*
X152761903Y-69064295D02*
X152647618Y-69102390D01*
X152647618Y-69102390D02*
X152609522Y-69140485D01*
X151885713Y-69864295D02*
X152266665Y-69864295D01*
X152266665Y-69864295D02*
X152266665Y-69064295D01*
X151695237Y-70169057D02*
X151657142Y-70130961D01*
X151657142Y-70130961D02*
X151580951Y-70016676D01*
X151580951Y-70016676D02*
X151542856Y-69940485D01*
X151542856Y-69940485D02*
X151504761Y-69826200D01*
X151504761Y-69826200D02*
X151466665Y-69635723D01*
X151466665Y-69635723D02*
X151466665Y-69483342D01*
X151466665Y-69483342D02*
X151504761Y-69292866D01*
X151504761Y-69292866D02*
X151542856Y-69178580D01*
X151542856Y-69178580D02*
X151580951Y-69102390D01*
X151580951Y-69102390D02*
X151657142Y-68988104D01*
X151657142Y-68988104D02*
X151695237Y-68950009D01*
X133261904Y-108564295D02*
X132804761Y-108564295D01*
X133033333Y-109364295D02*
X133033333Y-108564295D01*
X132538094Y-109364295D02*
X132538094Y-108564295D01*
X132538094Y-108564295D02*
X132233332Y-108564295D01*
X132233332Y-108564295D02*
X132157142Y-108602390D01*
X132157142Y-108602390D02*
X132119047Y-108640485D01*
X132119047Y-108640485D02*
X132080951Y-108716676D01*
X132080951Y-108716676D02*
X132080951Y-108830961D01*
X132080951Y-108830961D02*
X132119047Y-108907152D01*
X132119047Y-108907152D02*
X132157142Y-108945247D01*
X132157142Y-108945247D02*
X132233332Y-108983342D01*
X132233332Y-108983342D02*
X132538094Y-108983342D01*
X131623809Y-108907152D02*
X131699999Y-108869057D01*
X131699999Y-108869057D02*
X131738094Y-108830961D01*
X131738094Y-108830961D02*
X131776190Y-108754771D01*
X131776190Y-108754771D02*
X131776190Y-108716676D01*
X131776190Y-108716676D02*
X131738094Y-108640485D01*
X131738094Y-108640485D02*
X131699999Y-108602390D01*
X131699999Y-108602390D02*
X131623809Y-108564295D01*
X131623809Y-108564295D02*
X131471428Y-108564295D01*
X131471428Y-108564295D02*
X131395237Y-108602390D01*
X131395237Y-108602390D02*
X131357142Y-108640485D01*
X131357142Y-108640485D02*
X131319047Y-108716676D01*
X131319047Y-108716676D02*
X131319047Y-108754771D01*
X131319047Y-108754771D02*
X131357142Y-108830961D01*
X131357142Y-108830961D02*
X131395237Y-108869057D01*
X131395237Y-108869057D02*
X131471428Y-108907152D01*
X131471428Y-108907152D02*
X131623809Y-108907152D01*
X131623809Y-108907152D02*
X131699999Y-108945247D01*
X131699999Y-108945247D02*
X131738094Y-108983342D01*
X131738094Y-108983342D02*
X131776190Y-109059533D01*
X131776190Y-109059533D02*
X131776190Y-109211914D01*
X131776190Y-109211914D02*
X131738094Y-109288104D01*
X131738094Y-109288104D02*
X131699999Y-109326200D01*
X131699999Y-109326200D02*
X131623809Y-109364295D01*
X131623809Y-109364295D02*
X131471428Y-109364295D01*
X131471428Y-109364295D02*
X131395237Y-109326200D01*
X131395237Y-109326200D02*
X131357142Y-109288104D01*
X131357142Y-109288104D02*
X131319047Y-109211914D01*
X131319047Y-109211914D02*
X131319047Y-109059533D01*
X131319047Y-109059533D02*
X131357142Y-108983342D01*
X131357142Y-108983342D02*
X131395237Y-108945247D01*
X131395237Y-108945247D02*
X131471428Y-108907152D01*
X130747618Y-109669057D02*
X130785713Y-109630961D01*
X130785713Y-109630961D02*
X130861904Y-109516676D01*
X130861904Y-109516676D02*
X130899999Y-109440485D01*
X130899999Y-109440485D02*
X130938094Y-109326200D01*
X130938094Y-109326200D02*
X130976189Y-109135723D01*
X130976189Y-109135723D02*
X130976189Y-108983342D01*
X130976189Y-108983342D02*
X130938094Y-108792866D01*
X130938094Y-108792866D02*
X130899999Y-108678580D01*
X130899999Y-108678580D02*
X130861904Y-108602390D01*
X130861904Y-108602390D02*
X130785713Y-108488104D01*
X130785713Y-108488104D02*
X130747618Y-108450009D01*
X130023809Y-108602390D02*
X130099999Y-108564295D01*
X130099999Y-108564295D02*
X130214285Y-108564295D01*
X130214285Y-108564295D02*
X130328571Y-108602390D01*
X130328571Y-108602390D02*
X130404761Y-108678580D01*
X130404761Y-108678580D02*
X130442856Y-108754771D01*
X130442856Y-108754771D02*
X130480952Y-108907152D01*
X130480952Y-108907152D02*
X130480952Y-109021438D01*
X130480952Y-109021438D02*
X130442856Y-109173819D01*
X130442856Y-109173819D02*
X130404761Y-109250009D01*
X130404761Y-109250009D02*
X130328571Y-109326200D01*
X130328571Y-109326200D02*
X130214285Y-109364295D01*
X130214285Y-109364295D02*
X130138094Y-109364295D01*
X130138094Y-109364295D02*
X130023809Y-109326200D01*
X130023809Y-109326200D02*
X129985713Y-109288104D01*
X129985713Y-109288104D02*
X129985713Y-109021438D01*
X129985713Y-109021438D02*
X130138094Y-109021438D01*
X129642856Y-109364295D02*
X129642856Y-108564295D01*
X129642856Y-108564295D02*
X129185713Y-109364295D01*
X129185713Y-109364295D02*
X129185713Y-108564295D01*
X128804761Y-109364295D02*
X128804761Y-108564295D01*
X128804761Y-108564295D02*
X128614285Y-108564295D01*
X128614285Y-108564295D02*
X128499999Y-108602390D01*
X128499999Y-108602390D02*
X128423809Y-108678580D01*
X128423809Y-108678580D02*
X128385714Y-108754771D01*
X128385714Y-108754771D02*
X128347618Y-108907152D01*
X128347618Y-108907152D02*
X128347618Y-109021438D01*
X128347618Y-109021438D02*
X128385714Y-109173819D01*
X128385714Y-109173819D02*
X128423809Y-109250009D01*
X128423809Y-109250009D02*
X128499999Y-109326200D01*
X128499999Y-109326200D02*
X128614285Y-109364295D01*
X128614285Y-109364295D02*
X128804761Y-109364295D01*
X128080952Y-109669057D02*
X128042857Y-109630961D01*
X128042857Y-109630961D02*
X127966666Y-109516676D01*
X127966666Y-109516676D02*
X127928571Y-109440485D01*
X127928571Y-109440485D02*
X127890476Y-109326200D01*
X127890476Y-109326200D02*
X127852380Y-109135723D01*
X127852380Y-109135723D02*
X127852380Y-108983342D01*
X127852380Y-108983342D02*
X127890476Y-108792866D01*
X127890476Y-108792866D02*
X127928571Y-108678580D01*
X127928571Y-108678580D02*
X127966666Y-108602390D01*
X127966666Y-108602390D02*
X128042857Y-108488104D01*
X128042857Y-108488104D02*
X128080952Y-108450009D01*
X134899999Y-104564295D02*
X134442856Y-104564295D01*
X134671428Y-105364295D02*
X134671428Y-104564295D01*
X134176189Y-105364295D02*
X134176189Y-104564295D01*
X134176189Y-104564295D02*
X133871427Y-104564295D01*
X133871427Y-104564295D02*
X133795237Y-104602390D01*
X133795237Y-104602390D02*
X133757142Y-104640485D01*
X133757142Y-104640485D02*
X133719046Y-104716676D01*
X133719046Y-104716676D02*
X133719046Y-104830961D01*
X133719046Y-104830961D02*
X133757142Y-104907152D01*
X133757142Y-104907152D02*
X133795237Y-104945247D01*
X133795237Y-104945247D02*
X133871427Y-104983342D01*
X133871427Y-104983342D02*
X134176189Y-104983342D01*
X133452380Y-104564295D02*
X132919046Y-104564295D01*
X132919046Y-104564295D02*
X133261904Y-105364295D01*
X132385713Y-105669057D02*
X132423808Y-105630961D01*
X132423808Y-105630961D02*
X132499999Y-105516676D01*
X132499999Y-105516676D02*
X132538094Y-105440485D01*
X132538094Y-105440485D02*
X132576189Y-105326200D01*
X132576189Y-105326200D02*
X132614284Y-105135723D01*
X132614284Y-105135723D02*
X132614284Y-104983342D01*
X132614284Y-104983342D02*
X132576189Y-104792866D01*
X132576189Y-104792866D02*
X132538094Y-104678580D01*
X132538094Y-104678580D02*
X132499999Y-104602390D01*
X132499999Y-104602390D02*
X132423808Y-104488104D01*
X132423808Y-104488104D02*
X132385713Y-104450009D01*
X132119047Y-105326200D02*
X132004761Y-105364295D01*
X132004761Y-105364295D02*
X131814285Y-105364295D01*
X131814285Y-105364295D02*
X131738094Y-105326200D01*
X131738094Y-105326200D02*
X131699999Y-105288104D01*
X131699999Y-105288104D02*
X131661904Y-105211914D01*
X131661904Y-105211914D02*
X131661904Y-105135723D01*
X131661904Y-105135723D02*
X131699999Y-105059533D01*
X131699999Y-105059533D02*
X131738094Y-105021438D01*
X131738094Y-105021438D02*
X131814285Y-104983342D01*
X131814285Y-104983342D02*
X131966666Y-104945247D01*
X131966666Y-104945247D02*
X132042856Y-104907152D01*
X132042856Y-104907152D02*
X132080951Y-104869057D01*
X132080951Y-104869057D02*
X132119047Y-104792866D01*
X132119047Y-104792866D02*
X132119047Y-104716676D01*
X132119047Y-104716676D02*
X132080951Y-104640485D01*
X132080951Y-104640485D02*
X132042856Y-104602390D01*
X132042856Y-104602390D02*
X131966666Y-104564295D01*
X131966666Y-104564295D02*
X131776189Y-104564295D01*
X131776189Y-104564295D02*
X131661904Y-104602390D01*
X131319046Y-105364295D02*
X131319046Y-104564295D01*
X130519047Y-104602390D02*
X130595237Y-104564295D01*
X130595237Y-104564295D02*
X130709523Y-104564295D01*
X130709523Y-104564295D02*
X130823809Y-104602390D01*
X130823809Y-104602390D02*
X130899999Y-104678580D01*
X130899999Y-104678580D02*
X130938094Y-104754771D01*
X130938094Y-104754771D02*
X130976190Y-104907152D01*
X130976190Y-104907152D02*
X130976190Y-105021438D01*
X130976190Y-105021438D02*
X130938094Y-105173819D01*
X130938094Y-105173819D02*
X130899999Y-105250009D01*
X130899999Y-105250009D02*
X130823809Y-105326200D01*
X130823809Y-105326200D02*
X130709523Y-105364295D01*
X130709523Y-105364295D02*
X130633332Y-105364295D01*
X130633332Y-105364295D02*
X130519047Y-105326200D01*
X130519047Y-105326200D02*
X130480951Y-105288104D01*
X130480951Y-105288104D02*
X130480951Y-105021438D01*
X130480951Y-105021438D02*
X130633332Y-105021438D01*
X130328571Y-105440485D02*
X129719047Y-105440485D01*
X129071427Y-105364295D02*
X129338094Y-104983342D01*
X129528570Y-105364295D02*
X129528570Y-104564295D01*
X129528570Y-104564295D02*
X129223808Y-104564295D01*
X129223808Y-104564295D02*
X129147618Y-104602390D01*
X129147618Y-104602390D02*
X129109523Y-104640485D01*
X129109523Y-104640485D02*
X129071427Y-104716676D01*
X129071427Y-104716676D02*
X129071427Y-104830961D01*
X129071427Y-104830961D02*
X129109523Y-104907152D01*
X129109523Y-104907152D02*
X129147618Y-104945247D01*
X129147618Y-104945247D02*
X129223808Y-104983342D01*
X129223808Y-104983342D02*
X129528570Y-104983342D01*
X128309523Y-104602390D02*
X128385713Y-104564295D01*
X128385713Y-104564295D02*
X128499999Y-104564295D01*
X128499999Y-104564295D02*
X128614285Y-104602390D01*
X128614285Y-104602390D02*
X128690475Y-104678580D01*
X128690475Y-104678580D02*
X128728570Y-104754771D01*
X128728570Y-104754771D02*
X128766666Y-104907152D01*
X128766666Y-104907152D02*
X128766666Y-105021438D01*
X128766666Y-105021438D02*
X128728570Y-105173819D01*
X128728570Y-105173819D02*
X128690475Y-105250009D01*
X128690475Y-105250009D02*
X128614285Y-105326200D01*
X128614285Y-105326200D02*
X128499999Y-105364295D01*
X128499999Y-105364295D02*
X128423808Y-105364295D01*
X128423808Y-105364295D02*
X128309523Y-105326200D01*
X128309523Y-105326200D02*
X128271427Y-105288104D01*
X128271427Y-105288104D02*
X128271427Y-105021438D01*
X128271427Y-105021438D02*
X128423808Y-105021438D01*
X127661904Y-104945247D02*
X127547618Y-104983342D01*
X127547618Y-104983342D02*
X127509523Y-105021438D01*
X127509523Y-105021438D02*
X127471427Y-105097628D01*
X127471427Y-105097628D02*
X127471427Y-105211914D01*
X127471427Y-105211914D02*
X127509523Y-105288104D01*
X127509523Y-105288104D02*
X127547618Y-105326200D01*
X127547618Y-105326200D02*
X127623808Y-105364295D01*
X127623808Y-105364295D02*
X127928570Y-105364295D01*
X127928570Y-105364295D02*
X127928570Y-104564295D01*
X127928570Y-104564295D02*
X127661904Y-104564295D01*
X127661904Y-104564295D02*
X127585713Y-104602390D01*
X127585713Y-104602390D02*
X127547618Y-104640485D01*
X127547618Y-104640485D02*
X127509523Y-104716676D01*
X127509523Y-104716676D02*
X127509523Y-104792866D01*
X127509523Y-104792866D02*
X127547618Y-104869057D01*
X127547618Y-104869057D02*
X127585713Y-104907152D01*
X127585713Y-104907152D02*
X127661904Y-104945247D01*
X127661904Y-104945247D02*
X127928570Y-104945247D01*
X127204761Y-104564295D02*
X126709523Y-104564295D01*
X126709523Y-104564295D02*
X126976189Y-104869057D01*
X126976189Y-104869057D02*
X126861904Y-104869057D01*
X126861904Y-104869057D02*
X126785713Y-104907152D01*
X126785713Y-104907152D02*
X126747618Y-104945247D01*
X126747618Y-104945247D02*
X126709523Y-105021438D01*
X126709523Y-105021438D02*
X126709523Y-105211914D01*
X126709523Y-105211914D02*
X126747618Y-105288104D01*
X126747618Y-105288104D02*
X126785713Y-105326200D01*
X126785713Y-105326200D02*
X126861904Y-105364295D01*
X126861904Y-105364295D02*
X127090475Y-105364295D01*
X127090475Y-105364295D02*
X127166666Y-105326200D01*
X127166666Y-105326200D02*
X127204761Y-105288104D01*
X126442856Y-105669057D02*
X126404761Y-105630961D01*
X126404761Y-105630961D02*
X126328570Y-105516676D01*
X126328570Y-105516676D02*
X126290475Y-105440485D01*
X126290475Y-105440485D02*
X126252380Y-105326200D01*
X126252380Y-105326200D02*
X126214284Y-105135723D01*
X126214284Y-105135723D02*
X126214284Y-104983342D01*
X126214284Y-104983342D02*
X126252380Y-104792866D01*
X126252380Y-104792866D02*
X126290475Y-104678580D01*
X126290475Y-104678580D02*
X126328570Y-104602390D01*
X126328570Y-104602390D02*
X126404761Y-104488104D01*
X126404761Y-104488104D02*
X126442856Y-104450009D01*
X133761904Y-99064295D02*
X133304761Y-99064295D01*
X133533333Y-99864295D02*
X133533333Y-99064295D01*
X133038094Y-99864295D02*
X133038094Y-99064295D01*
X133038094Y-99064295D02*
X132733332Y-99064295D01*
X132733332Y-99064295D02*
X132657142Y-99102390D01*
X132657142Y-99102390D02*
X132619047Y-99140485D01*
X132619047Y-99140485D02*
X132580951Y-99216676D01*
X132580951Y-99216676D02*
X132580951Y-99330961D01*
X132580951Y-99330961D02*
X132619047Y-99407152D01*
X132619047Y-99407152D02*
X132657142Y-99445247D01*
X132657142Y-99445247D02*
X132733332Y-99483342D01*
X132733332Y-99483342D02*
X133038094Y-99483342D01*
X131895237Y-99064295D02*
X132047618Y-99064295D01*
X132047618Y-99064295D02*
X132123809Y-99102390D01*
X132123809Y-99102390D02*
X132161904Y-99140485D01*
X132161904Y-99140485D02*
X132238094Y-99254771D01*
X132238094Y-99254771D02*
X132276190Y-99407152D01*
X132276190Y-99407152D02*
X132276190Y-99711914D01*
X132276190Y-99711914D02*
X132238094Y-99788104D01*
X132238094Y-99788104D02*
X132199999Y-99826200D01*
X132199999Y-99826200D02*
X132123809Y-99864295D01*
X132123809Y-99864295D02*
X131971428Y-99864295D01*
X131971428Y-99864295D02*
X131895237Y-99826200D01*
X131895237Y-99826200D02*
X131857142Y-99788104D01*
X131857142Y-99788104D02*
X131819047Y-99711914D01*
X131819047Y-99711914D02*
X131819047Y-99521438D01*
X131819047Y-99521438D02*
X131857142Y-99445247D01*
X131857142Y-99445247D02*
X131895237Y-99407152D01*
X131895237Y-99407152D02*
X131971428Y-99369057D01*
X131971428Y-99369057D02*
X132123809Y-99369057D01*
X132123809Y-99369057D02*
X132199999Y-99407152D01*
X132199999Y-99407152D02*
X132238094Y-99445247D01*
X132238094Y-99445247D02*
X132276190Y-99521438D01*
X131247618Y-100169057D02*
X131285713Y-100130961D01*
X131285713Y-100130961D02*
X131361904Y-100016676D01*
X131361904Y-100016676D02*
X131399999Y-99940485D01*
X131399999Y-99940485D02*
X131438094Y-99826200D01*
X131438094Y-99826200D02*
X131476189Y-99635723D01*
X131476189Y-99635723D02*
X131476189Y-99483342D01*
X131476189Y-99483342D02*
X131438094Y-99292866D01*
X131438094Y-99292866D02*
X131399999Y-99178580D01*
X131399999Y-99178580D02*
X131361904Y-99102390D01*
X131361904Y-99102390D02*
X131285713Y-98988104D01*
X131285713Y-98988104D02*
X131247618Y-98950009D01*
X130523809Y-99102390D02*
X130599999Y-99064295D01*
X130599999Y-99064295D02*
X130714285Y-99064295D01*
X130714285Y-99064295D02*
X130828571Y-99102390D01*
X130828571Y-99102390D02*
X130904761Y-99178580D01*
X130904761Y-99178580D02*
X130942856Y-99254771D01*
X130942856Y-99254771D02*
X130980952Y-99407152D01*
X130980952Y-99407152D02*
X130980952Y-99521438D01*
X130980952Y-99521438D02*
X130942856Y-99673819D01*
X130942856Y-99673819D02*
X130904761Y-99750009D01*
X130904761Y-99750009D02*
X130828571Y-99826200D01*
X130828571Y-99826200D02*
X130714285Y-99864295D01*
X130714285Y-99864295D02*
X130638094Y-99864295D01*
X130638094Y-99864295D02*
X130523809Y-99826200D01*
X130523809Y-99826200D02*
X130485713Y-99788104D01*
X130485713Y-99788104D02*
X130485713Y-99521438D01*
X130485713Y-99521438D02*
X130638094Y-99521438D01*
X130142856Y-99864295D02*
X130142856Y-99064295D01*
X130142856Y-99064295D02*
X129685713Y-99864295D01*
X129685713Y-99864295D02*
X129685713Y-99064295D01*
X129304761Y-99864295D02*
X129304761Y-99064295D01*
X129304761Y-99064295D02*
X129114285Y-99064295D01*
X129114285Y-99064295D02*
X128999999Y-99102390D01*
X128999999Y-99102390D02*
X128923809Y-99178580D01*
X128923809Y-99178580D02*
X128885714Y-99254771D01*
X128885714Y-99254771D02*
X128847618Y-99407152D01*
X128847618Y-99407152D02*
X128847618Y-99521438D01*
X128847618Y-99521438D02*
X128885714Y-99673819D01*
X128885714Y-99673819D02*
X128923809Y-99750009D01*
X128923809Y-99750009D02*
X128999999Y-99826200D01*
X128999999Y-99826200D02*
X129114285Y-99864295D01*
X129114285Y-99864295D02*
X129304761Y-99864295D01*
X128580952Y-100169057D02*
X128542857Y-100130961D01*
X128542857Y-100130961D02*
X128466666Y-100016676D01*
X128466666Y-100016676D02*
X128428571Y-99940485D01*
X128428571Y-99940485D02*
X128390476Y-99826200D01*
X128390476Y-99826200D02*
X128352380Y-99635723D01*
X128352380Y-99635723D02*
X128352380Y-99483342D01*
X128352380Y-99483342D02*
X128390476Y-99292866D01*
X128390476Y-99292866D02*
X128428571Y-99178580D01*
X128428571Y-99178580D02*
X128466666Y-99102390D01*
X128466666Y-99102390D02*
X128542857Y-98988104D01*
X128542857Y-98988104D02*
X128580952Y-98950009D01*
X131899999Y-95062295D02*
X131442856Y-95062295D01*
X131671428Y-95862295D02*
X131671428Y-95062295D01*
X131176189Y-95862295D02*
X131176189Y-95062295D01*
X131176189Y-95062295D02*
X130871427Y-95062295D01*
X130871427Y-95062295D02*
X130795237Y-95100390D01*
X130795237Y-95100390D02*
X130757142Y-95138485D01*
X130757142Y-95138485D02*
X130719046Y-95214676D01*
X130719046Y-95214676D02*
X130719046Y-95328961D01*
X130719046Y-95328961D02*
X130757142Y-95405152D01*
X130757142Y-95405152D02*
X130795237Y-95443247D01*
X130795237Y-95443247D02*
X130871427Y-95481342D01*
X130871427Y-95481342D02*
X131176189Y-95481342D01*
X129995237Y-95062295D02*
X130376189Y-95062295D01*
X130376189Y-95062295D02*
X130414285Y-95443247D01*
X130414285Y-95443247D02*
X130376189Y-95405152D01*
X130376189Y-95405152D02*
X130299999Y-95367057D01*
X130299999Y-95367057D02*
X130109523Y-95367057D01*
X130109523Y-95367057D02*
X130033332Y-95405152D01*
X130033332Y-95405152D02*
X129995237Y-95443247D01*
X129995237Y-95443247D02*
X129957142Y-95519438D01*
X129957142Y-95519438D02*
X129957142Y-95709914D01*
X129957142Y-95709914D02*
X129995237Y-95786104D01*
X129995237Y-95786104D02*
X130033332Y-95824200D01*
X130033332Y-95824200D02*
X130109523Y-95862295D01*
X130109523Y-95862295D02*
X130299999Y-95862295D01*
X130299999Y-95862295D02*
X130376189Y-95824200D01*
X130376189Y-95824200D02*
X130414285Y-95786104D01*
X129385713Y-96167057D02*
X129423808Y-96128961D01*
X129423808Y-96128961D02*
X129499999Y-96014676D01*
X129499999Y-96014676D02*
X129538094Y-95938485D01*
X129538094Y-95938485D02*
X129576189Y-95824200D01*
X129576189Y-95824200D02*
X129614284Y-95633723D01*
X129614284Y-95633723D02*
X129614284Y-95481342D01*
X129614284Y-95481342D02*
X129576189Y-95290866D01*
X129576189Y-95290866D02*
X129538094Y-95176580D01*
X129538094Y-95176580D02*
X129499999Y-95100390D01*
X129499999Y-95100390D02*
X129423808Y-94986104D01*
X129423808Y-94986104D02*
X129385713Y-94948009D01*
X129119047Y-95824200D02*
X129004761Y-95862295D01*
X129004761Y-95862295D02*
X128814285Y-95862295D01*
X128814285Y-95862295D02*
X128738094Y-95824200D01*
X128738094Y-95824200D02*
X128699999Y-95786104D01*
X128699999Y-95786104D02*
X128661904Y-95709914D01*
X128661904Y-95709914D02*
X128661904Y-95633723D01*
X128661904Y-95633723D02*
X128699999Y-95557533D01*
X128699999Y-95557533D02*
X128738094Y-95519438D01*
X128738094Y-95519438D02*
X128814285Y-95481342D01*
X128814285Y-95481342D02*
X128966666Y-95443247D01*
X128966666Y-95443247D02*
X129042856Y-95405152D01*
X129042856Y-95405152D02*
X129080951Y-95367057D01*
X129080951Y-95367057D02*
X129119047Y-95290866D01*
X129119047Y-95290866D02*
X129119047Y-95214676D01*
X129119047Y-95214676D02*
X129080951Y-95138485D01*
X129080951Y-95138485D02*
X129042856Y-95100390D01*
X129042856Y-95100390D02*
X128966666Y-95062295D01*
X128966666Y-95062295D02*
X128776189Y-95062295D01*
X128776189Y-95062295D02*
X128661904Y-95100390D01*
X128319046Y-95862295D02*
X128319046Y-95062295D01*
X127519047Y-95100390D02*
X127595237Y-95062295D01*
X127595237Y-95062295D02*
X127709523Y-95062295D01*
X127709523Y-95062295D02*
X127823809Y-95100390D01*
X127823809Y-95100390D02*
X127899999Y-95176580D01*
X127899999Y-95176580D02*
X127938094Y-95252771D01*
X127938094Y-95252771D02*
X127976190Y-95405152D01*
X127976190Y-95405152D02*
X127976190Y-95519438D01*
X127976190Y-95519438D02*
X127938094Y-95671819D01*
X127938094Y-95671819D02*
X127899999Y-95748009D01*
X127899999Y-95748009D02*
X127823809Y-95824200D01*
X127823809Y-95824200D02*
X127709523Y-95862295D01*
X127709523Y-95862295D02*
X127633332Y-95862295D01*
X127633332Y-95862295D02*
X127519047Y-95824200D01*
X127519047Y-95824200D02*
X127480951Y-95786104D01*
X127480951Y-95786104D02*
X127480951Y-95519438D01*
X127480951Y-95519438D02*
X127633332Y-95519438D01*
X127328571Y-95938485D02*
X126719047Y-95938485D01*
X126071427Y-95862295D02*
X126338094Y-95481342D01*
X126528570Y-95862295D02*
X126528570Y-95062295D01*
X126528570Y-95062295D02*
X126223808Y-95062295D01*
X126223808Y-95062295D02*
X126147618Y-95100390D01*
X126147618Y-95100390D02*
X126109523Y-95138485D01*
X126109523Y-95138485D02*
X126071427Y-95214676D01*
X126071427Y-95214676D02*
X126071427Y-95328961D01*
X126071427Y-95328961D02*
X126109523Y-95405152D01*
X126109523Y-95405152D02*
X126147618Y-95443247D01*
X126147618Y-95443247D02*
X126223808Y-95481342D01*
X126223808Y-95481342D02*
X126528570Y-95481342D01*
X125309523Y-95100390D02*
X125385713Y-95062295D01*
X125385713Y-95062295D02*
X125499999Y-95062295D01*
X125499999Y-95062295D02*
X125614285Y-95100390D01*
X125614285Y-95100390D02*
X125690475Y-95176580D01*
X125690475Y-95176580D02*
X125728570Y-95252771D01*
X125728570Y-95252771D02*
X125766666Y-95405152D01*
X125766666Y-95405152D02*
X125766666Y-95519438D01*
X125766666Y-95519438D02*
X125728570Y-95671819D01*
X125728570Y-95671819D02*
X125690475Y-95748009D01*
X125690475Y-95748009D02*
X125614285Y-95824200D01*
X125614285Y-95824200D02*
X125499999Y-95862295D01*
X125499999Y-95862295D02*
X125423808Y-95862295D01*
X125423808Y-95862295D02*
X125309523Y-95824200D01*
X125309523Y-95824200D02*
X125271427Y-95786104D01*
X125271427Y-95786104D02*
X125271427Y-95519438D01*
X125271427Y-95519438D02*
X125423808Y-95519438D01*
X124661904Y-95443247D02*
X124547618Y-95481342D01*
X124547618Y-95481342D02*
X124509523Y-95519438D01*
X124509523Y-95519438D02*
X124471427Y-95595628D01*
X124471427Y-95595628D02*
X124471427Y-95709914D01*
X124471427Y-95709914D02*
X124509523Y-95786104D01*
X124509523Y-95786104D02*
X124547618Y-95824200D01*
X124547618Y-95824200D02*
X124623808Y-95862295D01*
X124623808Y-95862295D02*
X124928570Y-95862295D01*
X124928570Y-95862295D02*
X124928570Y-95062295D01*
X124928570Y-95062295D02*
X124661904Y-95062295D01*
X124661904Y-95062295D02*
X124585713Y-95100390D01*
X124585713Y-95100390D02*
X124547618Y-95138485D01*
X124547618Y-95138485D02*
X124509523Y-95214676D01*
X124509523Y-95214676D02*
X124509523Y-95290866D01*
X124509523Y-95290866D02*
X124547618Y-95367057D01*
X124547618Y-95367057D02*
X124585713Y-95405152D01*
X124585713Y-95405152D02*
X124661904Y-95443247D01*
X124661904Y-95443247D02*
X124928570Y-95443247D01*
X124166666Y-95138485D02*
X124128570Y-95100390D01*
X124128570Y-95100390D02*
X124052380Y-95062295D01*
X124052380Y-95062295D02*
X123861904Y-95062295D01*
X123861904Y-95062295D02*
X123785713Y-95100390D01*
X123785713Y-95100390D02*
X123747618Y-95138485D01*
X123747618Y-95138485D02*
X123709523Y-95214676D01*
X123709523Y-95214676D02*
X123709523Y-95290866D01*
X123709523Y-95290866D02*
X123747618Y-95405152D01*
X123747618Y-95405152D02*
X124204761Y-95862295D01*
X124204761Y-95862295D02*
X123709523Y-95862295D01*
X123442856Y-96167057D02*
X123404761Y-96128961D01*
X123404761Y-96128961D02*
X123328570Y-96014676D01*
X123328570Y-96014676D02*
X123290475Y-95938485D01*
X123290475Y-95938485D02*
X123252380Y-95824200D01*
X123252380Y-95824200D02*
X123214284Y-95633723D01*
X123214284Y-95633723D02*
X123214284Y-95481342D01*
X123214284Y-95481342D02*
X123252380Y-95290866D01*
X123252380Y-95290866D02*
X123290475Y-95176580D01*
X123290475Y-95176580D02*
X123328570Y-95100390D01*
X123328570Y-95100390D02*
X123404761Y-94986104D01*
X123404761Y-94986104D02*
X123442856Y-94948009D01*
X127261904Y-90064295D02*
X126804761Y-90064295D01*
X127033333Y-90864295D02*
X127033333Y-90064295D01*
X126538094Y-90864295D02*
X126538094Y-90064295D01*
X126538094Y-90064295D02*
X126233332Y-90064295D01*
X126233332Y-90064295D02*
X126157142Y-90102390D01*
X126157142Y-90102390D02*
X126119047Y-90140485D01*
X126119047Y-90140485D02*
X126080951Y-90216676D01*
X126080951Y-90216676D02*
X126080951Y-90330961D01*
X126080951Y-90330961D02*
X126119047Y-90407152D01*
X126119047Y-90407152D02*
X126157142Y-90445247D01*
X126157142Y-90445247D02*
X126233332Y-90483342D01*
X126233332Y-90483342D02*
X126538094Y-90483342D01*
X125395237Y-90330961D02*
X125395237Y-90864295D01*
X125585713Y-90026200D02*
X125776190Y-90597628D01*
X125776190Y-90597628D02*
X125280951Y-90597628D01*
X124747618Y-91169057D02*
X124785713Y-91130961D01*
X124785713Y-91130961D02*
X124861904Y-91016676D01*
X124861904Y-91016676D02*
X124899999Y-90940485D01*
X124899999Y-90940485D02*
X124938094Y-90826200D01*
X124938094Y-90826200D02*
X124976189Y-90635723D01*
X124976189Y-90635723D02*
X124976189Y-90483342D01*
X124976189Y-90483342D02*
X124938094Y-90292866D01*
X124938094Y-90292866D02*
X124899999Y-90178580D01*
X124899999Y-90178580D02*
X124861904Y-90102390D01*
X124861904Y-90102390D02*
X124785713Y-89988104D01*
X124785713Y-89988104D02*
X124747618Y-89950009D01*
X124023809Y-90102390D02*
X124099999Y-90064295D01*
X124099999Y-90064295D02*
X124214285Y-90064295D01*
X124214285Y-90064295D02*
X124328571Y-90102390D01*
X124328571Y-90102390D02*
X124404761Y-90178580D01*
X124404761Y-90178580D02*
X124442856Y-90254771D01*
X124442856Y-90254771D02*
X124480952Y-90407152D01*
X124480952Y-90407152D02*
X124480952Y-90521438D01*
X124480952Y-90521438D02*
X124442856Y-90673819D01*
X124442856Y-90673819D02*
X124404761Y-90750009D01*
X124404761Y-90750009D02*
X124328571Y-90826200D01*
X124328571Y-90826200D02*
X124214285Y-90864295D01*
X124214285Y-90864295D02*
X124138094Y-90864295D01*
X124138094Y-90864295D02*
X124023809Y-90826200D01*
X124023809Y-90826200D02*
X123985713Y-90788104D01*
X123985713Y-90788104D02*
X123985713Y-90521438D01*
X123985713Y-90521438D02*
X124138094Y-90521438D01*
X123642856Y-90864295D02*
X123642856Y-90064295D01*
X123642856Y-90064295D02*
X123185713Y-90864295D01*
X123185713Y-90864295D02*
X123185713Y-90064295D01*
X122804761Y-90864295D02*
X122804761Y-90064295D01*
X122804761Y-90064295D02*
X122614285Y-90064295D01*
X122614285Y-90064295D02*
X122499999Y-90102390D01*
X122499999Y-90102390D02*
X122423809Y-90178580D01*
X122423809Y-90178580D02*
X122385714Y-90254771D01*
X122385714Y-90254771D02*
X122347618Y-90407152D01*
X122347618Y-90407152D02*
X122347618Y-90521438D01*
X122347618Y-90521438D02*
X122385714Y-90673819D01*
X122385714Y-90673819D02*
X122423809Y-90750009D01*
X122423809Y-90750009D02*
X122499999Y-90826200D01*
X122499999Y-90826200D02*
X122614285Y-90864295D01*
X122614285Y-90864295D02*
X122804761Y-90864295D01*
X122080952Y-91169057D02*
X122042857Y-91130961D01*
X122042857Y-91130961D02*
X121966666Y-91016676D01*
X121966666Y-91016676D02*
X121928571Y-90940485D01*
X121928571Y-90940485D02*
X121890476Y-90826200D01*
X121890476Y-90826200D02*
X121852380Y-90635723D01*
X121852380Y-90635723D02*
X121852380Y-90483342D01*
X121852380Y-90483342D02*
X121890476Y-90292866D01*
X121890476Y-90292866D02*
X121928571Y-90178580D01*
X121928571Y-90178580D02*
X121966666Y-90102390D01*
X121966666Y-90102390D02*
X122042857Y-89988104D01*
X122042857Y-89988104D02*
X122080952Y-89950009D01*
X128899999Y-86064295D02*
X128442856Y-86064295D01*
X128671428Y-86864295D02*
X128671428Y-86064295D01*
X128176189Y-86864295D02*
X128176189Y-86064295D01*
X128176189Y-86064295D02*
X127871427Y-86064295D01*
X127871427Y-86064295D02*
X127795237Y-86102390D01*
X127795237Y-86102390D02*
X127757142Y-86140485D01*
X127757142Y-86140485D02*
X127719046Y-86216676D01*
X127719046Y-86216676D02*
X127719046Y-86330961D01*
X127719046Y-86330961D02*
X127757142Y-86407152D01*
X127757142Y-86407152D02*
X127795237Y-86445247D01*
X127795237Y-86445247D02*
X127871427Y-86483342D01*
X127871427Y-86483342D02*
X128176189Y-86483342D01*
X127452380Y-86064295D02*
X126957142Y-86064295D01*
X126957142Y-86064295D02*
X127223808Y-86369057D01*
X127223808Y-86369057D02*
X127109523Y-86369057D01*
X127109523Y-86369057D02*
X127033332Y-86407152D01*
X127033332Y-86407152D02*
X126995237Y-86445247D01*
X126995237Y-86445247D02*
X126957142Y-86521438D01*
X126957142Y-86521438D02*
X126957142Y-86711914D01*
X126957142Y-86711914D02*
X126995237Y-86788104D01*
X126995237Y-86788104D02*
X127033332Y-86826200D01*
X127033332Y-86826200D02*
X127109523Y-86864295D01*
X127109523Y-86864295D02*
X127338094Y-86864295D01*
X127338094Y-86864295D02*
X127414285Y-86826200D01*
X127414285Y-86826200D02*
X127452380Y-86788104D01*
X126385713Y-87169057D02*
X126423808Y-87130961D01*
X126423808Y-87130961D02*
X126499999Y-87016676D01*
X126499999Y-87016676D02*
X126538094Y-86940485D01*
X126538094Y-86940485D02*
X126576189Y-86826200D01*
X126576189Y-86826200D02*
X126614284Y-86635723D01*
X126614284Y-86635723D02*
X126614284Y-86483342D01*
X126614284Y-86483342D02*
X126576189Y-86292866D01*
X126576189Y-86292866D02*
X126538094Y-86178580D01*
X126538094Y-86178580D02*
X126499999Y-86102390D01*
X126499999Y-86102390D02*
X126423808Y-85988104D01*
X126423808Y-85988104D02*
X126385713Y-85950009D01*
X126119047Y-86826200D02*
X126004761Y-86864295D01*
X126004761Y-86864295D02*
X125814285Y-86864295D01*
X125814285Y-86864295D02*
X125738094Y-86826200D01*
X125738094Y-86826200D02*
X125699999Y-86788104D01*
X125699999Y-86788104D02*
X125661904Y-86711914D01*
X125661904Y-86711914D02*
X125661904Y-86635723D01*
X125661904Y-86635723D02*
X125699999Y-86559533D01*
X125699999Y-86559533D02*
X125738094Y-86521438D01*
X125738094Y-86521438D02*
X125814285Y-86483342D01*
X125814285Y-86483342D02*
X125966666Y-86445247D01*
X125966666Y-86445247D02*
X126042856Y-86407152D01*
X126042856Y-86407152D02*
X126080951Y-86369057D01*
X126080951Y-86369057D02*
X126119047Y-86292866D01*
X126119047Y-86292866D02*
X126119047Y-86216676D01*
X126119047Y-86216676D02*
X126080951Y-86140485D01*
X126080951Y-86140485D02*
X126042856Y-86102390D01*
X126042856Y-86102390D02*
X125966666Y-86064295D01*
X125966666Y-86064295D02*
X125776189Y-86064295D01*
X125776189Y-86064295D02*
X125661904Y-86102390D01*
X125319046Y-86864295D02*
X125319046Y-86064295D01*
X124519047Y-86102390D02*
X124595237Y-86064295D01*
X124595237Y-86064295D02*
X124709523Y-86064295D01*
X124709523Y-86064295D02*
X124823809Y-86102390D01*
X124823809Y-86102390D02*
X124899999Y-86178580D01*
X124899999Y-86178580D02*
X124938094Y-86254771D01*
X124938094Y-86254771D02*
X124976190Y-86407152D01*
X124976190Y-86407152D02*
X124976190Y-86521438D01*
X124976190Y-86521438D02*
X124938094Y-86673819D01*
X124938094Y-86673819D02*
X124899999Y-86750009D01*
X124899999Y-86750009D02*
X124823809Y-86826200D01*
X124823809Y-86826200D02*
X124709523Y-86864295D01*
X124709523Y-86864295D02*
X124633332Y-86864295D01*
X124633332Y-86864295D02*
X124519047Y-86826200D01*
X124519047Y-86826200D02*
X124480951Y-86788104D01*
X124480951Y-86788104D02*
X124480951Y-86521438D01*
X124480951Y-86521438D02*
X124633332Y-86521438D01*
X124328571Y-86940485D02*
X123719047Y-86940485D01*
X123071427Y-86864295D02*
X123338094Y-86483342D01*
X123528570Y-86864295D02*
X123528570Y-86064295D01*
X123528570Y-86064295D02*
X123223808Y-86064295D01*
X123223808Y-86064295D02*
X123147618Y-86102390D01*
X123147618Y-86102390D02*
X123109523Y-86140485D01*
X123109523Y-86140485D02*
X123071427Y-86216676D01*
X123071427Y-86216676D02*
X123071427Y-86330961D01*
X123071427Y-86330961D02*
X123109523Y-86407152D01*
X123109523Y-86407152D02*
X123147618Y-86445247D01*
X123147618Y-86445247D02*
X123223808Y-86483342D01*
X123223808Y-86483342D02*
X123528570Y-86483342D01*
X122309523Y-86102390D02*
X122385713Y-86064295D01*
X122385713Y-86064295D02*
X122499999Y-86064295D01*
X122499999Y-86064295D02*
X122614285Y-86102390D01*
X122614285Y-86102390D02*
X122690475Y-86178580D01*
X122690475Y-86178580D02*
X122728570Y-86254771D01*
X122728570Y-86254771D02*
X122766666Y-86407152D01*
X122766666Y-86407152D02*
X122766666Y-86521438D01*
X122766666Y-86521438D02*
X122728570Y-86673819D01*
X122728570Y-86673819D02*
X122690475Y-86750009D01*
X122690475Y-86750009D02*
X122614285Y-86826200D01*
X122614285Y-86826200D02*
X122499999Y-86864295D01*
X122499999Y-86864295D02*
X122423808Y-86864295D01*
X122423808Y-86864295D02*
X122309523Y-86826200D01*
X122309523Y-86826200D02*
X122271427Y-86788104D01*
X122271427Y-86788104D02*
X122271427Y-86521438D01*
X122271427Y-86521438D02*
X122423808Y-86521438D01*
X121661904Y-86445247D02*
X121547618Y-86483342D01*
X121547618Y-86483342D02*
X121509523Y-86521438D01*
X121509523Y-86521438D02*
X121471427Y-86597628D01*
X121471427Y-86597628D02*
X121471427Y-86711914D01*
X121471427Y-86711914D02*
X121509523Y-86788104D01*
X121509523Y-86788104D02*
X121547618Y-86826200D01*
X121547618Y-86826200D02*
X121623808Y-86864295D01*
X121623808Y-86864295D02*
X121928570Y-86864295D01*
X121928570Y-86864295D02*
X121928570Y-86064295D01*
X121928570Y-86064295D02*
X121661904Y-86064295D01*
X121661904Y-86064295D02*
X121585713Y-86102390D01*
X121585713Y-86102390D02*
X121547618Y-86140485D01*
X121547618Y-86140485D02*
X121509523Y-86216676D01*
X121509523Y-86216676D02*
X121509523Y-86292866D01*
X121509523Y-86292866D02*
X121547618Y-86369057D01*
X121547618Y-86369057D02*
X121585713Y-86407152D01*
X121585713Y-86407152D02*
X121661904Y-86445247D01*
X121661904Y-86445247D02*
X121928570Y-86445247D01*
X120709523Y-86864295D02*
X121166666Y-86864295D01*
X120938094Y-86864295D02*
X120938094Y-86064295D01*
X120938094Y-86064295D02*
X121014285Y-86178580D01*
X121014285Y-86178580D02*
X121090475Y-86254771D01*
X121090475Y-86254771D02*
X121166666Y-86292866D01*
X120442856Y-87169057D02*
X120404761Y-87130961D01*
X120404761Y-87130961D02*
X120328570Y-87016676D01*
X120328570Y-87016676D02*
X120290475Y-86940485D01*
X120290475Y-86940485D02*
X120252380Y-86826200D01*
X120252380Y-86826200D02*
X120214284Y-86635723D01*
X120214284Y-86635723D02*
X120214284Y-86483342D01*
X120214284Y-86483342D02*
X120252380Y-86292866D01*
X120252380Y-86292866D02*
X120290475Y-86178580D01*
X120290475Y-86178580D02*
X120328570Y-86102390D01*
X120328570Y-86102390D02*
X120404761Y-85988104D01*
X120404761Y-85988104D02*
X120442856Y-85950009D01*
X123261904Y-70564295D02*
X122804761Y-70564295D01*
X123033333Y-71364295D02*
X123033333Y-70564295D01*
X122538094Y-71364295D02*
X122538094Y-70564295D01*
X122538094Y-70564295D02*
X122233332Y-70564295D01*
X122233332Y-70564295D02*
X122157142Y-70602390D01*
X122157142Y-70602390D02*
X122119047Y-70640485D01*
X122119047Y-70640485D02*
X122080951Y-70716676D01*
X122080951Y-70716676D02*
X122080951Y-70830961D01*
X122080951Y-70830961D02*
X122119047Y-70907152D01*
X122119047Y-70907152D02*
X122157142Y-70945247D01*
X122157142Y-70945247D02*
X122233332Y-70983342D01*
X122233332Y-70983342D02*
X122538094Y-70983342D01*
X121776190Y-70640485D02*
X121738094Y-70602390D01*
X121738094Y-70602390D02*
X121661904Y-70564295D01*
X121661904Y-70564295D02*
X121471428Y-70564295D01*
X121471428Y-70564295D02*
X121395237Y-70602390D01*
X121395237Y-70602390D02*
X121357142Y-70640485D01*
X121357142Y-70640485D02*
X121319047Y-70716676D01*
X121319047Y-70716676D02*
X121319047Y-70792866D01*
X121319047Y-70792866D02*
X121357142Y-70907152D01*
X121357142Y-70907152D02*
X121814285Y-71364295D01*
X121814285Y-71364295D02*
X121319047Y-71364295D01*
X120747618Y-71669057D02*
X120785713Y-71630961D01*
X120785713Y-71630961D02*
X120861904Y-71516676D01*
X120861904Y-71516676D02*
X120899999Y-71440485D01*
X120899999Y-71440485D02*
X120938094Y-71326200D01*
X120938094Y-71326200D02*
X120976189Y-71135723D01*
X120976189Y-71135723D02*
X120976189Y-70983342D01*
X120976189Y-70983342D02*
X120938094Y-70792866D01*
X120938094Y-70792866D02*
X120899999Y-70678580D01*
X120899999Y-70678580D02*
X120861904Y-70602390D01*
X120861904Y-70602390D02*
X120785713Y-70488104D01*
X120785713Y-70488104D02*
X120747618Y-70450009D01*
X120023809Y-70602390D02*
X120099999Y-70564295D01*
X120099999Y-70564295D02*
X120214285Y-70564295D01*
X120214285Y-70564295D02*
X120328571Y-70602390D01*
X120328571Y-70602390D02*
X120404761Y-70678580D01*
X120404761Y-70678580D02*
X120442856Y-70754771D01*
X120442856Y-70754771D02*
X120480952Y-70907152D01*
X120480952Y-70907152D02*
X120480952Y-71021438D01*
X120480952Y-71021438D02*
X120442856Y-71173819D01*
X120442856Y-71173819D02*
X120404761Y-71250009D01*
X120404761Y-71250009D02*
X120328571Y-71326200D01*
X120328571Y-71326200D02*
X120214285Y-71364295D01*
X120214285Y-71364295D02*
X120138094Y-71364295D01*
X120138094Y-71364295D02*
X120023809Y-71326200D01*
X120023809Y-71326200D02*
X119985713Y-71288104D01*
X119985713Y-71288104D02*
X119985713Y-71021438D01*
X119985713Y-71021438D02*
X120138094Y-71021438D01*
X119642856Y-71364295D02*
X119642856Y-70564295D01*
X119642856Y-70564295D02*
X119185713Y-71364295D01*
X119185713Y-71364295D02*
X119185713Y-70564295D01*
X118804761Y-71364295D02*
X118804761Y-70564295D01*
X118804761Y-70564295D02*
X118614285Y-70564295D01*
X118614285Y-70564295D02*
X118499999Y-70602390D01*
X118499999Y-70602390D02*
X118423809Y-70678580D01*
X118423809Y-70678580D02*
X118385714Y-70754771D01*
X118385714Y-70754771D02*
X118347618Y-70907152D01*
X118347618Y-70907152D02*
X118347618Y-71021438D01*
X118347618Y-71021438D02*
X118385714Y-71173819D01*
X118385714Y-71173819D02*
X118423809Y-71250009D01*
X118423809Y-71250009D02*
X118499999Y-71326200D01*
X118499999Y-71326200D02*
X118614285Y-71364295D01*
X118614285Y-71364295D02*
X118804761Y-71364295D01*
X118080952Y-71669057D02*
X118042857Y-71630961D01*
X118042857Y-71630961D02*
X117966666Y-71516676D01*
X117966666Y-71516676D02*
X117928571Y-71440485D01*
X117928571Y-71440485D02*
X117890476Y-71326200D01*
X117890476Y-71326200D02*
X117852380Y-71135723D01*
X117852380Y-71135723D02*
X117852380Y-70983342D01*
X117852380Y-70983342D02*
X117890476Y-70792866D01*
X117890476Y-70792866D02*
X117928571Y-70678580D01*
X117928571Y-70678580D02*
X117966666Y-70602390D01*
X117966666Y-70602390D02*
X118042857Y-70488104D01*
X118042857Y-70488104D02*
X118080952Y-70450009D01*
X130042857Y-70564295D02*
X129585714Y-70564295D01*
X129814286Y-71364295D02*
X129814286Y-70564295D01*
X129319047Y-71364295D02*
X129319047Y-70564295D01*
X129319047Y-70564295D02*
X129014285Y-70564295D01*
X129014285Y-70564295D02*
X128938095Y-70602390D01*
X128938095Y-70602390D02*
X128900000Y-70640485D01*
X128900000Y-70640485D02*
X128861904Y-70716676D01*
X128861904Y-70716676D02*
X128861904Y-70830961D01*
X128861904Y-70830961D02*
X128900000Y-70907152D01*
X128900000Y-70907152D02*
X128938095Y-70945247D01*
X128938095Y-70945247D02*
X129014285Y-70983342D01*
X129014285Y-70983342D02*
X129319047Y-70983342D01*
X128100000Y-71364295D02*
X128557143Y-71364295D01*
X128328571Y-71364295D02*
X128328571Y-70564295D01*
X128328571Y-70564295D02*
X128404762Y-70678580D01*
X128404762Y-70678580D02*
X128480952Y-70754771D01*
X128480952Y-70754771D02*
X128557143Y-70792866D01*
X127528571Y-71669057D02*
X127566666Y-71630961D01*
X127566666Y-71630961D02*
X127642857Y-71516676D01*
X127642857Y-71516676D02*
X127680952Y-71440485D01*
X127680952Y-71440485D02*
X127719047Y-71326200D01*
X127719047Y-71326200D02*
X127757142Y-71135723D01*
X127757142Y-71135723D02*
X127757142Y-70983342D01*
X127757142Y-70983342D02*
X127719047Y-70792866D01*
X127719047Y-70792866D02*
X127680952Y-70678580D01*
X127680952Y-70678580D02*
X127642857Y-70602390D01*
X127642857Y-70602390D02*
X127566666Y-70488104D01*
X127566666Y-70488104D02*
X127528571Y-70450009D01*
X127223809Y-71364295D02*
X127223809Y-70564295D01*
X127223809Y-70564295D02*
X126919047Y-70564295D01*
X126919047Y-70564295D02*
X126842857Y-70602390D01*
X126842857Y-70602390D02*
X126804762Y-70640485D01*
X126804762Y-70640485D02*
X126766666Y-70716676D01*
X126766666Y-70716676D02*
X126766666Y-70830961D01*
X126766666Y-70830961D02*
X126804762Y-70907152D01*
X126804762Y-70907152D02*
X126842857Y-70945247D01*
X126842857Y-70945247D02*
X126919047Y-70983342D01*
X126919047Y-70983342D02*
X127223809Y-70983342D01*
X126500000Y-70564295D02*
X126309524Y-71364295D01*
X126309524Y-71364295D02*
X126157143Y-70792866D01*
X126157143Y-70792866D02*
X126004762Y-71364295D01*
X126004762Y-71364295D02*
X125814286Y-70564295D01*
X125509523Y-71364295D02*
X125509523Y-70564295D01*
X125509523Y-70564295D02*
X125242857Y-71135723D01*
X125242857Y-71135723D02*
X124976190Y-70564295D01*
X124976190Y-70564295D02*
X124976190Y-71364295D01*
X124785714Y-71440485D02*
X124176190Y-71440485D01*
X123833332Y-70564295D02*
X123757142Y-70564295D01*
X123757142Y-70564295D02*
X123680951Y-70602390D01*
X123680951Y-70602390D02*
X123642856Y-70640485D01*
X123642856Y-70640485D02*
X123604761Y-70716676D01*
X123604761Y-70716676D02*
X123566666Y-70869057D01*
X123566666Y-70869057D02*
X123566666Y-71059533D01*
X123566666Y-71059533D02*
X123604761Y-71211914D01*
X123604761Y-71211914D02*
X123642856Y-71288104D01*
X123642856Y-71288104D02*
X123680951Y-71326200D01*
X123680951Y-71326200D02*
X123757142Y-71364295D01*
X123757142Y-71364295D02*
X123833332Y-71364295D01*
X123833332Y-71364295D02*
X123909523Y-71326200D01*
X123909523Y-71326200D02*
X123947618Y-71288104D01*
X123947618Y-71288104D02*
X123985713Y-71211914D01*
X123985713Y-71211914D02*
X124023809Y-71059533D01*
X124023809Y-71059533D02*
X124023809Y-70869057D01*
X124023809Y-70869057D02*
X123985713Y-70716676D01*
X123985713Y-70716676D02*
X123947618Y-70640485D01*
X123947618Y-70640485D02*
X123909523Y-70602390D01*
X123909523Y-70602390D02*
X123833332Y-70564295D01*
X123299999Y-71669057D02*
X123261904Y-71630961D01*
X123261904Y-71630961D02*
X123185713Y-71516676D01*
X123185713Y-71516676D02*
X123147618Y-71440485D01*
X123147618Y-71440485D02*
X123109523Y-71326200D01*
X123109523Y-71326200D02*
X123071427Y-71135723D01*
X123071427Y-71135723D02*
X123071427Y-70983342D01*
X123071427Y-70983342D02*
X123109523Y-70792866D01*
X123109523Y-70792866D02*
X123147618Y-70678580D01*
X123147618Y-70678580D02*
X123185713Y-70602390D01*
X123185713Y-70602390D02*
X123261904Y-70488104D01*
X123261904Y-70488104D02*
X123299999Y-70450009D01*
%TO.C,TP14(GND)*%
X148700000Y-86500000D02*
G75*
G02*
X146300000Y-86500000I-1200000J0D01*
G01*
X146300000Y-86500000D02*
G75*
G02*
X148700000Y-86500000I1200000J0D01*
G01*
%TO.C,TP13(PWM_1)*%
X143200000Y-65000000D02*
G75*
G02*
X140800000Y-65000000I-1200000J0D01*
G01*
X140800000Y-65000000D02*
G75*
G02*
X143200000Y-65000000I1200000J0D01*
G01*
%TO.C,TP12(GND)*%
X143200000Y-60000000D02*
G75*
G02*
X140800000Y-60000000I-1200000J0D01*
G01*
X140800000Y-60000000D02*
G75*
G02*
X143200000Y-60000000I1200000J0D01*
G01*
%TO.C,TP11(SDA)*%
X148700000Y-82000000D02*
G75*
G02*
X146300000Y-82000000I-1200000J0D01*
G01*
X146300000Y-82000000D02*
G75*
G02*
X148700000Y-82000000I1200000J0D01*
G01*
%TO.C,TP10(GND)*%
X155200000Y-66500000D02*
G75*
G02*
X152800000Y-66500000I-1200000J0D01*
G01*
X152800000Y-66500000D02*
G75*
G02*
X155200000Y-66500000I1200000J0D01*
G01*
%TO.C,TP9(SCL)*%
X155200000Y-71500000D02*
G75*
G02*
X152800000Y-71500000I-1200000J0D01*
G01*
X152800000Y-71500000D02*
G75*
G02*
X155200000Y-71500000I1200000J0D01*
G01*
%TO.C,TP8(GND)*%
X131700000Y-111000000D02*
G75*
G02*
X129300000Y-111000000I-1200000J0D01*
G01*
X129300000Y-111000000D02*
G75*
G02*
X131700000Y-111000000I1200000J0D01*
G01*
%TO.C,TP7(SIG_RGB3)*%
X131700000Y-107000000D02*
G75*
G02*
X129300000Y-107000000I-1200000J0D01*
G01*
X129300000Y-107000000D02*
G75*
G02*
X131700000Y-107000000I1200000J0D01*
G01*
%TO.C,TP6(GND)*%
X131200000Y-101500000D02*
G75*
G02*
X128800000Y-101500000I-1200000J0D01*
G01*
X128800000Y-101500000D02*
G75*
G02*
X131200000Y-101500000I1200000J0D01*
G01*
%TO.C,TP5(SIG_RGB2)*%
X131200000Y-97500000D02*
G75*
G02*
X128800000Y-97500000I-1200000J0D01*
G01*
X128800000Y-97500000D02*
G75*
G02*
X131200000Y-97500000I1200000J0D01*
G01*
%TO.C,TP4(GND)*%
X125700000Y-92500000D02*
G75*
G02*
X123300000Y-92500000I-1200000J0D01*
G01*
X123300000Y-92500000D02*
G75*
G02*
X125700000Y-92500000I1200000J0D01*
G01*
%TO.C,TP3(SIG_RGB1)*%
X125700000Y-88500000D02*
G75*
G02*
X123300000Y-88500000I-1200000J0D01*
G01*
X123300000Y-88500000D02*
G75*
G02*
X125700000Y-88500000I1200000J0D01*
G01*
%TO.C,TP2(GND)*%
X121700000Y-73000000D02*
G75*
G02*
X119300000Y-73000000I-1200000J0D01*
G01*
X119300000Y-73000000D02*
G75*
G02*
X121700000Y-73000000I1200000J0D01*
G01*
%TO.C,TP1(PWM_0)*%
X127700000Y-73000000D02*
G75*
G02*
X125300000Y-73000000I-1200000J0D01*
G01*
X125300000Y-73000000D02*
G75*
G02*
X127700000Y-73000000I1200000J0D01*
G01*
%TD*%
M02*
