%TF.GenerationSoftware,KiCad,Pcbnew,8.0.6-8.0.6-0~ubuntu24.04.1*%
%TF.CreationDate,2024-11-24T15:52:49-06:00*%
%TF.ProjectId,edge_human_detection_board,65646765-5f68-4756-9d61-6e5f64657465,rev?*%
%TF.SameCoordinates,Original*%
%TF.FileFunction,Copper,L1,Top*%
%TF.FilePolarity,Positive*%
%FSLAX46Y46*%
G04 Gerber Fmt 4.6, Leading zero omitted, Abs format (unit mm)*
G04 Created by KiCad (PCBNEW 8.0.6-8.0.6-0~ubuntu24.04.1) date 2024-11-24 15:52:49*
%MOMM*%
%LPD*%
G01*
G04 APERTURE LIST*
G04 Aperture macros list*
%AMRoundRect*
0 Rectangle with rounded corners*
0 $1 Rounding radius*
0 $2 $3 $4 $5 $6 $7 $8 $9 X,Y pos of 4 corners*
0 Add a 4 corners polygon primitive as box body*
4,1,4,$2,$3,$4,$5,$6,$7,$8,$9,$2,$3,0*
0 Add four circle primitives for the rounded corners*
1,1,$1+$1,$2,$3*
1,1,$1+$1,$4,$5*
1,1,$1+$1,$6,$7*
1,1,$1+$1,$8,$9*
0 Add four rect primitives between the rounded corners*
20,1,$1+$1,$2,$3,$4,$5,0*
20,1,$1+$1,$4,$5,$6,$7,0*
20,1,$1+$1,$6,$7,$8,$9,0*
20,1,$1+$1,$8,$9,$2,$3,0*%
G04 Aperture macros list end*
%TA.AperFunction,SMDPad,CuDef*%
%ADD10R,1.475000X0.450000*%
%TD*%
%TA.AperFunction,SMDPad,CuDef*%
%ADD11RoundRect,0.250000X-0.350000X-0.450000X0.350000X-0.450000X0.350000X0.450000X-0.350000X0.450000X0*%
%TD*%
%TA.AperFunction,SMDPad,CuDef*%
%ADD12RoundRect,0.250000X0.450000X-0.350000X0.450000X0.350000X-0.450000X0.350000X-0.450000X-0.350000X0*%
%TD*%
%TA.AperFunction,SMDPad,CuDef*%
%ADD13RoundRect,0.250000X-0.450000X0.350000X-0.450000X-0.350000X0.450000X-0.350000X0.450000X0.350000X0*%
%TD*%
%TA.AperFunction,SMDPad,CuDef*%
%ADD14O,0.700000X2.600000*%
%TD*%
%TA.AperFunction,ComponentPad*%
%ADD15C,5.500000*%
%TD*%
%TA.AperFunction,ComponentPad*%
%ADD16R,1.524000X1.524000*%
%TD*%
%TA.AperFunction,ComponentPad*%
%ADD17C,1.524000*%
%TD*%
%TA.AperFunction,SMDPad,CuDef*%
%ADD18RoundRect,0.090000X-0.660000X-0.360000X0.660000X-0.360000X0.660000X0.360000X-0.660000X0.360000X0*%
%TD*%
%TA.AperFunction,SMDPad,CuDef*%
%ADD19RoundRect,0.208750X-0.208750X-0.431250X0.208750X-0.431250X0.208750X0.431250X-0.208750X0.431250X0*%
%TD*%
%TA.AperFunction,SMDPad,CuDef*%
%ADD20RoundRect,0.250000X-0.325000X-0.450000X0.325000X-0.450000X0.325000X0.450000X-0.325000X0.450000X0*%
%TD*%
%TA.AperFunction,SMDPad,CuDef*%
%ADD21RoundRect,0.208750X0.431250X-0.208750X0.431250X0.208750X-0.431250X0.208750X-0.431250X-0.208750X0*%
%TD*%
%TA.AperFunction,ComponentPad*%
%ADD22R,1.700000X1.700000*%
%TD*%
%TA.AperFunction,ComponentPad*%
%ADD23O,1.700000X1.700000*%
%TD*%
%TA.AperFunction,SMDPad,CuDef*%
%ADD24RoundRect,0.250000X0.350000X0.450000X-0.350000X0.450000X-0.350000X-0.450000X0.350000X-0.450000X0*%
%TD*%
%TA.AperFunction,ViaPad*%
%ADD25C,0.533400*%
%TD*%
%TA.AperFunction,Conductor*%
%ADD26C,0.152400*%
%TD*%
%TA.AperFunction,Conductor*%
%ADD27C,0.508000*%
%TD*%
G04 APERTURE END LIST*
D10*
%TO.P,IC1,1,A1*%
%TO.N,/RGB Signalling/SIG_IN_PWM0*%
X119062000Y-77575000D03*
%TO.P,IC1,2,VCCA*%
%TO.N,/Coral Micro Breakouts/+1.8VDC_RGB*%
X119062000Y-78225000D03*
%TO.P,IC1,3,A2*%
%TO.N,unconnected-(IC1-A2-Pad3)*%
X119062000Y-78875000D03*
%TO.P,IC1,4,A3*%
%TO.N,unconnected-(IC1-A3-Pad4)*%
X119062000Y-79525000D03*
%TO.P,IC1,5,A4*%
%TO.N,unconnected-(IC1-A4-Pad5)*%
X119062000Y-80175000D03*
%TO.P,IC1,6,A5*%
%TO.N,unconnected-(IC1-A5-Pad6)*%
X119062000Y-80825000D03*
%TO.P,IC1,7,A6*%
%TO.N,unconnected-(IC1-A6-Pad7)*%
X119062000Y-81475000D03*
%TO.P,IC1,8,A7*%
%TO.N,unconnected-(IC1-A7-Pad8)*%
X119062000Y-82125000D03*
%TO.P,IC1,9,A8*%
%TO.N,unconnected-(IC1-A8-Pad9)*%
X119062000Y-82775000D03*
%TO.P,IC1,10,OE*%
%TO.N,/Coral Micro Breakouts/+1.8VDC_RGB*%
X119062000Y-83425000D03*
%TO.P,IC1,11,GND*%
%TO.N,GND*%
X124938000Y-83425000D03*
%TO.P,IC1,12,B8*%
%TO.N,unconnected-(IC1-B8-Pad12)*%
X124938000Y-82775000D03*
%TO.P,IC1,13,B7*%
%TO.N,unconnected-(IC1-B7-Pad13)*%
X124938000Y-82125000D03*
%TO.P,IC1,14,B6*%
%TO.N,unconnected-(IC1-B6-Pad14)*%
X124938000Y-81475000D03*
%TO.P,IC1,15,B5*%
%TO.N,unconnected-(IC1-B5-Pad15)*%
X124938000Y-80825000D03*
%TO.P,IC1,16,B4*%
%TO.N,unconnected-(IC1-B4-Pad16)*%
X124938000Y-80175000D03*
%TO.P,IC1,17,B3*%
%TO.N,unconnected-(IC1-B3-Pad17)*%
X124938000Y-79525000D03*
%TO.P,IC1,18,B2*%
%TO.N,unconnected-(IC1-B2-Pad18)*%
X124938000Y-78875000D03*
%TO.P,IC1,19,VCCB*%
%TO.N,/Coral Micro Breakouts/+5VDC*%
X124938000Y-78225000D03*
%TO.P,IC1,20,B1*%
%TO.N,/RGB Signalling/SIG_IN_RGB1*%
X124938000Y-77575000D03*
%TD*%
D11*
%TO.P,R1,2*%
%TO.N,Net-(U1-VSYS)*%
X130000000Y-78500000D03*
%TO.P,R1,1*%
%TO.N,/Coral Micro Breakouts/+5VDC*%
X128000000Y-78500000D03*
%TD*%
D12*
%TO.P,R5,1*%
%TO.N,Net-(U1-3.3V)*%
X169500000Y-55500000D03*
%TO.P,R5,2*%
%TO.N,/Coral Micro Breakouts/+3.3VDC*%
X169500000Y-53500000D03*
%TD*%
%TO.P,R4,1*%
%TO.N,Net-(R4-Pad1)*%
X166500000Y-60000000D03*
%TO.P,R4,2*%
%TO.N,/Coral Micro Breakouts/+1.8VDC_TOF*%
X166500000Y-58000000D03*
%TD*%
D13*
%TO.P,R3,1*%
%TO.N,/Coral Micro Breakouts/+1.8VDC_RGB*%
X128500000Y-54500000D03*
%TO.P,R3,2*%
%TO.N,Net-(R3-Pad2)*%
X128500000Y-56500000D03*
%TD*%
D14*
%TO.P,U2,1,DUT_GND*%
%TO.N,GND*%
X140050000Y-37000000D03*
%TO.P,U2,2,NCS*%
%TO.N,unconnected-(U2-NCS-Pad2)*%
X141580000Y-37000000D03*
%TO.P,U2,3,CORE_1V8*%
%TO.N,/Coral Micro Breakouts/+1.8VDC_TOF*%
X143110000Y-37000000D03*
%TO.P,U2,4,LPn*%
%TO.N,/TOF Sensor/PWM_1*%
X144640000Y-37000000D03*
%TO.P,U2,5,MISO*%
%TO.N,unconnected-(U2-MISO-Pad5)*%
X146170000Y-37000000D03*
%TO.P,U2,6,SDA*%
%TO.N,/TOF Sensor/SDA*%
X147700000Y-37000000D03*
%TO.P,U2,7,I2C_N*%
%TO.N,GND*%
X149230000Y-37000000D03*
%TO.P,U2,8,SCL*%
%TO.N,/TOF Sensor/SCL*%
X150760000Y-37000000D03*
%TO.P,U2,9,GPIO1*%
%TO.N,unconnected-(U2-GPIO1-Pad9)*%
X152290000Y-37000000D03*
%TO.P,U2,10,GPIO2*%
%TO.N,unconnected-(U2-GPIO2-Pad10)*%
X153820000Y-37000000D03*
%TO.P,U2,11,IOVDD*%
%TO.N,/Coral Micro Breakouts/+1.8VDC_TOF*%
X155350000Y-37000000D03*
%TO.P,U2,12,AVDD*%
%TO.N,/Coral Micro Breakouts/+3.3VDC*%
X156880000Y-37000000D03*
%TD*%
D15*
%TO.P,U1,*%
%TO.N,*%
X159513240Y-53551320D03*
X136513240Y-53551320D03*
X159513240Y-111551320D03*
X136513240Y-111551320D03*
D16*
%TO.P,U1,1,GND*%
%TO.N,GND*%
X162000000Y-58060000D03*
D17*
%TO.P,U1,2,1.8V*%
%TO.N,Net-(R4-Pad1)*%
X162000000Y-60600000D03*
%TO.P,U1,3,3.3V*%
%TO.N,Net-(U1-3.3V)*%
X162000000Y-63140000D03*
%TO.P,U1,4,RTC_3V*%
%TO.N,unconnected-(U1-RTC_3V-Pad4)*%
X162000000Y-65680000D03*
%TO.P,U1,5,SPI6_CS0*%
%TO.N,unconnected-(U1-SPI6_CS0-Pad5)*%
X162000000Y-68220000D03*
%TO.P,U1,6,SPI6_SCK*%
%TO.N,unconnected-(U1-SPI6_SCK-Pad6)*%
X162000000Y-70760000D03*
%TO.P,U1,7,SPI6_SDO*%
%TO.N,unconnected-(U1-SPI6_SDO-Pad7)*%
X162000000Y-73300000D03*
%TO.P,U1,8,SPI6_SDI*%
%TO.N,unconnected-(U1-SPI6_SDI-Pad8)*%
X162000000Y-75840000D03*
%TO.P,U1,9,DAC_OUT*%
%TO.N,unconnected-(U1-DAC_OUT-Pad9)*%
X162000000Y-78380000D03*
%TO.P,U1,10,I2C6_SDA*%
%TO.N,unconnected-(U1-I2C6_SDA-Pad10)*%
X162000000Y-80920000D03*
%TO.P,U1,11,I2C1_SCL*%
%TO.N,/TOF Sensor/SCL*%
X162000000Y-83460000D03*
%TO.P,U1,12,I2C1_SDA*%
%TO.N,/TOF Sensor/SDA*%
X162000000Y-86000000D03*
D16*
%TO.P,U1,13,GND*%
%TO.N,GND*%
X134060000Y-58060000D03*
D17*
%TO.P,U1,14,1.8V*%
%TO.N,Net-(R3-Pad2)*%
X134060000Y-60600000D03*
%TO.P,U1,15,ADC1_CH0A*%
%TO.N,unconnected-(U1-ADC1_CH0A-Pad15)*%
X134060000Y-63140000D03*
%TO.P,U1,16,ADC1_CH0B*%
%TO.N,unconnected-(U1-ADC1_CH0B-Pad16)*%
X134060000Y-65680000D03*
%TO.P,U1,17,UART6_TX*%
%TO.N,/Coral Micro Breakouts/DEBUG_TX*%
X134060000Y-68220000D03*
%TO.P,U1,18,UART6_RX*%
%TO.N,/Coral Micro Breakouts/DEBUG_RX*%
X134060000Y-70760000D03*
%TO.P,U1,19,UART6_CTX*%
%TO.N,unconnected-(U1-UART6_CTX-Pad19)*%
X134060000Y-73300000D03*
%TO.P,U1,20,UART6_RTS*%
%TO.N,unconnected-(U1-UART6_RTS-Pad20)*%
X134060000Y-75840000D03*
%TO.P,U1,21,PWM_B*%
%TO.N,/TOF Sensor/PWM_1*%
X134060000Y-78380000D03*
%TO.P,U1,22,PWM_A*%
%TO.N,/RGB Signalling/SIG_IN_PWM0*%
X134060000Y-80920000D03*
%TO.P,U1,23,I2C6_SCL*%
%TO.N,unconnected-(U1-I2C6_SCL-Pad23)*%
X134060000Y-83460000D03*
%TO.P,U1,24,VSYS*%
%TO.N,Net-(U1-VSYS)*%
X134060000Y-86000000D03*
%TD*%
D18*
%TO.P,D3,4,DIN*%
%TO.N,/RGB Signalling/SIG_IN_RGB2*%
X126950000Y-98850000D03*
%TO.P,D3,3,VSS*%
%TO.N,GND*%
X126950000Y-102150000D03*
%TO.P,D3,2,DOUT*%
%TO.N,/RGB Signalling/SIG_IN_RGB3*%
X122050000Y-102150000D03*
%TO.P,D3,1,VDD*%
%TO.N,/Coral Micro Breakouts/+5VDC*%
X122050000Y-98850000D03*
%TD*%
D19*
%TO.P,C3,1*%
%TO.N,GND*%
X117245000Y-99000000D03*
%TO.P,C3,2*%
%TO.N,/Coral Micro Breakouts/+5VDC*%
X118500000Y-99000000D03*
%TD*%
D18*
%TO.P,D4,4,DIN*%
%TO.N,/RGB Signalling/SIG_IN_RGB3*%
X126950000Y-107350000D03*
%TO.P,D4,3,VSS*%
%TO.N,GND*%
X126950000Y-110650000D03*
%TO.P,D4,2,DOUT*%
%TO.N,unconnected-(D4-DOUT-Pad2)*%
X122050000Y-110650000D03*
%TO.P,D4,1,VDD*%
%TO.N,/Coral Micro Breakouts/+5VDC*%
X122050000Y-107350000D03*
%TD*%
D20*
%TO.P,D1,1,K*%
%TO.N,GND*%
X119975000Y-69500000D03*
%TO.P,D1,2,A*%
%TO.N,Net-(D1-A)*%
X122025000Y-69500000D03*
%TD*%
D19*
%TO.P,C4,1*%
%TO.N,GND*%
X117372500Y-107500000D03*
%TO.P,C4,2*%
%TO.N,/Coral Micro Breakouts/+5VDC*%
X118627500Y-107500000D03*
%TD*%
%TO.P,C2,1*%
%TO.N,GND*%
X117372500Y-91000000D03*
%TO.P,C2,2*%
%TO.N,/Coral Micro Breakouts/+5VDC*%
X118627500Y-91000000D03*
%TD*%
D21*
%TO.P,C1,1*%
%TO.N,GND*%
X130000000Y-87627500D03*
%TO.P,C1,2*%
%TO.N,Net-(U1-VSYS)*%
X130000000Y-86372500D03*
%TD*%
D22*
%TO.P,J1,1,Pin_1*%
%TO.N,GND*%
X122000000Y-54000000D03*
D23*
%TO.P,J1,2,Pin_2*%
%TO.N,/Coral Micro Breakouts/DEBUG_TX*%
X122000000Y-56540000D03*
%TO.P,J1,3,Pin_3*%
%TO.N,/Coral Micro Breakouts/DEBUG_RX*%
X122000000Y-59080000D03*
%TD*%
D18*
%TO.P,D2,4,DIN*%
%TO.N,/RGB Signalling/SIG_IN_RGB1*%
X126950000Y-90850000D03*
%TO.P,D2,3,VSS*%
%TO.N,GND*%
X126950000Y-94150000D03*
%TO.P,D2,2,DOUT*%
%TO.N,/RGB Signalling/SIG_IN_RGB2*%
X122050000Y-94150000D03*
%TO.P,D2,1,VDD*%
%TO.N,/Coral Micro Breakouts/+5VDC*%
X122050000Y-90850000D03*
%TD*%
D24*
%TO.P,R2,1*%
%TO.N,Net-(U1-VSYS)*%
X127500000Y-69500000D03*
%TO.P,R2,2*%
%TO.N,Net-(D1-A)*%
X125500000Y-69500000D03*
%TD*%
D25*
%TO.N,/RGB Signalling/SIG_IN_RGB3*%
X129000000Y-105500000D03*
%TO.N,GND*%
X156500000Y-74000000D03*
X145500000Y-80000000D03*
%TO.N,/TOF Sensor/SDA*%
X146500000Y-79500000D03*
%TO.N,/TOF Sensor/SCL*%
X155500000Y-74000000D03*
%TO.N,GND*%
X141500000Y-68500000D03*
%TO.N,/TOF Sensor/PWM_1*%
X142500000Y-68000000D03*
%TO.N,GND*%
X120500000Y-96500000D03*
%TO.N,/RGB Signalling/SIG_IN_RGB2*%
X127500000Y-96500000D03*
%TO.N,GND*%
X165000000Y-54500000D03*
%TO.N,/Coral Micro Breakouts/+1.8VDC_TOF*%
X166500000Y-55000000D03*
%TO.N,/Coral Micro Breakouts/+1.8VDC_RGB*%
X128500000Y-53500000D03*
%TO.N,GND*%
X135000000Y-43000000D03*
X169500000Y-74500000D03*
X169500000Y-87500000D03*
X169000000Y-99000000D03*
X168500000Y-110000000D03*
X159500000Y-99000000D03*
X136500000Y-99000000D03*
X159500000Y-104000000D03*
X136500000Y-103500000D03*
X160500000Y-43000000D03*
X121000000Y-43000000D03*
X138500000Y-80000000D03*
X128000000Y-76000000D03*
X121000000Y-75000000D03*
X118500000Y-75000000D03*
X140500000Y-34500000D03*
X153000000Y-34500000D03*
X157000000Y-34500000D03*
X129500000Y-103500000D03*
X150000000Y-34500000D03*
X129000000Y-112000000D03*
X125000000Y-85000000D03*
X129500000Y-95500000D03*
X131000000Y-90500000D03*
X125500000Y-50000000D03*
%TO.N,/Coral Micro Breakouts/+1.8VDC_RGB*%
X117000000Y-75000000D03*
%TO.N,/RGB Signalling/SIG_IN_PWM0*%
X121500000Y-76000000D03*
X137500000Y-80000000D03*
%TO.N,/Coral Micro Breakouts/+1.8VDC_TOF*%
X142500000Y-34500000D03*
X154500000Y-34500000D03*
%TO.N,/RGB Signalling/SIG_IN_RGB1*%
X130000000Y-91500000D03*
X126500000Y-76000000D03*
%TD*%
D26*
%TO.N,/RGB Signalling/SIG_IN_RGB3*%
X126950000Y-105050000D02*
X128550000Y-105050000D01*
X128550000Y-105050000D02*
X129000000Y-105500000D01*
%TO.N,/RGB Signalling/SIG_IN_RGB2*%
X127500000Y-96500000D02*
X126000000Y-96500000D01*
X126000000Y-96500000D02*
X125500000Y-96000000D01*
%TO.N,/RGB Signalling/SIG_IN_RGB3*%
X121500000Y-104000000D02*
X124500000Y-104000000D01*
X124500000Y-104000000D02*
X125900000Y-104000000D01*
X122050000Y-102150000D02*
X121500000Y-102700000D01*
X125900000Y-104000000D02*
X126950000Y-105050000D01*
X121500000Y-102700000D02*
X121500000Y-104000000D01*
X126950000Y-105050000D02*
X126950000Y-107350000D01*
%TO.N,/TOF Sensor/SDA*%
X146500000Y-79500000D02*
X147700000Y-78300000D01*
X147700000Y-78300000D02*
X147700000Y-78200000D01*
%TO.N,/TOF Sensor/SCL*%
X162000000Y-83460000D02*
X154520000Y-75980000D01*
X155500000Y-75000000D02*
X154520000Y-75980000D01*
X154520000Y-75980000D02*
X151000000Y-72460000D01*
X155500000Y-74000000D02*
X155500000Y-75000000D01*
%TO.N,/TOF Sensor/PWM_1*%
X143470000Y-68970000D02*
X142500000Y-68000000D01*
X144640000Y-67800000D02*
X143470000Y-68970000D01*
X143470000Y-68970000D02*
X134060000Y-78380000D01*
D27*
%TO.N,/Coral Micro Breakouts/+5VDC*%
X128000000Y-78500000D02*
X128000000Y-85500000D01*
X128000000Y-85500000D02*
X127000000Y-86500000D01*
X127000000Y-86500000D02*
X122000000Y-86500000D01*
X122000000Y-86500000D02*
X118627500Y-89872500D01*
X118627500Y-89872500D02*
X118627500Y-91000000D01*
X128000000Y-78500000D02*
X127725000Y-78225000D01*
X127725000Y-78225000D02*
X124938000Y-78225000D01*
%TO.N,Net-(U1-VSYS)*%
X130000000Y-78500000D02*
X130000000Y-72000000D01*
X130000000Y-72000000D02*
X127500000Y-69500000D01*
X130000000Y-86372500D02*
X130000000Y-78500000D01*
%TO.N,GND*%
X125000000Y-85000000D02*
X125000000Y-83487000D01*
X125000000Y-83487000D02*
X124938000Y-83425000D01*
%TO.N,Net-(R4-Pad1)*%
X162000000Y-60600000D02*
X165900000Y-60600000D01*
X165900000Y-60600000D02*
X166500000Y-60000000D01*
%TO.N,/Coral Micro Breakouts/+1.8VDC_TOF*%
X166500000Y-58000000D02*
X166500000Y-55000000D01*
%TO.N,/Coral Micro Breakouts/+3.3VDC*%
X169500000Y-53500000D02*
X169500000Y-46000000D01*
%TO.N,Net-(U1-3.3V)*%
X169500000Y-62500000D02*
X169500000Y-55500000D01*
%TO.N,/Coral Micro Breakouts/+1.8VDC_RGB*%
X128500000Y-54500000D02*
X128500000Y-53500000D01*
%TO.N,Net-(R3-Pad2)*%
X134060000Y-60600000D02*
X133960000Y-60500000D01*
X133960000Y-60500000D02*
X131000000Y-60500000D01*
X131000000Y-60500000D02*
X128500000Y-58000000D01*
X128500000Y-58000000D02*
X128500000Y-56500000D01*
%TO.N,GND*%
X129000000Y-112000000D02*
X127650000Y-110650000D01*
X127650000Y-110650000D02*
X126950000Y-110650000D01*
X129500000Y-103500000D02*
X128150000Y-102150000D01*
X128150000Y-102150000D02*
X126950000Y-102150000D01*
X129500000Y-95500000D02*
X128150000Y-94150000D01*
X128150000Y-94150000D02*
X126950000Y-94150000D01*
X131000000Y-90500000D02*
X131000000Y-88627500D01*
X131000000Y-88627500D02*
X130000000Y-87627500D01*
X140500000Y-34500000D02*
X140050000Y-34950000D01*
X140050000Y-34950000D02*
X140050000Y-37000000D01*
X122000000Y-54000000D02*
X122000000Y-53500000D01*
X149230000Y-35270000D02*
X150000000Y-34500000D01*
X149230000Y-37000000D02*
X149230000Y-35270000D01*
X122000000Y-53500000D02*
X125500000Y-50000000D01*
%TO.N,/Coral Micro Breakouts/+5VDC*%
X118627500Y-100127500D02*
X118627500Y-107500000D01*
X118777500Y-107350000D02*
X118627500Y-107500000D01*
X122050000Y-90850000D02*
X118777500Y-90850000D01*
X118650000Y-98850000D02*
X118500000Y-99000000D01*
%TO.N,Net-(U1-VSYS)*%
X134060000Y-86000000D02*
X132500000Y-86000000D01*
X130127500Y-86500000D02*
X130000000Y-86372500D01*
X132000000Y-86500000D02*
X130127500Y-86500000D01*
%TO.N,/Coral Micro Breakouts/+5VDC*%
X118627500Y-98872500D02*
X118500000Y-99000000D01*
X118500000Y-99000000D02*
X118500000Y-100000000D01*
X122050000Y-107350000D02*
X118777500Y-107350000D01*
X122050000Y-98850000D02*
X118650000Y-98850000D01*
X118777500Y-90850000D02*
X118627500Y-91000000D01*
X118500000Y-100000000D02*
X118627500Y-100127500D01*
X118627500Y-91000000D02*
X118627500Y-98872500D01*
%TO.N,Net-(U1-VSYS)*%
X132500000Y-86000000D02*
X132000000Y-86500000D01*
D26*
%TO.N,/RGB Signalling/SIG_IN_RGB2*%
X125500000Y-96000000D02*
X126950000Y-97450000D01*
X126950000Y-97450000D02*
X126950000Y-98850000D01*
X122050000Y-94150000D02*
X122050000Y-96000000D01*
X122050000Y-96000000D02*
X125500000Y-96000000D01*
D27*
%TO.N,/Coral Micro Breakouts/+1.8VDC_RGB*%
X119062000Y-78225000D02*
X117275000Y-78225000D01*
X116500000Y-82850000D02*
X117075000Y-83425000D01*
X119062000Y-83425000D02*
X117075000Y-83425000D01*
X117275000Y-78225000D02*
X116500000Y-79000000D01*
X116500000Y-79000000D02*
X116500000Y-75500000D01*
X116500000Y-79000000D02*
X116500000Y-82850000D01*
X116500000Y-75500000D02*
X117000000Y-75000000D01*
D26*
%TO.N,/RGB Signalling/SIG_IN_PWM0*%
X136580000Y-80920000D02*
X137500000Y-80000000D01*
X121500000Y-76000000D02*
X120637000Y-76000000D01*
X120637000Y-76000000D02*
X119062000Y-77575000D01*
X134060000Y-80920000D02*
X136580000Y-80920000D01*
%TO.N,/Coral Micro Breakouts/DEBUG_RX*%
X122580000Y-59080000D02*
X134060000Y-70560000D01*
X134060000Y-70060000D02*
X134060000Y-70760000D01*
X134060000Y-70560000D02*
X134060000Y-70760000D01*
X122000000Y-59080000D02*
X122580000Y-59080000D01*
%TO.N,/TOF Sensor/PWM_1*%
X144640000Y-37000000D02*
X144640000Y-67800000D01*
%TO.N,/TOF Sensor/SCL*%
X151000000Y-37240000D02*
X150760000Y-37000000D01*
X151000000Y-72460000D02*
X151000000Y-37240000D01*
D27*
%TO.N,/Coral Micro Breakouts/+3.3VDC*%
X160500000Y-37000000D02*
X156880000Y-37000000D01*
X169500000Y-46000000D02*
X160500000Y-37000000D01*
%TO.N,Net-(U1-3.3V)*%
X168860000Y-63140000D02*
X169500000Y-62500000D01*
X162000000Y-63140000D02*
X168860000Y-63140000D01*
D26*
%TO.N,/TOF Sensor/SDA*%
X147700000Y-37000000D02*
X147700000Y-78200000D01*
X155500000Y-86000000D02*
X162000000Y-86000000D01*
X147700000Y-78200000D02*
X155500000Y-86000000D01*
D27*
%TO.N,/Coral Micro Breakouts/+1.8VDC_TOF*%
X142500000Y-34500000D02*
X143110000Y-35110000D01*
X154500000Y-34500000D02*
X155350000Y-35350000D01*
X143110000Y-35110000D02*
X143110000Y-37000000D01*
X155350000Y-35350000D02*
X155350000Y-37000000D01*
%TO.N,Net-(D1-A)*%
X125500000Y-69500000D02*
X122025000Y-69500000D01*
D26*
%TO.N,/RGB Signalling/SIG_IN_RGB1*%
X124938000Y-77062000D02*
X126000000Y-76000000D01*
X126000000Y-76000000D02*
X126500000Y-76000000D01*
X127850000Y-90850000D02*
X126950000Y-90850000D01*
X128500000Y-91500000D02*
X130000000Y-91500000D01*
X128500000Y-91500000D02*
X127850000Y-90850000D01*
X124938000Y-77575000D02*
X124938000Y-77062000D01*
%TD*%
%TA.AperFunction,Conductor*%
%TO.N,GND*%
G36*
X142382080Y-33519685D02*
G01*
X142427835Y-33572489D01*
X142437779Y-33641647D01*
X142408754Y-33705203D01*
X142349976Y-33742977D01*
X142328924Y-33747220D01*
X142328204Y-33747301D01*
X142165016Y-33804402D01*
X142018632Y-33896382D01*
X141896382Y-34018632D01*
X141804402Y-34165016D01*
X141747301Y-34328204D01*
X141727945Y-34499996D01*
X141727945Y-34500003D01*
X141747301Y-34671795D01*
X141804402Y-34834983D01*
X141896382Y-34981367D01*
X141937390Y-35022375D01*
X141970875Y-35083698D01*
X141965891Y-35153390D01*
X141924019Y-35209323D01*
X141858555Y-35233740D01*
X141825518Y-35231673D01*
X141663771Y-35199500D01*
X141663767Y-35199500D01*
X141496233Y-35199500D01*
X141496228Y-35199500D01*
X141331925Y-35232182D01*
X141331917Y-35232184D01*
X141177139Y-35296295D01*
X141037837Y-35389373D01*
X140919376Y-35507834D01*
X140919367Y-35507845D01*
X140917794Y-35510200D01*
X140916652Y-35511153D01*
X140915510Y-35512546D01*
X140915245Y-35512329D01*
X140864177Y-35555000D01*
X140794851Y-35563700D01*
X140731827Y-35533539D01*
X140711594Y-35510186D01*
X140710235Y-35508152D01*
X140591844Y-35389761D01*
X140452632Y-35296743D01*
X140452622Y-35296738D01*
X140300000Y-35233519D01*
X140300000Y-38766479D01*
X140452627Y-38703259D01*
X140452628Y-38703259D01*
X140591839Y-38610241D01*
X140591847Y-38610235D01*
X140710236Y-38491846D01*
X140711590Y-38489820D01*
X140712575Y-38488996D01*
X140714102Y-38487136D01*
X140714454Y-38487425D01*
X140765197Y-38445009D01*
X140834521Y-38436295D01*
X140897552Y-38466443D01*
X140917798Y-38489805D01*
X140919370Y-38492157D01*
X140919376Y-38492165D01*
X141037837Y-38610626D01*
X141130494Y-38672537D01*
X141177137Y-38703703D01*
X141177138Y-38703703D01*
X141177139Y-38703704D01*
X141188971Y-38708605D01*
X141331918Y-38767816D01*
X141485339Y-38798333D01*
X141496228Y-38800499D01*
X141496232Y-38800500D01*
X141496233Y-38800500D01*
X141663768Y-38800500D01*
X141663769Y-38800499D01*
X141828082Y-38767816D01*
X141982863Y-38703703D01*
X142122162Y-38610626D01*
X142240626Y-38492162D01*
X142241894Y-38490263D01*
X142242817Y-38489492D01*
X142244490Y-38487454D01*
X142244876Y-38487771D01*
X142295504Y-38445456D01*
X142364828Y-38436745D01*
X142427858Y-38466896D01*
X142448106Y-38490264D01*
X142449375Y-38492164D01*
X142567837Y-38610626D01*
X142660494Y-38672537D01*
X142707137Y-38703703D01*
X142707138Y-38703703D01*
X142707139Y-38703704D01*
X142718971Y-38708605D01*
X142861918Y-38767816D01*
X143015339Y-38798333D01*
X143026228Y-38800499D01*
X143026232Y-38800500D01*
X143026233Y-38800500D01*
X143193768Y-38800500D01*
X143193769Y-38800499D01*
X143358082Y-38767816D01*
X143512863Y-38703703D01*
X143652162Y-38610626D01*
X143770626Y-38492162D01*
X143771894Y-38490263D01*
X143772817Y-38489492D01*
X143774490Y-38487454D01*
X143774876Y-38487771D01*
X143825504Y-38445456D01*
X143894828Y-38436745D01*
X143957858Y-38466896D01*
X143978106Y-38490264D01*
X143979375Y-38492164D01*
X144097837Y-38610626D01*
X144190494Y-38672537D01*
X144237137Y-38703703D01*
X144237138Y-38703703D01*
X144237139Y-38703704D01*
X144237141Y-38703705D01*
X144304694Y-38731686D01*
X144359752Y-38754492D01*
X144414156Y-38798333D01*
X144436221Y-38864627D01*
X144436300Y-38869053D01*
X144436300Y-67664262D01*
X144416615Y-67731301D01*
X144399981Y-67751943D01*
X143557681Y-68594243D01*
X143496358Y-68627728D01*
X143426666Y-68622744D01*
X143382319Y-68594243D01*
X143231888Y-68443812D01*
X143198403Y-68382489D01*
X143202528Y-68315176D01*
X143204167Y-68310494D01*
X143252698Y-68171798D01*
X143272055Y-68000000D01*
X143272047Y-67999932D01*
X143254086Y-67840519D01*
X143252698Y-67828202D01*
X143195598Y-67665018D01*
X143146160Y-67586339D01*
X143103617Y-67518632D01*
X142981367Y-67396382D01*
X142834983Y-67304402D01*
X142671795Y-67247301D01*
X142500004Y-67227945D01*
X142499996Y-67227945D01*
X142328204Y-67247301D01*
X142165016Y-67304402D01*
X142018632Y-67396382D01*
X141896382Y-67518632D01*
X141804402Y-67665016D01*
X141747301Y-67828204D01*
X141727945Y-67999996D01*
X141727945Y-68000003D01*
X141747301Y-68171795D01*
X141804402Y-68334983D01*
X141881252Y-68457288D01*
X141896383Y-68481368D01*
X142018632Y-68603617D01*
X142165018Y-68695598D01*
X142328202Y-68752698D01*
X142385468Y-68759150D01*
X142499996Y-68772055D01*
X142500000Y-68772055D01*
X142500004Y-68772055D01*
X142614532Y-68759150D01*
X142671798Y-68752698D01*
X142671799Y-68752698D01*
X142743249Y-68727696D01*
X142815177Y-68702527D01*
X142884955Y-68698966D01*
X142943812Y-68731888D01*
X143094243Y-68882319D01*
X143127728Y-68943642D01*
X143122744Y-69013334D01*
X143094243Y-69057681D01*
X134870631Y-77281292D01*
X134809308Y-77314777D01*
X134739616Y-77309793D01*
X134711828Y-77295186D01*
X134701801Y-77288164D01*
X134693664Y-77282467D01*
X134693656Y-77282463D01*
X134564811Y-77222382D01*
X134512371Y-77176210D01*
X134493219Y-77109017D01*
X134513435Y-77042135D01*
X134564811Y-76997618D01*
X134575889Y-76992452D01*
X134693662Y-76937534D01*
X134874620Y-76810826D01*
X135030826Y-76654620D01*
X135157534Y-76473662D01*
X135250894Y-76273450D01*
X135308070Y-76060068D01*
X135327323Y-75840000D01*
X135308070Y-75619932D01*
X135250894Y-75406550D01*
X135157534Y-75206339D01*
X135093847Y-75115384D01*
X135030827Y-75025381D01*
X134957388Y-74951942D01*
X134874620Y-74869174D01*
X134874616Y-74869171D01*
X134874615Y-74869170D01*
X134693666Y-74742468D01*
X134693658Y-74742464D01*
X134564811Y-74682382D01*
X134512371Y-74636210D01*
X134493219Y-74569017D01*
X134513435Y-74502135D01*
X134564811Y-74457618D01*
X134570802Y-74454824D01*
X134693662Y-74397534D01*
X134874620Y-74270826D01*
X135030826Y-74114620D01*
X135157534Y-73933662D01*
X135250894Y-73733450D01*
X135308070Y-73520068D01*
X135327323Y-73300000D01*
X135308070Y-73079932D01*
X135250894Y-72866550D01*
X135157534Y-72666339D01*
X135093847Y-72575384D01*
X135030827Y-72485381D01*
X134957390Y-72411944D01*
X134874620Y-72329174D01*
X134874616Y-72329171D01*
X134874615Y-72329170D01*
X134693666Y-72202468D01*
X134693658Y-72202464D01*
X134564811Y-72142382D01*
X134512371Y-72096210D01*
X134493219Y-72029017D01*
X134513435Y-71962135D01*
X134564811Y-71917618D01*
X134570802Y-71914824D01*
X134693662Y-71857534D01*
X134874620Y-71730826D01*
X135030826Y-71574620D01*
X135157534Y-71393662D01*
X135250894Y-71193450D01*
X135308070Y-70980068D01*
X135327323Y-70760000D01*
X135322117Y-70700499D01*
X135308070Y-70539937D01*
X135308070Y-70539932D01*
X135250894Y-70326550D01*
X135157534Y-70126339D01*
X135068302Y-69998901D01*
X135030827Y-69945381D01*
X134966946Y-69881500D01*
X134874620Y-69789174D01*
X134874616Y-69789171D01*
X134874615Y-69789170D01*
X134693666Y-69662468D01*
X134693658Y-69662464D01*
X134564811Y-69602382D01*
X134512371Y-69556210D01*
X134493219Y-69489017D01*
X134513435Y-69422135D01*
X134564811Y-69377618D01*
X134570802Y-69374824D01*
X134693662Y-69317534D01*
X134874620Y-69190826D01*
X135030826Y-69034620D01*
X135157534Y-68853662D01*
X135250894Y-68653450D01*
X135308070Y-68440068D01*
X135327323Y-68220000D01*
X135308070Y-67999932D01*
X135250894Y-67786550D01*
X135157534Y-67586339D01*
X135030826Y-67405380D01*
X134874620Y-67249174D01*
X134874616Y-67249171D01*
X134874615Y-67249170D01*
X134693666Y-67122468D01*
X134693658Y-67122464D01*
X134564811Y-67062382D01*
X134512371Y-67016210D01*
X134493219Y-66949017D01*
X134513435Y-66882135D01*
X134564811Y-66837618D01*
X134570802Y-66834824D01*
X134693662Y-66777534D01*
X134874620Y-66650826D01*
X135030826Y-66494620D01*
X135157534Y-66313662D01*
X135250894Y-66113450D01*
X135308070Y-65900068D01*
X135327323Y-65680000D01*
X135308070Y-65459932D01*
X135250894Y-65246550D01*
X135157534Y-65046339D01*
X135030826Y-64865380D01*
X134874620Y-64709174D01*
X134874616Y-64709171D01*
X134874615Y-64709170D01*
X134693666Y-64582468D01*
X134693658Y-64582464D01*
X134564811Y-64522382D01*
X134512371Y-64476210D01*
X134493219Y-64409017D01*
X134513435Y-64342135D01*
X134564811Y-64297618D01*
X134570802Y-64294824D01*
X134693662Y-64237534D01*
X134874620Y-64110826D01*
X135030826Y-63954620D01*
X135157534Y-63773662D01*
X135250894Y-63573450D01*
X135308070Y-63360068D01*
X135327323Y-63140000D01*
X135308070Y-62919932D01*
X135250894Y-62706550D01*
X135157534Y-62506339D01*
X135067878Y-62378296D01*
X135030827Y-62325381D01*
X134996061Y-62290615D01*
X134874620Y-62169174D01*
X134874616Y-62169171D01*
X134874615Y-62169170D01*
X134693666Y-62042468D01*
X134693658Y-62042464D01*
X134564811Y-61982382D01*
X134512371Y-61936210D01*
X134493219Y-61869017D01*
X134513435Y-61802135D01*
X134564811Y-61757618D01*
X134570802Y-61754824D01*
X134693662Y-61697534D01*
X134874620Y-61570826D01*
X135030826Y-61414620D01*
X135157534Y-61233662D01*
X135250894Y-61033450D01*
X135308070Y-60820068D01*
X135327323Y-60600000D01*
X135308070Y-60379932D01*
X135250894Y-60166550D01*
X135157534Y-59966339D01*
X135030826Y-59785380D01*
X134874620Y-59629174D01*
X134874616Y-59629171D01*
X134874615Y-59629170D01*
X134758085Y-59547575D01*
X134714460Y-59492998D01*
X134707266Y-59423500D01*
X134738789Y-59361145D01*
X134799019Y-59325731D01*
X134829208Y-59322000D01*
X134869828Y-59322000D01*
X134869844Y-59321999D01*
X134929372Y-59315598D01*
X134929379Y-59315596D01*
X135064086Y-59265354D01*
X135064093Y-59265350D01*
X135179187Y-59179190D01*
X135179190Y-59179187D01*
X135265350Y-59064093D01*
X135265354Y-59064086D01*
X135315596Y-58929379D01*
X135315598Y-58929372D01*
X135321999Y-58869844D01*
X135322000Y-58869827D01*
X135322000Y-58310000D01*
X134502251Y-58310000D01*
X134533381Y-58256081D01*
X134568000Y-58126880D01*
X134568000Y-57993120D01*
X134533381Y-57863919D01*
X134502251Y-57810000D01*
X135322000Y-57810000D01*
X135322000Y-57250172D01*
X135321999Y-57250155D01*
X135315598Y-57190627D01*
X135315596Y-57190620D01*
X135265354Y-57055913D01*
X135265350Y-57055906D01*
X135179190Y-56940812D01*
X135179187Y-56940809D01*
X135064093Y-56854649D01*
X135064086Y-56854645D01*
X134929379Y-56804403D01*
X134929372Y-56804401D01*
X134869844Y-56798000D01*
X134310000Y-56798000D01*
X134310000Y-57617748D01*
X134256081Y-57586619D01*
X134126880Y-57552000D01*
X133993120Y-57552000D01*
X133863919Y-57586619D01*
X133810000Y-57617748D01*
X133810000Y-56798000D01*
X133250155Y-56798000D01*
X133190627Y-56804401D01*
X133190620Y-56804403D01*
X133055913Y-56854645D01*
X133055906Y-56854649D01*
X132940812Y-56940809D01*
X132940809Y-56940812D01*
X132854649Y-57055906D01*
X132854645Y-57055913D01*
X132804403Y-57190620D01*
X132804401Y-57190627D01*
X132798000Y-57250155D01*
X132798000Y-57810000D01*
X133617749Y-57810000D01*
X133586619Y-57863919D01*
X133552000Y-57993120D01*
X133552000Y-58126880D01*
X133586619Y-58256081D01*
X133617749Y-58310000D01*
X132798000Y-58310000D01*
X132798000Y-58869844D01*
X132804401Y-58929372D01*
X132804403Y-58929379D01*
X132854645Y-59064086D01*
X132854649Y-59064093D01*
X132940809Y-59179187D01*
X132940812Y-59179190D01*
X133055906Y-59265350D01*
X133055913Y-59265354D01*
X133190620Y-59315596D01*
X133190627Y-59315598D01*
X133250155Y-59321999D01*
X133250172Y-59322000D01*
X133290793Y-59322000D01*
X133357832Y-59341685D01*
X133403587Y-59394489D01*
X133413531Y-59463647D01*
X133384506Y-59527203D01*
X133361916Y-59547575D01*
X133245377Y-59629175D01*
X133089175Y-59785377D01*
X132962466Y-59966338D01*
X132962463Y-59966344D01*
X132924898Y-60046904D01*
X132878726Y-60099344D01*
X132812516Y-60118500D01*
X131209385Y-60118500D01*
X131142346Y-60098815D01*
X131121704Y-60082181D01*
X128917819Y-57878296D01*
X128884334Y-57816973D01*
X128881500Y-57790615D01*
X128881500Y-57724380D01*
X128901185Y-57657341D01*
X128953989Y-57611586D01*
X128996896Y-57601102D01*
X128996868Y-57600820D01*
X128998901Y-57600612D01*
X128999197Y-57600540D01*
X128999998Y-57600499D01*
X129000008Y-57600499D01*
X129102797Y-57589999D01*
X129269334Y-57534814D01*
X129418656Y-57442712D01*
X129542712Y-57318656D01*
X129634814Y-57169334D01*
X129689999Y-57002797D01*
X129700500Y-56900009D01*
X129700499Y-56099992D01*
X129698083Y-56076344D01*
X129689999Y-55997203D01*
X129689998Y-55997200D01*
X129657792Y-55900009D01*
X129634814Y-55830666D01*
X129542712Y-55681344D01*
X129449049Y-55587681D01*
X129415564Y-55526358D01*
X129420548Y-55456666D01*
X129449049Y-55412319D01*
X129495403Y-55365965D01*
X129542712Y-55318656D01*
X129634814Y-55169334D01*
X129689999Y-55002797D01*
X129700500Y-54900009D01*
X129700499Y-54099992D01*
X129689999Y-53997203D01*
X129634814Y-53830666D01*
X129542712Y-53681344D01*
X129418656Y-53557288D01*
X129408975Y-53551317D01*
X133257966Y-53551317D01*
X133257966Y-53551322D01*
X133277048Y-53903274D01*
X133303697Y-54065826D01*
X133333890Y-54250000D01*
X133334073Y-54251113D01*
X133334074Y-54251116D01*
X133428366Y-54590728D01*
X133428367Y-54590730D01*
X133558828Y-54918164D01*
X133558837Y-54918182D01*
X133693296Y-55171798D01*
X133723935Y-55229589D01*
X133919502Y-55518029D01*
X133921738Y-55521326D01*
X133921745Y-55521336D01*
X134013966Y-55629906D01*
X134149926Y-55789970D01*
X134405820Y-56032366D01*
X134686422Y-56245674D01*
X134988442Y-56427394D01*
X134988446Y-56427395D01*
X134988450Y-56427398D01*
X135308328Y-56575390D01*
X135308332Y-56575390D01*
X135308339Y-56575394D01*
X135642362Y-56687939D01*
X135986595Y-56763711D01*
X136337003Y-56801820D01*
X136337009Y-56801820D01*
X136689471Y-56801820D01*
X136689477Y-56801820D01*
X137039885Y-56763711D01*
X137384118Y-56687939D01*
X137718141Y-56575394D01*
X137718148Y-56575390D01*
X137718151Y-56575390D01*
X137971716Y-56458077D01*
X138038038Y-56427394D01*
X138340058Y-56245674D01*
X138620660Y-56032366D01*
X138876554Y-55789970D01*
X139104741Y-55521328D01*
X139302545Y-55229589D01*
X139467647Y-54918174D01*
X139598111Y-54590734D01*
X139692408Y-54251108D01*
X139749431Y-53903277D01*
X139768190Y-53557289D01*
X139768514Y-53551322D01*
X139768514Y-53551317D01*
X139749431Y-53199365D01*
X139749431Y-53199363D01*
X139692408Y-52851532D01*
X139610712Y-52557289D01*
X139598113Y-52511911D01*
X139598112Y-52511909D01*
X139467651Y-52184475D01*
X139467642Y-52184457D01*
X139302544Y-51873050D01*
X139104741Y-51581312D01*
X139104737Y-51581307D01*
X139104734Y-51581303D01*
X138876554Y-51312670D01*
X138620660Y-51070274D01*
X138620653Y-51070268D01*
X138620650Y-51070266D01*
X138340055Y-50856964D01*
X138038042Y-50675248D01*
X138038029Y-50675241D01*
X137718151Y-50527249D01*
X137718146Y-50527248D01*
X137718143Y-50527247D01*
X137718141Y-50527246D01*
X137611672Y-50491372D01*
X137384120Y-50414701D01*
X137039883Y-50338928D01*
X136689478Y-50300820D01*
X136689477Y-50300820D01*
X136337003Y-50300820D01*
X136337001Y-50300820D01*
X135986596Y-50338928D01*
X135642359Y-50414701D01*
X135308333Y-50527248D01*
X135308328Y-50527249D01*
X134988450Y-50675241D01*
X134988437Y-50675248D01*
X134686424Y-50856964D01*
X134405829Y-51070266D01*
X134405820Y-51070274D01*
X134149925Y-51312670D01*
X133921745Y-51581303D01*
X133921738Y-51581313D01*
X133723935Y-51873050D01*
X133558837Y-52184457D01*
X133558828Y-52184475D01*
X133428367Y-52511909D01*
X133428366Y-52511911D01*
X133334074Y-52851523D01*
X133334073Y-52851526D01*
X133277048Y-53199365D01*
X133257966Y-53551317D01*
X129408975Y-53551317D01*
X129319407Y-53496071D01*
X129272684Y-53444124D01*
X129261285Y-53404415D01*
X129252699Y-53328204D01*
X129195597Y-53165016D01*
X129103617Y-53018632D01*
X128981367Y-52896382D01*
X128834983Y-52804402D01*
X128671795Y-52747301D01*
X128500004Y-52727945D01*
X128499996Y-52727945D01*
X128328204Y-52747301D01*
X128165016Y-52804402D01*
X128018632Y-52896382D01*
X127896382Y-53018632D01*
X127804402Y-53165016D01*
X127747301Y-53328203D01*
X127747300Y-53328206D01*
X127738714Y-53404417D01*
X127711648Y-53468830D01*
X127680591Y-53496071D01*
X127581347Y-53557285D01*
X127581343Y-53557288D01*
X127457289Y-53681342D01*
X127365187Y-53830663D01*
X127365186Y-53830666D01*
X127310001Y-53997203D01*
X127310001Y-53997204D01*
X127310000Y-53997204D01*
X127299500Y-54099983D01*
X127299500Y-54900001D01*
X127299501Y-54900019D01*
X127310000Y-55002796D01*
X127310001Y-55002799D01*
X127339588Y-55092086D01*
X127365186Y-55169334D01*
X127441679Y-55293350D01*
X127457289Y-55318657D01*
X127550951Y-55412319D01*
X127584436Y-55473642D01*
X127579452Y-55543334D01*
X127550951Y-55587681D01*
X127457289Y-55681342D01*
X127365187Y-55830663D01*
X127365186Y-55830666D01*
X127310001Y-55997203D01*
X127310001Y-55997204D01*
X127310000Y-55997204D01*
X127299500Y-56099983D01*
X127299500Y-56900001D01*
X127299501Y-56900019D01*
X127310000Y-57002796D01*
X127310001Y-57002799D01*
X127365185Y-57169331D01*
X127365187Y-57169336D01*
X127395098Y-57217830D01*
X127457288Y-57318656D01*
X127581344Y-57442712D01*
X127730666Y-57534814D01*
X127897203Y-57589999D01*
X127999991Y-57600500D01*
X128000004Y-57600499D01*
X128000800Y-57600541D01*
X128000968Y-57600599D01*
X128003132Y-57600821D01*
X128003079Y-57601338D01*
X128066752Y-57623606D01*
X128109766Y-57678666D01*
X128118500Y-57724380D01*
X128118500Y-58050225D01*
X128139040Y-58126880D01*
X128144500Y-58147258D01*
X128144501Y-58147259D01*
X128171121Y-58193365D01*
X128171121Y-58193368D01*
X128171123Y-58193368D01*
X128194724Y-58234247D01*
X130765753Y-60805276D01*
X130852747Y-60855502D01*
X130949775Y-60881500D01*
X131050225Y-60881500D01*
X132733242Y-60881500D01*
X132800281Y-60901185D01*
X132846036Y-60953989D01*
X132853017Y-60973406D01*
X132869104Y-61033444D01*
X132869105Y-61033446D01*
X132869106Y-61033450D01*
X132900372Y-61100500D01*
X132962466Y-61233662D01*
X132962468Y-61233666D01*
X133089170Y-61414615D01*
X133089175Y-61414621D01*
X133245378Y-61570824D01*
X133245384Y-61570829D01*
X133426333Y-61697531D01*
X133426335Y-61697532D01*
X133426338Y-61697534D01*
X133545748Y-61753215D01*
X133555189Y-61757618D01*
X133607628Y-61803790D01*
X133626780Y-61870984D01*
X133606564Y-61937865D01*
X133555189Y-61982382D01*
X133426340Y-62042465D01*
X133426338Y-62042466D01*
X133245377Y-62169175D01*
X133089175Y-62325377D01*
X132962466Y-62506338D01*
X132962465Y-62506340D01*
X132869107Y-62706548D01*
X132869104Y-62706554D01*
X132811930Y-62919929D01*
X132811929Y-62919937D01*
X132792677Y-63139997D01*
X132792677Y-63140002D01*
X132811929Y-63360062D01*
X132811930Y-63360070D01*
X132869104Y-63573445D01*
X132869105Y-63573447D01*
X132869106Y-63573450D01*
X132962464Y-63773658D01*
X132962466Y-63773662D01*
X132962468Y-63773666D01*
X133089170Y-63954615D01*
X133089175Y-63954621D01*
X133245378Y-64110824D01*
X133245384Y-64110829D01*
X133426333Y-64237531D01*
X133426335Y-64237532D01*
X133426338Y-64237534D01*
X133545748Y-64293215D01*
X133555189Y-64297618D01*
X133607628Y-64343790D01*
X133626780Y-64410984D01*
X133606564Y-64477865D01*
X133555189Y-64522382D01*
X133426340Y-64582465D01*
X133426338Y-64582466D01*
X133245377Y-64709175D01*
X133089175Y-64865377D01*
X132962466Y-65046338D01*
X132962465Y-65046340D01*
X132869107Y-65246548D01*
X132869104Y-65246554D01*
X132811930Y-65459929D01*
X132811929Y-65459937D01*
X132792677Y-65679997D01*
X132792677Y-65680002D01*
X132811929Y-65900062D01*
X132811930Y-65900070D01*
X132869104Y-66113445D01*
X132869105Y-66113447D01*
X132869106Y-66113450D01*
X132962466Y-66313662D01*
X132962468Y-66313666D01*
X133089170Y-66494615D01*
X133089175Y-66494621D01*
X133245378Y-66650824D01*
X133245384Y-66650829D01*
X133426333Y-66777531D01*
X133426335Y-66777532D01*
X133426338Y-66777534D01*
X133545748Y-66833215D01*
X133555189Y-66837618D01*
X133607628Y-66883790D01*
X133626780Y-66950984D01*
X133606564Y-67017865D01*
X133555189Y-67062382D01*
X133426340Y-67122465D01*
X133426338Y-67122466D01*
X133245377Y-67249175D01*
X133089175Y-67405377D01*
X132962466Y-67586338D01*
X132962465Y-67586340D01*
X132869107Y-67786548D01*
X132869104Y-67786554D01*
X132811930Y-67999929D01*
X132811929Y-67999937D01*
X132792677Y-68219997D01*
X132792677Y-68220002D01*
X132811929Y-68440062D01*
X132811930Y-68440070D01*
X132869104Y-68653445D01*
X132869108Y-68653456D01*
X132945498Y-68817275D01*
X132955990Y-68886352D01*
X132927470Y-68950136D01*
X132868993Y-68988375D01*
X132799126Y-68988929D01*
X132745435Y-68957360D01*
X123336747Y-59548672D01*
X123303262Y-59487349D01*
X123304653Y-59428897D01*
X123335063Y-59315408D01*
X123355659Y-59080000D01*
X123335063Y-58844592D01*
X123273903Y-58616337D01*
X123174035Y-58402171D01*
X123172529Y-58400019D01*
X123038494Y-58208597D01*
X122871402Y-58041506D01*
X122871396Y-58041501D01*
X122685842Y-57911575D01*
X122642217Y-57856998D01*
X122635023Y-57787500D01*
X122666546Y-57725145D01*
X122685842Y-57708425D01*
X122758797Y-57657341D01*
X122871401Y-57578495D01*
X123038495Y-57411401D01*
X123174035Y-57217830D01*
X123273903Y-57003663D01*
X123335063Y-56775408D01*
X123355659Y-56540000D01*
X123335063Y-56304592D01*
X123273903Y-56076337D01*
X123174035Y-55862171D01*
X123151976Y-55830668D01*
X123038496Y-55668600D01*
X122999802Y-55629906D01*
X122916179Y-55546283D01*
X122882696Y-55484963D01*
X122887680Y-55415271D01*
X122929551Y-55359337D01*
X122960529Y-55342422D01*
X123092086Y-55293354D01*
X123092093Y-55293350D01*
X123207187Y-55207190D01*
X123207190Y-55207187D01*
X123293350Y-55092093D01*
X123293354Y-55092086D01*
X123343596Y-54957379D01*
X123343598Y-54957372D01*
X123349999Y-54897844D01*
X123350000Y-54897827D01*
X123350000Y-54250000D01*
X122433012Y-54250000D01*
X122465925Y-54192993D01*
X122500000Y-54065826D01*
X122500000Y-53934174D01*
X122465925Y-53807007D01*
X122433012Y-53750000D01*
X123350000Y-53750000D01*
X123350000Y-53102172D01*
X123349999Y-53102155D01*
X123343598Y-53042627D01*
X123343596Y-53042620D01*
X123293354Y-52907913D01*
X123293350Y-52907906D01*
X123207190Y-52792812D01*
X123207187Y-52792809D01*
X123092093Y-52706649D01*
X123092086Y-52706645D01*
X122957379Y-52656403D01*
X122957372Y-52656401D01*
X122897844Y-52650000D01*
X122250000Y-52650000D01*
X122250000Y-53566988D01*
X122192993Y-53534075D01*
X122065826Y-53500000D01*
X121934174Y-53500000D01*
X121807007Y-53534075D01*
X121750000Y-53566988D01*
X121750000Y-52650000D01*
X121102155Y-52650000D01*
X121042627Y-52656401D01*
X121042620Y-52656403D01*
X120907913Y-52706645D01*
X120907906Y-52706649D01*
X120792812Y-52792809D01*
X120792809Y-52792812D01*
X120706649Y-52907906D01*
X120706645Y-52907913D01*
X120656403Y-53042620D01*
X120656401Y-53042627D01*
X120650000Y-53102155D01*
X120650000Y-53750000D01*
X121566988Y-53750000D01*
X121534075Y-53807007D01*
X121500000Y-53934174D01*
X121500000Y-54065826D01*
X121534075Y-54192993D01*
X121566988Y-54250000D01*
X120650000Y-54250000D01*
X120650000Y-54897844D01*
X120656401Y-54957372D01*
X120656403Y-54957379D01*
X120706645Y-55092086D01*
X120706649Y-55092093D01*
X120792809Y-55207187D01*
X120792812Y-55207190D01*
X120907906Y-55293350D01*
X120907913Y-55293354D01*
X121039470Y-55342421D01*
X121095403Y-55384292D01*
X121119821Y-55449756D01*
X121104970Y-55518029D01*
X121083819Y-55546284D01*
X120961503Y-55668600D01*
X120825965Y-55862169D01*
X120825964Y-55862171D01*
X120726098Y-56076335D01*
X120726094Y-56076344D01*
X120664938Y-56304586D01*
X120664936Y-56304596D01*
X120644341Y-56539999D01*
X120644341Y-56540000D01*
X120664936Y-56775403D01*
X120664938Y-56775413D01*
X120726094Y-57003655D01*
X120726096Y-57003659D01*
X120726097Y-57003663D01*
X120803351Y-57169334D01*
X120825965Y-57217830D01*
X120825967Y-57217834D01*
X120961501Y-57411395D01*
X120961506Y-57411402D01*
X121128597Y-57578493D01*
X121128603Y-57578498D01*
X121314158Y-57708425D01*
X121357783Y-57763002D01*
X121364977Y-57832500D01*
X121333454Y-57894855D01*
X121314158Y-57911575D01*
X121128597Y-58041505D01*
X120961505Y-58208597D01*
X120825965Y-58402169D01*
X120825964Y-58402171D01*
X120726098Y-58616335D01*
X120726094Y-58616344D01*
X120664938Y-58844586D01*
X120664936Y-58844596D01*
X120644341Y-59079999D01*
X120644341Y-59080000D01*
X120664936Y-59315403D01*
X120664938Y-59315413D01*
X120726094Y-59543655D01*
X120726096Y-59543659D01*
X120726097Y-59543663D01*
X120752364Y-59599992D01*
X120825965Y-59757830D01*
X120825967Y-59757834D01*
X120845256Y-59785381D01*
X120961505Y-59951401D01*
X121128599Y-60118495D01*
X121225384Y-60186265D01*
X121322165Y-60254032D01*
X121322167Y-60254033D01*
X121322170Y-60254035D01*
X121536337Y-60353903D01*
X121764592Y-60415063D01*
X121952918Y-60431539D01*
X121999999Y-60435659D01*
X122000000Y-60435659D01*
X122000001Y-60435659D01*
X122039234Y-60432226D01*
X122235408Y-60415063D01*
X122463663Y-60353903D01*
X122677830Y-60254035D01*
X122871401Y-60118495D01*
X123013232Y-59976663D01*
X123074551Y-59943181D01*
X123144243Y-59948165D01*
X123188591Y-59976666D01*
X133043659Y-69831734D01*
X133077144Y-69893057D01*
X133072160Y-69962749D01*
X133057554Y-69990537D01*
X132962465Y-70126340D01*
X132869107Y-70326548D01*
X132869104Y-70326554D01*
X132811930Y-70539929D01*
X132811929Y-70539937D01*
X132792677Y-70759997D01*
X132792677Y-70760002D01*
X132811929Y-70980062D01*
X132811930Y-70980070D01*
X132869104Y-71193445D01*
X132869105Y-71193447D01*
X132869106Y-71193450D01*
X132962466Y-71393662D01*
X132962468Y-71393666D01*
X133089170Y-71574615D01*
X133089175Y-71574621D01*
X133245378Y-71730824D01*
X133245384Y-71730829D01*
X133426333Y-71857531D01*
X133426335Y-71857532D01*
X133426338Y-71857534D01*
X133545748Y-71913215D01*
X133555189Y-71917618D01*
X133607628Y-71963790D01*
X133626780Y-72030984D01*
X133606564Y-72097865D01*
X133555189Y-72142382D01*
X133426340Y-72202465D01*
X133426338Y-72202466D01*
X133245377Y-72329175D01*
X133089175Y-72485377D01*
X132962466Y-72666338D01*
X132962465Y-72666340D01*
X132869107Y-72866548D01*
X132869104Y-72866554D01*
X132811930Y-73079929D01*
X132811929Y-73079937D01*
X132792677Y-73299997D01*
X132792677Y-73300002D01*
X132811929Y-73520062D01*
X132811930Y-73520070D01*
X132869104Y-73733445D01*
X132869105Y-73733447D01*
X132869106Y-73733450D01*
X132962466Y-73933662D01*
X132962468Y-73933666D01*
X133089170Y-74114615D01*
X133089175Y-74114621D01*
X133245378Y-74270824D01*
X133245384Y-74270829D01*
X133426333Y-74397531D01*
X133426335Y-74397532D01*
X133426338Y-74397534D01*
X133545748Y-74453215D01*
X133555189Y-74457618D01*
X133607628Y-74503790D01*
X133626780Y-74570984D01*
X133606564Y-74637865D01*
X133555189Y-74682382D01*
X133426340Y-74742465D01*
X133426338Y-74742466D01*
X133245377Y-74869175D01*
X133089175Y-75025377D01*
X132962466Y-75206338D01*
X132962465Y-75206340D01*
X132869107Y-75406548D01*
X132869104Y-75406554D01*
X132811930Y-75619929D01*
X132811929Y-75619937D01*
X132792677Y-75839997D01*
X132792677Y-75840002D01*
X132811929Y-76060062D01*
X132811930Y-76060070D01*
X132869104Y-76273445D01*
X132869105Y-76273447D01*
X132869106Y-76273450D01*
X132940379Y-76426296D01*
X132962466Y-76473662D01*
X132962468Y-76473666D01*
X133089170Y-76654615D01*
X133089175Y-76654621D01*
X133245378Y-76810824D01*
X133245384Y-76810829D01*
X133426333Y-76937531D01*
X133426335Y-76937532D01*
X133426338Y-76937534D01*
X133521981Y-76982133D01*
X133555189Y-76997618D01*
X133607628Y-77043790D01*
X133626780Y-77110984D01*
X133606564Y-77177865D01*
X133555189Y-77222382D01*
X133426340Y-77282465D01*
X133426338Y-77282466D01*
X133245377Y-77409175D01*
X133089175Y-77565377D01*
X132962466Y-77746338D01*
X132962465Y-77746340D01*
X132869107Y-77946548D01*
X132869104Y-77946554D01*
X132811930Y-78159929D01*
X132811929Y-78159937D01*
X132792677Y-78379997D01*
X132792677Y-78380002D01*
X132811929Y-78600062D01*
X132811930Y-78600070D01*
X132869104Y-78813445D01*
X132869105Y-78813447D01*
X132869106Y-78813450D01*
X132907778Y-78896382D01*
X132962466Y-79013662D01*
X132962468Y-79013666D01*
X133089170Y-79194615D01*
X133089175Y-79194621D01*
X133245378Y-79350824D01*
X133245384Y-79350829D01*
X133426333Y-79477531D01*
X133426335Y-79477532D01*
X133426338Y-79477534D01*
X133545748Y-79533215D01*
X133555189Y-79537618D01*
X133607628Y-79583790D01*
X133626780Y-79650984D01*
X133606564Y-79717865D01*
X133555189Y-79762382D01*
X133426340Y-79822465D01*
X133426338Y-79822466D01*
X133245377Y-79949175D01*
X133089175Y-80105377D01*
X132962466Y-80286338D01*
X132962465Y-80286340D01*
X132869107Y-80486548D01*
X132869104Y-80486554D01*
X132811930Y-80699929D01*
X132811929Y-80699937D01*
X132792677Y-80919997D01*
X132792677Y-80920002D01*
X132811929Y-81140062D01*
X132811930Y-81140070D01*
X132869104Y-81353445D01*
X132869105Y-81353447D01*
X132869106Y-81353450D01*
X132962466Y-81553662D01*
X132962468Y-81553666D01*
X133089170Y-81734615D01*
X133089175Y-81734621D01*
X133245378Y-81890824D01*
X133245384Y-81890829D01*
X133426333Y-82017531D01*
X133426335Y-82017532D01*
X133426338Y-82017534D01*
X133545748Y-82073215D01*
X133555189Y-82077618D01*
X133607628Y-82123790D01*
X133626780Y-82190984D01*
X133606564Y-82257865D01*
X133555189Y-82302382D01*
X133426340Y-82362465D01*
X133426338Y-82362466D01*
X133245377Y-82489175D01*
X133089175Y-82645377D01*
X132962466Y-82826338D01*
X132962465Y-82826340D01*
X132869107Y-83026548D01*
X132869106Y-83026550D01*
X132811930Y-83239929D01*
X132811929Y-83239937D01*
X132792677Y-83459997D01*
X132792677Y-83460002D01*
X132811929Y-83680062D01*
X132811930Y-83680070D01*
X132869104Y-83893445D01*
X132869105Y-83893447D01*
X132869106Y-83893450D01*
X132922142Y-84007187D01*
X132962466Y-84093662D01*
X132962468Y-84093666D01*
X133089170Y-84274615D01*
X133089175Y-84274621D01*
X133245378Y-84430824D01*
X133245384Y-84430829D01*
X133426333Y-84557531D01*
X133426335Y-84557532D01*
X133426338Y-84557534D01*
X133545748Y-84613215D01*
X133555189Y-84617618D01*
X133607628Y-84663790D01*
X133626780Y-84730984D01*
X133606564Y-84797865D01*
X133555189Y-84842382D01*
X133426340Y-84902465D01*
X133426338Y-84902466D01*
X133245377Y-85029175D01*
X133089175Y-85185377D01*
X132962466Y-85366338D01*
X132962465Y-85366340D01*
X132959538Y-85372618D01*
X132894435Y-85512233D01*
X132878267Y-85546905D01*
X132832095Y-85599344D01*
X132765885Y-85618500D01*
X132557837Y-85618500D01*
X132557821Y-85618499D01*
X132550225Y-85618499D01*
X132449775Y-85618499D01*
X132352747Y-85644498D01*
X132352745Y-85644498D01*
X132352745Y-85644499D01*
X132265753Y-85694724D01*
X132265750Y-85694726D01*
X131878296Y-86082181D01*
X131816973Y-86115666D01*
X131790615Y-86118500D01*
X131251277Y-86118500D01*
X131184238Y-86098815D01*
X131138483Y-86046011D01*
X131132892Y-86031390D01*
X131082766Y-85870530D01*
X131082765Y-85870529D01*
X131082765Y-85870527D01*
X130993660Y-85723130D01*
X130993658Y-85723128D01*
X130993657Y-85723126D01*
X130871873Y-85601342D01*
X130814327Y-85566554D01*
X130724473Y-85512235D01*
X130724471Y-85512234D01*
X130724469Y-85512233D01*
X130724470Y-85512233D01*
X130560035Y-85460994D01*
X130560037Y-85460994D01*
X130494277Y-85455018D01*
X130429294Y-85429347D01*
X130388506Y-85372618D01*
X130381500Y-85331527D01*
X130381500Y-79814368D01*
X130401185Y-79747329D01*
X130453989Y-79701574D01*
X130492898Y-79691010D01*
X130502797Y-79689999D01*
X130669334Y-79634814D01*
X130818656Y-79542712D01*
X130942712Y-79418656D01*
X131034814Y-79269334D01*
X131089999Y-79102797D01*
X131100500Y-79000009D01*
X131100499Y-77999992D01*
X131099555Y-77990755D01*
X131089999Y-77897203D01*
X131089998Y-77897200D01*
X131073654Y-77847878D01*
X131034814Y-77730666D01*
X130942712Y-77581344D01*
X130818656Y-77457288D01*
X130669334Y-77365186D01*
X130502797Y-77310001D01*
X130502793Y-77310000D01*
X130502787Y-77309999D01*
X130492893Y-77308988D01*
X130428202Y-77282590D01*
X130388053Y-77225408D01*
X130381500Y-77185631D01*
X130381500Y-71949777D01*
X130381500Y-71949775D01*
X130355502Y-71852747D01*
X130305276Y-71765753D01*
X128636506Y-70096983D01*
X128603021Y-70035660D01*
X128600348Y-70002985D01*
X128600497Y-70000032D01*
X128600500Y-70000009D01*
X128600499Y-68999992D01*
X128599312Y-68988375D01*
X128589999Y-68897203D01*
X128589998Y-68897200D01*
X128563513Y-68817275D01*
X128534814Y-68730666D01*
X128442712Y-68581344D01*
X128318656Y-68457288D01*
X128197387Y-68382489D01*
X128169336Y-68365187D01*
X128169331Y-68365185D01*
X128167862Y-68364698D01*
X128002797Y-68310001D01*
X128002795Y-68310000D01*
X127900010Y-68299500D01*
X127099998Y-68299500D01*
X127099980Y-68299501D01*
X126997203Y-68310000D01*
X126997200Y-68310001D01*
X126830668Y-68365185D01*
X126830663Y-68365187D01*
X126681342Y-68457289D01*
X126587681Y-68550951D01*
X126526358Y-68584436D01*
X126456666Y-68579452D01*
X126412319Y-68550951D01*
X126318657Y-68457289D01*
X126318656Y-68457288D01*
X126197387Y-68382489D01*
X126169336Y-68365187D01*
X126169331Y-68365185D01*
X126167862Y-68364698D01*
X126002797Y-68310001D01*
X126002795Y-68310000D01*
X125900010Y-68299500D01*
X125099998Y-68299500D01*
X125099980Y-68299501D01*
X124997203Y-68310000D01*
X124997200Y-68310001D01*
X124830668Y-68365185D01*
X124830663Y-68365187D01*
X124681342Y-68457289D01*
X124557289Y-68581342D01*
X124465187Y-68730663D01*
X124465185Y-68730668D01*
X124465115Y-68730880D01*
X124410001Y-68897203D01*
X124410001Y-68897204D01*
X124410000Y-68897204D01*
X124399500Y-68999985D01*
X124399459Y-69000800D01*
X124399400Y-69000968D01*
X124399179Y-69003132D01*
X124398661Y-69003079D01*
X124376394Y-69066752D01*
X124321334Y-69109766D01*
X124275619Y-69118500D01*
X123224380Y-69118500D01*
X123157341Y-69098815D01*
X123111586Y-69046011D01*
X123101102Y-69003103D01*
X123100820Y-69003132D01*
X123100612Y-69001098D01*
X123100540Y-69000803D01*
X123100498Y-68999981D01*
X123089999Y-68897203D01*
X123089998Y-68897200D01*
X123063513Y-68817275D01*
X123034814Y-68730666D01*
X122942712Y-68581344D01*
X122818656Y-68457288D01*
X122697387Y-68382489D01*
X122669336Y-68365187D01*
X122669331Y-68365185D01*
X122667862Y-68364698D01*
X122502797Y-68310001D01*
X122502795Y-68310000D01*
X122400010Y-68299500D01*
X121649998Y-68299500D01*
X121649980Y-68299501D01*
X121547203Y-68310000D01*
X121547200Y-68310001D01*
X121380668Y-68365185D01*
X121380663Y-68365187D01*
X121231342Y-68457289D01*
X121107288Y-68581343D01*
X121107283Y-68581349D01*
X121105241Y-68584661D01*
X121103247Y-68586453D01*
X121102807Y-68587011D01*
X121102711Y-68586935D01*
X121053291Y-68631383D01*
X120984328Y-68642602D01*
X120920247Y-68614755D01*
X120894168Y-68584656D01*
X120892319Y-68581659D01*
X120892316Y-68581655D01*
X120768345Y-68457684D01*
X120619124Y-68365643D01*
X120619119Y-68365641D01*
X120452697Y-68310494D01*
X120452690Y-68310493D01*
X120349986Y-68300000D01*
X120225000Y-68300000D01*
X120225000Y-70699999D01*
X120349972Y-70699999D01*
X120349986Y-70699998D01*
X120452697Y-70689505D01*
X120619119Y-70634358D01*
X120619124Y-70634356D01*
X120768345Y-70542315D01*
X120892318Y-70418342D01*
X120894165Y-70415348D01*
X120895969Y-70413724D01*
X120896798Y-70412677D01*
X120896976Y-70412818D01*
X120946110Y-70368621D01*
X121015073Y-70357396D01*
X121079156Y-70385236D01*
X121105243Y-70415341D01*
X121107288Y-70418656D01*
X121231344Y-70542712D01*
X121380666Y-70634814D01*
X121547203Y-70689999D01*
X121649991Y-70700500D01*
X122400008Y-70700499D01*
X122400016Y-70700498D01*
X122400019Y-70700498D01*
X122456302Y-70694748D01*
X122502797Y-70689999D01*
X122669334Y-70634814D01*
X122818656Y-70542712D01*
X122942712Y-70418656D01*
X123034814Y-70269334D01*
X123089999Y-70102797D01*
X123100500Y-70000009D01*
X123100500Y-69999986D01*
X123100541Y-69999200D01*
X123100599Y-69999031D01*
X123100821Y-69996868D01*
X123101338Y-69996920D01*
X123123606Y-69933248D01*
X123178666Y-69890234D01*
X123224381Y-69881500D01*
X124275620Y-69881500D01*
X124342659Y-69901185D01*
X124388414Y-69953989D01*
X124398897Y-69996896D01*
X124399180Y-69996868D01*
X124399387Y-69998901D01*
X124399460Y-69999197D01*
X124399501Y-70000018D01*
X124410000Y-70102796D01*
X124410001Y-70102799D01*
X124417802Y-70126340D01*
X124465186Y-70269334D01*
X124557288Y-70418656D01*
X124681344Y-70542712D01*
X124830666Y-70634814D01*
X124997203Y-70689999D01*
X125099991Y-70700500D01*
X125900008Y-70700499D01*
X125900016Y-70700498D01*
X125900019Y-70700498D01*
X125956302Y-70694748D01*
X126002797Y-70689999D01*
X126169334Y-70634814D01*
X126318656Y-70542712D01*
X126412319Y-70449049D01*
X126473642Y-70415564D01*
X126543334Y-70420548D01*
X126587681Y-70449049D01*
X126681344Y-70542712D01*
X126830666Y-70634814D01*
X126997203Y-70689999D01*
X127099991Y-70700500D01*
X127900008Y-70700499D01*
X127900016Y-70700498D01*
X127900019Y-70700498D01*
X127923896Y-70698058D01*
X128002797Y-70689999D01*
X128041116Y-70677301D01*
X128110944Y-70674898D01*
X128167802Y-70707325D01*
X129582181Y-72121704D01*
X129615666Y-72183027D01*
X129618500Y-72209385D01*
X129618500Y-77185631D01*
X129598815Y-77252670D01*
X129546011Y-77298425D01*
X129507108Y-77308988D01*
X129497209Y-77309999D01*
X129497200Y-77310001D01*
X129330668Y-77365185D01*
X129330663Y-77365187D01*
X129181342Y-77457289D01*
X129087681Y-77550951D01*
X129026358Y-77584436D01*
X128956666Y-77579452D01*
X128912319Y-77550951D01*
X128818657Y-77457289D01*
X128818656Y-77457288D01*
X128669334Y-77365186D01*
X128502797Y-77310001D01*
X128502795Y-77310000D01*
X128400010Y-77299500D01*
X127599998Y-77299500D01*
X127599980Y-77299501D01*
X127497203Y-77310000D01*
X127497200Y-77310001D01*
X127330668Y-77365185D01*
X127330663Y-77365187D01*
X127181342Y-77457289D01*
X127057289Y-77581342D01*
X126965184Y-77730668D01*
X126955960Y-77758506D01*
X126916187Y-77815950D01*
X126851671Y-77842772D01*
X126838255Y-77843500D01*
X126300000Y-77843500D01*
X126232961Y-77823815D01*
X126187206Y-77771011D01*
X126176000Y-77719500D01*
X126175999Y-77302129D01*
X126175998Y-77302123D01*
X126175716Y-77299501D01*
X126169591Y-77242517D01*
X126145477Y-77177865D01*
X126119297Y-77107671D01*
X126119293Y-77107664D01*
X126033047Y-76992455D01*
X126033044Y-76992452D01*
X125917835Y-76906206D01*
X125917828Y-76906202D01*
X125782983Y-76855908D01*
X125723910Y-76849557D01*
X125659359Y-76822818D01*
X125619512Y-76765425D01*
X125617019Y-76695600D01*
X125649484Y-76638589D01*
X125763865Y-76524208D01*
X125825186Y-76490725D01*
X125894878Y-76495709D01*
X125939225Y-76524210D01*
X126018632Y-76603617D01*
X126165018Y-76695598D01*
X126328202Y-76752698D01*
X126385468Y-76759150D01*
X126499996Y-76772055D01*
X126500000Y-76772055D01*
X126500004Y-76772055D01*
X126598170Y-76760993D01*
X126671798Y-76752698D01*
X126834982Y-76695598D01*
X126981368Y-76603617D01*
X127103617Y-76481368D01*
X127195598Y-76334982D01*
X127252698Y-76171798D01*
X127265288Y-76060062D01*
X127272055Y-76000003D01*
X127272055Y-75999996D01*
X127259150Y-75885468D01*
X127252698Y-75828202D01*
X127195598Y-75665018D01*
X127178450Y-75637728D01*
X127103617Y-75518632D01*
X126981367Y-75396382D01*
X126834983Y-75304402D01*
X126671795Y-75247301D01*
X126500004Y-75227945D01*
X126499996Y-75227945D01*
X126328204Y-75247301D01*
X126165016Y-75304402D01*
X126018632Y-75396382D01*
X125896382Y-75518632D01*
X125804402Y-75665016D01*
X125747301Y-75828203D01*
X125747300Y-75828206D01*
X125734836Y-75938829D01*
X125707769Y-76003243D01*
X125699297Y-76012626D01*
X124898742Y-76813181D01*
X124837419Y-76846666D01*
X124811061Y-76849500D01*
X124152629Y-76849500D01*
X124152623Y-76849501D01*
X124093016Y-76855908D01*
X123958171Y-76906202D01*
X123958164Y-76906206D01*
X123842955Y-76992452D01*
X123842952Y-76992455D01*
X123756706Y-77107664D01*
X123756702Y-77107671D01*
X123712790Y-77225408D01*
X123706409Y-77242517D01*
X123700000Y-77302127D01*
X123700000Y-77302134D01*
X123700000Y-77302135D01*
X123700000Y-77847869D01*
X123700001Y-77847878D01*
X123704179Y-77886745D01*
X123704179Y-77913250D01*
X123700000Y-77952122D01*
X123700000Y-78497869D01*
X123700001Y-78497878D01*
X123704179Y-78536745D01*
X123704179Y-78563250D01*
X123700000Y-78602122D01*
X123700000Y-79147869D01*
X123700001Y-79147878D01*
X123704179Y-79186745D01*
X123704179Y-79213250D01*
X123700000Y-79252122D01*
X123700000Y-79797869D01*
X123700001Y-79797878D01*
X123704179Y-79836745D01*
X123704179Y-79863250D01*
X123700000Y-79902122D01*
X123700000Y-80447869D01*
X123700001Y-80447878D01*
X123704179Y-80486745D01*
X123704179Y-80513250D01*
X123700000Y-80552122D01*
X123700000Y-81097869D01*
X123700001Y-81097878D01*
X123704179Y-81136745D01*
X123704179Y-81163250D01*
X123700000Y-81202122D01*
X123700000Y-81747869D01*
X123700001Y-81747878D01*
X123704179Y-81786745D01*
X123704179Y-81813250D01*
X123700000Y-81852122D01*
X123700000Y-82397869D01*
X123700001Y-82397878D01*
X123704179Y-82436745D01*
X123704179Y-82463250D01*
X123700000Y-82502122D01*
X123700000Y-83047869D01*
X123700001Y-83047880D01*
X123704431Y-83089093D01*
X123704431Y-83115596D01*
X123700500Y-83152165D01*
X123700500Y-83200000D01*
X123716111Y-83215611D01*
X123729984Y-83219685D01*
X123762211Y-83249688D01*
X123842955Y-83357547D01*
X123935376Y-83426734D01*
X123977247Y-83482668D01*
X123982231Y-83552359D01*
X123948745Y-83613682D01*
X123887422Y-83647166D01*
X123861065Y-83650000D01*
X123700500Y-83650000D01*
X123700500Y-83697844D01*
X123706901Y-83757372D01*
X123706903Y-83757379D01*
X123757145Y-83892086D01*
X123757149Y-83892093D01*
X123843309Y-84007187D01*
X123843312Y-84007190D01*
X123958406Y-84093350D01*
X123958413Y-84093354D01*
X124093120Y-84143596D01*
X124093127Y-84143598D01*
X124152655Y-84149999D01*
X124152672Y-84150000D01*
X124713000Y-84150000D01*
X124713000Y-83624499D01*
X124732685Y-83557460D01*
X124785489Y-83511705D01*
X124836997Y-83500499D01*
X125039001Y-83500499D01*
X125106039Y-83520184D01*
X125151794Y-83572988D01*
X125163000Y-83624499D01*
X125163000Y-84150000D01*
X125723328Y-84150000D01*
X125723344Y-84149999D01*
X125782872Y-84143598D01*
X125782879Y-84143596D01*
X125917586Y-84093354D01*
X125917593Y-84093350D01*
X126032687Y-84007190D01*
X126032690Y-84007187D01*
X126118850Y-83892093D01*
X126118854Y-83892086D01*
X126169096Y-83757379D01*
X126169098Y-83757372D01*
X126175499Y-83697844D01*
X126175500Y-83697827D01*
X126175500Y-83650000D01*
X126014935Y-83650000D01*
X125947896Y-83630315D01*
X125902141Y-83577511D01*
X125892197Y-83508353D01*
X125921222Y-83444797D01*
X125940624Y-83426734D01*
X125998932Y-83383083D01*
X126033046Y-83357546D01*
X126113789Y-83249688D01*
X126161605Y-83213894D01*
X126175500Y-83200000D01*
X126175500Y-83152182D01*
X126175499Y-83152164D01*
X126171568Y-83115602D01*
X126171568Y-83089093D01*
X126176000Y-83047873D01*
X126175999Y-82502128D01*
X126175999Y-82502127D01*
X126175998Y-82502111D01*
X126171820Y-82463253D01*
X126171820Y-82436745D01*
X126176000Y-82397873D01*
X126175999Y-81852128D01*
X126175999Y-81852127D01*
X126175998Y-81852111D01*
X126171820Y-81813253D01*
X126171820Y-81786745D01*
X126176000Y-81747873D01*
X126175999Y-81202128D01*
X126175999Y-81202127D01*
X126175998Y-81202111D01*
X126171820Y-81163253D01*
X126171820Y-81136745D01*
X126176000Y-81097873D01*
X126175999Y-80552128D01*
X126175999Y-80552127D01*
X126175998Y-80552111D01*
X126171820Y-80513253D01*
X126171820Y-80486745D01*
X126176000Y-80447873D01*
X126175999Y-79902128D01*
X126175999Y-79902127D01*
X126175998Y-79902111D01*
X126171820Y-79863253D01*
X126171820Y-79836745D01*
X126176000Y-79797873D01*
X126175999Y-79252128D01*
X126175999Y-79252127D01*
X126175998Y-79252111D01*
X126171820Y-79213253D01*
X126171820Y-79186745D01*
X126176000Y-79147873D01*
X126175999Y-78730499D01*
X126195683Y-78663461D01*
X126248487Y-78617706D01*
X126299999Y-78606500D01*
X126775501Y-78606500D01*
X126842540Y-78626185D01*
X126888295Y-78678989D01*
X126899501Y-78730500D01*
X126899501Y-79000018D01*
X126910000Y-79102796D01*
X126910001Y-79102799D01*
X126951471Y-79227945D01*
X126965186Y-79269334D01*
X127057288Y-79418656D01*
X127181344Y-79542712D01*
X127330666Y-79634814D01*
X127497203Y-79689999D01*
X127507100Y-79691010D01*
X127571792Y-79717404D01*
X127611945Y-79774584D01*
X127618500Y-79814368D01*
X127618500Y-85290615D01*
X127598815Y-85357654D01*
X127582181Y-85378296D01*
X126878296Y-86082181D01*
X126816973Y-86115666D01*
X126790615Y-86118500D01*
X121949775Y-86118500D01*
X121877003Y-86137999D01*
X121852745Y-86144499D01*
X121765754Y-86194723D01*
X121765751Y-86194725D01*
X118322225Y-89638251D01*
X118322224Y-89638253D01*
X118271999Y-89725246D01*
X118246890Y-89818954D01*
X118210524Y-89878614D01*
X118164006Y-89905244D01*
X118125530Y-89917233D01*
X118063666Y-89954631D01*
X117996111Y-89972466D01*
X117935368Y-89954630D01*
X117874268Y-89917694D01*
X117874264Y-89917692D01*
X117709944Y-89866489D01*
X117709946Y-89866489D01*
X117638535Y-89860000D01*
X117622500Y-89860000D01*
X117622500Y-92140000D01*
X117638535Y-92140000D01*
X117709945Y-92133510D01*
X117874263Y-92082307D01*
X117935367Y-92045369D01*
X118002921Y-92027533D01*
X118063666Y-92045368D01*
X118125527Y-92082765D01*
X118158889Y-92093160D01*
X118217037Y-92131897D01*
X118245012Y-92195921D01*
X118246000Y-92211546D01*
X118246000Y-97748722D01*
X118226315Y-97815761D01*
X118173511Y-97861516D01*
X118158891Y-97867107D01*
X117998030Y-97917233D01*
X117936166Y-97954631D01*
X117868611Y-97972466D01*
X117807868Y-97954630D01*
X117746768Y-97917694D01*
X117746764Y-97917692D01*
X117582444Y-97866489D01*
X117582446Y-97866489D01*
X117511035Y-97860000D01*
X117495000Y-97860000D01*
X117495000Y-100140000D01*
X117511035Y-100140000D01*
X117582445Y-100133510D01*
X117746763Y-100082307D01*
X117807867Y-100045369D01*
X117875421Y-100027533D01*
X117936166Y-100045368D01*
X117998027Y-100082765D01*
X118025751Y-100091404D01*
X118084964Y-100109856D01*
X118143111Y-100148593D01*
X118155460Y-100166241D01*
X118194721Y-100234243D01*
X118194725Y-100234248D01*
X118209681Y-100249204D01*
X118243166Y-100310527D01*
X118246000Y-100336885D01*
X118246000Y-106288453D01*
X118226315Y-106355492D01*
X118173511Y-106401247D01*
X118158891Y-106406838D01*
X118125530Y-106417233D01*
X118063666Y-106454631D01*
X117996111Y-106472466D01*
X117935368Y-106454630D01*
X117874268Y-106417694D01*
X117874264Y-106417692D01*
X117709944Y-106366489D01*
X117709946Y-106366489D01*
X117638535Y-106360000D01*
X117622500Y-106360000D01*
X117622500Y-108640000D01*
X117638535Y-108640000D01*
X117709945Y-108633510D01*
X117874263Y-108582307D01*
X117935367Y-108545369D01*
X118002921Y-108527533D01*
X118063666Y-108545368D01*
X118124769Y-108582307D01*
X118125529Y-108582766D01*
X118183693Y-108600890D01*
X118289965Y-108634006D01*
X118361428Y-108640500D01*
X118361431Y-108640500D01*
X118893569Y-108640500D01*
X118893572Y-108640500D01*
X118965035Y-108634006D01*
X119129473Y-108582765D01*
X119276870Y-108493660D01*
X119398660Y-108371870D01*
X119487765Y-108224473D01*
X119539006Y-108060035D01*
X119545500Y-107988572D01*
X119545500Y-107855500D01*
X119565185Y-107788461D01*
X119617989Y-107742706D01*
X119669500Y-107731500D01*
X120688490Y-107731500D01*
X120755529Y-107751185D01*
X120801284Y-107803989D01*
X120811429Y-107839316D01*
X120814697Y-107864143D01*
X120814699Y-107864149D01*
X120814699Y-107864151D01*
X120874200Y-108007798D01*
X120968851Y-108131149D01*
X121092202Y-108225800D01*
X121235849Y-108285301D01*
X121351299Y-108300500D01*
X122748700Y-108300499D01*
X122748703Y-108300499D01*
X122864142Y-108285303D01*
X122864146Y-108285301D01*
X122864151Y-108285301D01*
X123007798Y-108225800D01*
X123131149Y-108131149D01*
X123225800Y-108007798D01*
X123285301Y-107864151D01*
X123300500Y-107748701D01*
X123300499Y-106951300D01*
X123300499Y-106951298D01*
X123300499Y-106951296D01*
X123285303Y-106835857D01*
X123285301Y-106835850D01*
X123285301Y-106835849D01*
X123225800Y-106692202D01*
X123131149Y-106568851D01*
X123007798Y-106474200D01*
X123007794Y-106474198D01*
X122864151Y-106414699D01*
X122864149Y-106414698D01*
X122748701Y-106399500D01*
X121351296Y-106399500D01*
X121235857Y-106414696D01*
X121235848Y-106414699D01*
X121092205Y-106474198D01*
X121092202Y-106474199D01*
X121092202Y-106474200D01*
X120968851Y-106568851D01*
X120923365Y-106628130D01*
X120874198Y-106692205D01*
X120814699Y-106835848D01*
X120814699Y-106835849D01*
X120811429Y-106860687D01*
X120783162Y-106924583D01*
X120724837Y-106963053D01*
X120688490Y-106968500D01*
X119639138Y-106968500D01*
X119572099Y-106948815D01*
X119526344Y-106896011D01*
X119520758Y-106881407D01*
X119487765Y-106775527D01*
X119398660Y-106628130D01*
X119398658Y-106628128D01*
X119398657Y-106628126D01*
X119276873Y-106506342D01*
X119223704Y-106474200D01*
X119129473Y-106417235D01*
X119121332Y-106414698D01*
X119096109Y-106406838D01*
X119037961Y-106368100D01*
X119009988Y-106304075D01*
X119009000Y-106288453D01*
X119009000Y-101751298D01*
X120799500Y-101751298D01*
X120799500Y-102548703D01*
X120814696Y-102664142D01*
X120814699Y-102664151D01*
X120874093Y-102807541D01*
X120874200Y-102807798D01*
X120968851Y-102931149D01*
X121092202Y-103025800D01*
X121092205Y-103025801D01*
X121092206Y-103025802D01*
X121155143Y-103051871D01*
X121219752Y-103078633D01*
X121274156Y-103122474D01*
X121296221Y-103188768D01*
X121296300Y-103193194D01*
X121296300Y-104040517D01*
X121296301Y-104040522D01*
X121327308Y-104115384D01*
X121384615Y-104172691D01*
X121442517Y-104196673D01*
X121459481Y-104203700D01*
X121540519Y-104203700D01*
X124459481Y-104203700D01*
X125764263Y-104203700D01*
X125831302Y-104223385D01*
X125851944Y-104240019D01*
X126709981Y-105098056D01*
X126743466Y-105159379D01*
X126746300Y-105185737D01*
X126746300Y-106275500D01*
X126726615Y-106342539D01*
X126673811Y-106388294D01*
X126622300Y-106399500D01*
X126251296Y-106399500D01*
X126135857Y-106414696D01*
X126135848Y-106414699D01*
X125992205Y-106474198D01*
X125992202Y-106474199D01*
X125992202Y-106474200D01*
X125868851Y-106568851D01*
X125823365Y-106628130D01*
X125774198Y-106692205D01*
X125714699Y-106835848D01*
X125714698Y-106835850D01*
X125699500Y-106951298D01*
X125699500Y-107748703D01*
X125714696Y-107864142D01*
X125714699Y-107864151D01*
X125774200Y-108007798D01*
X125868851Y-108131149D01*
X125992202Y-108225800D01*
X126135849Y-108285301D01*
X126251299Y-108300500D01*
X127648700Y-108300499D01*
X127648703Y-108300499D01*
X127764142Y-108285303D01*
X127764146Y-108285301D01*
X127764151Y-108285301D01*
X127907798Y-108225800D01*
X128031149Y-108131149D01*
X128125800Y-108007798D01*
X128185301Y-107864151D01*
X128200500Y-107748701D01*
X128200499Y-106951300D01*
X128200499Y-106951298D01*
X128200499Y-106951296D01*
X128185303Y-106835857D01*
X128185301Y-106835850D01*
X128185301Y-106835849D01*
X128125800Y-106692202D01*
X128031149Y-106568851D01*
X127907798Y-106474200D01*
X127907794Y-106474198D01*
X127764151Y-106414699D01*
X127764149Y-106414698D01*
X127648702Y-106399500D01*
X127648701Y-106399500D01*
X127277700Y-106399500D01*
X127210661Y-106379815D01*
X127164906Y-106327011D01*
X127153700Y-106275500D01*
X127153700Y-105377700D01*
X127173385Y-105310661D01*
X127226189Y-105264906D01*
X127277700Y-105253700D01*
X128116940Y-105253700D01*
X128183979Y-105273385D01*
X128229734Y-105326189D01*
X128240160Y-105391583D01*
X128227945Y-105499996D01*
X128227945Y-105500003D01*
X128247301Y-105671795D01*
X128304402Y-105834983D01*
X128396382Y-105981367D01*
X128396383Y-105981368D01*
X128518632Y-106103617D01*
X128665018Y-106195598D01*
X128828202Y-106252698D01*
X128885468Y-106259150D01*
X128999996Y-106272055D01*
X129000000Y-106272055D01*
X129000004Y-106272055D01*
X129098170Y-106260993D01*
X129171798Y-106252698D01*
X129334982Y-106195598D01*
X129481368Y-106103617D01*
X129603617Y-105981368D01*
X129695598Y-105834982D01*
X129752698Y-105671798D01*
X129772055Y-105500000D01*
X129752698Y-105328202D01*
X129695598Y-105165018D01*
X129603617Y-105018632D01*
X129481368Y-104896383D01*
X129481367Y-104896382D01*
X129334983Y-104804402D01*
X129171795Y-104747301D01*
X129000004Y-104727945D01*
X128999996Y-104727945D01*
X128828204Y-104747301D01*
X128665020Y-104804401D01*
X128665018Y-104804401D01*
X128665018Y-104804402D01*
X128628582Y-104827295D01*
X128562613Y-104846300D01*
X127085738Y-104846300D01*
X127018699Y-104826615D01*
X126998057Y-104809981D01*
X126090130Y-103902055D01*
X126090128Y-103902052D01*
X126015384Y-103827308D01*
X125940522Y-103796301D01*
X125940520Y-103796300D01*
X125940519Y-103796300D01*
X125940517Y-103796300D01*
X121827700Y-103796300D01*
X121760661Y-103776615D01*
X121714906Y-103723811D01*
X121703700Y-103672300D01*
X121703700Y-103224499D01*
X121723385Y-103157460D01*
X121776189Y-103111705D01*
X121827700Y-103100499D01*
X122748703Y-103100499D01*
X122864142Y-103085303D01*
X122864146Y-103085301D01*
X122864151Y-103085301D01*
X123007798Y-103025800D01*
X123131149Y-102931149D01*
X123225800Y-102807798D01*
X123285301Y-102664151D01*
X123300500Y-102548701D01*
X123300500Y-102548670D01*
X125700000Y-102548670D01*
X125715185Y-102664019D01*
X125715187Y-102664024D01*
X125774633Y-102807541D01*
X125774633Y-102807542D01*
X125869207Y-102930792D01*
X125992458Y-103025366D01*
X126135975Y-103084812D01*
X126135980Y-103084814D01*
X126251329Y-103100000D01*
X126700000Y-103100000D01*
X127200000Y-103100000D01*
X127648671Y-103100000D01*
X127764019Y-103084814D01*
X127764024Y-103084812D01*
X127907541Y-103025366D01*
X127907542Y-103025366D01*
X128030792Y-102930792D01*
X128125366Y-102807542D01*
X128125366Y-102807541D01*
X128184812Y-102664024D01*
X128184814Y-102664019D01*
X128200000Y-102548670D01*
X128200000Y-102400000D01*
X127200000Y-102400000D01*
X127200000Y-103100000D01*
X126700000Y-103100000D01*
X126700000Y-102400000D01*
X125700000Y-102400000D01*
X125700000Y-102548670D01*
X123300500Y-102548670D01*
X123300499Y-101751329D01*
X125700000Y-101751329D01*
X125700000Y-101900000D01*
X126700000Y-101900000D01*
X127200000Y-101900000D01*
X128200000Y-101900000D01*
X128200000Y-101751329D01*
X128184814Y-101635980D01*
X128184812Y-101635975D01*
X128125366Y-101492458D01*
X128125366Y-101492457D01*
X128030792Y-101369207D01*
X127907541Y-101274633D01*
X127764024Y-101215187D01*
X127764019Y-101215185D01*
X127648671Y-101200000D01*
X127200000Y-101200000D01*
X127200000Y-101900000D01*
X126700000Y-101900000D01*
X126700000Y-101200000D01*
X126251329Y-101200000D01*
X126135980Y-101215185D01*
X126135975Y-101215187D01*
X125992458Y-101274633D01*
X125992457Y-101274633D01*
X125869207Y-101369207D01*
X125774633Y-101492457D01*
X125774633Y-101492458D01*
X125715187Y-101635975D01*
X125715185Y-101635980D01*
X125700000Y-101751329D01*
X123300499Y-101751329D01*
X123300499Y-101751300D01*
X123300499Y-101751298D01*
X123300499Y-101751296D01*
X123285303Y-101635857D01*
X123285301Y-101635850D01*
X123285301Y-101635849D01*
X123225800Y-101492202D01*
X123131149Y-101368851D01*
X123007798Y-101274200D01*
X123007794Y-101274198D01*
X122864151Y-101214699D01*
X122864149Y-101214698D01*
X122748701Y-101199500D01*
X121351296Y-101199500D01*
X121235857Y-101214696D01*
X121235848Y-101214699D01*
X121092205Y-101274198D01*
X120968851Y-101368851D01*
X120874198Y-101492205D01*
X120814699Y-101635848D01*
X120814698Y-101635850D01*
X120799500Y-101751298D01*
X119009000Y-101751298D01*
X119009000Y-100148453D01*
X119028685Y-100081414D01*
X119068850Y-100042336D01*
X119093337Y-100027533D01*
X119149370Y-99993660D01*
X119271160Y-99871870D01*
X119360265Y-99724473D01*
X119411506Y-99560035D01*
X119418000Y-99488572D01*
X119418000Y-99355500D01*
X119437685Y-99288461D01*
X119490489Y-99242706D01*
X119542000Y-99231500D01*
X120688490Y-99231500D01*
X120755529Y-99251185D01*
X120801284Y-99303989D01*
X120811429Y-99339316D01*
X120814697Y-99364143D01*
X120814699Y-99364149D01*
X120814699Y-99364151D01*
X120874200Y-99507798D01*
X120968851Y-99631149D01*
X121092202Y-99725800D01*
X121235849Y-99785301D01*
X121351299Y-99800500D01*
X122748700Y-99800499D01*
X122748703Y-99800499D01*
X122864142Y-99785303D01*
X122864146Y-99785301D01*
X122864151Y-99785301D01*
X123007798Y-99725800D01*
X123131149Y-99631149D01*
X123225800Y-99507798D01*
X123285301Y-99364151D01*
X123300500Y-99248701D01*
X123300499Y-98451300D01*
X123300499Y-98451298D01*
X123300499Y-98451296D01*
X123285303Y-98335857D01*
X123285301Y-98335850D01*
X123285301Y-98335849D01*
X123225800Y-98192202D01*
X123131149Y-98068851D01*
X123007798Y-97974200D01*
X123007794Y-97974198D01*
X122864151Y-97914699D01*
X122864149Y-97914698D01*
X122748701Y-97899500D01*
X121351296Y-97899500D01*
X121235857Y-97914696D01*
X121235848Y-97914699D01*
X121092205Y-97974198D01*
X121092202Y-97974199D01*
X121092202Y-97974200D01*
X120968851Y-98068851D01*
X120923365Y-98128130D01*
X120874198Y-98192205D01*
X120814699Y-98335848D01*
X120814699Y-98335849D01*
X120811429Y-98360687D01*
X120783162Y-98424583D01*
X120724837Y-98463053D01*
X120688490Y-98468500D01*
X119511638Y-98468500D01*
X119444599Y-98448815D01*
X119398844Y-98396011D01*
X119393258Y-98381407D01*
X119360265Y-98275527D01*
X119271160Y-98128130D01*
X119271158Y-98128128D01*
X119271157Y-98128126D01*
X119149374Y-98006343D01*
X119149370Y-98006340D01*
X119068849Y-97957662D01*
X119021662Y-97906134D01*
X119009000Y-97851546D01*
X119009000Y-93751298D01*
X120799500Y-93751298D01*
X120799500Y-94548703D01*
X120814696Y-94664142D01*
X120814699Y-94664151D01*
X120874093Y-94807541D01*
X120874200Y-94807798D01*
X120968851Y-94931149D01*
X121092202Y-95025800D01*
X121235849Y-95085301D01*
X121351299Y-95100500D01*
X121722300Y-95100499D01*
X121789339Y-95120183D01*
X121835094Y-95172987D01*
X121846300Y-95224499D01*
X121846300Y-96040517D01*
X121846301Y-96040522D01*
X121877308Y-96115384D01*
X121934615Y-96172691D01*
X121992517Y-96196673D01*
X122009481Y-96203700D01*
X125364263Y-96203700D01*
X125431302Y-96223385D01*
X125451944Y-96240019D01*
X125820240Y-96608315D01*
X125820243Y-96608319D01*
X125902049Y-96690125D01*
X125902055Y-96690130D01*
X126709981Y-97498056D01*
X126743466Y-97559379D01*
X126746300Y-97585737D01*
X126746300Y-97775500D01*
X126726615Y-97842539D01*
X126673811Y-97888294D01*
X126622300Y-97899500D01*
X126251296Y-97899500D01*
X126135857Y-97914696D01*
X126135848Y-97914699D01*
X125992205Y-97974198D01*
X125992202Y-97974199D01*
X125992202Y-97974200D01*
X125868851Y-98068851D01*
X125823365Y-98128130D01*
X125774198Y-98192205D01*
X125714699Y-98335848D01*
X125714698Y-98335850D01*
X125699500Y-98451298D01*
X125699500Y-99248703D01*
X125714696Y-99364142D01*
X125714699Y-99364151D01*
X125774200Y-99507798D01*
X125868851Y-99631149D01*
X125992202Y-99725800D01*
X126135849Y-99785301D01*
X126251299Y-99800500D01*
X127648700Y-99800499D01*
X127648703Y-99800499D01*
X127764142Y-99785303D01*
X127764146Y-99785301D01*
X127764151Y-99785301D01*
X127907798Y-99725800D01*
X128031149Y-99631149D01*
X128125800Y-99507798D01*
X128185301Y-99364151D01*
X128200500Y-99248701D01*
X128200499Y-98451300D01*
X128200499Y-98451298D01*
X128200499Y-98451296D01*
X128185303Y-98335857D01*
X128185301Y-98335850D01*
X128185301Y-98335849D01*
X128125800Y-98192202D01*
X128031149Y-98068851D01*
X127907798Y-97974200D01*
X127907794Y-97974198D01*
X127764151Y-97914699D01*
X127764149Y-97914698D01*
X127648702Y-97899500D01*
X127648701Y-97899500D01*
X127277700Y-97899500D01*
X127210661Y-97879815D01*
X127164906Y-97827011D01*
X127153700Y-97775500D01*
X127153700Y-97504961D01*
X127153701Y-97504952D01*
X127153701Y-97409483D01*
X127151318Y-97397502D01*
X127152765Y-97397214D01*
X127146749Y-97341264D01*
X127178021Y-97278784D01*
X127238109Y-97243130D01*
X127307934Y-97245621D01*
X127309713Y-97246228D01*
X127328202Y-97252698D01*
X127385468Y-97259150D01*
X127499996Y-97272055D01*
X127500000Y-97272055D01*
X127500004Y-97272055D01*
X127598170Y-97260993D01*
X127671798Y-97252698D01*
X127834982Y-97195598D01*
X127981368Y-97103617D01*
X128103617Y-96981368D01*
X128195598Y-96834982D01*
X128252698Y-96671798D01*
X128272055Y-96500000D01*
X128252698Y-96328202D01*
X128195598Y-96165018D01*
X128117371Y-96040522D01*
X128103617Y-96018632D01*
X127981367Y-95896382D01*
X127834983Y-95804402D01*
X127671795Y-95747301D01*
X127500004Y-95727945D01*
X127499996Y-95727945D01*
X127328204Y-95747301D01*
X127165016Y-95804402D01*
X127018632Y-95896382D01*
X126896382Y-96018632D01*
X126804402Y-96165016D01*
X126801717Y-96172691D01*
X126790868Y-96203698D01*
X126787524Y-96213254D01*
X126746803Y-96270030D01*
X126681850Y-96295778D01*
X126670482Y-96296300D01*
X126135737Y-96296300D01*
X126068698Y-96276615D01*
X126048056Y-96259981D01*
X125690130Y-95902055D01*
X125690128Y-95902052D01*
X125615384Y-95827308D01*
X125540522Y-95796301D01*
X125540520Y-95796300D01*
X125540519Y-95796300D01*
X125540517Y-95796300D01*
X122377700Y-95796300D01*
X122310661Y-95776615D01*
X122264906Y-95723811D01*
X122253700Y-95672300D01*
X122253700Y-95224499D01*
X122273385Y-95157460D01*
X122326189Y-95111705D01*
X122377700Y-95100499D01*
X122748703Y-95100499D01*
X122864142Y-95085303D01*
X122864146Y-95085301D01*
X122864151Y-95085301D01*
X123007798Y-95025800D01*
X123131149Y-94931149D01*
X123225800Y-94807798D01*
X123285301Y-94664151D01*
X123300500Y-94548701D01*
X123300500Y-94548670D01*
X125700000Y-94548670D01*
X125715185Y-94664019D01*
X125715187Y-94664024D01*
X125774633Y-94807541D01*
X125774633Y-94807542D01*
X125869207Y-94930792D01*
X125992458Y-95025366D01*
X126135975Y-95084812D01*
X126135980Y-95084814D01*
X126251329Y-95100000D01*
X126700000Y-95100000D01*
X127200000Y-95100000D01*
X127648671Y-95100000D01*
X127764019Y-95084814D01*
X127764024Y-95084812D01*
X127907541Y-95025366D01*
X127907542Y-95025366D01*
X128030792Y-94930792D01*
X128125366Y-94807542D01*
X128125366Y-94807541D01*
X128184812Y-94664024D01*
X128184814Y-94664019D01*
X128200000Y-94548670D01*
X128200000Y-94400000D01*
X127200000Y-94400000D01*
X127200000Y-95100000D01*
X126700000Y-95100000D01*
X126700000Y-94400000D01*
X125700000Y-94400000D01*
X125700000Y-94548670D01*
X123300500Y-94548670D01*
X123300499Y-93751329D01*
X125700000Y-93751329D01*
X125700000Y-93900000D01*
X126700000Y-93900000D01*
X127200000Y-93900000D01*
X128200000Y-93900000D01*
X128200000Y-93751329D01*
X128184814Y-93635980D01*
X128184812Y-93635975D01*
X128125366Y-93492458D01*
X128125366Y-93492457D01*
X128030792Y-93369207D01*
X127907541Y-93274633D01*
X127764024Y-93215187D01*
X127764019Y-93215185D01*
X127648671Y-93200000D01*
X127200000Y-93200000D01*
X127200000Y-93900000D01*
X126700000Y-93900000D01*
X126700000Y-93200000D01*
X126251329Y-93200000D01*
X126135980Y-93215185D01*
X126135975Y-93215187D01*
X125992458Y-93274633D01*
X125992457Y-93274633D01*
X125869207Y-93369207D01*
X125774633Y-93492457D01*
X125774633Y-93492458D01*
X125715187Y-93635975D01*
X125715185Y-93635980D01*
X125700000Y-93751329D01*
X123300499Y-93751329D01*
X123300499Y-93751300D01*
X123300499Y-93751298D01*
X123300499Y-93751296D01*
X123285303Y-93635857D01*
X123285301Y-93635850D01*
X123285301Y-93635849D01*
X123225800Y-93492202D01*
X123131149Y-93368851D01*
X123007798Y-93274200D01*
X123007794Y-93274198D01*
X122864151Y-93214699D01*
X122864149Y-93214698D01*
X122748701Y-93199500D01*
X121351296Y-93199500D01*
X121235857Y-93214696D01*
X121235848Y-93214699D01*
X121092205Y-93274198D01*
X120968851Y-93368851D01*
X120874198Y-93492205D01*
X120814699Y-93635848D01*
X120814698Y-93635850D01*
X120799500Y-93751298D01*
X119009000Y-93751298D01*
X119009000Y-92211546D01*
X119028685Y-92144507D01*
X119081489Y-92098752D01*
X119096105Y-92093162D01*
X119129473Y-92082765D01*
X119276870Y-91993660D01*
X119398660Y-91871870D01*
X119487765Y-91724473D01*
X119539006Y-91560035D01*
X119545500Y-91488572D01*
X119545500Y-91355500D01*
X119565185Y-91288461D01*
X119617989Y-91242706D01*
X119669500Y-91231500D01*
X120688490Y-91231500D01*
X120755529Y-91251185D01*
X120801284Y-91303989D01*
X120811429Y-91339316D01*
X120814697Y-91364143D01*
X120814699Y-91364149D01*
X120814699Y-91364151D01*
X120874200Y-91507798D01*
X120968851Y-91631149D01*
X121092202Y-91725800D01*
X121235849Y-91785301D01*
X121351299Y-91800500D01*
X122748700Y-91800499D01*
X122748703Y-91800499D01*
X122864142Y-91785303D01*
X122864146Y-91785301D01*
X122864151Y-91785301D01*
X123007798Y-91725800D01*
X123131149Y-91631149D01*
X123225800Y-91507798D01*
X123285301Y-91364151D01*
X123300500Y-91248701D01*
X123300499Y-90451300D01*
X123300499Y-90451298D01*
X125699500Y-90451298D01*
X125699500Y-91248703D01*
X125714696Y-91364142D01*
X125714699Y-91364151D01*
X125774200Y-91507798D01*
X125868851Y-91631149D01*
X125992202Y-91725800D01*
X126135849Y-91785301D01*
X126251299Y-91800500D01*
X127648700Y-91800499D01*
X127648703Y-91800499D01*
X127764142Y-91785303D01*
X127764146Y-91785301D01*
X127764151Y-91785301D01*
X127907798Y-91725800D01*
X128031149Y-91631149D01*
X128080505Y-91566826D01*
X128136929Y-91525626D01*
X128206675Y-91521471D01*
X128266559Y-91554634D01*
X128320240Y-91608315D01*
X128320243Y-91608319D01*
X128320244Y-91608319D01*
X128327310Y-91615385D01*
X128327311Y-91615387D01*
X128384613Y-91672689D01*
X128406541Y-91681772D01*
X128459481Y-91703701D01*
X128459482Y-91703701D01*
X128554953Y-91703701D01*
X128554961Y-91703700D01*
X129170482Y-91703700D01*
X129237521Y-91723385D01*
X129283276Y-91776189D01*
X129287524Y-91786746D01*
X129304402Y-91834983D01*
X129396382Y-91981367D01*
X129518632Y-92103617D01*
X129583707Y-92144507D01*
X129665018Y-92195598D01*
X129828202Y-92252698D01*
X129885468Y-92259150D01*
X129999996Y-92272055D01*
X130000000Y-92272055D01*
X130000004Y-92272055D01*
X130098170Y-92260993D01*
X130171798Y-92252698D01*
X130334982Y-92195598D01*
X130481368Y-92103617D01*
X130603617Y-91981368D01*
X130695598Y-91834982D01*
X130752698Y-91671798D01*
X130769636Y-91521471D01*
X130772055Y-91500003D01*
X130772055Y-91499996D01*
X130756748Y-91364149D01*
X130752698Y-91328202D01*
X130695598Y-91165018D01*
X130603617Y-91018632D01*
X130481368Y-90896383D01*
X130481367Y-90896382D01*
X130334983Y-90804402D01*
X130192103Y-90754407D01*
X130171798Y-90747302D01*
X130171797Y-90747301D01*
X130171795Y-90747301D01*
X130000004Y-90727945D01*
X129999996Y-90727945D01*
X129828204Y-90747301D01*
X129665016Y-90804402D01*
X129518632Y-90896382D01*
X129396382Y-91018632D01*
X129304402Y-91165016D01*
X129287524Y-91213254D01*
X129246803Y-91270030D01*
X129181850Y-91295778D01*
X129170482Y-91296300D01*
X128635737Y-91296300D01*
X128568698Y-91276615D01*
X128548056Y-91259981D01*
X128236818Y-90948743D01*
X128203333Y-90887420D01*
X128200499Y-90861062D01*
X128200499Y-90451296D01*
X128185303Y-90335857D01*
X128185301Y-90335850D01*
X128185301Y-90335849D01*
X128125800Y-90192202D01*
X128031149Y-90068851D01*
X127907798Y-89974200D01*
X127907794Y-89974198D01*
X127764151Y-89914699D01*
X127764149Y-89914698D01*
X127648701Y-89899500D01*
X126251296Y-89899500D01*
X126135857Y-89914696D01*
X126135848Y-89914699D01*
X125992205Y-89974198D01*
X125992202Y-89974199D01*
X125992202Y-89974200D01*
X125868851Y-90068851D01*
X125823365Y-90128130D01*
X125774198Y-90192205D01*
X125714699Y-90335848D01*
X125714698Y-90335850D01*
X125699500Y-90451298D01*
X123300499Y-90451298D01*
X123300499Y-90451296D01*
X123285303Y-90335857D01*
X123285301Y-90335850D01*
X123285301Y-90335849D01*
X123225800Y-90192202D01*
X123131149Y-90068851D01*
X123007798Y-89974200D01*
X123007794Y-89974198D01*
X122864151Y-89914699D01*
X122864149Y-89914698D01*
X122748701Y-89899500D01*
X121351296Y-89899500D01*
X121235857Y-89914696D01*
X121235848Y-89914699D01*
X121092205Y-89974198D01*
X121092202Y-89974199D01*
X121092202Y-89974200D01*
X120968851Y-90068851D01*
X120923365Y-90128130D01*
X120874198Y-90192205D01*
X120814699Y-90335848D01*
X120814699Y-90335849D01*
X120811429Y-90360687D01*
X120783162Y-90424583D01*
X120724837Y-90463053D01*
X120688490Y-90468500D01*
X119639138Y-90468500D01*
X119572099Y-90448815D01*
X119526344Y-90396011D01*
X119520758Y-90381407D01*
X119487765Y-90275527D01*
X119398660Y-90128130D01*
X119398658Y-90128128D01*
X119398657Y-90128126D01*
X119276873Y-90006342D01*
X119276870Y-90006340D01*
X119260439Y-89996407D01*
X119213254Y-89944881D01*
X119201415Y-89876022D01*
X119228683Y-89811693D01*
X119236900Y-89802622D01*
X121145988Y-87893535D01*
X128860000Y-87893535D01*
X128866489Y-87964945D01*
X128917692Y-88129264D01*
X129006738Y-88276563D01*
X129128436Y-88398261D01*
X129275736Y-88487307D01*
X129275735Y-88487307D01*
X129440055Y-88538510D01*
X129440053Y-88538510D01*
X129511465Y-88545000D01*
X129750000Y-88545000D01*
X130250000Y-88545000D01*
X130488535Y-88545000D01*
X130559945Y-88538510D01*
X130724264Y-88487307D01*
X130871563Y-88398261D01*
X130993261Y-88276563D01*
X131082307Y-88129264D01*
X131133510Y-87964945D01*
X131140000Y-87893535D01*
X131140000Y-87877500D01*
X130250000Y-87877500D01*
X130250000Y-88545000D01*
X129750000Y-88545000D01*
X129750000Y-87877500D01*
X128860000Y-87877500D01*
X128860000Y-87893535D01*
X121145988Y-87893535D01*
X122121704Y-86917819D01*
X122183027Y-86884334D01*
X122209385Y-86881500D01*
X127050222Y-86881500D01*
X127050225Y-86881500D01*
X127147254Y-86855501D01*
X127234247Y-86805276D01*
X127305276Y-86734247D01*
X127305276Y-86734246D01*
X128224037Y-85815483D01*
X128224042Y-85815480D01*
X128234245Y-85805276D01*
X128234247Y-85805276D01*
X128305276Y-85734247D01*
X128355501Y-85647254D01*
X128355502Y-85647253D01*
X128381501Y-85550225D01*
X128381501Y-85449775D01*
X128381501Y-85442180D01*
X128381500Y-85442162D01*
X128381500Y-79814368D01*
X128401185Y-79747329D01*
X128453989Y-79701574D01*
X128492898Y-79691010D01*
X128502797Y-79689999D01*
X128669334Y-79634814D01*
X128818656Y-79542712D01*
X128912319Y-79449049D01*
X128973642Y-79415564D01*
X129043334Y-79420548D01*
X129087681Y-79449049D01*
X129181344Y-79542712D01*
X129330666Y-79634814D01*
X129497203Y-79689999D01*
X129507100Y-79691010D01*
X129571792Y-79717404D01*
X129611945Y-79774584D01*
X129618500Y-79814368D01*
X129618500Y-85331527D01*
X129598815Y-85398566D01*
X129546011Y-85444321D01*
X129505723Y-85455018D01*
X129439963Y-85460994D01*
X129275530Y-85512233D01*
X129128126Y-85601342D01*
X129006342Y-85723126D01*
X128917233Y-85870530D01*
X128865994Y-86034963D01*
X128859500Y-86106430D01*
X128859500Y-86638568D01*
X128865994Y-86710036D01*
X128917233Y-86874470D01*
X128917235Y-86874474D01*
X128954630Y-86936333D01*
X128972466Y-87003887D01*
X128954631Y-87064630D01*
X128917693Y-87125733D01*
X128917692Y-87125735D01*
X128866489Y-87290054D01*
X128860000Y-87361464D01*
X128860000Y-87377500D01*
X131140000Y-87377500D01*
X131140000Y-87361464D01*
X131133510Y-87290054D01*
X131082307Y-87125736D01*
X131048402Y-87069650D01*
X131030566Y-87002096D01*
X131052083Y-86935622D01*
X131106124Y-86891334D01*
X131154519Y-86881500D01*
X132050222Y-86881500D01*
X132050225Y-86881500D01*
X132147254Y-86855501D01*
X132234247Y-86805276D01*
X132305276Y-86734247D01*
X132621704Y-86417819D01*
X132683027Y-86384334D01*
X132709385Y-86381500D01*
X132765885Y-86381500D01*
X132832924Y-86401185D01*
X132878267Y-86453096D01*
X132962464Y-86633658D01*
X132962468Y-86633666D01*
X133089170Y-86814615D01*
X133089175Y-86814621D01*
X133245378Y-86970824D01*
X133245384Y-86970829D01*
X133426333Y-87097531D01*
X133426335Y-87097532D01*
X133426338Y-87097534D01*
X133626550Y-87190894D01*
X133839932Y-87248070D01*
X133997123Y-87261822D01*
X134059998Y-87267323D01*
X134060000Y-87267323D01*
X134060002Y-87267323D01*
X134115017Y-87262509D01*
X134280068Y-87248070D01*
X134493450Y-87190894D01*
X134693662Y-87097534D01*
X134874620Y-86970826D01*
X135030826Y-86814620D01*
X135157534Y-86633662D01*
X135250894Y-86433450D01*
X135308070Y-86220068D01*
X135327323Y-86000000D01*
X135308070Y-85779932D01*
X135250894Y-85566550D01*
X135157534Y-85366339D01*
X135030826Y-85185380D01*
X134874620Y-85029174D01*
X134874616Y-85029171D01*
X134874615Y-85029170D01*
X134693666Y-84902468D01*
X134693658Y-84902464D01*
X134564811Y-84842382D01*
X134512371Y-84796210D01*
X134493219Y-84729017D01*
X134513435Y-84662135D01*
X134564811Y-84617618D01*
X134570802Y-84614824D01*
X134693662Y-84557534D01*
X134874620Y-84430826D01*
X135030826Y-84274620D01*
X135157534Y-84093662D01*
X135250894Y-83893450D01*
X135308070Y-83680068D01*
X135323780Y-83500499D01*
X135327323Y-83460002D01*
X135327323Y-83459997D01*
X135318360Y-83357546D01*
X135308070Y-83239932D01*
X135250894Y-83026550D01*
X135157534Y-82826339D01*
X135063453Y-82691977D01*
X135030827Y-82645381D01*
X135026061Y-82640615D01*
X134874620Y-82489174D01*
X134874616Y-82489171D01*
X134874615Y-82489170D01*
X134693666Y-82362468D01*
X134693658Y-82362464D01*
X134564811Y-82302382D01*
X134512371Y-82256210D01*
X134493219Y-82189017D01*
X134513435Y-82122135D01*
X134564811Y-82077618D01*
X134570802Y-82074824D01*
X134693662Y-82017534D01*
X134874620Y-81890826D01*
X135030826Y-81734620D01*
X135157534Y-81553662D01*
X135250894Y-81353450D01*
X135287829Y-81215606D01*
X135324194Y-81155946D01*
X135387041Y-81125417D01*
X135407604Y-81123700D01*
X136620517Y-81123700D01*
X136620519Y-81123700D01*
X136657953Y-81108194D01*
X136695384Y-81092691D01*
X136695385Y-81092689D01*
X136695387Y-81092689D01*
X136752689Y-81035387D01*
X136752689Y-81035386D01*
X136770127Y-81017948D01*
X136770128Y-81017945D01*
X137056187Y-80731887D01*
X137117509Y-80698403D01*
X137184819Y-80702526D01*
X137256789Y-80727709D01*
X137328204Y-80752699D01*
X137499996Y-80772055D01*
X137500000Y-80772055D01*
X137500004Y-80772055D01*
X137598170Y-80760993D01*
X137671798Y-80752698D01*
X137834982Y-80695598D01*
X137981368Y-80603617D01*
X138103617Y-80481368D01*
X138195598Y-80334982D01*
X138252698Y-80171798D01*
X138272055Y-80000000D01*
X138266328Y-79949175D01*
X138255154Y-79849999D01*
X138252698Y-79828202D01*
X138195598Y-79665018D01*
X138184479Y-79647323D01*
X138103617Y-79518632D01*
X137981367Y-79396382D01*
X137834983Y-79304402D01*
X137671795Y-79247301D01*
X137500004Y-79227945D01*
X137499996Y-79227945D01*
X137328204Y-79247301D01*
X137165016Y-79304402D01*
X137018632Y-79396382D01*
X136896382Y-79518632D01*
X136804402Y-79665016D01*
X136747301Y-79828204D01*
X136727945Y-79999996D01*
X136727945Y-80000003D01*
X136747301Y-80171795D01*
X136797471Y-80315176D01*
X136801032Y-80384955D01*
X136768111Y-80443811D01*
X136531944Y-80679981D01*
X136470621Y-80713466D01*
X136444262Y-80716300D01*
X135407604Y-80716300D01*
X135340565Y-80696615D01*
X135294810Y-80643811D01*
X135287829Y-80624393D01*
X135250896Y-80486557D01*
X135250895Y-80486554D01*
X135250894Y-80486550D01*
X135157534Y-80286339D01*
X135030826Y-80105380D01*
X134874620Y-79949174D01*
X134874616Y-79949171D01*
X134874615Y-79949170D01*
X134693666Y-79822468D01*
X134693658Y-79822464D01*
X134564811Y-79762382D01*
X134512371Y-79716210D01*
X134493219Y-79649017D01*
X134513435Y-79582135D01*
X134564811Y-79537618D01*
X134570802Y-79534824D01*
X134693662Y-79477534D01*
X134874620Y-79350826D01*
X135030826Y-79194620D01*
X135157534Y-79013662D01*
X135250894Y-78813450D01*
X135308070Y-78600068D01*
X135327323Y-78380000D01*
X135308070Y-78159932D01*
X135250894Y-77946550D01*
X135157534Y-77746339D01*
X135144812Y-77728170D01*
X135122485Y-77661966D01*
X135139495Y-77594199D01*
X135158702Y-77569371D01*
X143642689Y-69085386D01*
X144737945Y-67990128D01*
X144737948Y-67990127D01*
X144755386Y-67972689D01*
X144755387Y-67972689D01*
X144812689Y-67915387D01*
X144821772Y-67893458D01*
X144843701Y-67840519D01*
X144843701Y-67759481D01*
X144843701Y-67749492D01*
X144843700Y-67749478D01*
X144843700Y-38869053D01*
X144863385Y-38802014D01*
X144916189Y-38756259D01*
X144920234Y-38754497D01*
X145042863Y-38703703D01*
X145182162Y-38610626D01*
X145300626Y-38492162D01*
X145301894Y-38490263D01*
X145302817Y-38489492D01*
X145304490Y-38487454D01*
X145304876Y-38487771D01*
X145355504Y-38445456D01*
X145424828Y-38436745D01*
X145487858Y-38466896D01*
X145508106Y-38490264D01*
X145509375Y-38492164D01*
X145627837Y-38610626D01*
X145720494Y-38672537D01*
X145767137Y-38703703D01*
X145767138Y-38703703D01*
X145767139Y-38703704D01*
X145778971Y-38708605D01*
X145921918Y-38767816D01*
X146075339Y-38798333D01*
X146086228Y-38800499D01*
X146086232Y-38800500D01*
X146086233Y-38800500D01*
X146253768Y-38800500D01*
X146253769Y-38800499D01*
X146418082Y-38767816D01*
X146572863Y-38703703D01*
X146712162Y-38610626D01*
X146830626Y-38492162D01*
X146831894Y-38490263D01*
X146832817Y-38489492D01*
X146834490Y-38487454D01*
X146834876Y-38487771D01*
X146885504Y-38445456D01*
X146954828Y-38436745D01*
X147017858Y-38466896D01*
X147038106Y-38490264D01*
X147039375Y-38492164D01*
X147157837Y-38610626D01*
X147250494Y-38672537D01*
X147297137Y-38703703D01*
X147297138Y-38703703D01*
X147297139Y-38703704D01*
X147297141Y-38703705D01*
X147364694Y-38731686D01*
X147419752Y-38754492D01*
X147474156Y-38798333D01*
X147496221Y-38864627D01*
X147496300Y-38869053D01*
X147496300Y-78164261D01*
X147476615Y-78231300D01*
X147459981Y-78251942D01*
X146943812Y-78768111D01*
X146882489Y-78801596D01*
X146815177Y-78797472D01*
X146671795Y-78747301D01*
X146500004Y-78727945D01*
X146499996Y-78727945D01*
X146328204Y-78747301D01*
X146165016Y-78804402D01*
X146018632Y-78896382D01*
X145896382Y-79018632D01*
X145804402Y-79165016D01*
X145747301Y-79328204D01*
X145727945Y-79499996D01*
X145727945Y-79500003D01*
X145747301Y-79671795D01*
X145804402Y-79834983D01*
X145896382Y-79981367D01*
X146018632Y-80103617D01*
X146127140Y-80171798D01*
X146165018Y-80195598D01*
X146328202Y-80252698D01*
X146385468Y-80259150D01*
X146499996Y-80272055D01*
X146500000Y-80272055D01*
X146500004Y-80272055D01*
X146598170Y-80260993D01*
X146671798Y-80252698D01*
X146834982Y-80195598D01*
X146981368Y-80103617D01*
X147103617Y-79981368D01*
X147195598Y-79834982D01*
X147252698Y-79671798D01*
X147267243Y-79542710D01*
X147272055Y-79500003D01*
X147272055Y-79499996D01*
X147252699Y-79328204D01*
X147211122Y-79209384D01*
X147202526Y-79184819D01*
X147198966Y-79115043D01*
X147231886Y-79056188D01*
X147662319Y-78625756D01*
X147723642Y-78592271D01*
X147793334Y-78597255D01*
X147837681Y-78625756D01*
X155320240Y-86108315D01*
X155320243Y-86108319D01*
X155327311Y-86115387D01*
X155384613Y-86172689D01*
X155415625Y-86185534D01*
X155459482Y-86203701D01*
X155459483Y-86203701D01*
X155554953Y-86203701D01*
X155554961Y-86203700D01*
X160652396Y-86203700D01*
X160719435Y-86223385D01*
X160765190Y-86276189D01*
X160772171Y-86295607D01*
X160809103Y-86433442D01*
X160809105Y-86433446D01*
X160809106Y-86433450D01*
X160902464Y-86633658D01*
X160902466Y-86633662D01*
X160902468Y-86633666D01*
X161029170Y-86814615D01*
X161029175Y-86814621D01*
X161185378Y-86970824D01*
X161185384Y-86970829D01*
X161366333Y-87097531D01*
X161366335Y-87097532D01*
X161366338Y-87097534D01*
X161566550Y-87190894D01*
X161779932Y-87248070D01*
X161937123Y-87261822D01*
X161999998Y-87267323D01*
X162000000Y-87267323D01*
X162000002Y-87267323D01*
X162055017Y-87262509D01*
X162220068Y-87248070D01*
X162433450Y-87190894D01*
X162633662Y-87097534D01*
X162814620Y-86970826D01*
X162970826Y-86814620D01*
X163097534Y-86633662D01*
X163190894Y-86433450D01*
X163248070Y-86220068D01*
X163267323Y-86000000D01*
X163248070Y-85779932D01*
X163190894Y-85566550D01*
X163097534Y-85366339D01*
X162970826Y-85185380D01*
X162814620Y-85029174D01*
X162814616Y-85029171D01*
X162814615Y-85029170D01*
X162633666Y-84902468D01*
X162633658Y-84902464D01*
X162504811Y-84842382D01*
X162452371Y-84796210D01*
X162433219Y-84729017D01*
X162453435Y-84662135D01*
X162504811Y-84617618D01*
X162510802Y-84614824D01*
X162633662Y-84557534D01*
X162814620Y-84430826D01*
X162970826Y-84274620D01*
X163097534Y-84093662D01*
X163190894Y-83893450D01*
X163248070Y-83680068D01*
X163263780Y-83500499D01*
X163267323Y-83460002D01*
X163267323Y-83459997D01*
X163258360Y-83357546D01*
X163248070Y-83239932D01*
X163190894Y-83026550D01*
X163097534Y-82826339D01*
X163003453Y-82691977D01*
X162970827Y-82645381D01*
X162966061Y-82640615D01*
X162814620Y-82489174D01*
X162814616Y-82489171D01*
X162814615Y-82489170D01*
X162633666Y-82362468D01*
X162633658Y-82362464D01*
X162504811Y-82302382D01*
X162452371Y-82256210D01*
X162433219Y-82189017D01*
X162453435Y-82122135D01*
X162504811Y-82077618D01*
X162510802Y-82074824D01*
X162633662Y-82017534D01*
X162814620Y-81890826D01*
X162970826Y-81734620D01*
X163097534Y-81553662D01*
X163190894Y-81353450D01*
X163248070Y-81140068D01*
X163267323Y-80920000D01*
X163248070Y-80699932D01*
X163190894Y-80486550D01*
X163097534Y-80286339D01*
X162970826Y-80105380D01*
X162814620Y-79949174D01*
X162814616Y-79949171D01*
X162814615Y-79949170D01*
X162633666Y-79822468D01*
X162633658Y-79822464D01*
X162504811Y-79762382D01*
X162452371Y-79716210D01*
X162433219Y-79649017D01*
X162453435Y-79582135D01*
X162504811Y-79537618D01*
X162510802Y-79534824D01*
X162633662Y-79477534D01*
X162814620Y-79350826D01*
X162970826Y-79194620D01*
X163097534Y-79013662D01*
X163190894Y-78813450D01*
X163248070Y-78600068D01*
X163267323Y-78380000D01*
X163248070Y-78159932D01*
X163190894Y-77946550D01*
X163097534Y-77746339D01*
X162982003Y-77581342D01*
X162970827Y-77565381D01*
X162956397Y-77550951D01*
X162814620Y-77409174D01*
X162814616Y-77409171D01*
X162814615Y-77409170D01*
X162633666Y-77282468D01*
X162633658Y-77282464D01*
X162504811Y-77222382D01*
X162452371Y-77176210D01*
X162433219Y-77109017D01*
X162453435Y-77042135D01*
X162504811Y-76997618D01*
X162515889Y-76992452D01*
X162633662Y-76937534D01*
X162814620Y-76810826D01*
X162970826Y-76654620D01*
X163097534Y-76473662D01*
X163190894Y-76273450D01*
X163248070Y-76060068D01*
X163267323Y-75840000D01*
X163248070Y-75619932D01*
X163190894Y-75406550D01*
X163097534Y-75206339D01*
X163033847Y-75115384D01*
X162970827Y-75025381D01*
X162897388Y-74951942D01*
X162814620Y-74869174D01*
X162814616Y-74869171D01*
X162814615Y-74869170D01*
X162633666Y-74742468D01*
X162633658Y-74742464D01*
X162504811Y-74682382D01*
X162452371Y-74636210D01*
X162433219Y-74569017D01*
X162453435Y-74502135D01*
X162504811Y-74457618D01*
X162510802Y-74454824D01*
X162633662Y-74397534D01*
X162814620Y-74270826D01*
X162970826Y-74114620D01*
X163097534Y-73933662D01*
X163190894Y-73733450D01*
X163248070Y-73520068D01*
X163267323Y-73300000D01*
X163248070Y-73079932D01*
X163190894Y-72866550D01*
X163097534Y-72666339D01*
X163033847Y-72575384D01*
X162970827Y-72485381D01*
X162897390Y-72411944D01*
X162814620Y-72329174D01*
X162814616Y-72329171D01*
X162814615Y-72329170D01*
X162633666Y-72202468D01*
X162633658Y-72202464D01*
X162504811Y-72142382D01*
X162452371Y-72096210D01*
X162433219Y-72029017D01*
X162453435Y-71962135D01*
X162504811Y-71917618D01*
X162510802Y-71914824D01*
X162633662Y-71857534D01*
X162814620Y-71730826D01*
X162970826Y-71574620D01*
X163097534Y-71393662D01*
X163190894Y-71193450D01*
X163248070Y-70980068D01*
X163267323Y-70760000D01*
X163262117Y-70700499D01*
X163248070Y-70539937D01*
X163248070Y-70539932D01*
X163190894Y-70326550D01*
X163097534Y-70126339D01*
X163008302Y-69998901D01*
X162970827Y-69945381D01*
X162906946Y-69881500D01*
X162814620Y-69789174D01*
X162814616Y-69789171D01*
X162814615Y-69789170D01*
X162633666Y-69662468D01*
X162633658Y-69662464D01*
X162504811Y-69602382D01*
X162452371Y-69556210D01*
X162433219Y-69489017D01*
X162453435Y-69422135D01*
X162504811Y-69377618D01*
X162510802Y-69374824D01*
X162633662Y-69317534D01*
X162814620Y-69190826D01*
X162970826Y-69034620D01*
X163097534Y-68853662D01*
X163190894Y-68653450D01*
X163248070Y-68440068D01*
X163267323Y-68220000D01*
X163248070Y-67999932D01*
X163190894Y-67786550D01*
X163097534Y-67586339D01*
X162970826Y-67405380D01*
X162814620Y-67249174D01*
X162814616Y-67249171D01*
X162814615Y-67249170D01*
X162633666Y-67122468D01*
X162633658Y-67122464D01*
X162504811Y-67062382D01*
X162452371Y-67016210D01*
X162433219Y-66949017D01*
X162453435Y-66882135D01*
X162504811Y-66837618D01*
X162510802Y-66834824D01*
X162633662Y-66777534D01*
X162814620Y-66650826D01*
X162970826Y-66494620D01*
X163097534Y-66313662D01*
X163190894Y-66113450D01*
X163248070Y-65900068D01*
X163267323Y-65680000D01*
X163248070Y-65459932D01*
X163190894Y-65246550D01*
X163097534Y-65046339D01*
X162970826Y-64865380D01*
X162814620Y-64709174D01*
X162814616Y-64709171D01*
X162814615Y-64709170D01*
X162633666Y-64582468D01*
X162633658Y-64582464D01*
X162504811Y-64522382D01*
X162452371Y-64476210D01*
X162433219Y-64409017D01*
X162453435Y-64342135D01*
X162504811Y-64297618D01*
X162510802Y-64294824D01*
X162633662Y-64237534D01*
X162814620Y-64110826D01*
X162970826Y-63954620D01*
X163097534Y-63773662D01*
X163181733Y-63593096D01*
X163227905Y-63540656D01*
X163294115Y-63521500D01*
X168910222Y-63521500D01*
X168910225Y-63521500D01*
X169007254Y-63495501D01*
X169094247Y-63445276D01*
X169165276Y-63374247D01*
X169805276Y-62734247D01*
X169855502Y-62647253D01*
X169881501Y-62550225D01*
X169881501Y-62449775D01*
X169881501Y-62442180D01*
X169881500Y-62442162D01*
X169881500Y-56724380D01*
X169901185Y-56657341D01*
X169953989Y-56611586D01*
X169996896Y-56601102D01*
X169996868Y-56600820D01*
X169998901Y-56600612D01*
X169999197Y-56600540D01*
X169999998Y-56600499D01*
X170000008Y-56600499D01*
X170102797Y-56589999D01*
X170269334Y-56534814D01*
X170418656Y-56442712D01*
X170542712Y-56318656D01*
X170634814Y-56169334D01*
X170689999Y-56002797D01*
X170700500Y-55900009D01*
X170700499Y-55099992D01*
X170699691Y-55092086D01*
X170689999Y-54997203D01*
X170689998Y-54997200D01*
X170634814Y-54830666D01*
X170542712Y-54681344D01*
X170449049Y-54587681D01*
X170415564Y-54526358D01*
X170420548Y-54456666D01*
X170449049Y-54412319D01*
X170464986Y-54396382D01*
X170542712Y-54318656D01*
X170634814Y-54169334D01*
X170689999Y-54002797D01*
X170700500Y-53900009D01*
X170700499Y-53099992D01*
X170689999Y-52997203D01*
X170634814Y-52830666D01*
X170542712Y-52681344D01*
X170418656Y-52557288D01*
X170269334Y-52465186D01*
X170102797Y-52410001D01*
X170102795Y-52410000D01*
X169999990Y-52399497D01*
X169999169Y-52399456D01*
X169998999Y-52399396D01*
X169996868Y-52399179D01*
X169996920Y-52398668D01*
X169933222Y-52376375D01*
X169890223Y-52321304D01*
X169881500Y-52275618D01*
X169881500Y-45949777D01*
X169881500Y-45949775D01*
X169855501Y-45852746D01*
X169805276Y-45765753D01*
X169734247Y-45694724D01*
X160921518Y-36881995D01*
X166199500Y-36881995D01*
X166199500Y-37118004D01*
X166199501Y-37118020D01*
X166216876Y-37250000D01*
X166230307Y-37352014D01*
X166271434Y-37505500D01*
X166291394Y-37579993D01*
X166381714Y-37798045D01*
X166381719Y-37798056D01*
X166452677Y-37920957D01*
X166499727Y-38002450D01*
X166499729Y-38002453D01*
X166499730Y-38002454D01*
X166643406Y-38189697D01*
X166643412Y-38189704D01*
X166810295Y-38356587D01*
X166810301Y-38356592D01*
X166997550Y-38500273D01*
X167128918Y-38576118D01*
X167201943Y-38618280D01*
X167201948Y-38618282D01*
X167201951Y-38618284D01*
X167420007Y-38708606D01*
X167647986Y-38769693D01*
X167881989Y-38800500D01*
X167881996Y-38800500D01*
X168118004Y-38800500D01*
X168118011Y-38800500D01*
X168352014Y-38769693D01*
X168579993Y-38708606D01*
X168798049Y-38618284D01*
X169002450Y-38500273D01*
X169189699Y-38356592D01*
X169356592Y-38189699D01*
X169500273Y-38002450D01*
X169618284Y-37798049D01*
X169708606Y-37579993D01*
X169769693Y-37352014D01*
X169800500Y-37118011D01*
X169800500Y-36881989D01*
X169769693Y-36647986D01*
X169708606Y-36420007D01*
X169618284Y-36201951D01*
X169618282Y-36201948D01*
X169618280Y-36201943D01*
X169576118Y-36128918D01*
X169500273Y-35997550D01*
X169356592Y-35810301D01*
X169356587Y-35810295D01*
X169189704Y-35643412D01*
X169189697Y-35643406D01*
X169002454Y-35499730D01*
X169002453Y-35499729D01*
X169002450Y-35499727D01*
X168920957Y-35452677D01*
X168798056Y-35381719D01*
X168798045Y-35381714D01*
X168579993Y-35291394D01*
X168435578Y-35252698D01*
X168352014Y-35230307D01*
X168352013Y-35230306D01*
X168352010Y-35230306D01*
X168118020Y-35199501D01*
X168118017Y-35199500D01*
X168118011Y-35199500D01*
X167881989Y-35199500D01*
X167881983Y-35199500D01*
X167881979Y-35199501D01*
X167647989Y-35230306D01*
X167420006Y-35291394D01*
X167201954Y-35381714D01*
X167201943Y-35381719D01*
X166997545Y-35499730D01*
X166810302Y-35643406D01*
X166810295Y-35643412D01*
X166643412Y-35810295D01*
X166643406Y-35810302D01*
X166499730Y-35997545D01*
X166381719Y-36201943D01*
X166381714Y-36201954D01*
X166291394Y-36420006D01*
X166230306Y-36647989D01*
X166199501Y-36881979D01*
X166199500Y-36881995D01*
X160921518Y-36881995D01*
X160734247Y-36694724D01*
X160647254Y-36644499D01*
X160647255Y-36644499D01*
X160622996Y-36637999D01*
X160550225Y-36618500D01*
X160550222Y-36618500D01*
X157854500Y-36618500D01*
X157787461Y-36598815D01*
X157741706Y-36546011D01*
X157730500Y-36494500D01*
X157730500Y-35966232D01*
X157730499Y-35966228D01*
X157697816Y-35801918D01*
X157645000Y-35674410D01*
X157633704Y-35647139D01*
X157540626Y-35507837D01*
X157422162Y-35389373D01*
X157282860Y-35296295D01*
X157128082Y-35232184D01*
X157128074Y-35232182D01*
X156963771Y-35199500D01*
X156963767Y-35199500D01*
X156796233Y-35199500D01*
X156796228Y-35199500D01*
X156631925Y-35232182D01*
X156631917Y-35232184D01*
X156477139Y-35296295D01*
X156337837Y-35389373D01*
X156219376Y-35507834D01*
X156219371Y-35507840D01*
X156218101Y-35509742D01*
X156217178Y-35510513D01*
X156215510Y-35512546D01*
X156215124Y-35512229D01*
X156164489Y-35554546D01*
X156095163Y-35563253D01*
X156032136Y-35533098D01*
X156011899Y-35509742D01*
X156010628Y-35507840D01*
X156010623Y-35507834D01*
X155892165Y-35389376D01*
X155892161Y-35389373D01*
X155764511Y-35304080D01*
X155719706Y-35250468D01*
X155713627Y-35233072D01*
X155705502Y-35202747D01*
X155661722Y-35126918D01*
X155655276Y-35115753D01*
X155584247Y-35044724D01*
X155584246Y-35044723D01*
X155579916Y-35040393D01*
X155579905Y-35040383D01*
X155290733Y-34751211D01*
X155257248Y-34689888D01*
X155255194Y-34649646D01*
X155272055Y-34500002D01*
X155272055Y-34499996D01*
X155252698Y-34328204D01*
X155252698Y-34328202D01*
X155195598Y-34165018D01*
X155103617Y-34018632D01*
X154981368Y-33896383D01*
X154981367Y-33896382D01*
X154834983Y-33804402D01*
X154671795Y-33747301D01*
X154671076Y-33747220D01*
X154670642Y-33747037D01*
X154665009Y-33745752D01*
X154665234Y-33744765D01*
X154606662Y-33720154D01*
X154567107Y-33662559D01*
X154564969Y-33592722D01*
X154600927Y-33532816D01*
X154663564Y-33501860D01*
X154684959Y-33500000D01*
X171876000Y-33500000D01*
X171943039Y-33519685D01*
X171988794Y-33572489D01*
X172000000Y-33624000D01*
X172000000Y-119876000D01*
X171980315Y-119943039D01*
X171927511Y-119988794D01*
X171876000Y-120000000D01*
X115124000Y-120000000D01*
X115056961Y-119980315D01*
X115011206Y-119927511D01*
X115000000Y-119876000D01*
X115000000Y-116381995D01*
X117199500Y-116381995D01*
X117199500Y-116618004D01*
X117199501Y-116618020D01*
X117230306Y-116852010D01*
X117291394Y-117079993D01*
X117381714Y-117298045D01*
X117381719Y-117298056D01*
X117452677Y-117420957D01*
X117499727Y-117502450D01*
X117499729Y-117502453D01*
X117499730Y-117502454D01*
X117643406Y-117689697D01*
X117643412Y-117689704D01*
X117810295Y-117856587D01*
X117810301Y-117856592D01*
X117997550Y-118000273D01*
X118128918Y-118076118D01*
X118201943Y-118118280D01*
X118201948Y-118118282D01*
X118201951Y-118118284D01*
X118420007Y-118208606D01*
X118647986Y-118269693D01*
X118881989Y-118300500D01*
X118881996Y-118300500D01*
X119118004Y-118300500D01*
X119118011Y-118300500D01*
X119352014Y-118269693D01*
X119579993Y-118208606D01*
X119798049Y-118118284D01*
X120002450Y-118000273D01*
X120189699Y-117856592D01*
X120356592Y-117689699D01*
X120500273Y-117502450D01*
X120560780Y-117397648D01*
X140699500Y-117397648D01*
X140699500Y-117602351D01*
X140731522Y-117804534D01*
X140794781Y-117999223D01*
X140887715Y-118181613D01*
X141008028Y-118347213D01*
X141152786Y-118491971D01*
X141307749Y-118604556D01*
X141318390Y-118612287D01*
X141434607Y-118671503D01*
X141500776Y-118705218D01*
X141500778Y-118705218D01*
X141500781Y-118705220D01*
X141605137Y-118739127D01*
X141695465Y-118768477D01*
X141796557Y-118784488D01*
X141897648Y-118800500D01*
X141897649Y-118800500D01*
X142102351Y-118800500D01*
X142102352Y-118800500D01*
X142304534Y-118768477D01*
X142499219Y-118705220D01*
X142681610Y-118612287D01*
X142774590Y-118544732D01*
X142847213Y-118491971D01*
X142847215Y-118491968D01*
X142847219Y-118491966D01*
X142991966Y-118347219D01*
X142991968Y-118347215D01*
X142991971Y-118347213D01*
X143092674Y-118208605D01*
X143112287Y-118181610D01*
X143205220Y-117999219D01*
X143268477Y-117804534D01*
X143300500Y-117602352D01*
X143300500Y-117397648D01*
X152699500Y-117397648D01*
X152699500Y-117602351D01*
X152731522Y-117804534D01*
X152794781Y-117999223D01*
X152887715Y-118181613D01*
X153008028Y-118347213D01*
X153152786Y-118491971D01*
X153307749Y-118604556D01*
X153318390Y-118612287D01*
X153434607Y-118671503D01*
X153500776Y-118705218D01*
X153500778Y-118705218D01*
X153500781Y-118705220D01*
X153605137Y-118739127D01*
X153695465Y-118768477D01*
X153796557Y-118784488D01*
X153897648Y-118800500D01*
X153897649Y-118800500D01*
X154102351Y-118800500D01*
X154102352Y-118800500D01*
X154304534Y-118768477D01*
X154499219Y-118705220D01*
X154681610Y-118612287D01*
X154774590Y-118544732D01*
X154847213Y-118491971D01*
X154847215Y-118491968D01*
X154847219Y-118491966D01*
X154991966Y-118347219D01*
X154991968Y-118347215D01*
X154991971Y-118347213D01*
X155092674Y-118208605D01*
X155112287Y-118181610D01*
X155205220Y-117999219D01*
X155268477Y-117804534D01*
X155300500Y-117602352D01*
X155300500Y-117397648D01*
X155268477Y-117195466D01*
X155205220Y-117000781D01*
X155205218Y-117000778D01*
X155205218Y-117000776D01*
X155129417Y-116852010D01*
X155112287Y-116818390D01*
X155104556Y-116807749D01*
X154991971Y-116652786D01*
X154847213Y-116508028D01*
X154681613Y-116387715D01*
X154681612Y-116387714D01*
X154681610Y-116387713D01*
X154670388Y-116381995D01*
X166699500Y-116381995D01*
X166699500Y-116618004D01*
X166699501Y-116618020D01*
X166730306Y-116852010D01*
X166791394Y-117079993D01*
X166881714Y-117298045D01*
X166881719Y-117298056D01*
X166952677Y-117420957D01*
X166999727Y-117502450D01*
X166999729Y-117502453D01*
X166999730Y-117502454D01*
X167143406Y-117689697D01*
X167143412Y-117689704D01*
X167310295Y-117856587D01*
X167310301Y-117856592D01*
X167497550Y-118000273D01*
X167628918Y-118076118D01*
X167701943Y-118118280D01*
X167701948Y-118118282D01*
X167701951Y-118118284D01*
X167920007Y-118208606D01*
X168147986Y-118269693D01*
X168381989Y-118300500D01*
X168381996Y-118300500D01*
X168618004Y-118300500D01*
X168618011Y-118300500D01*
X168852014Y-118269693D01*
X169079993Y-118208606D01*
X169298049Y-118118284D01*
X169502450Y-118000273D01*
X169689699Y-117856592D01*
X169856592Y-117689699D01*
X170000273Y-117502450D01*
X170118284Y-117298049D01*
X170208606Y-117079993D01*
X170269693Y-116852014D01*
X170300500Y-116618011D01*
X170300500Y-116381989D01*
X170269693Y-116147986D01*
X170208606Y-115920007D01*
X170118284Y-115701951D01*
X170118282Y-115701948D01*
X170118280Y-115701943D01*
X170076118Y-115628918D01*
X170000273Y-115497550D01*
X169856592Y-115310301D01*
X169856587Y-115310295D01*
X169689704Y-115143412D01*
X169689697Y-115143406D01*
X169502454Y-114999730D01*
X169502453Y-114999729D01*
X169502450Y-114999727D01*
X169420957Y-114952677D01*
X169298056Y-114881719D01*
X169298045Y-114881714D01*
X169079993Y-114791394D01*
X168852010Y-114730306D01*
X168618020Y-114699501D01*
X168618017Y-114699500D01*
X168618011Y-114699500D01*
X168381989Y-114699500D01*
X168381983Y-114699500D01*
X168381979Y-114699501D01*
X168147989Y-114730306D01*
X167920006Y-114791394D01*
X167701954Y-114881714D01*
X167701943Y-114881719D01*
X167497545Y-114999730D01*
X167310302Y-115143406D01*
X167310295Y-115143412D01*
X167143412Y-115310295D01*
X167143406Y-115310302D01*
X166999730Y-115497545D01*
X166881719Y-115701943D01*
X166881714Y-115701954D01*
X166791394Y-115920006D01*
X166730306Y-116147989D01*
X166699501Y-116381979D01*
X166699500Y-116381995D01*
X154670388Y-116381995D01*
X154624653Y-116358691D01*
X154499223Y-116294781D01*
X154304534Y-116231522D01*
X154129995Y-116203878D01*
X154102352Y-116199500D01*
X153897648Y-116199500D01*
X153873329Y-116203351D01*
X153695465Y-116231522D01*
X153500776Y-116294781D01*
X153318386Y-116387715D01*
X153152786Y-116508028D01*
X153008028Y-116652786D01*
X152887715Y-116818386D01*
X152794781Y-117000776D01*
X152731522Y-117195465D01*
X152699500Y-117397648D01*
X143300500Y-117397648D01*
X143268477Y-117195466D01*
X143205220Y-117000781D01*
X143205218Y-117000778D01*
X143205218Y-117000776D01*
X143129417Y-116852010D01*
X143112287Y-116818390D01*
X143104556Y-116807749D01*
X142991971Y-116652786D01*
X142847213Y-116508028D01*
X142681613Y-116387715D01*
X142681612Y-116387714D01*
X142681610Y-116387713D01*
X142624653Y-116358691D01*
X142499223Y-116294781D01*
X142304534Y-116231522D01*
X142129995Y-116203878D01*
X142102352Y-116199500D01*
X141897648Y-116199500D01*
X141873329Y-116203351D01*
X141695465Y-116231522D01*
X141500776Y-116294781D01*
X141318386Y-116387715D01*
X141152786Y-116508028D01*
X141008028Y-116652786D01*
X140887715Y-116818386D01*
X140794781Y-117000776D01*
X140731522Y-117195465D01*
X140699500Y-117397648D01*
X120560780Y-117397648D01*
X120618284Y-117298049D01*
X120708606Y-117079993D01*
X120769693Y-116852014D01*
X120800500Y-116618011D01*
X120800500Y-116381989D01*
X120769693Y-116147986D01*
X120708606Y-115920007D01*
X120618284Y-115701951D01*
X120618282Y-115701948D01*
X120618280Y-115701943D01*
X120576118Y-115628918D01*
X120500273Y-115497550D01*
X120356592Y-115310301D01*
X120356587Y-115310295D01*
X120189704Y-115143412D01*
X120189697Y-115143406D01*
X120002454Y-114999730D01*
X120002453Y-114999729D01*
X120002450Y-114999727D01*
X119920957Y-114952677D01*
X119798056Y-114881719D01*
X119798045Y-114881714D01*
X119579993Y-114791394D01*
X119352010Y-114730306D01*
X119118020Y-114699501D01*
X119118017Y-114699500D01*
X119118011Y-114699500D01*
X118881989Y-114699500D01*
X118881983Y-114699500D01*
X118881979Y-114699501D01*
X118647989Y-114730306D01*
X118420006Y-114791394D01*
X118201954Y-114881714D01*
X118201943Y-114881719D01*
X117997545Y-114999730D01*
X117810302Y-115143406D01*
X117810295Y-115143412D01*
X117643412Y-115310295D01*
X117643406Y-115310302D01*
X117499730Y-115497545D01*
X117381719Y-115701943D01*
X117381714Y-115701954D01*
X117291394Y-115920006D01*
X117230306Y-116147989D01*
X117199501Y-116381979D01*
X117199500Y-116381995D01*
X115000000Y-116381995D01*
X115000000Y-110251298D01*
X120799500Y-110251298D01*
X120799500Y-111048703D01*
X120814696Y-111164142D01*
X120814699Y-111164151D01*
X120874093Y-111307541D01*
X120874200Y-111307798D01*
X120968851Y-111431149D01*
X121092202Y-111525800D01*
X121235849Y-111585301D01*
X121351299Y-111600500D01*
X122748700Y-111600499D01*
X122748703Y-111600499D01*
X122864142Y-111585303D01*
X122864146Y-111585301D01*
X122864151Y-111585301D01*
X123007798Y-111525800D01*
X123131149Y-111431149D01*
X123225800Y-111307798D01*
X123285301Y-111164151D01*
X123300500Y-111048701D01*
X123300500Y-111048670D01*
X125700000Y-111048670D01*
X125715185Y-111164019D01*
X125715187Y-111164024D01*
X125774633Y-111307541D01*
X125774633Y-111307542D01*
X125869207Y-111430792D01*
X125992458Y-111525366D01*
X126135975Y-111584812D01*
X126135980Y-111584814D01*
X126251329Y-111600000D01*
X126700000Y-111600000D01*
X127200000Y-111600000D01*
X127648671Y-111600000D01*
X127764019Y-111584814D01*
X127764024Y-111584812D01*
X127844889Y-111551317D01*
X133257966Y-111551317D01*
X133257966Y-111551322D01*
X133277048Y-111903274D01*
X133334073Y-112251113D01*
X133334074Y-112251116D01*
X133428366Y-112590728D01*
X133428367Y-112590730D01*
X133558828Y-112918164D01*
X133558837Y-112918182D01*
X133723935Y-113229589D01*
X133921738Y-113521326D01*
X133921745Y-113521336D01*
X134149925Y-113789969D01*
X134149926Y-113789970D01*
X134405820Y-114032366D01*
X134686422Y-114245674D01*
X134988442Y-114427394D01*
X134988446Y-114427395D01*
X134988450Y-114427398D01*
X135308328Y-114575390D01*
X135308332Y-114575390D01*
X135308339Y-114575394D01*
X135642362Y-114687939D01*
X135986595Y-114763711D01*
X136337003Y-114801820D01*
X136337009Y-114801820D01*
X136689471Y-114801820D01*
X136689477Y-114801820D01*
X137039885Y-114763711D01*
X137384118Y-114687939D01*
X137718141Y-114575394D01*
X137718148Y-114575390D01*
X137718151Y-114575390D01*
X138038029Y-114427398D01*
X138038038Y-114427394D01*
X138340058Y-114245674D01*
X138620660Y-114032366D01*
X138876554Y-113789970D01*
X139104741Y-113521328D01*
X139302545Y-113229589D01*
X139467647Y-112918174D01*
X139598111Y-112590734D01*
X139692408Y-112251108D01*
X139749431Y-111903277D01*
X139760880Y-111692102D01*
X139768514Y-111551322D01*
X139768514Y-111551317D01*
X156257966Y-111551317D01*
X156257966Y-111551322D01*
X156277048Y-111903274D01*
X156334073Y-112251113D01*
X156334074Y-112251116D01*
X156428366Y-112590728D01*
X156428367Y-112590730D01*
X156558828Y-112918164D01*
X156558837Y-112918182D01*
X156723935Y-113229589D01*
X156921738Y-113521326D01*
X156921745Y-113521336D01*
X157149925Y-113789969D01*
X157149926Y-113789970D01*
X157405820Y-114032366D01*
X157686422Y-114245674D01*
X157988442Y-114427394D01*
X157988446Y-114427395D01*
X157988450Y-114427398D01*
X158308328Y-114575390D01*
X158308332Y-114575390D01*
X158308339Y-114575394D01*
X158642362Y-114687939D01*
X158986595Y-114763711D01*
X159337003Y-114801820D01*
X159337009Y-114801820D01*
X159689471Y-114801820D01*
X159689477Y-114801820D01*
X160039885Y-114763711D01*
X160384118Y-114687939D01*
X160718141Y-114575394D01*
X160718148Y-114575390D01*
X160718151Y-114575390D01*
X161038029Y-114427398D01*
X161038038Y-114427394D01*
X161340058Y-114245674D01*
X161620660Y-114032366D01*
X161876554Y-113789970D01*
X162104741Y-113521328D01*
X162302545Y-113229589D01*
X162467647Y-112918174D01*
X162598111Y-112590734D01*
X162692408Y-112251108D01*
X162749431Y-111903277D01*
X162760880Y-111692102D01*
X162768514Y-111551322D01*
X162768514Y-111551317D01*
X162749431Y-111199365D01*
X162743657Y-111164142D01*
X162692408Y-110851532D01*
X162649944Y-110698591D01*
X162598113Y-110511911D01*
X162598112Y-110511909D01*
X162467651Y-110184475D01*
X162467642Y-110184457D01*
X162441941Y-110135980D01*
X162302545Y-109873051D01*
X162104741Y-109581312D01*
X162104737Y-109581307D01*
X162104734Y-109581303D01*
X161876554Y-109312670D01*
X161620660Y-109070274D01*
X161620653Y-109070268D01*
X161620650Y-109070266D01*
X161340055Y-108856964D01*
X161038042Y-108675248D01*
X161038029Y-108675241D01*
X160718151Y-108527249D01*
X160718146Y-108527248D01*
X160718143Y-108527247D01*
X160718141Y-108527246D01*
X160611672Y-108491372D01*
X160384120Y-108414701D01*
X160039883Y-108338928D01*
X159689478Y-108300820D01*
X159689477Y-108300820D01*
X159337003Y-108300820D01*
X159337001Y-108300820D01*
X158986596Y-108338928D01*
X158642359Y-108414701D01*
X158308333Y-108527248D01*
X158308328Y-108527249D01*
X157988450Y-108675241D01*
X157988437Y-108675248D01*
X157686424Y-108856964D01*
X157405829Y-109070266D01*
X157405820Y-109070274D01*
X157149925Y-109312670D01*
X156921745Y-109581303D01*
X156921738Y-109581313D01*
X156723935Y-109873050D01*
X156558837Y-110184457D01*
X156558828Y-110184475D01*
X156428367Y-110511909D01*
X156428366Y-110511911D01*
X156334074Y-110851523D01*
X156334073Y-110851526D01*
X156277048Y-111199365D01*
X156257966Y-111551317D01*
X139768514Y-111551317D01*
X139749431Y-111199365D01*
X139743657Y-111164142D01*
X139692408Y-110851532D01*
X139649944Y-110698591D01*
X139598113Y-110511911D01*
X139598112Y-110511909D01*
X139467651Y-110184475D01*
X139467642Y-110184457D01*
X139441941Y-110135980D01*
X139302545Y-109873051D01*
X139104741Y-109581312D01*
X139104737Y-109581307D01*
X139104734Y-109581303D01*
X138876554Y-109312670D01*
X138620660Y-109070274D01*
X138620653Y-109070268D01*
X138620650Y-109070266D01*
X138340055Y-108856964D01*
X138038042Y-108675248D01*
X138038029Y-108675241D01*
X137718151Y-108527249D01*
X137718146Y-108527248D01*
X137718143Y-108527247D01*
X137718141Y-108527246D01*
X137611672Y-108491372D01*
X137384120Y-108414701D01*
X137039883Y-108338928D01*
X136689478Y-108300820D01*
X136689477Y-108300820D01*
X136337003Y-108300820D01*
X136337001Y-108300820D01*
X135986596Y-108338928D01*
X135642359Y-108414701D01*
X135308333Y-108527248D01*
X135308328Y-108527249D01*
X134988450Y-108675241D01*
X134988437Y-108675248D01*
X134686424Y-108856964D01*
X134405829Y-109070266D01*
X134405820Y-109070274D01*
X134149925Y-109312670D01*
X133921745Y-109581303D01*
X133921738Y-109581313D01*
X133723935Y-109873050D01*
X133558837Y-110184457D01*
X133558828Y-110184475D01*
X133428367Y-110511909D01*
X133428366Y-110511911D01*
X133334074Y-110851523D01*
X133334073Y-110851526D01*
X133277048Y-111199365D01*
X133257966Y-111551317D01*
X127844889Y-111551317D01*
X127907541Y-111525366D01*
X127907542Y-111525366D01*
X128030792Y-111430792D01*
X128125366Y-111307542D01*
X128125366Y-111307541D01*
X128184812Y-111164024D01*
X128184814Y-111164019D01*
X128200000Y-111048670D01*
X128200000Y-110900000D01*
X127200000Y-110900000D01*
X127200000Y-111600000D01*
X126700000Y-111600000D01*
X126700000Y-110900000D01*
X125700000Y-110900000D01*
X125700000Y-111048670D01*
X123300500Y-111048670D01*
X123300499Y-110251329D01*
X125700000Y-110251329D01*
X125700000Y-110400000D01*
X126700000Y-110400000D01*
X127200000Y-110400000D01*
X128200000Y-110400000D01*
X128200000Y-110251329D01*
X128184814Y-110135980D01*
X128184812Y-110135975D01*
X128125366Y-109992458D01*
X128125366Y-109992457D01*
X128030792Y-109869207D01*
X127907541Y-109774633D01*
X127764024Y-109715187D01*
X127764019Y-109715185D01*
X127648671Y-109700000D01*
X127200000Y-109700000D01*
X127200000Y-110400000D01*
X126700000Y-110400000D01*
X126700000Y-109700000D01*
X126251329Y-109700000D01*
X126135980Y-109715185D01*
X126135975Y-109715187D01*
X125992458Y-109774633D01*
X125992457Y-109774633D01*
X125869207Y-109869207D01*
X125774633Y-109992457D01*
X125774633Y-109992458D01*
X125715187Y-110135975D01*
X125715185Y-110135980D01*
X125700000Y-110251329D01*
X123300499Y-110251329D01*
X123300499Y-110251300D01*
X123300499Y-110251298D01*
X123300499Y-110251296D01*
X123285303Y-110135857D01*
X123285301Y-110135850D01*
X123285301Y-110135849D01*
X123225800Y-109992202D01*
X123131149Y-109868851D01*
X123007798Y-109774200D01*
X123007794Y-109774198D01*
X122864151Y-109714699D01*
X122864149Y-109714698D01*
X122748701Y-109699500D01*
X121351296Y-109699500D01*
X121235857Y-109714696D01*
X121235848Y-109714699D01*
X121092205Y-109774198D01*
X120968851Y-109868851D01*
X120874198Y-109992205D01*
X120814699Y-110135848D01*
X120814698Y-110135850D01*
X120799500Y-110251298D01*
X115000000Y-110251298D01*
X115000000Y-107988535D01*
X116455000Y-107988535D01*
X116461489Y-108059945D01*
X116512692Y-108224264D01*
X116601738Y-108371563D01*
X116723436Y-108493261D01*
X116870736Y-108582307D01*
X116870735Y-108582307D01*
X117035055Y-108633510D01*
X117035053Y-108633510D01*
X117106465Y-108640000D01*
X117122500Y-108640000D01*
X117122500Y-107750000D01*
X116455000Y-107750000D01*
X116455000Y-107988535D01*
X115000000Y-107988535D01*
X115000000Y-107011464D01*
X116455000Y-107011464D01*
X116455000Y-107250000D01*
X117122500Y-107250000D01*
X117122500Y-106360000D01*
X117106465Y-106360000D01*
X117035054Y-106366489D01*
X116870735Y-106417692D01*
X116723436Y-106506738D01*
X116601738Y-106628436D01*
X116512692Y-106775735D01*
X116461489Y-106940054D01*
X116455000Y-107011464D01*
X115000000Y-107011464D01*
X115000000Y-99488535D01*
X116327500Y-99488535D01*
X116333989Y-99559945D01*
X116385192Y-99724264D01*
X116474238Y-99871563D01*
X116595936Y-99993261D01*
X116743236Y-100082307D01*
X116743235Y-100082307D01*
X116907555Y-100133510D01*
X116907553Y-100133510D01*
X116978965Y-100140000D01*
X116995000Y-100140000D01*
X116995000Y-99250000D01*
X116327500Y-99250000D01*
X116327500Y-99488535D01*
X115000000Y-99488535D01*
X115000000Y-98511464D01*
X116327500Y-98511464D01*
X116327500Y-98750000D01*
X116995000Y-98750000D01*
X116995000Y-97860000D01*
X116978965Y-97860000D01*
X116907554Y-97866489D01*
X116743235Y-97917692D01*
X116595936Y-98006738D01*
X116474238Y-98128436D01*
X116385192Y-98275735D01*
X116333989Y-98440054D01*
X116327500Y-98511464D01*
X115000000Y-98511464D01*
X115000000Y-91488535D01*
X116455000Y-91488535D01*
X116461489Y-91559945D01*
X116512692Y-91724264D01*
X116601738Y-91871563D01*
X116723436Y-91993261D01*
X116870736Y-92082307D01*
X116870735Y-92082307D01*
X117035055Y-92133510D01*
X117035053Y-92133510D01*
X117106465Y-92140000D01*
X117122500Y-92140000D01*
X117122500Y-91250000D01*
X116455000Y-91250000D01*
X116455000Y-91488535D01*
X115000000Y-91488535D01*
X115000000Y-90511464D01*
X116455000Y-90511464D01*
X116455000Y-90750000D01*
X117122500Y-90750000D01*
X117122500Y-89860000D01*
X117106465Y-89860000D01*
X117035054Y-89866489D01*
X116870735Y-89917692D01*
X116723436Y-90006738D01*
X116601738Y-90128436D01*
X116512692Y-90275735D01*
X116461489Y-90440054D01*
X116455000Y-90511464D01*
X115000000Y-90511464D01*
X115000000Y-75449775D01*
X116118500Y-75449775D01*
X116118500Y-78949775D01*
X116118500Y-82900225D01*
X116123665Y-82919500D01*
X116144499Y-82997255D01*
X116144500Y-82997256D01*
X116161411Y-83026548D01*
X116161413Y-83026550D01*
X116171199Y-83043500D01*
X116194721Y-83084243D01*
X116194723Y-83084246D01*
X116194724Y-83084247D01*
X116840753Y-83730276D01*
X116927747Y-83780502D01*
X117024775Y-83806501D01*
X117024778Y-83806501D01*
X117132821Y-83806501D01*
X117132837Y-83806500D01*
X117762596Y-83806500D01*
X117829635Y-83826185D01*
X117875390Y-83878989D01*
X117878779Y-83887171D01*
X117880701Y-83892327D01*
X117880706Y-83892335D01*
X117966952Y-84007544D01*
X117966955Y-84007547D01*
X118082164Y-84093793D01*
X118082171Y-84093797D01*
X118217017Y-84144091D01*
X118217016Y-84144091D01*
X118223944Y-84144835D01*
X118276627Y-84150500D01*
X119847372Y-84150499D01*
X119906983Y-84144091D01*
X120041831Y-84093796D01*
X120157046Y-84007546D01*
X120243296Y-83892331D01*
X120293591Y-83757483D01*
X120300000Y-83697873D01*
X120299999Y-83152128D01*
X120299998Y-83152111D01*
X120295820Y-83113253D01*
X120295820Y-83086747D01*
X120300000Y-83047873D01*
X120299999Y-82502128D01*
X120299999Y-82502127D01*
X120299998Y-82502111D01*
X120295820Y-82463253D01*
X120295820Y-82436745D01*
X120300000Y-82397873D01*
X120299999Y-81852128D01*
X120299999Y-81852127D01*
X120299998Y-81852111D01*
X120295820Y-81813253D01*
X120295820Y-81786745D01*
X120300000Y-81747873D01*
X120299999Y-81202128D01*
X120299999Y-81202127D01*
X120299998Y-81202111D01*
X120295820Y-81163253D01*
X120295820Y-81136745D01*
X120300000Y-81097873D01*
X120299999Y-80552128D01*
X120299999Y-80552127D01*
X120299998Y-80552111D01*
X120295820Y-80513253D01*
X120295820Y-80486745D01*
X120300000Y-80447873D01*
X120299999Y-79902128D01*
X120299999Y-79902127D01*
X120299998Y-79902111D01*
X120295820Y-79863253D01*
X120295820Y-79836745D01*
X120300000Y-79797873D01*
X120299999Y-79252128D01*
X120299999Y-79252127D01*
X120299998Y-79252111D01*
X120295820Y-79213253D01*
X120295820Y-79186745D01*
X120300000Y-79147873D01*
X120299999Y-78602128D01*
X120299999Y-78602127D01*
X120299998Y-78602111D01*
X120295820Y-78563253D01*
X120295820Y-78536745D01*
X120300000Y-78497873D01*
X120299999Y-77952128D01*
X120299999Y-77952127D01*
X120299998Y-77952111D01*
X120295820Y-77913253D01*
X120295820Y-77886745D01*
X120300000Y-77847873D01*
X120299999Y-77302128D01*
X120293591Y-77242517D01*
X120269477Y-77177865D01*
X120243297Y-77107671D01*
X120243293Y-77107664D01*
X120185822Y-77030894D01*
X120157046Y-76992454D01*
X120143256Y-76982131D01*
X120101387Y-76926199D01*
X120096403Y-76856507D01*
X120129886Y-76795187D01*
X120611757Y-76313318D01*
X120673079Y-76279834D01*
X120742771Y-76284818D01*
X120798704Y-76326690D01*
X120804429Y-76335026D01*
X120896383Y-76481368D01*
X121018632Y-76603617D01*
X121165018Y-76695598D01*
X121328202Y-76752698D01*
X121385468Y-76759150D01*
X121499996Y-76772055D01*
X121500000Y-76772055D01*
X121500004Y-76772055D01*
X121598170Y-76760993D01*
X121671798Y-76752698D01*
X121834982Y-76695598D01*
X121981368Y-76603617D01*
X122103617Y-76481368D01*
X122195598Y-76334982D01*
X122252698Y-76171798D01*
X122265288Y-76060062D01*
X122272055Y-76000003D01*
X122272055Y-75999996D01*
X122259150Y-75885468D01*
X122252698Y-75828202D01*
X122195598Y-75665018D01*
X122178450Y-75637728D01*
X122103617Y-75518632D01*
X121981367Y-75396382D01*
X121834983Y-75304402D01*
X121671795Y-75247301D01*
X121500004Y-75227945D01*
X121499996Y-75227945D01*
X121328204Y-75247301D01*
X121165016Y-75304402D01*
X121018632Y-75396382D01*
X120896382Y-75518632D01*
X120804402Y-75665016D01*
X120787524Y-75713254D01*
X120746803Y-75770030D01*
X120681850Y-75795778D01*
X120670482Y-75796300D01*
X120596481Y-75796300D01*
X120596479Y-75796300D01*
X120596477Y-75796301D01*
X120521615Y-75827308D01*
X119535742Y-76813181D01*
X119474419Y-76846666D01*
X119448061Y-76849500D01*
X118276629Y-76849500D01*
X118276623Y-76849501D01*
X118217016Y-76855908D01*
X118082171Y-76906202D01*
X118082164Y-76906206D01*
X117966955Y-76992452D01*
X117966952Y-76992455D01*
X117880706Y-77107664D01*
X117880702Y-77107671D01*
X117836790Y-77225408D01*
X117830409Y-77242517D01*
X117824000Y-77302127D01*
X117824000Y-77569367D01*
X117824001Y-77719500D01*
X117804317Y-77786539D01*
X117751513Y-77832294D01*
X117700001Y-77843500D01*
X117332837Y-77843500D01*
X117332821Y-77843499D01*
X117325225Y-77843499D01*
X117224775Y-77843499D01*
X117127747Y-77869498D01*
X117090979Y-77890726D01*
X117090977Y-77890726D01*
X117090977Y-77890727D01*
X117067498Y-77904282D01*
X116999597Y-77920753D01*
X116933571Y-77897900D01*
X116890381Y-77842978D01*
X116881500Y-77796894D01*
X116881500Y-75896055D01*
X116901185Y-75829016D01*
X116953989Y-75783261D01*
X116993292Y-75774710D01*
X116993081Y-75772835D01*
X117091610Y-75761732D01*
X117171798Y-75752698D01*
X117334982Y-75695598D01*
X117481368Y-75603617D01*
X117603617Y-75481368D01*
X117695598Y-75334982D01*
X117752698Y-75171798D01*
X117769195Y-75025381D01*
X117772055Y-75000003D01*
X117772055Y-74999996D01*
X117759150Y-74885468D01*
X117752698Y-74828202D01*
X117695598Y-74665018D01*
X117649673Y-74591930D01*
X117603617Y-74518632D01*
X117481367Y-74396382D01*
X117334983Y-74304402D01*
X117171795Y-74247301D01*
X117000004Y-74227945D01*
X116999996Y-74227945D01*
X116828204Y-74247301D01*
X116665016Y-74304402D01*
X116518632Y-74396382D01*
X116396382Y-74518632D01*
X116304402Y-74665016D01*
X116247301Y-74828204D01*
X116227945Y-74999996D01*
X116227945Y-75000003D01*
X116244805Y-75149645D01*
X116232750Y-75218467D01*
X116209268Y-75251207D01*
X116194725Y-75265749D01*
X116144499Y-75352745D01*
X116144499Y-75352746D01*
X116118500Y-75449775D01*
X115000000Y-75449775D01*
X115000000Y-69999986D01*
X118900001Y-69999986D01*
X118910494Y-70102697D01*
X118965641Y-70269119D01*
X118965643Y-70269124D01*
X119057684Y-70418345D01*
X119181654Y-70542315D01*
X119330875Y-70634356D01*
X119330880Y-70634358D01*
X119497302Y-70689505D01*
X119497309Y-70689506D01*
X119600019Y-70699999D01*
X119724999Y-70699999D01*
X119725000Y-70699998D01*
X119725000Y-69750000D01*
X118900001Y-69750000D01*
X118900001Y-69999986D01*
X115000000Y-69999986D01*
X115000000Y-69000013D01*
X118900000Y-69000013D01*
X118900000Y-69250000D01*
X119725000Y-69250000D01*
X119725000Y-68300000D01*
X119600027Y-68300000D01*
X119600012Y-68300001D01*
X119497302Y-68310494D01*
X119330880Y-68365641D01*
X119330875Y-68365643D01*
X119181654Y-68457684D01*
X119057684Y-68581654D01*
X118965643Y-68730875D01*
X118965641Y-68730880D01*
X118910494Y-68897302D01*
X118910493Y-68897309D01*
X118900000Y-69000013D01*
X115000000Y-69000013D01*
X115000000Y-36881995D01*
X116699500Y-36881995D01*
X116699500Y-37118004D01*
X116699501Y-37118020D01*
X116716876Y-37250000D01*
X116730307Y-37352014D01*
X116771434Y-37505500D01*
X116791394Y-37579993D01*
X116881714Y-37798045D01*
X116881719Y-37798056D01*
X116952677Y-37920957D01*
X116999727Y-38002450D01*
X116999729Y-38002453D01*
X116999730Y-38002454D01*
X117143406Y-38189697D01*
X117143412Y-38189704D01*
X117310295Y-38356587D01*
X117310301Y-38356592D01*
X117497550Y-38500273D01*
X117628918Y-38576118D01*
X117701943Y-38618280D01*
X117701948Y-38618282D01*
X117701951Y-38618284D01*
X117920007Y-38708606D01*
X118147986Y-38769693D01*
X118381989Y-38800500D01*
X118381996Y-38800500D01*
X118618004Y-38800500D01*
X118618011Y-38800500D01*
X118852014Y-38769693D01*
X119079993Y-38708606D01*
X119298049Y-38618284D01*
X119502450Y-38500273D01*
X119689699Y-38356592D01*
X119856592Y-38189699D01*
X119976277Y-38033722D01*
X139200000Y-38033722D01*
X139232663Y-38197928D01*
X139232665Y-38197936D01*
X139296740Y-38352627D01*
X139296740Y-38352628D01*
X139389758Y-38491839D01*
X139389764Y-38491847D01*
X139508152Y-38610235D01*
X139508160Y-38610241D01*
X139647372Y-38703259D01*
X139799999Y-38766479D01*
X139800000Y-38766479D01*
X139800000Y-37250000D01*
X139200000Y-37250000D01*
X139200000Y-38033722D01*
X119976277Y-38033722D01*
X120000273Y-38002450D01*
X120118284Y-37798049D01*
X120208606Y-37579993D01*
X120269693Y-37352014D01*
X120300500Y-37118011D01*
X120300500Y-36881989D01*
X120269693Y-36647986D01*
X120208606Y-36420007D01*
X120118284Y-36201951D01*
X120118282Y-36201948D01*
X120118280Y-36201943D01*
X120076118Y-36128918D01*
X120000273Y-35997550D01*
X119976276Y-35966277D01*
X139200000Y-35966277D01*
X139200000Y-36750000D01*
X139800000Y-36750000D01*
X139800000Y-35233519D01*
X139647377Y-35296738D01*
X139647367Y-35296743D01*
X139508155Y-35389761D01*
X139389764Y-35508152D01*
X139389758Y-35508160D01*
X139296740Y-35647371D01*
X139296740Y-35647372D01*
X139232665Y-35802063D01*
X139232663Y-35802071D01*
X139200000Y-35966277D01*
X119976276Y-35966277D01*
X119856592Y-35810301D01*
X119856587Y-35810295D01*
X119689704Y-35643412D01*
X119689697Y-35643406D01*
X119502454Y-35499730D01*
X119502453Y-35499729D01*
X119502450Y-35499727D01*
X119420957Y-35452677D01*
X119298056Y-35381719D01*
X119298045Y-35381714D01*
X119079993Y-35291394D01*
X118935578Y-35252698D01*
X118852014Y-35230307D01*
X118852013Y-35230306D01*
X118852010Y-35230306D01*
X118618020Y-35199501D01*
X118618017Y-35199500D01*
X118618011Y-35199500D01*
X118381989Y-35199500D01*
X118381983Y-35199500D01*
X118381979Y-35199501D01*
X118147989Y-35230306D01*
X117920006Y-35291394D01*
X117701954Y-35381714D01*
X117701943Y-35381719D01*
X117497545Y-35499730D01*
X117310302Y-35643406D01*
X117310295Y-35643412D01*
X117143412Y-35810295D01*
X117143406Y-35810302D01*
X116999730Y-35997545D01*
X116881719Y-36201943D01*
X116881714Y-36201954D01*
X116791394Y-36420006D01*
X116730306Y-36647989D01*
X116699501Y-36881979D01*
X116699500Y-36881995D01*
X115000000Y-36881995D01*
X115000000Y-33624000D01*
X115019685Y-33556961D01*
X115072489Y-33511206D01*
X115124000Y-33500000D01*
X142315041Y-33500000D01*
X142382080Y-33519685D01*
G37*
%TD.AperFunction*%
%TA.AperFunction,Conductor*%
G36*
X154382080Y-33519685D02*
G01*
X154427835Y-33572489D01*
X154437779Y-33641647D01*
X154408754Y-33705203D01*
X154349976Y-33742977D01*
X154328924Y-33747220D01*
X154328204Y-33747301D01*
X154165016Y-33804402D01*
X154018632Y-33896382D01*
X153896382Y-34018632D01*
X153804402Y-34165016D01*
X153747301Y-34328204D01*
X153727945Y-34499996D01*
X153727945Y-34500003D01*
X153747301Y-34671795D01*
X153804402Y-34834983D01*
X153896382Y-34981367D01*
X153902834Y-34987819D01*
X153936319Y-35049142D01*
X153931335Y-35118834D01*
X153889463Y-35174767D01*
X153823999Y-35199184D01*
X153815153Y-35199500D01*
X153736228Y-35199500D01*
X153571925Y-35232182D01*
X153571917Y-35232184D01*
X153417139Y-35296295D01*
X153277837Y-35389373D01*
X153159376Y-35507834D01*
X153159371Y-35507840D01*
X153158101Y-35509742D01*
X153157178Y-35510513D01*
X153155510Y-35512546D01*
X153155124Y-35512229D01*
X153104489Y-35554546D01*
X153035163Y-35563253D01*
X152972136Y-35533098D01*
X152951899Y-35509742D01*
X152950628Y-35507840D01*
X152950623Y-35507834D01*
X152832162Y-35389373D01*
X152692860Y-35296295D01*
X152538082Y-35232184D01*
X152538074Y-35232182D01*
X152373771Y-35199500D01*
X152373767Y-35199500D01*
X152206233Y-35199500D01*
X152206228Y-35199500D01*
X152041925Y-35232182D01*
X152041917Y-35232184D01*
X151887139Y-35296295D01*
X151747837Y-35389373D01*
X151629376Y-35507834D01*
X151629371Y-35507840D01*
X151628101Y-35509742D01*
X151627178Y-35510513D01*
X151625510Y-35512546D01*
X151625124Y-35512229D01*
X151574489Y-35554546D01*
X151505163Y-35563253D01*
X151442136Y-35533098D01*
X151421899Y-35509742D01*
X151420628Y-35507840D01*
X151420623Y-35507834D01*
X151302162Y-35389373D01*
X151162860Y-35296295D01*
X151008082Y-35232184D01*
X151008074Y-35232182D01*
X150843771Y-35199500D01*
X150843767Y-35199500D01*
X150676233Y-35199500D01*
X150676228Y-35199500D01*
X150511925Y-35232182D01*
X150511917Y-35232184D01*
X150357139Y-35296295D01*
X150217837Y-35389373D01*
X150099376Y-35507834D01*
X150099367Y-35507845D01*
X150097794Y-35510200D01*
X150096652Y-35511153D01*
X150095510Y-35512546D01*
X150095245Y-35512329D01*
X150044177Y-35555000D01*
X149974851Y-35563700D01*
X149911827Y-35533539D01*
X149891594Y-35510186D01*
X149890235Y-35508152D01*
X149771844Y-35389761D01*
X149632632Y-35296743D01*
X149632622Y-35296738D01*
X149480000Y-35233519D01*
X149480000Y-38766479D01*
X149632627Y-38703259D01*
X149632628Y-38703259D01*
X149771839Y-38610241D01*
X149771847Y-38610235D01*
X149890236Y-38491846D01*
X149891590Y-38489820D01*
X149892575Y-38488996D01*
X149894102Y-38487136D01*
X149894454Y-38487425D01*
X149945197Y-38445009D01*
X150014521Y-38436295D01*
X150077552Y-38466443D01*
X150097798Y-38489805D01*
X150099370Y-38492157D01*
X150099376Y-38492165D01*
X150217837Y-38610626D01*
X150310494Y-38672537D01*
X150357137Y-38703703D01*
X150357138Y-38703703D01*
X150357139Y-38703704D01*
X150368971Y-38708605D01*
X150511918Y-38767816D01*
X150676233Y-38800500D01*
X150676238Y-38800500D01*
X150682294Y-38801097D01*
X150682070Y-38803368D01*
X150739339Y-38820185D01*
X150785094Y-38872989D01*
X150796300Y-38924500D01*
X150796300Y-72500517D01*
X150796301Y-72500522D01*
X150827308Y-72575384D01*
X150902049Y-72650125D01*
X150902055Y-72650130D01*
X154347311Y-76095386D01*
X160901291Y-82649367D01*
X160934776Y-82710690D01*
X160929792Y-82780382D01*
X160915189Y-82808166D01*
X160902467Y-82826335D01*
X160809107Y-83026548D01*
X160809106Y-83026550D01*
X160751930Y-83239929D01*
X160751929Y-83239937D01*
X160732677Y-83459997D01*
X160732677Y-83460002D01*
X160751929Y-83680062D01*
X160751930Y-83680070D01*
X160809104Y-83893445D01*
X160809105Y-83893447D01*
X160809106Y-83893450D01*
X160862142Y-84007187D01*
X160902466Y-84093662D01*
X160902468Y-84093666D01*
X161029170Y-84274615D01*
X161029175Y-84274621D01*
X161185378Y-84430824D01*
X161185384Y-84430829D01*
X161366333Y-84557531D01*
X161366335Y-84557532D01*
X161366338Y-84557534D01*
X161485748Y-84613215D01*
X161495189Y-84617618D01*
X161547628Y-84663790D01*
X161566780Y-84730984D01*
X161546564Y-84797865D01*
X161495189Y-84842382D01*
X161366340Y-84902465D01*
X161366338Y-84902466D01*
X161185377Y-85029175D01*
X161029175Y-85185377D01*
X160902466Y-85366338D01*
X160902465Y-85366340D01*
X160809107Y-85566548D01*
X160809103Y-85566557D01*
X160772171Y-85704393D01*
X160735806Y-85764054D01*
X160672959Y-85794583D01*
X160652396Y-85796300D01*
X155635737Y-85796300D01*
X155568698Y-85776615D01*
X155548056Y-85759981D01*
X147940019Y-78151944D01*
X147906534Y-78090621D01*
X147903700Y-78064263D01*
X147903700Y-38869053D01*
X147923385Y-38802014D01*
X147976189Y-38756259D01*
X147980234Y-38754497D01*
X148102863Y-38703703D01*
X148242162Y-38610626D01*
X148360626Y-38492162D01*
X148362194Y-38489814D01*
X148363335Y-38488861D01*
X148364490Y-38487454D01*
X148364756Y-38487672D01*
X148415804Y-38445007D01*
X148485129Y-38436296D01*
X148548158Y-38466447D01*
X148568403Y-38489810D01*
X148569763Y-38491846D01*
X148688152Y-38610235D01*
X148688160Y-38610241D01*
X148827372Y-38703259D01*
X148979999Y-38766479D01*
X148980000Y-38766479D01*
X148980000Y-35233519D01*
X148827377Y-35296738D01*
X148827367Y-35296743D01*
X148688155Y-35389761D01*
X148569764Y-35508152D01*
X148569759Y-35508158D01*
X148568398Y-35510196D01*
X148567409Y-35511021D01*
X148565898Y-35512864D01*
X148565548Y-35512577D01*
X148514783Y-35554998D01*
X148445458Y-35563701D01*
X148382432Y-35533543D01*
X148362199Y-35510191D01*
X148360628Y-35507840D01*
X148360623Y-35507834D01*
X148242162Y-35389373D01*
X148102860Y-35296295D01*
X147948082Y-35232184D01*
X147948074Y-35232182D01*
X147783771Y-35199500D01*
X147783767Y-35199500D01*
X147616233Y-35199500D01*
X147616228Y-35199500D01*
X147451925Y-35232182D01*
X147451917Y-35232184D01*
X147297139Y-35296295D01*
X147157837Y-35389373D01*
X147039376Y-35507834D01*
X147039371Y-35507840D01*
X147038101Y-35509742D01*
X147037178Y-35510513D01*
X147035510Y-35512546D01*
X147035124Y-35512229D01*
X146984489Y-35554546D01*
X146915163Y-35563253D01*
X146852136Y-35533098D01*
X146831899Y-35509742D01*
X146830628Y-35507840D01*
X146830623Y-35507834D01*
X146712162Y-35389373D01*
X146572860Y-35296295D01*
X146418082Y-35232184D01*
X146418074Y-35232182D01*
X146253771Y-35199500D01*
X146253767Y-35199500D01*
X146086233Y-35199500D01*
X146086228Y-35199500D01*
X145921925Y-35232182D01*
X145921917Y-35232184D01*
X145767139Y-35296295D01*
X145627837Y-35389373D01*
X145509376Y-35507834D01*
X145509371Y-35507840D01*
X145508101Y-35509742D01*
X145507178Y-35510513D01*
X145505510Y-35512546D01*
X145505124Y-35512229D01*
X145454489Y-35554546D01*
X145385163Y-35563253D01*
X145322136Y-35533098D01*
X145301899Y-35509742D01*
X145300628Y-35507840D01*
X145300623Y-35507834D01*
X145182162Y-35389373D01*
X145042860Y-35296295D01*
X144888082Y-35232184D01*
X144888074Y-35232182D01*
X144723771Y-35199500D01*
X144723767Y-35199500D01*
X144556233Y-35199500D01*
X144556228Y-35199500D01*
X144391925Y-35232182D01*
X144391917Y-35232184D01*
X144237139Y-35296295D01*
X144097837Y-35389373D01*
X143979376Y-35507834D01*
X143979371Y-35507840D01*
X143978101Y-35509742D01*
X143977178Y-35510513D01*
X143975510Y-35512546D01*
X143975124Y-35512229D01*
X143924489Y-35554546D01*
X143855163Y-35563253D01*
X143792136Y-35533098D01*
X143771899Y-35509742D01*
X143770628Y-35507840D01*
X143770623Y-35507834D01*
X143652165Y-35389376D01*
X143652161Y-35389373D01*
X143546609Y-35318845D01*
X143501804Y-35265233D01*
X143491500Y-35215743D01*
X143491500Y-35059777D01*
X143491500Y-35059775D01*
X143465501Y-34962746D01*
X143415276Y-34875753D01*
X143344247Y-34804724D01*
X143339916Y-34800393D01*
X143339905Y-34800383D01*
X143290733Y-34751211D01*
X143257248Y-34689888D01*
X143255194Y-34649646D01*
X143272055Y-34500002D01*
X143272055Y-34499996D01*
X143252698Y-34328204D01*
X143252698Y-34328202D01*
X143195598Y-34165018D01*
X143103617Y-34018632D01*
X142981368Y-33896383D01*
X142981367Y-33896382D01*
X142834983Y-33804402D01*
X142671795Y-33747301D01*
X142671076Y-33747220D01*
X142670642Y-33747037D01*
X142665009Y-33745752D01*
X142665234Y-33744765D01*
X142606662Y-33720154D01*
X142567107Y-33662559D01*
X142564969Y-33592722D01*
X142600927Y-33532816D01*
X142663564Y-33501860D01*
X142684959Y-33500000D01*
X154315041Y-33500000D01*
X154382080Y-33519685D01*
G37*
%TD.AperFunction*%
%TA.AperFunction,Conductor*%
G36*
X160357654Y-37401185D02*
G01*
X160378296Y-37417819D01*
X169082181Y-46121704D01*
X169115666Y-46183027D01*
X169118500Y-46209385D01*
X169118500Y-52275619D01*
X169098815Y-52342658D01*
X169046011Y-52388413D01*
X169003103Y-52398902D01*
X169003132Y-52399180D01*
X169001130Y-52399384D01*
X169000834Y-52399457D01*
X169000005Y-52399499D01*
X168897203Y-52410000D01*
X168897200Y-52410001D01*
X168730668Y-52465185D01*
X168730663Y-52465187D01*
X168581342Y-52557289D01*
X168457289Y-52681342D01*
X168365187Y-52830663D01*
X168365185Y-52830668D01*
X168339591Y-52907906D01*
X168310001Y-52997203D01*
X168310001Y-52997204D01*
X168310000Y-52997204D01*
X168299500Y-53099983D01*
X168299500Y-53900001D01*
X168299501Y-53900019D01*
X168310000Y-54002796D01*
X168310001Y-54002799D01*
X168365185Y-54169331D01*
X168365187Y-54169336D01*
X168457289Y-54318657D01*
X168550951Y-54412319D01*
X168584436Y-54473642D01*
X168579452Y-54543334D01*
X168550951Y-54587681D01*
X168457289Y-54681342D01*
X168365187Y-54830663D01*
X168365186Y-54830666D01*
X168310001Y-54997203D01*
X168310001Y-54997204D01*
X168310000Y-54997204D01*
X168299500Y-55099983D01*
X168299500Y-55900001D01*
X168299501Y-55900019D01*
X168310000Y-56002796D01*
X168310001Y-56002799D01*
X168334372Y-56076344D01*
X168365186Y-56169334D01*
X168457288Y-56318656D01*
X168581344Y-56442712D01*
X168730666Y-56534814D01*
X168897203Y-56589999D01*
X168999991Y-56600500D01*
X169000004Y-56600499D01*
X169000800Y-56600541D01*
X169000968Y-56600599D01*
X169003132Y-56600821D01*
X169003079Y-56601338D01*
X169066752Y-56623606D01*
X169109766Y-56678666D01*
X169118500Y-56724381D01*
X169118500Y-62290615D01*
X169098815Y-62357654D01*
X169082181Y-62378296D01*
X168738296Y-62722181D01*
X168676973Y-62755666D01*
X168650615Y-62758500D01*
X163294115Y-62758500D01*
X163227076Y-62738815D01*
X163181733Y-62686905D01*
X163097534Y-62506339D01*
X163007878Y-62378296D01*
X162970827Y-62325381D01*
X162936061Y-62290615D01*
X162814620Y-62169174D01*
X162814616Y-62169171D01*
X162814615Y-62169170D01*
X162633666Y-62042468D01*
X162633658Y-62042464D01*
X162504811Y-61982382D01*
X162452371Y-61936210D01*
X162433219Y-61869017D01*
X162453435Y-61802135D01*
X162504811Y-61757618D01*
X162510802Y-61754824D01*
X162633662Y-61697534D01*
X162814620Y-61570826D01*
X162970826Y-61414620D01*
X163097534Y-61233662D01*
X163181733Y-61053096D01*
X163227905Y-61000656D01*
X163294115Y-60981500D01*
X165609063Y-60981500D01*
X165674159Y-60999961D01*
X165730659Y-61034810D01*
X165730660Y-61034810D01*
X165730666Y-61034814D01*
X165897203Y-61089999D01*
X165999991Y-61100500D01*
X167000008Y-61100499D01*
X167000016Y-61100498D01*
X167000019Y-61100498D01*
X167056302Y-61094748D01*
X167102797Y-61089999D01*
X167269334Y-61034814D01*
X167418656Y-60942712D01*
X167542712Y-60818656D01*
X167634814Y-60669334D01*
X167689999Y-60502797D01*
X167700500Y-60400009D01*
X167700499Y-59599992D01*
X167689999Y-59497203D01*
X167634814Y-59330666D01*
X167542712Y-59181344D01*
X167449049Y-59087681D01*
X167415564Y-59026358D01*
X167420548Y-58956666D01*
X167449049Y-58912319D01*
X167491541Y-58869827D01*
X167542712Y-58818656D01*
X167634814Y-58669334D01*
X167689999Y-58502797D01*
X167700500Y-58400009D01*
X167700499Y-57599992D01*
X167698303Y-57578498D01*
X167689999Y-57497203D01*
X167689998Y-57497200D01*
X167661565Y-57411395D01*
X167634814Y-57330666D01*
X167542712Y-57181344D01*
X167418656Y-57057288D01*
X167269334Y-56965186D01*
X167102797Y-56910001D01*
X167102795Y-56910000D01*
X166999990Y-56899497D01*
X166999169Y-56899456D01*
X166998999Y-56899396D01*
X166996868Y-56899179D01*
X166996920Y-56898668D01*
X166933222Y-56876375D01*
X166890223Y-56821304D01*
X166881500Y-56775618D01*
X166881500Y-55734900D01*
X166901185Y-55667861D01*
X166939529Y-55629906D01*
X166981368Y-55603617D01*
X167103617Y-55481368D01*
X167195598Y-55334982D01*
X167252698Y-55171798D01*
X167272055Y-55000000D01*
X167262835Y-54918174D01*
X167252976Y-54830668D01*
X167252698Y-54828202D01*
X167195598Y-54665018D01*
X167148919Y-54590730D01*
X167103617Y-54518632D01*
X166981367Y-54396382D01*
X166834983Y-54304402D01*
X166682675Y-54251108D01*
X166671798Y-54247302D01*
X166671797Y-54247301D01*
X166671795Y-54247301D01*
X166500004Y-54227945D01*
X166499996Y-54227945D01*
X166328204Y-54247301D01*
X166165016Y-54304402D01*
X166018632Y-54396382D01*
X165896382Y-54518632D01*
X165804402Y-54665016D01*
X165747301Y-54828204D01*
X165727945Y-54999996D01*
X165727945Y-55000003D01*
X165747301Y-55171795D01*
X165804402Y-55334983D01*
X165896382Y-55481367D01*
X166018631Y-55603616D01*
X166018634Y-55603618D01*
X166060471Y-55629906D01*
X166106763Y-55682240D01*
X166118500Y-55734900D01*
X166118500Y-56775619D01*
X166098815Y-56842658D01*
X166046011Y-56888413D01*
X166003103Y-56898902D01*
X166003132Y-56899180D01*
X166001130Y-56899384D01*
X166000834Y-56899457D01*
X166000005Y-56899499D01*
X165897203Y-56910000D01*
X165897200Y-56910001D01*
X165730668Y-56965185D01*
X165730663Y-56965187D01*
X165581342Y-57057289D01*
X165457289Y-57181342D01*
X165365187Y-57330663D01*
X165365186Y-57330666D01*
X165310001Y-57497203D01*
X165310001Y-57497204D01*
X165310000Y-57497204D01*
X165299500Y-57599983D01*
X165299500Y-58400001D01*
X165299501Y-58400019D01*
X165310000Y-58502796D01*
X165310001Y-58502799D01*
X165365185Y-58669331D01*
X165365187Y-58669336D01*
X165457289Y-58818657D01*
X165550951Y-58912319D01*
X165584436Y-58973642D01*
X165579452Y-59043334D01*
X165550951Y-59087681D01*
X165457289Y-59181342D01*
X165365187Y-59330663D01*
X165365185Y-59330668D01*
X165337349Y-59414670D01*
X165310001Y-59497203D01*
X165310001Y-59497204D01*
X165310000Y-59497204D01*
X165299500Y-59599983D01*
X165299500Y-59599991D01*
X165299500Y-59877979D01*
X165299501Y-60094500D01*
X165279817Y-60161539D01*
X165227013Y-60207294D01*
X165175501Y-60218500D01*
X163294115Y-60218500D01*
X163227076Y-60198815D01*
X163181733Y-60146905D01*
X163168487Y-60118498D01*
X163097534Y-59966339D01*
X162970826Y-59785380D01*
X162814620Y-59629174D01*
X162814616Y-59629171D01*
X162814615Y-59629170D01*
X162698085Y-59547575D01*
X162654460Y-59492998D01*
X162647266Y-59423500D01*
X162678789Y-59361145D01*
X162739019Y-59325731D01*
X162769208Y-59322000D01*
X162809828Y-59322000D01*
X162809844Y-59321999D01*
X162869372Y-59315598D01*
X162869379Y-59315596D01*
X163004086Y-59265354D01*
X163004093Y-59265350D01*
X163119187Y-59179190D01*
X163119190Y-59179187D01*
X163205350Y-59064093D01*
X163205354Y-59064086D01*
X163255596Y-58929379D01*
X163255598Y-58929372D01*
X163261999Y-58869844D01*
X163262000Y-58869827D01*
X163262000Y-58310000D01*
X162442251Y-58310000D01*
X162473381Y-58256081D01*
X162508000Y-58126880D01*
X162508000Y-57993120D01*
X162473381Y-57863919D01*
X162442251Y-57810000D01*
X163262000Y-57810000D01*
X163262000Y-57250172D01*
X163261999Y-57250155D01*
X163255598Y-57190627D01*
X163255596Y-57190620D01*
X163205354Y-57055913D01*
X163205350Y-57055906D01*
X163119190Y-56940812D01*
X163119187Y-56940809D01*
X163004093Y-56854649D01*
X163004086Y-56854645D01*
X162869379Y-56804403D01*
X162869372Y-56804401D01*
X162809844Y-56798000D01*
X162250000Y-56798000D01*
X162250000Y-57617748D01*
X162196081Y-57586619D01*
X162066880Y-57552000D01*
X161933120Y-57552000D01*
X161803919Y-57586619D01*
X161750000Y-57617748D01*
X161750000Y-56798000D01*
X161190155Y-56798000D01*
X161130627Y-56804401D01*
X161130620Y-56804403D01*
X160995913Y-56854645D01*
X160995906Y-56854649D01*
X160880812Y-56940809D01*
X160880809Y-56940812D01*
X160794649Y-57055906D01*
X160794645Y-57055913D01*
X160744403Y-57190620D01*
X160744401Y-57190627D01*
X160738000Y-57250155D01*
X160738000Y-57810000D01*
X161557749Y-57810000D01*
X161526619Y-57863919D01*
X161492000Y-57993120D01*
X161492000Y-58126880D01*
X161526619Y-58256081D01*
X161557749Y-58310000D01*
X160738000Y-58310000D01*
X160738000Y-58869844D01*
X160744401Y-58929372D01*
X160744403Y-58929379D01*
X160794645Y-59064086D01*
X160794649Y-59064093D01*
X160880809Y-59179187D01*
X160880812Y-59179190D01*
X160995906Y-59265350D01*
X160995913Y-59265354D01*
X161130620Y-59315596D01*
X161130627Y-59315598D01*
X161190155Y-59321999D01*
X161190172Y-59322000D01*
X161230793Y-59322000D01*
X161297832Y-59341685D01*
X161343587Y-59394489D01*
X161353531Y-59463647D01*
X161324506Y-59527203D01*
X161301916Y-59547575D01*
X161185377Y-59629175D01*
X161029175Y-59785377D01*
X160902466Y-59966338D01*
X160902465Y-59966340D01*
X160809107Y-60166548D01*
X160809104Y-60166554D01*
X160751930Y-60379929D01*
X160751929Y-60379937D01*
X160732677Y-60599997D01*
X160732677Y-60600002D01*
X160751929Y-60820062D01*
X160751930Y-60820070D01*
X160809104Y-61033445D01*
X160809105Y-61033447D01*
X160809106Y-61033450D01*
X160840372Y-61100500D01*
X160902466Y-61233662D01*
X160902468Y-61233666D01*
X161029170Y-61414615D01*
X161029175Y-61414621D01*
X161185378Y-61570824D01*
X161185384Y-61570829D01*
X161366333Y-61697531D01*
X161366335Y-61697532D01*
X161366338Y-61697534D01*
X161485748Y-61753215D01*
X161495189Y-61757618D01*
X161547628Y-61803790D01*
X161566780Y-61870984D01*
X161546564Y-61937865D01*
X161495189Y-61982382D01*
X161366340Y-62042465D01*
X161366338Y-62042466D01*
X161185377Y-62169175D01*
X161029175Y-62325377D01*
X160902466Y-62506338D01*
X160902465Y-62506340D01*
X160809107Y-62706548D01*
X160809104Y-62706554D01*
X160751930Y-62919929D01*
X160751929Y-62919937D01*
X160732677Y-63139997D01*
X160732677Y-63140002D01*
X160751929Y-63360062D01*
X160751930Y-63360070D01*
X160809104Y-63573445D01*
X160809105Y-63573447D01*
X160809106Y-63573450D01*
X160902464Y-63773658D01*
X160902466Y-63773662D01*
X160902468Y-63773666D01*
X161029170Y-63954615D01*
X161029175Y-63954621D01*
X161185378Y-64110824D01*
X161185384Y-64110829D01*
X161366333Y-64237531D01*
X161366335Y-64237532D01*
X161366338Y-64237534D01*
X161485748Y-64293215D01*
X161495189Y-64297618D01*
X161547628Y-64343790D01*
X161566780Y-64410984D01*
X161546564Y-64477865D01*
X161495189Y-64522382D01*
X161366340Y-64582465D01*
X161366338Y-64582466D01*
X161185377Y-64709175D01*
X161029175Y-64865377D01*
X160902466Y-65046338D01*
X160902465Y-65046340D01*
X160809107Y-65246548D01*
X160809104Y-65246554D01*
X160751930Y-65459929D01*
X160751929Y-65459937D01*
X160732677Y-65679997D01*
X160732677Y-65680002D01*
X160751929Y-65900062D01*
X160751930Y-65900070D01*
X160809104Y-66113445D01*
X160809105Y-66113447D01*
X160809106Y-66113450D01*
X160902466Y-66313662D01*
X160902468Y-66313666D01*
X161029170Y-66494615D01*
X161029175Y-66494621D01*
X161185378Y-66650824D01*
X161185384Y-66650829D01*
X161366333Y-66777531D01*
X161366335Y-66777532D01*
X161366338Y-66777534D01*
X161485748Y-66833215D01*
X161495189Y-66837618D01*
X161547628Y-66883790D01*
X161566780Y-66950984D01*
X161546564Y-67017865D01*
X161495189Y-67062382D01*
X161366340Y-67122465D01*
X161366338Y-67122466D01*
X161185377Y-67249175D01*
X161029175Y-67405377D01*
X160902466Y-67586338D01*
X160902465Y-67586340D01*
X160809107Y-67786548D01*
X160809104Y-67786554D01*
X160751930Y-67999929D01*
X160751929Y-67999937D01*
X160732677Y-68219997D01*
X160732677Y-68220002D01*
X160751929Y-68440062D01*
X160751930Y-68440070D01*
X160809104Y-68653445D01*
X160809105Y-68653447D01*
X160809106Y-68653450D01*
X160845210Y-68730875D01*
X160902466Y-68853662D01*
X160902468Y-68853666D01*
X161029170Y-69034615D01*
X161029175Y-69034621D01*
X161185378Y-69190824D01*
X161185384Y-69190829D01*
X161366333Y-69317531D01*
X161366335Y-69317532D01*
X161366338Y-69317534D01*
X161485748Y-69373215D01*
X161495189Y-69377618D01*
X161547628Y-69423790D01*
X161566780Y-69490984D01*
X161546564Y-69557865D01*
X161495189Y-69602382D01*
X161366340Y-69662465D01*
X161366338Y-69662466D01*
X161185377Y-69789175D01*
X161029175Y-69945377D01*
X160902466Y-70126338D01*
X160902465Y-70126340D01*
X160809107Y-70326548D01*
X160809104Y-70326554D01*
X160751930Y-70539929D01*
X160751929Y-70539937D01*
X160732677Y-70759997D01*
X160732677Y-70760002D01*
X160751929Y-70980062D01*
X160751930Y-70980070D01*
X160809104Y-71193445D01*
X160809105Y-71193447D01*
X160809106Y-71193450D01*
X160902466Y-71393662D01*
X160902468Y-71393666D01*
X161029170Y-71574615D01*
X161029175Y-71574621D01*
X161185378Y-71730824D01*
X161185384Y-71730829D01*
X161366333Y-71857531D01*
X161366335Y-71857532D01*
X161366338Y-71857534D01*
X161485748Y-71913215D01*
X161495189Y-71917618D01*
X161547628Y-71963790D01*
X161566780Y-72030984D01*
X161546564Y-72097865D01*
X161495189Y-72142382D01*
X161366340Y-72202465D01*
X161366338Y-72202466D01*
X161185377Y-72329175D01*
X161029175Y-72485377D01*
X160902466Y-72666338D01*
X160902465Y-72666340D01*
X160809107Y-72866548D01*
X160809104Y-72866554D01*
X160751930Y-73079929D01*
X160751929Y-73079937D01*
X160732677Y-73299997D01*
X160732677Y-73300002D01*
X160751929Y-73520062D01*
X160751930Y-73520070D01*
X160809104Y-73733445D01*
X160809105Y-73733447D01*
X160809106Y-73733450D01*
X160902466Y-73933662D01*
X160902468Y-73933666D01*
X161029170Y-74114615D01*
X161029175Y-74114621D01*
X161185378Y-74270824D01*
X161185384Y-74270829D01*
X161366333Y-74397531D01*
X161366335Y-74397532D01*
X161366338Y-74397534D01*
X161485748Y-74453215D01*
X161495189Y-74457618D01*
X161547628Y-74503790D01*
X161566780Y-74570984D01*
X161546564Y-74637865D01*
X161495189Y-74682382D01*
X161366340Y-74742465D01*
X161366338Y-74742466D01*
X161185377Y-74869175D01*
X161029175Y-75025377D01*
X160902466Y-75206338D01*
X160902465Y-75206340D01*
X160809107Y-75406548D01*
X160809104Y-75406554D01*
X160751930Y-75619929D01*
X160751929Y-75619937D01*
X160732677Y-75839997D01*
X160732677Y-75840002D01*
X160751929Y-76060062D01*
X160751930Y-76060070D01*
X160809104Y-76273445D01*
X160809105Y-76273447D01*
X160809106Y-76273450D01*
X160880379Y-76426296D01*
X160902466Y-76473662D01*
X160902468Y-76473666D01*
X161029170Y-76654615D01*
X161029175Y-76654621D01*
X161185378Y-76810824D01*
X161185384Y-76810829D01*
X161366333Y-76937531D01*
X161366335Y-76937532D01*
X161366338Y-76937534D01*
X161461981Y-76982133D01*
X161495189Y-76997618D01*
X161547628Y-77043790D01*
X161566780Y-77110984D01*
X161546564Y-77177865D01*
X161495189Y-77222382D01*
X161366340Y-77282465D01*
X161366338Y-77282466D01*
X161185377Y-77409175D01*
X161029175Y-77565377D01*
X160902466Y-77746338D01*
X160902465Y-77746340D01*
X160809107Y-77946548D01*
X160809104Y-77946554D01*
X160751930Y-78159929D01*
X160751929Y-78159937D01*
X160732677Y-78379997D01*
X160732677Y-78380002D01*
X160751929Y-78600062D01*
X160751930Y-78600070D01*
X160809104Y-78813445D01*
X160809105Y-78813447D01*
X160809106Y-78813450D01*
X160847778Y-78896382D01*
X160902466Y-79013662D01*
X160902468Y-79013666D01*
X161029170Y-79194615D01*
X161029175Y-79194621D01*
X161185378Y-79350824D01*
X161185384Y-79350829D01*
X161366333Y-79477531D01*
X161366335Y-79477532D01*
X161366338Y-79477534D01*
X161485748Y-79533215D01*
X161495189Y-79537618D01*
X161547628Y-79583790D01*
X161566780Y-79650984D01*
X161546564Y-79717865D01*
X161495189Y-79762382D01*
X161366340Y-79822465D01*
X161366338Y-79822466D01*
X161185377Y-79949175D01*
X161029175Y-80105377D01*
X160902466Y-80286338D01*
X160902465Y-80286340D01*
X160809107Y-80486548D01*
X160809104Y-80486554D01*
X160751930Y-80699929D01*
X160751929Y-80699937D01*
X160732677Y-80919997D01*
X160732677Y-80920002D01*
X160751929Y-81140062D01*
X160751930Y-81140070D01*
X160809104Y-81353445D01*
X160809105Y-81353447D01*
X160809106Y-81353450D01*
X160902466Y-81553662D01*
X160902468Y-81553666D01*
X161029170Y-81734615D01*
X161029175Y-81734621D01*
X161185378Y-81890824D01*
X161185384Y-81890829D01*
X161366333Y-82017531D01*
X161366335Y-82017532D01*
X161366338Y-82017534D01*
X161485748Y-82073215D01*
X161495189Y-82077618D01*
X161547628Y-82123790D01*
X161566780Y-82190984D01*
X161546564Y-82257865D01*
X161495189Y-82302382D01*
X161366335Y-82362467D01*
X161348166Y-82375189D01*
X161281959Y-82397513D01*
X161214192Y-82380499D01*
X161189367Y-82361291D01*
X158056021Y-79227945D01*
X154895755Y-76067680D01*
X154862271Y-76006358D01*
X154867255Y-75936666D01*
X154895756Y-75892319D01*
X155184458Y-75603617D01*
X155672689Y-75115387D01*
X155672689Y-75115385D01*
X155672691Y-75115384D01*
X155688194Y-75077953D01*
X155703700Y-75040519D01*
X155703700Y-74959482D01*
X155703700Y-74829518D01*
X155723385Y-74762479D01*
X155776189Y-74716724D01*
X155786740Y-74712478D01*
X155834982Y-74695598D01*
X155981368Y-74603617D01*
X156103617Y-74481368D01*
X156195598Y-74334982D01*
X156252698Y-74171798D01*
X156272055Y-74000000D01*
X156264580Y-73933662D01*
X156252698Y-73828204D01*
X156252698Y-73828202D01*
X156195598Y-73665018D01*
X156103617Y-73518632D01*
X155981368Y-73396383D01*
X155981367Y-73396382D01*
X155834983Y-73304402D01*
X155671795Y-73247301D01*
X155500004Y-73227945D01*
X155499996Y-73227945D01*
X155328204Y-73247301D01*
X155165016Y-73304402D01*
X155018632Y-73396382D01*
X154896382Y-73518632D01*
X154804402Y-73665016D01*
X154747301Y-73828204D01*
X154727945Y-73999996D01*
X154727945Y-74000003D01*
X154747301Y-74171795D01*
X154804402Y-74334983D01*
X154896382Y-74481367D01*
X155018632Y-74603617D01*
X155116350Y-74665018D01*
X155165018Y-74695598D01*
X155213254Y-74712476D01*
X155270030Y-74753197D01*
X155295778Y-74818150D01*
X155296300Y-74829518D01*
X155296300Y-74864261D01*
X155276615Y-74931300D01*
X155259981Y-74951942D01*
X154607680Y-75604243D01*
X154546357Y-75637728D01*
X154476665Y-75632744D01*
X154432318Y-75604243D01*
X151240019Y-72411944D01*
X151206534Y-72350621D01*
X151203700Y-72324263D01*
X151203700Y-53551317D01*
X156257966Y-53551317D01*
X156257966Y-53551322D01*
X156277048Y-53903274D01*
X156303697Y-54065826D01*
X156333890Y-54250000D01*
X156334073Y-54251113D01*
X156334074Y-54251116D01*
X156428366Y-54590728D01*
X156428367Y-54590730D01*
X156558828Y-54918164D01*
X156558837Y-54918182D01*
X156693296Y-55171798D01*
X156723935Y-55229589D01*
X156919502Y-55518029D01*
X156921738Y-55521326D01*
X156921745Y-55521336D01*
X157013966Y-55629906D01*
X157149926Y-55789970D01*
X157405820Y-56032366D01*
X157686422Y-56245674D01*
X157988442Y-56427394D01*
X157988446Y-56427395D01*
X157988450Y-56427398D01*
X158308328Y-56575390D01*
X158308332Y-56575390D01*
X158308339Y-56575394D01*
X158642362Y-56687939D01*
X158986595Y-56763711D01*
X159337003Y-56801820D01*
X159337009Y-56801820D01*
X159689471Y-56801820D01*
X159689477Y-56801820D01*
X160039885Y-56763711D01*
X160384118Y-56687939D01*
X160718141Y-56575394D01*
X160718148Y-56575390D01*
X160718151Y-56575390D01*
X160971716Y-56458077D01*
X161038038Y-56427394D01*
X161340058Y-56245674D01*
X161620660Y-56032366D01*
X161876554Y-55789970D01*
X162104741Y-55521328D01*
X162302545Y-55229589D01*
X162467647Y-54918174D01*
X162598111Y-54590734D01*
X162692408Y-54251108D01*
X162749431Y-53903277D01*
X162768190Y-53557289D01*
X162768514Y-53551322D01*
X162768514Y-53551317D01*
X162749431Y-53199365D01*
X162749431Y-53199363D01*
X162692408Y-52851532D01*
X162610712Y-52557289D01*
X162598113Y-52511911D01*
X162598112Y-52511909D01*
X162467651Y-52184475D01*
X162467642Y-52184457D01*
X162302544Y-51873050D01*
X162104741Y-51581312D01*
X162104737Y-51581307D01*
X162104734Y-51581303D01*
X161876554Y-51312670D01*
X161620660Y-51070274D01*
X161620653Y-51070268D01*
X161620650Y-51070266D01*
X161340055Y-50856964D01*
X161038042Y-50675248D01*
X161038029Y-50675241D01*
X160718151Y-50527249D01*
X160718146Y-50527248D01*
X160718143Y-50527247D01*
X160718141Y-50527246D01*
X160611672Y-50491372D01*
X160384120Y-50414701D01*
X160039883Y-50338928D01*
X159689478Y-50300820D01*
X159689477Y-50300820D01*
X159337003Y-50300820D01*
X159337001Y-50300820D01*
X158986596Y-50338928D01*
X158642359Y-50414701D01*
X158308333Y-50527248D01*
X158308328Y-50527249D01*
X157988450Y-50675241D01*
X157988437Y-50675248D01*
X157686424Y-50856964D01*
X157405829Y-51070266D01*
X157405820Y-51070274D01*
X157149925Y-51312670D01*
X156921745Y-51581303D01*
X156921738Y-51581313D01*
X156723935Y-51873050D01*
X156558837Y-52184457D01*
X156558828Y-52184475D01*
X156428367Y-52511909D01*
X156428366Y-52511911D01*
X156334074Y-52851523D01*
X156334073Y-52851526D01*
X156277048Y-53199365D01*
X156257966Y-53551317D01*
X151203700Y-53551317D01*
X151203700Y-38742695D01*
X151223385Y-38675656D01*
X151258811Y-38639592D01*
X151290707Y-38618280D01*
X151302162Y-38610626D01*
X151420626Y-38492162D01*
X151421894Y-38490263D01*
X151422817Y-38489492D01*
X151424490Y-38487454D01*
X151424876Y-38487771D01*
X151475504Y-38445456D01*
X151544828Y-38436745D01*
X151607858Y-38466896D01*
X151628106Y-38490264D01*
X151629375Y-38492164D01*
X151747837Y-38610626D01*
X151840494Y-38672537D01*
X151887137Y-38703703D01*
X151887138Y-38703703D01*
X151887139Y-38703704D01*
X151898971Y-38708605D01*
X152041918Y-38767816D01*
X152195339Y-38798333D01*
X152206228Y-38800499D01*
X152206232Y-38800500D01*
X152206233Y-38800500D01*
X152373768Y-38800500D01*
X152373769Y-38800499D01*
X152538082Y-38767816D01*
X152692863Y-38703703D01*
X152832162Y-38610626D01*
X152950626Y-38492162D01*
X152951894Y-38490263D01*
X152952817Y-38489492D01*
X152954490Y-38487454D01*
X152954876Y-38487771D01*
X153005504Y-38445456D01*
X153074828Y-38436745D01*
X153137858Y-38466896D01*
X153158106Y-38490264D01*
X153159375Y-38492164D01*
X153277837Y-38610626D01*
X153370494Y-38672537D01*
X153417137Y-38703703D01*
X153417138Y-38703703D01*
X153417139Y-38703704D01*
X153428971Y-38708605D01*
X153571918Y-38767816D01*
X153725339Y-38798333D01*
X153736228Y-38800499D01*
X153736232Y-38800500D01*
X153736233Y-38800500D01*
X153903768Y-38800500D01*
X153903769Y-38800499D01*
X154068082Y-38767816D01*
X154222863Y-38703703D01*
X154362162Y-38610626D01*
X154480626Y-38492162D01*
X154481894Y-38490263D01*
X154482817Y-38489492D01*
X154484490Y-38487454D01*
X154484876Y-38487771D01*
X154535504Y-38445456D01*
X154604828Y-38436745D01*
X154667858Y-38466896D01*
X154688106Y-38490264D01*
X154689375Y-38492164D01*
X154807837Y-38610626D01*
X154900494Y-38672537D01*
X154947137Y-38703703D01*
X154947138Y-38703703D01*
X154947139Y-38703704D01*
X154958971Y-38708605D01*
X155101918Y-38767816D01*
X155255339Y-38798333D01*
X155266228Y-38800499D01*
X155266232Y-38800500D01*
X155266233Y-38800500D01*
X155433768Y-38800500D01*
X155433769Y-38800499D01*
X155598082Y-38767816D01*
X155752863Y-38703703D01*
X155892162Y-38610626D01*
X156010626Y-38492162D01*
X156011894Y-38490263D01*
X156012817Y-38489492D01*
X156014490Y-38487454D01*
X156014876Y-38487771D01*
X156065504Y-38445456D01*
X156134828Y-38436745D01*
X156197858Y-38466896D01*
X156218106Y-38490264D01*
X156219375Y-38492164D01*
X156337837Y-38610626D01*
X156430494Y-38672537D01*
X156477137Y-38703703D01*
X156477138Y-38703703D01*
X156477139Y-38703704D01*
X156488971Y-38708605D01*
X156631918Y-38767816D01*
X156785339Y-38798333D01*
X156796228Y-38800499D01*
X156796232Y-38800500D01*
X156796233Y-38800500D01*
X156963768Y-38800500D01*
X156963769Y-38800499D01*
X157128082Y-38767816D01*
X157282863Y-38703703D01*
X157422162Y-38610626D01*
X157540626Y-38492162D01*
X157633703Y-38352863D01*
X157697816Y-38198082D01*
X157730500Y-38033767D01*
X157730500Y-37505500D01*
X157750185Y-37438461D01*
X157802989Y-37392706D01*
X157854500Y-37381500D01*
X160290615Y-37381500D01*
X160357654Y-37401185D01*
G37*
%TD.AperFunction*%
%TD*%
M02*
