%TF.GenerationSoftware,KiCad,Pcbnew,8.0.8-8.0.8-0~ubuntu24.04.1*%
%TF.CreationDate,2025-02-21T21:48:44-06:00*%
%TF.ProjectId,edge_human_detection_board,65646765-5f68-4756-9d61-6e5f64657465,rev?*%
%TF.SameCoordinates,Original*%
%TF.FileFunction,Copper,L1,Top*%
%TF.FilePolarity,Positive*%
%FSLAX46Y46*%
G04 Gerber Fmt 4.6, Leading zero omitted, Abs format (unit mm)*
G04 Created by KiCad (PCBNEW 8.0.8-8.0.8-0~ubuntu24.04.1) date 2025-02-21 21:48:44*
%MOMM*%
%LPD*%
G01*
G04 APERTURE LIST*
G04 Aperture macros list*
%AMRoundRect*
0 Rectangle with rounded corners*
0 $1 Rounding radius*
0 $2 $3 $4 $5 $6 $7 $8 $9 X,Y pos of 4 corners*
0 Add a 4 corners polygon primitive as box body*
4,1,4,$2,$3,$4,$5,$6,$7,$8,$9,$2,$3,0*
0 Add four circle primitives for the rounded corners*
1,1,$1+$1,$2,$3*
1,1,$1+$1,$4,$5*
1,1,$1+$1,$6,$7*
1,1,$1+$1,$8,$9*
0 Add four rect primitives between the rounded corners*
20,1,$1+$1,$2,$3,$4,$5,0*
20,1,$1+$1,$4,$5,$6,$7,0*
20,1,$1+$1,$6,$7,$8,$9,0*
20,1,$1+$1,$8,$9,$2,$3,0*%
G04 Aperture macros list end*
%TA.AperFunction,SMDPad,CuDef*%
%ADD10R,1.475000X0.450000*%
%TD*%
%TA.AperFunction,SMDPad,CuDef*%
%ADD11R,0.700000X0.700000*%
%TD*%
%TA.AperFunction,SMDPad,CuDef*%
%ADD12RoundRect,0.208750X0.208750X0.431250X-0.208750X0.431250X-0.208750X-0.431250X0.208750X-0.431250X0*%
%TD*%
%TA.AperFunction,ComponentPad*%
%ADD13R,1.700000X1.700000*%
%TD*%
%TA.AperFunction,ComponentPad*%
%ADD14O,1.700000X1.700000*%
%TD*%
%TA.AperFunction,ComponentPad*%
%ADD15C,5.500000*%
%TD*%
%TA.AperFunction,ComponentPad*%
%ADD16R,1.524000X1.524000*%
%TD*%
%TA.AperFunction,ComponentPad*%
%ADD17C,1.524000*%
%TD*%
%TA.AperFunction,SMDPad,CuDef*%
%ADD18O,0.700000X2.600000*%
%TD*%
%TA.AperFunction,ViaPad*%
%ADD19C,0.533400*%
%TD*%
%TA.AperFunction,Conductor*%
%ADD20C,0.508000*%
%TD*%
%TA.AperFunction,Conductor*%
%ADD21C,0.152400*%
%TD*%
G04 APERTURE END LIST*
D10*
%TO.P,IC1,1,A1*%
%TO.N,/RGB Signalling/SIG_IN_PWM0*%
X117738000Y-106525000D03*
%TO.P,IC1,2,VCCA*%
%TO.N,/Coral Micro Breakouts/+1.8VDC_RGB*%
X117738000Y-105875000D03*
%TO.P,IC1,3,A2*%
%TO.N,unconnected-(IC1-A2-Pad3)*%
X117738000Y-105225000D03*
%TO.P,IC1,4,A3*%
%TO.N,unconnected-(IC1-A3-Pad4)*%
X117738000Y-104575000D03*
%TO.P,IC1,5,A4*%
%TO.N,unconnected-(IC1-A4-Pad5)*%
X117738000Y-103925000D03*
%TO.P,IC1,6,A5*%
%TO.N,unconnected-(IC1-A5-Pad6)*%
X117738000Y-103275000D03*
%TO.P,IC1,7,A6*%
%TO.N,unconnected-(IC1-A6-Pad7)*%
X117738000Y-102625000D03*
%TO.P,IC1,8,A7*%
%TO.N,unconnected-(IC1-A7-Pad8)*%
X117738000Y-101975000D03*
%TO.P,IC1,9,A8*%
%TO.N,unconnected-(IC1-A8-Pad9)*%
X117738000Y-101325000D03*
%TO.P,IC1,10,OE*%
%TO.N,/Coral Micro Breakouts/+1.8VDC_RGB*%
X117738000Y-100675000D03*
%TO.P,IC1,11,GND*%
%TO.N,GND*%
X111862000Y-100675000D03*
%TO.P,IC1,12,B8*%
%TO.N,unconnected-(IC1-B8-Pad12)*%
X111862000Y-101325000D03*
%TO.P,IC1,13,B7*%
%TO.N,unconnected-(IC1-B7-Pad13)*%
X111862000Y-101975000D03*
%TO.P,IC1,14,B6*%
%TO.N,unconnected-(IC1-B6-Pad14)*%
X111862000Y-102625000D03*
%TO.P,IC1,15,B5*%
%TO.N,unconnected-(IC1-B5-Pad15)*%
X111862000Y-103275000D03*
%TO.P,IC1,16,B4*%
%TO.N,unconnected-(IC1-B4-Pad16)*%
X111862000Y-103925000D03*
%TO.P,IC1,17,B3*%
%TO.N,unconnected-(IC1-B3-Pad17)*%
X111862000Y-104575000D03*
%TO.P,IC1,18,B2*%
%TO.N,unconnected-(IC1-B2-Pad18)*%
X111862000Y-105225000D03*
%TO.P,IC1,19,VCCB*%
%TO.N,/Coral Micro Breakouts/+5VDC*%
X111862000Y-105875000D03*
%TO.P,IC1,20,B1*%
%TO.N,/RGB Signalling/SIG_IN_RGB1*%
X111862000Y-106525000D03*
%TD*%
D11*
%TO.P,D4,4,VDD*%
%TO.N,/Coral Micro Breakouts/+5VDC*%
X96801760Y-122098680D03*
%TO.P,D4,3,DI*%
%TO.N,/RGB Signalling/SIG_IN_RGB3*%
X96801760Y-123198680D03*
%TO.P,D4,2,GND*%
%TO.N,GND*%
X94971760Y-123198680D03*
%TO.P,D4,1,DO*%
%TO.N,unconnected-(D4-DO-Pad1)*%
X94971760Y-122098680D03*
%TD*%
%TO.P,D3,4,VDD*%
%TO.N,/Coral Micro Breakouts/+5VDC*%
X96801760Y-117198680D03*
%TO.P,D3,3,DI*%
%TO.N,/RGB Signalling/SIG_IN_RGB2*%
X96801760Y-118298680D03*
%TO.P,D3,2,GND*%
%TO.N,GND*%
X94971760Y-118298680D03*
%TO.P,D3,1,DO*%
%TO.N,/RGB Signalling/SIG_IN_RGB3*%
X94971760Y-117198680D03*
%TD*%
%TO.P,D2,4,VDD*%
%TO.N,/Coral Micro Breakouts/+5VDC*%
X96801760Y-112298680D03*
%TO.P,D2,3,DI*%
%TO.N,/RGB Signalling/SIG_IN_RGB1*%
X96801760Y-113398680D03*
%TO.P,D2,2,GND*%
%TO.N,GND*%
X94971760Y-113398680D03*
%TO.P,D2,1,DO*%
%TO.N,/RGB Signalling/SIG_IN_RGB2*%
X94971760Y-112298680D03*
%TD*%
D12*
%TO.P,C3,1*%
%TO.N,GND*%
X103941760Y-116448680D03*
%TO.P,C3,2*%
%TO.N,/Coral Micro Breakouts/+5VDC*%
X102686760Y-116448680D03*
%TD*%
%TO.P,C4,1*%
%TO.N,GND*%
X103941760Y-120448680D03*
%TO.P,C4,2*%
%TO.N,/Coral Micro Breakouts/+5VDC*%
X102686760Y-120448680D03*
%TD*%
%TO.P,C2,1*%
%TO.N,GND*%
X103941760Y-112448680D03*
%TO.P,C2,2*%
%TO.N,/Coral Micro Breakouts/+5VDC*%
X102686760Y-112448680D03*
%TD*%
%TO.P,C1,1*%
%TO.N,GND*%
X106914260Y-106648680D03*
%TO.P,C1,2*%
%TO.N,/Coral Micro Breakouts/+5VDC*%
X105659260Y-106648680D03*
%TD*%
D13*
%TO.P,J1,1,Pin_1*%
%TO.N,GND*%
X96200000Y-78875000D03*
D14*
%TO.P,J1,2,Pin_2*%
%TO.N,/Coral Micro Breakouts/DEBUG_TX*%
X96200000Y-81415000D03*
%TO.P,J1,3,Pin_3*%
%TO.N,/Coral Micro Breakouts/DEBUG_RX*%
X96200000Y-83955000D03*
%TD*%
D15*
%TO.P,U1,*%
%TO.N,*%
X127200000Y-74000000D03*
X104200000Y-74000000D03*
X127200000Y-132000000D03*
X104200000Y-132000000D03*
D16*
%TO.P,U1,1,GND*%
%TO.N,GND*%
X129686760Y-78508680D03*
D17*
%TO.P,U1,2,1.8V*%
%TO.N,/Coral Micro Breakouts/+1.8VDC_TOF*%
X129686760Y-81048680D03*
%TO.P,U1,3,3.3V*%
%TO.N,/Coral Micro Breakouts/+3.3VDC*%
X129686760Y-83588680D03*
%TO.P,U1,4,RTC_3V*%
%TO.N,unconnected-(U1-RTC_3V-Pad4)*%
X129686760Y-86128680D03*
%TO.P,U1,5,SPI6_CS0*%
%TO.N,unconnected-(U1-SPI6_CS0-Pad5)*%
X129686760Y-88668680D03*
%TO.P,U1,6,SPI6_SCK*%
%TO.N,unconnected-(U1-SPI6_SCK-Pad6)*%
X129686760Y-91208680D03*
%TO.P,U1,7,SPI6_SDO*%
%TO.N,unconnected-(U1-SPI6_SDO-Pad7)*%
X129686760Y-93748680D03*
%TO.P,U1,8,SPI6_SDI*%
%TO.N,unconnected-(U1-SPI6_SDI-Pad8)*%
X129686760Y-96288680D03*
%TO.P,U1,9,DAC_OUT*%
%TO.N,unconnected-(U1-DAC_OUT-Pad9)*%
X129686760Y-98828680D03*
%TO.P,U1,10,I2C6_SDA*%
%TO.N,unconnected-(U1-I2C6_SDA-Pad10)*%
X129686760Y-101368680D03*
%TO.P,U1,11,I2C1_SCL*%
%TO.N,/Coral Micro Breakouts/SCL*%
X129686760Y-103908680D03*
%TO.P,U1,12,I2C1_SDA*%
%TO.N,/Coral Micro Breakouts/SDA*%
X129686760Y-106448680D03*
D16*
%TO.P,U1,13,GND*%
%TO.N,GND*%
X101746760Y-78508680D03*
D17*
%TO.P,U1,14,1.8V*%
%TO.N,/Coral Micro Breakouts/+1.8VDC_RGB*%
X101746760Y-81048680D03*
%TO.P,U1,15,ADC1_CH0A*%
%TO.N,unconnected-(U1-ADC1_CH0A-Pad15)*%
X101746760Y-83588680D03*
%TO.P,U1,16,ADC1_CH0B*%
%TO.N,unconnected-(U1-ADC1_CH0B-Pad16)*%
X101746760Y-86128680D03*
%TO.P,U1,17,UART6_TX*%
%TO.N,/Coral Micro Breakouts/DEBUG_TX*%
X101746760Y-88668680D03*
%TO.P,U1,18,UART6_RX*%
%TO.N,/Coral Micro Breakouts/DEBUG_RX*%
X101746760Y-91208680D03*
%TO.P,U1,19,UART6_CTX*%
%TO.N,unconnected-(U1-UART6_CTX-Pad19)*%
X101746760Y-93748680D03*
%TO.P,U1,20,UART6_RTS*%
%TO.N,unconnected-(U1-UART6_RTS-Pad20)*%
X101746760Y-96288680D03*
%TO.P,U1,21,PWM_B*%
%TO.N,/Coral Micro Breakouts/PWM_1*%
X101746760Y-98828680D03*
%TO.P,U1,22,PWM_A*%
%TO.N,/RGB Signalling/SIG_IN_PWM0*%
X101746760Y-101368680D03*
%TO.P,U1,23,I2C6_SCL*%
%TO.N,unconnected-(U1-I2C6_SCL-Pad23)*%
X101746760Y-103908680D03*
%TO.P,U1,24,VSYS*%
%TO.N,/Coral Micro Breakouts/+5VDC*%
X101746760Y-106448680D03*
%TD*%
D18*
%TO.P,U2,1,DUT_GND*%
%TO.N,GND*%
X108325000Y-51275000D03*
%TO.P,U2,2,NCS*%
%TO.N,unconnected-(U2-NCS-Pad2)*%
X109855000Y-51275000D03*
%TO.P,U2,3,CORE_1V8*%
%TO.N,/Coral Micro Breakouts/+1.8VDC_TOF*%
X111385000Y-51275000D03*
%TO.P,U2,4,LPn*%
%TO.N,/Coral Micro Breakouts/PWM_1*%
X112915000Y-51275000D03*
%TO.P,U2,5,MISO*%
%TO.N,unconnected-(U2-MISO-Pad5)*%
X114445000Y-51275000D03*
%TO.P,U2,6,SDA*%
%TO.N,/Coral Micro Breakouts/SDA*%
X115975000Y-51275000D03*
%TO.P,U2,7,I2C_N*%
%TO.N,GND*%
X117505000Y-51275000D03*
%TO.P,U2,8,SCL*%
%TO.N,/Coral Micro Breakouts/SCL*%
X119035000Y-51275000D03*
%TO.P,U2,9,GPIO1*%
%TO.N,unconnected-(U2-GPIO1-Pad9)*%
X120565000Y-51275000D03*
%TO.P,U2,10,GPIO2*%
%TO.N,unconnected-(U2-GPIO2-Pad10)*%
X122095000Y-51275000D03*
%TO.P,U2,11,IOVDD*%
%TO.N,/Coral Micro Breakouts/+1.8VDC_TOF*%
X123625000Y-51275000D03*
%TO.P,U2,12,AVDD*%
%TO.N,/Coral Micro Breakouts/+3.3VDC*%
X125155000Y-51275000D03*
%TD*%
D19*
%TO.N,GND*%
X119600000Y-103000000D03*
X98600000Y-86200000D03*
X112400000Y-74000000D03*
X122800000Y-81000000D03*
X106000000Y-80400000D03*
X115400000Y-118200000D03*
X131400000Y-138200000D03*
X98000000Y-138000000D03*
X96000000Y-128400000D03*
X136800000Y-118000000D03*
X136400000Y-94000000D03*
X96200000Y-96000000D03*
X103800000Y-67800000D03*
X127400000Y-67600000D03*
X136400000Y-63600000D03*
X136800000Y-53400000D03*
X94800000Y-66000000D03*
X94600000Y-54600000D03*
%TO.N,/RGB Signalling/SIG_IN_RGB3*%
X98000000Y-123600000D03*
%TO.N,/RGB Signalling/SIG_IN_RGB2*%
X97800000Y-118800000D03*
%TO.N,/RGB Signalling/SIG_IN_RGB3*%
X93600000Y-117400000D03*
%TO.N,/RGB Signalling/SIG_IN_RGB2*%
X93400000Y-112400000D03*
%TO.N,/RGB Signalling/SIG_IN_RGB1*%
X97600000Y-114200000D03*
%TO.N,/RGB Signalling/SIG_IN_PWM0*%
X118000000Y-108400000D03*
%TO.N,/Coral Micro Breakouts/PWM_1*%
X113200000Y-53800000D03*
%TO.N,/Coral Micro Breakouts/SDA*%
X116000000Y-53800000D03*
%TO.N,/Coral Micro Breakouts/SCL*%
X119200000Y-53800000D03*
%TO.N,/RGB Signalling/SIG_IN_RGB1*%
X112200000Y-108400000D03*
%TD*%
D20*
%TO.N,/Coral Micro Breakouts/+1.8VDC_RGB*%
X117738000Y-105875000D02*
X120800000Y-105875000D01*
X120800000Y-105875000D02*
X120800000Y-100875000D01*
X120800000Y-100875000D02*
X120600000Y-100675000D01*
D21*
%TO.N,/RGB Signalling/SIG_IN_RGB1*%
X96801760Y-113401760D02*
X97600000Y-114200000D01*
X96801760Y-113398680D02*
X96801760Y-113401760D01*
D20*
%TO.N,/Coral Micro Breakouts/+1.8VDC_RGB*%
X120600000Y-100675000D02*
X120600000Y-99700000D01*
X120600000Y-99700000D02*
X101948680Y-81048680D01*
X101948680Y-81048680D02*
X101746760Y-81048680D01*
D21*
%TO.N,/RGB Signalling/SIG_IN_RGB3*%
X93801320Y-117198680D02*
X93600000Y-117400000D01*
X94971760Y-117198680D02*
X93801320Y-117198680D01*
X97598680Y-123198680D02*
X98000000Y-123600000D01*
X96801760Y-123198680D02*
X97598680Y-123198680D01*
%TO.N,/RGB Signalling/SIG_IN_RGB2*%
X97298680Y-118298680D02*
X97800000Y-118800000D01*
X96801760Y-118298680D02*
X97298680Y-118298680D01*
X93501320Y-112298680D02*
X93400000Y-112400000D01*
X94971760Y-112298680D02*
X93501320Y-112298680D01*
%TO.N,/RGB Signalling/SIG_IN_RGB1*%
X111862000Y-106525000D02*
X111862000Y-108062000D01*
X111862000Y-108062000D02*
X112200000Y-108400000D01*
%TO.N,/RGB Signalling/SIG_IN_PWM0*%
X117738000Y-108138000D02*
X118000000Y-108400000D01*
X117738000Y-106525000D02*
X117738000Y-108138000D01*
%TO.N,/Coral Micro Breakouts/PWM_1*%
X112915000Y-53515000D02*
X113200000Y-53800000D01*
X112915000Y-51275000D02*
X112915000Y-53515000D01*
%TO.N,/Coral Micro Breakouts/SCL*%
X119035000Y-53635000D02*
X119200000Y-53800000D01*
X119035000Y-51275000D02*
X119035000Y-53635000D01*
%TO.N,/Coral Micro Breakouts/SDA*%
X115975000Y-53775000D02*
X116000000Y-53800000D01*
X115975000Y-51275000D02*
X115975000Y-53775000D01*
D20*
%TO.N,/Coral Micro Breakouts/+1.8VDC_RGB*%
X120600000Y-100675000D02*
X117738000Y-100675000D01*
%TO.N,/Coral Micro Breakouts/+5VDC*%
X111862000Y-105875000D02*
X109725000Y-105875000D01*
X109725000Y-105875000D02*
X107059260Y-108540740D01*
X107059260Y-108540740D02*
X105659260Y-108540740D01*
%TO.N,/Coral Micro Breakouts/+1.8VDC_TOF*%
X111385000Y-62985000D02*
X112400000Y-64000000D01*
X111385000Y-51275000D02*
X111385000Y-62985000D01*
X123625000Y-51275000D02*
X123625000Y-64000000D01*
X123625000Y-64000000D02*
X123625000Y-77825000D01*
X112400000Y-64000000D02*
X123625000Y-64000000D01*
X123625000Y-77825000D02*
X126848680Y-81048680D01*
X126848680Y-81048680D02*
X129686760Y-81048680D01*
%TO.N,/Coral Micro Breakouts/+3.3VDC*%
X132800000Y-58920000D02*
X132800000Y-83400000D01*
X125155000Y-51275000D02*
X132800000Y-58920000D01*
X132800000Y-83400000D02*
X132611320Y-83588680D01*
X132611320Y-83588680D02*
X129686760Y-83588680D01*
%TO.N,/Coral Micro Breakouts/+5VDC*%
X105659260Y-106648680D02*
X105659260Y-108540740D01*
X105659260Y-108540740D02*
X102686760Y-111513240D01*
X102686760Y-111513240D02*
X102686760Y-112448680D01*
X96801760Y-112298680D02*
X102536760Y-112298680D01*
X102536760Y-112298680D02*
X102686760Y-112448680D01*
X96801760Y-117198680D02*
X101936760Y-117198680D01*
X101936760Y-117198680D02*
X102686760Y-116448680D01*
X102686760Y-120448680D02*
X102551320Y-120448680D01*
X102551320Y-120448680D02*
X100901320Y-122098680D01*
X100901320Y-122098680D02*
X96801760Y-122098680D01*
X102686760Y-120448680D02*
X102686760Y-116448680D01*
X102686760Y-112448680D02*
X102686760Y-116448680D01*
X101746760Y-106448680D02*
X105459260Y-106448680D01*
X105459260Y-106448680D02*
X105659260Y-106648680D01*
%TD*%
%TA.AperFunction,Conductor*%
%TO.N,GND*%
G36*
X120361539Y-101076185D02*
G01*
X120407294Y-101128989D01*
X120418500Y-101180500D01*
X120418500Y-105369500D01*
X120398815Y-105436539D01*
X120346011Y-105482294D01*
X120294500Y-105493500D01*
X119100000Y-105493500D01*
X119032961Y-105473815D01*
X118987206Y-105421011D01*
X118976000Y-105369500D01*
X118975999Y-104952128D01*
X118975998Y-104952111D01*
X118971820Y-104913253D01*
X118971820Y-104886745D01*
X118976000Y-104847873D01*
X118975999Y-104302128D01*
X118975999Y-104302127D01*
X118975998Y-104302111D01*
X118971820Y-104263253D01*
X118971820Y-104236745D01*
X118976000Y-104197873D01*
X118975999Y-103652128D01*
X118975999Y-103652127D01*
X118975998Y-103652111D01*
X118971820Y-103613253D01*
X118971820Y-103586745D01*
X118976000Y-103547873D01*
X118975999Y-103002128D01*
X118975999Y-103002127D01*
X118975998Y-103002111D01*
X118971820Y-102963253D01*
X118971820Y-102936745D01*
X118976000Y-102897873D01*
X118975999Y-102352128D01*
X118975999Y-102352127D01*
X118975998Y-102352111D01*
X118971820Y-102313253D01*
X118971820Y-102286745D01*
X118976000Y-102247873D01*
X118975999Y-101702128D01*
X118975999Y-101702127D01*
X118975998Y-101702111D01*
X118971820Y-101663253D01*
X118971820Y-101636745D01*
X118976000Y-101597873D01*
X118975999Y-101180499D01*
X118995683Y-101113461D01*
X119048487Y-101067706D01*
X119099999Y-101056500D01*
X120294500Y-101056500D01*
X120361539Y-101076185D01*
G37*
%TD.AperFunction*%
%TA.AperFunction,Conductor*%
G36*
X126034611Y-52694385D02*
G01*
X126039430Y-52698953D01*
X132382181Y-59041704D01*
X132415666Y-59103027D01*
X132418500Y-59129385D01*
X132418500Y-83083180D01*
X132398815Y-83150219D01*
X132346011Y-83195974D01*
X132294500Y-83207180D01*
X130980875Y-83207180D01*
X130913836Y-83187495D01*
X130868493Y-83135585D01*
X130784294Y-82955019D01*
X130657586Y-82774060D01*
X130501380Y-82617854D01*
X130501376Y-82617851D01*
X130501375Y-82617850D01*
X130320426Y-82491148D01*
X130320418Y-82491144D01*
X130191571Y-82431062D01*
X130139131Y-82384890D01*
X130119979Y-82317697D01*
X130140195Y-82250815D01*
X130191571Y-82206298D01*
X130197562Y-82203504D01*
X130320422Y-82146214D01*
X130501380Y-82019506D01*
X130657586Y-81863300D01*
X130784294Y-81682342D01*
X130877654Y-81482130D01*
X130934830Y-81268748D01*
X130954083Y-81048680D01*
X130934830Y-80828612D01*
X130877654Y-80615230D01*
X130784294Y-80415019D01*
X130657586Y-80234060D01*
X130501380Y-80077854D01*
X130501376Y-80077851D01*
X130501375Y-80077850D01*
X130384845Y-79996255D01*
X130341220Y-79941678D01*
X130334026Y-79872180D01*
X130365549Y-79809825D01*
X130425779Y-79774411D01*
X130455968Y-79770680D01*
X130496588Y-79770680D01*
X130496604Y-79770679D01*
X130556132Y-79764278D01*
X130556139Y-79764276D01*
X130690846Y-79714034D01*
X130690853Y-79714030D01*
X130805947Y-79627870D01*
X130805950Y-79627867D01*
X130892110Y-79512773D01*
X130892114Y-79512766D01*
X130942356Y-79378059D01*
X130942358Y-79378052D01*
X130948759Y-79318524D01*
X130948760Y-79318507D01*
X130948760Y-78758680D01*
X130129011Y-78758680D01*
X130160141Y-78704761D01*
X130194760Y-78575560D01*
X130194760Y-78441800D01*
X130160141Y-78312599D01*
X130129011Y-78258680D01*
X130948760Y-78258680D01*
X130948760Y-77698852D01*
X130948759Y-77698835D01*
X130942358Y-77639307D01*
X130942356Y-77639300D01*
X130892114Y-77504593D01*
X130892110Y-77504586D01*
X130805950Y-77389492D01*
X130805947Y-77389489D01*
X130690853Y-77303329D01*
X130690846Y-77303325D01*
X130556139Y-77253083D01*
X130556132Y-77253081D01*
X130496604Y-77246680D01*
X129936760Y-77246680D01*
X129936760Y-78066428D01*
X129882841Y-78035299D01*
X129753640Y-78000680D01*
X129619880Y-78000680D01*
X129490679Y-78035299D01*
X129436760Y-78066428D01*
X129436760Y-77246680D01*
X128876915Y-77246680D01*
X128817387Y-77253081D01*
X128817380Y-77253083D01*
X128682673Y-77303325D01*
X128682666Y-77303329D01*
X128567572Y-77389489D01*
X128567569Y-77389492D01*
X128481409Y-77504586D01*
X128481405Y-77504593D01*
X128431163Y-77639300D01*
X128431161Y-77639307D01*
X128424760Y-77698835D01*
X128424760Y-78258680D01*
X129244509Y-78258680D01*
X129213379Y-78312599D01*
X129178760Y-78441800D01*
X129178760Y-78575560D01*
X129213379Y-78704761D01*
X129244509Y-78758680D01*
X128424760Y-78758680D01*
X128424760Y-79318524D01*
X128431161Y-79378052D01*
X128431163Y-79378059D01*
X128481405Y-79512766D01*
X128481409Y-79512773D01*
X128567569Y-79627867D01*
X128567572Y-79627870D01*
X128682666Y-79714030D01*
X128682673Y-79714034D01*
X128817380Y-79764276D01*
X128817387Y-79764278D01*
X128876915Y-79770679D01*
X128876932Y-79770680D01*
X128917553Y-79770680D01*
X128984592Y-79790365D01*
X129030347Y-79843169D01*
X129040291Y-79912327D01*
X129011266Y-79975883D01*
X128988676Y-79996255D01*
X128872137Y-80077855D01*
X128715935Y-80234057D01*
X128589226Y-80415018D01*
X128589225Y-80415020D01*
X128505027Y-80595585D01*
X128458855Y-80648024D01*
X128392645Y-80667180D01*
X127058065Y-80667180D01*
X126991026Y-80647495D01*
X126970384Y-80630861D01*
X124042819Y-77703296D01*
X124009334Y-77641973D01*
X124006500Y-77615615D01*
X124006500Y-75413003D01*
X124026185Y-75345964D01*
X124078989Y-75300209D01*
X124148147Y-75290265D01*
X124211703Y-75319290D01*
X124243550Y-75364093D01*
X124244181Y-75363802D01*
X124245597Y-75366862D01*
X124410695Y-75678269D01*
X124608498Y-75970006D01*
X124608505Y-75970016D01*
X124836685Y-76238649D01*
X124836686Y-76238650D01*
X125092580Y-76481046D01*
X125373182Y-76694354D01*
X125675202Y-76876074D01*
X125675206Y-76876075D01*
X125675210Y-76876078D01*
X125995088Y-77024070D01*
X125995092Y-77024070D01*
X125995099Y-77024074D01*
X126329122Y-77136619D01*
X126673355Y-77212391D01*
X127023763Y-77250500D01*
X127023769Y-77250500D01*
X127376231Y-77250500D01*
X127376237Y-77250500D01*
X127726645Y-77212391D01*
X128070878Y-77136619D01*
X128404901Y-77024074D01*
X128404908Y-77024070D01*
X128404911Y-77024070D01*
X128724789Y-76876078D01*
X128724798Y-76876074D01*
X129026818Y-76694354D01*
X129307420Y-76481046D01*
X129563314Y-76238650D01*
X129791501Y-75970008D01*
X129989305Y-75678269D01*
X130154407Y-75366854D01*
X130284871Y-75039414D01*
X130379168Y-74699788D01*
X130436191Y-74351957D01*
X130455274Y-74000000D01*
X130436191Y-73648043D01*
X130379168Y-73300212D01*
X130336704Y-73147271D01*
X130284873Y-72960591D01*
X130284872Y-72960589D01*
X130154411Y-72633155D01*
X130154402Y-72633137D01*
X129989304Y-72321730D01*
X129791501Y-72029992D01*
X129791497Y-72029987D01*
X129791494Y-72029983D01*
X129563314Y-71761350D01*
X129307420Y-71518954D01*
X129307413Y-71518948D01*
X129307410Y-71518946D01*
X129026815Y-71305644D01*
X128724802Y-71123928D01*
X128724789Y-71123921D01*
X128404911Y-70975929D01*
X128404906Y-70975928D01*
X128404903Y-70975927D01*
X128404901Y-70975926D01*
X128298432Y-70940052D01*
X128070880Y-70863381D01*
X127726643Y-70787608D01*
X127376238Y-70749500D01*
X127376237Y-70749500D01*
X127023763Y-70749500D01*
X127023761Y-70749500D01*
X126673356Y-70787608D01*
X126329119Y-70863381D01*
X125995093Y-70975928D01*
X125995088Y-70975929D01*
X125675210Y-71123921D01*
X125675197Y-71123928D01*
X125373184Y-71305644D01*
X125092589Y-71518946D01*
X125092580Y-71518954D01*
X124836685Y-71761350D01*
X124608505Y-72029983D01*
X124608498Y-72029993D01*
X124410695Y-72321730D01*
X124245597Y-72633137D01*
X124244181Y-72636198D01*
X124243392Y-72635833D01*
X124202584Y-72687891D01*
X124136593Y-72710846D01*
X124068667Y-72694479D01*
X124020373Y-72643987D01*
X124006500Y-72586996D01*
X124006500Y-53059256D01*
X124026185Y-52992217D01*
X124061610Y-52956154D01*
X124163646Y-52887975D01*
X124167162Y-52885626D01*
X124285626Y-52767162D01*
X124286894Y-52765263D01*
X124287817Y-52764492D01*
X124289490Y-52762454D01*
X124289876Y-52762771D01*
X124340504Y-52720456D01*
X124409828Y-52711745D01*
X124472858Y-52741896D01*
X124493106Y-52765264D01*
X124494375Y-52767164D01*
X124612837Y-52885626D01*
X124677142Y-52928593D01*
X124752137Y-52978703D01*
X124752138Y-52978703D01*
X124752139Y-52978704D01*
X124773498Y-52987551D01*
X124906918Y-53042816D01*
X125060339Y-53073333D01*
X125071228Y-53075499D01*
X125071232Y-53075500D01*
X125071233Y-53075500D01*
X125238768Y-53075500D01*
X125238769Y-53075499D01*
X125403082Y-53042816D01*
X125557863Y-52978703D01*
X125697162Y-52885626D01*
X125815626Y-52767162D01*
X125848647Y-52717743D01*
X125902259Y-52672938D01*
X125971584Y-52664231D01*
X126034611Y-52694385D01*
G37*
%TD.AperFunction*%
%TA.AperFunction,Conductor*%
G36*
X138942770Y-48019685D02*
G01*
X138988525Y-48072489D01*
X138999731Y-48124268D01*
X138805655Y-137787006D01*
X138785825Y-137854003D01*
X138732922Y-137899644D01*
X138663742Y-137909437D01*
X138600250Y-137880275D01*
X138562603Y-137821415D01*
X138561901Y-137818908D01*
X138508606Y-137620007D01*
X138418284Y-137401951D01*
X138418282Y-137401948D01*
X138418280Y-137401943D01*
X138339755Y-137265935D01*
X138300273Y-137197550D01*
X138156592Y-137010301D01*
X138156587Y-137010295D01*
X137989704Y-136843412D01*
X137989697Y-136843406D01*
X137802454Y-136699730D01*
X137802453Y-136699729D01*
X137802450Y-136699727D01*
X137713168Y-136648180D01*
X137598056Y-136581719D01*
X137598045Y-136581714D01*
X137379993Y-136491394D01*
X137152010Y-136430306D01*
X136918020Y-136399501D01*
X136918017Y-136399500D01*
X136918011Y-136399500D01*
X136681989Y-136399500D01*
X136681983Y-136399500D01*
X136681979Y-136399501D01*
X136447989Y-136430306D01*
X136220006Y-136491394D01*
X136001954Y-136581714D01*
X136001943Y-136581719D01*
X135797545Y-136699730D01*
X135610302Y-136843406D01*
X135610295Y-136843412D01*
X135443412Y-137010295D01*
X135443406Y-137010302D01*
X135299730Y-137197545D01*
X135181719Y-137401943D01*
X135181714Y-137401954D01*
X135091394Y-137620006D01*
X135030306Y-137847989D01*
X134999501Y-138081979D01*
X134999500Y-138081995D01*
X134999500Y-138318004D01*
X134999501Y-138318020D01*
X135030306Y-138552010D01*
X135091394Y-138779993D01*
X135181714Y-138998045D01*
X135181719Y-138998056D01*
X135252677Y-139120957D01*
X135299727Y-139202450D01*
X135299729Y-139202453D01*
X135299730Y-139202454D01*
X135443406Y-139389697D01*
X135443412Y-139389704D01*
X135610295Y-139556587D01*
X135610301Y-139556592D01*
X135797550Y-139700273D01*
X135928918Y-139776118D01*
X136001943Y-139818280D01*
X136001948Y-139818282D01*
X136001951Y-139818284D01*
X136220007Y-139908606D01*
X136447986Y-139969693D01*
X136681989Y-140000500D01*
X136681996Y-140000500D01*
X136918004Y-140000500D01*
X136918011Y-140000500D01*
X137152014Y-139969693D01*
X137379993Y-139908606D01*
X137598049Y-139818284D01*
X137802450Y-139700273D01*
X137989699Y-139556592D01*
X138156592Y-139389699D01*
X138300273Y-139202450D01*
X138418284Y-138998049D01*
X138508606Y-138779993D01*
X138560078Y-138587897D01*
X138596442Y-138528238D01*
X138659289Y-138497709D01*
X138728664Y-138506004D01*
X138782542Y-138550489D01*
X138803817Y-138617041D01*
X138803852Y-138620260D01*
X138802724Y-139141632D01*
X138800932Y-139969693D01*
X138800268Y-140276268D01*
X138780438Y-140343265D01*
X138727535Y-140388906D01*
X138676268Y-140400000D01*
X91123732Y-140400000D01*
X91056693Y-140380315D01*
X91010938Y-140327511D01*
X90999732Y-140276268D01*
X90999135Y-140000498D01*
X90997276Y-139141631D01*
X91016816Y-139074550D01*
X91069521Y-139028681D01*
X91138657Y-139018588D01*
X91202276Y-139047476D01*
X91228661Y-139079361D01*
X91299727Y-139202450D01*
X91299730Y-139202454D01*
X91299732Y-139202457D01*
X91443406Y-139389697D01*
X91443412Y-139389704D01*
X91610295Y-139556587D01*
X91610301Y-139556592D01*
X91797550Y-139700273D01*
X91928918Y-139776118D01*
X92001943Y-139818280D01*
X92001948Y-139818282D01*
X92001951Y-139818284D01*
X92220007Y-139908606D01*
X92447986Y-139969693D01*
X92681989Y-140000500D01*
X92681996Y-140000500D01*
X92918004Y-140000500D01*
X92918011Y-140000500D01*
X93152014Y-139969693D01*
X93379993Y-139908606D01*
X93598049Y-139818284D01*
X93802450Y-139700273D01*
X93989699Y-139556592D01*
X94156592Y-139389699D01*
X94300273Y-139202450D01*
X94418284Y-138998049D01*
X94508606Y-138779993D01*
X94569693Y-138552014D01*
X94600500Y-138318011D01*
X94600500Y-138081989D01*
X94569693Y-137847986D01*
X94569249Y-137846328D01*
X108386260Y-137846328D01*
X108386260Y-138051031D01*
X108418282Y-138253214D01*
X108481541Y-138447903D01*
X108533812Y-138550489D01*
X108569362Y-138620260D01*
X108574475Y-138630293D01*
X108694788Y-138795893D01*
X108839546Y-138940651D01*
X108986581Y-139047476D01*
X109005150Y-139060967D01*
X109121367Y-139120183D01*
X109187536Y-139153898D01*
X109187538Y-139153898D01*
X109187541Y-139153900D01*
X109291897Y-139187807D01*
X109382225Y-139217157D01*
X109483317Y-139233168D01*
X109584408Y-139249180D01*
X109584409Y-139249180D01*
X109789111Y-139249180D01*
X109789112Y-139249180D01*
X109991294Y-139217157D01*
X110185979Y-139153900D01*
X110368370Y-139060967D01*
X110461350Y-138993412D01*
X110533973Y-138940651D01*
X110533975Y-138940648D01*
X110533979Y-138940646D01*
X110678726Y-138795899D01*
X110678728Y-138795895D01*
X110678731Y-138795893D01*
X110731492Y-138723270D01*
X110799047Y-138630290D01*
X110891980Y-138447899D01*
X110955237Y-138253214D01*
X110987260Y-138051032D01*
X110987260Y-137846328D01*
X120386260Y-137846328D01*
X120386260Y-138051031D01*
X120418282Y-138253214D01*
X120481541Y-138447903D01*
X120533812Y-138550489D01*
X120569362Y-138620260D01*
X120574475Y-138630293D01*
X120694788Y-138795893D01*
X120839546Y-138940651D01*
X120986581Y-139047476D01*
X121005150Y-139060967D01*
X121121367Y-139120183D01*
X121187536Y-139153898D01*
X121187538Y-139153898D01*
X121187541Y-139153900D01*
X121291897Y-139187807D01*
X121382225Y-139217157D01*
X121483317Y-139233168D01*
X121584408Y-139249180D01*
X121584409Y-139249180D01*
X121789111Y-139249180D01*
X121789112Y-139249180D01*
X121991294Y-139217157D01*
X122185979Y-139153900D01*
X122368370Y-139060967D01*
X122461350Y-138993412D01*
X122533973Y-138940651D01*
X122533975Y-138940648D01*
X122533979Y-138940646D01*
X122678726Y-138795899D01*
X122678728Y-138795895D01*
X122678731Y-138795893D01*
X122731492Y-138723270D01*
X122799047Y-138630290D01*
X122891980Y-138447899D01*
X122955237Y-138253214D01*
X122987260Y-138051032D01*
X122987260Y-137846328D01*
X122955237Y-137644146D01*
X122947393Y-137620006D01*
X122891978Y-137449456D01*
X122854490Y-137375883D01*
X122799047Y-137267070D01*
X122791316Y-137256429D01*
X122678731Y-137101466D01*
X122533973Y-136956708D01*
X122368373Y-136836395D01*
X122368372Y-136836394D01*
X122368370Y-136836393D01*
X122311413Y-136807371D01*
X122185983Y-136743461D01*
X121991294Y-136680202D01*
X121816755Y-136652558D01*
X121789112Y-136648180D01*
X121584408Y-136648180D01*
X121560089Y-136652031D01*
X121382225Y-136680202D01*
X121187536Y-136743461D01*
X121005146Y-136836395D01*
X120839546Y-136956708D01*
X120694788Y-137101466D01*
X120574475Y-137267066D01*
X120481541Y-137449456D01*
X120418282Y-137644145D01*
X120386260Y-137846328D01*
X110987260Y-137846328D01*
X110955237Y-137644146D01*
X110947393Y-137620006D01*
X110891978Y-137449456D01*
X110854490Y-137375883D01*
X110799047Y-137267070D01*
X110791316Y-137256429D01*
X110678731Y-137101466D01*
X110533973Y-136956708D01*
X110368373Y-136836395D01*
X110368372Y-136836394D01*
X110368370Y-136836393D01*
X110311413Y-136807371D01*
X110185983Y-136743461D01*
X109991294Y-136680202D01*
X109816755Y-136652558D01*
X109789112Y-136648180D01*
X109584408Y-136648180D01*
X109560089Y-136652031D01*
X109382225Y-136680202D01*
X109187536Y-136743461D01*
X109005146Y-136836395D01*
X108839546Y-136956708D01*
X108694788Y-137101466D01*
X108574475Y-137267066D01*
X108481541Y-137449456D01*
X108418282Y-137644145D01*
X108386260Y-137846328D01*
X94569249Y-137846328D01*
X94508606Y-137620007D01*
X94418284Y-137401951D01*
X94418282Y-137401948D01*
X94418280Y-137401943D01*
X94339755Y-137265935D01*
X94300273Y-137197550D01*
X94156592Y-137010301D01*
X94156587Y-137010295D01*
X93989704Y-136843412D01*
X93989697Y-136843406D01*
X93802454Y-136699730D01*
X93802453Y-136699729D01*
X93802450Y-136699727D01*
X93713168Y-136648180D01*
X93598056Y-136581719D01*
X93598045Y-136581714D01*
X93379993Y-136491394D01*
X93152010Y-136430306D01*
X92918020Y-136399501D01*
X92918017Y-136399500D01*
X92918011Y-136399500D01*
X92681989Y-136399500D01*
X92681983Y-136399500D01*
X92681979Y-136399501D01*
X92447989Y-136430306D01*
X92220006Y-136491394D01*
X92001954Y-136581714D01*
X92001943Y-136581719D01*
X91797545Y-136699730D01*
X91610302Y-136843406D01*
X91610295Y-136843412D01*
X91443412Y-137010295D01*
X91443406Y-137010302D01*
X91299732Y-137197542D01*
X91224603Y-137327668D01*
X91174035Y-137375883D01*
X91105428Y-137389105D01*
X91040563Y-137363137D01*
X91000036Y-137306222D01*
X90993216Y-137265935D01*
X90992301Y-136843412D01*
X90981817Y-131999997D01*
X100944726Y-131999997D01*
X100944726Y-132000002D01*
X100963808Y-132351954D01*
X101020833Y-132699793D01*
X101020834Y-132699796D01*
X101115126Y-133039408D01*
X101115127Y-133039410D01*
X101245588Y-133366844D01*
X101245597Y-133366862D01*
X101410695Y-133678269D01*
X101608498Y-133970006D01*
X101608505Y-133970016D01*
X101836685Y-134238649D01*
X101836686Y-134238650D01*
X102092580Y-134481046D01*
X102373182Y-134694354D01*
X102675202Y-134876074D01*
X102675206Y-134876075D01*
X102675210Y-134876078D01*
X102995088Y-135024070D01*
X102995092Y-135024070D01*
X102995099Y-135024074D01*
X103329122Y-135136619D01*
X103673355Y-135212391D01*
X104023763Y-135250500D01*
X104023769Y-135250500D01*
X104376231Y-135250500D01*
X104376237Y-135250500D01*
X104726645Y-135212391D01*
X105070878Y-135136619D01*
X105404901Y-135024074D01*
X105404908Y-135024070D01*
X105404911Y-135024070D01*
X105724789Y-134876078D01*
X105724798Y-134876074D01*
X106026818Y-134694354D01*
X106307420Y-134481046D01*
X106563314Y-134238650D01*
X106791501Y-133970008D01*
X106989305Y-133678269D01*
X107154407Y-133366854D01*
X107284871Y-133039414D01*
X107379168Y-132699788D01*
X107436191Y-132351957D01*
X107455274Y-132000000D01*
X107455274Y-131999997D01*
X123944726Y-131999997D01*
X123944726Y-132000002D01*
X123963808Y-132351954D01*
X124020833Y-132699793D01*
X124020834Y-132699796D01*
X124115126Y-133039408D01*
X124115127Y-133039410D01*
X124245588Y-133366844D01*
X124245597Y-133366862D01*
X124410695Y-133678269D01*
X124608498Y-133970006D01*
X124608505Y-133970016D01*
X124836685Y-134238649D01*
X124836686Y-134238650D01*
X125092580Y-134481046D01*
X125373182Y-134694354D01*
X125675202Y-134876074D01*
X125675206Y-134876075D01*
X125675210Y-134876078D01*
X125995088Y-135024070D01*
X125995092Y-135024070D01*
X125995099Y-135024074D01*
X126329122Y-135136619D01*
X126673355Y-135212391D01*
X127023763Y-135250500D01*
X127023769Y-135250500D01*
X127376231Y-135250500D01*
X127376237Y-135250500D01*
X127726645Y-135212391D01*
X128070878Y-135136619D01*
X128404901Y-135024074D01*
X128404908Y-135024070D01*
X128404911Y-135024070D01*
X128724789Y-134876078D01*
X128724798Y-134876074D01*
X129026818Y-134694354D01*
X129307420Y-134481046D01*
X129563314Y-134238650D01*
X129791501Y-133970008D01*
X129989305Y-133678269D01*
X130154407Y-133366854D01*
X130284871Y-133039414D01*
X130379168Y-132699788D01*
X130436191Y-132351957D01*
X130455274Y-132000000D01*
X130436191Y-131648043D01*
X130379168Y-131300212D01*
X130336704Y-131147271D01*
X130284873Y-130960591D01*
X130284872Y-130960589D01*
X130154411Y-130633155D01*
X130154402Y-130633137D01*
X129989304Y-130321730D01*
X129791501Y-130029992D01*
X129791497Y-130029987D01*
X129791494Y-130029983D01*
X129563314Y-129761350D01*
X129307420Y-129518954D01*
X129307413Y-129518948D01*
X129307410Y-129518946D01*
X129026815Y-129305644D01*
X128724802Y-129123928D01*
X128724789Y-129123921D01*
X128404911Y-128975929D01*
X128404906Y-128975928D01*
X128404903Y-128975927D01*
X128404901Y-128975926D01*
X128298432Y-128940052D01*
X128070880Y-128863381D01*
X127726643Y-128787608D01*
X127376238Y-128749500D01*
X127376237Y-128749500D01*
X127023763Y-128749500D01*
X127023761Y-128749500D01*
X126673356Y-128787608D01*
X126329119Y-128863381D01*
X125995093Y-128975928D01*
X125995088Y-128975929D01*
X125675210Y-129123921D01*
X125675197Y-129123928D01*
X125373184Y-129305644D01*
X125092589Y-129518946D01*
X125092580Y-129518954D01*
X124836685Y-129761350D01*
X124608505Y-130029983D01*
X124608498Y-130029993D01*
X124410695Y-130321730D01*
X124245597Y-130633137D01*
X124245588Y-130633155D01*
X124115127Y-130960589D01*
X124115126Y-130960591D01*
X124020834Y-131300203D01*
X124020833Y-131300206D01*
X123963808Y-131648045D01*
X123944726Y-131999997D01*
X107455274Y-131999997D01*
X107436191Y-131648043D01*
X107379168Y-131300212D01*
X107336704Y-131147271D01*
X107284873Y-130960591D01*
X107284872Y-130960589D01*
X107154411Y-130633155D01*
X107154402Y-130633137D01*
X106989304Y-130321730D01*
X106791501Y-130029992D01*
X106791497Y-130029987D01*
X106791494Y-130029983D01*
X106563314Y-129761350D01*
X106307420Y-129518954D01*
X106307413Y-129518948D01*
X106307410Y-129518946D01*
X106026815Y-129305644D01*
X105724802Y-129123928D01*
X105724789Y-129123921D01*
X105404911Y-128975929D01*
X105404906Y-128975928D01*
X105404903Y-128975927D01*
X105404901Y-128975926D01*
X105298432Y-128940052D01*
X105070880Y-128863381D01*
X104726643Y-128787608D01*
X104376238Y-128749500D01*
X104376237Y-128749500D01*
X104023763Y-128749500D01*
X104023761Y-128749500D01*
X103673356Y-128787608D01*
X103329119Y-128863381D01*
X102995093Y-128975928D01*
X102995088Y-128975929D01*
X102675210Y-129123921D01*
X102675197Y-129123928D01*
X102373184Y-129305644D01*
X102092589Y-129518946D01*
X102092580Y-129518954D01*
X101836685Y-129761350D01*
X101608505Y-130029983D01*
X101608498Y-130029993D01*
X101410695Y-130321730D01*
X101245597Y-130633137D01*
X101245588Y-130633155D01*
X101115127Y-130960589D01*
X101115126Y-130960591D01*
X101020834Y-131300203D01*
X101020833Y-131300206D01*
X100963808Y-131648045D01*
X100944726Y-131999997D01*
X90981817Y-131999997D01*
X90963628Y-123596524D01*
X94121760Y-123596524D01*
X94128161Y-123656052D01*
X94128163Y-123656059D01*
X94178405Y-123790766D01*
X94178409Y-123790773D01*
X94264569Y-123905867D01*
X94264572Y-123905870D01*
X94379666Y-123992030D01*
X94379673Y-123992034D01*
X94514380Y-124042276D01*
X94514387Y-124042278D01*
X94573915Y-124048679D01*
X94573932Y-124048680D01*
X94721760Y-124048680D01*
X94721760Y-123448680D01*
X94121760Y-123448680D01*
X94121760Y-123596524D01*
X90963628Y-123596524D01*
X90953022Y-118696524D01*
X94121760Y-118696524D01*
X94128161Y-118756052D01*
X94128163Y-118756059D01*
X94178405Y-118890766D01*
X94178409Y-118890773D01*
X94264569Y-119005867D01*
X94264572Y-119005870D01*
X94379666Y-119092030D01*
X94379673Y-119092034D01*
X94514380Y-119142276D01*
X94514387Y-119142278D01*
X94573915Y-119148679D01*
X94573932Y-119148680D01*
X94721760Y-119148680D01*
X94721760Y-118548680D01*
X94121760Y-118548680D01*
X94121760Y-118696524D01*
X90953022Y-118696524D01*
X90942416Y-113796524D01*
X94121760Y-113796524D01*
X94128161Y-113856052D01*
X94128163Y-113856059D01*
X94178405Y-113990766D01*
X94178409Y-113990773D01*
X94264569Y-114105867D01*
X94264572Y-114105870D01*
X94379666Y-114192030D01*
X94379673Y-114192034D01*
X94514380Y-114242276D01*
X94514387Y-114242278D01*
X94573915Y-114248679D01*
X94573932Y-114248680D01*
X94721760Y-114248680D01*
X94721760Y-113648680D01*
X94121760Y-113648680D01*
X94121760Y-113796524D01*
X90942416Y-113796524D01*
X90939393Y-112399996D01*
X92627945Y-112399996D01*
X92627945Y-112400003D01*
X92647301Y-112571795D01*
X92704402Y-112734983D01*
X92796382Y-112881367D01*
X92918632Y-113003617D01*
X93012481Y-113062587D01*
X93065018Y-113095598D01*
X93228202Y-113152698D01*
X93285468Y-113159150D01*
X93399996Y-113172055D01*
X93400000Y-113172055D01*
X93400004Y-113172055D01*
X93498170Y-113160993D01*
X93571798Y-113152698D01*
X93734982Y-113095598D01*
X93881368Y-113003617D01*
X93910079Y-112974906D01*
X93971402Y-112941421D01*
X94041094Y-112946405D01*
X94097027Y-112988277D01*
X94121444Y-113053741D01*
X94121760Y-113062587D01*
X94121760Y-113148680D01*
X94562593Y-113148680D01*
X94570571Y-113149107D01*
X94570577Y-113149002D01*
X94573862Y-113149177D01*
X94573887Y-113149180D01*
X94847762Y-113149179D01*
X94914799Y-113168863D01*
X94960554Y-113221667D01*
X94971760Y-113273179D01*
X94971760Y-113398680D01*
X95097760Y-113398680D01*
X95164799Y-113418365D01*
X95210554Y-113471169D01*
X95221760Y-113522680D01*
X95221760Y-114248680D01*
X95369588Y-114248680D01*
X95369604Y-114248679D01*
X95429132Y-114242278D01*
X95429139Y-114242276D01*
X95563846Y-114192034D01*
X95563853Y-114192030D01*
X95678947Y-114105870D01*
X95678950Y-114105867D01*
X95765110Y-113990773D01*
X95765114Y-113990766D01*
X95770310Y-113976835D01*
X95812180Y-113920900D01*
X95877644Y-113896481D01*
X95945917Y-113911331D01*
X95995324Y-113960735D01*
X96002675Y-113976831D01*
X96007963Y-113991010D01*
X96007966Y-113991015D01*
X96094212Y-114106224D01*
X96094215Y-114106227D01*
X96209424Y-114192473D01*
X96209431Y-114192477D01*
X96229591Y-114199996D01*
X96344277Y-114242771D01*
X96403887Y-114249180D01*
X96722672Y-114249179D01*
X96789711Y-114268863D01*
X96835466Y-114321667D01*
X96845892Y-114359292D01*
X96847301Y-114371794D01*
X96847301Y-114371796D01*
X96904402Y-114534983D01*
X96996382Y-114681367D01*
X96996383Y-114681368D01*
X97118632Y-114803617D01*
X97265018Y-114895598D01*
X97428202Y-114952698D01*
X97485468Y-114959150D01*
X97599996Y-114972055D01*
X97600000Y-114972055D01*
X97600004Y-114972055D01*
X97698170Y-114960993D01*
X97771798Y-114952698D01*
X97934982Y-114895598D01*
X98081368Y-114803617D01*
X98203617Y-114681368D01*
X98295598Y-114534982D01*
X98352698Y-114371798D01*
X98367236Y-114242769D01*
X98372055Y-114200003D01*
X98372055Y-114199996D01*
X98352698Y-114028204D01*
X98352698Y-114028202D01*
X98295598Y-113865018D01*
X98203617Y-113718632D01*
X98081368Y-113596383D01*
X98081367Y-113596382D01*
X97934983Y-113504402D01*
X97771796Y-113447301D01*
X97762371Y-113446239D01*
X97697958Y-113419170D01*
X97658405Y-113361573D01*
X97652259Y-113323019D01*
X97652259Y-113000809D01*
X97652258Y-113000803D01*
X97645851Y-112941197D01*
X97644380Y-112937252D01*
X97627507Y-112892014D01*
X97622522Y-112822323D01*
X97627507Y-112805346D01*
X97644105Y-112760846D01*
X97685976Y-112704912D01*
X97751441Y-112680496D01*
X97760286Y-112680180D01*
X101644760Y-112680180D01*
X101711799Y-112699865D01*
X101757554Y-112752669D01*
X101768760Y-112804180D01*
X101768760Y-112937252D01*
X101769139Y-112941421D01*
X101775254Y-113008716D01*
X101826493Y-113173149D01*
X101826494Y-113173151D01*
X101826495Y-113173153D01*
X101915600Y-113320550D01*
X101915602Y-113320553D01*
X102037386Y-113442337D01*
X102037388Y-113442338D01*
X102037390Y-113442340D01*
X102184787Y-113531445D01*
X102218149Y-113541840D01*
X102276297Y-113580577D01*
X102304272Y-113644601D01*
X102305260Y-113660226D01*
X102305260Y-115237133D01*
X102285575Y-115304172D01*
X102232771Y-115349927D01*
X102218151Y-115355518D01*
X102184789Y-115365914D01*
X102184787Y-115365914D01*
X102184787Y-115365915D01*
X102135654Y-115395616D01*
X102037386Y-115455022D01*
X101915602Y-115576806D01*
X101826493Y-115724210D01*
X101775254Y-115888643D01*
X101768760Y-115960110D01*
X101768760Y-116693180D01*
X101749075Y-116760219D01*
X101696271Y-116805974D01*
X101644760Y-116817180D01*
X97760286Y-116817180D01*
X97693247Y-116797495D01*
X97647492Y-116744691D01*
X97644104Y-116736513D01*
X97595557Y-116606351D01*
X97595553Y-116606344D01*
X97509307Y-116491135D01*
X97509304Y-116491132D01*
X97394095Y-116404886D01*
X97394088Y-116404882D01*
X97259242Y-116354588D01*
X97259243Y-116354588D01*
X97199643Y-116348181D01*
X97199641Y-116348180D01*
X97199633Y-116348180D01*
X97199624Y-116348180D01*
X96403889Y-116348180D01*
X96403883Y-116348181D01*
X96344276Y-116354588D01*
X96209431Y-116404882D01*
X96209424Y-116404886D01*
X96094215Y-116491132D01*
X96094212Y-116491135D01*
X96007966Y-116606344D01*
X96007963Y-116606350D01*
X96002942Y-116619813D01*
X95961070Y-116675746D01*
X95895606Y-116700163D01*
X95827333Y-116685311D01*
X95777928Y-116635905D01*
X95770578Y-116619813D01*
X95768525Y-116614309D01*
X95765556Y-116606349D01*
X95765554Y-116606346D01*
X95765553Y-116606344D01*
X95679307Y-116491135D01*
X95679304Y-116491132D01*
X95564095Y-116404886D01*
X95564088Y-116404882D01*
X95429242Y-116354588D01*
X95429243Y-116354588D01*
X95369643Y-116348181D01*
X95369641Y-116348180D01*
X95369633Y-116348180D01*
X95369624Y-116348180D01*
X94573889Y-116348180D01*
X94573883Y-116348181D01*
X94514276Y-116354588D01*
X94379431Y-116404882D01*
X94379424Y-116404886D01*
X94264215Y-116491132D01*
X94264212Y-116491135D01*
X94177966Y-116606344D01*
X94177963Y-116606350D01*
X94155418Y-116666796D01*
X94113546Y-116722729D01*
X94048082Y-116747146D01*
X93979809Y-116732294D01*
X93973264Y-116728456D01*
X93934983Y-116704402D01*
X93771795Y-116647301D01*
X93600004Y-116627945D01*
X93599996Y-116627945D01*
X93428204Y-116647301D01*
X93265016Y-116704402D01*
X93118632Y-116796382D01*
X92996382Y-116918632D01*
X92904402Y-117065016D01*
X92847301Y-117228204D01*
X92827945Y-117399996D01*
X92827945Y-117400003D01*
X92847301Y-117571795D01*
X92904402Y-117734983D01*
X92996382Y-117881367D01*
X93118632Y-118003617D01*
X93222469Y-118068863D01*
X93265018Y-118095598D01*
X93428202Y-118152698D01*
X93485468Y-118159150D01*
X93599996Y-118172055D01*
X93600000Y-118172055D01*
X93600004Y-118172055D01*
X93698170Y-118160993D01*
X93771798Y-118152698D01*
X93934982Y-118095598D01*
X93994769Y-118058030D01*
X94062005Y-118039030D01*
X94093672Y-118048680D01*
X94562593Y-118048680D01*
X94570571Y-118049107D01*
X94570577Y-118049002D01*
X94573862Y-118049177D01*
X94573887Y-118049180D01*
X94847762Y-118049179D01*
X94914799Y-118068863D01*
X94960554Y-118121667D01*
X94971760Y-118173179D01*
X94971760Y-118298680D01*
X95097760Y-118298680D01*
X95164799Y-118318365D01*
X95210554Y-118371169D01*
X95221760Y-118422680D01*
X95221760Y-119148680D01*
X95369588Y-119148680D01*
X95369604Y-119148679D01*
X95429132Y-119142278D01*
X95429139Y-119142276D01*
X95563846Y-119092034D01*
X95563853Y-119092030D01*
X95678947Y-119005870D01*
X95678950Y-119005867D01*
X95765110Y-118890773D01*
X95765114Y-118890766D01*
X95770310Y-118876835D01*
X95812180Y-118820900D01*
X95877644Y-118796481D01*
X95945917Y-118811331D01*
X95995324Y-118860735D01*
X96002675Y-118876831D01*
X96007963Y-118891010D01*
X96007966Y-118891015D01*
X96094212Y-119006224D01*
X96094215Y-119006227D01*
X96209424Y-119092473D01*
X96209431Y-119092477D01*
X96254378Y-119109241D01*
X96344277Y-119142771D01*
X96403887Y-119149180D01*
X97044790Y-119149179D01*
X97111829Y-119168863D01*
X97149783Y-119207206D01*
X97196383Y-119281368D01*
X97318632Y-119403617D01*
X97465018Y-119495598D01*
X97628202Y-119552698D01*
X97685468Y-119559150D01*
X97799996Y-119572055D01*
X97800000Y-119572055D01*
X97800004Y-119572055D01*
X97898170Y-119560993D01*
X97971798Y-119552698D01*
X98134982Y-119495598D01*
X98281368Y-119403617D01*
X98403617Y-119281368D01*
X98495598Y-119134982D01*
X98552698Y-118971798D01*
X98569700Y-118820900D01*
X98572055Y-118800003D01*
X98572055Y-118799996D01*
X98552698Y-118628204D01*
X98552698Y-118628202D01*
X98495598Y-118465018D01*
X98403617Y-118318632D01*
X98281368Y-118196383D01*
X98281367Y-118196382D01*
X98134983Y-118104402D01*
X97971795Y-118047301D01*
X97800004Y-118027945D01*
X97800003Y-118027945D01*
X97800001Y-118027945D01*
X97800000Y-118027945D01*
X97790139Y-118029055D01*
X97721318Y-118016999D01*
X97669940Y-117969649D01*
X97652259Y-117905835D01*
X97652259Y-117900809D01*
X97652258Y-117900803D01*
X97646891Y-117850874D01*
X97645851Y-117841197D01*
X97627507Y-117792014D01*
X97622522Y-117722323D01*
X97627507Y-117705346D01*
X97644105Y-117660846D01*
X97685976Y-117604912D01*
X97751441Y-117580496D01*
X97760286Y-117580180D01*
X101986982Y-117580180D01*
X101986985Y-117580180D01*
X102084014Y-117554181D01*
X102097874Y-117546178D01*
X102165773Y-117529703D01*
X102196764Y-117535177D01*
X102218152Y-117541841D01*
X102276298Y-117580579D01*
X102304272Y-117644604D01*
X102305260Y-117660226D01*
X102305260Y-119237133D01*
X102285575Y-119304172D01*
X102232771Y-119349927D01*
X102218151Y-119355518D01*
X102184789Y-119365914D01*
X102184787Y-119365914D01*
X102184787Y-119365915D01*
X102135654Y-119395616D01*
X102037386Y-119455022D01*
X101915602Y-119576806D01*
X101826493Y-119724210D01*
X101775254Y-119888643D01*
X101768760Y-119960110D01*
X101768760Y-120640355D01*
X101749075Y-120707394D01*
X101732441Y-120728036D01*
X100779616Y-121680861D01*
X100718293Y-121714346D01*
X100691935Y-121717180D01*
X97760286Y-121717180D01*
X97693247Y-121697495D01*
X97647492Y-121644691D01*
X97644104Y-121636513D01*
X97595557Y-121506351D01*
X97595553Y-121506344D01*
X97509307Y-121391135D01*
X97509304Y-121391132D01*
X97394095Y-121304886D01*
X97394088Y-121304882D01*
X97259242Y-121254588D01*
X97259243Y-121254588D01*
X97199643Y-121248181D01*
X97199641Y-121248180D01*
X97199633Y-121248180D01*
X97199624Y-121248180D01*
X96403889Y-121248180D01*
X96403883Y-121248181D01*
X96344276Y-121254588D01*
X96209431Y-121304882D01*
X96209424Y-121304886D01*
X96094215Y-121391132D01*
X96094212Y-121391135D01*
X96007966Y-121506344D01*
X96007963Y-121506350D01*
X96002942Y-121519813D01*
X95961070Y-121575746D01*
X95895606Y-121600163D01*
X95827333Y-121585311D01*
X95777928Y-121535905D01*
X95770578Y-121519813D01*
X95768525Y-121514309D01*
X95765556Y-121506349D01*
X95765554Y-121506346D01*
X95765553Y-121506344D01*
X95679307Y-121391135D01*
X95679304Y-121391132D01*
X95564095Y-121304886D01*
X95564088Y-121304882D01*
X95429242Y-121254588D01*
X95429243Y-121254588D01*
X95369643Y-121248181D01*
X95369641Y-121248180D01*
X95369633Y-121248180D01*
X95369624Y-121248180D01*
X94573889Y-121248180D01*
X94573883Y-121248181D01*
X94514276Y-121254588D01*
X94379431Y-121304882D01*
X94379424Y-121304886D01*
X94264215Y-121391132D01*
X94264212Y-121391135D01*
X94177966Y-121506344D01*
X94177962Y-121506351D01*
X94127668Y-121641197D01*
X94121261Y-121700796D01*
X94121260Y-121700815D01*
X94121260Y-122496550D01*
X94121261Y-122496556D01*
X94127669Y-122556164D01*
X94146279Y-122606062D01*
X94151263Y-122675754D01*
X94146280Y-122692726D01*
X94128162Y-122741303D01*
X94128161Y-122741307D01*
X94121760Y-122800835D01*
X94121760Y-122948680D01*
X94562593Y-122948680D01*
X94570571Y-122949107D01*
X94570577Y-122949002D01*
X94573862Y-122949177D01*
X94573887Y-122949180D01*
X94847762Y-122949179D01*
X94914799Y-122968863D01*
X94960554Y-123021667D01*
X94971760Y-123073179D01*
X94971760Y-123198680D01*
X95097760Y-123198680D01*
X95164799Y-123218365D01*
X95210554Y-123271169D01*
X95221760Y-123322680D01*
X95221760Y-124048680D01*
X95369588Y-124048680D01*
X95369604Y-124048679D01*
X95429132Y-124042278D01*
X95429139Y-124042276D01*
X95563846Y-123992034D01*
X95563853Y-123992030D01*
X95678947Y-123905870D01*
X95678950Y-123905867D01*
X95765110Y-123790773D01*
X95765114Y-123790766D01*
X95770310Y-123776835D01*
X95812180Y-123720900D01*
X95877644Y-123696481D01*
X95945917Y-123711331D01*
X95995324Y-123760735D01*
X96002675Y-123776831D01*
X96007963Y-123791010D01*
X96007966Y-123791015D01*
X96094212Y-123906224D01*
X96094215Y-123906227D01*
X96209424Y-123992473D01*
X96209431Y-123992477D01*
X96344277Y-124042771D01*
X96344276Y-124042771D01*
X96351204Y-124043515D01*
X96403887Y-124049180D01*
X97199632Y-124049179D01*
X97259243Y-124042771D01*
X97266794Y-124040987D01*
X97267241Y-124042881D01*
X97326663Y-124038623D01*
X97387991Y-124072098D01*
X97395374Y-124080359D01*
X97396382Y-124081367D01*
X97396383Y-124081368D01*
X97518632Y-124203617D01*
X97665018Y-124295598D01*
X97828202Y-124352698D01*
X97885468Y-124359150D01*
X97999996Y-124372055D01*
X98000000Y-124372055D01*
X98000004Y-124372055D01*
X98098170Y-124360993D01*
X98171798Y-124352698D01*
X98334982Y-124295598D01*
X98481368Y-124203617D01*
X98603617Y-124081368D01*
X98695598Y-123934982D01*
X98752698Y-123771798D01*
X98765739Y-123656059D01*
X98772055Y-123600003D01*
X98772055Y-123599996D01*
X98752698Y-123428204D01*
X98752698Y-123428202D01*
X98695598Y-123265018D01*
X98603617Y-123118632D01*
X98481368Y-122996383D01*
X98481367Y-122996382D01*
X98334983Y-122904402D01*
X98171795Y-122847301D01*
X98000004Y-122827945D01*
X97999996Y-122827945D01*
X97828203Y-122847301D01*
X97828202Y-122847301D01*
X97810990Y-122853324D01*
X97741211Y-122856885D01*
X97680584Y-122822155D01*
X97648358Y-122760161D01*
X97646747Y-122749532D01*
X97645851Y-122741195D01*
X97627507Y-122692014D01*
X97622522Y-122622323D01*
X97627507Y-122605346D01*
X97644105Y-122560846D01*
X97685976Y-122504912D01*
X97751441Y-122480496D01*
X97760286Y-122480180D01*
X100951542Y-122480180D01*
X100951545Y-122480180D01*
X101048574Y-122454181D01*
X101135567Y-122403956D01*
X101206596Y-122332927D01*
X101206596Y-122332926D01*
X102005960Y-121533560D01*
X102067283Y-121500076D01*
X102136975Y-121505060D01*
X102157788Y-121515123D01*
X102184787Y-121531445D01*
X102184789Y-121531446D01*
X102242953Y-121549570D01*
X102349225Y-121582686D01*
X102420688Y-121589180D01*
X102420691Y-121589180D01*
X102952829Y-121589180D01*
X102952832Y-121589180D01*
X103024295Y-121582686D01*
X103188733Y-121531445D01*
X103250594Y-121494048D01*
X103318146Y-121476213D01*
X103378892Y-121494049D01*
X103439995Y-121530987D01*
X103604315Y-121582190D01*
X103604313Y-121582190D01*
X103675725Y-121588680D01*
X103691760Y-121588680D01*
X104191760Y-121588680D01*
X104207795Y-121588680D01*
X104279205Y-121582190D01*
X104443524Y-121530987D01*
X104590823Y-121441941D01*
X104712521Y-121320243D01*
X104801567Y-121172944D01*
X104852770Y-121008625D01*
X104859260Y-120937215D01*
X104859260Y-120698680D01*
X104191760Y-120698680D01*
X104191760Y-121588680D01*
X103691760Y-121588680D01*
X103691760Y-120198680D01*
X104191760Y-120198680D01*
X104859260Y-120198680D01*
X104859260Y-119960144D01*
X104852770Y-119888734D01*
X104801567Y-119724415D01*
X104712521Y-119577116D01*
X104590823Y-119455418D01*
X104443523Y-119366372D01*
X104443524Y-119366372D01*
X104279204Y-119315169D01*
X104279206Y-119315169D01*
X104207795Y-119308680D01*
X104191760Y-119308680D01*
X104191760Y-120198680D01*
X103691760Y-120198680D01*
X103691760Y-119308680D01*
X103675725Y-119308680D01*
X103604314Y-119315169D01*
X103439995Y-119366372D01*
X103439993Y-119366373D01*
X103378890Y-119403311D01*
X103311336Y-119421146D01*
X103250593Y-119403310D01*
X103188734Y-119365915D01*
X103188732Y-119365914D01*
X103155369Y-119355518D01*
X103097221Y-119316780D01*
X103069248Y-119252755D01*
X103068260Y-119237133D01*
X103068260Y-117660226D01*
X103087945Y-117593187D01*
X103140749Y-117547432D01*
X103155365Y-117541842D01*
X103188733Y-117531445D01*
X103250594Y-117494048D01*
X103318146Y-117476213D01*
X103378892Y-117494049D01*
X103439995Y-117530987D01*
X103604315Y-117582190D01*
X103604313Y-117582190D01*
X103675725Y-117588680D01*
X103691760Y-117588680D01*
X104191760Y-117588680D01*
X104207795Y-117588680D01*
X104279205Y-117582190D01*
X104443524Y-117530987D01*
X104590823Y-117441941D01*
X104712521Y-117320243D01*
X104801567Y-117172944D01*
X104852770Y-117008625D01*
X104859260Y-116937215D01*
X104859260Y-116698680D01*
X104191760Y-116698680D01*
X104191760Y-117588680D01*
X103691760Y-117588680D01*
X103691760Y-116198680D01*
X104191760Y-116198680D01*
X104859260Y-116198680D01*
X104859260Y-115960144D01*
X104852770Y-115888734D01*
X104801567Y-115724415D01*
X104712521Y-115577116D01*
X104590823Y-115455418D01*
X104443523Y-115366372D01*
X104443524Y-115366372D01*
X104279204Y-115315169D01*
X104279206Y-115315169D01*
X104207795Y-115308680D01*
X104191760Y-115308680D01*
X104191760Y-116198680D01*
X103691760Y-116198680D01*
X103691760Y-115308680D01*
X103675725Y-115308680D01*
X103604314Y-115315169D01*
X103439995Y-115366372D01*
X103439993Y-115366373D01*
X103378890Y-115403311D01*
X103311336Y-115421146D01*
X103250593Y-115403310D01*
X103188734Y-115365915D01*
X103188732Y-115365914D01*
X103155369Y-115355518D01*
X103097221Y-115316780D01*
X103069248Y-115252755D01*
X103068260Y-115237133D01*
X103068260Y-113660226D01*
X103087945Y-113593187D01*
X103140749Y-113547432D01*
X103155365Y-113541842D01*
X103188733Y-113531445D01*
X103250594Y-113494048D01*
X103318146Y-113476213D01*
X103378892Y-113494049D01*
X103439995Y-113530987D01*
X103604315Y-113582190D01*
X103604313Y-113582190D01*
X103675725Y-113588680D01*
X103691760Y-113588680D01*
X104191760Y-113588680D01*
X104207795Y-113588680D01*
X104279205Y-113582190D01*
X104443524Y-113530987D01*
X104590823Y-113441941D01*
X104712521Y-113320243D01*
X104801567Y-113172944D01*
X104852770Y-113008625D01*
X104859260Y-112937215D01*
X104859260Y-112698680D01*
X104191760Y-112698680D01*
X104191760Y-113588680D01*
X103691760Y-113588680D01*
X103691760Y-112198680D01*
X104191760Y-112198680D01*
X104859260Y-112198680D01*
X104859260Y-111960144D01*
X104852770Y-111888734D01*
X104801567Y-111724415D01*
X104712521Y-111577116D01*
X104590823Y-111455418D01*
X104443523Y-111366372D01*
X104443524Y-111366372D01*
X104279204Y-111315169D01*
X104279206Y-111315169D01*
X104207795Y-111308680D01*
X104191760Y-111308680D01*
X104191760Y-112198680D01*
X103691760Y-112198680D01*
X103691760Y-111308680D01*
X103675778Y-111292698D01*
X103663165Y-111288995D01*
X103617410Y-111236191D01*
X103607466Y-111167033D01*
X103636491Y-111103477D01*
X103642523Y-111096999D01*
X105780964Y-108958559D01*
X105842287Y-108925074D01*
X105868645Y-108922240D01*
X107109482Y-108922240D01*
X107109485Y-108922240D01*
X107206514Y-108896241D01*
X107293507Y-108846016D01*
X107364536Y-108774987D01*
X109846704Y-106292819D01*
X109908027Y-106259334D01*
X109934385Y-106256500D01*
X110500000Y-106256500D01*
X110567039Y-106276185D01*
X110612794Y-106328989D01*
X110624000Y-106380500D01*
X110624000Y-106797870D01*
X110624001Y-106797876D01*
X110630408Y-106857483D01*
X110680702Y-106992328D01*
X110680706Y-106992335D01*
X110766952Y-107107544D01*
X110766955Y-107107547D01*
X110882164Y-107193793D01*
X110882171Y-107193797D01*
X110922169Y-107208715D01*
X111017017Y-107244091D01*
X111076627Y-107250500D01*
X111534300Y-107250499D01*
X111601339Y-107270183D01*
X111647094Y-107322987D01*
X111658300Y-107374499D01*
X111658300Y-107805353D01*
X111638615Y-107872392D01*
X111621981Y-107893034D01*
X111596382Y-107918632D01*
X111504402Y-108065016D01*
X111447301Y-108228204D01*
X111427945Y-108399996D01*
X111427945Y-108400003D01*
X111447301Y-108571795D01*
X111504402Y-108734983D01*
X111596382Y-108881367D01*
X111596383Y-108881368D01*
X111718632Y-109003617D01*
X111865018Y-109095598D01*
X112028202Y-109152698D01*
X112085468Y-109159150D01*
X112199996Y-109172055D01*
X112200000Y-109172055D01*
X112200004Y-109172055D01*
X112298170Y-109160993D01*
X112371798Y-109152698D01*
X112534982Y-109095598D01*
X112681368Y-109003617D01*
X112803617Y-108881368D01*
X112895598Y-108734982D01*
X112952698Y-108571798D01*
X112972055Y-108400000D01*
X112952698Y-108228202D01*
X112895598Y-108065018D01*
X112803617Y-107918632D01*
X112681368Y-107796383D01*
X112681367Y-107796382D01*
X112534983Y-107704402D01*
X112371795Y-107647301D01*
X112200004Y-107627945D01*
X112193037Y-107627945D01*
X112193037Y-107625699D01*
X112134729Y-107615469D01*
X112083364Y-107568105D01*
X112065700Y-107504320D01*
X112065700Y-107374499D01*
X112085385Y-107307460D01*
X112138189Y-107261705D01*
X112189700Y-107250499D01*
X112647371Y-107250499D01*
X112647372Y-107250499D01*
X112706983Y-107244091D01*
X112841831Y-107193796D01*
X112957046Y-107107546D01*
X113043296Y-106992331D01*
X113093591Y-106857483D01*
X113100000Y-106797873D01*
X113099999Y-106252128D01*
X113099999Y-106252127D01*
X113099998Y-106252111D01*
X113095820Y-106213253D01*
X113095820Y-106186745D01*
X113100000Y-106147873D01*
X113099999Y-105602128D01*
X113099999Y-105602127D01*
X113099998Y-105602111D01*
X113095820Y-105563253D01*
X113095820Y-105536745D01*
X113100000Y-105497873D01*
X113099999Y-104952128D01*
X113099999Y-104952127D01*
X113099998Y-104952111D01*
X113095820Y-104913253D01*
X113095820Y-104886745D01*
X113100000Y-104847873D01*
X113099999Y-104302128D01*
X113099999Y-104302127D01*
X113099998Y-104302111D01*
X113095820Y-104263253D01*
X113095820Y-104236745D01*
X113100000Y-104197873D01*
X113099999Y-103652128D01*
X113099999Y-103652127D01*
X113099998Y-103652111D01*
X113095820Y-103613253D01*
X113095820Y-103586745D01*
X113100000Y-103547873D01*
X113099999Y-103002128D01*
X113099999Y-103002127D01*
X113099998Y-103002111D01*
X113095820Y-102963253D01*
X113095820Y-102936745D01*
X113100000Y-102897873D01*
X113099999Y-102352128D01*
X113099999Y-102352127D01*
X113099998Y-102352111D01*
X113095820Y-102313253D01*
X113095820Y-102286745D01*
X113100000Y-102247873D01*
X113099999Y-101702128D01*
X113099999Y-101702127D01*
X113099998Y-101702111D01*
X113095820Y-101663253D01*
X113095820Y-101636745D01*
X113100000Y-101597873D01*
X113099999Y-101052128D01*
X113095567Y-101010898D01*
X113095568Y-100984393D01*
X113099499Y-100947833D01*
X113099500Y-100947819D01*
X113099500Y-100900000D01*
X113083888Y-100884388D01*
X113070016Y-100880315D01*
X113037789Y-100850312D01*
X112999499Y-100799164D01*
X112957046Y-100742454D01*
X112957044Y-100742453D01*
X112957044Y-100742452D01*
X112864624Y-100673266D01*
X112822753Y-100617332D01*
X112817769Y-100547641D01*
X112851255Y-100486318D01*
X112912578Y-100452834D01*
X112938935Y-100450000D01*
X113099500Y-100450000D01*
X113099500Y-100402172D01*
X113099499Y-100402155D01*
X113093098Y-100342627D01*
X113093096Y-100342620D01*
X113042854Y-100207913D01*
X113042850Y-100207906D01*
X112956690Y-100092812D01*
X112956687Y-100092809D01*
X112841593Y-100006649D01*
X112841586Y-100006645D01*
X112706879Y-99956403D01*
X112706872Y-99956401D01*
X112647344Y-99950000D01*
X112087000Y-99950000D01*
X112087000Y-100475500D01*
X112067315Y-100542539D01*
X112014511Y-100588294D01*
X111963000Y-100599500D01*
X111761000Y-100599500D01*
X111693961Y-100579815D01*
X111648206Y-100527011D01*
X111637000Y-100475500D01*
X111637000Y-99950000D01*
X111076655Y-99950000D01*
X111017127Y-99956401D01*
X111017120Y-99956403D01*
X110882413Y-100006645D01*
X110882406Y-100006649D01*
X110767312Y-100092809D01*
X110767309Y-100092812D01*
X110681149Y-100207906D01*
X110681145Y-100207913D01*
X110630903Y-100342620D01*
X110630901Y-100342627D01*
X110624500Y-100402155D01*
X110624500Y-100450000D01*
X110785065Y-100450000D01*
X110852104Y-100469685D01*
X110897859Y-100522489D01*
X110907803Y-100591647D01*
X110878778Y-100655203D01*
X110859376Y-100673266D01*
X110766955Y-100742452D01*
X110686211Y-100850312D01*
X110638394Y-100886105D01*
X110624500Y-100900000D01*
X110624500Y-100947832D01*
X110628431Y-100984399D01*
X110628431Y-101010905D01*
X110624000Y-101052122D01*
X110624000Y-101597869D01*
X110624001Y-101597878D01*
X110628179Y-101636745D01*
X110628179Y-101663250D01*
X110624000Y-101702122D01*
X110624000Y-102247869D01*
X110624001Y-102247878D01*
X110628179Y-102286745D01*
X110628179Y-102313250D01*
X110624000Y-102352122D01*
X110624000Y-102897869D01*
X110624001Y-102897878D01*
X110628179Y-102936745D01*
X110628179Y-102963250D01*
X110624000Y-103002122D01*
X110624000Y-103547869D01*
X110624001Y-103547878D01*
X110628179Y-103586745D01*
X110628179Y-103613250D01*
X110624000Y-103652122D01*
X110624000Y-104197869D01*
X110624001Y-104197878D01*
X110628179Y-104236745D01*
X110628179Y-104263250D01*
X110624000Y-104302122D01*
X110624000Y-104847869D01*
X110624001Y-104847878D01*
X110628179Y-104886745D01*
X110628179Y-104913250D01*
X110624000Y-104952122D01*
X110624000Y-104952127D01*
X110624000Y-105200610D01*
X110624001Y-105369500D01*
X110604317Y-105436539D01*
X110551513Y-105482294D01*
X110500001Y-105493500D01*
X109782837Y-105493500D01*
X109782821Y-105493499D01*
X109775225Y-105493499D01*
X109674775Y-105493499D01*
X109577747Y-105519498D01*
X109577745Y-105519498D01*
X109577745Y-105519499D01*
X109490753Y-105569724D01*
X109490750Y-105569726D01*
X108043441Y-107017035D01*
X107982118Y-107050520D01*
X107912426Y-107045536D01*
X107856493Y-107003664D01*
X107832076Y-106938200D01*
X107831760Y-106929354D01*
X107831760Y-106898680D01*
X107164260Y-106898680D01*
X107164260Y-107840042D01*
X107162119Y-107840042D01*
X107158848Y-107885782D01*
X107130347Y-107930129D01*
X106937556Y-108122921D01*
X106876233Y-108156406D01*
X106849875Y-108159240D01*
X106164760Y-108159240D01*
X106097721Y-108139555D01*
X106051966Y-108086751D01*
X106040760Y-108035240D01*
X106040760Y-107860226D01*
X106060445Y-107793187D01*
X106113249Y-107747432D01*
X106127865Y-107741842D01*
X106161233Y-107731445D01*
X106223094Y-107694048D01*
X106290646Y-107676213D01*
X106351392Y-107694049D01*
X106412495Y-107730987D01*
X106576815Y-107782190D01*
X106576813Y-107782190D01*
X106648225Y-107788680D01*
X106664260Y-107788680D01*
X106664260Y-106398680D01*
X107164260Y-106398680D01*
X107831760Y-106398680D01*
X107831760Y-106160144D01*
X107825270Y-106088734D01*
X107774067Y-105924415D01*
X107685021Y-105777116D01*
X107563323Y-105655418D01*
X107416023Y-105566372D01*
X107416024Y-105566372D01*
X107251704Y-105515169D01*
X107251706Y-105515169D01*
X107180295Y-105508680D01*
X107164260Y-105508680D01*
X107164260Y-106398680D01*
X106664260Y-106398680D01*
X106664260Y-105508680D01*
X106648225Y-105508680D01*
X106576814Y-105515169D01*
X106412495Y-105566372D01*
X106412493Y-105566373D01*
X106351390Y-105603311D01*
X106283836Y-105621146D01*
X106223093Y-105603310D01*
X106161234Y-105565915D01*
X106161230Y-105565913D01*
X105996795Y-105514674D01*
X105996797Y-105514674D01*
X105968209Y-105512076D01*
X105925332Y-105508180D01*
X105393188Y-105508180D01*
X105350310Y-105512076D01*
X105321723Y-105514674D01*
X105157290Y-105565913D01*
X105009886Y-105655022D01*
X104888102Y-105776806D01*
X104798993Y-105924210D01*
X104781587Y-105980070D01*
X104742850Y-106038218D01*
X104678825Y-106066192D01*
X104663202Y-106067180D01*
X103040875Y-106067180D01*
X102973836Y-106047495D01*
X102928493Y-105995585D01*
X102844294Y-105815019D01*
X102717586Y-105634060D01*
X102561380Y-105477854D01*
X102561376Y-105477851D01*
X102561375Y-105477850D01*
X102380426Y-105351148D01*
X102380418Y-105351144D01*
X102251571Y-105291062D01*
X102199131Y-105244890D01*
X102179979Y-105177697D01*
X102200195Y-105110815D01*
X102251571Y-105066298D01*
X102257562Y-105063504D01*
X102380422Y-105006214D01*
X102561380Y-104879506D01*
X102717586Y-104723300D01*
X102844294Y-104542342D01*
X102937654Y-104342130D01*
X102994830Y-104128748D01*
X103014083Y-103908680D01*
X102994830Y-103688612D01*
X102937654Y-103475230D01*
X102844294Y-103275019D01*
X102717586Y-103094060D01*
X102561380Y-102937854D01*
X102561376Y-102937851D01*
X102561375Y-102937850D01*
X102380426Y-102811148D01*
X102380418Y-102811144D01*
X102251571Y-102751062D01*
X102199131Y-102704890D01*
X102179979Y-102637697D01*
X102200195Y-102570815D01*
X102251571Y-102526298D01*
X102257562Y-102523504D01*
X102380422Y-102466214D01*
X102561380Y-102339506D01*
X102717586Y-102183300D01*
X102844294Y-102002342D01*
X102937654Y-101802130D01*
X102994830Y-101588748D01*
X103014083Y-101368680D01*
X102994830Y-101148612D01*
X102937654Y-100935230D01*
X102844294Y-100735019D01*
X102717586Y-100554060D01*
X102561380Y-100397854D01*
X102561376Y-100397851D01*
X102561375Y-100397850D01*
X102380426Y-100271148D01*
X102380418Y-100271144D01*
X102251571Y-100211062D01*
X102199131Y-100164890D01*
X102179979Y-100097697D01*
X102200195Y-100030815D01*
X102251571Y-99986298D01*
X102257562Y-99983504D01*
X102380422Y-99926214D01*
X102561380Y-99799506D01*
X102717586Y-99643300D01*
X102844294Y-99462342D01*
X102937654Y-99262130D01*
X102994830Y-99048748D01*
X103014083Y-98828680D01*
X102994830Y-98608612D01*
X102937654Y-98395230D01*
X102844294Y-98195019D01*
X102717586Y-98014060D01*
X102561380Y-97857854D01*
X102561376Y-97857851D01*
X102561375Y-97857850D01*
X102380426Y-97731148D01*
X102380418Y-97731144D01*
X102251571Y-97671062D01*
X102199131Y-97624890D01*
X102179979Y-97557697D01*
X102200195Y-97490815D01*
X102251571Y-97446298D01*
X102257562Y-97443504D01*
X102380422Y-97386214D01*
X102561380Y-97259506D01*
X102717586Y-97103300D01*
X102844294Y-96922342D01*
X102937654Y-96722130D01*
X102994830Y-96508748D01*
X103014083Y-96288680D01*
X102994830Y-96068612D01*
X102937654Y-95855230D01*
X102844294Y-95655019D01*
X102717586Y-95474060D01*
X102561380Y-95317854D01*
X102561376Y-95317851D01*
X102561375Y-95317850D01*
X102380426Y-95191148D01*
X102380418Y-95191144D01*
X102251571Y-95131062D01*
X102199131Y-95084890D01*
X102179979Y-95017697D01*
X102200195Y-94950815D01*
X102251571Y-94906298D01*
X102257562Y-94903504D01*
X102380422Y-94846214D01*
X102561380Y-94719506D01*
X102717586Y-94563300D01*
X102844294Y-94382342D01*
X102937654Y-94182130D01*
X102994830Y-93968748D01*
X103014083Y-93748680D01*
X102994830Y-93528612D01*
X102937654Y-93315230D01*
X102844294Y-93115019D01*
X102717586Y-92934060D01*
X102561380Y-92777854D01*
X102561376Y-92777851D01*
X102561375Y-92777850D01*
X102380426Y-92651148D01*
X102380418Y-92651144D01*
X102251571Y-92591062D01*
X102199131Y-92544890D01*
X102179979Y-92477697D01*
X102200195Y-92410815D01*
X102251571Y-92366298D01*
X102257562Y-92363504D01*
X102380422Y-92306214D01*
X102561380Y-92179506D01*
X102717586Y-92023300D01*
X102844294Y-91842342D01*
X102937654Y-91642130D01*
X102994830Y-91428748D01*
X103014083Y-91208680D01*
X102994830Y-90988612D01*
X102937654Y-90775230D01*
X102844294Y-90575019D01*
X102717586Y-90394060D01*
X102561380Y-90237854D01*
X102561376Y-90237851D01*
X102561375Y-90237850D01*
X102380426Y-90111148D01*
X102380418Y-90111144D01*
X102251571Y-90051062D01*
X102199131Y-90004890D01*
X102179979Y-89937697D01*
X102200195Y-89870815D01*
X102251571Y-89826298D01*
X102257562Y-89823504D01*
X102380422Y-89766214D01*
X102561380Y-89639506D01*
X102717586Y-89483300D01*
X102844294Y-89302342D01*
X102937654Y-89102130D01*
X102994830Y-88888748D01*
X103014083Y-88668680D01*
X102994830Y-88448612D01*
X102937654Y-88235230D01*
X102844294Y-88035019D01*
X102717586Y-87854060D01*
X102561380Y-87697854D01*
X102561376Y-87697851D01*
X102561375Y-87697850D01*
X102380426Y-87571148D01*
X102380418Y-87571144D01*
X102251571Y-87511062D01*
X102199131Y-87464890D01*
X102179979Y-87397697D01*
X102200195Y-87330815D01*
X102251571Y-87286298D01*
X102257562Y-87283504D01*
X102380422Y-87226214D01*
X102561380Y-87099506D01*
X102717586Y-86943300D01*
X102844294Y-86762342D01*
X102937654Y-86562130D01*
X102994830Y-86348748D01*
X103014083Y-86128680D01*
X102994830Y-85908612D01*
X102937654Y-85695230D01*
X102844294Y-85495019D01*
X102717586Y-85314060D01*
X102561380Y-85157854D01*
X102561376Y-85157851D01*
X102561375Y-85157850D01*
X102380426Y-85031148D01*
X102380418Y-85031144D01*
X102251571Y-84971062D01*
X102199131Y-84924890D01*
X102179979Y-84857697D01*
X102200195Y-84790815D01*
X102251571Y-84746298D01*
X102257562Y-84743504D01*
X102380422Y-84686214D01*
X102561380Y-84559506D01*
X102717586Y-84403300D01*
X102844294Y-84222342D01*
X102937654Y-84022130D01*
X102994830Y-83808748D01*
X103010096Y-83634249D01*
X103014083Y-83588682D01*
X103014083Y-83588677D01*
X102994830Y-83368617D01*
X102994830Y-83368612D01*
X102937654Y-83155230D01*
X102844294Y-82955019D01*
X102717586Y-82774060D01*
X102561380Y-82617854D01*
X102561376Y-82617851D01*
X102561375Y-82617850D01*
X102380426Y-82491148D01*
X102380418Y-82491144D01*
X102251571Y-82431062D01*
X102199131Y-82384890D01*
X102179979Y-82317697D01*
X102200195Y-82250815D01*
X102251571Y-82206298D01*
X102385330Y-82143926D01*
X102386123Y-82145626D01*
X102445926Y-82131095D01*
X102511962Y-82153923D01*
X102527753Y-82167276D01*
X120182181Y-99821704D01*
X120215666Y-99883027D01*
X120218500Y-99909385D01*
X120218500Y-100169500D01*
X120198815Y-100236539D01*
X120146011Y-100282294D01*
X120094500Y-100293500D01*
X119037404Y-100293500D01*
X118970365Y-100273815D01*
X118924610Y-100221011D01*
X118921221Y-100212829D01*
X118919298Y-100207672D01*
X118919293Y-100207664D01*
X118833047Y-100092455D01*
X118833044Y-100092452D01*
X118717835Y-100006206D01*
X118717828Y-100006202D01*
X118582982Y-99955908D01*
X118582983Y-99955908D01*
X118523383Y-99949501D01*
X118523381Y-99949500D01*
X118523373Y-99949500D01*
X118523364Y-99949500D01*
X116952629Y-99949500D01*
X116952623Y-99949501D01*
X116893016Y-99955908D01*
X116758171Y-100006202D01*
X116758164Y-100006206D01*
X116642955Y-100092452D01*
X116642952Y-100092455D01*
X116556706Y-100207664D01*
X116556702Y-100207671D01*
X116506410Y-100342513D01*
X116506409Y-100342517D01*
X116500000Y-100402127D01*
X116500000Y-100402134D01*
X116500000Y-100402135D01*
X116500000Y-100947869D01*
X116500001Y-100947878D01*
X116504179Y-100986745D01*
X116504179Y-101013250D01*
X116500000Y-101052122D01*
X116500000Y-101597869D01*
X116500001Y-101597878D01*
X116504179Y-101636745D01*
X116504179Y-101663250D01*
X116500000Y-101702122D01*
X116500000Y-102247869D01*
X116500001Y-102247878D01*
X116504179Y-102286745D01*
X116504179Y-102313250D01*
X116500000Y-102352122D01*
X116500000Y-102897869D01*
X116500001Y-102897878D01*
X116504179Y-102936745D01*
X116504179Y-102963250D01*
X116500000Y-103002122D01*
X116500000Y-103547869D01*
X116500001Y-103547878D01*
X116504179Y-103586745D01*
X116504179Y-103613250D01*
X116500000Y-103652122D01*
X116500000Y-104197869D01*
X116500001Y-104197878D01*
X116504179Y-104236745D01*
X116504179Y-104263250D01*
X116500000Y-104302122D01*
X116500000Y-104847869D01*
X116500001Y-104847878D01*
X116504179Y-104886745D01*
X116504179Y-104913250D01*
X116500000Y-104952122D01*
X116500000Y-105497869D01*
X116500001Y-105497878D01*
X116504179Y-105536745D01*
X116504179Y-105563250D01*
X116500000Y-105602122D01*
X116500000Y-106147869D01*
X116500001Y-106147878D01*
X116504179Y-106186745D01*
X116504179Y-106213250D01*
X116500000Y-106252122D01*
X116500000Y-106797870D01*
X116500001Y-106797876D01*
X116506408Y-106857483D01*
X116556702Y-106992328D01*
X116556706Y-106992335D01*
X116642952Y-107107544D01*
X116642955Y-107107547D01*
X116758164Y-107193793D01*
X116758171Y-107193797D01*
X116798169Y-107208715D01*
X116893017Y-107244091D01*
X116952627Y-107250500D01*
X117410300Y-107250499D01*
X117477339Y-107270183D01*
X117523094Y-107322987D01*
X117534300Y-107374499D01*
X117534300Y-107729353D01*
X117514615Y-107796392D01*
X117497981Y-107817034D01*
X117396382Y-107918632D01*
X117304402Y-108065016D01*
X117247301Y-108228204D01*
X117227945Y-108399996D01*
X117227945Y-108400003D01*
X117247301Y-108571795D01*
X117304402Y-108734983D01*
X117396382Y-108881367D01*
X117396383Y-108881368D01*
X117518632Y-109003617D01*
X117665018Y-109095598D01*
X117828202Y-109152698D01*
X117885468Y-109159150D01*
X117999996Y-109172055D01*
X118000000Y-109172055D01*
X118000004Y-109172055D01*
X118098170Y-109160993D01*
X118171798Y-109152698D01*
X118334982Y-109095598D01*
X118481368Y-109003617D01*
X118603617Y-108881368D01*
X118695598Y-108734982D01*
X118752698Y-108571798D01*
X118772055Y-108400000D01*
X118752698Y-108228202D01*
X118695598Y-108065018D01*
X118603617Y-107918632D01*
X118481368Y-107796383D01*
X118481367Y-107796382D01*
X118334983Y-107704402D01*
X118171795Y-107647301D01*
X118051816Y-107633782D01*
X117987402Y-107606715D01*
X117947847Y-107549120D01*
X117941700Y-107510562D01*
X117941700Y-107374499D01*
X117961385Y-107307460D01*
X118014189Y-107261705D01*
X118065700Y-107250499D01*
X118523371Y-107250499D01*
X118523372Y-107250499D01*
X118582983Y-107244091D01*
X118717831Y-107193796D01*
X118833046Y-107107546D01*
X118919296Y-106992331D01*
X118969591Y-106857483D01*
X118976000Y-106797873D01*
X118975999Y-106380499D01*
X118995683Y-106313461D01*
X119048487Y-106267706D01*
X119099999Y-106256500D01*
X120850222Y-106256500D01*
X120850225Y-106256500D01*
X120947254Y-106230501D01*
X121034247Y-106180276D01*
X121105276Y-106109247D01*
X121155501Y-106022254D01*
X121181500Y-105925225D01*
X121181500Y-100935227D01*
X121181501Y-100935214D01*
X121181501Y-100824777D01*
X121181501Y-100824775D01*
X121155502Y-100727747D01*
X121105276Y-100640753D01*
X121017819Y-100553296D01*
X120984334Y-100491973D01*
X120981500Y-100465615D01*
X120981500Y-99760227D01*
X120981501Y-99760214D01*
X120981501Y-99649777D01*
X120981501Y-99649775D01*
X120955502Y-99552747D01*
X120905276Y-99465753D01*
X102984895Y-81545372D01*
X102951410Y-81484049D01*
X102952800Y-81425601D01*
X102994830Y-81268748D01*
X103014083Y-81048680D01*
X102994830Y-80828612D01*
X102937654Y-80615230D01*
X102844294Y-80415019D01*
X102717586Y-80234060D01*
X102561380Y-80077854D01*
X102561376Y-80077851D01*
X102561375Y-80077850D01*
X102444845Y-79996255D01*
X102401220Y-79941678D01*
X102394026Y-79872180D01*
X102425549Y-79809825D01*
X102485779Y-79774411D01*
X102515968Y-79770680D01*
X102556588Y-79770680D01*
X102556604Y-79770679D01*
X102616132Y-79764278D01*
X102616139Y-79764276D01*
X102750846Y-79714034D01*
X102750853Y-79714030D01*
X102865947Y-79627870D01*
X102865950Y-79627867D01*
X102952110Y-79512773D01*
X102952114Y-79512766D01*
X103002356Y-79378059D01*
X103002358Y-79378052D01*
X103008759Y-79318524D01*
X103008760Y-79318507D01*
X103008760Y-78758680D01*
X102189011Y-78758680D01*
X102220141Y-78704761D01*
X102254760Y-78575560D01*
X102254760Y-78441800D01*
X102220141Y-78312599D01*
X102189011Y-78258680D01*
X103008760Y-78258680D01*
X103008760Y-77698852D01*
X103008759Y-77698835D01*
X103002358Y-77639307D01*
X103002356Y-77639300D01*
X102952114Y-77504593D01*
X102952110Y-77504586D01*
X102865950Y-77389492D01*
X102865947Y-77389489D01*
X102750853Y-77303329D01*
X102750846Y-77303325D01*
X102616139Y-77253083D01*
X102616132Y-77253081D01*
X102556604Y-77246680D01*
X101996760Y-77246680D01*
X101996760Y-78066428D01*
X101942841Y-78035299D01*
X101813640Y-78000680D01*
X101679880Y-78000680D01*
X101550679Y-78035299D01*
X101496760Y-78066428D01*
X101496760Y-77246680D01*
X100936915Y-77246680D01*
X100877387Y-77253081D01*
X100877380Y-77253083D01*
X100742673Y-77303325D01*
X100742666Y-77303329D01*
X100627572Y-77389489D01*
X100627569Y-77389492D01*
X100541409Y-77504586D01*
X100541405Y-77504593D01*
X100491163Y-77639300D01*
X100491161Y-77639307D01*
X100484760Y-77698835D01*
X100484760Y-78258680D01*
X101304509Y-78258680D01*
X101273379Y-78312599D01*
X101238760Y-78441800D01*
X101238760Y-78575560D01*
X101273379Y-78704761D01*
X101304509Y-78758680D01*
X100484760Y-78758680D01*
X100484760Y-79318524D01*
X100491161Y-79378052D01*
X100491163Y-79378059D01*
X100541405Y-79512766D01*
X100541409Y-79512773D01*
X100627569Y-79627867D01*
X100627572Y-79627870D01*
X100742666Y-79714030D01*
X100742673Y-79714034D01*
X100877380Y-79764276D01*
X100877387Y-79764278D01*
X100936915Y-79770679D01*
X100936932Y-79770680D01*
X100977553Y-79770680D01*
X101044592Y-79790365D01*
X101090347Y-79843169D01*
X101100291Y-79912327D01*
X101071266Y-79975883D01*
X101048676Y-79996255D01*
X100932137Y-80077855D01*
X100775935Y-80234057D01*
X100649226Y-80415018D01*
X100649225Y-80415020D01*
X100555867Y-80615228D01*
X100555864Y-80615234D01*
X100498690Y-80828609D01*
X100498689Y-80828617D01*
X100479437Y-81048677D01*
X100479437Y-81048682D01*
X100498689Y-81268742D01*
X100498690Y-81268750D01*
X100555864Y-81482125D01*
X100555865Y-81482127D01*
X100555866Y-81482130D01*
X100585356Y-81545372D01*
X100649226Y-81682342D01*
X100649228Y-81682346D01*
X100775930Y-81863295D01*
X100775935Y-81863301D01*
X100932138Y-82019504D01*
X100932144Y-82019509D01*
X101113093Y-82146211D01*
X101113095Y-82146212D01*
X101113098Y-82146214D01*
X101232508Y-82201895D01*
X101241949Y-82206298D01*
X101294388Y-82252470D01*
X101313540Y-82319664D01*
X101293324Y-82386545D01*
X101241949Y-82431062D01*
X101113100Y-82491145D01*
X101113098Y-82491146D01*
X100932137Y-82617855D01*
X100775935Y-82774057D01*
X100649226Y-82955018D01*
X100649225Y-82955020D01*
X100555867Y-83155228D01*
X100555864Y-83155234D01*
X100498690Y-83368609D01*
X100498689Y-83368617D01*
X100479437Y-83588677D01*
X100479437Y-83588682D01*
X100498689Y-83808742D01*
X100498690Y-83808750D01*
X100555864Y-84022125D01*
X100555865Y-84022127D01*
X100555866Y-84022130D01*
X100634333Y-84190403D01*
X100649226Y-84222342D01*
X100649228Y-84222346D01*
X100775930Y-84403295D01*
X100775935Y-84403301D01*
X100932138Y-84559504D01*
X100932144Y-84559509D01*
X101113093Y-84686211D01*
X101113095Y-84686212D01*
X101113098Y-84686214D01*
X101232508Y-84741895D01*
X101241949Y-84746298D01*
X101294388Y-84792470D01*
X101313540Y-84859664D01*
X101293324Y-84926545D01*
X101241949Y-84971062D01*
X101113100Y-85031145D01*
X101113098Y-85031146D01*
X100932137Y-85157855D01*
X100775935Y-85314057D01*
X100649226Y-85495018D01*
X100649225Y-85495020D01*
X100555867Y-85695228D01*
X100555864Y-85695234D01*
X100498690Y-85908609D01*
X100498689Y-85908617D01*
X100479437Y-86128677D01*
X100479437Y-86128682D01*
X100498689Y-86348742D01*
X100498690Y-86348750D01*
X100555864Y-86562125D01*
X100555865Y-86562127D01*
X100555866Y-86562130D01*
X100649226Y-86762342D01*
X100649228Y-86762346D01*
X100775930Y-86943295D01*
X100775935Y-86943301D01*
X100932138Y-87099504D01*
X100932144Y-87099509D01*
X101113093Y-87226211D01*
X101113095Y-87226212D01*
X101113098Y-87226214D01*
X101232508Y-87281895D01*
X101241949Y-87286298D01*
X101294388Y-87332470D01*
X101313540Y-87399664D01*
X101293324Y-87466545D01*
X101241949Y-87511062D01*
X101113100Y-87571145D01*
X101113098Y-87571146D01*
X100932137Y-87697855D01*
X100775935Y-87854057D01*
X100649226Y-88035018D01*
X100649225Y-88035020D01*
X100555867Y-88235228D01*
X100555864Y-88235234D01*
X100498690Y-88448609D01*
X100498689Y-88448617D01*
X100479437Y-88668677D01*
X100479437Y-88668682D01*
X100498689Y-88888742D01*
X100498690Y-88888750D01*
X100555864Y-89102125D01*
X100555865Y-89102127D01*
X100555866Y-89102130D01*
X100649226Y-89302342D01*
X100649228Y-89302346D01*
X100775930Y-89483295D01*
X100775935Y-89483301D01*
X100932138Y-89639504D01*
X100932144Y-89639509D01*
X101113093Y-89766211D01*
X101113095Y-89766212D01*
X101113098Y-89766214D01*
X101232508Y-89821895D01*
X101241949Y-89826298D01*
X101294388Y-89872470D01*
X101313540Y-89939664D01*
X101293324Y-90006545D01*
X101241949Y-90051062D01*
X101113100Y-90111145D01*
X101113098Y-90111146D01*
X100932137Y-90237855D01*
X100775935Y-90394057D01*
X100649226Y-90575018D01*
X100649225Y-90575020D01*
X100555867Y-90775228D01*
X100555864Y-90775234D01*
X100498690Y-90988609D01*
X100498689Y-90988617D01*
X100479437Y-91208677D01*
X100479437Y-91208682D01*
X100498689Y-91428742D01*
X100498690Y-91428750D01*
X100555864Y-91642125D01*
X100555865Y-91642127D01*
X100555866Y-91642130D01*
X100649226Y-91842342D01*
X100649228Y-91842346D01*
X100775930Y-92023295D01*
X100775935Y-92023301D01*
X100932138Y-92179504D01*
X100932144Y-92179509D01*
X101113093Y-92306211D01*
X101113095Y-92306212D01*
X101113098Y-92306214D01*
X101232508Y-92361895D01*
X101241949Y-92366298D01*
X101294388Y-92412470D01*
X101313540Y-92479664D01*
X101293324Y-92546545D01*
X101241949Y-92591062D01*
X101113100Y-92651145D01*
X101113098Y-92651146D01*
X100932137Y-92777855D01*
X100775935Y-92934057D01*
X100649226Y-93115018D01*
X100649225Y-93115020D01*
X100555867Y-93315228D01*
X100555864Y-93315234D01*
X100498690Y-93528609D01*
X100498689Y-93528617D01*
X100479437Y-93748677D01*
X100479437Y-93748682D01*
X100498689Y-93968742D01*
X100498690Y-93968750D01*
X100555864Y-94182125D01*
X100555865Y-94182127D01*
X100555866Y-94182130D01*
X100649226Y-94382342D01*
X100649228Y-94382346D01*
X100775930Y-94563295D01*
X100775935Y-94563301D01*
X100932138Y-94719504D01*
X100932144Y-94719509D01*
X101113093Y-94846211D01*
X101113095Y-94846212D01*
X101113098Y-94846214D01*
X101232508Y-94901895D01*
X101241949Y-94906298D01*
X101294388Y-94952470D01*
X101313540Y-95019664D01*
X101293324Y-95086545D01*
X101241949Y-95131062D01*
X101113100Y-95191145D01*
X101113098Y-95191146D01*
X100932137Y-95317855D01*
X100775935Y-95474057D01*
X100649226Y-95655018D01*
X100649225Y-95655020D01*
X100555867Y-95855228D01*
X100555864Y-95855234D01*
X100498690Y-96068609D01*
X100498689Y-96068617D01*
X100479437Y-96288677D01*
X100479437Y-96288682D01*
X100498689Y-96508742D01*
X100498690Y-96508750D01*
X100555864Y-96722125D01*
X100555865Y-96722127D01*
X100555866Y-96722130D01*
X100649226Y-96922342D01*
X100649228Y-96922346D01*
X100775930Y-97103295D01*
X100775935Y-97103301D01*
X100932138Y-97259504D01*
X100932144Y-97259509D01*
X101113093Y-97386211D01*
X101113095Y-97386212D01*
X101113098Y-97386214D01*
X101232508Y-97441895D01*
X101241949Y-97446298D01*
X101294388Y-97492470D01*
X101313540Y-97559664D01*
X101293324Y-97626545D01*
X101241949Y-97671062D01*
X101113100Y-97731145D01*
X101113098Y-97731146D01*
X100932137Y-97857855D01*
X100775935Y-98014057D01*
X100649226Y-98195018D01*
X100649225Y-98195020D01*
X100555867Y-98395228D01*
X100555864Y-98395234D01*
X100498690Y-98608609D01*
X100498689Y-98608617D01*
X100479437Y-98828677D01*
X100479437Y-98828682D01*
X100498689Y-99048742D01*
X100498690Y-99048750D01*
X100555864Y-99262125D01*
X100555865Y-99262127D01*
X100555866Y-99262130D01*
X100649226Y-99462342D01*
X100649228Y-99462346D01*
X100775930Y-99643295D01*
X100775935Y-99643301D01*
X100932138Y-99799504D01*
X100932144Y-99799509D01*
X101113093Y-99926211D01*
X101113095Y-99926212D01*
X101113098Y-99926214D01*
X101177835Y-99956401D01*
X101241949Y-99986298D01*
X101294388Y-100032470D01*
X101313540Y-100099664D01*
X101293324Y-100166545D01*
X101241949Y-100211062D01*
X101113100Y-100271145D01*
X101113098Y-100271146D01*
X100932137Y-100397855D01*
X100775935Y-100554057D01*
X100649226Y-100735018D01*
X100649225Y-100735020D01*
X100555865Y-100935231D01*
X100498690Y-101148609D01*
X100498689Y-101148617D01*
X100479437Y-101368677D01*
X100479437Y-101368682D01*
X100498689Y-101588742D01*
X100498690Y-101588750D01*
X100555864Y-101802125D01*
X100555865Y-101802127D01*
X100555866Y-101802130D01*
X100649226Y-102002342D01*
X100649228Y-102002346D01*
X100775930Y-102183295D01*
X100775935Y-102183301D01*
X100932138Y-102339504D01*
X100932144Y-102339509D01*
X101113093Y-102466211D01*
X101113095Y-102466212D01*
X101113098Y-102466214D01*
X101232508Y-102521895D01*
X101241949Y-102526298D01*
X101294388Y-102572470D01*
X101313540Y-102639664D01*
X101293324Y-102706545D01*
X101241949Y-102751062D01*
X101113100Y-102811145D01*
X101113098Y-102811146D01*
X100932137Y-102937855D01*
X100775935Y-103094057D01*
X100649226Y-103275018D01*
X100649225Y-103275020D01*
X100555867Y-103475228D01*
X100555864Y-103475234D01*
X100498690Y-103688609D01*
X100498689Y-103688617D01*
X100479437Y-103908677D01*
X100479437Y-103908682D01*
X100498689Y-104128742D01*
X100498690Y-104128750D01*
X100555864Y-104342125D01*
X100555865Y-104342127D01*
X100555866Y-104342130D01*
X100649226Y-104542342D01*
X100649228Y-104542346D01*
X100775930Y-104723295D01*
X100775935Y-104723301D01*
X100932138Y-104879504D01*
X100932144Y-104879509D01*
X101113093Y-105006211D01*
X101113095Y-105006212D01*
X101113098Y-105006214D01*
X101232508Y-105061895D01*
X101241949Y-105066298D01*
X101294388Y-105112470D01*
X101313540Y-105179664D01*
X101293324Y-105246545D01*
X101241949Y-105291062D01*
X101113100Y-105351145D01*
X101113098Y-105351146D01*
X100932137Y-105477855D01*
X100775935Y-105634057D01*
X100649226Y-105815018D01*
X100649225Y-105815020D01*
X100555867Y-106015228D01*
X100555864Y-106015234D01*
X100498690Y-106228609D01*
X100498689Y-106228617D01*
X100479437Y-106448677D01*
X100479437Y-106448682D01*
X100498689Y-106668742D01*
X100498690Y-106668750D01*
X100555864Y-106882125D01*
X100555865Y-106882127D01*
X100555866Y-106882130D01*
X100607255Y-106992335D01*
X100649226Y-107082342D01*
X100649228Y-107082346D01*
X100775930Y-107263295D01*
X100775935Y-107263301D01*
X100932138Y-107419504D01*
X100932144Y-107419509D01*
X101113093Y-107546211D01*
X101113095Y-107546212D01*
X101113098Y-107546214D01*
X101313310Y-107639574D01*
X101526692Y-107696750D01*
X101683883Y-107710502D01*
X101746758Y-107716003D01*
X101746760Y-107716003D01*
X101746762Y-107716003D01*
X101801777Y-107711189D01*
X101966828Y-107696750D01*
X102180210Y-107639574D01*
X102380422Y-107546214D01*
X102561380Y-107419506D01*
X102717586Y-107263300D01*
X102844294Y-107082342D01*
X102928493Y-106901776D01*
X102974665Y-106849336D01*
X103040875Y-106830180D01*
X104617260Y-106830180D01*
X104684299Y-106849865D01*
X104730054Y-106902669D01*
X104741260Y-106954180D01*
X104741260Y-107137249D01*
X104747754Y-107208716D01*
X104798993Y-107373149D01*
X104798994Y-107373151D01*
X104798995Y-107373153D01*
X104878289Y-107504320D01*
X104888102Y-107520553D01*
X105009886Y-107642337D01*
X105009888Y-107642338D01*
X105009890Y-107642340D01*
X105157287Y-107731445D01*
X105190649Y-107741840D01*
X105248797Y-107780577D01*
X105276772Y-107844601D01*
X105277760Y-107860226D01*
X105277760Y-108331355D01*
X105258075Y-108398394D01*
X105241441Y-108419036D01*
X102452513Y-111207964D01*
X102424286Y-111236191D01*
X102381475Y-111279001D01*
X102379572Y-111281482D01*
X102377434Y-111283042D01*
X102375737Y-111284740D01*
X102375472Y-111284475D01*
X102323142Y-111322681D01*
X102318093Y-111324374D01*
X102184789Y-111365914D01*
X102037386Y-111455022D01*
X101915602Y-111576806D01*
X101826495Y-111724206D01*
X101826495Y-111724207D01*
X101793505Y-111830073D01*
X101754770Y-111888218D01*
X101690745Y-111916192D01*
X101675122Y-111917180D01*
X97760286Y-111917180D01*
X97693247Y-111897495D01*
X97647492Y-111844691D01*
X97644104Y-111836513D01*
X97595557Y-111706351D01*
X97595553Y-111706344D01*
X97509307Y-111591135D01*
X97509304Y-111591132D01*
X97394095Y-111504886D01*
X97394088Y-111504882D01*
X97259242Y-111454588D01*
X97259243Y-111454588D01*
X97199643Y-111448181D01*
X97199641Y-111448180D01*
X97199633Y-111448180D01*
X97199624Y-111448180D01*
X96403889Y-111448180D01*
X96403883Y-111448181D01*
X96344276Y-111454588D01*
X96209431Y-111504882D01*
X96209424Y-111504886D01*
X96094215Y-111591132D01*
X96094212Y-111591135D01*
X96007966Y-111706344D01*
X96007963Y-111706350D01*
X96002942Y-111719813D01*
X95961070Y-111775746D01*
X95895606Y-111800163D01*
X95827333Y-111785311D01*
X95777928Y-111735905D01*
X95770578Y-111719813D01*
X95768525Y-111714309D01*
X95765556Y-111706349D01*
X95765554Y-111706346D01*
X95765553Y-111706344D01*
X95679307Y-111591135D01*
X95679304Y-111591132D01*
X95564095Y-111504886D01*
X95564088Y-111504882D01*
X95429242Y-111454588D01*
X95429243Y-111454588D01*
X95369643Y-111448181D01*
X95369641Y-111448180D01*
X95369633Y-111448180D01*
X95369624Y-111448180D01*
X94573889Y-111448180D01*
X94573883Y-111448181D01*
X94514276Y-111454588D01*
X94379431Y-111504882D01*
X94379424Y-111504886D01*
X94264215Y-111591132D01*
X94264212Y-111591135D01*
X94177966Y-111706344D01*
X94177963Y-111706349D01*
X94140361Y-111807166D01*
X94098489Y-111863099D01*
X94033025Y-111887516D01*
X93964752Y-111872664D01*
X93936498Y-111851513D01*
X93881367Y-111796382D01*
X93734983Y-111704402D01*
X93571795Y-111647301D01*
X93400004Y-111627945D01*
X93399996Y-111627945D01*
X93228204Y-111647301D01*
X93065016Y-111704402D01*
X92918632Y-111796382D01*
X92796382Y-111918632D01*
X92704402Y-112065016D01*
X92647301Y-112228204D01*
X92627945Y-112399996D01*
X90939393Y-112399996D01*
X90872326Y-81414999D01*
X94844341Y-81414999D01*
X94844341Y-81415000D01*
X94864936Y-81650403D01*
X94864938Y-81650413D01*
X94926094Y-81878655D01*
X94926096Y-81878659D01*
X94926097Y-81878663D01*
X94991775Y-82019509D01*
X95025965Y-82092830D01*
X95025967Y-82092834D01*
X95161501Y-82286395D01*
X95161506Y-82286402D01*
X95328597Y-82453493D01*
X95328603Y-82453498D01*
X95514158Y-82583425D01*
X95557783Y-82638002D01*
X95564977Y-82707500D01*
X95533454Y-82769855D01*
X95514158Y-82786575D01*
X95328597Y-82916505D01*
X95161505Y-83083597D01*
X95025965Y-83277169D01*
X95025964Y-83277171D01*
X94926098Y-83491335D01*
X94926094Y-83491344D01*
X94864938Y-83719586D01*
X94864936Y-83719596D01*
X94844341Y-83954999D01*
X94844341Y-83955000D01*
X94864936Y-84190403D01*
X94864938Y-84190413D01*
X94926094Y-84418655D01*
X94926096Y-84418659D01*
X94926097Y-84418663D01*
X94991775Y-84559509D01*
X95025965Y-84632830D01*
X95025967Y-84632834D01*
X95105416Y-84746298D01*
X95161505Y-84826401D01*
X95328599Y-84993495D01*
X95382369Y-85031145D01*
X95522165Y-85129032D01*
X95522167Y-85129033D01*
X95522170Y-85129035D01*
X95736337Y-85228903D01*
X95964592Y-85290063D01*
X96152918Y-85306539D01*
X96199999Y-85310659D01*
X96200000Y-85310659D01*
X96200001Y-85310659D01*
X96239234Y-85307226D01*
X96435408Y-85290063D01*
X96663663Y-85228903D01*
X96877830Y-85129035D01*
X97071401Y-84993495D01*
X97238495Y-84826401D01*
X97374035Y-84632830D01*
X97473903Y-84418663D01*
X97535063Y-84190408D01*
X97555659Y-83955000D01*
X97554712Y-83944181D01*
X97535063Y-83719596D01*
X97535063Y-83719592D01*
X97473903Y-83491337D01*
X97374035Y-83277171D01*
X97317181Y-83195974D01*
X97238494Y-83083597D01*
X97071402Y-82916506D01*
X97071396Y-82916501D01*
X96885842Y-82786575D01*
X96842217Y-82731998D01*
X96835023Y-82662500D01*
X96866546Y-82600145D01*
X96885842Y-82583425D01*
X97017627Y-82491148D01*
X97071401Y-82453495D01*
X97238495Y-82286401D01*
X97374035Y-82092830D01*
X97473903Y-81878663D01*
X97535063Y-81650408D01*
X97555659Y-81415000D01*
X97554712Y-81404181D01*
X97535063Y-81179596D01*
X97535063Y-81179592D01*
X97473903Y-80951337D01*
X97374035Y-80737171D01*
X97311243Y-80647495D01*
X97238496Y-80543600D01*
X97238495Y-80543599D01*
X97116179Y-80421283D01*
X97082696Y-80359963D01*
X97087680Y-80290271D01*
X97129551Y-80234337D01*
X97160529Y-80217422D01*
X97292086Y-80168354D01*
X97292093Y-80168350D01*
X97407187Y-80082190D01*
X97407190Y-80082187D01*
X97493350Y-79967093D01*
X97493354Y-79967086D01*
X97543596Y-79832379D01*
X97543598Y-79832372D01*
X97549999Y-79772844D01*
X97550000Y-79772827D01*
X97550000Y-79125000D01*
X96633012Y-79125000D01*
X96665925Y-79067993D01*
X96700000Y-78940826D01*
X96700000Y-78809174D01*
X96665925Y-78682007D01*
X96633012Y-78625000D01*
X97550000Y-78625000D01*
X97550000Y-77977172D01*
X97549999Y-77977155D01*
X97543598Y-77917627D01*
X97543596Y-77917620D01*
X97493354Y-77782913D01*
X97493350Y-77782906D01*
X97407190Y-77667812D01*
X97407187Y-77667809D01*
X97292093Y-77581649D01*
X97292086Y-77581645D01*
X97157379Y-77531403D01*
X97157372Y-77531401D01*
X97097844Y-77525000D01*
X96450000Y-77525000D01*
X96450000Y-78441988D01*
X96392993Y-78409075D01*
X96265826Y-78375000D01*
X96134174Y-78375000D01*
X96007007Y-78409075D01*
X95950000Y-78441988D01*
X95950000Y-77525000D01*
X95302155Y-77525000D01*
X95242627Y-77531401D01*
X95242620Y-77531403D01*
X95107913Y-77581645D01*
X95107906Y-77581649D01*
X94992812Y-77667809D01*
X94992809Y-77667812D01*
X94906649Y-77782906D01*
X94906645Y-77782913D01*
X94856403Y-77917620D01*
X94856401Y-77917627D01*
X94850000Y-77977155D01*
X94850000Y-78625000D01*
X95766988Y-78625000D01*
X95734075Y-78682007D01*
X95700000Y-78809174D01*
X95700000Y-78940826D01*
X95734075Y-79067993D01*
X95766988Y-79125000D01*
X94850000Y-79125000D01*
X94850000Y-79772844D01*
X94856401Y-79832372D01*
X94856403Y-79832379D01*
X94906645Y-79967086D01*
X94906649Y-79967093D01*
X94992809Y-80082187D01*
X94992812Y-80082190D01*
X95107906Y-80168350D01*
X95107913Y-80168354D01*
X95239470Y-80217421D01*
X95295403Y-80259292D01*
X95319821Y-80324756D01*
X95304970Y-80393029D01*
X95283819Y-80421284D01*
X95161503Y-80543600D01*
X95025965Y-80737169D01*
X95025964Y-80737171D01*
X94926098Y-80951335D01*
X94926094Y-80951344D01*
X94864938Y-81179586D01*
X94864936Y-81179596D01*
X94844341Y-81414999D01*
X90872326Y-81414999D01*
X90856276Y-73999997D01*
X100944726Y-73999997D01*
X100944726Y-74000002D01*
X100963808Y-74351954D01*
X101020833Y-74699793D01*
X101020834Y-74699796D01*
X101115126Y-75039408D01*
X101115127Y-75039410D01*
X101245588Y-75366844D01*
X101245597Y-75366862D01*
X101410695Y-75678269D01*
X101608498Y-75970006D01*
X101608505Y-75970016D01*
X101836685Y-76238649D01*
X101836686Y-76238650D01*
X102092580Y-76481046D01*
X102373182Y-76694354D01*
X102675202Y-76876074D01*
X102675206Y-76876075D01*
X102675210Y-76876078D01*
X102995088Y-77024070D01*
X102995092Y-77024070D01*
X102995099Y-77024074D01*
X103329122Y-77136619D01*
X103673355Y-77212391D01*
X104023763Y-77250500D01*
X104023769Y-77250500D01*
X104376231Y-77250500D01*
X104376237Y-77250500D01*
X104726645Y-77212391D01*
X105070878Y-77136619D01*
X105404901Y-77024074D01*
X105404908Y-77024070D01*
X105404911Y-77024070D01*
X105724789Y-76876078D01*
X105724798Y-76876074D01*
X106026818Y-76694354D01*
X106307420Y-76481046D01*
X106563314Y-76238650D01*
X106791501Y-75970008D01*
X106989305Y-75678269D01*
X107154407Y-75366854D01*
X107284871Y-75039414D01*
X107379168Y-74699788D01*
X107436191Y-74351957D01*
X107455274Y-74000000D01*
X107436191Y-73648043D01*
X107379168Y-73300212D01*
X107336704Y-73147271D01*
X107284873Y-72960591D01*
X107284872Y-72960589D01*
X107154411Y-72633155D01*
X107154402Y-72633137D01*
X106989304Y-72321730D01*
X106791501Y-72029992D01*
X106791497Y-72029987D01*
X106791494Y-72029983D01*
X106563314Y-71761350D01*
X106307420Y-71518954D01*
X106307413Y-71518948D01*
X106307410Y-71518946D01*
X106026815Y-71305644D01*
X105724802Y-71123928D01*
X105724789Y-71123921D01*
X105404911Y-70975929D01*
X105404906Y-70975928D01*
X105404903Y-70975927D01*
X105404901Y-70975926D01*
X105298432Y-70940052D01*
X105070880Y-70863381D01*
X104726643Y-70787608D01*
X104376238Y-70749500D01*
X104376237Y-70749500D01*
X104023763Y-70749500D01*
X104023761Y-70749500D01*
X103673356Y-70787608D01*
X103329119Y-70863381D01*
X102995093Y-70975928D01*
X102995088Y-70975929D01*
X102675210Y-71123921D01*
X102675197Y-71123928D01*
X102373184Y-71305644D01*
X102092589Y-71518946D01*
X102092580Y-71518954D01*
X101836685Y-71761350D01*
X101608505Y-72029983D01*
X101608498Y-72029993D01*
X101410695Y-72321730D01*
X101245597Y-72633137D01*
X101245588Y-72633155D01*
X101115127Y-72960589D01*
X101115126Y-72960591D01*
X101020834Y-73300203D01*
X101020833Y-73300206D01*
X100963808Y-73648045D01*
X100944726Y-73999997D01*
X90856276Y-73999997D01*
X90809326Y-52308722D01*
X107475000Y-52308722D01*
X107507663Y-52472928D01*
X107507665Y-52472936D01*
X107571740Y-52627627D01*
X107571740Y-52627628D01*
X107664758Y-52766839D01*
X107664764Y-52766847D01*
X107783152Y-52885235D01*
X107783160Y-52885241D01*
X107922372Y-52978259D01*
X108074999Y-53041479D01*
X108075000Y-53041479D01*
X108075000Y-51525000D01*
X107475000Y-51525000D01*
X107475000Y-52308722D01*
X90809326Y-52308722D01*
X90805749Y-50656091D01*
X90825289Y-50589010D01*
X90877994Y-50543141D01*
X90947130Y-50533048D01*
X91010749Y-50561936D01*
X91048650Y-50620632D01*
X91049515Y-50623701D01*
X91069448Y-50698090D01*
X91091393Y-50779991D01*
X91181714Y-50998045D01*
X91181719Y-50998056D01*
X91252677Y-51120957D01*
X91299727Y-51202450D01*
X91299729Y-51202453D01*
X91299730Y-51202454D01*
X91443406Y-51389697D01*
X91443412Y-51389704D01*
X91610295Y-51556587D01*
X91610301Y-51556592D01*
X91797550Y-51700273D01*
X91928918Y-51776118D01*
X92001943Y-51818280D01*
X92001948Y-51818282D01*
X92001951Y-51818284D01*
X92220007Y-51908606D01*
X92447986Y-51969693D01*
X92681989Y-52000500D01*
X92681996Y-52000500D01*
X92918004Y-52000500D01*
X92918011Y-52000500D01*
X93152014Y-51969693D01*
X93379993Y-51908606D01*
X93598049Y-51818284D01*
X93802450Y-51700273D01*
X93989699Y-51556592D01*
X94156592Y-51389699D01*
X94300273Y-51202450D01*
X94418284Y-50998049D01*
X94508606Y-50779993D01*
X94569693Y-50552014D01*
X94600500Y-50318011D01*
X94600500Y-50241277D01*
X107475000Y-50241277D01*
X107475000Y-51025000D01*
X108075000Y-51025000D01*
X108075000Y-49508519D01*
X108575000Y-49508519D01*
X108575000Y-53041479D01*
X108727627Y-52978259D01*
X108727628Y-52978259D01*
X108866839Y-52885241D01*
X108866847Y-52885235D01*
X108985236Y-52766846D01*
X108986590Y-52764820D01*
X108987575Y-52763996D01*
X108989102Y-52762136D01*
X108989454Y-52762425D01*
X109040197Y-52720009D01*
X109109521Y-52711295D01*
X109172552Y-52741443D01*
X109192798Y-52764805D01*
X109194370Y-52767157D01*
X109194376Y-52767165D01*
X109312837Y-52885626D01*
X109377142Y-52928593D01*
X109452137Y-52978703D01*
X109452138Y-52978703D01*
X109452139Y-52978704D01*
X109473498Y-52987551D01*
X109606918Y-53042816D01*
X109760339Y-53073333D01*
X109771228Y-53075499D01*
X109771232Y-53075500D01*
X109771233Y-53075500D01*
X109938768Y-53075500D01*
X109938769Y-53075499D01*
X110103082Y-53042816D01*
X110257863Y-52978703D01*
X110397162Y-52885626D01*
X110515626Y-52767162D01*
X110516894Y-52765263D01*
X110517817Y-52764492D01*
X110519490Y-52762454D01*
X110519876Y-52762771D01*
X110570504Y-52720456D01*
X110639828Y-52711745D01*
X110702858Y-52741896D01*
X110723106Y-52765264D01*
X110724375Y-52767164D01*
X110842834Y-52885623D01*
X110842842Y-52885629D01*
X110948390Y-52956154D01*
X110993196Y-53009766D01*
X111003500Y-53059256D01*
X111003500Y-63035225D01*
X111029499Y-63132254D01*
X111079724Y-63219247D01*
X112165753Y-64305276D01*
X112252747Y-64355502D01*
X112349775Y-64381501D01*
X112349778Y-64381501D01*
X112457821Y-64381501D01*
X112457837Y-64381500D01*
X123119500Y-64381500D01*
X123186539Y-64401185D01*
X123232294Y-64453989D01*
X123243500Y-64505500D01*
X123243500Y-77875225D01*
X123269499Y-77972254D01*
X123319724Y-78059247D01*
X126543404Y-81282927D01*
X126614433Y-81353956D01*
X126701426Y-81404181D01*
X126798455Y-81430180D01*
X128392645Y-81430180D01*
X128459684Y-81449865D01*
X128505027Y-81501776D01*
X128589224Y-81682338D01*
X128589228Y-81682346D01*
X128715930Y-81863295D01*
X128715935Y-81863301D01*
X128872138Y-82019504D01*
X128872144Y-82019509D01*
X129053093Y-82146211D01*
X129053095Y-82146212D01*
X129053098Y-82146214D01*
X129172508Y-82201895D01*
X129181949Y-82206298D01*
X129234388Y-82252470D01*
X129253540Y-82319664D01*
X129233324Y-82386545D01*
X129181949Y-82431062D01*
X129053100Y-82491145D01*
X129053098Y-82491146D01*
X128872137Y-82617855D01*
X128715935Y-82774057D01*
X128589226Y-82955018D01*
X128589225Y-82955020D01*
X128495867Y-83155228D01*
X128495864Y-83155234D01*
X128438690Y-83368609D01*
X128438689Y-83368617D01*
X128419437Y-83588677D01*
X128419437Y-83588682D01*
X128438689Y-83808742D01*
X128438690Y-83808750D01*
X128495864Y-84022125D01*
X128495865Y-84022127D01*
X128495866Y-84022130D01*
X128574333Y-84190403D01*
X128589226Y-84222342D01*
X128589228Y-84222346D01*
X128715930Y-84403295D01*
X128715935Y-84403301D01*
X128872138Y-84559504D01*
X128872144Y-84559509D01*
X129053093Y-84686211D01*
X129053095Y-84686212D01*
X129053098Y-84686214D01*
X129172508Y-84741895D01*
X129181949Y-84746298D01*
X129234388Y-84792470D01*
X129253540Y-84859664D01*
X129233324Y-84926545D01*
X129181949Y-84971062D01*
X129053100Y-85031145D01*
X129053098Y-85031146D01*
X128872137Y-85157855D01*
X128715935Y-85314057D01*
X128589226Y-85495018D01*
X128589225Y-85495020D01*
X128495867Y-85695228D01*
X128495864Y-85695234D01*
X128438690Y-85908609D01*
X128438689Y-85908617D01*
X128419437Y-86128677D01*
X128419437Y-86128682D01*
X128438689Y-86348742D01*
X128438690Y-86348750D01*
X128495864Y-86562125D01*
X128495865Y-86562127D01*
X128495866Y-86562130D01*
X128589226Y-86762342D01*
X128589228Y-86762346D01*
X128715930Y-86943295D01*
X128715935Y-86943301D01*
X128872138Y-87099504D01*
X128872144Y-87099509D01*
X129053093Y-87226211D01*
X129053095Y-87226212D01*
X129053098Y-87226214D01*
X129172508Y-87281895D01*
X129181949Y-87286298D01*
X129234388Y-87332470D01*
X129253540Y-87399664D01*
X129233324Y-87466545D01*
X129181949Y-87511062D01*
X129053100Y-87571145D01*
X129053098Y-87571146D01*
X128872137Y-87697855D01*
X128715935Y-87854057D01*
X128589226Y-88035018D01*
X128589225Y-88035020D01*
X128495867Y-88235228D01*
X128495864Y-88235234D01*
X128438690Y-88448609D01*
X128438689Y-88448617D01*
X128419437Y-88668677D01*
X128419437Y-88668682D01*
X128438689Y-88888742D01*
X128438690Y-88888750D01*
X128495864Y-89102125D01*
X128495865Y-89102127D01*
X128495866Y-89102130D01*
X128589226Y-89302342D01*
X128589228Y-89302346D01*
X128715930Y-89483295D01*
X128715935Y-89483301D01*
X128872138Y-89639504D01*
X128872144Y-89639509D01*
X129053093Y-89766211D01*
X129053095Y-89766212D01*
X129053098Y-89766214D01*
X129172508Y-89821895D01*
X129181949Y-89826298D01*
X129234388Y-89872470D01*
X129253540Y-89939664D01*
X129233324Y-90006545D01*
X129181949Y-90051062D01*
X129053100Y-90111145D01*
X129053098Y-90111146D01*
X128872137Y-90237855D01*
X128715935Y-90394057D01*
X128589226Y-90575018D01*
X128589225Y-90575020D01*
X128495867Y-90775228D01*
X128495864Y-90775234D01*
X128438690Y-90988609D01*
X128438689Y-90988617D01*
X128419437Y-91208677D01*
X128419437Y-91208682D01*
X128438689Y-91428742D01*
X128438690Y-91428750D01*
X128495864Y-91642125D01*
X128495865Y-91642127D01*
X128495866Y-91642130D01*
X128589226Y-91842342D01*
X128589228Y-91842346D01*
X128715930Y-92023295D01*
X128715935Y-92023301D01*
X128872138Y-92179504D01*
X128872144Y-92179509D01*
X129053093Y-92306211D01*
X129053095Y-92306212D01*
X129053098Y-92306214D01*
X129172508Y-92361895D01*
X129181949Y-92366298D01*
X129234388Y-92412470D01*
X129253540Y-92479664D01*
X129233324Y-92546545D01*
X129181949Y-92591062D01*
X129053100Y-92651145D01*
X129053098Y-92651146D01*
X128872137Y-92777855D01*
X128715935Y-92934057D01*
X128589226Y-93115018D01*
X128589225Y-93115020D01*
X128495867Y-93315228D01*
X128495864Y-93315234D01*
X128438690Y-93528609D01*
X128438689Y-93528617D01*
X128419437Y-93748677D01*
X128419437Y-93748682D01*
X128438689Y-93968742D01*
X128438690Y-93968750D01*
X128495864Y-94182125D01*
X128495865Y-94182127D01*
X128495866Y-94182130D01*
X128589226Y-94382342D01*
X128589228Y-94382346D01*
X128715930Y-94563295D01*
X128715935Y-94563301D01*
X128872138Y-94719504D01*
X128872144Y-94719509D01*
X129053093Y-94846211D01*
X129053095Y-94846212D01*
X129053098Y-94846214D01*
X129172508Y-94901895D01*
X129181949Y-94906298D01*
X129234388Y-94952470D01*
X129253540Y-95019664D01*
X129233324Y-95086545D01*
X129181949Y-95131062D01*
X129053100Y-95191145D01*
X129053098Y-95191146D01*
X128872137Y-95317855D01*
X128715935Y-95474057D01*
X128589226Y-95655018D01*
X128589225Y-95655020D01*
X128495867Y-95855228D01*
X128495864Y-95855234D01*
X128438690Y-96068609D01*
X128438689Y-96068617D01*
X128419437Y-96288677D01*
X128419437Y-96288682D01*
X128438689Y-96508742D01*
X128438690Y-96508750D01*
X128495864Y-96722125D01*
X128495865Y-96722127D01*
X128495866Y-96722130D01*
X128589226Y-96922342D01*
X128589228Y-96922346D01*
X128715930Y-97103295D01*
X128715935Y-97103301D01*
X128872138Y-97259504D01*
X128872144Y-97259509D01*
X129053093Y-97386211D01*
X129053095Y-97386212D01*
X129053098Y-97386214D01*
X129172508Y-97441895D01*
X129181949Y-97446298D01*
X129234388Y-97492470D01*
X129253540Y-97559664D01*
X129233324Y-97626545D01*
X129181949Y-97671062D01*
X129053100Y-97731145D01*
X129053098Y-97731146D01*
X128872137Y-97857855D01*
X128715935Y-98014057D01*
X128589226Y-98195018D01*
X128589225Y-98195020D01*
X128495867Y-98395228D01*
X128495864Y-98395234D01*
X128438690Y-98608609D01*
X128438689Y-98608617D01*
X128419437Y-98828677D01*
X128419437Y-98828682D01*
X128438689Y-99048742D01*
X128438690Y-99048750D01*
X128495864Y-99262125D01*
X128495865Y-99262127D01*
X128495866Y-99262130D01*
X128589226Y-99462342D01*
X128589228Y-99462346D01*
X128715930Y-99643295D01*
X128715935Y-99643301D01*
X128872138Y-99799504D01*
X128872144Y-99799509D01*
X129053093Y-99926211D01*
X129053095Y-99926212D01*
X129053098Y-99926214D01*
X129117835Y-99956401D01*
X129181949Y-99986298D01*
X129234388Y-100032470D01*
X129253540Y-100099664D01*
X129233324Y-100166545D01*
X129181949Y-100211062D01*
X129053100Y-100271145D01*
X129053098Y-100271146D01*
X128872137Y-100397855D01*
X128715935Y-100554057D01*
X128589226Y-100735018D01*
X128589225Y-100735020D01*
X128495865Y-100935231D01*
X128438690Y-101148609D01*
X128438689Y-101148617D01*
X128419437Y-101368677D01*
X128419437Y-101368682D01*
X128438689Y-101588742D01*
X128438690Y-101588750D01*
X128495864Y-101802125D01*
X128495865Y-101802127D01*
X128495866Y-101802130D01*
X128589226Y-102002342D01*
X128589228Y-102002346D01*
X128715930Y-102183295D01*
X128715935Y-102183301D01*
X128872138Y-102339504D01*
X128872144Y-102339509D01*
X129053093Y-102466211D01*
X129053095Y-102466212D01*
X129053098Y-102466214D01*
X129172508Y-102521895D01*
X129181949Y-102526298D01*
X129234388Y-102572470D01*
X129253540Y-102639664D01*
X129233324Y-102706545D01*
X129181949Y-102751062D01*
X129053100Y-102811145D01*
X129053098Y-102811146D01*
X128872137Y-102937855D01*
X128715935Y-103094057D01*
X128589226Y-103275018D01*
X128589225Y-103275020D01*
X128495867Y-103475228D01*
X128495864Y-103475234D01*
X128438690Y-103688609D01*
X128438689Y-103688617D01*
X128419437Y-103908677D01*
X128419437Y-103908682D01*
X128438689Y-104128742D01*
X128438690Y-104128750D01*
X128495864Y-104342125D01*
X128495865Y-104342127D01*
X128495866Y-104342130D01*
X128589226Y-104542342D01*
X128589228Y-104542346D01*
X128715930Y-104723295D01*
X128715935Y-104723301D01*
X128872138Y-104879504D01*
X128872144Y-104879509D01*
X129053093Y-105006211D01*
X129053095Y-105006212D01*
X129053098Y-105006214D01*
X129172508Y-105061895D01*
X129181949Y-105066298D01*
X129234388Y-105112470D01*
X129253540Y-105179664D01*
X129233324Y-105246545D01*
X129181949Y-105291062D01*
X129053100Y-105351145D01*
X129053098Y-105351146D01*
X128872137Y-105477855D01*
X128715935Y-105634057D01*
X128589226Y-105815018D01*
X128589225Y-105815020D01*
X128495867Y-106015228D01*
X128495864Y-106015234D01*
X128438690Y-106228609D01*
X128438689Y-106228617D01*
X128419437Y-106448677D01*
X128419437Y-106448682D01*
X128438689Y-106668742D01*
X128438690Y-106668750D01*
X128495864Y-106882125D01*
X128495865Y-106882127D01*
X128495866Y-106882130D01*
X128547255Y-106992335D01*
X128589226Y-107082342D01*
X128589228Y-107082346D01*
X128715930Y-107263295D01*
X128715935Y-107263301D01*
X128872138Y-107419504D01*
X128872144Y-107419509D01*
X129053093Y-107546211D01*
X129053095Y-107546212D01*
X129053098Y-107546214D01*
X129253310Y-107639574D01*
X129466692Y-107696750D01*
X129623883Y-107710502D01*
X129686758Y-107716003D01*
X129686760Y-107716003D01*
X129686762Y-107716003D01*
X129741777Y-107711189D01*
X129906828Y-107696750D01*
X130120210Y-107639574D01*
X130320422Y-107546214D01*
X130501380Y-107419506D01*
X130657586Y-107263300D01*
X130784294Y-107082342D01*
X130877654Y-106882130D01*
X130934830Y-106668748D01*
X130954083Y-106448680D01*
X130934830Y-106228612D01*
X130877654Y-106015230D01*
X130784294Y-105815019D01*
X130657586Y-105634060D01*
X130501380Y-105477854D01*
X130501376Y-105477851D01*
X130501375Y-105477850D01*
X130320426Y-105351148D01*
X130320418Y-105351144D01*
X130191571Y-105291062D01*
X130139131Y-105244890D01*
X130119979Y-105177697D01*
X130140195Y-105110815D01*
X130191571Y-105066298D01*
X130197562Y-105063504D01*
X130320422Y-105006214D01*
X130501380Y-104879506D01*
X130657586Y-104723300D01*
X130784294Y-104542342D01*
X130877654Y-104342130D01*
X130934830Y-104128748D01*
X130954083Y-103908680D01*
X130934830Y-103688612D01*
X130877654Y-103475230D01*
X130784294Y-103275019D01*
X130657586Y-103094060D01*
X130501380Y-102937854D01*
X130501376Y-102937851D01*
X130501375Y-102937850D01*
X130320426Y-102811148D01*
X130320418Y-102811144D01*
X130191571Y-102751062D01*
X130139131Y-102704890D01*
X130119979Y-102637697D01*
X130140195Y-102570815D01*
X130191571Y-102526298D01*
X130197562Y-102523504D01*
X130320422Y-102466214D01*
X130501380Y-102339506D01*
X130657586Y-102183300D01*
X130784294Y-102002342D01*
X130877654Y-101802130D01*
X130934830Y-101588748D01*
X130954083Y-101368680D01*
X130934830Y-101148612D01*
X130877654Y-100935230D01*
X130784294Y-100735019D01*
X130657586Y-100554060D01*
X130501380Y-100397854D01*
X130501376Y-100397851D01*
X130501375Y-100397850D01*
X130320426Y-100271148D01*
X130320418Y-100271144D01*
X130191571Y-100211062D01*
X130139131Y-100164890D01*
X130119979Y-100097697D01*
X130140195Y-100030815D01*
X130191571Y-99986298D01*
X130197562Y-99983504D01*
X130320422Y-99926214D01*
X130501380Y-99799506D01*
X130657586Y-99643300D01*
X130784294Y-99462342D01*
X130877654Y-99262130D01*
X130934830Y-99048748D01*
X130954083Y-98828680D01*
X130934830Y-98608612D01*
X130877654Y-98395230D01*
X130784294Y-98195019D01*
X130657586Y-98014060D01*
X130501380Y-97857854D01*
X130501376Y-97857851D01*
X130501375Y-97857850D01*
X130320426Y-97731148D01*
X130320418Y-97731144D01*
X130191571Y-97671062D01*
X130139131Y-97624890D01*
X130119979Y-97557697D01*
X130140195Y-97490815D01*
X130191571Y-97446298D01*
X130197562Y-97443504D01*
X130320422Y-97386214D01*
X130501380Y-97259506D01*
X130657586Y-97103300D01*
X130784294Y-96922342D01*
X130877654Y-96722130D01*
X130934830Y-96508748D01*
X130954083Y-96288680D01*
X130934830Y-96068612D01*
X130877654Y-95855230D01*
X130784294Y-95655019D01*
X130657586Y-95474060D01*
X130501380Y-95317854D01*
X130501376Y-95317851D01*
X130501375Y-95317850D01*
X130320426Y-95191148D01*
X130320418Y-95191144D01*
X130191571Y-95131062D01*
X130139131Y-95084890D01*
X130119979Y-95017697D01*
X130140195Y-94950815D01*
X130191571Y-94906298D01*
X130197562Y-94903504D01*
X130320422Y-94846214D01*
X130501380Y-94719506D01*
X130657586Y-94563300D01*
X130784294Y-94382342D01*
X130877654Y-94182130D01*
X130934830Y-93968748D01*
X130954083Y-93748680D01*
X130934830Y-93528612D01*
X130877654Y-93315230D01*
X130784294Y-93115019D01*
X130657586Y-92934060D01*
X130501380Y-92777854D01*
X130501376Y-92777851D01*
X130501375Y-92777850D01*
X130320426Y-92651148D01*
X130320418Y-92651144D01*
X130191571Y-92591062D01*
X130139131Y-92544890D01*
X130119979Y-92477697D01*
X130140195Y-92410815D01*
X130191571Y-92366298D01*
X130197562Y-92363504D01*
X130320422Y-92306214D01*
X130501380Y-92179506D01*
X130657586Y-92023300D01*
X130784294Y-91842342D01*
X130877654Y-91642130D01*
X130934830Y-91428748D01*
X130954083Y-91208680D01*
X130934830Y-90988612D01*
X130877654Y-90775230D01*
X130784294Y-90575019D01*
X130657586Y-90394060D01*
X130501380Y-90237854D01*
X130501376Y-90237851D01*
X130501375Y-90237850D01*
X130320426Y-90111148D01*
X130320418Y-90111144D01*
X130191571Y-90051062D01*
X130139131Y-90004890D01*
X130119979Y-89937697D01*
X130140195Y-89870815D01*
X130191571Y-89826298D01*
X130197562Y-89823504D01*
X130320422Y-89766214D01*
X130501380Y-89639506D01*
X130657586Y-89483300D01*
X130784294Y-89302342D01*
X130877654Y-89102130D01*
X130934830Y-88888748D01*
X130954083Y-88668680D01*
X130934830Y-88448612D01*
X130877654Y-88235230D01*
X130784294Y-88035019D01*
X130657586Y-87854060D01*
X130501380Y-87697854D01*
X130501376Y-87697851D01*
X130501375Y-87697850D01*
X130320426Y-87571148D01*
X130320418Y-87571144D01*
X130191571Y-87511062D01*
X130139131Y-87464890D01*
X130119979Y-87397697D01*
X130140195Y-87330815D01*
X130191571Y-87286298D01*
X130197562Y-87283504D01*
X130320422Y-87226214D01*
X130501380Y-87099506D01*
X130657586Y-86943300D01*
X130784294Y-86762342D01*
X130877654Y-86562130D01*
X130934830Y-86348748D01*
X130954083Y-86128680D01*
X130934830Y-85908612D01*
X130877654Y-85695230D01*
X130784294Y-85495019D01*
X130657586Y-85314060D01*
X130501380Y-85157854D01*
X130501376Y-85157851D01*
X130501375Y-85157850D01*
X130320426Y-85031148D01*
X130320418Y-85031144D01*
X130191571Y-84971062D01*
X130139131Y-84924890D01*
X130119979Y-84857697D01*
X130140195Y-84790815D01*
X130191571Y-84746298D01*
X130197562Y-84743504D01*
X130320422Y-84686214D01*
X130501380Y-84559506D01*
X130657586Y-84403300D01*
X130784294Y-84222342D01*
X130868493Y-84041776D01*
X130914665Y-83989336D01*
X130980875Y-83970180D01*
X132661542Y-83970180D01*
X132661545Y-83970180D01*
X132758574Y-83944181D01*
X132845567Y-83893956D01*
X132916596Y-83822927D01*
X133105276Y-83634247D01*
X133155502Y-83547253D01*
X133181501Y-83450225D01*
X133181501Y-83349775D01*
X133181501Y-83342180D01*
X133181500Y-83342162D01*
X133181500Y-58980227D01*
X133181501Y-58980214D01*
X133181501Y-58869777D01*
X133181501Y-58869775D01*
X133155502Y-58772747D01*
X133105276Y-58685753D01*
X126041819Y-51622296D01*
X126008334Y-51560973D01*
X126005500Y-51534615D01*
X126005500Y-50241232D01*
X126005499Y-50241228D01*
X125973826Y-50081995D01*
X134999500Y-50081995D01*
X134999500Y-50318004D01*
X134999501Y-50318020D01*
X135030306Y-50552010D01*
X135091394Y-50779993D01*
X135181714Y-50998045D01*
X135181719Y-50998056D01*
X135252677Y-51120957D01*
X135299727Y-51202450D01*
X135299729Y-51202453D01*
X135299730Y-51202454D01*
X135443406Y-51389697D01*
X135443412Y-51389704D01*
X135610295Y-51556587D01*
X135610301Y-51556592D01*
X135797550Y-51700273D01*
X135928918Y-51776118D01*
X136001943Y-51818280D01*
X136001948Y-51818282D01*
X136001951Y-51818284D01*
X136220007Y-51908606D01*
X136447986Y-51969693D01*
X136681989Y-52000500D01*
X136681996Y-52000500D01*
X136918004Y-52000500D01*
X136918011Y-52000500D01*
X137152014Y-51969693D01*
X137379993Y-51908606D01*
X137598049Y-51818284D01*
X137802450Y-51700273D01*
X137989699Y-51556592D01*
X138156592Y-51389699D01*
X138300273Y-51202450D01*
X138418284Y-50998049D01*
X138508606Y-50779993D01*
X138569693Y-50552014D01*
X138600500Y-50318011D01*
X138600500Y-50081989D01*
X138569693Y-49847986D01*
X138508606Y-49620007D01*
X138418284Y-49401951D01*
X138418282Y-49401948D01*
X138418280Y-49401943D01*
X138376118Y-49328918D01*
X138300273Y-49197550D01*
X138156592Y-49010301D01*
X138156587Y-49010295D01*
X137989704Y-48843412D01*
X137989697Y-48843406D01*
X137802454Y-48699730D01*
X137802453Y-48699729D01*
X137802450Y-48699727D01*
X137720957Y-48652677D01*
X137598056Y-48581719D01*
X137598045Y-48581714D01*
X137379993Y-48491394D01*
X137152010Y-48430306D01*
X136918020Y-48399501D01*
X136918017Y-48399500D01*
X136918011Y-48399500D01*
X136681989Y-48399500D01*
X136681983Y-48399500D01*
X136681979Y-48399501D01*
X136447989Y-48430306D01*
X136220006Y-48491394D01*
X136001954Y-48581714D01*
X136001943Y-48581719D01*
X135797545Y-48699730D01*
X135610302Y-48843406D01*
X135610295Y-48843412D01*
X135443412Y-49010295D01*
X135443406Y-49010302D01*
X135299730Y-49197545D01*
X135181719Y-49401943D01*
X135181714Y-49401954D01*
X135091394Y-49620006D01*
X135030306Y-49847989D01*
X134999501Y-50081979D01*
X134999500Y-50081995D01*
X125973826Y-50081995D01*
X125972816Y-50076918D01*
X125920000Y-49949410D01*
X125908704Y-49922139D01*
X125815626Y-49782837D01*
X125697162Y-49664373D01*
X125557860Y-49571295D01*
X125403082Y-49507184D01*
X125403074Y-49507182D01*
X125238771Y-49474500D01*
X125238767Y-49474500D01*
X125071233Y-49474500D01*
X125071228Y-49474500D01*
X124906925Y-49507182D01*
X124906917Y-49507184D01*
X124752139Y-49571295D01*
X124612837Y-49664373D01*
X124494376Y-49782834D01*
X124494371Y-49782840D01*
X124493101Y-49784742D01*
X124492178Y-49785513D01*
X124490510Y-49787546D01*
X124490124Y-49787229D01*
X124439489Y-49829546D01*
X124370163Y-49838253D01*
X124307136Y-49808098D01*
X124286899Y-49784742D01*
X124285628Y-49782840D01*
X124285623Y-49782834D01*
X124167162Y-49664373D01*
X124027860Y-49571295D01*
X123873082Y-49507184D01*
X123873074Y-49507182D01*
X123708771Y-49474500D01*
X123708767Y-49474500D01*
X123541233Y-49474500D01*
X123541228Y-49474500D01*
X123376925Y-49507182D01*
X123376917Y-49507184D01*
X123222139Y-49571295D01*
X123082837Y-49664373D01*
X122964376Y-49782834D01*
X122964371Y-49782840D01*
X122963101Y-49784742D01*
X122962178Y-49785513D01*
X122960510Y-49787546D01*
X122960124Y-49787229D01*
X122909489Y-49829546D01*
X122840163Y-49838253D01*
X122777136Y-49808098D01*
X122756899Y-49784742D01*
X122755628Y-49782840D01*
X122755623Y-49782834D01*
X122637162Y-49664373D01*
X122497860Y-49571295D01*
X122343082Y-49507184D01*
X122343074Y-49507182D01*
X122178771Y-49474500D01*
X122178767Y-49474500D01*
X122011233Y-49474500D01*
X122011228Y-49474500D01*
X121846925Y-49507182D01*
X121846917Y-49507184D01*
X121692139Y-49571295D01*
X121552837Y-49664373D01*
X121434376Y-49782834D01*
X121434371Y-49782840D01*
X121433101Y-49784742D01*
X121432178Y-49785513D01*
X121430510Y-49787546D01*
X121430124Y-49787229D01*
X121379489Y-49829546D01*
X121310163Y-49838253D01*
X121247136Y-49808098D01*
X121226899Y-49784742D01*
X121225628Y-49782840D01*
X121225623Y-49782834D01*
X121107162Y-49664373D01*
X120967860Y-49571295D01*
X120813082Y-49507184D01*
X120813074Y-49507182D01*
X120648771Y-49474500D01*
X120648767Y-49474500D01*
X120481233Y-49474500D01*
X120481228Y-49474500D01*
X120316925Y-49507182D01*
X120316917Y-49507184D01*
X120162139Y-49571295D01*
X120022837Y-49664373D01*
X119904376Y-49782834D01*
X119904371Y-49782840D01*
X119903101Y-49784742D01*
X119902178Y-49785513D01*
X119900510Y-49787546D01*
X119900124Y-49787229D01*
X119849489Y-49829546D01*
X119780163Y-49838253D01*
X119717136Y-49808098D01*
X119696899Y-49784742D01*
X119695628Y-49782840D01*
X119695623Y-49782834D01*
X119577162Y-49664373D01*
X119437860Y-49571295D01*
X119283082Y-49507184D01*
X119283074Y-49507182D01*
X119118771Y-49474500D01*
X119118767Y-49474500D01*
X118951233Y-49474500D01*
X118951228Y-49474500D01*
X118786925Y-49507182D01*
X118786917Y-49507184D01*
X118632139Y-49571295D01*
X118492837Y-49664373D01*
X118374376Y-49782834D01*
X118374367Y-49782845D01*
X118372794Y-49785200D01*
X118371652Y-49786153D01*
X118370510Y-49787546D01*
X118370245Y-49787329D01*
X118319177Y-49830000D01*
X118249851Y-49838700D01*
X118186827Y-49808539D01*
X118166594Y-49785186D01*
X118165235Y-49783152D01*
X118046844Y-49664761D01*
X117907632Y-49571743D01*
X117907622Y-49571738D01*
X117755000Y-49508519D01*
X117755000Y-53041479D01*
X117907627Y-52978259D01*
X117907628Y-52978259D01*
X118046839Y-52885241D01*
X118046847Y-52885235D01*
X118165236Y-52766846D01*
X118166590Y-52764820D01*
X118167575Y-52763996D01*
X118169102Y-52762136D01*
X118169454Y-52762425D01*
X118220197Y-52720009D01*
X118289521Y-52711295D01*
X118352552Y-52741443D01*
X118372798Y-52764805D01*
X118374370Y-52767157D01*
X118374376Y-52767165D01*
X118492837Y-52885626D01*
X118557142Y-52928593D01*
X118632137Y-52978703D01*
X118632138Y-52978703D01*
X118632139Y-52978704D01*
X118675768Y-52996776D01*
X118730171Y-53040617D01*
X118752236Y-53106912D01*
X118734956Y-53174611D01*
X118715997Y-53199018D01*
X118596380Y-53318635D01*
X118504402Y-53465016D01*
X118447301Y-53628204D01*
X118427945Y-53799996D01*
X118427945Y-53800003D01*
X118447301Y-53971795D01*
X118504402Y-54134983D01*
X118596382Y-54281367D01*
X118596383Y-54281368D01*
X118718632Y-54403617D01*
X118865018Y-54495598D01*
X119028202Y-54552698D01*
X119085468Y-54559150D01*
X119199996Y-54572055D01*
X119200000Y-54572055D01*
X119200004Y-54572055D01*
X119298170Y-54560993D01*
X119371798Y-54552698D01*
X119534982Y-54495598D01*
X119681368Y-54403617D01*
X119803617Y-54281368D01*
X119895598Y-54134982D01*
X119952698Y-53971798D01*
X119972055Y-53800000D01*
X119952698Y-53628202D01*
X119895598Y-53465018D01*
X119803617Y-53318632D01*
X119681368Y-53196383D01*
X119681367Y-53196382D01*
X119549987Y-53113830D01*
X119503696Y-53061495D01*
X119493048Y-52992441D01*
X119521423Y-52928593D01*
X119547066Y-52905735D01*
X119577162Y-52885626D01*
X119695626Y-52767162D01*
X119696894Y-52765263D01*
X119697817Y-52764492D01*
X119699490Y-52762454D01*
X119699876Y-52762771D01*
X119750504Y-52720456D01*
X119819828Y-52711745D01*
X119882858Y-52741896D01*
X119903106Y-52765264D01*
X119904375Y-52767164D01*
X120022837Y-52885626D01*
X120087142Y-52928593D01*
X120162137Y-52978703D01*
X120162138Y-52978703D01*
X120162139Y-52978704D01*
X120183498Y-52987551D01*
X120316918Y-53042816D01*
X120470339Y-53073333D01*
X120481228Y-53075499D01*
X120481232Y-53075500D01*
X120481233Y-53075500D01*
X120648768Y-53075500D01*
X120648769Y-53075499D01*
X120813082Y-53042816D01*
X120967863Y-52978703D01*
X121107162Y-52885626D01*
X121225626Y-52767162D01*
X121226894Y-52765263D01*
X121227817Y-52764492D01*
X121229490Y-52762454D01*
X121229876Y-52762771D01*
X121280504Y-52720456D01*
X121349828Y-52711745D01*
X121412858Y-52741896D01*
X121433106Y-52765264D01*
X121434375Y-52767164D01*
X121552837Y-52885626D01*
X121617142Y-52928593D01*
X121692137Y-52978703D01*
X121692138Y-52978703D01*
X121692139Y-52978704D01*
X121713498Y-52987551D01*
X121846918Y-53042816D01*
X122000339Y-53073333D01*
X122011228Y-53075499D01*
X122011232Y-53075500D01*
X122011233Y-53075500D01*
X122178768Y-53075500D01*
X122178769Y-53075499D01*
X122343082Y-53042816D01*
X122497863Y-52978703D01*
X122637162Y-52885626D01*
X122755626Y-52767162D01*
X122756894Y-52765263D01*
X122757817Y-52764492D01*
X122759490Y-52762454D01*
X122759876Y-52762771D01*
X122810504Y-52720456D01*
X122879828Y-52711745D01*
X122942858Y-52741896D01*
X122963106Y-52765264D01*
X122964375Y-52767164D01*
X123082834Y-52885623D01*
X123082842Y-52885629D01*
X123188390Y-52956154D01*
X123233196Y-53009766D01*
X123243500Y-53059256D01*
X123243500Y-63494500D01*
X123223815Y-63561539D01*
X123171011Y-63607294D01*
X123119500Y-63618500D01*
X112609385Y-63618500D01*
X112542346Y-63598815D01*
X112521704Y-63582181D01*
X111802819Y-62863296D01*
X111769334Y-62801973D01*
X111766500Y-62775615D01*
X111766500Y-53059256D01*
X111786185Y-52992217D01*
X111821610Y-52956154D01*
X111923646Y-52887975D01*
X111927162Y-52885626D01*
X112045626Y-52767162D01*
X112046894Y-52765263D01*
X112047817Y-52764492D01*
X112049490Y-52762454D01*
X112049876Y-52762771D01*
X112100504Y-52720456D01*
X112169828Y-52711745D01*
X112232858Y-52741896D01*
X112253106Y-52765264D01*
X112254375Y-52767164D01*
X112372837Y-52885626D01*
X112437142Y-52928593D01*
X112512137Y-52978703D01*
X112512138Y-52978703D01*
X112512139Y-52978704D01*
X112512141Y-52978705D01*
X112579694Y-53006686D01*
X112634752Y-53029492D01*
X112689156Y-53073333D01*
X112711221Y-53139627D01*
X112711300Y-53144053D01*
X112711300Y-53152353D01*
X112691615Y-53219392D01*
X112674981Y-53240034D01*
X112596382Y-53318632D01*
X112504402Y-53465016D01*
X112447301Y-53628204D01*
X112427945Y-53799996D01*
X112427945Y-53800003D01*
X112447301Y-53971795D01*
X112504402Y-54134983D01*
X112596382Y-54281367D01*
X112596383Y-54281368D01*
X112718632Y-54403617D01*
X112865018Y-54495598D01*
X113028202Y-54552698D01*
X113085468Y-54559150D01*
X113199996Y-54572055D01*
X113200000Y-54572055D01*
X113200004Y-54572055D01*
X113298170Y-54560993D01*
X113371798Y-54552698D01*
X113534982Y-54495598D01*
X113681368Y-54403617D01*
X113803617Y-54281368D01*
X113895598Y-54134982D01*
X113952698Y-53971798D01*
X113972055Y-53800000D01*
X113952698Y-53628202D01*
X113895598Y-53465018D01*
X113803617Y-53318632D01*
X113681368Y-53196383D01*
X113681367Y-53196382D01*
X113534982Y-53104402D01*
X113501536Y-53092698D01*
X113444761Y-53051975D01*
X113419015Y-52987022D01*
X113432472Y-52918461D01*
X113454812Y-52887975D01*
X113457158Y-52885628D01*
X113457162Y-52885626D01*
X113575626Y-52767162D01*
X113576894Y-52765263D01*
X113577817Y-52764492D01*
X113579490Y-52762454D01*
X113579876Y-52762771D01*
X113630504Y-52720456D01*
X113699828Y-52711745D01*
X113762858Y-52741896D01*
X113783106Y-52765264D01*
X113784375Y-52767164D01*
X113902837Y-52885626D01*
X113967142Y-52928593D01*
X114042137Y-52978703D01*
X114042138Y-52978703D01*
X114042139Y-52978704D01*
X114063498Y-52987551D01*
X114196918Y-53042816D01*
X114350339Y-53073333D01*
X114361228Y-53075499D01*
X114361232Y-53075500D01*
X114361233Y-53075500D01*
X114528768Y-53075500D01*
X114528769Y-53075499D01*
X114693082Y-53042816D01*
X114847863Y-52978703D01*
X114987162Y-52885626D01*
X115105626Y-52767162D01*
X115106894Y-52765263D01*
X115107817Y-52764492D01*
X115109490Y-52762454D01*
X115109876Y-52762771D01*
X115160504Y-52720456D01*
X115229828Y-52711745D01*
X115292858Y-52741896D01*
X115313106Y-52765264D01*
X115314375Y-52767164D01*
X115432835Y-52885624D01*
X115432838Y-52885626D01*
X115555014Y-52967262D01*
X115599818Y-53020871D01*
X115608525Y-53090196D01*
X115578371Y-53153224D01*
X115552096Y-53175354D01*
X115518638Y-53196377D01*
X115518633Y-53196381D01*
X115396382Y-53318632D01*
X115304402Y-53465016D01*
X115247301Y-53628204D01*
X115227945Y-53799996D01*
X115227945Y-53800003D01*
X115247301Y-53971795D01*
X115304402Y-54134983D01*
X115396382Y-54281367D01*
X115396383Y-54281368D01*
X115518632Y-54403617D01*
X115665018Y-54495598D01*
X115828202Y-54552698D01*
X115885468Y-54559150D01*
X115999996Y-54572055D01*
X116000000Y-54572055D01*
X116000004Y-54572055D01*
X116098170Y-54560993D01*
X116171798Y-54552698D01*
X116334982Y-54495598D01*
X116481368Y-54403617D01*
X116603617Y-54281368D01*
X116695598Y-54134982D01*
X116752698Y-53971798D01*
X116772055Y-53800000D01*
X116752698Y-53628202D01*
X116695598Y-53465018D01*
X116603617Y-53318632D01*
X116481368Y-53196383D01*
X116481367Y-53196382D01*
X116422137Y-53159165D01*
X116375846Y-53106830D01*
X116365198Y-53037776D01*
X116393573Y-52973928D01*
X116419211Y-52951074D01*
X116517162Y-52885626D01*
X116635626Y-52767162D01*
X116637194Y-52764814D01*
X116638335Y-52763861D01*
X116639490Y-52762454D01*
X116639756Y-52762672D01*
X116690804Y-52720007D01*
X116760129Y-52711296D01*
X116823158Y-52741447D01*
X116843403Y-52764810D01*
X116844763Y-52766846D01*
X116963152Y-52885235D01*
X116963160Y-52885241D01*
X117102372Y-52978259D01*
X117254999Y-53041479D01*
X117255000Y-53041479D01*
X117255000Y-49508519D01*
X117102377Y-49571738D01*
X117102367Y-49571743D01*
X116963155Y-49664761D01*
X116844764Y-49783152D01*
X116844759Y-49783158D01*
X116843398Y-49785196D01*
X116842409Y-49786021D01*
X116840898Y-49787864D01*
X116840548Y-49787577D01*
X116789783Y-49829998D01*
X116720458Y-49838701D01*
X116657432Y-49808543D01*
X116637199Y-49785191D01*
X116635628Y-49782840D01*
X116635623Y-49782834D01*
X116517162Y-49664373D01*
X116377860Y-49571295D01*
X116223082Y-49507184D01*
X116223074Y-49507182D01*
X116058771Y-49474500D01*
X116058767Y-49474500D01*
X115891233Y-49474500D01*
X115891228Y-49474500D01*
X115726925Y-49507182D01*
X115726917Y-49507184D01*
X115572139Y-49571295D01*
X115432837Y-49664373D01*
X115314376Y-49782834D01*
X115314371Y-49782840D01*
X115313101Y-49784742D01*
X115312178Y-49785513D01*
X115310510Y-49787546D01*
X115310124Y-49787229D01*
X115259489Y-49829546D01*
X115190163Y-49838253D01*
X115127136Y-49808098D01*
X115106899Y-49784742D01*
X115105628Y-49782840D01*
X115105623Y-49782834D01*
X114987162Y-49664373D01*
X114847860Y-49571295D01*
X114693082Y-49507184D01*
X114693074Y-49507182D01*
X114528771Y-49474500D01*
X114528767Y-49474500D01*
X114361233Y-49474500D01*
X114361228Y-49474500D01*
X114196925Y-49507182D01*
X114196917Y-49507184D01*
X114042139Y-49571295D01*
X113902837Y-49664373D01*
X113784376Y-49782834D01*
X113784371Y-49782840D01*
X113783101Y-49784742D01*
X113782178Y-49785513D01*
X113780510Y-49787546D01*
X113780124Y-49787229D01*
X113729489Y-49829546D01*
X113660163Y-49838253D01*
X113597136Y-49808098D01*
X113576899Y-49784742D01*
X113575628Y-49782840D01*
X113575623Y-49782834D01*
X113457162Y-49664373D01*
X113317860Y-49571295D01*
X113163082Y-49507184D01*
X113163074Y-49507182D01*
X112998771Y-49474500D01*
X112998767Y-49474500D01*
X112831233Y-49474500D01*
X112831228Y-49474500D01*
X112666925Y-49507182D01*
X112666917Y-49507184D01*
X112512139Y-49571295D01*
X112372837Y-49664373D01*
X112254376Y-49782834D01*
X112254371Y-49782840D01*
X112253101Y-49784742D01*
X112252178Y-49785513D01*
X112250510Y-49787546D01*
X112250124Y-49787229D01*
X112199489Y-49829546D01*
X112130163Y-49838253D01*
X112067136Y-49808098D01*
X112046899Y-49784742D01*
X112045628Y-49782840D01*
X112045623Y-49782834D01*
X111927162Y-49664373D01*
X111787860Y-49571295D01*
X111633082Y-49507184D01*
X111633074Y-49507182D01*
X111468771Y-49474500D01*
X111468767Y-49474500D01*
X111301233Y-49474500D01*
X111301228Y-49474500D01*
X111136925Y-49507182D01*
X111136917Y-49507184D01*
X110982139Y-49571295D01*
X110842837Y-49664373D01*
X110724376Y-49782834D01*
X110724371Y-49782840D01*
X110723101Y-49784742D01*
X110722178Y-49785513D01*
X110720510Y-49787546D01*
X110720124Y-49787229D01*
X110669489Y-49829546D01*
X110600163Y-49838253D01*
X110537136Y-49808098D01*
X110516899Y-49784742D01*
X110515628Y-49782840D01*
X110515623Y-49782834D01*
X110397162Y-49664373D01*
X110257860Y-49571295D01*
X110103082Y-49507184D01*
X110103074Y-49507182D01*
X109938771Y-49474500D01*
X109938767Y-49474500D01*
X109771233Y-49474500D01*
X109771228Y-49474500D01*
X109606925Y-49507182D01*
X109606917Y-49507184D01*
X109452139Y-49571295D01*
X109312837Y-49664373D01*
X109194376Y-49782834D01*
X109194367Y-49782845D01*
X109192794Y-49785200D01*
X109191652Y-49786153D01*
X109190510Y-49787546D01*
X109190245Y-49787329D01*
X109139177Y-49830000D01*
X109069851Y-49838700D01*
X109006827Y-49808539D01*
X108986594Y-49785186D01*
X108985235Y-49783152D01*
X108866844Y-49664761D01*
X108727632Y-49571743D01*
X108727622Y-49571738D01*
X108575000Y-49508519D01*
X108075000Y-49508519D01*
X107922377Y-49571738D01*
X107922367Y-49571743D01*
X107783155Y-49664761D01*
X107664764Y-49783152D01*
X107664758Y-49783160D01*
X107571740Y-49922371D01*
X107571740Y-49922372D01*
X107507665Y-50077063D01*
X107507663Y-50077071D01*
X107475000Y-50241277D01*
X94600500Y-50241277D01*
X94600500Y-50081989D01*
X94569693Y-49847986D01*
X94508606Y-49620007D01*
X94418284Y-49401951D01*
X94418282Y-49401948D01*
X94418280Y-49401943D01*
X94376118Y-49328918D01*
X94300273Y-49197550D01*
X94156592Y-49010301D01*
X94156587Y-49010295D01*
X93989704Y-48843412D01*
X93989697Y-48843406D01*
X93802454Y-48699730D01*
X93802453Y-48699729D01*
X93802450Y-48699727D01*
X93720957Y-48652677D01*
X93598056Y-48581719D01*
X93598045Y-48581714D01*
X93379993Y-48491394D01*
X93152010Y-48430306D01*
X92918020Y-48399501D01*
X92918017Y-48399500D01*
X92918011Y-48399500D01*
X92681989Y-48399500D01*
X92681983Y-48399500D01*
X92681979Y-48399501D01*
X92447989Y-48430306D01*
X92220006Y-48491394D01*
X92001954Y-48581714D01*
X92001943Y-48581719D01*
X91797545Y-48699730D01*
X91610302Y-48843406D01*
X91610295Y-48843412D01*
X91443412Y-49010295D01*
X91443406Y-49010302D01*
X91299730Y-49197545D01*
X91181719Y-49401943D01*
X91181714Y-49401954D01*
X91091394Y-49620006D01*
X91047566Y-49783574D01*
X91011201Y-49843234D01*
X90948353Y-49873763D01*
X90878978Y-49865468D01*
X90825100Y-49820983D01*
X90803826Y-49754430D01*
X90803791Y-49751808D01*
X90800269Y-48124268D01*
X90819809Y-48057186D01*
X90872514Y-48011317D01*
X90924269Y-48000000D01*
X138875731Y-48000000D01*
X138942770Y-48019685D01*
G37*
%TD.AperFunction*%
%TD*%
M02*
