%TF.GenerationSoftware,KiCad,Pcbnew,8.0.6-8.0.6-0~ubuntu24.04.1*%
%TF.CreationDate,2024-11-24T15:52:48-06:00*%
%TF.ProjectId,edge_human_detection_board,65646765-5f68-4756-9d61-6e5f64657465,rev?*%
%TF.SameCoordinates,Original*%
%TF.FileFunction,Drillmap*%
%TF.FilePolarity,Positive*%
%FSLAX45Y45*%
G04 Gerber Fmt 4.5, Leading zero omitted, Abs format (unit mm)*
G04 Created by KiCad (PCBNEW 8.0.6-8.0.6-0~ubuntu24.04.1) date 2024-11-24 15:52:48*
%MOMM*%
%LPD*%
G01*
G04 APERTURE LIST*
%ADD10C,0.050000*%
%ADD11C,0.200000*%
%ADD12C,0.220000*%
%ADD13C,0.320000*%
G04 APERTURE END LIST*
D10*
X11450000Y-3300000D02*
X17250000Y-3300000D01*
X17250000Y-12050000D01*
X11450000Y-12050000D01*
X11450000Y-3300000D01*
D11*
D12*
X14090000Y-11640000D02*
X14310000Y-11860000D01*
X14310000Y-11640000D02*
X14090000Y-11860000D01*
X15290000Y-11640000D02*
X15510000Y-11860000D01*
X15510000Y-11640000D02*
X15290000Y-11860000D01*
D13*
X12010000Y-3700000D02*
G75*
G02*
X11690000Y-3700000I-160000J0D01*
G01*
X11690000Y-3700000D02*
G75*
G02*
X12010000Y-3700000I160000J0D01*
G01*
X12060000Y-11650000D02*
G75*
G02*
X11740000Y-11650000I-160000J0D01*
G01*
X11740000Y-11650000D02*
G75*
G02*
X12060000Y-11650000I160000J0D01*
G01*
X16960000Y-3700000D02*
G75*
G02*
X16640000Y-3700000I-160000J0D01*
G01*
X16640000Y-3700000D02*
G75*
G02*
X16960000Y-3700000I160000J0D01*
G01*
X17010000Y-11650000D02*
G75*
G02*
X16690000Y-11650000I-160000J0D01*
G01*
X16690000Y-11650000D02*
G75*
G02*
X17010000Y-11650000I160000J0D01*
G01*
D11*
X11708277Y-12363984D02*
X11708277Y-12163984D01*
X11708277Y-12163984D02*
X11755896Y-12163984D01*
X11755896Y-12163984D02*
X11784467Y-12173508D01*
X11784467Y-12173508D02*
X11803515Y-12192555D01*
X11803515Y-12192555D02*
X11813039Y-12211603D01*
X11813039Y-12211603D02*
X11822562Y-12249698D01*
X11822562Y-12249698D02*
X11822562Y-12278269D01*
X11822562Y-12278269D02*
X11813039Y-12316365D01*
X11813039Y-12316365D02*
X11803515Y-12335412D01*
X11803515Y-12335412D02*
X11784467Y-12354460D01*
X11784467Y-12354460D02*
X11755896Y-12363984D01*
X11755896Y-12363984D02*
X11708277Y-12363984D01*
X11908277Y-12363984D02*
X11908277Y-12230650D01*
X11908277Y-12268746D02*
X11917801Y-12249698D01*
X11917801Y-12249698D02*
X11927324Y-12240174D01*
X11927324Y-12240174D02*
X11946372Y-12230650D01*
X11946372Y-12230650D02*
X11965420Y-12230650D01*
X12032086Y-12363984D02*
X12032086Y-12230650D01*
X12032086Y-12163984D02*
X12022562Y-12173508D01*
X12022562Y-12173508D02*
X12032086Y-12183031D01*
X12032086Y-12183031D02*
X12041610Y-12173508D01*
X12041610Y-12173508D02*
X12032086Y-12163984D01*
X12032086Y-12163984D02*
X12032086Y-12183031D01*
X12155896Y-12363984D02*
X12136848Y-12354460D01*
X12136848Y-12354460D02*
X12127324Y-12335412D01*
X12127324Y-12335412D02*
X12127324Y-12163984D01*
X12260658Y-12363984D02*
X12241610Y-12354460D01*
X12241610Y-12354460D02*
X12232086Y-12335412D01*
X12232086Y-12335412D02*
X12232086Y-12163984D01*
X12489229Y-12363984D02*
X12489229Y-12163984D01*
X12489229Y-12163984D02*
X12555896Y-12306841D01*
X12555896Y-12306841D02*
X12622562Y-12163984D01*
X12622562Y-12163984D02*
X12622562Y-12363984D01*
X12803515Y-12363984D02*
X12803515Y-12259222D01*
X12803515Y-12259222D02*
X12793991Y-12240174D01*
X12793991Y-12240174D02*
X12774943Y-12230650D01*
X12774943Y-12230650D02*
X12736848Y-12230650D01*
X12736848Y-12230650D02*
X12717801Y-12240174D01*
X12803515Y-12354460D02*
X12784467Y-12363984D01*
X12784467Y-12363984D02*
X12736848Y-12363984D01*
X12736848Y-12363984D02*
X12717801Y-12354460D01*
X12717801Y-12354460D02*
X12708277Y-12335412D01*
X12708277Y-12335412D02*
X12708277Y-12316365D01*
X12708277Y-12316365D02*
X12717801Y-12297317D01*
X12717801Y-12297317D02*
X12736848Y-12287793D01*
X12736848Y-12287793D02*
X12784467Y-12287793D01*
X12784467Y-12287793D02*
X12803515Y-12278269D01*
X12898753Y-12230650D02*
X12898753Y-12430650D01*
X12898753Y-12240174D02*
X12917801Y-12230650D01*
X12917801Y-12230650D02*
X12955896Y-12230650D01*
X12955896Y-12230650D02*
X12974943Y-12240174D01*
X12974943Y-12240174D02*
X12984467Y-12249698D01*
X12984467Y-12249698D02*
X12993991Y-12268746D01*
X12993991Y-12268746D02*
X12993991Y-12325888D01*
X12993991Y-12325888D02*
X12984467Y-12344936D01*
X12984467Y-12344936D02*
X12974943Y-12354460D01*
X12974943Y-12354460D02*
X12955896Y-12363984D01*
X12955896Y-12363984D02*
X12917801Y-12363984D01*
X12917801Y-12363984D02*
X12898753Y-12354460D01*
X13079705Y-12344936D02*
X13089229Y-12354460D01*
X13089229Y-12354460D02*
X13079705Y-12363984D01*
X13079705Y-12363984D02*
X13070182Y-12354460D01*
X13070182Y-12354460D02*
X13079705Y-12344936D01*
X13079705Y-12344936D02*
X13079705Y-12363984D01*
X13079705Y-12240174D02*
X13089229Y-12249698D01*
X13089229Y-12249698D02*
X13079705Y-12259222D01*
X13079705Y-12259222D02*
X13070182Y-12249698D01*
X13070182Y-12249698D02*
X13079705Y-12240174D01*
X13079705Y-12240174D02*
X13079705Y-12259222D01*
X11247500Y-12592500D02*
X11447500Y-12792500D01*
X11447500Y-12592500D02*
X11247500Y-12792500D01*
X11698753Y-12603031D02*
X11708277Y-12593508D01*
X11708277Y-12593508D02*
X11727324Y-12583984D01*
X11727324Y-12583984D02*
X11774943Y-12583984D01*
X11774943Y-12583984D02*
X11793991Y-12593508D01*
X11793991Y-12593508D02*
X11803515Y-12603031D01*
X11803515Y-12603031D02*
X11813039Y-12622079D01*
X11813039Y-12622079D02*
X11813039Y-12641127D01*
X11813039Y-12641127D02*
X11803515Y-12669698D01*
X11803515Y-12669698D02*
X11689229Y-12783984D01*
X11689229Y-12783984D02*
X11813039Y-12783984D01*
X11898753Y-12764936D02*
X11908277Y-12774460D01*
X11908277Y-12774460D02*
X11898753Y-12783984D01*
X11898753Y-12783984D02*
X11889229Y-12774460D01*
X11889229Y-12774460D02*
X11898753Y-12764936D01*
X11898753Y-12764936D02*
X11898753Y-12783984D01*
X11984467Y-12603031D02*
X11993991Y-12593508D01*
X11993991Y-12593508D02*
X12013039Y-12583984D01*
X12013039Y-12583984D02*
X12060658Y-12583984D01*
X12060658Y-12583984D02*
X12079705Y-12593508D01*
X12079705Y-12593508D02*
X12089229Y-12603031D01*
X12089229Y-12603031D02*
X12098753Y-12622079D01*
X12098753Y-12622079D02*
X12098753Y-12641127D01*
X12098753Y-12641127D02*
X12089229Y-12669698D01*
X12089229Y-12669698D02*
X11974943Y-12783984D01*
X11974943Y-12783984D02*
X12098753Y-12783984D01*
X12222562Y-12583984D02*
X12241610Y-12583984D01*
X12241610Y-12583984D02*
X12260658Y-12593508D01*
X12260658Y-12593508D02*
X12270182Y-12603031D01*
X12270182Y-12603031D02*
X12279705Y-12622079D01*
X12279705Y-12622079D02*
X12289229Y-12660174D01*
X12289229Y-12660174D02*
X12289229Y-12707793D01*
X12289229Y-12707793D02*
X12279705Y-12745888D01*
X12279705Y-12745888D02*
X12270182Y-12764936D01*
X12270182Y-12764936D02*
X12260658Y-12774460D01*
X12260658Y-12774460D02*
X12241610Y-12783984D01*
X12241610Y-12783984D02*
X12222562Y-12783984D01*
X12222562Y-12783984D02*
X12203515Y-12774460D01*
X12203515Y-12774460D02*
X12193991Y-12764936D01*
X12193991Y-12764936D02*
X12184467Y-12745888D01*
X12184467Y-12745888D02*
X12174943Y-12707793D01*
X12174943Y-12707793D02*
X12174943Y-12660174D01*
X12174943Y-12660174D02*
X12184467Y-12622079D01*
X12184467Y-12622079D02*
X12193991Y-12603031D01*
X12193991Y-12603031D02*
X12203515Y-12593508D01*
X12203515Y-12593508D02*
X12222562Y-12583984D01*
X12413039Y-12583984D02*
X12432086Y-12583984D01*
X12432086Y-12583984D02*
X12451134Y-12593508D01*
X12451134Y-12593508D02*
X12460658Y-12603031D01*
X12460658Y-12603031D02*
X12470182Y-12622079D01*
X12470182Y-12622079D02*
X12479705Y-12660174D01*
X12479705Y-12660174D02*
X12479705Y-12707793D01*
X12479705Y-12707793D02*
X12470182Y-12745888D01*
X12470182Y-12745888D02*
X12460658Y-12764936D01*
X12460658Y-12764936D02*
X12451134Y-12774460D01*
X12451134Y-12774460D02*
X12432086Y-12783984D01*
X12432086Y-12783984D02*
X12413039Y-12783984D01*
X12413039Y-12783984D02*
X12393991Y-12774460D01*
X12393991Y-12774460D02*
X12384467Y-12764936D01*
X12384467Y-12764936D02*
X12374943Y-12745888D01*
X12374943Y-12745888D02*
X12365420Y-12707793D01*
X12365420Y-12707793D02*
X12365420Y-12660174D01*
X12365420Y-12660174D02*
X12374943Y-12622079D01*
X12374943Y-12622079D02*
X12384467Y-12603031D01*
X12384467Y-12603031D02*
X12393991Y-12593508D01*
X12393991Y-12593508D02*
X12413039Y-12583984D01*
X12565420Y-12783984D02*
X12565420Y-12650650D01*
X12565420Y-12669698D02*
X12574943Y-12660174D01*
X12574943Y-12660174D02*
X12593991Y-12650650D01*
X12593991Y-12650650D02*
X12622563Y-12650650D01*
X12622563Y-12650650D02*
X12641610Y-12660174D01*
X12641610Y-12660174D02*
X12651134Y-12679222D01*
X12651134Y-12679222D02*
X12651134Y-12783984D01*
X12651134Y-12679222D02*
X12660658Y-12660174D01*
X12660658Y-12660174D02*
X12679705Y-12650650D01*
X12679705Y-12650650D02*
X12708277Y-12650650D01*
X12708277Y-12650650D02*
X12727324Y-12660174D01*
X12727324Y-12660174D02*
X12736848Y-12679222D01*
X12736848Y-12679222D02*
X12736848Y-12783984D01*
X12832086Y-12783984D02*
X12832086Y-12650650D01*
X12832086Y-12669698D02*
X12841610Y-12660174D01*
X12841610Y-12660174D02*
X12860658Y-12650650D01*
X12860658Y-12650650D02*
X12889229Y-12650650D01*
X12889229Y-12650650D02*
X12908277Y-12660174D01*
X12908277Y-12660174D02*
X12917801Y-12679222D01*
X12917801Y-12679222D02*
X12917801Y-12783984D01*
X12917801Y-12679222D02*
X12927324Y-12660174D01*
X12927324Y-12660174D02*
X12946372Y-12650650D01*
X12946372Y-12650650D02*
X12974943Y-12650650D01*
X12974943Y-12650650D02*
X12993991Y-12660174D01*
X12993991Y-12660174D02*
X13003515Y-12679222D01*
X13003515Y-12679222D02*
X13003515Y-12783984D01*
X13393991Y-12574460D02*
X13222563Y-12831603D01*
X13651134Y-12583984D02*
X13670182Y-12583984D01*
X13670182Y-12583984D02*
X13689229Y-12593508D01*
X13689229Y-12593508D02*
X13698753Y-12603031D01*
X13698753Y-12603031D02*
X13708277Y-12622079D01*
X13708277Y-12622079D02*
X13717801Y-12660174D01*
X13717801Y-12660174D02*
X13717801Y-12707793D01*
X13717801Y-12707793D02*
X13708277Y-12745888D01*
X13708277Y-12745888D02*
X13698753Y-12764936D01*
X13698753Y-12764936D02*
X13689229Y-12774460D01*
X13689229Y-12774460D02*
X13670182Y-12783984D01*
X13670182Y-12783984D02*
X13651134Y-12783984D01*
X13651134Y-12783984D02*
X13632086Y-12774460D01*
X13632086Y-12774460D02*
X13622563Y-12764936D01*
X13622563Y-12764936D02*
X13613039Y-12745888D01*
X13613039Y-12745888D02*
X13603515Y-12707793D01*
X13603515Y-12707793D02*
X13603515Y-12660174D01*
X13603515Y-12660174D02*
X13613039Y-12622079D01*
X13613039Y-12622079D02*
X13622563Y-12603031D01*
X13622563Y-12603031D02*
X13632086Y-12593508D01*
X13632086Y-12593508D02*
X13651134Y-12583984D01*
X13803515Y-12764936D02*
X13813039Y-12774460D01*
X13813039Y-12774460D02*
X13803515Y-12783984D01*
X13803515Y-12783984D02*
X13793991Y-12774460D01*
X13793991Y-12774460D02*
X13803515Y-12764936D01*
X13803515Y-12764936D02*
X13803515Y-12783984D01*
X13936848Y-12583984D02*
X13955896Y-12583984D01*
X13955896Y-12583984D02*
X13974944Y-12593508D01*
X13974944Y-12593508D02*
X13984467Y-12603031D01*
X13984467Y-12603031D02*
X13993991Y-12622079D01*
X13993991Y-12622079D02*
X14003515Y-12660174D01*
X14003515Y-12660174D02*
X14003515Y-12707793D01*
X14003515Y-12707793D02*
X13993991Y-12745888D01*
X13993991Y-12745888D02*
X13984467Y-12764936D01*
X13984467Y-12764936D02*
X13974944Y-12774460D01*
X13974944Y-12774460D02*
X13955896Y-12783984D01*
X13955896Y-12783984D02*
X13936848Y-12783984D01*
X13936848Y-12783984D02*
X13917801Y-12774460D01*
X13917801Y-12774460D02*
X13908277Y-12764936D01*
X13908277Y-12764936D02*
X13898753Y-12745888D01*
X13898753Y-12745888D02*
X13889229Y-12707793D01*
X13889229Y-12707793D02*
X13889229Y-12660174D01*
X13889229Y-12660174D02*
X13898753Y-12622079D01*
X13898753Y-12622079D02*
X13908277Y-12603031D01*
X13908277Y-12603031D02*
X13917801Y-12593508D01*
X13917801Y-12593508D02*
X13936848Y-12583984D01*
X14117801Y-12669698D02*
X14098753Y-12660174D01*
X14098753Y-12660174D02*
X14089229Y-12650650D01*
X14089229Y-12650650D02*
X14079706Y-12631603D01*
X14079706Y-12631603D02*
X14079706Y-12622079D01*
X14079706Y-12622079D02*
X14089229Y-12603031D01*
X14089229Y-12603031D02*
X14098753Y-12593508D01*
X14098753Y-12593508D02*
X14117801Y-12583984D01*
X14117801Y-12583984D02*
X14155896Y-12583984D01*
X14155896Y-12583984D02*
X14174944Y-12593508D01*
X14174944Y-12593508D02*
X14184467Y-12603031D01*
X14184467Y-12603031D02*
X14193991Y-12622079D01*
X14193991Y-12622079D02*
X14193991Y-12631603D01*
X14193991Y-12631603D02*
X14184467Y-12650650D01*
X14184467Y-12650650D02*
X14174944Y-12660174D01*
X14174944Y-12660174D02*
X14155896Y-12669698D01*
X14155896Y-12669698D02*
X14117801Y-12669698D01*
X14117801Y-12669698D02*
X14098753Y-12679222D01*
X14098753Y-12679222D02*
X14089229Y-12688746D01*
X14089229Y-12688746D02*
X14079706Y-12707793D01*
X14079706Y-12707793D02*
X14079706Y-12745888D01*
X14079706Y-12745888D02*
X14089229Y-12764936D01*
X14089229Y-12764936D02*
X14098753Y-12774460D01*
X14098753Y-12774460D02*
X14117801Y-12783984D01*
X14117801Y-12783984D02*
X14155896Y-12783984D01*
X14155896Y-12783984D02*
X14174944Y-12774460D01*
X14174944Y-12774460D02*
X14184467Y-12764936D01*
X14184467Y-12764936D02*
X14193991Y-12745888D01*
X14193991Y-12745888D02*
X14193991Y-12707793D01*
X14193991Y-12707793D02*
X14184467Y-12688746D01*
X14184467Y-12688746D02*
X14174944Y-12679222D01*
X14174944Y-12679222D02*
X14155896Y-12669698D01*
X14365420Y-12583984D02*
X14327325Y-12583984D01*
X14327325Y-12583984D02*
X14308277Y-12593508D01*
X14308277Y-12593508D02*
X14298753Y-12603031D01*
X14298753Y-12603031D02*
X14279706Y-12631603D01*
X14279706Y-12631603D02*
X14270182Y-12669698D01*
X14270182Y-12669698D02*
X14270182Y-12745888D01*
X14270182Y-12745888D02*
X14279706Y-12764936D01*
X14279706Y-12764936D02*
X14289229Y-12774460D01*
X14289229Y-12774460D02*
X14308277Y-12783984D01*
X14308277Y-12783984D02*
X14346372Y-12783984D01*
X14346372Y-12783984D02*
X14365420Y-12774460D01*
X14365420Y-12774460D02*
X14374944Y-12764936D01*
X14374944Y-12764936D02*
X14384467Y-12745888D01*
X14384467Y-12745888D02*
X14384467Y-12698269D01*
X14384467Y-12698269D02*
X14374944Y-12679222D01*
X14374944Y-12679222D02*
X14365420Y-12669698D01*
X14365420Y-12669698D02*
X14346372Y-12660174D01*
X14346372Y-12660174D02*
X14308277Y-12660174D01*
X14308277Y-12660174D02*
X14289229Y-12669698D01*
X14289229Y-12669698D02*
X14279706Y-12679222D01*
X14279706Y-12679222D02*
X14270182Y-12698269D01*
X14555896Y-12583984D02*
X14517801Y-12583984D01*
X14517801Y-12583984D02*
X14498753Y-12593508D01*
X14498753Y-12593508D02*
X14489229Y-12603031D01*
X14489229Y-12603031D02*
X14470182Y-12631603D01*
X14470182Y-12631603D02*
X14460658Y-12669698D01*
X14460658Y-12669698D02*
X14460658Y-12745888D01*
X14460658Y-12745888D02*
X14470182Y-12764936D01*
X14470182Y-12764936D02*
X14479706Y-12774460D01*
X14479706Y-12774460D02*
X14498753Y-12783984D01*
X14498753Y-12783984D02*
X14536848Y-12783984D01*
X14536848Y-12783984D02*
X14555896Y-12774460D01*
X14555896Y-12774460D02*
X14565420Y-12764936D01*
X14565420Y-12764936D02*
X14574944Y-12745888D01*
X14574944Y-12745888D02*
X14574944Y-12698269D01*
X14574944Y-12698269D02*
X14565420Y-12679222D01*
X14565420Y-12679222D02*
X14555896Y-12669698D01*
X14555896Y-12669698D02*
X14536848Y-12660174D01*
X14536848Y-12660174D02*
X14498753Y-12660174D01*
X14498753Y-12660174D02*
X14479706Y-12669698D01*
X14479706Y-12669698D02*
X14470182Y-12679222D01*
X14470182Y-12679222D02*
X14460658Y-12698269D01*
X14651134Y-12583984D02*
X14651134Y-12622079D01*
X14727325Y-12583984D02*
X14727325Y-12622079D01*
X15022563Y-12860174D02*
X15013039Y-12850650D01*
X15013039Y-12850650D02*
X14993991Y-12822079D01*
X14993991Y-12822079D02*
X14984468Y-12803031D01*
X14984468Y-12803031D02*
X14974944Y-12774460D01*
X14974944Y-12774460D02*
X14965420Y-12726841D01*
X14965420Y-12726841D02*
X14965420Y-12688746D01*
X14965420Y-12688746D02*
X14974944Y-12641127D01*
X14974944Y-12641127D02*
X14984468Y-12612555D01*
X14984468Y-12612555D02*
X14993991Y-12593508D01*
X14993991Y-12593508D02*
X15013039Y-12564936D01*
X15013039Y-12564936D02*
X15022563Y-12555412D01*
X15089229Y-12603031D02*
X15098753Y-12593508D01*
X15098753Y-12593508D02*
X15117801Y-12583984D01*
X15117801Y-12583984D02*
X15165420Y-12583984D01*
X15165420Y-12583984D02*
X15184468Y-12593508D01*
X15184468Y-12593508D02*
X15193991Y-12603031D01*
X15193991Y-12603031D02*
X15203515Y-12622079D01*
X15203515Y-12622079D02*
X15203515Y-12641127D01*
X15203515Y-12641127D02*
X15193991Y-12669698D01*
X15193991Y-12669698D02*
X15079706Y-12783984D01*
X15079706Y-12783984D02*
X15203515Y-12783984D01*
X15441610Y-12783984D02*
X15441610Y-12583984D01*
X15527325Y-12783984D02*
X15527325Y-12679222D01*
X15527325Y-12679222D02*
X15517801Y-12660174D01*
X15517801Y-12660174D02*
X15498753Y-12650650D01*
X15498753Y-12650650D02*
X15470182Y-12650650D01*
X15470182Y-12650650D02*
X15451134Y-12660174D01*
X15451134Y-12660174D02*
X15441610Y-12669698D01*
X15651134Y-12783984D02*
X15632087Y-12774460D01*
X15632087Y-12774460D02*
X15622563Y-12764936D01*
X15622563Y-12764936D02*
X15613039Y-12745888D01*
X15613039Y-12745888D02*
X15613039Y-12688746D01*
X15613039Y-12688746D02*
X15622563Y-12669698D01*
X15622563Y-12669698D02*
X15632087Y-12660174D01*
X15632087Y-12660174D02*
X15651134Y-12650650D01*
X15651134Y-12650650D02*
X15679706Y-12650650D01*
X15679706Y-12650650D02*
X15698753Y-12660174D01*
X15698753Y-12660174D02*
X15708277Y-12669698D01*
X15708277Y-12669698D02*
X15717801Y-12688746D01*
X15717801Y-12688746D02*
X15717801Y-12745888D01*
X15717801Y-12745888D02*
X15708277Y-12764936D01*
X15708277Y-12764936D02*
X15698753Y-12774460D01*
X15698753Y-12774460D02*
X15679706Y-12783984D01*
X15679706Y-12783984D02*
X15651134Y-12783984D01*
X15832087Y-12783984D02*
X15813039Y-12774460D01*
X15813039Y-12774460D02*
X15803515Y-12755412D01*
X15803515Y-12755412D02*
X15803515Y-12583984D01*
X15984468Y-12774460D02*
X15965420Y-12783984D01*
X15965420Y-12783984D02*
X15927325Y-12783984D01*
X15927325Y-12783984D02*
X15908277Y-12774460D01*
X15908277Y-12774460D02*
X15898753Y-12755412D01*
X15898753Y-12755412D02*
X15898753Y-12679222D01*
X15898753Y-12679222D02*
X15908277Y-12660174D01*
X15908277Y-12660174D02*
X15927325Y-12650650D01*
X15927325Y-12650650D02*
X15965420Y-12650650D01*
X15965420Y-12650650D02*
X15984468Y-12660174D01*
X15984468Y-12660174D02*
X15993991Y-12679222D01*
X15993991Y-12679222D02*
X15993991Y-12698269D01*
X15993991Y-12698269D02*
X15898753Y-12717317D01*
X16070182Y-12774460D02*
X16089230Y-12783984D01*
X16089230Y-12783984D02*
X16127325Y-12783984D01*
X16127325Y-12783984D02*
X16146372Y-12774460D01*
X16146372Y-12774460D02*
X16155896Y-12755412D01*
X16155896Y-12755412D02*
X16155896Y-12745888D01*
X16155896Y-12745888D02*
X16146372Y-12726841D01*
X16146372Y-12726841D02*
X16127325Y-12717317D01*
X16127325Y-12717317D02*
X16098753Y-12717317D01*
X16098753Y-12717317D02*
X16079706Y-12707793D01*
X16079706Y-12707793D02*
X16070182Y-12688746D01*
X16070182Y-12688746D02*
X16070182Y-12679222D01*
X16070182Y-12679222D02*
X16079706Y-12660174D01*
X16079706Y-12660174D02*
X16098753Y-12650650D01*
X16098753Y-12650650D02*
X16127325Y-12650650D01*
X16127325Y-12650650D02*
X16146372Y-12660174D01*
X16222563Y-12860174D02*
X16232087Y-12850650D01*
X16232087Y-12850650D02*
X16251134Y-12822079D01*
X16251134Y-12822079D02*
X16260658Y-12803031D01*
X16260658Y-12803031D02*
X16270182Y-12774460D01*
X16270182Y-12774460D02*
X16279706Y-12726841D01*
X16279706Y-12726841D02*
X16279706Y-12688746D01*
X16279706Y-12688746D02*
X16270182Y-12641127D01*
X16270182Y-12641127D02*
X16260658Y-12612555D01*
X16260658Y-12612555D02*
X16251134Y-12593508D01*
X16251134Y-12593508D02*
X16232087Y-12564936D01*
X16232087Y-12564936D02*
X16222563Y-12555412D01*
X16584468Y-12860174D02*
X16574944Y-12850650D01*
X16574944Y-12850650D02*
X16555896Y-12822079D01*
X16555896Y-12822079D02*
X16546372Y-12803031D01*
X16546372Y-12803031D02*
X16536849Y-12774460D01*
X16536849Y-12774460D02*
X16527325Y-12726841D01*
X16527325Y-12726841D02*
X16527325Y-12688746D01*
X16527325Y-12688746D02*
X16536849Y-12641127D01*
X16536849Y-12641127D02*
X16546372Y-12612555D01*
X16546372Y-12612555D02*
X16555896Y-12593508D01*
X16555896Y-12593508D02*
X16574944Y-12564936D01*
X16574944Y-12564936D02*
X16584468Y-12555412D01*
X16660658Y-12650650D02*
X16660658Y-12783984D01*
X16660658Y-12669698D02*
X16670182Y-12660174D01*
X16670182Y-12660174D02*
X16689230Y-12650650D01*
X16689230Y-12650650D02*
X16717801Y-12650650D01*
X16717801Y-12650650D02*
X16736849Y-12660174D01*
X16736849Y-12660174D02*
X16746372Y-12679222D01*
X16746372Y-12679222D02*
X16746372Y-12783984D01*
X16870182Y-12783984D02*
X16851134Y-12774460D01*
X16851134Y-12774460D02*
X16841611Y-12764936D01*
X16841611Y-12764936D02*
X16832087Y-12745888D01*
X16832087Y-12745888D02*
X16832087Y-12688746D01*
X16832087Y-12688746D02*
X16841611Y-12669698D01*
X16841611Y-12669698D02*
X16851134Y-12660174D01*
X16851134Y-12660174D02*
X16870182Y-12650650D01*
X16870182Y-12650650D02*
X16898754Y-12650650D01*
X16898754Y-12650650D02*
X16917801Y-12660174D01*
X16917801Y-12660174D02*
X16927325Y-12669698D01*
X16927325Y-12669698D02*
X16936849Y-12688746D01*
X16936849Y-12688746D02*
X16936849Y-12745888D01*
X16936849Y-12745888D02*
X16927325Y-12764936D01*
X16927325Y-12764936D02*
X16917801Y-12774460D01*
X16917801Y-12774460D02*
X16898754Y-12783984D01*
X16898754Y-12783984D02*
X16870182Y-12783984D01*
X16993992Y-12650650D02*
X17070182Y-12650650D01*
X17022563Y-12583984D02*
X17022563Y-12755412D01*
X17022563Y-12755412D02*
X17032087Y-12774460D01*
X17032087Y-12774460D02*
X17051134Y-12783984D01*
X17051134Y-12783984D02*
X17070182Y-12783984D01*
X17289230Y-12650650D02*
X17289230Y-12850650D01*
X17289230Y-12660174D02*
X17308277Y-12650650D01*
X17308277Y-12650650D02*
X17346373Y-12650650D01*
X17346373Y-12650650D02*
X17365420Y-12660174D01*
X17365420Y-12660174D02*
X17374944Y-12669698D01*
X17374944Y-12669698D02*
X17384468Y-12688746D01*
X17384468Y-12688746D02*
X17384468Y-12745888D01*
X17384468Y-12745888D02*
X17374944Y-12764936D01*
X17374944Y-12764936D02*
X17365420Y-12774460D01*
X17365420Y-12774460D02*
X17346373Y-12783984D01*
X17346373Y-12783984D02*
X17308277Y-12783984D01*
X17308277Y-12783984D02*
X17289230Y-12774460D01*
X17498754Y-12783984D02*
X17479706Y-12774460D01*
X17479706Y-12774460D02*
X17470182Y-12755412D01*
X17470182Y-12755412D02*
X17470182Y-12583984D01*
X17660658Y-12783984D02*
X17660658Y-12679222D01*
X17660658Y-12679222D02*
X17651135Y-12660174D01*
X17651135Y-12660174D02*
X17632087Y-12650650D01*
X17632087Y-12650650D02*
X17593992Y-12650650D01*
X17593992Y-12650650D02*
X17574944Y-12660174D01*
X17660658Y-12774460D02*
X17641611Y-12783984D01*
X17641611Y-12783984D02*
X17593992Y-12783984D01*
X17593992Y-12783984D02*
X17574944Y-12774460D01*
X17574944Y-12774460D02*
X17565420Y-12755412D01*
X17565420Y-12755412D02*
X17565420Y-12736365D01*
X17565420Y-12736365D02*
X17574944Y-12717317D01*
X17574944Y-12717317D02*
X17593992Y-12707793D01*
X17593992Y-12707793D02*
X17641611Y-12707793D01*
X17641611Y-12707793D02*
X17660658Y-12698269D01*
X17727325Y-12650650D02*
X17803515Y-12650650D01*
X17755896Y-12583984D02*
X17755896Y-12755412D01*
X17755896Y-12755412D02*
X17765420Y-12774460D01*
X17765420Y-12774460D02*
X17784468Y-12783984D01*
X17784468Y-12783984D02*
X17803515Y-12783984D01*
X17946373Y-12774460D02*
X17927325Y-12783984D01*
X17927325Y-12783984D02*
X17889230Y-12783984D01*
X17889230Y-12783984D02*
X17870182Y-12774460D01*
X17870182Y-12774460D02*
X17860658Y-12755412D01*
X17860658Y-12755412D02*
X17860658Y-12679222D01*
X17860658Y-12679222D02*
X17870182Y-12660174D01*
X17870182Y-12660174D02*
X17889230Y-12650650D01*
X17889230Y-12650650D02*
X17927325Y-12650650D01*
X17927325Y-12650650D02*
X17946373Y-12660174D01*
X17946373Y-12660174D02*
X17955896Y-12679222D01*
X17955896Y-12679222D02*
X17955896Y-12698269D01*
X17955896Y-12698269D02*
X17860658Y-12717317D01*
X18127325Y-12783984D02*
X18127325Y-12583984D01*
X18127325Y-12774460D02*
X18108277Y-12783984D01*
X18108277Y-12783984D02*
X18070182Y-12783984D01*
X18070182Y-12783984D02*
X18051135Y-12774460D01*
X18051135Y-12774460D02*
X18041611Y-12764936D01*
X18041611Y-12764936D02*
X18032087Y-12745888D01*
X18032087Y-12745888D02*
X18032087Y-12688746D01*
X18032087Y-12688746D02*
X18041611Y-12669698D01*
X18041611Y-12669698D02*
X18051135Y-12660174D01*
X18051135Y-12660174D02*
X18070182Y-12650650D01*
X18070182Y-12650650D02*
X18108277Y-12650650D01*
X18108277Y-12650650D02*
X18127325Y-12660174D01*
X18203516Y-12860174D02*
X18213039Y-12850650D01*
X18213039Y-12850650D02*
X18232087Y-12822079D01*
X18232087Y-12822079D02*
X18241611Y-12803031D01*
X18241611Y-12803031D02*
X18251135Y-12774460D01*
X18251135Y-12774460D02*
X18260658Y-12726841D01*
X18260658Y-12726841D02*
X18260658Y-12688746D01*
X18260658Y-12688746D02*
X18251135Y-12641127D01*
X18251135Y-12641127D02*
X18241611Y-12612555D01*
X18241611Y-12612555D02*
X18232087Y-12593508D01*
X18232087Y-12593508D02*
X18213039Y-12564936D01*
X18213039Y-12564936D02*
X18203516Y-12555412D01*
X11447500Y-13012500D02*
G75*
G02*
X11247500Y-13012500I-100000J0D01*
G01*
X11247500Y-13012500D02*
G75*
G02*
X11447500Y-13012500I100000J0D01*
G01*
X11689229Y-12903984D02*
X11813039Y-12903984D01*
X11813039Y-12903984D02*
X11746372Y-12980174D01*
X11746372Y-12980174D02*
X11774943Y-12980174D01*
X11774943Y-12980174D02*
X11793991Y-12989698D01*
X11793991Y-12989698D02*
X11803515Y-12999222D01*
X11803515Y-12999222D02*
X11813039Y-13018269D01*
X11813039Y-13018269D02*
X11813039Y-13065888D01*
X11813039Y-13065888D02*
X11803515Y-13084936D01*
X11803515Y-13084936D02*
X11793991Y-13094460D01*
X11793991Y-13094460D02*
X11774943Y-13103984D01*
X11774943Y-13103984D02*
X11717801Y-13103984D01*
X11717801Y-13103984D02*
X11698753Y-13094460D01*
X11698753Y-13094460D02*
X11689229Y-13084936D01*
X11898753Y-13084936D02*
X11908277Y-13094460D01*
X11908277Y-13094460D02*
X11898753Y-13103984D01*
X11898753Y-13103984D02*
X11889229Y-13094460D01*
X11889229Y-13094460D02*
X11898753Y-13084936D01*
X11898753Y-13084936D02*
X11898753Y-13103984D01*
X11984467Y-12923031D02*
X11993991Y-12913508D01*
X11993991Y-12913508D02*
X12013039Y-12903984D01*
X12013039Y-12903984D02*
X12060658Y-12903984D01*
X12060658Y-12903984D02*
X12079705Y-12913508D01*
X12079705Y-12913508D02*
X12089229Y-12923031D01*
X12089229Y-12923031D02*
X12098753Y-12942079D01*
X12098753Y-12942079D02*
X12098753Y-12961127D01*
X12098753Y-12961127D02*
X12089229Y-12989698D01*
X12089229Y-12989698D02*
X11974943Y-13103984D01*
X11974943Y-13103984D02*
X12098753Y-13103984D01*
X12222562Y-12903984D02*
X12241610Y-12903984D01*
X12241610Y-12903984D02*
X12260658Y-12913508D01*
X12260658Y-12913508D02*
X12270182Y-12923031D01*
X12270182Y-12923031D02*
X12279705Y-12942079D01*
X12279705Y-12942079D02*
X12289229Y-12980174D01*
X12289229Y-12980174D02*
X12289229Y-13027793D01*
X12289229Y-13027793D02*
X12279705Y-13065888D01*
X12279705Y-13065888D02*
X12270182Y-13084936D01*
X12270182Y-13084936D02*
X12260658Y-13094460D01*
X12260658Y-13094460D02*
X12241610Y-13103984D01*
X12241610Y-13103984D02*
X12222562Y-13103984D01*
X12222562Y-13103984D02*
X12203515Y-13094460D01*
X12203515Y-13094460D02*
X12193991Y-13084936D01*
X12193991Y-13084936D02*
X12184467Y-13065888D01*
X12184467Y-13065888D02*
X12174943Y-13027793D01*
X12174943Y-13027793D02*
X12174943Y-12980174D01*
X12174943Y-12980174D02*
X12184467Y-12942079D01*
X12184467Y-12942079D02*
X12193991Y-12923031D01*
X12193991Y-12923031D02*
X12203515Y-12913508D01*
X12203515Y-12913508D02*
X12222562Y-12903984D01*
X12413039Y-12903984D02*
X12432086Y-12903984D01*
X12432086Y-12903984D02*
X12451134Y-12913508D01*
X12451134Y-12913508D02*
X12460658Y-12923031D01*
X12460658Y-12923031D02*
X12470182Y-12942079D01*
X12470182Y-12942079D02*
X12479705Y-12980174D01*
X12479705Y-12980174D02*
X12479705Y-13027793D01*
X12479705Y-13027793D02*
X12470182Y-13065888D01*
X12470182Y-13065888D02*
X12460658Y-13084936D01*
X12460658Y-13084936D02*
X12451134Y-13094460D01*
X12451134Y-13094460D02*
X12432086Y-13103984D01*
X12432086Y-13103984D02*
X12413039Y-13103984D01*
X12413039Y-13103984D02*
X12393991Y-13094460D01*
X12393991Y-13094460D02*
X12384467Y-13084936D01*
X12384467Y-13084936D02*
X12374943Y-13065888D01*
X12374943Y-13065888D02*
X12365420Y-13027793D01*
X12365420Y-13027793D02*
X12365420Y-12980174D01*
X12365420Y-12980174D02*
X12374943Y-12942079D01*
X12374943Y-12942079D02*
X12384467Y-12923031D01*
X12384467Y-12923031D02*
X12393991Y-12913508D01*
X12393991Y-12913508D02*
X12413039Y-12903984D01*
X12565420Y-13103984D02*
X12565420Y-12970650D01*
X12565420Y-12989698D02*
X12574943Y-12980174D01*
X12574943Y-12980174D02*
X12593991Y-12970650D01*
X12593991Y-12970650D02*
X12622563Y-12970650D01*
X12622563Y-12970650D02*
X12641610Y-12980174D01*
X12641610Y-12980174D02*
X12651134Y-12999222D01*
X12651134Y-12999222D02*
X12651134Y-13103984D01*
X12651134Y-12999222D02*
X12660658Y-12980174D01*
X12660658Y-12980174D02*
X12679705Y-12970650D01*
X12679705Y-12970650D02*
X12708277Y-12970650D01*
X12708277Y-12970650D02*
X12727324Y-12980174D01*
X12727324Y-12980174D02*
X12736848Y-12999222D01*
X12736848Y-12999222D02*
X12736848Y-13103984D01*
X12832086Y-13103984D02*
X12832086Y-12970650D01*
X12832086Y-12989698D02*
X12841610Y-12980174D01*
X12841610Y-12980174D02*
X12860658Y-12970650D01*
X12860658Y-12970650D02*
X12889229Y-12970650D01*
X12889229Y-12970650D02*
X12908277Y-12980174D01*
X12908277Y-12980174D02*
X12917801Y-12999222D01*
X12917801Y-12999222D02*
X12917801Y-13103984D01*
X12917801Y-12999222D02*
X12927324Y-12980174D01*
X12927324Y-12980174D02*
X12946372Y-12970650D01*
X12946372Y-12970650D02*
X12974943Y-12970650D01*
X12974943Y-12970650D02*
X12993991Y-12980174D01*
X12993991Y-12980174D02*
X13003515Y-12999222D01*
X13003515Y-12999222D02*
X13003515Y-13103984D01*
X13393991Y-12894460D02*
X13222563Y-13151603D01*
X13651134Y-12903984D02*
X13670182Y-12903984D01*
X13670182Y-12903984D02*
X13689229Y-12913508D01*
X13689229Y-12913508D02*
X13698753Y-12923031D01*
X13698753Y-12923031D02*
X13708277Y-12942079D01*
X13708277Y-12942079D02*
X13717801Y-12980174D01*
X13717801Y-12980174D02*
X13717801Y-13027793D01*
X13717801Y-13027793D02*
X13708277Y-13065888D01*
X13708277Y-13065888D02*
X13698753Y-13084936D01*
X13698753Y-13084936D02*
X13689229Y-13094460D01*
X13689229Y-13094460D02*
X13670182Y-13103984D01*
X13670182Y-13103984D02*
X13651134Y-13103984D01*
X13651134Y-13103984D02*
X13632086Y-13094460D01*
X13632086Y-13094460D02*
X13622563Y-13084936D01*
X13622563Y-13084936D02*
X13613039Y-13065888D01*
X13613039Y-13065888D02*
X13603515Y-13027793D01*
X13603515Y-13027793D02*
X13603515Y-12980174D01*
X13603515Y-12980174D02*
X13613039Y-12942079D01*
X13613039Y-12942079D02*
X13622563Y-12923031D01*
X13622563Y-12923031D02*
X13632086Y-12913508D01*
X13632086Y-12913508D02*
X13651134Y-12903984D01*
X13803515Y-13084936D02*
X13813039Y-13094460D01*
X13813039Y-13094460D02*
X13803515Y-13103984D01*
X13803515Y-13103984D02*
X13793991Y-13094460D01*
X13793991Y-13094460D02*
X13803515Y-13084936D01*
X13803515Y-13084936D02*
X13803515Y-13103984D01*
X14003515Y-13103984D02*
X13889229Y-13103984D01*
X13946372Y-13103984D02*
X13946372Y-12903984D01*
X13946372Y-12903984D02*
X13927325Y-12932555D01*
X13927325Y-12932555D02*
X13908277Y-12951603D01*
X13908277Y-12951603D02*
X13889229Y-12961127D01*
X14079706Y-12923031D02*
X14089229Y-12913508D01*
X14089229Y-12913508D02*
X14108277Y-12903984D01*
X14108277Y-12903984D02*
X14155896Y-12903984D01*
X14155896Y-12903984D02*
X14174944Y-12913508D01*
X14174944Y-12913508D02*
X14184467Y-12923031D01*
X14184467Y-12923031D02*
X14193991Y-12942079D01*
X14193991Y-12942079D02*
X14193991Y-12961127D01*
X14193991Y-12961127D02*
X14184467Y-12989698D01*
X14184467Y-12989698D02*
X14070182Y-13103984D01*
X14070182Y-13103984D02*
X14193991Y-13103984D01*
X14365420Y-12903984D02*
X14327325Y-12903984D01*
X14327325Y-12903984D02*
X14308277Y-12913508D01*
X14308277Y-12913508D02*
X14298753Y-12923031D01*
X14298753Y-12923031D02*
X14279706Y-12951603D01*
X14279706Y-12951603D02*
X14270182Y-12989698D01*
X14270182Y-12989698D02*
X14270182Y-13065888D01*
X14270182Y-13065888D02*
X14279706Y-13084936D01*
X14279706Y-13084936D02*
X14289229Y-13094460D01*
X14289229Y-13094460D02*
X14308277Y-13103984D01*
X14308277Y-13103984D02*
X14346372Y-13103984D01*
X14346372Y-13103984D02*
X14365420Y-13094460D01*
X14365420Y-13094460D02*
X14374944Y-13084936D01*
X14374944Y-13084936D02*
X14384467Y-13065888D01*
X14384467Y-13065888D02*
X14384467Y-13018269D01*
X14384467Y-13018269D02*
X14374944Y-12999222D01*
X14374944Y-12999222D02*
X14365420Y-12989698D01*
X14365420Y-12989698D02*
X14346372Y-12980174D01*
X14346372Y-12980174D02*
X14308277Y-12980174D01*
X14308277Y-12980174D02*
X14289229Y-12989698D01*
X14289229Y-12989698D02*
X14279706Y-12999222D01*
X14279706Y-12999222D02*
X14270182Y-13018269D01*
X14508277Y-12903984D02*
X14527325Y-12903984D01*
X14527325Y-12903984D02*
X14546372Y-12913508D01*
X14546372Y-12913508D02*
X14555896Y-12923031D01*
X14555896Y-12923031D02*
X14565420Y-12942079D01*
X14565420Y-12942079D02*
X14574944Y-12980174D01*
X14574944Y-12980174D02*
X14574944Y-13027793D01*
X14574944Y-13027793D02*
X14565420Y-13065888D01*
X14565420Y-13065888D02*
X14555896Y-13084936D01*
X14555896Y-13084936D02*
X14546372Y-13094460D01*
X14546372Y-13094460D02*
X14527325Y-13103984D01*
X14527325Y-13103984D02*
X14508277Y-13103984D01*
X14508277Y-13103984D02*
X14489229Y-13094460D01*
X14489229Y-13094460D02*
X14479706Y-13084936D01*
X14479706Y-13084936D02*
X14470182Y-13065888D01*
X14470182Y-13065888D02*
X14460658Y-13027793D01*
X14460658Y-13027793D02*
X14460658Y-12980174D01*
X14460658Y-12980174D02*
X14470182Y-12942079D01*
X14470182Y-12942079D02*
X14479706Y-12923031D01*
X14479706Y-12923031D02*
X14489229Y-12913508D01*
X14489229Y-12913508D02*
X14508277Y-12903984D01*
X14651134Y-12903984D02*
X14651134Y-12942079D01*
X14727325Y-12903984D02*
X14727325Y-12942079D01*
X15022563Y-13180174D02*
X15013039Y-13170650D01*
X15013039Y-13170650D02*
X14993991Y-13142079D01*
X14993991Y-13142079D02*
X14984468Y-13123031D01*
X14984468Y-13123031D02*
X14974944Y-13094460D01*
X14974944Y-13094460D02*
X14965420Y-13046841D01*
X14965420Y-13046841D02*
X14965420Y-13008746D01*
X14965420Y-13008746D02*
X14974944Y-12961127D01*
X14974944Y-12961127D02*
X14984468Y-12932555D01*
X14984468Y-12932555D02*
X14993991Y-12913508D01*
X14993991Y-12913508D02*
X15013039Y-12884936D01*
X15013039Y-12884936D02*
X15022563Y-12875412D01*
X15184468Y-12970650D02*
X15184468Y-13103984D01*
X15136848Y-12894460D02*
X15089229Y-13037317D01*
X15089229Y-13037317D02*
X15213039Y-13037317D01*
X15441610Y-13103984D02*
X15441610Y-12903984D01*
X15527325Y-13103984D02*
X15527325Y-12999222D01*
X15527325Y-12999222D02*
X15517801Y-12980174D01*
X15517801Y-12980174D02*
X15498753Y-12970650D01*
X15498753Y-12970650D02*
X15470182Y-12970650D01*
X15470182Y-12970650D02*
X15451134Y-12980174D01*
X15451134Y-12980174D02*
X15441610Y-12989698D01*
X15651134Y-13103984D02*
X15632087Y-13094460D01*
X15632087Y-13094460D02*
X15622563Y-13084936D01*
X15622563Y-13084936D02*
X15613039Y-13065888D01*
X15613039Y-13065888D02*
X15613039Y-13008746D01*
X15613039Y-13008746D02*
X15622563Y-12989698D01*
X15622563Y-12989698D02*
X15632087Y-12980174D01*
X15632087Y-12980174D02*
X15651134Y-12970650D01*
X15651134Y-12970650D02*
X15679706Y-12970650D01*
X15679706Y-12970650D02*
X15698753Y-12980174D01*
X15698753Y-12980174D02*
X15708277Y-12989698D01*
X15708277Y-12989698D02*
X15717801Y-13008746D01*
X15717801Y-13008746D02*
X15717801Y-13065888D01*
X15717801Y-13065888D02*
X15708277Y-13084936D01*
X15708277Y-13084936D02*
X15698753Y-13094460D01*
X15698753Y-13094460D02*
X15679706Y-13103984D01*
X15679706Y-13103984D02*
X15651134Y-13103984D01*
X15832087Y-13103984D02*
X15813039Y-13094460D01*
X15813039Y-13094460D02*
X15803515Y-13075412D01*
X15803515Y-13075412D02*
X15803515Y-12903984D01*
X15984468Y-13094460D02*
X15965420Y-13103984D01*
X15965420Y-13103984D02*
X15927325Y-13103984D01*
X15927325Y-13103984D02*
X15908277Y-13094460D01*
X15908277Y-13094460D02*
X15898753Y-13075412D01*
X15898753Y-13075412D02*
X15898753Y-12999222D01*
X15898753Y-12999222D02*
X15908277Y-12980174D01*
X15908277Y-12980174D02*
X15927325Y-12970650D01*
X15927325Y-12970650D02*
X15965420Y-12970650D01*
X15965420Y-12970650D02*
X15984468Y-12980174D01*
X15984468Y-12980174D02*
X15993991Y-12999222D01*
X15993991Y-12999222D02*
X15993991Y-13018269D01*
X15993991Y-13018269D02*
X15898753Y-13037317D01*
X16070182Y-13094460D02*
X16089230Y-13103984D01*
X16089230Y-13103984D02*
X16127325Y-13103984D01*
X16127325Y-13103984D02*
X16146372Y-13094460D01*
X16146372Y-13094460D02*
X16155896Y-13075412D01*
X16155896Y-13075412D02*
X16155896Y-13065888D01*
X16155896Y-13065888D02*
X16146372Y-13046841D01*
X16146372Y-13046841D02*
X16127325Y-13037317D01*
X16127325Y-13037317D02*
X16098753Y-13037317D01*
X16098753Y-13037317D02*
X16079706Y-13027793D01*
X16079706Y-13027793D02*
X16070182Y-13008746D01*
X16070182Y-13008746D02*
X16070182Y-12999222D01*
X16070182Y-12999222D02*
X16079706Y-12980174D01*
X16079706Y-12980174D02*
X16098753Y-12970650D01*
X16098753Y-12970650D02*
X16127325Y-12970650D01*
X16127325Y-12970650D02*
X16146372Y-12980174D01*
X16222563Y-13180174D02*
X16232087Y-13170650D01*
X16232087Y-13170650D02*
X16251134Y-13142079D01*
X16251134Y-13142079D02*
X16260658Y-13123031D01*
X16260658Y-13123031D02*
X16270182Y-13094460D01*
X16270182Y-13094460D02*
X16279706Y-13046841D01*
X16279706Y-13046841D02*
X16279706Y-13008746D01*
X16279706Y-13008746D02*
X16270182Y-12961127D01*
X16270182Y-12961127D02*
X16260658Y-12932555D01*
X16260658Y-12932555D02*
X16251134Y-12913508D01*
X16251134Y-12913508D02*
X16232087Y-12884936D01*
X16232087Y-12884936D02*
X16222563Y-12875412D01*
X16584468Y-13180174D02*
X16574944Y-13170650D01*
X16574944Y-13170650D02*
X16555896Y-13142079D01*
X16555896Y-13142079D02*
X16546372Y-13123031D01*
X16546372Y-13123031D02*
X16536849Y-13094460D01*
X16536849Y-13094460D02*
X16527325Y-13046841D01*
X16527325Y-13046841D02*
X16527325Y-13008746D01*
X16527325Y-13008746D02*
X16536849Y-12961127D01*
X16536849Y-12961127D02*
X16546372Y-12932555D01*
X16546372Y-12932555D02*
X16555896Y-12913508D01*
X16555896Y-12913508D02*
X16574944Y-12884936D01*
X16574944Y-12884936D02*
X16584468Y-12875412D01*
X16660658Y-12970650D02*
X16660658Y-13103984D01*
X16660658Y-12989698D02*
X16670182Y-12980174D01*
X16670182Y-12980174D02*
X16689230Y-12970650D01*
X16689230Y-12970650D02*
X16717801Y-12970650D01*
X16717801Y-12970650D02*
X16736849Y-12980174D01*
X16736849Y-12980174D02*
X16746372Y-12999222D01*
X16746372Y-12999222D02*
X16746372Y-13103984D01*
X16870182Y-13103984D02*
X16851134Y-13094460D01*
X16851134Y-13094460D02*
X16841611Y-13084936D01*
X16841611Y-13084936D02*
X16832087Y-13065888D01*
X16832087Y-13065888D02*
X16832087Y-13008746D01*
X16832087Y-13008746D02*
X16841611Y-12989698D01*
X16841611Y-12989698D02*
X16851134Y-12980174D01*
X16851134Y-12980174D02*
X16870182Y-12970650D01*
X16870182Y-12970650D02*
X16898754Y-12970650D01*
X16898754Y-12970650D02*
X16917801Y-12980174D01*
X16917801Y-12980174D02*
X16927325Y-12989698D01*
X16927325Y-12989698D02*
X16936849Y-13008746D01*
X16936849Y-13008746D02*
X16936849Y-13065888D01*
X16936849Y-13065888D02*
X16927325Y-13084936D01*
X16927325Y-13084936D02*
X16917801Y-13094460D01*
X16917801Y-13094460D02*
X16898754Y-13103984D01*
X16898754Y-13103984D02*
X16870182Y-13103984D01*
X16993992Y-12970650D02*
X17070182Y-12970650D01*
X17022563Y-12903984D02*
X17022563Y-13075412D01*
X17022563Y-13075412D02*
X17032087Y-13094460D01*
X17032087Y-13094460D02*
X17051134Y-13103984D01*
X17051134Y-13103984D02*
X17070182Y-13103984D01*
X17289230Y-12970650D02*
X17289230Y-13170650D01*
X17289230Y-12980174D02*
X17308277Y-12970650D01*
X17308277Y-12970650D02*
X17346373Y-12970650D01*
X17346373Y-12970650D02*
X17365420Y-12980174D01*
X17365420Y-12980174D02*
X17374944Y-12989698D01*
X17374944Y-12989698D02*
X17384468Y-13008746D01*
X17384468Y-13008746D02*
X17384468Y-13065888D01*
X17384468Y-13065888D02*
X17374944Y-13084936D01*
X17374944Y-13084936D02*
X17365420Y-13094460D01*
X17365420Y-13094460D02*
X17346373Y-13103984D01*
X17346373Y-13103984D02*
X17308277Y-13103984D01*
X17308277Y-13103984D02*
X17289230Y-13094460D01*
X17498754Y-13103984D02*
X17479706Y-13094460D01*
X17479706Y-13094460D02*
X17470182Y-13075412D01*
X17470182Y-13075412D02*
X17470182Y-12903984D01*
X17660658Y-13103984D02*
X17660658Y-12999222D01*
X17660658Y-12999222D02*
X17651135Y-12980174D01*
X17651135Y-12980174D02*
X17632087Y-12970650D01*
X17632087Y-12970650D02*
X17593992Y-12970650D01*
X17593992Y-12970650D02*
X17574944Y-12980174D01*
X17660658Y-13094460D02*
X17641611Y-13103984D01*
X17641611Y-13103984D02*
X17593992Y-13103984D01*
X17593992Y-13103984D02*
X17574944Y-13094460D01*
X17574944Y-13094460D02*
X17565420Y-13075412D01*
X17565420Y-13075412D02*
X17565420Y-13056365D01*
X17565420Y-13056365D02*
X17574944Y-13037317D01*
X17574944Y-13037317D02*
X17593992Y-13027793D01*
X17593992Y-13027793D02*
X17641611Y-13027793D01*
X17641611Y-13027793D02*
X17660658Y-13018269D01*
X17727325Y-12970650D02*
X17803515Y-12970650D01*
X17755896Y-12903984D02*
X17755896Y-13075412D01*
X17755896Y-13075412D02*
X17765420Y-13094460D01*
X17765420Y-13094460D02*
X17784468Y-13103984D01*
X17784468Y-13103984D02*
X17803515Y-13103984D01*
X17946373Y-13094460D02*
X17927325Y-13103984D01*
X17927325Y-13103984D02*
X17889230Y-13103984D01*
X17889230Y-13103984D02*
X17870182Y-13094460D01*
X17870182Y-13094460D02*
X17860658Y-13075412D01*
X17860658Y-13075412D02*
X17860658Y-12999222D01*
X17860658Y-12999222D02*
X17870182Y-12980174D01*
X17870182Y-12980174D02*
X17889230Y-12970650D01*
X17889230Y-12970650D02*
X17927325Y-12970650D01*
X17927325Y-12970650D02*
X17946373Y-12980174D01*
X17946373Y-12980174D02*
X17955896Y-12999222D01*
X17955896Y-12999222D02*
X17955896Y-13018269D01*
X17955896Y-13018269D02*
X17860658Y-13037317D01*
X18127325Y-13103984D02*
X18127325Y-12903984D01*
X18127325Y-13094460D02*
X18108277Y-13103984D01*
X18108277Y-13103984D02*
X18070182Y-13103984D01*
X18070182Y-13103984D02*
X18051135Y-13094460D01*
X18051135Y-13094460D02*
X18041611Y-13084936D01*
X18041611Y-13084936D02*
X18032087Y-13065888D01*
X18032087Y-13065888D02*
X18032087Y-13008746D01*
X18032087Y-13008746D02*
X18041611Y-12989698D01*
X18041611Y-12989698D02*
X18051135Y-12980174D01*
X18051135Y-12980174D02*
X18070182Y-12970650D01*
X18070182Y-12970650D02*
X18108277Y-12970650D01*
X18108277Y-12970650D02*
X18127325Y-12980174D01*
X18203516Y-13180174D02*
X18213039Y-13170650D01*
X18213039Y-13170650D02*
X18232087Y-13142079D01*
X18232087Y-13142079D02*
X18241611Y-13123031D01*
X18241611Y-13123031D02*
X18251135Y-13094460D01*
X18251135Y-13094460D02*
X18260658Y-13046841D01*
X18260658Y-13046841D02*
X18260658Y-13008746D01*
X18260658Y-13008746D02*
X18251135Y-12961127D01*
X18251135Y-12961127D02*
X18241611Y-12932555D01*
X18241611Y-12932555D02*
X18232087Y-12913508D01*
X18232087Y-12913508D02*
X18213039Y-12884936D01*
X18213039Y-12884936D02*
X18203516Y-12875412D01*
M02*
