%TF.GenerationSoftware,KiCad,Pcbnew,8.0.8-8.0.8-0~ubuntu24.04.1*%
%TF.CreationDate,2025-02-23T01:25:29-06:00*%
%TF.ProjectId,edge_human_detection_board,65646765-5f68-4756-9d61-6e5f64657465,rev?*%
%TF.SameCoordinates,Original*%
%TF.FileFunction,Drillmap*%
%TF.FilePolarity,Positive*%
%FSLAX45Y45*%
G04 Gerber Fmt 4.5, Leading zero omitted, Abs format (unit mm)*
G04 Created by KiCad (PCBNEW 8.0.8-8.0.8-0~ubuntu24.04.1) date 2025-02-23 01:25:29*
%MOMM*%
%LPD*%
G01*
G04 APERTURE LIST*
%ADD10C,0.050000*%
%ADD11C,0.200000*%
%ADD12C,0.100000*%
%ADD13C,0.101600*%
%ADD14C,0.275000*%
G04 APERTURE END LIST*
D10*
X8998676Y-4684868D02*
X13998676Y-4684868D01*
X13998676Y-14094868D01*
X8998676Y-14094868D01*
X8998676Y-4684868D01*
D11*
D12*
X9323490Y-11223490D02*
X9356510Y-11256510D01*
X9356510Y-11223490D02*
X9323490Y-11256510D01*
X9343490Y-11723490D02*
X9376510Y-11756510D01*
X9376510Y-11723490D02*
X9343490Y-11756510D01*
X9443490Y-5443490D02*
X9476510Y-5476510D01*
X9476510Y-5443490D02*
X9443490Y-5476510D01*
X9463490Y-6583490D02*
X9496510Y-6616510D01*
X9496510Y-6583490D02*
X9463490Y-6616510D01*
X9583490Y-12823490D02*
X9616510Y-12856510D01*
X9616510Y-12823490D02*
X9583490Y-12856510D01*
X9603490Y-9583490D02*
X9636510Y-9616510D01*
X9636510Y-9583490D02*
X9603490Y-9616510D01*
X9743490Y-11403490D02*
X9776510Y-11436510D01*
X9776510Y-11403490D02*
X9743490Y-11436510D01*
X9763490Y-11863490D02*
X9796510Y-11896510D01*
X9796510Y-11863490D02*
X9763490Y-11896510D01*
X9783490Y-12343490D02*
X9816510Y-12376510D01*
X9816510Y-12343490D02*
X9783490Y-12376510D01*
X9783490Y-13783490D02*
X9816510Y-13816510D01*
X9816510Y-13783490D02*
X9783490Y-13816510D01*
X9843490Y-8603490D02*
X9876510Y-8636510D01*
X9876510Y-8603490D02*
X9843490Y-8636510D01*
X10363490Y-6763490D02*
X10396510Y-6796510D01*
X10396510Y-6763490D02*
X10363490Y-6796510D01*
X10583490Y-8023490D02*
X10616510Y-8056510D01*
X10616510Y-8023490D02*
X10583490Y-8056510D01*
X11203490Y-10823490D02*
X11236510Y-10856510D01*
X11236510Y-10823490D02*
X11203490Y-10856510D01*
X11223490Y-7383490D02*
X11256510Y-7416510D01*
X11256510Y-7383490D02*
X11223490Y-7416510D01*
X11303490Y-5363490D02*
X11336510Y-5396510D01*
X11336510Y-5363490D02*
X11303490Y-5396510D01*
X11523490Y-11803490D02*
X11556510Y-11836510D01*
X11556510Y-11803490D02*
X11523490Y-11836510D01*
X11583490Y-5363490D02*
X11616510Y-5396510D01*
X11616510Y-5363490D02*
X11583490Y-5396510D01*
X11783490Y-10823490D02*
X11816510Y-10856510D01*
X11816510Y-10823490D02*
X11783490Y-10856510D01*
X11903490Y-5363490D02*
X11936510Y-5396510D01*
X11936510Y-5363490D02*
X11903490Y-5396510D01*
X11943490Y-10283490D02*
X11976510Y-10316510D01*
X11976510Y-10283490D02*
X11943490Y-10316510D01*
X12263490Y-8083490D02*
X12296510Y-8116510D01*
X12296510Y-8083490D02*
X12263490Y-8116510D01*
X12723490Y-6743490D02*
X12756510Y-6776510D01*
X12756510Y-6743490D02*
X12723490Y-6776510D01*
X13123490Y-13803490D02*
X13156510Y-13836510D01*
X13156510Y-13803490D02*
X13123490Y-13836510D01*
X13623490Y-6343490D02*
X13656510Y-6376510D01*
X13656510Y-6343490D02*
X13623490Y-6376510D01*
X13623490Y-9383490D02*
X13656510Y-9416510D01*
X13656510Y-9383490D02*
X13623490Y-9416510D01*
X13663490Y-5323490D02*
X13696510Y-5356510D01*
X13696510Y-5323490D02*
X13663490Y-5356510D01*
X13663490Y-11783490D02*
X13696510Y-11816510D01*
X13696510Y-11783490D02*
X13663490Y-11816510D01*
X9670000Y-7887500D02*
G75*
G02*
X9570000Y-7887500I-50000J0D01*
G01*
X9570000Y-7887500D02*
G75*
G02*
X9670000Y-7887500I50000J0D01*
G01*
X9670000Y-8141500D02*
G75*
G02*
X9570000Y-8141500I-50000J0D01*
G01*
X9570000Y-8141500D02*
G75*
G02*
X9670000Y-8141500I50000J0D01*
G01*
X9670000Y-8395500D02*
G75*
G02*
X9570000Y-8395500I-50000J0D01*
G01*
X9570000Y-8395500D02*
G75*
G02*
X9670000Y-8395500I50000J0D01*
G01*
D13*
X10174676Y-7800068D02*
X10174676Y-7901668D01*
X10123876Y-7850868D02*
X10225476Y-7850868D01*
X10174676Y-8054068D02*
X10174676Y-8155668D01*
X10123876Y-8104868D02*
X10225476Y-8104868D01*
X10174676Y-8308068D02*
X10174676Y-8409668D01*
X10123876Y-8358868D02*
X10225476Y-8358868D01*
X10174676Y-8562068D02*
X10174676Y-8663668D01*
X10123876Y-8612868D02*
X10225476Y-8612868D01*
X10174676Y-8816068D02*
X10174676Y-8917668D01*
X10123876Y-8866868D02*
X10225476Y-8866868D01*
X10174676Y-9070068D02*
X10174676Y-9171668D01*
X10123876Y-9120868D02*
X10225476Y-9120868D01*
X10174676Y-9324068D02*
X10174676Y-9425668D01*
X10123876Y-9374868D02*
X10225476Y-9374868D01*
X10174676Y-9578068D02*
X10174676Y-9679668D01*
X10123876Y-9628868D02*
X10225476Y-9628868D01*
X10174676Y-9832068D02*
X10174676Y-9933668D01*
X10123876Y-9882868D02*
X10225476Y-9882868D01*
X10174676Y-10086068D02*
X10174676Y-10187668D01*
X10123876Y-10136868D02*
X10225476Y-10136868D01*
X10174676Y-10340068D02*
X10174676Y-10441668D01*
X10123876Y-10390868D02*
X10225476Y-10390868D01*
X10174676Y-10594068D02*
X10174676Y-10695668D01*
X10123876Y-10644868D02*
X10225476Y-10644868D01*
X12968676Y-7800068D02*
X12968676Y-7901668D01*
X12917876Y-7850868D02*
X13019476Y-7850868D01*
X12968676Y-8054068D02*
X12968676Y-8155668D01*
X12917876Y-8104868D02*
X13019476Y-8104868D01*
X12968676Y-8308068D02*
X12968676Y-8409668D01*
X12917876Y-8358868D02*
X13019476Y-8358868D01*
X12968676Y-8562068D02*
X12968676Y-8663668D01*
X12917876Y-8612868D02*
X13019476Y-8612868D01*
X12968676Y-8816068D02*
X12968676Y-8917668D01*
X12917876Y-8866868D02*
X13019476Y-8866868D01*
X12968676Y-9070068D02*
X12968676Y-9171668D01*
X12917876Y-9120868D02*
X13019476Y-9120868D01*
X12968676Y-9324068D02*
X12968676Y-9425668D01*
X12917876Y-9374868D02*
X13019476Y-9374868D01*
X12968676Y-9578068D02*
X12968676Y-9679668D01*
X12917876Y-9628868D02*
X13019476Y-9628868D01*
X12968676Y-9832068D02*
X12968676Y-9933668D01*
X12917876Y-9882868D02*
X13019476Y-9882868D01*
X12968676Y-10086068D02*
X12968676Y-10187668D01*
X12917876Y-10136868D02*
X13019476Y-10136868D01*
X12968676Y-10340068D02*
X12968676Y-10441668D01*
X12917876Y-10390868D02*
X13019476Y-10390868D01*
X12968676Y-10594068D02*
X12968676Y-10695668D01*
X12917876Y-10644868D02*
X13019476Y-10644868D01*
D14*
X10517228Y-7497228D02*
X10517228Y-7302772D01*
X10322772Y-7302772D01*
X10322772Y-7497228D01*
X10517228Y-7497228D01*
X10517228Y-13297228D02*
X10517228Y-13102772D01*
X10322772Y-13102772D01*
X10322772Y-13297228D01*
X10517228Y-13297228D01*
X12817228Y-7497228D02*
X12817228Y-7302772D01*
X12622772Y-7302772D01*
X12622772Y-7497228D01*
X12817228Y-7497228D01*
X12817228Y-13297228D02*
X12817228Y-13102772D01*
X12622772Y-13102772D01*
X12622772Y-13297228D01*
X12817228Y-13297228D01*
D11*
X9256953Y-14408852D02*
X9256953Y-14208852D01*
X9256953Y-14208852D02*
X9304572Y-14208852D01*
X9304572Y-14208852D02*
X9333143Y-14218376D01*
X9333143Y-14218376D02*
X9352191Y-14237423D01*
X9352191Y-14237423D02*
X9361715Y-14256471D01*
X9361715Y-14256471D02*
X9371239Y-14294566D01*
X9371239Y-14294566D02*
X9371239Y-14323137D01*
X9371239Y-14323137D02*
X9361715Y-14361233D01*
X9361715Y-14361233D02*
X9352191Y-14380280D01*
X9352191Y-14380280D02*
X9333143Y-14399328D01*
X9333143Y-14399328D02*
X9304572Y-14408852D01*
X9304572Y-14408852D02*
X9256953Y-14408852D01*
X9456953Y-14408852D02*
X9456953Y-14275518D01*
X9456953Y-14313614D02*
X9466477Y-14294566D01*
X9466477Y-14294566D02*
X9476000Y-14285042D01*
X9476000Y-14285042D02*
X9495048Y-14275518D01*
X9495048Y-14275518D02*
X9514096Y-14275518D01*
X9580762Y-14408852D02*
X9580762Y-14275518D01*
X9580762Y-14208852D02*
X9571239Y-14218376D01*
X9571239Y-14218376D02*
X9580762Y-14227899D01*
X9580762Y-14227899D02*
X9590286Y-14218376D01*
X9590286Y-14218376D02*
X9580762Y-14208852D01*
X9580762Y-14208852D02*
X9580762Y-14227899D01*
X9704572Y-14408852D02*
X9685524Y-14399328D01*
X9685524Y-14399328D02*
X9676000Y-14380280D01*
X9676000Y-14380280D02*
X9676000Y-14208852D01*
X9809334Y-14408852D02*
X9790286Y-14399328D01*
X9790286Y-14399328D02*
X9780762Y-14380280D01*
X9780762Y-14380280D02*
X9780762Y-14208852D01*
X10037905Y-14408852D02*
X10037905Y-14208852D01*
X10037905Y-14208852D02*
X10104572Y-14351709D01*
X10104572Y-14351709D02*
X10171239Y-14208852D01*
X10171239Y-14208852D02*
X10171239Y-14408852D01*
X10352191Y-14408852D02*
X10352191Y-14304090D01*
X10352191Y-14304090D02*
X10342667Y-14285042D01*
X10342667Y-14285042D02*
X10323620Y-14275518D01*
X10323620Y-14275518D02*
X10285524Y-14275518D01*
X10285524Y-14275518D02*
X10266477Y-14285042D01*
X10352191Y-14399328D02*
X10333143Y-14408852D01*
X10333143Y-14408852D02*
X10285524Y-14408852D01*
X10285524Y-14408852D02*
X10266477Y-14399328D01*
X10266477Y-14399328D02*
X10256953Y-14380280D01*
X10256953Y-14380280D02*
X10256953Y-14361233D01*
X10256953Y-14361233D02*
X10266477Y-14342185D01*
X10266477Y-14342185D02*
X10285524Y-14332661D01*
X10285524Y-14332661D02*
X10333143Y-14332661D01*
X10333143Y-14332661D02*
X10352191Y-14323137D01*
X10447429Y-14275518D02*
X10447429Y-14475518D01*
X10447429Y-14285042D02*
X10466477Y-14275518D01*
X10466477Y-14275518D02*
X10504572Y-14275518D01*
X10504572Y-14275518D02*
X10523620Y-14285042D01*
X10523620Y-14285042D02*
X10533143Y-14294566D01*
X10533143Y-14294566D02*
X10542667Y-14313614D01*
X10542667Y-14313614D02*
X10542667Y-14370756D01*
X10542667Y-14370756D02*
X10533143Y-14389804D01*
X10533143Y-14389804D02*
X10523620Y-14399328D01*
X10523620Y-14399328D02*
X10504572Y-14408852D01*
X10504572Y-14408852D02*
X10466477Y-14408852D01*
X10466477Y-14408852D02*
X10447429Y-14399328D01*
X10628381Y-14389804D02*
X10637905Y-14399328D01*
X10637905Y-14399328D02*
X10628381Y-14408852D01*
X10628381Y-14408852D02*
X10618858Y-14399328D01*
X10618858Y-14399328D02*
X10628381Y-14389804D01*
X10628381Y-14389804D02*
X10628381Y-14408852D01*
X10628381Y-14285042D02*
X10637905Y-14294566D01*
X10637905Y-14294566D02*
X10628381Y-14304090D01*
X10628381Y-14304090D02*
X10618858Y-14294566D01*
X10618858Y-14294566D02*
X10628381Y-14285042D01*
X10628381Y-14285042D02*
X10628381Y-14304090D01*
D12*
X8963156Y-14720858D02*
X8996176Y-14753878D01*
X8996176Y-14720858D02*
X8963156Y-14753878D01*
D11*
X9295048Y-14628852D02*
X9314096Y-14628852D01*
X9314096Y-14628852D02*
X9333143Y-14638376D01*
X9333143Y-14638376D02*
X9342667Y-14647899D01*
X9342667Y-14647899D02*
X9352191Y-14666947D01*
X9352191Y-14666947D02*
X9361715Y-14705042D01*
X9361715Y-14705042D02*
X9361715Y-14752661D01*
X9361715Y-14752661D02*
X9352191Y-14790756D01*
X9352191Y-14790756D02*
X9342667Y-14809804D01*
X9342667Y-14809804D02*
X9333143Y-14819328D01*
X9333143Y-14819328D02*
X9314096Y-14828852D01*
X9314096Y-14828852D02*
X9295048Y-14828852D01*
X9295048Y-14828852D02*
X9276000Y-14819328D01*
X9276000Y-14819328D02*
X9266477Y-14809804D01*
X9266477Y-14809804D02*
X9256953Y-14790756D01*
X9256953Y-14790756D02*
X9247429Y-14752661D01*
X9247429Y-14752661D02*
X9247429Y-14705042D01*
X9247429Y-14705042D02*
X9256953Y-14666947D01*
X9256953Y-14666947D02*
X9266477Y-14647899D01*
X9266477Y-14647899D02*
X9276000Y-14638376D01*
X9276000Y-14638376D02*
X9295048Y-14628852D01*
X9447429Y-14809804D02*
X9456953Y-14819328D01*
X9456953Y-14819328D02*
X9447429Y-14828852D01*
X9447429Y-14828852D02*
X9437905Y-14819328D01*
X9437905Y-14819328D02*
X9447429Y-14809804D01*
X9447429Y-14809804D02*
X9447429Y-14828852D01*
X9523620Y-14628852D02*
X9647429Y-14628852D01*
X9647429Y-14628852D02*
X9580762Y-14705042D01*
X9580762Y-14705042D02*
X9609334Y-14705042D01*
X9609334Y-14705042D02*
X9628381Y-14714566D01*
X9628381Y-14714566D02*
X9637905Y-14724090D01*
X9637905Y-14724090D02*
X9647429Y-14743137D01*
X9647429Y-14743137D02*
X9647429Y-14790756D01*
X9647429Y-14790756D02*
X9637905Y-14809804D01*
X9637905Y-14809804D02*
X9628381Y-14819328D01*
X9628381Y-14819328D02*
X9609334Y-14828852D01*
X9609334Y-14828852D02*
X9552191Y-14828852D01*
X9552191Y-14828852D02*
X9533143Y-14819328D01*
X9533143Y-14819328D02*
X9523620Y-14809804D01*
X9714096Y-14628852D02*
X9837905Y-14628852D01*
X9837905Y-14628852D02*
X9771239Y-14705042D01*
X9771239Y-14705042D02*
X9799810Y-14705042D01*
X9799810Y-14705042D02*
X9818858Y-14714566D01*
X9818858Y-14714566D02*
X9828381Y-14724090D01*
X9828381Y-14724090D02*
X9837905Y-14743137D01*
X9837905Y-14743137D02*
X9837905Y-14790756D01*
X9837905Y-14790756D02*
X9828381Y-14809804D01*
X9828381Y-14809804D02*
X9818858Y-14819328D01*
X9818858Y-14819328D02*
X9799810Y-14828852D01*
X9799810Y-14828852D02*
X9742667Y-14828852D01*
X9742667Y-14828852D02*
X9723620Y-14819328D01*
X9723620Y-14819328D02*
X9714096Y-14809804D01*
X9961715Y-14628852D02*
X9980762Y-14628852D01*
X9980762Y-14628852D02*
X9999810Y-14638376D01*
X9999810Y-14638376D02*
X10009334Y-14647899D01*
X10009334Y-14647899D02*
X10018858Y-14666947D01*
X10018858Y-14666947D02*
X10028381Y-14705042D01*
X10028381Y-14705042D02*
X10028381Y-14752661D01*
X10028381Y-14752661D02*
X10018858Y-14790756D01*
X10018858Y-14790756D02*
X10009334Y-14809804D01*
X10009334Y-14809804D02*
X9999810Y-14819328D01*
X9999810Y-14819328D02*
X9980762Y-14828852D01*
X9980762Y-14828852D02*
X9961715Y-14828852D01*
X9961715Y-14828852D02*
X9942667Y-14819328D01*
X9942667Y-14819328D02*
X9933143Y-14809804D01*
X9933143Y-14809804D02*
X9923620Y-14790756D01*
X9923620Y-14790756D02*
X9914096Y-14752661D01*
X9914096Y-14752661D02*
X9914096Y-14705042D01*
X9914096Y-14705042D02*
X9923620Y-14666947D01*
X9923620Y-14666947D02*
X9933143Y-14647899D01*
X9933143Y-14647899D02*
X9942667Y-14638376D01*
X9942667Y-14638376D02*
X9961715Y-14628852D01*
X10114096Y-14828852D02*
X10114096Y-14695518D01*
X10114096Y-14714566D02*
X10123620Y-14705042D01*
X10123620Y-14705042D02*
X10142667Y-14695518D01*
X10142667Y-14695518D02*
X10171239Y-14695518D01*
X10171239Y-14695518D02*
X10190286Y-14705042D01*
X10190286Y-14705042D02*
X10199810Y-14724090D01*
X10199810Y-14724090D02*
X10199810Y-14828852D01*
X10199810Y-14724090D02*
X10209334Y-14705042D01*
X10209334Y-14705042D02*
X10228381Y-14695518D01*
X10228381Y-14695518D02*
X10256953Y-14695518D01*
X10256953Y-14695518D02*
X10276001Y-14705042D01*
X10276001Y-14705042D02*
X10285524Y-14724090D01*
X10285524Y-14724090D02*
X10285524Y-14828852D01*
X10380762Y-14828852D02*
X10380762Y-14695518D01*
X10380762Y-14714566D02*
X10390286Y-14705042D01*
X10390286Y-14705042D02*
X10409334Y-14695518D01*
X10409334Y-14695518D02*
X10437905Y-14695518D01*
X10437905Y-14695518D02*
X10456953Y-14705042D01*
X10456953Y-14705042D02*
X10466477Y-14724090D01*
X10466477Y-14724090D02*
X10466477Y-14828852D01*
X10466477Y-14724090D02*
X10476001Y-14705042D01*
X10476001Y-14705042D02*
X10495048Y-14695518D01*
X10495048Y-14695518D02*
X10523620Y-14695518D01*
X10523620Y-14695518D02*
X10542667Y-14705042D01*
X10542667Y-14705042D02*
X10552191Y-14724090D01*
X10552191Y-14724090D02*
X10552191Y-14828852D01*
X10942667Y-14619328D02*
X10771239Y-14876471D01*
X11199810Y-14628852D02*
X11218858Y-14628852D01*
X11218858Y-14628852D02*
X11237905Y-14638376D01*
X11237905Y-14638376D02*
X11247429Y-14647899D01*
X11247429Y-14647899D02*
X11256953Y-14666947D01*
X11256953Y-14666947D02*
X11266477Y-14705042D01*
X11266477Y-14705042D02*
X11266477Y-14752661D01*
X11266477Y-14752661D02*
X11256953Y-14790756D01*
X11256953Y-14790756D02*
X11247429Y-14809804D01*
X11247429Y-14809804D02*
X11237905Y-14819328D01*
X11237905Y-14819328D02*
X11218858Y-14828852D01*
X11218858Y-14828852D02*
X11199810Y-14828852D01*
X11199810Y-14828852D02*
X11180763Y-14819328D01*
X11180763Y-14819328D02*
X11171239Y-14809804D01*
X11171239Y-14809804D02*
X11161715Y-14790756D01*
X11161715Y-14790756D02*
X11152191Y-14752661D01*
X11152191Y-14752661D02*
X11152191Y-14705042D01*
X11152191Y-14705042D02*
X11161715Y-14666947D01*
X11161715Y-14666947D02*
X11171239Y-14647899D01*
X11171239Y-14647899D02*
X11180763Y-14638376D01*
X11180763Y-14638376D02*
X11199810Y-14628852D01*
X11352191Y-14809804D02*
X11361715Y-14819328D01*
X11361715Y-14819328D02*
X11352191Y-14828852D01*
X11352191Y-14828852D02*
X11342667Y-14819328D01*
X11342667Y-14819328D02*
X11352191Y-14809804D01*
X11352191Y-14809804D02*
X11352191Y-14828852D01*
X11485524Y-14628852D02*
X11504572Y-14628852D01*
X11504572Y-14628852D02*
X11523620Y-14638376D01*
X11523620Y-14638376D02*
X11533143Y-14647899D01*
X11533143Y-14647899D02*
X11542667Y-14666947D01*
X11542667Y-14666947D02*
X11552191Y-14705042D01*
X11552191Y-14705042D02*
X11552191Y-14752661D01*
X11552191Y-14752661D02*
X11542667Y-14790756D01*
X11542667Y-14790756D02*
X11533143Y-14809804D01*
X11533143Y-14809804D02*
X11523620Y-14819328D01*
X11523620Y-14819328D02*
X11504572Y-14828852D01*
X11504572Y-14828852D02*
X11485524Y-14828852D01*
X11485524Y-14828852D02*
X11466477Y-14819328D01*
X11466477Y-14819328D02*
X11456953Y-14809804D01*
X11456953Y-14809804D02*
X11447429Y-14790756D01*
X11447429Y-14790756D02*
X11437905Y-14752661D01*
X11437905Y-14752661D02*
X11437905Y-14705042D01*
X11437905Y-14705042D02*
X11447429Y-14666947D01*
X11447429Y-14666947D02*
X11456953Y-14647899D01*
X11456953Y-14647899D02*
X11466477Y-14638376D01*
X11466477Y-14638376D02*
X11485524Y-14628852D01*
X11742667Y-14828852D02*
X11628382Y-14828852D01*
X11685524Y-14828852D02*
X11685524Y-14628852D01*
X11685524Y-14628852D02*
X11666477Y-14657423D01*
X11666477Y-14657423D02*
X11647429Y-14676471D01*
X11647429Y-14676471D02*
X11628382Y-14685995D01*
X11809334Y-14628852D02*
X11933143Y-14628852D01*
X11933143Y-14628852D02*
X11866477Y-14705042D01*
X11866477Y-14705042D02*
X11895048Y-14705042D01*
X11895048Y-14705042D02*
X11914096Y-14714566D01*
X11914096Y-14714566D02*
X11923620Y-14724090D01*
X11923620Y-14724090D02*
X11933143Y-14743137D01*
X11933143Y-14743137D02*
X11933143Y-14790756D01*
X11933143Y-14790756D02*
X11923620Y-14809804D01*
X11923620Y-14809804D02*
X11914096Y-14819328D01*
X11914096Y-14819328D02*
X11895048Y-14828852D01*
X11895048Y-14828852D02*
X11837905Y-14828852D01*
X11837905Y-14828852D02*
X11818858Y-14819328D01*
X11818858Y-14819328D02*
X11809334Y-14809804D01*
X12056953Y-14628852D02*
X12076001Y-14628852D01*
X12076001Y-14628852D02*
X12095048Y-14638376D01*
X12095048Y-14638376D02*
X12104572Y-14647899D01*
X12104572Y-14647899D02*
X12114096Y-14666947D01*
X12114096Y-14666947D02*
X12123620Y-14705042D01*
X12123620Y-14705042D02*
X12123620Y-14752661D01*
X12123620Y-14752661D02*
X12114096Y-14790756D01*
X12114096Y-14790756D02*
X12104572Y-14809804D01*
X12104572Y-14809804D02*
X12095048Y-14819328D01*
X12095048Y-14819328D02*
X12076001Y-14828852D01*
X12076001Y-14828852D02*
X12056953Y-14828852D01*
X12056953Y-14828852D02*
X12037905Y-14819328D01*
X12037905Y-14819328D02*
X12028382Y-14809804D01*
X12028382Y-14809804D02*
X12018858Y-14790756D01*
X12018858Y-14790756D02*
X12009334Y-14752661D01*
X12009334Y-14752661D02*
X12009334Y-14705042D01*
X12009334Y-14705042D02*
X12018858Y-14666947D01*
X12018858Y-14666947D02*
X12028382Y-14647899D01*
X12028382Y-14647899D02*
X12037905Y-14638376D01*
X12037905Y-14638376D02*
X12056953Y-14628852D01*
X12199810Y-14628852D02*
X12199810Y-14666947D01*
X12276001Y-14628852D02*
X12276001Y-14666947D01*
X12571239Y-14905042D02*
X12561715Y-14895518D01*
X12561715Y-14895518D02*
X12542667Y-14866947D01*
X12542667Y-14866947D02*
X12533144Y-14847899D01*
X12533144Y-14847899D02*
X12523620Y-14819328D01*
X12523620Y-14819328D02*
X12514096Y-14771709D01*
X12514096Y-14771709D02*
X12514096Y-14733614D01*
X12514096Y-14733614D02*
X12523620Y-14685995D01*
X12523620Y-14685995D02*
X12533144Y-14657423D01*
X12533144Y-14657423D02*
X12542667Y-14638376D01*
X12542667Y-14638376D02*
X12561715Y-14609804D01*
X12561715Y-14609804D02*
X12571239Y-14600280D01*
X12637905Y-14647899D02*
X12647429Y-14638376D01*
X12647429Y-14638376D02*
X12666477Y-14628852D01*
X12666477Y-14628852D02*
X12714096Y-14628852D01*
X12714096Y-14628852D02*
X12733144Y-14638376D01*
X12733144Y-14638376D02*
X12742667Y-14647899D01*
X12742667Y-14647899D02*
X12752191Y-14666947D01*
X12752191Y-14666947D02*
X12752191Y-14685995D01*
X12752191Y-14685995D02*
X12742667Y-14714566D01*
X12742667Y-14714566D02*
X12628382Y-14828852D01*
X12628382Y-14828852D02*
X12752191Y-14828852D01*
X12866477Y-14714566D02*
X12847429Y-14705042D01*
X12847429Y-14705042D02*
X12837905Y-14695518D01*
X12837905Y-14695518D02*
X12828382Y-14676471D01*
X12828382Y-14676471D02*
X12828382Y-14666947D01*
X12828382Y-14666947D02*
X12837905Y-14647899D01*
X12837905Y-14647899D02*
X12847429Y-14638376D01*
X12847429Y-14638376D02*
X12866477Y-14628852D01*
X12866477Y-14628852D02*
X12904572Y-14628852D01*
X12904572Y-14628852D02*
X12923620Y-14638376D01*
X12923620Y-14638376D02*
X12933144Y-14647899D01*
X12933144Y-14647899D02*
X12942667Y-14666947D01*
X12942667Y-14666947D02*
X12942667Y-14676471D01*
X12942667Y-14676471D02*
X12933144Y-14695518D01*
X12933144Y-14695518D02*
X12923620Y-14705042D01*
X12923620Y-14705042D02*
X12904572Y-14714566D01*
X12904572Y-14714566D02*
X12866477Y-14714566D01*
X12866477Y-14714566D02*
X12847429Y-14724090D01*
X12847429Y-14724090D02*
X12837905Y-14733614D01*
X12837905Y-14733614D02*
X12828382Y-14752661D01*
X12828382Y-14752661D02*
X12828382Y-14790756D01*
X12828382Y-14790756D02*
X12837905Y-14809804D01*
X12837905Y-14809804D02*
X12847429Y-14819328D01*
X12847429Y-14819328D02*
X12866477Y-14828852D01*
X12866477Y-14828852D02*
X12904572Y-14828852D01*
X12904572Y-14828852D02*
X12923620Y-14819328D01*
X12923620Y-14819328D02*
X12933144Y-14809804D01*
X12933144Y-14809804D02*
X12942667Y-14790756D01*
X12942667Y-14790756D02*
X12942667Y-14752661D01*
X12942667Y-14752661D02*
X12933144Y-14733614D01*
X12933144Y-14733614D02*
X12923620Y-14724090D01*
X12923620Y-14724090D02*
X12904572Y-14714566D01*
X13180763Y-14828852D02*
X13180763Y-14628852D01*
X13266477Y-14828852D02*
X13266477Y-14724090D01*
X13266477Y-14724090D02*
X13256953Y-14705042D01*
X13256953Y-14705042D02*
X13237906Y-14695518D01*
X13237906Y-14695518D02*
X13209334Y-14695518D01*
X13209334Y-14695518D02*
X13190286Y-14705042D01*
X13190286Y-14705042D02*
X13180763Y-14714566D01*
X13390286Y-14828852D02*
X13371239Y-14819328D01*
X13371239Y-14819328D02*
X13361715Y-14809804D01*
X13361715Y-14809804D02*
X13352191Y-14790756D01*
X13352191Y-14790756D02*
X13352191Y-14733614D01*
X13352191Y-14733614D02*
X13361715Y-14714566D01*
X13361715Y-14714566D02*
X13371239Y-14705042D01*
X13371239Y-14705042D02*
X13390286Y-14695518D01*
X13390286Y-14695518D02*
X13418858Y-14695518D01*
X13418858Y-14695518D02*
X13437906Y-14705042D01*
X13437906Y-14705042D02*
X13447429Y-14714566D01*
X13447429Y-14714566D02*
X13456953Y-14733614D01*
X13456953Y-14733614D02*
X13456953Y-14790756D01*
X13456953Y-14790756D02*
X13447429Y-14809804D01*
X13447429Y-14809804D02*
X13437906Y-14819328D01*
X13437906Y-14819328D02*
X13418858Y-14828852D01*
X13418858Y-14828852D02*
X13390286Y-14828852D01*
X13571239Y-14828852D02*
X13552191Y-14819328D01*
X13552191Y-14819328D02*
X13542667Y-14800280D01*
X13542667Y-14800280D02*
X13542667Y-14628852D01*
X13723620Y-14819328D02*
X13704572Y-14828852D01*
X13704572Y-14828852D02*
X13666477Y-14828852D01*
X13666477Y-14828852D02*
X13647429Y-14819328D01*
X13647429Y-14819328D02*
X13637906Y-14800280D01*
X13637906Y-14800280D02*
X13637906Y-14724090D01*
X13637906Y-14724090D02*
X13647429Y-14705042D01*
X13647429Y-14705042D02*
X13666477Y-14695518D01*
X13666477Y-14695518D02*
X13704572Y-14695518D01*
X13704572Y-14695518D02*
X13723620Y-14705042D01*
X13723620Y-14705042D02*
X13733144Y-14724090D01*
X13733144Y-14724090D02*
X13733144Y-14743137D01*
X13733144Y-14743137D02*
X13637906Y-14762185D01*
X13809334Y-14819328D02*
X13828382Y-14828852D01*
X13828382Y-14828852D02*
X13866477Y-14828852D01*
X13866477Y-14828852D02*
X13885525Y-14819328D01*
X13885525Y-14819328D02*
X13895048Y-14800280D01*
X13895048Y-14800280D02*
X13895048Y-14790756D01*
X13895048Y-14790756D02*
X13885525Y-14771709D01*
X13885525Y-14771709D02*
X13866477Y-14762185D01*
X13866477Y-14762185D02*
X13837906Y-14762185D01*
X13837906Y-14762185D02*
X13818858Y-14752661D01*
X13818858Y-14752661D02*
X13809334Y-14733614D01*
X13809334Y-14733614D02*
X13809334Y-14724090D01*
X13809334Y-14724090D02*
X13818858Y-14705042D01*
X13818858Y-14705042D02*
X13837906Y-14695518D01*
X13837906Y-14695518D02*
X13866477Y-14695518D01*
X13866477Y-14695518D02*
X13885525Y-14705042D01*
X13961715Y-14905042D02*
X13971239Y-14895518D01*
X13971239Y-14895518D02*
X13990287Y-14866947D01*
X13990287Y-14866947D02*
X13999810Y-14847899D01*
X13999810Y-14847899D02*
X14009334Y-14819328D01*
X14009334Y-14819328D02*
X14018858Y-14771709D01*
X14018858Y-14771709D02*
X14018858Y-14733614D01*
X14018858Y-14733614D02*
X14009334Y-14685995D01*
X14009334Y-14685995D02*
X13999810Y-14657423D01*
X13999810Y-14657423D02*
X13990287Y-14638376D01*
X13990287Y-14638376D02*
X13971239Y-14609804D01*
X13971239Y-14609804D02*
X13961715Y-14600280D01*
D12*
X8996176Y-15001368D02*
G75*
G02*
X8896176Y-15001368I-50000J0D01*
G01*
X8896176Y-15001368D02*
G75*
G02*
X8996176Y-15001368I50000J0D01*
G01*
D11*
X9361715Y-15092852D02*
X9247429Y-15092852D01*
X9304572Y-15092852D02*
X9304572Y-14892852D01*
X9304572Y-14892852D02*
X9285524Y-14921423D01*
X9285524Y-14921423D02*
X9266477Y-14940471D01*
X9266477Y-14940471D02*
X9247429Y-14949995D01*
X9447429Y-15073804D02*
X9456953Y-15083328D01*
X9456953Y-15083328D02*
X9447429Y-15092852D01*
X9447429Y-15092852D02*
X9437905Y-15083328D01*
X9437905Y-15083328D02*
X9447429Y-15073804D01*
X9447429Y-15073804D02*
X9447429Y-15092852D01*
X9580762Y-14892852D02*
X9599810Y-14892852D01*
X9599810Y-14892852D02*
X9618858Y-14902376D01*
X9618858Y-14902376D02*
X9628381Y-14911899D01*
X9628381Y-14911899D02*
X9637905Y-14930947D01*
X9637905Y-14930947D02*
X9647429Y-14969042D01*
X9647429Y-14969042D02*
X9647429Y-15016661D01*
X9647429Y-15016661D02*
X9637905Y-15054756D01*
X9637905Y-15054756D02*
X9628381Y-15073804D01*
X9628381Y-15073804D02*
X9618858Y-15083328D01*
X9618858Y-15083328D02*
X9599810Y-15092852D01*
X9599810Y-15092852D02*
X9580762Y-15092852D01*
X9580762Y-15092852D02*
X9561715Y-15083328D01*
X9561715Y-15083328D02*
X9552191Y-15073804D01*
X9552191Y-15073804D02*
X9542667Y-15054756D01*
X9542667Y-15054756D02*
X9533143Y-15016661D01*
X9533143Y-15016661D02*
X9533143Y-14969042D01*
X9533143Y-14969042D02*
X9542667Y-14930947D01*
X9542667Y-14930947D02*
X9552191Y-14911899D01*
X9552191Y-14911899D02*
X9561715Y-14902376D01*
X9561715Y-14902376D02*
X9580762Y-14892852D01*
X9771239Y-14892852D02*
X9790286Y-14892852D01*
X9790286Y-14892852D02*
X9809334Y-14902376D01*
X9809334Y-14902376D02*
X9818858Y-14911899D01*
X9818858Y-14911899D02*
X9828381Y-14930947D01*
X9828381Y-14930947D02*
X9837905Y-14969042D01*
X9837905Y-14969042D02*
X9837905Y-15016661D01*
X9837905Y-15016661D02*
X9828381Y-15054756D01*
X9828381Y-15054756D02*
X9818858Y-15073804D01*
X9818858Y-15073804D02*
X9809334Y-15083328D01*
X9809334Y-15083328D02*
X9790286Y-15092852D01*
X9790286Y-15092852D02*
X9771239Y-15092852D01*
X9771239Y-15092852D02*
X9752191Y-15083328D01*
X9752191Y-15083328D02*
X9742667Y-15073804D01*
X9742667Y-15073804D02*
X9733143Y-15054756D01*
X9733143Y-15054756D02*
X9723620Y-15016661D01*
X9723620Y-15016661D02*
X9723620Y-14969042D01*
X9723620Y-14969042D02*
X9733143Y-14930947D01*
X9733143Y-14930947D02*
X9742667Y-14911899D01*
X9742667Y-14911899D02*
X9752191Y-14902376D01*
X9752191Y-14902376D02*
X9771239Y-14892852D01*
X9961715Y-14892852D02*
X9980762Y-14892852D01*
X9980762Y-14892852D02*
X9999810Y-14902376D01*
X9999810Y-14902376D02*
X10009334Y-14911899D01*
X10009334Y-14911899D02*
X10018858Y-14930947D01*
X10018858Y-14930947D02*
X10028381Y-14969042D01*
X10028381Y-14969042D02*
X10028381Y-15016661D01*
X10028381Y-15016661D02*
X10018858Y-15054756D01*
X10018858Y-15054756D02*
X10009334Y-15073804D01*
X10009334Y-15073804D02*
X9999810Y-15083328D01*
X9999810Y-15083328D02*
X9980762Y-15092852D01*
X9980762Y-15092852D02*
X9961715Y-15092852D01*
X9961715Y-15092852D02*
X9942667Y-15083328D01*
X9942667Y-15083328D02*
X9933143Y-15073804D01*
X9933143Y-15073804D02*
X9923620Y-15054756D01*
X9923620Y-15054756D02*
X9914096Y-15016661D01*
X9914096Y-15016661D02*
X9914096Y-14969042D01*
X9914096Y-14969042D02*
X9923620Y-14930947D01*
X9923620Y-14930947D02*
X9933143Y-14911899D01*
X9933143Y-14911899D02*
X9942667Y-14902376D01*
X9942667Y-14902376D02*
X9961715Y-14892852D01*
X10114096Y-15092852D02*
X10114096Y-14959518D01*
X10114096Y-14978566D02*
X10123620Y-14969042D01*
X10123620Y-14969042D02*
X10142667Y-14959518D01*
X10142667Y-14959518D02*
X10171239Y-14959518D01*
X10171239Y-14959518D02*
X10190286Y-14969042D01*
X10190286Y-14969042D02*
X10199810Y-14988090D01*
X10199810Y-14988090D02*
X10199810Y-15092852D01*
X10199810Y-14988090D02*
X10209334Y-14969042D01*
X10209334Y-14969042D02*
X10228381Y-14959518D01*
X10228381Y-14959518D02*
X10256953Y-14959518D01*
X10256953Y-14959518D02*
X10276001Y-14969042D01*
X10276001Y-14969042D02*
X10285524Y-14988090D01*
X10285524Y-14988090D02*
X10285524Y-15092852D01*
X10380762Y-15092852D02*
X10380762Y-14959518D01*
X10380762Y-14978566D02*
X10390286Y-14969042D01*
X10390286Y-14969042D02*
X10409334Y-14959518D01*
X10409334Y-14959518D02*
X10437905Y-14959518D01*
X10437905Y-14959518D02*
X10456953Y-14969042D01*
X10456953Y-14969042D02*
X10466477Y-14988090D01*
X10466477Y-14988090D02*
X10466477Y-15092852D01*
X10466477Y-14988090D02*
X10476001Y-14969042D01*
X10476001Y-14969042D02*
X10495048Y-14959518D01*
X10495048Y-14959518D02*
X10523620Y-14959518D01*
X10523620Y-14959518D02*
X10542667Y-14969042D01*
X10542667Y-14969042D02*
X10552191Y-14988090D01*
X10552191Y-14988090D02*
X10552191Y-15092852D01*
X10942667Y-14883328D02*
X10771239Y-15140471D01*
X11199810Y-14892852D02*
X11218858Y-14892852D01*
X11218858Y-14892852D02*
X11237905Y-14902376D01*
X11237905Y-14902376D02*
X11247429Y-14911899D01*
X11247429Y-14911899D02*
X11256953Y-14930947D01*
X11256953Y-14930947D02*
X11266477Y-14969042D01*
X11266477Y-14969042D02*
X11266477Y-15016661D01*
X11266477Y-15016661D02*
X11256953Y-15054756D01*
X11256953Y-15054756D02*
X11247429Y-15073804D01*
X11247429Y-15073804D02*
X11237905Y-15083328D01*
X11237905Y-15083328D02*
X11218858Y-15092852D01*
X11218858Y-15092852D02*
X11199810Y-15092852D01*
X11199810Y-15092852D02*
X11180763Y-15083328D01*
X11180763Y-15083328D02*
X11171239Y-15073804D01*
X11171239Y-15073804D02*
X11161715Y-15054756D01*
X11161715Y-15054756D02*
X11152191Y-15016661D01*
X11152191Y-15016661D02*
X11152191Y-14969042D01*
X11152191Y-14969042D02*
X11161715Y-14930947D01*
X11161715Y-14930947D02*
X11171239Y-14911899D01*
X11171239Y-14911899D02*
X11180763Y-14902376D01*
X11180763Y-14902376D02*
X11199810Y-14892852D01*
X11352191Y-15073804D02*
X11361715Y-15083328D01*
X11361715Y-15083328D02*
X11352191Y-15092852D01*
X11352191Y-15092852D02*
X11342667Y-15083328D01*
X11342667Y-15083328D02*
X11352191Y-15073804D01*
X11352191Y-15073804D02*
X11352191Y-15092852D01*
X11485524Y-14892852D02*
X11504572Y-14892852D01*
X11504572Y-14892852D02*
X11523620Y-14902376D01*
X11523620Y-14902376D02*
X11533143Y-14911899D01*
X11533143Y-14911899D02*
X11542667Y-14930947D01*
X11542667Y-14930947D02*
X11552191Y-14969042D01*
X11552191Y-14969042D02*
X11552191Y-15016661D01*
X11552191Y-15016661D02*
X11542667Y-15054756D01*
X11542667Y-15054756D02*
X11533143Y-15073804D01*
X11533143Y-15073804D02*
X11523620Y-15083328D01*
X11523620Y-15083328D02*
X11504572Y-15092852D01*
X11504572Y-15092852D02*
X11485524Y-15092852D01*
X11485524Y-15092852D02*
X11466477Y-15083328D01*
X11466477Y-15083328D02*
X11456953Y-15073804D01*
X11456953Y-15073804D02*
X11447429Y-15054756D01*
X11447429Y-15054756D02*
X11437905Y-15016661D01*
X11437905Y-15016661D02*
X11437905Y-14969042D01*
X11437905Y-14969042D02*
X11447429Y-14930947D01*
X11447429Y-14930947D02*
X11456953Y-14911899D01*
X11456953Y-14911899D02*
X11466477Y-14902376D01*
X11466477Y-14902376D02*
X11485524Y-14892852D01*
X11618858Y-14892852D02*
X11742667Y-14892852D01*
X11742667Y-14892852D02*
X11676001Y-14969042D01*
X11676001Y-14969042D02*
X11704572Y-14969042D01*
X11704572Y-14969042D02*
X11723620Y-14978566D01*
X11723620Y-14978566D02*
X11733143Y-14988090D01*
X11733143Y-14988090D02*
X11742667Y-15007137D01*
X11742667Y-15007137D02*
X11742667Y-15054756D01*
X11742667Y-15054756D02*
X11733143Y-15073804D01*
X11733143Y-15073804D02*
X11723620Y-15083328D01*
X11723620Y-15083328D02*
X11704572Y-15092852D01*
X11704572Y-15092852D02*
X11647429Y-15092852D01*
X11647429Y-15092852D02*
X11628382Y-15083328D01*
X11628382Y-15083328D02*
X11618858Y-15073804D01*
X11837905Y-15092852D02*
X11876001Y-15092852D01*
X11876001Y-15092852D02*
X11895048Y-15083328D01*
X11895048Y-15083328D02*
X11904572Y-15073804D01*
X11904572Y-15073804D02*
X11923620Y-15045233D01*
X11923620Y-15045233D02*
X11933143Y-15007137D01*
X11933143Y-15007137D02*
X11933143Y-14930947D01*
X11933143Y-14930947D02*
X11923620Y-14911899D01*
X11923620Y-14911899D02*
X11914096Y-14902376D01*
X11914096Y-14902376D02*
X11895048Y-14892852D01*
X11895048Y-14892852D02*
X11856953Y-14892852D01*
X11856953Y-14892852D02*
X11837905Y-14902376D01*
X11837905Y-14902376D02*
X11828382Y-14911899D01*
X11828382Y-14911899D02*
X11818858Y-14930947D01*
X11818858Y-14930947D02*
X11818858Y-14978566D01*
X11818858Y-14978566D02*
X11828382Y-14997614D01*
X11828382Y-14997614D02*
X11837905Y-15007137D01*
X11837905Y-15007137D02*
X11856953Y-15016661D01*
X11856953Y-15016661D02*
X11895048Y-15016661D01*
X11895048Y-15016661D02*
X11914096Y-15007137D01*
X11914096Y-15007137D02*
X11923620Y-14997614D01*
X11923620Y-14997614D02*
X11933143Y-14978566D01*
X12104572Y-14959518D02*
X12104572Y-15092852D01*
X12056953Y-14883328D02*
X12009334Y-15026185D01*
X12009334Y-15026185D02*
X12133143Y-15026185D01*
X12199810Y-14892852D02*
X12199810Y-14930947D01*
X12276001Y-14892852D02*
X12276001Y-14930947D01*
X12571239Y-15169042D02*
X12561715Y-15159518D01*
X12561715Y-15159518D02*
X12542667Y-15130947D01*
X12542667Y-15130947D02*
X12533144Y-15111899D01*
X12533144Y-15111899D02*
X12523620Y-15083328D01*
X12523620Y-15083328D02*
X12514096Y-15035709D01*
X12514096Y-15035709D02*
X12514096Y-14997614D01*
X12514096Y-14997614D02*
X12523620Y-14949995D01*
X12523620Y-14949995D02*
X12533144Y-14921423D01*
X12533144Y-14921423D02*
X12542667Y-14902376D01*
X12542667Y-14902376D02*
X12561715Y-14873804D01*
X12561715Y-14873804D02*
X12571239Y-14864280D01*
X12628382Y-14892852D02*
X12752191Y-14892852D01*
X12752191Y-14892852D02*
X12685524Y-14969042D01*
X12685524Y-14969042D02*
X12714096Y-14969042D01*
X12714096Y-14969042D02*
X12733144Y-14978566D01*
X12733144Y-14978566D02*
X12742667Y-14988090D01*
X12742667Y-14988090D02*
X12752191Y-15007137D01*
X12752191Y-15007137D02*
X12752191Y-15054756D01*
X12752191Y-15054756D02*
X12742667Y-15073804D01*
X12742667Y-15073804D02*
X12733144Y-15083328D01*
X12733144Y-15083328D02*
X12714096Y-15092852D01*
X12714096Y-15092852D02*
X12656953Y-15092852D01*
X12656953Y-15092852D02*
X12637905Y-15083328D01*
X12637905Y-15083328D02*
X12628382Y-15073804D01*
X12990286Y-15092852D02*
X12990286Y-14892852D01*
X13076001Y-15092852D02*
X13076001Y-14988090D01*
X13076001Y-14988090D02*
X13066477Y-14969042D01*
X13066477Y-14969042D02*
X13047429Y-14959518D01*
X13047429Y-14959518D02*
X13018858Y-14959518D01*
X13018858Y-14959518D02*
X12999810Y-14969042D01*
X12999810Y-14969042D02*
X12990286Y-14978566D01*
X13199810Y-15092852D02*
X13180763Y-15083328D01*
X13180763Y-15083328D02*
X13171239Y-15073804D01*
X13171239Y-15073804D02*
X13161715Y-15054756D01*
X13161715Y-15054756D02*
X13161715Y-14997614D01*
X13161715Y-14997614D02*
X13171239Y-14978566D01*
X13171239Y-14978566D02*
X13180763Y-14969042D01*
X13180763Y-14969042D02*
X13199810Y-14959518D01*
X13199810Y-14959518D02*
X13228382Y-14959518D01*
X13228382Y-14959518D02*
X13247429Y-14969042D01*
X13247429Y-14969042D02*
X13256953Y-14978566D01*
X13256953Y-14978566D02*
X13266477Y-14997614D01*
X13266477Y-14997614D02*
X13266477Y-15054756D01*
X13266477Y-15054756D02*
X13256953Y-15073804D01*
X13256953Y-15073804D02*
X13247429Y-15083328D01*
X13247429Y-15083328D02*
X13228382Y-15092852D01*
X13228382Y-15092852D02*
X13199810Y-15092852D01*
X13380763Y-15092852D02*
X13361715Y-15083328D01*
X13361715Y-15083328D02*
X13352191Y-15064280D01*
X13352191Y-15064280D02*
X13352191Y-14892852D01*
X13533144Y-15083328D02*
X13514096Y-15092852D01*
X13514096Y-15092852D02*
X13476001Y-15092852D01*
X13476001Y-15092852D02*
X13456953Y-15083328D01*
X13456953Y-15083328D02*
X13447429Y-15064280D01*
X13447429Y-15064280D02*
X13447429Y-14988090D01*
X13447429Y-14988090D02*
X13456953Y-14969042D01*
X13456953Y-14969042D02*
X13476001Y-14959518D01*
X13476001Y-14959518D02*
X13514096Y-14959518D01*
X13514096Y-14959518D02*
X13533144Y-14969042D01*
X13533144Y-14969042D02*
X13542667Y-14988090D01*
X13542667Y-14988090D02*
X13542667Y-15007137D01*
X13542667Y-15007137D02*
X13447429Y-15026185D01*
X13618858Y-15083328D02*
X13637906Y-15092852D01*
X13637906Y-15092852D02*
X13676001Y-15092852D01*
X13676001Y-15092852D02*
X13695048Y-15083328D01*
X13695048Y-15083328D02*
X13704572Y-15064280D01*
X13704572Y-15064280D02*
X13704572Y-15054756D01*
X13704572Y-15054756D02*
X13695048Y-15035709D01*
X13695048Y-15035709D02*
X13676001Y-15026185D01*
X13676001Y-15026185D02*
X13647429Y-15026185D01*
X13647429Y-15026185D02*
X13628382Y-15016661D01*
X13628382Y-15016661D02*
X13618858Y-14997614D01*
X13618858Y-14997614D02*
X13618858Y-14988090D01*
X13618858Y-14988090D02*
X13628382Y-14969042D01*
X13628382Y-14969042D02*
X13647429Y-14959518D01*
X13647429Y-14959518D02*
X13676001Y-14959518D01*
X13676001Y-14959518D02*
X13695048Y-14969042D01*
X13771239Y-15169042D02*
X13780763Y-15159518D01*
X13780763Y-15159518D02*
X13799810Y-15130947D01*
X13799810Y-15130947D02*
X13809334Y-15111899D01*
X13809334Y-15111899D02*
X13818858Y-15083328D01*
X13818858Y-15083328D02*
X13828382Y-15035709D01*
X13828382Y-15035709D02*
X13828382Y-14997614D01*
X13828382Y-14997614D02*
X13818858Y-14949995D01*
X13818858Y-14949995D02*
X13809334Y-14921423D01*
X13809334Y-14921423D02*
X13799810Y-14902376D01*
X13799810Y-14902376D02*
X13780763Y-14873804D01*
X13780763Y-14873804D02*
X13771239Y-14864280D01*
D13*
X8945376Y-15214568D02*
X8945376Y-15316168D01*
X8894576Y-15265368D02*
X8996176Y-15265368D01*
D11*
X9361715Y-15356852D02*
X9247429Y-15356852D01*
X9304572Y-15356852D02*
X9304572Y-15156852D01*
X9304572Y-15156852D02*
X9285524Y-15185423D01*
X9285524Y-15185423D02*
X9266477Y-15204471D01*
X9266477Y-15204471D02*
X9247429Y-15213995D01*
X9447429Y-15337804D02*
X9456953Y-15347328D01*
X9456953Y-15347328D02*
X9447429Y-15356852D01*
X9447429Y-15356852D02*
X9437905Y-15347328D01*
X9437905Y-15347328D02*
X9447429Y-15337804D01*
X9447429Y-15337804D02*
X9447429Y-15356852D01*
X9580762Y-15156852D02*
X9599810Y-15156852D01*
X9599810Y-15156852D02*
X9618858Y-15166376D01*
X9618858Y-15166376D02*
X9628381Y-15175899D01*
X9628381Y-15175899D02*
X9637905Y-15194947D01*
X9637905Y-15194947D02*
X9647429Y-15233042D01*
X9647429Y-15233042D02*
X9647429Y-15280661D01*
X9647429Y-15280661D02*
X9637905Y-15318756D01*
X9637905Y-15318756D02*
X9628381Y-15337804D01*
X9628381Y-15337804D02*
X9618858Y-15347328D01*
X9618858Y-15347328D02*
X9599810Y-15356852D01*
X9599810Y-15356852D02*
X9580762Y-15356852D01*
X9580762Y-15356852D02*
X9561715Y-15347328D01*
X9561715Y-15347328D02*
X9552191Y-15337804D01*
X9552191Y-15337804D02*
X9542667Y-15318756D01*
X9542667Y-15318756D02*
X9533143Y-15280661D01*
X9533143Y-15280661D02*
X9533143Y-15233042D01*
X9533143Y-15233042D02*
X9542667Y-15194947D01*
X9542667Y-15194947D02*
X9552191Y-15175899D01*
X9552191Y-15175899D02*
X9561715Y-15166376D01*
X9561715Y-15166376D02*
X9580762Y-15156852D01*
X9837905Y-15356852D02*
X9723620Y-15356852D01*
X9780762Y-15356852D02*
X9780762Y-15156852D01*
X9780762Y-15156852D02*
X9761715Y-15185423D01*
X9761715Y-15185423D02*
X9742667Y-15204471D01*
X9742667Y-15204471D02*
X9723620Y-15213995D01*
X10009334Y-15156852D02*
X9971239Y-15156852D01*
X9971239Y-15156852D02*
X9952191Y-15166376D01*
X9952191Y-15166376D02*
X9942667Y-15175899D01*
X9942667Y-15175899D02*
X9923620Y-15204471D01*
X9923620Y-15204471D02*
X9914096Y-15242566D01*
X9914096Y-15242566D02*
X9914096Y-15318756D01*
X9914096Y-15318756D02*
X9923620Y-15337804D01*
X9923620Y-15337804D02*
X9933143Y-15347328D01*
X9933143Y-15347328D02*
X9952191Y-15356852D01*
X9952191Y-15356852D02*
X9990286Y-15356852D01*
X9990286Y-15356852D02*
X10009334Y-15347328D01*
X10009334Y-15347328D02*
X10018858Y-15337804D01*
X10018858Y-15337804D02*
X10028381Y-15318756D01*
X10028381Y-15318756D02*
X10028381Y-15271137D01*
X10028381Y-15271137D02*
X10018858Y-15252090D01*
X10018858Y-15252090D02*
X10009334Y-15242566D01*
X10009334Y-15242566D02*
X9990286Y-15233042D01*
X9990286Y-15233042D02*
X9952191Y-15233042D01*
X9952191Y-15233042D02*
X9933143Y-15242566D01*
X9933143Y-15242566D02*
X9923620Y-15252090D01*
X9923620Y-15252090D02*
X9914096Y-15271137D01*
X10114096Y-15356852D02*
X10114096Y-15223518D01*
X10114096Y-15242566D02*
X10123620Y-15233042D01*
X10123620Y-15233042D02*
X10142667Y-15223518D01*
X10142667Y-15223518D02*
X10171239Y-15223518D01*
X10171239Y-15223518D02*
X10190286Y-15233042D01*
X10190286Y-15233042D02*
X10199810Y-15252090D01*
X10199810Y-15252090D02*
X10199810Y-15356852D01*
X10199810Y-15252090D02*
X10209334Y-15233042D01*
X10209334Y-15233042D02*
X10228381Y-15223518D01*
X10228381Y-15223518D02*
X10256953Y-15223518D01*
X10256953Y-15223518D02*
X10276001Y-15233042D01*
X10276001Y-15233042D02*
X10285524Y-15252090D01*
X10285524Y-15252090D02*
X10285524Y-15356852D01*
X10380762Y-15356852D02*
X10380762Y-15223518D01*
X10380762Y-15242566D02*
X10390286Y-15233042D01*
X10390286Y-15233042D02*
X10409334Y-15223518D01*
X10409334Y-15223518D02*
X10437905Y-15223518D01*
X10437905Y-15223518D02*
X10456953Y-15233042D01*
X10456953Y-15233042D02*
X10466477Y-15252090D01*
X10466477Y-15252090D02*
X10466477Y-15356852D01*
X10466477Y-15252090D02*
X10476001Y-15233042D01*
X10476001Y-15233042D02*
X10495048Y-15223518D01*
X10495048Y-15223518D02*
X10523620Y-15223518D01*
X10523620Y-15223518D02*
X10542667Y-15233042D01*
X10542667Y-15233042D02*
X10552191Y-15252090D01*
X10552191Y-15252090D02*
X10552191Y-15356852D01*
X10942667Y-15147328D02*
X10771239Y-15404471D01*
X11199810Y-15156852D02*
X11218858Y-15156852D01*
X11218858Y-15156852D02*
X11237905Y-15166376D01*
X11237905Y-15166376D02*
X11247429Y-15175899D01*
X11247429Y-15175899D02*
X11256953Y-15194947D01*
X11256953Y-15194947D02*
X11266477Y-15233042D01*
X11266477Y-15233042D02*
X11266477Y-15280661D01*
X11266477Y-15280661D02*
X11256953Y-15318756D01*
X11256953Y-15318756D02*
X11247429Y-15337804D01*
X11247429Y-15337804D02*
X11237905Y-15347328D01*
X11237905Y-15347328D02*
X11218858Y-15356852D01*
X11218858Y-15356852D02*
X11199810Y-15356852D01*
X11199810Y-15356852D02*
X11180763Y-15347328D01*
X11180763Y-15347328D02*
X11171239Y-15337804D01*
X11171239Y-15337804D02*
X11161715Y-15318756D01*
X11161715Y-15318756D02*
X11152191Y-15280661D01*
X11152191Y-15280661D02*
X11152191Y-15233042D01*
X11152191Y-15233042D02*
X11161715Y-15194947D01*
X11161715Y-15194947D02*
X11171239Y-15175899D01*
X11171239Y-15175899D02*
X11180763Y-15166376D01*
X11180763Y-15166376D02*
X11199810Y-15156852D01*
X11352191Y-15337804D02*
X11361715Y-15347328D01*
X11361715Y-15347328D02*
X11352191Y-15356852D01*
X11352191Y-15356852D02*
X11342667Y-15347328D01*
X11342667Y-15347328D02*
X11352191Y-15337804D01*
X11352191Y-15337804D02*
X11352191Y-15356852D01*
X11485524Y-15156852D02*
X11504572Y-15156852D01*
X11504572Y-15156852D02*
X11523620Y-15166376D01*
X11523620Y-15166376D02*
X11533143Y-15175899D01*
X11533143Y-15175899D02*
X11542667Y-15194947D01*
X11542667Y-15194947D02*
X11552191Y-15233042D01*
X11552191Y-15233042D02*
X11552191Y-15280661D01*
X11552191Y-15280661D02*
X11542667Y-15318756D01*
X11542667Y-15318756D02*
X11533143Y-15337804D01*
X11533143Y-15337804D02*
X11523620Y-15347328D01*
X11523620Y-15347328D02*
X11504572Y-15356852D01*
X11504572Y-15356852D02*
X11485524Y-15356852D01*
X11485524Y-15356852D02*
X11466477Y-15347328D01*
X11466477Y-15347328D02*
X11456953Y-15337804D01*
X11456953Y-15337804D02*
X11447429Y-15318756D01*
X11447429Y-15318756D02*
X11437905Y-15280661D01*
X11437905Y-15280661D02*
X11437905Y-15233042D01*
X11437905Y-15233042D02*
X11447429Y-15194947D01*
X11447429Y-15194947D02*
X11456953Y-15175899D01*
X11456953Y-15175899D02*
X11466477Y-15166376D01*
X11466477Y-15166376D02*
X11485524Y-15156852D01*
X11723620Y-15223518D02*
X11723620Y-15356852D01*
X11676001Y-15147328D02*
X11628382Y-15290185D01*
X11628382Y-15290185D02*
X11752191Y-15290185D01*
X11866477Y-15156852D02*
X11885524Y-15156852D01*
X11885524Y-15156852D02*
X11904572Y-15166376D01*
X11904572Y-15166376D02*
X11914096Y-15175899D01*
X11914096Y-15175899D02*
X11923620Y-15194947D01*
X11923620Y-15194947D02*
X11933143Y-15233042D01*
X11933143Y-15233042D02*
X11933143Y-15280661D01*
X11933143Y-15280661D02*
X11923620Y-15318756D01*
X11923620Y-15318756D02*
X11914096Y-15337804D01*
X11914096Y-15337804D02*
X11904572Y-15347328D01*
X11904572Y-15347328D02*
X11885524Y-15356852D01*
X11885524Y-15356852D02*
X11866477Y-15356852D01*
X11866477Y-15356852D02*
X11847429Y-15347328D01*
X11847429Y-15347328D02*
X11837905Y-15337804D01*
X11837905Y-15337804D02*
X11828382Y-15318756D01*
X11828382Y-15318756D02*
X11818858Y-15280661D01*
X11818858Y-15280661D02*
X11818858Y-15233042D01*
X11818858Y-15233042D02*
X11828382Y-15194947D01*
X11828382Y-15194947D02*
X11837905Y-15175899D01*
X11837905Y-15175899D02*
X11847429Y-15166376D01*
X11847429Y-15166376D02*
X11866477Y-15156852D01*
X12056953Y-15156852D02*
X12076001Y-15156852D01*
X12076001Y-15156852D02*
X12095048Y-15166376D01*
X12095048Y-15166376D02*
X12104572Y-15175899D01*
X12104572Y-15175899D02*
X12114096Y-15194947D01*
X12114096Y-15194947D02*
X12123620Y-15233042D01*
X12123620Y-15233042D02*
X12123620Y-15280661D01*
X12123620Y-15280661D02*
X12114096Y-15318756D01*
X12114096Y-15318756D02*
X12104572Y-15337804D01*
X12104572Y-15337804D02*
X12095048Y-15347328D01*
X12095048Y-15347328D02*
X12076001Y-15356852D01*
X12076001Y-15356852D02*
X12056953Y-15356852D01*
X12056953Y-15356852D02*
X12037905Y-15347328D01*
X12037905Y-15347328D02*
X12028382Y-15337804D01*
X12028382Y-15337804D02*
X12018858Y-15318756D01*
X12018858Y-15318756D02*
X12009334Y-15280661D01*
X12009334Y-15280661D02*
X12009334Y-15233042D01*
X12009334Y-15233042D02*
X12018858Y-15194947D01*
X12018858Y-15194947D02*
X12028382Y-15175899D01*
X12028382Y-15175899D02*
X12037905Y-15166376D01*
X12037905Y-15166376D02*
X12056953Y-15156852D01*
X12199810Y-15156852D02*
X12199810Y-15194947D01*
X12276001Y-15156852D02*
X12276001Y-15194947D01*
X12571239Y-15433042D02*
X12561715Y-15423518D01*
X12561715Y-15423518D02*
X12542667Y-15394947D01*
X12542667Y-15394947D02*
X12533144Y-15375899D01*
X12533144Y-15375899D02*
X12523620Y-15347328D01*
X12523620Y-15347328D02*
X12514096Y-15299709D01*
X12514096Y-15299709D02*
X12514096Y-15261614D01*
X12514096Y-15261614D02*
X12523620Y-15213995D01*
X12523620Y-15213995D02*
X12533144Y-15185423D01*
X12533144Y-15185423D02*
X12542667Y-15166376D01*
X12542667Y-15166376D02*
X12561715Y-15137804D01*
X12561715Y-15137804D02*
X12571239Y-15128280D01*
X12637905Y-15175899D02*
X12647429Y-15166376D01*
X12647429Y-15166376D02*
X12666477Y-15156852D01*
X12666477Y-15156852D02*
X12714096Y-15156852D01*
X12714096Y-15156852D02*
X12733144Y-15166376D01*
X12733144Y-15166376D02*
X12742667Y-15175899D01*
X12742667Y-15175899D02*
X12752191Y-15194947D01*
X12752191Y-15194947D02*
X12752191Y-15213995D01*
X12752191Y-15213995D02*
X12742667Y-15242566D01*
X12742667Y-15242566D02*
X12628382Y-15356852D01*
X12628382Y-15356852D02*
X12752191Y-15356852D01*
X12923620Y-15223518D02*
X12923620Y-15356852D01*
X12876001Y-15147328D02*
X12828382Y-15290185D01*
X12828382Y-15290185D02*
X12952191Y-15290185D01*
X13180763Y-15356852D02*
X13180763Y-15156852D01*
X13266477Y-15356852D02*
X13266477Y-15252090D01*
X13266477Y-15252090D02*
X13256953Y-15233042D01*
X13256953Y-15233042D02*
X13237906Y-15223518D01*
X13237906Y-15223518D02*
X13209334Y-15223518D01*
X13209334Y-15223518D02*
X13190286Y-15233042D01*
X13190286Y-15233042D02*
X13180763Y-15242566D01*
X13390286Y-15356852D02*
X13371239Y-15347328D01*
X13371239Y-15347328D02*
X13361715Y-15337804D01*
X13361715Y-15337804D02*
X13352191Y-15318756D01*
X13352191Y-15318756D02*
X13352191Y-15261614D01*
X13352191Y-15261614D02*
X13361715Y-15242566D01*
X13361715Y-15242566D02*
X13371239Y-15233042D01*
X13371239Y-15233042D02*
X13390286Y-15223518D01*
X13390286Y-15223518D02*
X13418858Y-15223518D01*
X13418858Y-15223518D02*
X13437906Y-15233042D01*
X13437906Y-15233042D02*
X13447429Y-15242566D01*
X13447429Y-15242566D02*
X13456953Y-15261614D01*
X13456953Y-15261614D02*
X13456953Y-15318756D01*
X13456953Y-15318756D02*
X13447429Y-15337804D01*
X13447429Y-15337804D02*
X13437906Y-15347328D01*
X13437906Y-15347328D02*
X13418858Y-15356852D01*
X13418858Y-15356852D02*
X13390286Y-15356852D01*
X13571239Y-15356852D02*
X13552191Y-15347328D01*
X13552191Y-15347328D02*
X13542667Y-15328280D01*
X13542667Y-15328280D02*
X13542667Y-15156852D01*
X13723620Y-15347328D02*
X13704572Y-15356852D01*
X13704572Y-15356852D02*
X13666477Y-15356852D01*
X13666477Y-15356852D02*
X13647429Y-15347328D01*
X13647429Y-15347328D02*
X13637906Y-15328280D01*
X13637906Y-15328280D02*
X13637906Y-15252090D01*
X13637906Y-15252090D02*
X13647429Y-15233042D01*
X13647429Y-15233042D02*
X13666477Y-15223518D01*
X13666477Y-15223518D02*
X13704572Y-15223518D01*
X13704572Y-15223518D02*
X13723620Y-15233042D01*
X13723620Y-15233042D02*
X13733144Y-15252090D01*
X13733144Y-15252090D02*
X13733144Y-15271137D01*
X13733144Y-15271137D02*
X13637906Y-15290185D01*
X13809334Y-15347328D02*
X13828382Y-15356852D01*
X13828382Y-15356852D02*
X13866477Y-15356852D01*
X13866477Y-15356852D02*
X13885525Y-15347328D01*
X13885525Y-15347328D02*
X13895048Y-15328280D01*
X13895048Y-15328280D02*
X13895048Y-15318756D01*
X13895048Y-15318756D02*
X13885525Y-15299709D01*
X13885525Y-15299709D02*
X13866477Y-15290185D01*
X13866477Y-15290185D02*
X13837906Y-15290185D01*
X13837906Y-15290185D02*
X13818858Y-15280661D01*
X13818858Y-15280661D02*
X13809334Y-15261614D01*
X13809334Y-15261614D02*
X13809334Y-15252090D01*
X13809334Y-15252090D02*
X13818858Y-15233042D01*
X13818858Y-15233042D02*
X13837906Y-15223518D01*
X13837906Y-15223518D02*
X13866477Y-15223518D01*
X13866477Y-15223518D02*
X13885525Y-15233042D01*
X13961715Y-15433042D02*
X13971239Y-15423518D01*
X13971239Y-15423518D02*
X13990287Y-15394947D01*
X13990287Y-15394947D02*
X13999810Y-15375899D01*
X13999810Y-15375899D02*
X14009334Y-15347328D01*
X14009334Y-15347328D02*
X14018858Y-15299709D01*
X14018858Y-15299709D02*
X14018858Y-15261614D01*
X14018858Y-15261614D02*
X14009334Y-15213995D01*
X14009334Y-15213995D02*
X13999810Y-15185423D01*
X13999810Y-15185423D02*
X13990287Y-15166376D01*
X13990287Y-15166376D02*
X13971239Y-15137804D01*
X13971239Y-15137804D02*
X13961715Y-15128280D01*
X8966887Y-15600079D02*
X8966887Y-15458657D01*
X8825465Y-15458657D01*
X8825465Y-15600079D01*
X8966887Y-15600079D01*
X9247429Y-15439899D02*
X9256953Y-15430376D01*
X9256953Y-15430376D02*
X9276000Y-15420852D01*
X9276000Y-15420852D02*
X9323620Y-15420852D01*
X9323620Y-15420852D02*
X9342667Y-15430376D01*
X9342667Y-15430376D02*
X9352191Y-15439899D01*
X9352191Y-15439899D02*
X9361715Y-15458947D01*
X9361715Y-15458947D02*
X9361715Y-15477995D01*
X9361715Y-15477995D02*
X9352191Y-15506566D01*
X9352191Y-15506566D02*
X9237905Y-15620852D01*
X9237905Y-15620852D02*
X9361715Y-15620852D01*
X9447429Y-15601804D02*
X9456953Y-15611328D01*
X9456953Y-15611328D02*
X9447429Y-15620852D01*
X9447429Y-15620852D02*
X9437905Y-15611328D01*
X9437905Y-15611328D02*
X9447429Y-15601804D01*
X9447429Y-15601804D02*
X9447429Y-15620852D01*
X9523620Y-15420852D02*
X9656953Y-15420852D01*
X9656953Y-15420852D02*
X9571239Y-15620852D01*
X9828381Y-15420852D02*
X9733143Y-15420852D01*
X9733143Y-15420852D02*
X9723620Y-15516090D01*
X9723620Y-15516090D02*
X9733143Y-15506566D01*
X9733143Y-15506566D02*
X9752191Y-15497042D01*
X9752191Y-15497042D02*
X9799810Y-15497042D01*
X9799810Y-15497042D02*
X9818858Y-15506566D01*
X9818858Y-15506566D02*
X9828381Y-15516090D01*
X9828381Y-15516090D02*
X9837905Y-15535137D01*
X9837905Y-15535137D02*
X9837905Y-15582756D01*
X9837905Y-15582756D02*
X9828381Y-15601804D01*
X9828381Y-15601804D02*
X9818858Y-15611328D01*
X9818858Y-15611328D02*
X9799810Y-15620852D01*
X9799810Y-15620852D02*
X9752191Y-15620852D01*
X9752191Y-15620852D02*
X9733143Y-15611328D01*
X9733143Y-15611328D02*
X9723620Y-15601804D01*
X9961715Y-15420852D02*
X9980762Y-15420852D01*
X9980762Y-15420852D02*
X9999810Y-15430376D01*
X9999810Y-15430376D02*
X10009334Y-15439899D01*
X10009334Y-15439899D02*
X10018858Y-15458947D01*
X10018858Y-15458947D02*
X10028381Y-15497042D01*
X10028381Y-15497042D02*
X10028381Y-15544661D01*
X10028381Y-15544661D02*
X10018858Y-15582756D01*
X10018858Y-15582756D02*
X10009334Y-15601804D01*
X10009334Y-15601804D02*
X9999810Y-15611328D01*
X9999810Y-15611328D02*
X9980762Y-15620852D01*
X9980762Y-15620852D02*
X9961715Y-15620852D01*
X9961715Y-15620852D02*
X9942667Y-15611328D01*
X9942667Y-15611328D02*
X9933143Y-15601804D01*
X9933143Y-15601804D02*
X9923620Y-15582756D01*
X9923620Y-15582756D02*
X9914096Y-15544661D01*
X9914096Y-15544661D02*
X9914096Y-15497042D01*
X9914096Y-15497042D02*
X9923620Y-15458947D01*
X9923620Y-15458947D02*
X9933143Y-15439899D01*
X9933143Y-15439899D02*
X9942667Y-15430376D01*
X9942667Y-15430376D02*
X9961715Y-15420852D01*
X10114096Y-15620852D02*
X10114096Y-15487518D01*
X10114096Y-15506566D02*
X10123620Y-15497042D01*
X10123620Y-15497042D02*
X10142667Y-15487518D01*
X10142667Y-15487518D02*
X10171239Y-15487518D01*
X10171239Y-15487518D02*
X10190286Y-15497042D01*
X10190286Y-15497042D02*
X10199810Y-15516090D01*
X10199810Y-15516090D02*
X10199810Y-15620852D01*
X10199810Y-15516090D02*
X10209334Y-15497042D01*
X10209334Y-15497042D02*
X10228381Y-15487518D01*
X10228381Y-15487518D02*
X10256953Y-15487518D01*
X10256953Y-15487518D02*
X10276001Y-15497042D01*
X10276001Y-15497042D02*
X10285524Y-15516090D01*
X10285524Y-15516090D02*
X10285524Y-15620852D01*
X10380762Y-15620852D02*
X10380762Y-15487518D01*
X10380762Y-15506566D02*
X10390286Y-15497042D01*
X10390286Y-15497042D02*
X10409334Y-15487518D01*
X10409334Y-15487518D02*
X10437905Y-15487518D01*
X10437905Y-15487518D02*
X10456953Y-15497042D01*
X10456953Y-15497042D02*
X10466477Y-15516090D01*
X10466477Y-15516090D02*
X10466477Y-15620852D01*
X10466477Y-15516090D02*
X10476001Y-15497042D01*
X10476001Y-15497042D02*
X10495048Y-15487518D01*
X10495048Y-15487518D02*
X10523620Y-15487518D01*
X10523620Y-15487518D02*
X10542667Y-15497042D01*
X10542667Y-15497042D02*
X10552191Y-15516090D01*
X10552191Y-15516090D02*
X10552191Y-15620852D01*
X10942667Y-15411328D02*
X10771239Y-15668471D01*
X11199810Y-15420852D02*
X11218858Y-15420852D01*
X11218858Y-15420852D02*
X11237905Y-15430376D01*
X11237905Y-15430376D02*
X11247429Y-15439899D01*
X11247429Y-15439899D02*
X11256953Y-15458947D01*
X11256953Y-15458947D02*
X11266477Y-15497042D01*
X11266477Y-15497042D02*
X11266477Y-15544661D01*
X11266477Y-15544661D02*
X11256953Y-15582756D01*
X11256953Y-15582756D02*
X11247429Y-15601804D01*
X11247429Y-15601804D02*
X11237905Y-15611328D01*
X11237905Y-15611328D02*
X11218858Y-15620852D01*
X11218858Y-15620852D02*
X11199810Y-15620852D01*
X11199810Y-15620852D02*
X11180763Y-15611328D01*
X11180763Y-15611328D02*
X11171239Y-15601804D01*
X11171239Y-15601804D02*
X11161715Y-15582756D01*
X11161715Y-15582756D02*
X11152191Y-15544661D01*
X11152191Y-15544661D02*
X11152191Y-15497042D01*
X11152191Y-15497042D02*
X11161715Y-15458947D01*
X11161715Y-15458947D02*
X11171239Y-15439899D01*
X11171239Y-15439899D02*
X11180763Y-15430376D01*
X11180763Y-15430376D02*
X11199810Y-15420852D01*
X11352191Y-15601804D02*
X11361715Y-15611328D01*
X11361715Y-15611328D02*
X11352191Y-15620852D01*
X11352191Y-15620852D02*
X11342667Y-15611328D01*
X11342667Y-15611328D02*
X11352191Y-15601804D01*
X11352191Y-15601804D02*
X11352191Y-15620852D01*
X11552191Y-15620852D02*
X11437905Y-15620852D01*
X11495048Y-15620852D02*
X11495048Y-15420852D01*
X11495048Y-15420852D02*
X11476001Y-15449423D01*
X11476001Y-15449423D02*
X11456953Y-15468471D01*
X11456953Y-15468471D02*
X11437905Y-15477995D01*
X11676001Y-15420852D02*
X11695048Y-15420852D01*
X11695048Y-15420852D02*
X11714096Y-15430376D01*
X11714096Y-15430376D02*
X11723620Y-15439899D01*
X11723620Y-15439899D02*
X11733143Y-15458947D01*
X11733143Y-15458947D02*
X11742667Y-15497042D01*
X11742667Y-15497042D02*
X11742667Y-15544661D01*
X11742667Y-15544661D02*
X11733143Y-15582756D01*
X11733143Y-15582756D02*
X11723620Y-15601804D01*
X11723620Y-15601804D02*
X11714096Y-15611328D01*
X11714096Y-15611328D02*
X11695048Y-15620852D01*
X11695048Y-15620852D02*
X11676001Y-15620852D01*
X11676001Y-15620852D02*
X11656953Y-15611328D01*
X11656953Y-15611328D02*
X11647429Y-15601804D01*
X11647429Y-15601804D02*
X11637905Y-15582756D01*
X11637905Y-15582756D02*
X11628382Y-15544661D01*
X11628382Y-15544661D02*
X11628382Y-15497042D01*
X11628382Y-15497042D02*
X11637905Y-15458947D01*
X11637905Y-15458947D02*
X11647429Y-15439899D01*
X11647429Y-15439899D02*
X11656953Y-15430376D01*
X11656953Y-15430376D02*
X11676001Y-15420852D01*
X11856953Y-15506566D02*
X11837905Y-15497042D01*
X11837905Y-15497042D02*
X11828382Y-15487518D01*
X11828382Y-15487518D02*
X11818858Y-15468471D01*
X11818858Y-15468471D02*
X11818858Y-15458947D01*
X11818858Y-15458947D02*
X11828382Y-15439899D01*
X11828382Y-15439899D02*
X11837905Y-15430376D01*
X11837905Y-15430376D02*
X11856953Y-15420852D01*
X11856953Y-15420852D02*
X11895048Y-15420852D01*
X11895048Y-15420852D02*
X11914096Y-15430376D01*
X11914096Y-15430376D02*
X11923620Y-15439899D01*
X11923620Y-15439899D02*
X11933143Y-15458947D01*
X11933143Y-15458947D02*
X11933143Y-15468471D01*
X11933143Y-15468471D02*
X11923620Y-15487518D01*
X11923620Y-15487518D02*
X11914096Y-15497042D01*
X11914096Y-15497042D02*
X11895048Y-15506566D01*
X11895048Y-15506566D02*
X11856953Y-15506566D01*
X11856953Y-15506566D02*
X11837905Y-15516090D01*
X11837905Y-15516090D02*
X11828382Y-15525614D01*
X11828382Y-15525614D02*
X11818858Y-15544661D01*
X11818858Y-15544661D02*
X11818858Y-15582756D01*
X11818858Y-15582756D02*
X11828382Y-15601804D01*
X11828382Y-15601804D02*
X11837905Y-15611328D01*
X11837905Y-15611328D02*
X11856953Y-15620852D01*
X11856953Y-15620852D02*
X11895048Y-15620852D01*
X11895048Y-15620852D02*
X11914096Y-15611328D01*
X11914096Y-15611328D02*
X11923620Y-15601804D01*
X11923620Y-15601804D02*
X11933143Y-15582756D01*
X11933143Y-15582756D02*
X11933143Y-15544661D01*
X11933143Y-15544661D02*
X11923620Y-15525614D01*
X11923620Y-15525614D02*
X11914096Y-15516090D01*
X11914096Y-15516090D02*
X11895048Y-15506566D01*
X11999810Y-15420852D02*
X12123620Y-15420852D01*
X12123620Y-15420852D02*
X12056953Y-15497042D01*
X12056953Y-15497042D02*
X12085524Y-15497042D01*
X12085524Y-15497042D02*
X12104572Y-15506566D01*
X12104572Y-15506566D02*
X12114096Y-15516090D01*
X12114096Y-15516090D02*
X12123620Y-15535137D01*
X12123620Y-15535137D02*
X12123620Y-15582756D01*
X12123620Y-15582756D02*
X12114096Y-15601804D01*
X12114096Y-15601804D02*
X12104572Y-15611328D01*
X12104572Y-15611328D02*
X12085524Y-15620852D01*
X12085524Y-15620852D02*
X12028382Y-15620852D01*
X12028382Y-15620852D02*
X12009334Y-15611328D01*
X12009334Y-15611328D02*
X11999810Y-15601804D01*
X12199810Y-15420852D02*
X12199810Y-15458947D01*
X12276001Y-15420852D02*
X12276001Y-15458947D01*
X12571239Y-15697042D02*
X12561715Y-15687518D01*
X12561715Y-15687518D02*
X12542667Y-15658947D01*
X12542667Y-15658947D02*
X12533144Y-15639899D01*
X12533144Y-15639899D02*
X12523620Y-15611328D01*
X12523620Y-15611328D02*
X12514096Y-15563709D01*
X12514096Y-15563709D02*
X12514096Y-15525614D01*
X12514096Y-15525614D02*
X12523620Y-15477995D01*
X12523620Y-15477995D02*
X12533144Y-15449423D01*
X12533144Y-15449423D02*
X12542667Y-15430376D01*
X12542667Y-15430376D02*
X12561715Y-15401804D01*
X12561715Y-15401804D02*
X12571239Y-15392280D01*
X12733144Y-15487518D02*
X12733144Y-15620852D01*
X12685524Y-15411328D02*
X12637905Y-15554185D01*
X12637905Y-15554185D02*
X12761715Y-15554185D01*
X12990286Y-15620852D02*
X12990286Y-15420852D01*
X13076001Y-15620852D02*
X13076001Y-15516090D01*
X13076001Y-15516090D02*
X13066477Y-15497042D01*
X13066477Y-15497042D02*
X13047429Y-15487518D01*
X13047429Y-15487518D02*
X13018858Y-15487518D01*
X13018858Y-15487518D02*
X12999810Y-15497042D01*
X12999810Y-15497042D02*
X12990286Y-15506566D01*
X13199810Y-15620852D02*
X13180763Y-15611328D01*
X13180763Y-15611328D02*
X13171239Y-15601804D01*
X13171239Y-15601804D02*
X13161715Y-15582756D01*
X13161715Y-15582756D02*
X13161715Y-15525614D01*
X13161715Y-15525614D02*
X13171239Y-15506566D01*
X13171239Y-15506566D02*
X13180763Y-15497042D01*
X13180763Y-15497042D02*
X13199810Y-15487518D01*
X13199810Y-15487518D02*
X13228382Y-15487518D01*
X13228382Y-15487518D02*
X13247429Y-15497042D01*
X13247429Y-15497042D02*
X13256953Y-15506566D01*
X13256953Y-15506566D02*
X13266477Y-15525614D01*
X13266477Y-15525614D02*
X13266477Y-15582756D01*
X13266477Y-15582756D02*
X13256953Y-15601804D01*
X13256953Y-15601804D02*
X13247429Y-15611328D01*
X13247429Y-15611328D02*
X13228382Y-15620852D01*
X13228382Y-15620852D02*
X13199810Y-15620852D01*
X13380763Y-15620852D02*
X13361715Y-15611328D01*
X13361715Y-15611328D02*
X13352191Y-15592280D01*
X13352191Y-15592280D02*
X13352191Y-15420852D01*
X13533144Y-15611328D02*
X13514096Y-15620852D01*
X13514096Y-15620852D02*
X13476001Y-15620852D01*
X13476001Y-15620852D02*
X13456953Y-15611328D01*
X13456953Y-15611328D02*
X13447429Y-15592280D01*
X13447429Y-15592280D02*
X13447429Y-15516090D01*
X13447429Y-15516090D02*
X13456953Y-15497042D01*
X13456953Y-15497042D02*
X13476001Y-15487518D01*
X13476001Y-15487518D02*
X13514096Y-15487518D01*
X13514096Y-15487518D02*
X13533144Y-15497042D01*
X13533144Y-15497042D02*
X13542667Y-15516090D01*
X13542667Y-15516090D02*
X13542667Y-15535137D01*
X13542667Y-15535137D02*
X13447429Y-15554185D01*
X13618858Y-15611328D02*
X13637906Y-15620852D01*
X13637906Y-15620852D02*
X13676001Y-15620852D01*
X13676001Y-15620852D02*
X13695048Y-15611328D01*
X13695048Y-15611328D02*
X13704572Y-15592280D01*
X13704572Y-15592280D02*
X13704572Y-15582756D01*
X13704572Y-15582756D02*
X13695048Y-15563709D01*
X13695048Y-15563709D02*
X13676001Y-15554185D01*
X13676001Y-15554185D02*
X13647429Y-15554185D01*
X13647429Y-15554185D02*
X13628382Y-15544661D01*
X13628382Y-15544661D02*
X13618858Y-15525614D01*
X13618858Y-15525614D02*
X13618858Y-15516090D01*
X13618858Y-15516090D02*
X13628382Y-15497042D01*
X13628382Y-15497042D02*
X13647429Y-15487518D01*
X13647429Y-15487518D02*
X13676001Y-15487518D01*
X13676001Y-15487518D02*
X13695048Y-15497042D01*
X13771239Y-15697042D02*
X13780763Y-15687518D01*
X13780763Y-15687518D02*
X13799810Y-15658947D01*
X13799810Y-15658947D02*
X13809334Y-15639899D01*
X13809334Y-15639899D02*
X13818858Y-15611328D01*
X13818858Y-15611328D02*
X13828382Y-15563709D01*
X13828382Y-15563709D02*
X13828382Y-15525614D01*
X13828382Y-15525614D02*
X13818858Y-15477995D01*
X13818858Y-15477995D02*
X13809334Y-15449423D01*
X13809334Y-15449423D02*
X13799810Y-15430376D01*
X13799810Y-15430376D02*
X13780763Y-15401804D01*
X13780763Y-15401804D02*
X13771239Y-15392280D01*
M02*
