%TF.GenerationSoftware,KiCad,Pcbnew,8.0.7-8.0.7-0~ubuntu24.04.1*%
%TF.CreationDate,2025-01-13T14:11:03-06:00*%
%TF.ProjectId,edge_human_detection_board,65646765-5f68-4756-9d61-6e5f64657465,rev?*%
%TF.SameCoordinates,Original*%
%TF.FileFunction,Legend,Bot*%
%TF.FilePolarity,Positive*%
%FSLAX46Y46*%
G04 Gerber Fmt 4.6, Leading zero omitted, Abs format (unit mm)*
G04 Created by KiCad (PCBNEW 8.0.7-8.0.7-0~ubuntu24.04.1) date 2025-01-13 14:11:03*
%MOMM*%
%LPD*%
G01*
G04 APERTURE LIST*
%ADD10C,0.150000*%
G04 APERTURE END LIST*
D10*
X129966740Y-66472744D02*
X129966740Y-65872744D01*
X129023883Y-65615601D02*
X129023883Y-66472744D01*
X129023883Y-66472744D02*
X130823883Y-66472744D01*
X130823883Y-66472744D02*
X130823883Y-65615601D01*
X129023883Y-64844173D02*
X130823883Y-64844173D01*
X130823883Y-64844173D02*
X130823883Y-64415602D01*
X130823883Y-64415602D02*
X130738169Y-64158459D01*
X130738169Y-64158459D02*
X130566740Y-63987030D01*
X130566740Y-63987030D02*
X130395312Y-63901316D01*
X130395312Y-63901316D02*
X130052455Y-63815602D01*
X130052455Y-63815602D02*
X129795312Y-63815602D01*
X129795312Y-63815602D02*
X129452455Y-63901316D01*
X129452455Y-63901316D02*
X129281026Y-63987030D01*
X129281026Y-63987030D02*
X129109598Y-64158459D01*
X129109598Y-64158459D02*
X129023883Y-64415602D01*
X129023883Y-64415602D02*
X129023883Y-64844173D01*
X130738169Y-62101316D02*
X130823883Y-62272745D01*
X130823883Y-62272745D02*
X130823883Y-62529887D01*
X130823883Y-62529887D02*
X130738169Y-62787030D01*
X130738169Y-62787030D02*
X130566740Y-62958459D01*
X130566740Y-62958459D02*
X130395312Y-63044173D01*
X130395312Y-63044173D02*
X130052455Y-63129887D01*
X130052455Y-63129887D02*
X129795312Y-63129887D01*
X129795312Y-63129887D02*
X129452455Y-63044173D01*
X129452455Y-63044173D02*
X129281026Y-62958459D01*
X129281026Y-62958459D02*
X129109598Y-62787030D01*
X129109598Y-62787030D02*
X129023883Y-62529887D01*
X129023883Y-62529887D02*
X129023883Y-62358459D01*
X129023883Y-62358459D02*
X129109598Y-62101316D01*
X129109598Y-62101316D02*
X129195312Y-62015602D01*
X129195312Y-62015602D02*
X129795312Y-62015602D01*
X129795312Y-62015602D02*
X129795312Y-62358459D01*
X129966740Y-61244173D02*
X129966740Y-60644173D01*
X129023883Y-60387030D02*
X129023883Y-61244173D01*
X129023883Y-61244173D02*
X130823883Y-61244173D01*
X130823883Y-61244173D02*
X130823883Y-60387030D01*
X129023883Y-58244173D02*
X130823883Y-58244173D01*
X130823883Y-58244173D02*
X130823883Y-57815602D01*
X130823883Y-57815602D02*
X130738169Y-57558459D01*
X130738169Y-57558459D02*
X130566740Y-57387030D01*
X130566740Y-57387030D02*
X130395312Y-57301316D01*
X130395312Y-57301316D02*
X130052455Y-57215602D01*
X130052455Y-57215602D02*
X129795312Y-57215602D01*
X129795312Y-57215602D02*
X129452455Y-57301316D01*
X129452455Y-57301316D02*
X129281026Y-57387030D01*
X129281026Y-57387030D02*
X129109598Y-57558459D01*
X129109598Y-57558459D02*
X129023883Y-57815602D01*
X129023883Y-57815602D02*
X129023883Y-58244173D01*
X129966740Y-56444173D02*
X129966740Y-55844173D01*
X129023883Y-55587030D02*
X129023883Y-56444173D01*
X129023883Y-56444173D02*
X130823883Y-56444173D01*
X130823883Y-56444173D02*
X130823883Y-55587030D01*
X130823883Y-55072745D02*
X130823883Y-54044174D01*
X129023883Y-54558459D02*
X130823883Y-54558459D01*
X129966740Y-53444173D02*
X129966740Y-52844173D01*
X129023883Y-52587030D02*
X129023883Y-53444173D01*
X129023883Y-53444173D02*
X130823883Y-53444173D01*
X130823883Y-53444173D02*
X130823883Y-52587030D01*
X129195312Y-50787031D02*
X129109598Y-50872745D01*
X129109598Y-50872745D02*
X129023883Y-51129888D01*
X129023883Y-51129888D02*
X129023883Y-51301316D01*
X129023883Y-51301316D02*
X129109598Y-51558459D01*
X129109598Y-51558459D02*
X129281026Y-51729888D01*
X129281026Y-51729888D02*
X129452455Y-51815602D01*
X129452455Y-51815602D02*
X129795312Y-51901316D01*
X129795312Y-51901316D02*
X130052455Y-51901316D01*
X130052455Y-51901316D02*
X130395312Y-51815602D01*
X130395312Y-51815602D02*
X130566740Y-51729888D01*
X130566740Y-51729888D02*
X130738169Y-51558459D01*
X130738169Y-51558459D02*
X130823883Y-51301316D01*
X130823883Y-51301316D02*
X130823883Y-51129888D01*
X130823883Y-51129888D02*
X130738169Y-50872745D01*
X130738169Y-50872745D02*
X130652455Y-50787031D01*
X130823883Y-50272745D02*
X130823883Y-49244174D01*
X129023883Y-49758459D02*
X130823883Y-49758459D01*
X129023883Y-48644173D02*
X130823883Y-48644173D01*
X130823883Y-47444173D02*
X130823883Y-47101316D01*
X130823883Y-47101316D02*
X130738169Y-46929887D01*
X130738169Y-46929887D02*
X130566740Y-46758459D01*
X130566740Y-46758459D02*
X130223883Y-46672744D01*
X130223883Y-46672744D02*
X129623883Y-46672744D01*
X129623883Y-46672744D02*
X129281026Y-46758459D01*
X129281026Y-46758459D02*
X129109598Y-46929887D01*
X129109598Y-46929887D02*
X129023883Y-47101316D01*
X129023883Y-47101316D02*
X129023883Y-47444173D01*
X129023883Y-47444173D02*
X129109598Y-47615602D01*
X129109598Y-47615602D02*
X129281026Y-47787030D01*
X129281026Y-47787030D02*
X129623883Y-47872744D01*
X129623883Y-47872744D02*
X130223883Y-47872744D01*
X130223883Y-47872744D02*
X130566740Y-47787030D01*
X130566740Y-47787030D02*
X130738169Y-47615602D01*
X130738169Y-47615602D02*
X130823883Y-47444173D01*
X129023883Y-45901316D02*
X130823883Y-45901316D01*
X130823883Y-45901316D02*
X129023883Y-44872745D01*
X129023883Y-44872745D02*
X130823883Y-44872745D01*
X129966740Y-42044173D02*
X129881026Y-41787030D01*
X129881026Y-41787030D02*
X129795312Y-41701316D01*
X129795312Y-41701316D02*
X129623883Y-41615602D01*
X129623883Y-41615602D02*
X129366740Y-41615602D01*
X129366740Y-41615602D02*
X129195312Y-41701316D01*
X129195312Y-41701316D02*
X129109598Y-41787030D01*
X129109598Y-41787030D02*
X129023883Y-41958459D01*
X129023883Y-41958459D02*
X129023883Y-42644173D01*
X129023883Y-42644173D02*
X130823883Y-42644173D01*
X130823883Y-42644173D02*
X130823883Y-42044173D01*
X130823883Y-42044173D02*
X130738169Y-41872745D01*
X130738169Y-41872745D02*
X130652455Y-41787030D01*
X130652455Y-41787030D02*
X130481026Y-41701316D01*
X130481026Y-41701316D02*
X130309598Y-41701316D01*
X130309598Y-41701316D02*
X130138169Y-41787030D01*
X130138169Y-41787030D02*
X130052455Y-41872745D01*
X130052455Y-41872745D02*
X129966740Y-42044173D01*
X129966740Y-42044173D02*
X129966740Y-42644173D01*
X130823883Y-40501316D02*
X130823883Y-40158459D01*
X130823883Y-40158459D02*
X130738169Y-39987030D01*
X130738169Y-39987030D02*
X130566740Y-39815602D01*
X130566740Y-39815602D02*
X130223883Y-39729887D01*
X130223883Y-39729887D02*
X129623883Y-39729887D01*
X129623883Y-39729887D02*
X129281026Y-39815602D01*
X129281026Y-39815602D02*
X129109598Y-39987030D01*
X129109598Y-39987030D02*
X129023883Y-40158459D01*
X129023883Y-40158459D02*
X129023883Y-40501316D01*
X129023883Y-40501316D02*
X129109598Y-40672745D01*
X129109598Y-40672745D02*
X129281026Y-40844173D01*
X129281026Y-40844173D02*
X129623883Y-40929887D01*
X129623883Y-40929887D02*
X130223883Y-40929887D01*
X130223883Y-40929887D02*
X130566740Y-40844173D01*
X130566740Y-40844173D02*
X130738169Y-40672745D01*
X130738169Y-40672745D02*
X130823883Y-40501316D01*
X129538169Y-39044173D02*
X129538169Y-38187031D01*
X129023883Y-39215602D02*
X130823883Y-38615602D01*
X130823883Y-38615602D02*
X129023883Y-38015602D01*
X129023883Y-36387031D02*
X129881026Y-36987031D01*
X129023883Y-37415602D02*
X130823883Y-37415602D01*
X130823883Y-37415602D02*
X130823883Y-36729888D01*
X130823883Y-36729888D02*
X130738169Y-36558459D01*
X130738169Y-36558459D02*
X130652455Y-36472745D01*
X130652455Y-36472745D02*
X130481026Y-36387031D01*
X130481026Y-36387031D02*
X130223883Y-36387031D01*
X130223883Y-36387031D02*
X130052455Y-36472745D01*
X130052455Y-36472745D02*
X129966740Y-36558459D01*
X129966740Y-36558459D02*
X129881026Y-36729888D01*
X129881026Y-36729888D02*
X129881026Y-37415602D01*
X129023883Y-35615602D02*
X130823883Y-35615602D01*
X130823883Y-35615602D02*
X130823883Y-35187031D01*
X130823883Y-35187031D02*
X130738169Y-34929888D01*
X130738169Y-34929888D02*
X130566740Y-34758459D01*
X130566740Y-34758459D02*
X130395312Y-34672745D01*
X130395312Y-34672745D02*
X130052455Y-34587031D01*
X130052455Y-34587031D02*
X129795312Y-34587031D01*
X129795312Y-34587031D02*
X129452455Y-34672745D01*
X129452455Y-34672745D02*
X129281026Y-34758459D01*
X129281026Y-34758459D02*
X129109598Y-34929888D01*
X129109598Y-34929888D02*
X129023883Y-35187031D01*
X129023883Y-35187031D02*
X129023883Y-35615602D01*
X126125984Y-65444173D02*
X126983127Y-66044173D01*
X126125984Y-66472744D02*
X127925984Y-66472744D01*
X127925984Y-66472744D02*
X127925984Y-65787030D01*
X127925984Y-65787030D02*
X127840270Y-65615601D01*
X127840270Y-65615601D02*
X127754556Y-65529887D01*
X127754556Y-65529887D02*
X127583127Y-65444173D01*
X127583127Y-65444173D02*
X127325984Y-65444173D01*
X127325984Y-65444173D02*
X127154556Y-65529887D01*
X127154556Y-65529887D02*
X127068841Y-65615601D01*
X127068841Y-65615601D02*
X126983127Y-65787030D01*
X126983127Y-65787030D02*
X126983127Y-66472744D01*
X127068841Y-64672744D02*
X127068841Y-64072744D01*
X126125984Y-63815601D02*
X126125984Y-64672744D01*
X126125984Y-64672744D02*
X127925984Y-64672744D01*
X127925984Y-64672744D02*
X127925984Y-63815601D01*
X127925984Y-63301316D02*
X126125984Y-62701316D01*
X126125984Y-62701316D02*
X127925984Y-62101316D01*
X126125984Y-59187030D02*
X126125984Y-60215601D01*
X126125984Y-59701316D02*
X127925984Y-59701316D01*
X127925984Y-59701316D02*
X127668841Y-59872744D01*
X127668841Y-59872744D02*
X127497413Y-60044173D01*
X127497413Y-60044173D02*
X127411699Y-60215601D01*
X126297413Y-58415601D02*
X126211699Y-58329887D01*
X126211699Y-58329887D02*
X126125984Y-58415601D01*
X126125984Y-58415601D02*
X126211699Y-58501315D01*
X126211699Y-58501315D02*
X126297413Y-58415601D01*
X126297413Y-58415601D02*
X126125984Y-58415601D01*
X126125984Y-56615601D02*
X126125984Y-57644172D01*
X126125984Y-57129887D02*
X127925984Y-57129887D01*
X127925984Y-57129887D02*
X127668841Y-57301315D01*
X127668841Y-57301315D02*
X127497413Y-57472744D01*
X127497413Y-57472744D02*
X127411699Y-57644172D01*
X126297413Y-55844172D02*
X126211699Y-55758458D01*
X126211699Y-55758458D02*
X126125984Y-55844172D01*
X126125984Y-55844172D02*
X126211699Y-55929886D01*
X126211699Y-55929886D02*
X126297413Y-55844172D01*
X126297413Y-55844172D02*
X126125984Y-55844172D01*
X127925984Y-54644172D02*
X127925984Y-54472743D01*
X127925984Y-54472743D02*
X127840270Y-54301315D01*
X127840270Y-54301315D02*
X127754556Y-54215601D01*
X127754556Y-54215601D02*
X127583127Y-54129886D01*
X127583127Y-54129886D02*
X127240270Y-54044172D01*
X127240270Y-54044172D02*
X126811699Y-54044172D01*
X126811699Y-54044172D02*
X126468841Y-54129886D01*
X126468841Y-54129886D02*
X126297413Y-54215601D01*
X126297413Y-54215601D02*
X126211699Y-54301315D01*
X126211699Y-54301315D02*
X126125984Y-54472743D01*
X126125984Y-54472743D02*
X126125984Y-54644172D01*
X126125984Y-54644172D02*
X126211699Y-54815601D01*
X126211699Y-54815601D02*
X126297413Y-54901315D01*
X126297413Y-54901315D02*
X126468841Y-54987029D01*
X126468841Y-54987029D02*
X126811699Y-55072743D01*
X126811699Y-55072743D02*
X127240270Y-55072743D01*
X127240270Y-55072743D02*
X127583127Y-54987029D01*
X127583127Y-54987029D02*
X127754556Y-54901315D01*
X127754556Y-54901315D02*
X127840270Y-54815601D01*
X127840270Y-54815601D02*
X127925984Y-54644172D01*
X124170942Y-65872744D02*
X124085228Y-65615601D01*
X124085228Y-65615601D02*
X123999514Y-65529887D01*
X123999514Y-65529887D02*
X123828085Y-65444173D01*
X123828085Y-65444173D02*
X123570942Y-65444173D01*
X123570942Y-65444173D02*
X123399514Y-65529887D01*
X123399514Y-65529887D02*
X123313800Y-65615601D01*
X123313800Y-65615601D02*
X123228085Y-65787030D01*
X123228085Y-65787030D02*
X123228085Y-66472744D01*
X123228085Y-66472744D02*
X125028085Y-66472744D01*
X125028085Y-66472744D02*
X125028085Y-65872744D01*
X125028085Y-65872744D02*
X124942371Y-65701316D01*
X124942371Y-65701316D02*
X124856657Y-65615601D01*
X124856657Y-65615601D02*
X124685228Y-65529887D01*
X124685228Y-65529887D02*
X124513800Y-65529887D01*
X124513800Y-65529887D02*
X124342371Y-65615601D01*
X124342371Y-65615601D02*
X124256657Y-65701316D01*
X124256657Y-65701316D02*
X124170942Y-65872744D01*
X124170942Y-65872744D02*
X124170942Y-66472744D01*
X124085228Y-64329887D02*
X123228085Y-64329887D01*
X125028085Y-64929887D02*
X124085228Y-64329887D01*
X124085228Y-64329887D02*
X125028085Y-63729887D01*
X125028085Y-61244172D02*
X123742371Y-61244172D01*
X123742371Y-61244172D02*
X123485228Y-61329887D01*
X123485228Y-61329887D02*
X123313800Y-61501315D01*
X123313800Y-61501315D02*
X123228085Y-61758458D01*
X123228085Y-61758458D02*
X123228085Y-61929887D01*
X123399514Y-59358458D02*
X123313800Y-59444172D01*
X123313800Y-59444172D02*
X123228085Y-59701315D01*
X123228085Y-59701315D02*
X123228085Y-59872743D01*
X123228085Y-59872743D02*
X123313800Y-60129886D01*
X123313800Y-60129886D02*
X123485228Y-60301315D01*
X123485228Y-60301315D02*
X123656657Y-60387029D01*
X123656657Y-60387029D02*
X123999514Y-60472743D01*
X123999514Y-60472743D02*
X124256657Y-60472743D01*
X124256657Y-60472743D02*
X124599514Y-60387029D01*
X124599514Y-60387029D02*
X124770942Y-60301315D01*
X124770942Y-60301315D02*
X124942371Y-60129886D01*
X124942371Y-60129886D02*
X125028085Y-59872743D01*
X125028085Y-59872743D02*
X125028085Y-59701315D01*
X125028085Y-59701315D02*
X124942371Y-59444172D01*
X124942371Y-59444172D02*
X124856657Y-59358458D01*
X153809523Y-102602390D02*
X153885713Y-102564295D01*
X153885713Y-102564295D02*
X153999999Y-102564295D01*
X153999999Y-102564295D02*
X154114285Y-102602390D01*
X154114285Y-102602390D02*
X154190475Y-102678580D01*
X154190475Y-102678580D02*
X154228570Y-102754771D01*
X154228570Y-102754771D02*
X154266666Y-102907152D01*
X154266666Y-102907152D02*
X154266666Y-103021438D01*
X154266666Y-103021438D02*
X154228570Y-103173819D01*
X154228570Y-103173819D02*
X154190475Y-103250009D01*
X154190475Y-103250009D02*
X154114285Y-103326200D01*
X154114285Y-103326200D02*
X153999999Y-103364295D01*
X153999999Y-103364295D02*
X153923808Y-103364295D01*
X153923808Y-103364295D02*
X153809523Y-103326200D01*
X153809523Y-103326200D02*
X153771427Y-103288104D01*
X153771427Y-103288104D02*
X153771427Y-103021438D01*
X153771427Y-103021438D02*
X153923808Y-103021438D01*
X153428570Y-103364295D02*
X153428570Y-102564295D01*
X153428570Y-102564295D02*
X152971427Y-103364295D01*
X152971427Y-103364295D02*
X152971427Y-102564295D01*
X152590475Y-103364295D02*
X152590475Y-102564295D01*
X152590475Y-102564295D02*
X152399999Y-102564295D01*
X152399999Y-102564295D02*
X152285713Y-102602390D01*
X152285713Y-102602390D02*
X152209523Y-102678580D01*
X152209523Y-102678580D02*
X152171428Y-102754771D01*
X152171428Y-102754771D02*
X152133332Y-102907152D01*
X152133332Y-102907152D02*
X152133332Y-103021438D01*
X152133332Y-103021438D02*
X152171428Y-103173819D01*
X152171428Y-103173819D02*
X152209523Y-103250009D01*
X152209523Y-103250009D02*
X152285713Y-103326200D01*
X152285713Y-103326200D02*
X152399999Y-103364295D01*
X152399999Y-103364295D02*
X152590475Y-103364295D01*
X153809523Y-77602390D02*
X153885713Y-77564295D01*
X153885713Y-77564295D02*
X153999999Y-77564295D01*
X153999999Y-77564295D02*
X154114285Y-77602390D01*
X154114285Y-77602390D02*
X154190475Y-77678580D01*
X154190475Y-77678580D02*
X154228570Y-77754771D01*
X154228570Y-77754771D02*
X154266666Y-77907152D01*
X154266666Y-77907152D02*
X154266666Y-78021438D01*
X154266666Y-78021438D02*
X154228570Y-78173819D01*
X154228570Y-78173819D02*
X154190475Y-78250009D01*
X154190475Y-78250009D02*
X154114285Y-78326200D01*
X154114285Y-78326200D02*
X153999999Y-78364295D01*
X153999999Y-78364295D02*
X153923808Y-78364295D01*
X153923808Y-78364295D02*
X153809523Y-78326200D01*
X153809523Y-78326200D02*
X153771427Y-78288104D01*
X153771427Y-78288104D02*
X153771427Y-78021438D01*
X153771427Y-78021438D02*
X153923808Y-78021438D01*
X153428570Y-78364295D02*
X153428570Y-77564295D01*
X153428570Y-77564295D02*
X152971427Y-78364295D01*
X152971427Y-78364295D02*
X152971427Y-77564295D01*
X152590475Y-78364295D02*
X152590475Y-77564295D01*
X152590475Y-77564295D02*
X152399999Y-77564295D01*
X152399999Y-77564295D02*
X152285713Y-77602390D01*
X152285713Y-77602390D02*
X152209523Y-77678580D01*
X152209523Y-77678580D02*
X152171428Y-77754771D01*
X152171428Y-77754771D02*
X152133332Y-77907152D01*
X152133332Y-77907152D02*
X152133332Y-78021438D01*
X152133332Y-78021438D02*
X152171428Y-78173819D01*
X152171428Y-78173819D02*
X152209523Y-78250009D01*
X152209523Y-78250009D02*
X152285713Y-78326200D01*
X152285713Y-78326200D02*
X152399999Y-78364295D01*
X152399999Y-78364295D02*
X152590475Y-78364295D01*
X153809523Y-83402390D02*
X153885713Y-83364295D01*
X153885713Y-83364295D02*
X153999999Y-83364295D01*
X153999999Y-83364295D02*
X154114285Y-83402390D01*
X154114285Y-83402390D02*
X154190475Y-83478580D01*
X154190475Y-83478580D02*
X154228570Y-83554771D01*
X154228570Y-83554771D02*
X154266666Y-83707152D01*
X154266666Y-83707152D02*
X154266666Y-83821438D01*
X154266666Y-83821438D02*
X154228570Y-83973819D01*
X154228570Y-83973819D02*
X154190475Y-84050009D01*
X154190475Y-84050009D02*
X154114285Y-84126200D01*
X154114285Y-84126200D02*
X153999999Y-84164295D01*
X153999999Y-84164295D02*
X153923808Y-84164295D01*
X153923808Y-84164295D02*
X153809523Y-84126200D01*
X153809523Y-84126200D02*
X153771427Y-84088104D01*
X153771427Y-84088104D02*
X153771427Y-83821438D01*
X153771427Y-83821438D02*
X153923808Y-83821438D01*
X153428570Y-84164295D02*
X153428570Y-83364295D01*
X153428570Y-83364295D02*
X152971427Y-84164295D01*
X152971427Y-84164295D02*
X152971427Y-83364295D01*
X152590475Y-84164295D02*
X152590475Y-83364295D01*
X152590475Y-83364295D02*
X152399999Y-83364295D01*
X152399999Y-83364295D02*
X152285713Y-83402390D01*
X152285713Y-83402390D02*
X152209523Y-83478580D01*
X152209523Y-83478580D02*
X152171428Y-83554771D01*
X152171428Y-83554771D02*
X152133332Y-83707152D01*
X152133332Y-83707152D02*
X152133332Y-83821438D01*
X152133332Y-83821438D02*
X152171428Y-83973819D01*
X152171428Y-83973819D02*
X152209523Y-84050009D01*
X152209523Y-84050009D02*
X152285713Y-84126200D01*
X152285713Y-84126200D02*
X152399999Y-84164295D01*
X152399999Y-84164295D02*
X152590475Y-84164295D01*
X144771428Y-71364295D02*
X145152380Y-71364295D01*
X145152380Y-71364295D02*
X145152380Y-70564295D01*
X144504761Y-71364295D02*
X144504761Y-70564295D01*
X144504761Y-70564295D02*
X144199999Y-70564295D01*
X144199999Y-70564295D02*
X144123809Y-70602390D01*
X144123809Y-70602390D02*
X144085714Y-70640485D01*
X144085714Y-70640485D02*
X144047618Y-70716676D01*
X144047618Y-70716676D02*
X144047618Y-70830961D01*
X144047618Y-70830961D02*
X144085714Y-70907152D01*
X144085714Y-70907152D02*
X144123809Y-70945247D01*
X144123809Y-70945247D02*
X144199999Y-70983342D01*
X144199999Y-70983342D02*
X144504761Y-70983342D01*
X143704761Y-71364295D02*
X143704761Y-70564295D01*
X143704761Y-70564295D02*
X143247618Y-71364295D01*
X143247618Y-71364295D02*
X143247618Y-70564295D01*
X144733332Y-109164295D02*
X144999999Y-108783342D01*
X145190475Y-109164295D02*
X145190475Y-108364295D01*
X145190475Y-108364295D02*
X144885713Y-108364295D01*
X144885713Y-108364295D02*
X144809523Y-108402390D01*
X144809523Y-108402390D02*
X144771428Y-108440485D01*
X144771428Y-108440485D02*
X144733332Y-108516676D01*
X144733332Y-108516676D02*
X144733332Y-108630961D01*
X144733332Y-108630961D02*
X144771428Y-108707152D01*
X144771428Y-108707152D02*
X144809523Y-108745247D01*
X144809523Y-108745247D02*
X144885713Y-108783342D01*
X144885713Y-108783342D02*
X145190475Y-108783342D01*
X143971428Y-108402390D02*
X144047618Y-108364295D01*
X144047618Y-108364295D02*
X144161904Y-108364295D01*
X144161904Y-108364295D02*
X144276190Y-108402390D01*
X144276190Y-108402390D02*
X144352380Y-108478580D01*
X144352380Y-108478580D02*
X144390475Y-108554771D01*
X144390475Y-108554771D02*
X144428571Y-108707152D01*
X144428571Y-108707152D02*
X144428571Y-108821438D01*
X144428571Y-108821438D02*
X144390475Y-108973819D01*
X144390475Y-108973819D02*
X144352380Y-109050009D01*
X144352380Y-109050009D02*
X144276190Y-109126200D01*
X144276190Y-109126200D02*
X144161904Y-109164295D01*
X144161904Y-109164295D02*
X144085713Y-109164295D01*
X144085713Y-109164295D02*
X143971428Y-109126200D01*
X143971428Y-109126200D02*
X143933332Y-109088104D01*
X143933332Y-109088104D02*
X143933332Y-108821438D01*
X143933332Y-108821438D02*
X144085713Y-108821438D01*
X143323809Y-108745247D02*
X143209523Y-108783342D01*
X143209523Y-108783342D02*
X143171428Y-108821438D01*
X143171428Y-108821438D02*
X143133332Y-108897628D01*
X143133332Y-108897628D02*
X143133332Y-109011914D01*
X143133332Y-109011914D02*
X143171428Y-109088104D01*
X143171428Y-109088104D02*
X143209523Y-109126200D01*
X143209523Y-109126200D02*
X143285713Y-109164295D01*
X143285713Y-109164295D02*
X143590475Y-109164295D01*
X143590475Y-109164295D02*
X143590475Y-108364295D01*
X143590475Y-108364295D02*
X143323809Y-108364295D01*
X143323809Y-108364295D02*
X143247618Y-108402390D01*
X143247618Y-108402390D02*
X143209523Y-108440485D01*
X143209523Y-108440485D02*
X143171428Y-108516676D01*
X143171428Y-108516676D02*
X143171428Y-108592866D01*
X143171428Y-108592866D02*
X143209523Y-108669057D01*
X143209523Y-108669057D02*
X143247618Y-108707152D01*
X143247618Y-108707152D02*
X143323809Y-108745247D01*
X143323809Y-108745247D02*
X143590475Y-108745247D01*
X142866666Y-108364295D02*
X142371428Y-108364295D01*
X142371428Y-108364295D02*
X142638094Y-108669057D01*
X142638094Y-108669057D02*
X142523809Y-108669057D01*
X142523809Y-108669057D02*
X142447618Y-108707152D01*
X142447618Y-108707152D02*
X142409523Y-108745247D01*
X142409523Y-108745247D02*
X142371428Y-108821438D01*
X142371428Y-108821438D02*
X142371428Y-109011914D01*
X142371428Y-109011914D02*
X142409523Y-109088104D01*
X142409523Y-109088104D02*
X142447618Y-109126200D01*
X142447618Y-109126200D02*
X142523809Y-109164295D01*
X142523809Y-109164295D02*
X142752380Y-109164295D01*
X142752380Y-109164295D02*
X142828571Y-109126200D01*
X142828571Y-109126200D02*
X142866666Y-109088104D01*
X145352381Y-83726200D02*
X145238095Y-83764295D01*
X145238095Y-83764295D02*
X145047619Y-83764295D01*
X145047619Y-83764295D02*
X144971428Y-83726200D01*
X144971428Y-83726200D02*
X144933333Y-83688104D01*
X144933333Y-83688104D02*
X144895238Y-83611914D01*
X144895238Y-83611914D02*
X144895238Y-83535723D01*
X144895238Y-83535723D02*
X144933333Y-83459533D01*
X144933333Y-83459533D02*
X144971428Y-83421438D01*
X144971428Y-83421438D02*
X145047619Y-83383342D01*
X145047619Y-83383342D02*
X145200000Y-83345247D01*
X145200000Y-83345247D02*
X145276190Y-83307152D01*
X145276190Y-83307152D02*
X145314285Y-83269057D01*
X145314285Y-83269057D02*
X145352381Y-83192866D01*
X145352381Y-83192866D02*
X145352381Y-83116676D01*
X145352381Y-83116676D02*
X145314285Y-83040485D01*
X145314285Y-83040485D02*
X145276190Y-83002390D01*
X145276190Y-83002390D02*
X145200000Y-82964295D01*
X145200000Y-82964295D02*
X145009523Y-82964295D01*
X145009523Y-82964295D02*
X144895238Y-83002390D01*
X144095237Y-83688104D02*
X144133333Y-83726200D01*
X144133333Y-83726200D02*
X144247618Y-83764295D01*
X144247618Y-83764295D02*
X144323809Y-83764295D01*
X144323809Y-83764295D02*
X144438095Y-83726200D01*
X144438095Y-83726200D02*
X144514285Y-83650009D01*
X144514285Y-83650009D02*
X144552380Y-83573819D01*
X144552380Y-83573819D02*
X144590476Y-83421438D01*
X144590476Y-83421438D02*
X144590476Y-83307152D01*
X144590476Y-83307152D02*
X144552380Y-83154771D01*
X144552380Y-83154771D02*
X144514285Y-83078580D01*
X144514285Y-83078580D02*
X144438095Y-83002390D01*
X144438095Y-83002390D02*
X144323809Y-82964295D01*
X144323809Y-82964295D02*
X144247618Y-82964295D01*
X144247618Y-82964295D02*
X144133333Y-83002390D01*
X144133333Y-83002390D02*
X144095237Y-83040485D01*
X143371428Y-83764295D02*
X143752380Y-83764295D01*
X143752380Y-83764295D02*
X143752380Y-82964295D01*
X144933332Y-97164295D02*
X145199999Y-96783342D01*
X145390475Y-97164295D02*
X145390475Y-96364295D01*
X145390475Y-96364295D02*
X145085713Y-96364295D01*
X145085713Y-96364295D02*
X145009523Y-96402390D01*
X145009523Y-96402390D02*
X144971428Y-96440485D01*
X144971428Y-96440485D02*
X144933332Y-96516676D01*
X144933332Y-96516676D02*
X144933332Y-96630961D01*
X144933332Y-96630961D02*
X144971428Y-96707152D01*
X144971428Y-96707152D02*
X145009523Y-96745247D01*
X145009523Y-96745247D02*
X145085713Y-96783342D01*
X145085713Y-96783342D02*
X145390475Y-96783342D01*
X144171428Y-96402390D02*
X144247618Y-96364295D01*
X144247618Y-96364295D02*
X144361904Y-96364295D01*
X144361904Y-96364295D02*
X144476190Y-96402390D01*
X144476190Y-96402390D02*
X144552380Y-96478580D01*
X144552380Y-96478580D02*
X144590475Y-96554771D01*
X144590475Y-96554771D02*
X144628571Y-96707152D01*
X144628571Y-96707152D02*
X144628571Y-96821438D01*
X144628571Y-96821438D02*
X144590475Y-96973819D01*
X144590475Y-96973819D02*
X144552380Y-97050009D01*
X144552380Y-97050009D02*
X144476190Y-97126200D01*
X144476190Y-97126200D02*
X144361904Y-97164295D01*
X144361904Y-97164295D02*
X144285713Y-97164295D01*
X144285713Y-97164295D02*
X144171428Y-97126200D01*
X144171428Y-97126200D02*
X144133332Y-97088104D01*
X144133332Y-97088104D02*
X144133332Y-96821438D01*
X144133332Y-96821438D02*
X144285713Y-96821438D01*
X143523809Y-96745247D02*
X143409523Y-96783342D01*
X143409523Y-96783342D02*
X143371428Y-96821438D01*
X143371428Y-96821438D02*
X143333332Y-96897628D01*
X143333332Y-96897628D02*
X143333332Y-97011914D01*
X143333332Y-97011914D02*
X143371428Y-97088104D01*
X143371428Y-97088104D02*
X143409523Y-97126200D01*
X143409523Y-97126200D02*
X143485713Y-97164295D01*
X143485713Y-97164295D02*
X143790475Y-97164295D01*
X143790475Y-97164295D02*
X143790475Y-96364295D01*
X143790475Y-96364295D02*
X143523809Y-96364295D01*
X143523809Y-96364295D02*
X143447618Y-96402390D01*
X143447618Y-96402390D02*
X143409523Y-96440485D01*
X143409523Y-96440485D02*
X143371428Y-96516676D01*
X143371428Y-96516676D02*
X143371428Y-96592866D01*
X143371428Y-96592866D02*
X143409523Y-96669057D01*
X143409523Y-96669057D02*
X143447618Y-96707152D01*
X143447618Y-96707152D02*
X143523809Y-96745247D01*
X143523809Y-96745247D02*
X143790475Y-96745247D01*
X142571428Y-97164295D02*
X143028571Y-97164295D01*
X142799999Y-97164295D02*
X142799999Y-96364295D01*
X142799999Y-96364295D02*
X142876190Y-96478580D01*
X142876190Y-96478580D02*
X142952380Y-96554771D01*
X142952380Y-96554771D02*
X143028571Y-96592866D01*
X145704761Y-90564295D02*
X145704761Y-89764295D01*
X145704761Y-89764295D02*
X145399999Y-89764295D01*
X145399999Y-89764295D02*
X145323809Y-89802390D01*
X145323809Y-89802390D02*
X145285714Y-89840485D01*
X145285714Y-89840485D02*
X145247618Y-89916676D01*
X145247618Y-89916676D02*
X145247618Y-90030961D01*
X145247618Y-90030961D02*
X145285714Y-90107152D01*
X145285714Y-90107152D02*
X145323809Y-90145247D01*
X145323809Y-90145247D02*
X145399999Y-90183342D01*
X145399999Y-90183342D02*
X145704761Y-90183342D01*
X144980952Y-89764295D02*
X144790476Y-90564295D01*
X144790476Y-90564295D02*
X144638095Y-89992866D01*
X144638095Y-89992866D02*
X144485714Y-90564295D01*
X144485714Y-90564295D02*
X144295238Y-89764295D01*
X143990475Y-90564295D02*
X143990475Y-89764295D01*
X143990475Y-89764295D02*
X143723809Y-90335723D01*
X143723809Y-90335723D02*
X143457142Y-89764295D01*
X143457142Y-89764295D02*
X143457142Y-90564295D01*
X142923808Y-89764295D02*
X142847618Y-89764295D01*
X142847618Y-89764295D02*
X142771427Y-89802390D01*
X142771427Y-89802390D02*
X142733332Y-89840485D01*
X142733332Y-89840485D02*
X142695237Y-89916676D01*
X142695237Y-89916676D02*
X142657142Y-90069057D01*
X142657142Y-90069057D02*
X142657142Y-90259533D01*
X142657142Y-90259533D02*
X142695237Y-90411914D01*
X142695237Y-90411914D02*
X142733332Y-90488104D01*
X142733332Y-90488104D02*
X142771427Y-90526200D01*
X142771427Y-90526200D02*
X142847618Y-90564295D01*
X142847618Y-90564295D02*
X142923808Y-90564295D01*
X142923808Y-90564295D02*
X142999999Y-90526200D01*
X142999999Y-90526200D02*
X143038094Y-90488104D01*
X143038094Y-90488104D02*
X143076189Y-90411914D01*
X143076189Y-90411914D02*
X143114285Y-90259533D01*
X143114285Y-90259533D02*
X143114285Y-90069057D01*
X143114285Y-90069057D02*
X143076189Y-89916676D01*
X143076189Y-89916676D02*
X143038094Y-89840485D01*
X143038094Y-89840485D02*
X142999999Y-89802390D01*
X142999999Y-89802390D02*
X142923808Y-89764295D01*
X153809523Y-108602390D02*
X153885713Y-108564295D01*
X153885713Y-108564295D02*
X153999999Y-108564295D01*
X153999999Y-108564295D02*
X154114285Y-108602390D01*
X154114285Y-108602390D02*
X154190475Y-108678580D01*
X154190475Y-108678580D02*
X154228570Y-108754771D01*
X154228570Y-108754771D02*
X154266666Y-108907152D01*
X154266666Y-108907152D02*
X154266666Y-109021438D01*
X154266666Y-109021438D02*
X154228570Y-109173819D01*
X154228570Y-109173819D02*
X154190475Y-109250009D01*
X154190475Y-109250009D02*
X154114285Y-109326200D01*
X154114285Y-109326200D02*
X153999999Y-109364295D01*
X153999999Y-109364295D02*
X153923808Y-109364295D01*
X153923808Y-109364295D02*
X153809523Y-109326200D01*
X153809523Y-109326200D02*
X153771427Y-109288104D01*
X153771427Y-109288104D02*
X153771427Y-109021438D01*
X153771427Y-109021438D02*
X153923808Y-109021438D01*
X153428570Y-109364295D02*
X153428570Y-108564295D01*
X153428570Y-108564295D02*
X152971427Y-109364295D01*
X152971427Y-109364295D02*
X152971427Y-108564295D01*
X152590475Y-109364295D02*
X152590475Y-108564295D01*
X152590475Y-108564295D02*
X152399999Y-108564295D01*
X152399999Y-108564295D02*
X152285713Y-108602390D01*
X152285713Y-108602390D02*
X152209523Y-108678580D01*
X152209523Y-108678580D02*
X152171428Y-108754771D01*
X152171428Y-108754771D02*
X152133332Y-108907152D01*
X152133332Y-108907152D02*
X152133332Y-109021438D01*
X152133332Y-109021438D02*
X152171428Y-109173819D01*
X152171428Y-109173819D02*
X152209523Y-109250009D01*
X152209523Y-109250009D02*
X152285713Y-109326200D01*
X152285713Y-109326200D02*
X152399999Y-109364295D01*
X152399999Y-109364295D02*
X152590475Y-109364295D01*
X153809523Y-90202390D02*
X153885713Y-90164295D01*
X153885713Y-90164295D02*
X153999999Y-90164295D01*
X153999999Y-90164295D02*
X154114285Y-90202390D01*
X154114285Y-90202390D02*
X154190475Y-90278580D01*
X154190475Y-90278580D02*
X154228570Y-90354771D01*
X154228570Y-90354771D02*
X154266666Y-90507152D01*
X154266666Y-90507152D02*
X154266666Y-90621438D01*
X154266666Y-90621438D02*
X154228570Y-90773819D01*
X154228570Y-90773819D02*
X154190475Y-90850009D01*
X154190475Y-90850009D02*
X154114285Y-90926200D01*
X154114285Y-90926200D02*
X153999999Y-90964295D01*
X153999999Y-90964295D02*
X153923808Y-90964295D01*
X153923808Y-90964295D02*
X153809523Y-90926200D01*
X153809523Y-90926200D02*
X153771427Y-90888104D01*
X153771427Y-90888104D02*
X153771427Y-90621438D01*
X153771427Y-90621438D02*
X153923808Y-90621438D01*
X153428570Y-90964295D02*
X153428570Y-90164295D01*
X153428570Y-90164295D02*
X152971427Y-90964295D01*
X152971427Y-90964295D02*
X152971427Y-90164295D01*
X152590475Y-90964295D02*
X152590475Y-90164295D01*
X152590475Y-90164295D02*
X152399999Y-90164295D01*
X152399999Y-90164295D02*
X152285713Y-90202390D01*
X152285713Y-90202390D02*
X152209523Y-90278580D01*
X152209523Y-90278580D02*
X152171428Y-90354771D01*
X152171428Y-90354771D02*
X152133332Y-90507152D01*
X152133332Y-90507152D02*
X152133332Y-90621438D01*
X152133332Y-90621438D02*
X152171428Y-90773819D01*
X152171428Y-90773819D02*
X152209523Y-90850009D01*
X152209523Y-90850009D02*
X152285713Y-90926200D01*
X152285713Y-90926200D02*
X152399999Y-90964295D01*
X152399999Y-90964295D02*
X152590475Y-90964295D01*
X144809523Y-65202390D02*
X144885713Y-65164295D01*
X144885713Y-65164295D02*
X144999999Y-65164295D01*
X144999999Y-65164295D02*
X145114285Y-65202390D01*
X145114285Y-65202390D02*
X145190475Y-65278580D01*
X145190475Y-65278580D02*
X145228570Y-65354771D01*
X145228570Y-65354771D02*
X145266666Y-65507152D01*
X145266666Y-65507152D02*
X145266666Y-65621438D01*
X145266666Y-65621438D02*
X145228570Y-65773819D01*
X145228570Y-65773819D02*
X145190475Y-65850009D01*
X145190475Y-65850009D02*
X145114285Y-65926200D01*
X145114285Y-65926200D02*
X144999999Y-65964295D01*
X144999999Y-65964295D02*
X144923808Y-65964295D01*
X144923808Y-65964295D02*
X144809523Y-65926200D01*
X144809523Y-65926200D02*
X144771427Y-65888104D01*
X144771427Y-65888104D02*
X144771427Y-65621438D01*
X144771427Y-65621438D02*
X144923808Y-65621438D01*
X144428570Y-65964295D02*
X144428570Y-65164295D01*
X144428570Y-65164295D02*
X143971427Y-65964295D01*
X143971427Y-65964295D02*
X143971427Y-65164295D01*
X143590475Y-65964295D02*
X143590475Y-65164295D01*
X143590475Y-65164295D02*
X143399999Y-65164295D01*
X143399999Y-65164295D02*
X143285713Y-65202390D01*
X143285713Y-65202390D02*
X143209523Y-65278580D01*
X143209523Y-65278580D02*
X143171428Y-65354771D01*
X143171428Y-65354771D02*
X143133332Y-65507152D01*
X143133332Y-65507152D02*
X143133332Y-65621438D01*
X143133332Y-65621438D02*
X143171428Y-65773819D01*
X143171428Y-65773819D02*
X143209523Y-65850009D01*
X143209523Y-65850009D02*
X143285713Y-65926200D01*
X143285713Y-65926200D02*
X143399999Y-65964295D01*
X143399999Y-65964295D02*
X143590475Y-65964295D01*
X153809523Y-96402390D02*
X153885713Y-96364295D01*
X153885713Y-96364295D02*
X153999999Y-96364295D01*
X153999999Y-96364295D02*
X154114285Y-96402390D01*
X154114285Y-96402390D02*
X154190475Y-96478580D01*
X154190475Y-96478580D02*
X154228570Y-96554771D01*
X154228570Y-96554771D02*
X154266666Y-96707152D01*
X154266666Y-96707152D02*
X154266666Y-96821438D01*
X154266666Y-96821438D02*
X154228570Y-96973819D01*
X154228570Y-96973819D02*
X154190475Y-97050009D01*
X154190475Y-97050009D02*
X154114285Y-97126200D01*
X154114285Y-97126200D02*
X153999999Y-97164295D01*
X153999999Y-97164295D02*
X153923808Y-97164295D01*
X153923808Y-97164295D02*
X153809523Y-97126200D01*
X153809523Y-97126200D02*
X153771427Y-97088104D01*
X153771427Y-97088104D02*
X153771427Y-96821438D01*
X153771427Y-96821438D02*
X153923808Y-96821438D01*
X153428570Y-97164295D02*
X153428570Y-96364295D01*
X153428570Y-96364295D02*
X152971427Y-97164295D01*
X152971427Y-97164295D02*
X152971427Y-96364295D01*
X152590475Y-97164295D02*
X152590475Y-96364295D01*
X152590475Y-96364295D02*
X152399999Y-96364295D01*
X152399999Y-96364295D02*
X152285713Y-96402390D01*
X152285713Y-96402390D02*
X152209523Y-96478580D01*
X152209523Y-96478580D02*
X152171428Y-96554771D01*
X152171428Y-96554771D02*
X152133332Y-96707152D01*
X152133332Y-96707152D02*
X152133332Y-96821438D01*
X152133332Y-96821438D02*
X152171428Y-96973819D01*
X152171428Y-96973819D02*
X152209523Y-97050009D01*
X152209523Y-97050009D02*
X152285713Y-97126200D01*
X152285713Y-97126200D02*
X152399999Y-97164295D01*
X152399999Y-97164295D02*
X152590475Y-97164295D01*
X145171428Y-77926200D02*
X145057142Y-77964295D01*
X145057142Y-77964295D02*
X144866666Y-77964295D01*
X144866666Y-77964295D02*
X144790475Y-77926200D01*
X144790475Y-77926200D02*
X144752380Y-77888104D01*
X144752380Y-77888104D02*
X144714285Y-77811914D01*
X144714285Y-77811914D02*
X144714285Y-77735723D01*
X144714285Y-77735723D02*
X144752380Y-77659533D01*
X144752380Y-77659533D02*
X144790475Y-77621438D01*
X144790475Y-77621438D02*
X144866666Y-77583342D01*
X144866666Y-77583342D02*
X145019047Y-77545247D01*
X145019047Y-77545247D02*
X145095237Y-77507152D01*
X145095237Y-77507152D02*
X145133332Y-77469057D01*
X145133332Y-77469057D02*
X145171428Y-77392866D01*
X145171428Y-77392866D02*
X145171428Y-77316676D01*
X145171428Y-77316676D02*
X145133332Y-77240485D01*
X145133332Y-77240485D02*
X145095237Y-77202390D01*
X145095237Y-77202390D02*
X145019047Y-77164295D01*
X145019047Y-77164295D02*
X144828570Y-77164295D01*
X144828570Y-77164295D02*
X144714285Y-77202390D01*
X144371427Y-77964295D02*
X144371427Y-77164295D01*
X144371427Y-77164295D02*
X144180951Y-77164295D01*
X144180951Y-77164295D02*
X144066665Y-77202390D01*
X144066665Y-77202390D02*
X143990475Y-77278580D01*
X143990475Y-77278580D02*
X143952380Y-77354771D01*
X143952380Y-77354771D02*
X143914284Y-77507152D01*
X143914284Y-77507152D02*
X143914284Y-77621438D01*
X143914284Y-77621438D02*
X143952380Y-77773819D01*
X143952380Y-77773819D02*
X143990475Y-77850009D01*
X143990475Y-77850009D02*
X144066665Y-77926200D01*
X144066665Y-77926200D02*
X144180951Y-77964295D01*
X144180951Y-77964295D02*
X144371427Y-77964295D01*
X143609523Y-77735723D02*
X143228570Y-77735723D01*
X143685713Y-77964295D02*
X143419046Y-77164295D01*
X143419046Y-77164295D02*
X143152380Y-77964295D01*
X144933332Y-102964295D02*
X145199999Y-102583342D01*
X145390475Y-102964295D02*
X145390475Y-102164295D01*
X145390475Y-102164295D02*
X145085713Y-102164295D01*
X145085713Y-102164295D02*
X145009523Y-102202390D01*
X145009523Y-102202390D02*
X144971428Y-102240485D01*
X144971428Y-102240485D02*
X144933332Y-102316676D01*
X144933332Y-102316676D02*
X144933332Y-102430961D01*
X144933332Y-102430961D02*
X144971428Y-102507152D01*
X144971428Y-102507152D02*
X145009523Y-102545247D01*
X145009523Y-102545247D02*
X145085713Y-102583342D01*
X145085713Y-102583342D02*
X145390475Y-102583342D01*
X144171428Y-102202390D02*
X144247618Y-102164295D01*
X144247618Y-102164295D02*
X144361904Y-102164295D01*
X144361904Y-102164295D02*
X144476190Y-102202390D01*
X144476190Y-102202390D02*
X144552380Y-102278580D01*
X144552380Y-102278580D02*
X144590475Y-102354771D01*
X144590475Y-102354771D02*
X144628571Y-102507152D01*
X144628571Y-102507152D02*
X144628571Y-102621438D01*
X144628571Y-102621438D02*
X144590475Y-102773819D01*
X144590475Y-102773819D02*
X144552380Y-102850009D01*
X144552380Y-102850009D02*
X144476190Y-102926200D01*
X144476190Y-102926200D02*
X144361904Y-102964295D01*
X144361904Y-102964295D02*
X144285713Y-102964295D01*
X144285713Y-102964295D02*
X144171428Y-102926200D01*
X144171428Y-102926200D02*
X144133332Y-102888104D01*
X144133332Y-102888104D02*
X144133332Y-102621438D01*
X144133332Y-102621438D02*
X144285713Y-102621438D01*
X143523809Y-102545247D02*
X143409523Y-102583342D01*
X143409523Y-102583342D02*
X143371428Y-102621438D01*
X143371428Y-102621438D02*
X143333332Y-102697628D01*
X143333332Y-102697628D02*
X143333332Y-102811914D01*
X143333332Y-102811914D02*
X143371428Y-102888104D01*
X143371428Y-102888104D02*
X143409523Y-102926200D01*
X143409523Y-102926200D02*
X143485713Y-102964295D01*
X143485713Y-102964295D02*
X143790475Y-102964295D01*
X143790475Y-102964295D02*
X143790475Y-102164295D01*
X143790475Y-102164295D02*
X143523809Y-102164295D01*
X143523809Y-102164295D02*
X143447618Y-102202390D01*
X143447618Y-102202390D02*
X143409523Y-102240485D01*
X143409523Y-102240485D02*
X143371428Y-102316676D01*
X143371428Y-102316676D02*
X143371428Y-102392866D01*
X143371428Y-102392866D02*
X143409523Y-102469057D01*
X143409523Y-102469057D02*
X143447618Y-102507152D01*
X143447618Y-102507152D02*
X143523809Y-102545247D01*
X143523809Y-102545247D02*
X143790475Y-102545247D01*
X143028571Y-102240485D02*
X142990475Y-102202390D01*
X142990475Y-102202390D02*
X142914285Y-102164295D01*
X142914285Y-102164295D02*
X142723809Y-102164295D01*
X142723809Y-102164295D02*
X142647618Y-102202390D01*
X142647618Y-102202390D02*
X142609523Y-102240485D01*
X142609523Y-102240485D02*
X142571428Y-102316676D01*
X142571428Y-102316676D02*
X142571428Y-102392866D01*
X142571428Y-102392866D02*
X142609523Y-102507152D01*
X142609523Y-102507152D02*
X143066666Y-102964295D01*
X143066666Y-102964295D02*
X142571428Y-102964295D01*
%TO.C,GND*%
X154400000Y-105000000D02*
G75*
G02*
X152000000Y-105000000I-1200000J0D01*
G01*
X152000000Y-105000000D02*
G75*
G02*
X154400000Y-105000000I1200000J0D01*
G01*
X154400000Y-80000000D02*
G75*
G02*
X152000000Y-80000000I-1200000J0D01*
G01*
X152000000Y-80000000D02*
G75*
G02*
X154400000Y-80000000I1200000J0D01*
G01*
X154400000Y-85800000D02*
G75*
G02*
X152000000Y-85800000I-1200000J0D01*
G01*
X152000000Y-85800000D02*
G75*
G02*
X154400000Y-85800000I1200000J0D01*
G01*
%TO.C,LPN*%
X145400000Y-73000000D02*
G75*
G02*
X143000000Y-73000000I-1200000J0D01*
G01*
X143000000Y-73000000D02*
G75*
G02*
X145400000Y-73000000I1200000J0D01*
G01*
%TO.C,RGB3*%
X145000000Y-110800000D02*
G75*
G02*
X142600000Y-110800000I-1200000J0D01*
G01*
X142600000Y-110800000D02*
G75*
G02*
X145000000Y-110800000I1200000J0D01*
G01*
%TO.C,SCL*%
X145600000Y-85400000D02*
G75*
G02*
X143200000Y-85400000I-1200000J0D01*
G01*
X143200000Y-85400000D02*
G75*
G02*
X145600000Y-85400000I1200000J0D01*
G01*
%TO.C,RGB1*%
X145200000Y-98800000D02*
G75*
G02*
X142800000Y-98800000I-1200000J0D01*
G01*
X142800000Y-98800000D02*
G75*
G02*
X145200000Y-98800000I1200000J0D01*
G01*
%TO.C,PWM0*%
X145400000Y-92200000D02*
G75*
G02*
X143000000Y-92200000I-1200000J0D01*
G01*
X143000000Y-92200000D02*
G75*
G02*
X145400000Y-92200000I1200000J0D01*
G01*
%TO.C,GND*%
X154400000Y-111000000D02*
G75*
G02*
X152000000Y-111000000I-1200000J0D01*
G01*
X152000000Y-111000000D02*
G75*
G02*
X154400000Y-111000000I1200000J0D01*
G01*
X154400000Y-92600000D02*
G75*
G02*
X152000000Y-92600000I-1200000J0D01*
G01*
X152000000Y-92600000D02*
G75*
G02*
X154400000Y-92600000I1200000J0D01*
G01*
X145400000Y-67600000D02*
G75*
G02*
X143000000Y-67600000I-1200000J0D01*
G01*
X143000000Y-67600000D02*
G75*
G02*
X145400000Y-67600000I1200000J0D01*
G01*
X154400000Y-98800000D02*
G75*
G02*
X152000000Y-98800000I-1200000J0D01*
G01*
X152000000Y-98800000D02*
G75*
G02*
X154400000Y-98800000I1200000J0D01*
G01*
%TO.C,SDA*%
X145400000Y-79600000D02*
G75*
G02*
X143000000Y-79600000I-1200000J0D01*
G01*
X143000000Y-79600000D02*
G75*
G02*
X145400000Y-79600000I1200000J0D01*
G01*
%TO.C,RGB2*%
X145200000Y-104600000D02*
G75*
G02*
X142800000Y-104600000I-1200000J0D01*
G01*
X142800000Y-104600000D02*
G75*
G02*
X145200000Y-104600000I1200000J0D01*
G01*
%TD*%
M02*
