%TF.GenerationSoftware,KiCad,Pcbnew,8.0.6-8.0.6-0~ubuntu24.04.1*%
%TF.CreationDate,2024-11-24T15:52:50-06:00*%
%TF.ProjectId,edge_human_detection_board,65646765-5f68-4756-9d61-6e5f64657465,rev?*%
%TF.SameCoordinates,Original*%
%TF.FileFunction,Copper,L4,Bot*%
%TF.FilePolarity,Positive*%
%FSLAX46Y46*%
G04 Gerber Fmt 4.6, Leading zero omitted, Abs format (unit mm)*
G04 Created by KiCad (PCBNEW 8.0.6-8.0.6-0~ubuntu24.04.1) date 2024-11-24 15:52:50*
%MOMM*%
%LPD*%
G01*
G04 APERTURE LIST*
%TA.AperFunction,SMDPad,CuDef*%
%ADD10C,2.000000*%
%TD*%
%TA.AperFunction,ComponentPad*%
%ADD11C,5.500000*%
%TD*%
%TA.AperFunction,ComponentPad*%
%ADD12R,1.524000X1.524000*%
%TD*%
%TA.AperFunction,ComponentPad*%
%ADD13C,1.524000*%
%TD*%
%TA.AperFunction,ComponentPad*%
%ADD14R,1.700000X1.700000*%
%TD*%
%TA.AperFunction,ComponentPad*%
%ADD15O,1.700000X1.700000*%
%TD*%
%TA.AperFunction,ViaPad*%
%ADD16C,0.533400*%
%TD*%
%TA.AperFunction,Conductor*%
%ADD17C,0.152400*%
%TD*%
%TA.AperFunction,Conductor*%
%ADD18C,0.508000*%
%TD*%
G04 APERTURE END LIST*
D10*
%TO.P,TP14(GND),1,1*%
%TO.N,GND*%
X147500000Y-86500000D03*
%TD*%
%TO.P,TP13(PWM_1),1,1*%
%TO.N,/TOF Sensor/PWM_1*%
X142000000Y-65000000D03*
%TD*%
%TO.P,TP12(GND),1,1*%
%TO.N,GND*%
X142000000Y-60000000D03*
%TD*%
%TO.P,TP11(SDA),1,1*%
%TO.N,/TOF Sensor/SDA*%
X147500000Y-82000000D03*
%TD*%
%TO.P,TP10(GND),1,1*%
%TO.N,GND*%
X154000000Y-66500000D03*
%TD*%
%TO.P,TP9(SCL),1,1*%
%TO.N,/TOF Sensor/SCL*%
X154000000Y-71500000D03*
%TD*%
%TO.P,TP8(GND),1,1*%
%TO.N,GND*%
X130500000Y-111000000D03*
%TD*%
%TO.P,TP7(SIG_RGB3),1,1*%
%TO.N,/RGB Signalling/SIG_IN_RGB3*%
X130500000Y-107000000D03*
%TD*%
%TO.P,TP6(GND),1,1*%
%TO.N,GND*%
X130000000Y-101500000D03*
%TD*%
%TO.P,TP5(SIG_RGB2),1,1*%
%TO.N,/RGB Signalling/SIG_IN_RGB2*%
X130000000Y-97500000D03*
%TD*%
%TO.P,TP4(GND),1,1*%
%TO.N,GND*%
X124500000Y-92500000D03*
%TD*%
%TO.P,TP3(SIG_RGB1),1,1*%
%TO.N,/RGB Signalling/SIG_IN_RGB1*%
X124500000Y-88500000D03*
%TD*%
%TO.P,TP2(GND),1,1*%
%TO.N,GND*%
X120500000Y-73000000D03*
%TD*%
%TO.P,TP1(PWM_0),1,1*%
%TO.N,/RGB Signalling/SIG_IN_PWM0*%
X126500000Y-73000000D03*
%TD*%
D11*
%TO.P,U1,*%
%TO.N,*%
X159513240Y-53551320D03*
X136513240Y-53551320D03*
X159513240Y-111551320D03*
X136513240Y-111551320D03*
D12*
%TO.P,U1,1,GND*%
%TO.N,GND*%
X162000000Y-58060000D03*
D13*
%TO.P,U1,2,1.8V*%
%TO.N,Net-(R4-Pad1)*%
X162000000Y-60600000D03*
%TO.P,U1,3,3.3V*%
%TO.N,Net-(U1-3.3V)*%
X162000000Y-63140000D03*
%TO.P,U1,4,RTC_3V*%
%TO.N,unconnected-(U1-RTC_3V-Pad4)*%
X162000000Y-65680000D03*
%TO.P,U1,5,SPI6_CS0*%
%TO.N,unconnected-(U1-SPI6_CS0-Pad5)*%
X162000000Y-68220000D03*
%TO.P,U1,6,SPI6_SCK*%
%TO.N,unconnected-(U1-SPI6_SCK-Pad6)*%
X162000000Y-70760000D03*
%TO.P,U1,7,SPI6_SDO*%
%TO.N,unconnected-(U1-SPI6_SDO-Pad7)*%
X162000000Y-73300000D03*
%TO.P,U1,8,SPI6_SDI*%
%TO.N,unconnected-(U1-SPI6_SDI-Pad8)*%
X162000000Y-75840000D03*
%TO.P,U1,9,DAC_OUT*%
%TO.N,unconnected-(U1-DAC_OUT-Pad9)*%
X162000000Y-78380000D03*
%TO.P,U1,10,I2C6_SDA*%
%TO.N,unconnected-(U1-I2C6_SDA-Pad10)*%
X162000000Y-80920000D03*
%TO.P,U1,11,I2C1_SCL*%
%TO.N,/TOF Sensor/SCL*%
X162000000Y-83460000D03*
%TO.P,U1,12,I2C1_SDA*%
%TO.N,/TOF Sensor/SDA*%
X162000000Y-86000000D03*
D12*
%TO.P,U1,13,GND*%
%TO.N,GND*%
X134060000Y-58060000D03*
D13*
%TO.P,U1,14,1.8V*%
%TO.N,Net-(R3-Pad2)*%
X134060000Y-60600000D03*
%TO.P,U1,15,ADC1_CH0A*%
%TO.N,unconnected-(U1-ADC1_CH0A-Pad15)*%
X134060000Y-63140000D03*
%TO.P,U1,16,ADC1_CH0B*%
%TO.N,unconnected-(U1-ADC1_CH0B-Pad16)*%
X134060000Y-65680000D03*
%TO.P,U1,17,UART6_TX*%
%TO.N,/Coral Micro Breakouts/DEBUG_TX*%
X134060000Y-68220000D03*
%TO.P,U1,18,UART6_RX*%
%TO.N,/Coral Micro Breakouts/DEBUG_RX*%
X134060000Y-70760000D03*
%TO.P,U1,19,UART6_CTX*%
%TO.N,unconnected-(U1-UART6_CTX-Pad19)*%
X134060000Y-73300000D03*
%TO.P,U1,20,UART6_RTS*%
%TO.N,unconnected-(U1-UART6_RTS-Pad20)*%
X134060000Y-75840000D03*
%TO.P,U1,21,PWM_B*%
%TO.N,/TOF Sensor/PWM_1*%
X134060000Y-78380000D03*
%TO.P,U1,22,PWM_A*%
%TO.N,/RGB Signalling/SIG_IN_PWM0*%
X134060000Y-80920000D03*
%TO.P,U1,23,I2C6_SCL*%
%TO.N,unconnected-(U1-I2C6_SCL-Pad23)*%
X134060000Y-83460000D03*
%TO.P,U1,24,VSYS*%
%TO.N,Net-(U1-VSYS)*%
X134060000Y-86000000D03*
%TD*%
D14*
%TO.P,J1,1,Pin_1*%
%TO.N,GND*%
X122000000Y-54000000D03*
D15*
%TO.P,J1,2,Pin_2*%
%TO.N,/Coral Micro Breakouts/DEBUG_TX*%
X122000000Y-56540000D03*
%TO.P,J1,3,Pin_3*%
%TO.N,/Coral Micro Breakouts/DEBUG_RX*%
X122000000Y-59080000D03*
%TD*%
D16*
%TO.N,/RGB Signalling/SIG_IN_RGB3*%
X129000000Y-105500000D03*
%TO.N,GND*%
X156500000Y-74000000D03*
X145500000Y-80000000D03*
%TO.N,/TOF Sensor/SDA*%
X146500000Y-79500000D03*
%TO.N,/TOF Sensor/SCL*%
X155500000Y-74000000D03*
%TO.N,GND*%
X141500000Y-68500000D03*
%TO.N,/TOF Sensor/PWM_1*%
X142500000Y-68000000D03*
%TO.N,GND*%
X120500000Y-96500000D03*
%TO.N,/RGB Signalling/SIG_IN_RGB2*%
X127500000Y-96500000D03*
%TO.N,GND*%
X165000000Y-54500000D03*
%TO.N,/Coral Micro Breakouts/+1.8VDC_TOF*%
X166500000Y-55000000D03*
%TO.N,/Coral Micro Breakouts/+1.8VDC_RGB*%
X128500000Y-53500000D03*
%TO.N,GND*%
X135000000Y-43000000D03*
X169500000Y-74500000D03*
X169500000Y-87500000D03*
X169000000Y-99000000D03*
X168500000Y-110000000D03*
X159500000Y-99000000D03*
X136500000Y-99000000D03*
X159500000Y-104000000D03*
X136500000Y-103500000D03*
X160500000Y-43000000D03*
X121000000Y-43000000D03*
X138500000Y-80000000D03*
X128000000Y-76000000D03*
X121000000Y-75000000D03*
X118500000Y-75000000D03*
X140500000Y-34500000D03*
X153000000Y-34500000D03*
X157000000Y-34500000D03*
X129500000Y-103500000D03*
X150000000Y-34500000D03*
X129000000Y-112000000D03*
X125000000Y-85000000D03*
X129500000Y-95500000D03*
X131000000Y-90500000D03*
X125500000Y-50000000D03*
%TO.N,/Coral Micro Breakouts/+1.8VDC_RGB*%
X117000000Y-75000000D03*
%TO.N,/RGB Signalling/SIG_IN_PWM0*%
X121500000Y-76000000D03*
X137500000Y-80000000D03*
%TO.N,/Coral Micro Breakouts/+1.8VDC_TOF*%
X142500000Y-34500000D03*
X154500000Y-34500000D03*
%TO.N,/RGB Signalling/SIG_IN_RGB1*%
X130000000Y-91500000D03*
X126500000Y-76000000D03*
%TD*%
D17*
%TO.N,/RGB Signalling/SIG_IN_PWM0*%
X126000000Y-73500000D02*
X126000000Y-74801800D01*
X126500000Y-73000000D02*
X126000000Y-73500000D01*
%TO.N,/RGB Signalling/SIG_IN_RGB3*%
X129000000Y-105500000D02*
X130500000Y-107000000D01*
%TO.N,/RGB Signalling/SIG_IN_RGB2*%
X129500000Y-97000000D02*
X130000000Y-97500000D01*
X127500000Y-96500000D02*
X128000000Y-97000000D01*
X128000000Y-97000000D02*
X129500000Y-97000000D01*
%TO.N,/TOF Sensor/SDA*%
X146500000Y-81000000D02*
X146500000Y-79500000D01*
X147500000Y-82000000D02*
X146500000Y-81000000D01*
%TO.N,/TOF Sensor/SCL*%
X155500000Y-73000000D02*
X155500000Y-74000000D01*
X154000000Y-71500000D02*
X155500000Y-73000000D01*
%TO.N,/TOF Sensor/PWM_1*%
X142000000Y-67500000D02*
X142500000Y-68000000D01*
X142000000Y-65000000D02*
X142000000Y-67500000D01*
%TO.N,/RGB Signalling/SIG_IN_RGB1*%
X124500000Y-88500000D02*
X126000000Y-88500000D01*
X126000000Y-88500000D02*
X126500000Y-88000000D01*
%TO.N,/RGB Signalling/SIG_IN_PWM0*%
X122698200Y-74801800D02*
X126000000Y-74801800D01*
X126000000Y-74801800D02*
X134490037Y-74801800D01*
D18*
%TO.N,/Coral Micro Breakouts/+1.8VDC_TOF*%
X148500000Y-41000000D02*
X148500000Y-46500000D01*
X148500000Y-46500000D02*
X163500000Y-46500000D01*
X163500000Y-46500000D02*
X166500000Y-49500000D01*
X166500000Y-49500000D02*
X166500000Y-55000000D01*
%TO.N,/Coral Micro Breakouts/+1.8VDC_RGB*%
X117000000Y-75000000D02*
X117000000Y-54000000D01*
X117000000Y-54000000D02*
X123000000Y-48000000D01*
X123000000Y-48000000D02*
X125500000Y-48000000D01*
X125500000Y-48000000D02*
X128500000Y-51000000D01*
X128500000Y-51000000D02*
X128500000Y-53500000D01*
D17*
%TO.N,/RGB Signalling/SIG_IN_PWM0*%
X134490037Y-74801800D02*
X137500000Y-77811763D01*
X137500000Y-77811763D02*
X137500000Y-80000000D01*
X121500000Y-76000000D02*
X122698200Y-74801800D01*
%TO.N,/Coral Micro Breakouts/DEBUG_TX*%
X125540000Y-56540000D02*
X122000000Y-56540000D01*
X127000000Y-61160000D02*
X127000000Y-58000000D01*
X127000000Y-58000000D02*
X125540000Y-56540000D01*
X134060000Y-68220000D02*
X127000000Y-61160000D01*
D18*
%TO.N,/Coral Micro Breakouts/+1.8VDC_TOF*%
X148500000Y-41000000D02*
X153000000Y-41000000D01*
X142500000Y-34500000D02*
X142500000Y-40500000D01*
X142500000Y-40500000D02*
X143000000Y-41000000D01*
X153000000Y-41000000D02*
X154500000Y-39500000D01*
X143000000Y-41000000D02*
X148500000Y-41000000D01*
X154500000Y-39500000D02*
X154500000Y-34500000D01*
D17*
%TO.N,/RGB Signalling/SIG_IN_RGB1*%
X130000000Y-91500000D02*
X126500000Y-88000000D01*
X126500000Y-88000000D02*
X126500000Y-76000000D01*
%TD*%
%TA.AperFunction,Conductor*%
%TO.N,GND*%
G36*
X142382080Y-33519685D02*
G01*
X142427835Y-33572489D01*
X142437779Y-33641647D01*
X142408754Y-33705203D01*
X142349976Y-33742977D01*
X142328924Y-33747220D01*
X142328204Y-33747301D01*
X142165016Y-33804402D01*
X142018632Y-33896382D01*
X141896382Y-34018632D01*
X141804402Y-34165016D01*
X141747301Y-34328204D01*
X141727945Y-34499996D01*
X141727945Y-34500003D01*
X141747301Y-34671795D01*
X141804402Y-34834983D01*
X141896382Y-34981367D01*
X142018631Y-35103616D01*
X142018634Y-35103618D01*
X142060471Y-35129906D01*
X142106763Y-35182240D01*
X142118500Y-35234900D01*
X142118500Y-40550225D01*
X142142368Y-40639301D01*
X142144500Y-40647258D01*
X142144501Y-40647259D01*
X142171904Y-40694721D01*
X142171904Y-40694724D01*
X142171906Y-40694724D01*
X142194724Y-40734247D01*
X142765753Y-41305276D01*
X142852747Y-41355502D01*
X142949775Y-41381501D01*
X142949778Y-41381501D01*
X143057821Y-41381501D01*
X143057837Y-41381500D01*
X147994500Y-41381500D01*
X148061539Y-41401185D01*
X148107294Y-41453989D01*
X148118500Y-41505500D01*
X148118500Y-46449775D01*
X148118500Y-46550225D01*
X148144499Y-46647254D01*
X148194724Y-46734247D01*
X148265753Y-46805276D01*
X148352746Y-46855501D01*
X148449775Y-46881500D01*
X163290615Y-46881500D01*
X163357654Y-46901185D01*
X163378296Y-46917819D01*
X166082181Y-49621704D01*
X166115666Y-49683027D01*
X166118500Y-49709385D01*
X166118500Y-54265098D01*
X166098815Y-54332137D01*
X166060473Y-54370091D01*
X166018635Y-54396379D01*
X165896382Y-54518632D01*
X165804402Y-54665016D01*
X165747301Y-54828204D01*
X165727945Y-54999996D01*
X165727945Y-55000003D01*
X165747301Y-55171795D01*
X165804402Y-55334983D01*
X165896382Y-55481367D01*
X166018632Y-55603617D01*
X166122049Y-55668599D01*
X166165018Y-55695598D01*
X166328202Y-55752698D01*
X166385468Y-55759150D01*
X166499996Y-55772055D01*
X166500000Y-55772055D01*
X166500004Y-55772055D01*
X166598170Y-55760993D01*
X166671798Y-55752698D01*
X166834982Y-55695598D01*
X166981368Y-55603617D01*
X167103617Y-55481368D01*
X167195598Y-55334982D01*
X167252698Y-55171798D01*
X167272055Y-55000000D01*
X167262835Y-54918174D01*
X167252698Y-54828204D01*
X167252698Y-54828202D01*
X167195598Y-54665018D01*
X167148919Y-54590730D01*
X167103617Y-54518632D01*
X166981364Y-54396379D01*
X166939527Y-54370091D01*
X166893236Y-54317756D01*
X166881500Y-54265098D01*
X166881500Y-49560227D01*
X166881501Y-49560214D01*
X166881501Y-49449777D01*
X166881501Y-49449775D01*
X166855502Y-49352747D01*
X166805276Y-49265753D01*
X163734247Y-46194724D01*
X163647254Y-46144499D01*
X163647255Y-46144499D01*
X163622996Y-46137999D01*
X163550225Y-46118500D01*
X163550222Y-46118500D01*
X149005500Y-46118500D01*
X148938461Y-46098815D01*
X148892706Y-46046011D01*
X148881500Y-45994500D01*
X148881500Y-41505500D01*
X148901185Y-41438461D01*
X148953989Y-41392706D01*
X149005500Y-41381500D01*
X153050222Y-41381500D01*
X153050225Y-41381500D01*
X153147254Y-41355501D01*
X153234247Y-41305276D01*
X153305276Y-41234247D01*
X153305276Y-41234246D01*
X154724037Y-39815483D01*
X154724042Y-39815480D01*
X154734245Y-39805276D01*
X154734247Y-39805276D01*
X154805276Y-39734247D01*
X154855501Y-39647254D01*
X154881500Y-39550225D01*
X154881500Y-36881995D01*
X166199500Y-36881995D01*
X166199500Y-37118004D01*
X166199501Y-37118020D01*
X166230306Y-37352010D01*
X166291394Y-37579993D01*
X166381714Y-37798045D01*
X166381719Y-37798056D01*
X166452677Y-37920957D01*
X166499727Y-38002450D01*
X166499729Y-38002453D01*
X166499730Y-38002454D01*
X166643406Y-38189697D01*
X166643412Y-38189704D01*
X166810295Y-38356587D01*
X166810301Y-38356592D01*
X166997550Y-38500273D01*
X167128918Y-38576118D01*
X167201943Y-38618280D01*
X167201948Y-38618282D01*
X167201951Y-38618284D01*
X167420007Y-38708606D01*
X167647986Y-38769693D01*
X167881989Y-38800500D01*
X167881996Y-38800500D01*
X168118004Y-38800500D01*
X168118011Y-38800500D01*
X168352014Y-38769693D01*
X168579993Y-38708606D01*
X168798049Y-38618284D01*
X169002450Y-38500273D01*
X169189699Y-38356592D01*
X169356592Y-38189699D01*
X169500273Y-38002450D01*
X169618284Y-37798049D01*
X169708606Y-37579993D01*
X169769693Y-37352014D01*
X169800500Y-37118011D01*
X169800500Y-36881989D01*
X169769693Y-36647986D01*
X169708606Y-36420007D01*
X169618284Y-36201951D01*
X169618282Y-36201948D01*
X169618280Y-36201943D01*
X169576118Y-36128918D01*
X169500273Y-35997550D01*
X169356592Y-35810301D01*
X169356587Y-35810295D01*
X169189704Y-35643412D01*
X169189697Y-35643406D01*
X169002454Y-35499730D01*
X169002453Y-35499729D01*
X169002450Y-35499727D01*
X168920957Y-35452677D01*
X168798056Y-35381719D01*
X168798045Y-35381714D01*
X168579993Y-35291394D01*
X168352010Y-35230306D01*
X168118020Y-35199501D01*
X168118017Y-35199500D01*
X168118011Y-35199500D01*
X167881989Y-35199500D01*
X167881983Y-35199500D01*
X167881979Y-35199501D01*
X167647989Y-35230306D01*
X167420006Y-35291394D01*
X167201954Y-35381714D01*
X167201943Y-35381719D01*
X166997545Y-35499730D01*
X166810302Y-35643406D01*
X166810295Y-35643412D01*
X166643412Y-35810295D01*
X166643406Y-35810302D01*
X166499730Y-35997545D01*
X166381719Y-36201943D01*
X166381714Y-36201954D01*
X166291394Y-36420006D01*
X166230306Y-36647989D01*
X166199501Y-36881979D01*
X166199500Y-36881995D01*
X154881500Y-36881995D01*
X154881500Y-35234900D01*
X154901185Y-35167861D01*
X154939529Y-35129906D01*
X154981368Y-35103617D01*
X155103617Y-34981368D01*
X155195598Y-34834982D01*
X155252698Y-34671798D01*
X155272055Y-34500000D01*
X155252698Y-34328202D01*
X155195598Y-34165018D01*
X155103617Y-34018632D01*
X154981368Y-33896383D01*
X154981367Y-33896382D01*
X154834983Y-33804402D01*
X154671795Y-33747301D01*
X154671076Y-33747220D01*
X154670642Y-33747037D01*
X154665009Y-33745752D01*
X154665234Y-33744765D01*
X154606662Y-33720154D01*
X154567107Y-33662559D01*
X154564969Y-33592722D01*
X154600927Y-33532816D01*
X154663564Y-33501860D01*
X154684959Y-33500000D01*
X171876000Y-33500000D01*
X171943039Y-33519685D01*
X171988794Y-33572489D01*
X172000000Y-33624000D01*
X172000000Y-119876000D01*
X171980315Y-119943039D01*
X171927511Y-119988794D01*
X171876000Y-120000000D01*
X115124000Y-120000000D01*
X115056961Y-119980315D01*
X115011206Y-119927511D01*
X115000000Y-119876000D01*
X115000000Y-116381995D01*
X117199500Y-116381995D01*
X117199500Y-116618004D01*
X117199501Y-116618020D01*
X117230306Y-116852010D01*
X117291394Y-117079993D01*
X117381714Y-117298045D01*
X117381719Y-117298056D01*
X117452677Y-117420957D01*
X117499727Y-117502450D01*
X117499729Y-117502453D01*
X117499730Y-117502454D01*
X117643406Y-117689697D01*
X117643412Y-117689704D01*
X117810295Y-117856587D01*
X117810301Y-117856592D01*
X117997550Y-118000273D01*
X118128918Y-118076118D01*
X118201943Y-118118280D01*
X118201948Y-118118282D01*
X118201951Y-118118284D01*
X118420007Y-118208606D01*
X118647986Y-118269693D01*
X118881989Y-118300500D01*
X118881996Y-118300500D01*
X119118004Y-118300500D01*
X119118011Y-118300500D01*
X119352014Y-118269693D01*
X119579993Y-118208606D01*
X119798049Y-118118284D01*
X120002450Y-118000273D01*
X120189699Y-117856592D01*
X120356592Y-117689699D01*
X120500273Y-117502450D01*
X120560780Y-117397648D01*
X140699500Y-117397648D01*
X140699500Y-117602351D01*
X140731522Y-117804534D01*
X140794781Y-117999223D01*
X140887715Y-118181613D01*
X141008028Y-118347213D01*
X141152786Y-118491971D01*
X141307749Y-118604556D01*
X141318390Y-118612287D01*
X141434607Y-118671503D01*
X141500776Y-118705218D01*
X141500778Y-118705218D01*
X141500781Y-118705220D01*
X141605137Y-118739127D01*
X141695465Y-118768477D01*
X141796557Y-118784488D01*
X141897648Y-118800500D01*
X141897649Y-118800500D01*
X142102351Y-118800500D01*
X142102352Y-118800500D01*
X142304534Y-118768477D01*
X142499219Y-118705220D01*
X142681610Y-118612287D01*
X142774590Y-118544732D01*
X142847213Y-118491971D01*
X142847215Y-118491968D01*
X142847219Y-118491966D01*
X142991966Y-118347219D01*
X142991968Y-118347215D01*
X142991971Y-118347213D01*
X143092674Y-118208605D01*
X143112287Y-118181610D01*
X143205220Y-117999219D01*
X143268477Y-117804534D01*
X143300500Y-117602352D01*
X143300500Y-117397648D01*
X152699500Y-117397648D01*
X152699500Y-117602351D01*
X152731522Y-117804534D01*
X152794781Y-117999223D01*
X152887715Y-118181613D01*
X153008028Y-118347213D01*
X153152786Y-118491971D01*
X153307749Y-118604556D01*
X153318390Y-118612287D01*
X153434607Y-118671503D01*
X153500776Y-118705218D01*
X153500778Y-118705218D01*
X153500781Y-118705220D01*
X153605137Y-118739127D01*
X153695465Y-118768477D01*
X153796557Y-118784488D01*
X153897648Y-118800500D01*
X153897649Y-118800500D01*
X154102351Y-118800500D01*
X154102352Y-118800500D01*
X154304534Y-118768477D01*
X154499219Y-118705220D01*
X154681610Y-118612287D01*
X154774590Y-118544732D01*
X154847213Y-118491971D01*
X154847215Y-118491968D01*
X154847219Y-118491966D01*
X154991966Y-118347219D01*
X154991968Y-118347215D01*
X154991971Y-118347213D01*
X155092674Y-118208605D01*
X155112287Y-118181610D01*
X155205220Y-117999219D01*
X155268477Y-117804534D01*
X155300500Y-117602352D01*
X155300500Y-117397648D01*
X155268477Y-117195466D01*
X155205220Y-117000781D01*
X155205218Y-117000778D01*
X155205218Y-117000776D01*
X155129417Y-116852010D01*
X155112287Y-116818390D01*
X155104556Y-116807749D01*
X154991971Y-116652786D01*
X154847213Y-116508028D01*
X154681613Y-116387715D01*
X154681612Y-116387714D01*
X154681610Y-116387713D01*
X154670388Y-116381995D01*
X166699500Y-116381995D01*
X166699500Y-116618004D01*
X166699501Y-116618020D01*
X166730306Y-116852010D01*
X166791394Y-117079993D01*
X166881714Y-117298045D01*
X166881719Y-117298056D01*
X166952677Y-117420957D01*
X166999727Y-117502450D01*
X166999729Y-117502453D01*
X166999730Y-117502454D01*
X167143406Y-117689697D01*
X167143412Y-117689704D01*
X167310295Y-117856587D01*
X167310301Y-117856592D01*
X167497550Y-118000273D01*
X167628918Y-118076118D01*
X167701943Y-118118280D01*
X167701948Y-118118282D01*
X167701951Y-118118284D01*
X167920007Y-118208606D01*
X168147986Y-118269693D01*
X168381989Y-118300500D01*
X168381996Y-118300500D01*
X168618004Y-118300500D01*
X168618011Y-118300500D01*
X168852014Y-118269693D01*
X169079993Y-118208606D01*
X169298049Y-118118284D01*
X169502450Y-118000273D01*
X169689699Y-117856592D01*
X169856592Y-117689699D01*
X170000273Y-117502450D01*
X170118284Y-117298049D01*
X170208606Y-117079993D01*
X170269693Y-116852014D01*
X170300500Y-116618011D01*
X170300500Y-116381989D01*
X170269693Y-116147986D01*
X170208606Y-115920007D01*
X170118284Y-115701951D01*
X170118282Y-115701948D01*
X170118280Y-115701943D01*
X170076118Y-115628918D01*
X170000273Y-115497550D01*
X169856592Y-115310301D01*
X169856587Y-115310295D01*
X169689704Y-115143412D01*
X169689697Y-115143406D01*
X169502454Y-114999730D01*
X169502453Y-114999729D01*
X169502450Y-114999727D01*
X169420957Y-114952677D01*
X169298056Y-114881719D01*
X169298045Y-114881714D01*
X169079993Y-114791394D01*
X168852010Y-114730306D01*
X168618020Y-114699501D01*
X168618017Y-114699500D01*
X168618011Y-114699500D01*
X168381989Y-114699500D01*
X168381983Y-114699500D01*
X168381979Y-114699501D01*
X168147989Y-114730306D01*
X167920006Y-114791394D01*
X167701954Y-114881714D01*
X167701943Y-114881719D01*
X167497545Y-114999730D01*
X167310302Y-115143406D01*
X167310295Y-115143412D01*
X167143412Y-115310295D01*
X167143406Y-115310302D01*
X166999730Y-115497545D01*
X166881719Y-115701943D01*
X166881714Y-115701954D01*
X166791394Y-115920006D01*
X166730306Y-116147989D01*
X166699501Y-116381979D01*
X166699500Y-116381995D01*
X154670388Y-116381995D01*
X154624653Y-116358691D01*
X154499223Y-116294781D01*
X154304534Y-116231522D01*
X154129995Y-116203878D01*
X154102352Y-116199500D01*
X153897648Y-116199500D01*
X153873329Y-116203351D01*
X153695465Y-116231522D01*
X153500776Y-116294781D01*
X153318386Y-116387715D01*
X153152786Y-116508028D01*
X153008028Y-116652786D01*
X152887715Y-116818386D01*
X152794781Y-117000776D01*
X152731522Y-117195465D01*
X152699500Y-117397648D01*
X143300500Y-117397648D01*
X143268477Y-117195466D01*
X143205220Y-117000781D01*
X143205218Y-117000778D01*
X143205218Y-117000776D01*
X143129417Y-116852010D01*
X143112287Y-116818390D01*
X143104556Y-116807749D01*
X142991971Y-116652786D01*
X142847213Y-116508028D01*
X142681613Y-116387715D01*
X142681612Y-116387714D01*
X142681610Y-116387713D01*
X142624653Y-116358691D01*
X142499223Y-116294781D01*
X142304534Y-116231522D01*
X142129995Y-116203878D01*
X142102352Y-116199500D01*
X141897648Y-116199500D01*
X141873329Y-116203351D01*
X141695465Y-116231522D01*
X141500776Y-116294781D01*
X141318386Y-116387715D01*
X141152786Y-116508028D01*
X141008028Y-116652786D01*
X140887715Y-116818386D01*
X140794781Y-117000776D01*
X140731522Y-117195465D01*
X140699500Y-117397648D01*
X120560780Y-117397648D01*
X120618284Y-117298049D01*
X120708606Y-117079993D01*
X120769693Y-116852014D01*
X120800500Y-116618011D01*
X120800500Y-116381989D01*
X120769693Y-116147986D01*
X120708606Y-115920007D01*
X120618284Y-115701951D01*
X120618282Y-115701948D01*
X120618280Y-115701943D01*
X120576118Y-115628918D01*
X120500273Y-115497550D01*
X120356592Y-115310301D01*
X120356587Y-115310295D01*
X120189704Y-115143412D01*
X120189697Y-115143406D01*
X120002454Y-114999730D01*
X120002453Y-114999729D01*
X120002450Y-114999727D01*
X119920957Y-114952677D01*
X119798056Y-114881719D01*
X119798045Y-114881714D01*
X119579993Y-114791394D01*
X119352010Y-114730306D01*
X119118020Y-114699501D01*
X119118017Y-114699500D01*
X119118011Y-114699500D01*
X118881989Y-114699500D01*
X118881983Y-114699500D01*
X118881979Y-114699501D01*
X118647989Y-114730306D01*
X118420006Y-114791394D01*
X118201954Y-114881714D01*
X118201943Y-114881719D01*
X117997545Y-114999730D01*
X117810302Y-115143406D01*
X117810295Y-115143412D01*
X117643412Y-115310295D01*
X117643406Y-115310302D01*
X117499730Y-115497545D01*
X117381719Y-115701943D01*
X117381714Y-115701954D01*
X117291394Y-115920006D01*
X117230306Y-116147989D01*
X117199501Y-116381979D01*
X117199500Y-116381995D01*
X115000000Y-116381995D01*
X115000000Y-112223609D01*
X129629942Y-112223609D01*
X129676768Y-112260055D01*
X129676770Y-112260056D01*
X129895385Y-112378364D01*
X129895396Y-112378369D01*
X130130506Y-112459083D01*
X130375707Y-112500000D01*
X130624293Y-112500000D01*
X130869493Y-112459083D01*
X131104603Y-112378369D01*
X131104614Y-112378364D01*
X131323228Y-112260057D01*
X131323231Y-112260055D01*
X131370056Y-112223609D01*
X130500000Y-111353553D01*
X129629942Y-112223609D01*
X115000000Y-112223609D01*
X115000000Y-110999994D01*
X128994859Y-110999994D01*
X128994859Y-111000005D01*
X129015385Y-111247729D01*
X129015387Y-111247738D01*
X129076412Y-111488717D01*
X129176266Y-111716364D01*
X129276564Y-111869882D01*
X130146447Y-111000000D01*
X130146447Y-110999999D01*
X130853553Y-110999999D01*
X130853553Y-111000000D01*
X131723434Y-111869882D01*
X131823731Y-111716369D01*
X131896128Y-111551317D01*
X133257966Y-111551317D01*
X133257966Y-111551322D01*
X133277048Y-111903274D01*
X133334073Y-112251113D01*
X133334074Y-112251116D01*
X133428366Y-112590728D01*
X133428367Y-112590730D01*
X133558828Y-112918164D01*
X133558837Y-112918182D01*
X133723935Y-113229589D01*
X133921738Y-113521326D01*
X133921745Y-113521336D01*
X134149925Y-113789969D01*
X134149926Y-113789970D01*
X134405820Y-114032366D01*
X134686422Y-114245674D01*
X134988442Y-114427394D01*
X134988446Y-114427395D01*
X134988450Y-114427398D01*
X135308328Y-114575390D01*
X135308332Y-114575390D01*
X135308339Y-114575394D01*
X135642362Y-114687939D01*
X135986595Y-114763711D01*
X136337003Y-114801820D01*
X136337009Y-114801820D01*
X136689471Y-114801820D01*
X136689477Y-114801820D01*
X137039885Y-114763711D01*
X137384118Y-114687939D01*
X137718141Y-114575394D01*
X137718148Y-114575390D01*
X137718151Y-114575390D01*
X138038029Y-114427398D01*
X138038038Y-114427394D01*
X138340058Y-114245674D01*
X138620660Y-114032366D01*
X138876554Y-113789970D01*
X139104741Y-113521328D01*
X139302545Y-113229589D01*
X139467647Y-112918174D01*
X139598111Y-112590734D01*
X139692408Y-112251108D01*
X139749431Y-111903277D01*
X139768514Y-111551320D01*
X139768514Y-111551317D01*
X156257966Y-111551317D01*
X156257966Y-111551322D01*
X156277048Y-111903274D01*
X156334073Y-112251113D01*
X156334074Y-112251116D01*
X156428366Y-112590728D01*
X156428367Y-112590730D01*
X156558828Y-112918164D01*
X156558837Y-112918182D01*
X156723935Y-113229589D01*
X156921738Y-113521326D01*
X156921745Y-113521336D01*
X157149925Y-113789969D01*
X157149926Y-113789970D01*
X157405820Y-114032366D01*
X157686422Y-114245674D01*
X157988442Y-114427394D01*
X157988446Y-114427395D01*
X157988450Y-114427398D01*
X158308328Y-114575390D01*
X158308332Y-114575390D01*
X158308339Y-114575394D01*
X158642362Y-114687939D01*
X158986595Y-114763711D01*
X159337003Y-114801820D01*
X159337009Y-114801820D01*
X159689471Y-114801820D01*
X159689477Y-114801820D01*
X160039885Y-114763711D01*
X160384118Y-114687939D01*
X160718141Y-114575394D01*
X160718148Y-114575390D01*
X160718151Y-114575390D01*
X161038029Y-114427398D01*
X161038038Y-114427394D01*
X161340058Y-114245674D01*
X161620660Y-114032366D01*
X161876554Y-113789970D01*
X162104741Y-113521328D01*
X162302545Y-113229589D01*
X162467647Y-112918174D01*
X162598111Y-112590734D01*
X162692408Y-112251108D01*
X162749431Y-111903277D01*
X162768514Y-111551320D01*
X162749431Y-111199363D01*
X162692408Y-110851532D01*
X162635466Y-110646447D01*
X162598113Y-110511911D01*
X162598112Y-110511909D01*
X162467651Y-110184475D01*
X162467642Y-110184457D01*
X162302544Y-109873050D01*
X162237007Y-109776390D01*
X162104741Y-109581312D01*
X162104737Y-109581307D01*
X162104734Y-109581303D01*
X161876554Y-109312670D01*
X161620660Y-109070274D01*
X161620653Y-109070268D01*
X161620650Y-109070266D01*
X161340055Y-108856964D01*
X161038042Y-108675248D01*
X161038029Y-108675241D01*
X160718151Y-108527249D01*
X160718146Y-108527248D01*
X160718143Y-108527247D01*
X160718141Y-108527246D01*
X160611672Y-108491372D01*
X160384120Y-108414701D01*
X160039883Y-108338928D01*
X159689478Y-108300820D01*
X159689477Y-108300820D01*
X159337003Y-108300820D01*
X159337001Y-108300820D01*
X158986596Y-108338928D01*
X158642359Y-108414701D01*
X158308333Y-108527248D01*
X158308328Y-108527249D01*
X157988450Y-108675241D01*
X157988437Y-108675248D01*
X157686424Y-108856964D01*
X157405829Y-109070266D01*
X157405820Y-109070274D01*
X157149925Y-109312670D01*
X156921745Y-109581303D01*
X156921738Y-109581313D01*
X156723935Y-109873050D01*
X156558837Y-110184457D01*
X156558828Y-110184475D01*
X156428367Y-110511909D01*
X156428366Y-110511911D01*
X156334074Y-110851523D01*
X156334073Y-110851526D01*
X156277048Y-111199365D01*
X156257966Y-111551317D01*
X139768514Y-111551317D01*
X139749431Y-111199363D01*
X139692408Y-110851532D01*
X139635466Y-110646447D01*
X139598113Y-110511911D01*
X139598112Y-110511909D01*
X139467651Y-110184475D01*
X139467642Y-110184457D01*
X139302544Y-109873050D01*
X139237007Y-109776390D01*
X139104741Y-109581312D01*
X139104737Y-109581307D01*
X139104734Y-109581303D01*
X138876554Y-109312670D01*
X138620660Y-109070274D01*
X138620653Y-109070268D01*
X138620650Y-109070266D01*
X138340055Y-108856964D01*
X138038042Y-108675248D01*
X138038029Y-108675241D01*
X137718151Y-108527249D01*
X137718146Y-108527248D01*
X137718143Y-108527247D01*
X137718141Y-108527246D01*
X137611672Y-108491372D01*
X137384120Y-108414701D01*
X137039883Y-108338928D01*
X136689478Y-108300820D01*
X136689477Y-108300820D01*
X136337003Y-108300820D01*
X136337001Y-108300820D01*
X135986596Y-108338928D01*
X135642359Y-108414701D01*
X135308333Y-108527248D01*
X135308328Y-108527249D01*
X134988450Y-108675241D01*
X134988437Y-108675248D01*
X134686424Y-108856964D01*
X134405829Y-109070266D01*
X134405820Y-109070274D01*
X134149925Y-109312670D01*
X133921745Y-109581303D01*
X133921738Y-109581313D01*
X133723935Y-109873050D01*
X133558837Y-110184457D01*
X133558828Y-110184475D01*
X133428367Y-110511909D01*
X133428366Y-110511911D01*
X133334074Y-110851523D01*
X133334073Y-110851526D01*
X133277048Y-111199365D01*
X133257966Y-111551317D01*
X131896128Y-111551317D01*
X131923587Y-111488717D01*
X131984612Y-111247738D01*
X131984614Y-111247729D01*
X132005141Y-111000005D01*
X132005141Y-110999994D01*
X131984614Y-110752270D01*
X131984612Y-110752261D01*
X131923587Y-110511282D01*
X131823731Y-110283630D01*
X131723434Y-110130116D01*
X130853553Y-110999999D01*
X130146447Y-110999999D01*
X129276564Y-110130116D01*
X129176267Y-110283632D01*
X129076412Y-110511282D01*
X129015387Y-110752261D01*
X129015385Y-110752270D01*
X128994859Y-110999994D01*
X115000000Y-110999994D01*
X115000000Y-109776388D01*
X129629942Y-109776388D01*
X129629942Y-109776390D01*
X130500000Y-110646447D01*
X130500001Y-110646447D01*
X131370057Y-109776390D01*
X131370056Y-109776389D01*
X131323229Y-109739943D01*
X131104614Y-109621635D01*
X131104603Y-109621630D01*
X130869493Y-109540916D01*
X130624293Y-109500000D01*
X130375707Y-109500000D01*
X130130506Y-109540916D01*
X129895396Y-109621630D01*
X129895390Y-109621632D01*
X129676761Y-109739949D01*
X129629942Y-109776388D01*
X115000000Y-109776388D01*
X115000000Y-105499996D01*
X128227945Y-105499996D01*
X128227945Y-105500003D01*
X128247301Y-105671795D01*
X128304402Y-105834983D01*
X128396382Y-105981367D01*
X128396383Y-105981368D01*
X128518632Y-106103617D01*
X128665018Y-106195598D01*
X128828202Y-106252698D01*
X129000000Y-106272055D01*
X129000001Y-106272054D01*
X129004982Y-106272616D01*
X129069396Y-106299682D01*
X129108951Y-106357277D01*
X129111089Y-106427114D01*
X129104655Y-106445645D01*
X129075937Y-106511115D01*
X129014892Y-106752175D01*
X129014890Y-106752187D01*
X128994357Y-106999994D01*
X128994357Y-107000005D01*
X129014890Y-107247812D01*
X129014892Y-107247824D01*
X129075936Y-107488881D01*
X129175826Y-107716606D01*
X129311833Y-107924782D01*
X129311836Y-107924785D01*
X129480256Y-108107738D01*
X129676491Y-108260474D01*
X129895190Y-108378828D01*
X130130386Y-108459571D01*
X130375665Y-108500500D01*
X130624335Y-108500500D01*
X130869614Y-108459571D01*
X131104810Y-108378828D01*
X131323509Y-108260474D01*
X131519744Y-108107738D01*
X131688164Y-107924785D01*
X131824173Y-107716607D01*
X131924063Y-107488881D01*
X131985108Y-107247821D01*
X132005643Y-107000000D01*
X131985108Y-106752179D01*
X131924063Y-106511119D01*
X131924061Y-106511115D01*
X131824173Y-106283393D01*
X131688166Y-106075217D01*
X131666557Y-106051744D01*
X131519744Y-105892262D01*
X131323509Y-105739526D01*
X131323507Y-105739525D01*
X131323506Y-105739524D01*
X131104811Y-105621172D01*
X131104802Y-105621169D01*
X130869616Y-105540429D01*
X130624335Y-105499500D01*
X130375665Y-105499500D01*
X130130383Y-105540429D01*
X129935963Y-105607174D01*
X129866164Y-105610324D01*
X129805743Y-105575238D01*
X129773882Y-105513055D01*
X129772480Y-105503776D01*
X129772054Y-105499996D01*
X129752698Y-105328202D01*
X129695598Y-105165018D01*
X129603617Y-105018632D01*
X129481368Y-104896383D01*
X129481367Y-104896382D01*
X129334983Y-104804402D01*
X129171795Y-104747301D01*
X129000004Y-104727945D01*
X128999996Y-104727945D01*
X128828204Y-104747301D01*
X128665016Y-104804402D01*
X128518632Y-104896382D01*
X128396382Y-105018632D01*
X128304402Y-105165016D01*
X128247301Y-105328204D01*
X128227945Y-105499996D01*
X115000000Y-105499996D01*
X115000000Y-102723609D01*
X129129942Y-102723609D01*
X129176768Y-102760055D01*
X129176770Y-102760056D01*
X129395385Y-102878364D01*
X129395396Y-102878369D01*
X129630506Y-102959083D01*
X129875707Y-103000000D01*
X130124293Y-103000000D01*
X130369493Y-102959083D01*
X130604603Y-102878369D01*
X130604614Y-102878364D01*
X130823228Y-102760057D01*
X130823231Y-102760055D01*
X130870056Y-102723609D01*
X130000000Y-101853553D01*
X129129942Y-102723609D01*
X115000000Y-102723609D01*
X115000000Y-101499994D01*
X128494859Y-101499994D01*
X128494859Y-101500005D01*
X128515385Y-101747729D01*
X128515387Y-101747738D01*
X128576412Y-101988717D01*
X128676266Y-102216364D01*
X128776564Y-102369882D01*
X129646447Y-101500000D01*
X129646447Y-101499999D01*
X130353553Y-101499999D01*
X130353553Y-101500001D01*
X131223434Y-102369882D01*
X131323731Y-102216369D01*
X131423587Y-101988717D01*
X131484612Y-101747738D01*
X131484614Y-101747729D01*
X131505141Y-101500005D01*
X131505141Y-101499994D01*
X131484614Y-101252270D01*
X131484612Y-101252261D01*
X131423587Y-101011282D01*
X131323731Y-100783630D01*
X131223434Y-100630116D01*
X130353553Y-101499999D01*
X129646447Y-101499999D01*
X128776564Y-100630116D01*
X128676267Y-100783632D01*
X128576412Y-101011282D01*
X128515387Y-101252261D01*
X128515385Y-101252270D01*
X128494859Y-101499994D01*
X115000000Y-101499994D01*
X115000000Y-100276388D01*
X129129942Y-100276388D01*
X129129942Y-100276390D01*
X130000000Y-101146447D01*
X130000001Y-101146447D01*
X130870057Y-100276390D01*
X130870056Y-100276389D01*
X130823229Y-100239943D01*
X130604614Y-100121635D01*
X130604603Y-100121630D01*
X130369493Y-100040916D01*
X130124293Y-100000000D01*
X129875707Y-100000000D01*
X129630506Y-100040916D01*
X129395396Y-100121630D01*
X129395390Y-100121632D01*
X129176761Y-100239949D01*
X129129942Y-100276388D01*
X115000000Y-100276388D01*
X115000000Y-96499996D01*
X126727945Y-96499996D01*
X126727945Y-96500003D01*
X126747301Y-96671795D01*
X126804402Y-96834983D01*
X126896382Y-96981367D01*
X127018632Y-97103617D01*
X127163897Y-97194894D01*
X127165018Y-97195598D01*
X127328202Y-97252698D01*
X127385468Y-97259150D01*
X127499996Y-97272055D01*
X127500000Y-97272055D01*
X127500004Y-97272055D01*
X127598170Y-97260993D01*
X127671798Y-97252698D01*
X127811828Y-97203700D01*
X127841556Y-97193298D01*
X127842114Y-97194894D01*
X127902423Y-97184948D01*
X127934761Y-97193460D01*
X127959482Y-97203701D01*
X127959485Y-97203701D01*
X128054953Y-97203701D01*
X128054961Y-97203700D01*
X128384209Y-97203700D01*
X128451248Y-97223385D01*
X128497003Y-97276189D01*
X128507785Y-97337940D01*
X128494357Y-97499994D01*
X128494357Y-97500005D01*
X128514890Y-97747812D01*
X128514892Y-97747824D01*
X128575936Y-97988881D01*
X128675826Y-98216606D01*
X128811833Y-98424782D01*
X128811836Y-98424785D01*
X128980256Y-98607738D01*
X129176491Y-98760474D01*
X129395190Y-98878828D01*
X129630386Y-98959571D01*
X129875665Y-99000500D01*
X130124335Y-99000500D01*
X130369614Y-98959571D01*
X130604810Y-98878828D01*
X130823509Y-98760474D01*
X131019744Y-98607738D01*
X131188164Y-98424785D01*
X131324173Y-98216607D01*
X131424063Y-97988881D01*
X131485108Y-97747821D01*
X131505643Y-97500000D01*
X131492214Y-97337940D01*
X131485109Y-97252187D01*
X131485107Y-97252175D01*
X131424063Y-97011118D01*
X131324173Y-96783393D01*
X131188166Y-96575217D01*
X131166557Y-96551744D01*
X131019744Y-96392262D01*
X130823509Y-96239526D01*
X130823507Y-96239525D01*
X130823506Y-96239524D01*
X130604811Y-96121172D01*
X130604802Y-96121169D01*
X130369616Y-96040429D01*
X130124335Y-95999500D01*
X129875665Y-95999500D01*
X129630383Y-96040429D01*
X129395197Y-96121169D01*
X129395188Y-96121172D01*
X129176493Y-96239524D01*
X128980257Y-96392261D01*
X128811833Y-96575217D01*
X128704098Y-96740121D01*
X128650952Y-96785478D01*
X128600289Y-96796300D01*
X128377426Y-96796300D01*
X128310387Y-96776615D01*
X128264632Y-96723811D01*
X128254206Y-96658416D01*
X128272055Y-96500002D01*
X128272055Y-96499996D01*
X128252698Y-96328204D01*
X128252698Y-96328202D01*
X128195598Y-96165018D01*
X128103617Y-96018632D01*
X127981368Y-95896383D01*
X127981367Y-95896382D01*
X127834983Y-95804402D01*
X127671795Y-95747301D01*
X127500004Y-95727945D01*
X127499996Y-95727945D01*
X127328204Y-95747301D01*
X127165016Y-95804402D01*
X127018632Y-95896382D01*
X126896382Y-96018632D01*
X126804402Y-96165016D01*
X126747301Y-96328204D01*
X126727945Y-96499996D01*
X115000000Y-96499996D01*
X115000000Y-93723609D01*
X123629942Y-93723609D01*
X123676768Y-93760055D01*
X123676770Y-93760056D01*
X123895385Y-93878364D01*
X123895396Y-93878369D01*
X124130506Y-93959083D01*
X124375707Y-94000000D01*
X124624293Y-94000000D01*
X124869493Y-93959083D01*
X125104603Y-93878369D01*
X125104614Y-93878364D01*
X125323228Y-93760057D01*
X125323231Y-93760055D01*
X125370056Y-93723609D01*
X124500000Y-92853553D01*
X123629942Y-93723609D01*
X115000000Y-93723609D01*
X115000000Y-92499994D01*
X122994859Y-92499994D01*
X122994859Y-92500005D01*
X123015385Y-92747729D01*
X123015387Y-92747738D01*
X123076412Y-92988717D01*
X123176266Y-93216364D01*
X123276564Y-93369882D01*
X124146447Y-92500000D01*
X124146447Y-92499999D01*
X124853553Y-92499999D01*
X124853553Y-92500001D01*
X125723434Y-93369882D01*
X125823731Y-93216369D01*
X125923587Y-92988717D01*
X125984612Y-92747738D01*
X125984614Y-92747729D01*
X126005141Y-92500005D01*
X126005141Y-92499994D01*
X125984614Y-92252270D01*
X125984612Y-92252261D01*
X125923587Y-92011282D01*
X125823731Y-91783630D01*
X125723434Y-91630116D01*
X124853553Y-92499999D01*
X124146447Y-92499999D01*
X123276564Y-91630116D01*
X123176267Y-91783632D01*
X123076412Y-92011282D01*
X123015387Y-92252261D01*
X123015385Y-92252270D01*
X122994859Y-92499994D01*
X115000000Y-92499994D01*
X115000000Y-91276388D01*
X123629942Y-91276388D01*
X123629942Y-91276390D01*
X124500000Y-92146447D01*
X124500001Y-92146447D01*
X125370057Y-91276390D01*
X125370056Y-91276389D01*
X125323229Y-91239943D01*
X125104614Y-91121635D01*
X125104603Y-91121630D01*
X124869493Y-91040916D01*
X124624293Y-91000000D01*
X124375707Y-91000000D01*
X124130506Y-91040916D01*
X123895396Y-91121630D01*
X123895390Y-91121632D01*
X123676761Y-91239949D01*
X123629942Y-91276388D01*
X115000000Y-91276388D01*
X115000000Y-74999996D01*
X116227945Y-74999996D01*
X116227945Y-75000003D01*
X116247301Y-75171795D01*
X116304402Y-75334983D01*
X116396382Y-75481367D01*
X116518632Y-75603617D01*
X116616350Y-75665018D01*
X116665018Y-75695598D01*
X116828202Y-75752698D01*
X116885468Y-75759150D01*
X116999996Y-75772055D01*
X117000000Y-75772055D01*
X117000004Y-75772055D01*
X117098170Y-75760993D01*
X117171798Y-75752698D01*
X117334982Y-75695598D01*
X117481368Y-75603617D01*
X117603617Y-75481368D01*
X117695598Y-75334982D01*
X117752698Y-75171798D01*
X117769195Y-75025381D01*
X117772055Y-75000003D01*
X117772055Y-74999996D01*
X117759150Y-74885468D01*
X117752698Y-74828202D01*
X117695598Y-74665018D01*
X117653550Y-74598100D01*
X117603617Y-74518632D01*
X117481364Y-74396379D01*
X117439527Y-74370091D01*
X117393236Y-74317756D01*
X117381500Y-74265098D01*
X117381500Y-74223609D01*
X119629942Y-74223609D01*
X119676768Y-74260055D01*
X119676770Y-74260056D01*
X119895385Y-74378364D01*
X119895396Y-74378369D01*
X120130506Y-74459083D01*
X120375707Y-74500000D01*
X120624293Y-74500000D01*
X120869493Y-74459083D01*
X121104603Y-74378369D01*
X121104614Y-74378364D01*
X121323228Y-74260057D01*
X121323231Y-74260055D01*
X121370056Y-74223609D01*
X120500000Y-73353553D01*
X119629942Y-74223609D01*
X117381500Y-74223609D01*
X117381500Y-72999994D01*
X118994859Y-72999994D01*
X118994859Y-73000005D01*
X119015385Y-73247729D01*
X119015387Y-73247738D01*
X119076412Y-73488717D01*
X119176266Y-73716364D01*
X119276564Y-73869882D01*
X120146447Y-73000000D01*
X120146447Y-72999999D01*
X120853553Y-72999999D01*
X120853553Y-73000000D01*
X121723434Y-73869882D01*
X121823731Y-73716369D01*
X121923587Y-73488717D01*
X121984612Y-73247738D01*
X121984614Y-73247729D01*
X122005141Y-73000005D01*
X122005141Y-72999994D01*
X121984614Y-72752270D01*
X121984612Y-72752261D01*
X121923587Y-72511282D01*
X121823731Y-72283630D01*
X121723434Y-72130116D01*
X120853553Y-72999999D01*
X120146447Y-72999999D01*
X119276564Y-72130116D01*
X119176267Y-72283632D01*
X119076412Y-72511282D01*
X119015387Y-72752261D01*
X119015385Y-72752270D01*
X118994859Y-72999994D01*
X117381500Y-72999994D01*
X117381500Y-71776388D01*
X119629942Y-71776388D01*
X119629942Y-71776390D01*
X120500000Y-72646447D01*
X120500001Y-72646447D01*
X121370057Y-71776390D01*
X121370056Y-71776389D01*
X121323229Y-71739943D01*
X121104614Y-71621635D01*
X121104603Y-71621630D01*
X120869493Y-71540916D01*
X120624293Y-71500000D01*
X120375707Y-71500000D01*
X120130506Y-71540916D01*
X119895396Y-71621630D01*
X119895390Y-71621632D01*
X119676761Y-71739949D01*
X119629942Y-71776388D01*
X117381500Y-71776388D01*
X117381500Y-56539999D01*
X120644341Y-56539999D01*
X120644341Y-56540000D01*
X120664936Y-56775403D01*
X120664938Y-56775413D01*
X120726094Y-57003655D01*
X120726096Y-57003659D01*
X120726097Y-57003663D01*
X120750462Y-57055913D01*
X120825965Y-57217830D01*
X120825967Y-57217834D01*
X120961501Y-57411395D01*
X120961506Y-57411402D01*
X121128597Y-57578493D01*
X121128603Y-57578498D01*
X121314158Y-57708425D01*
X121357783Y-57763002D01*
X121364977Y-57832500D01*
X121333454Y-57894855D01*
X121314158Y-57911575D01*
X121128597Y-58041505D01*
X120961505Y-58208597D01*
X120825965Y-58402169D01*
X120825964Y-58402171D01*
X120726098Y-58616335D01*
X120726094Y-58616344D01*
X120664938Y-58844586D01*
X120664936Y-58844596D01*
X120644341Y-59079999D01*
X120644341Y-59080000D01*
X120664936Y-59315403D01*
X120664938Y-59315413D01*
X120726094Y-59543655D01*
X120726096Y-59543659D01*
X120726097Y-59543663D01*
X120765970Y-59629170D01*
X120825965Y-59757830D01*
X120825967Y-59757834D01*
X120845256Y-59785381D01*
X120961505Y-59951401D01*
X121128599Y-60118495D01*
X121225384Y-60186265D01*
X121322165Y-60254032D01*
X121322167Y-60254033D01*
X121322170Y-60254035D01*
X121536337Y-60353903D01*
X121764592Y-60415063D01*
X121952918Y-60431539D01*
X121999999Y-60435659D01*
X122000000Y-60435659D01*
X122000001Y-60435659D01*
X122039234Y-60432226D01*
X122235408Y-60415063D01*
X122463663Y-60353903D01*
X122677830Y-60254035D01*
X122871401Y-60118495D01*
X123038495Y-59951401D01*
X123174035Y-59757830D01*
X123273903Y-59543663D01*
X123335063Y-59315408D01*
X123355659Y-59080000D01*
X123335063Y-58844592D01*
X123273903Y-58616337D01*
X123174035Y-58402171D01*
X123152854Y-58371920D01*
X123038494Y-58208597D01*
X122871402Y-58041506D01*
X122871396Y-58041501D01*
X122685842Y-57911575D01*
X122642217Y-57856998D01*
X122635023Y-57787500D01*
X122666546Y-57725145D01*
X122685842Y-57708425D01*
X122708026Y-57692891D01*
X122871401Y-57578495D01*
X123038495Y-57411401D01*
X123174035Y-57217830D01*
X123273903Y-57003663D01*
X123318933Y-56835607D01*
X123355298Y-56775946D01*
X123418145Y-56745417D01*
X123438708Y-56743700D01*
X125404263Y-56743700D01*
X125471302Y-56763385D01*
X125491944Y-56780019D01*
X126759981Y-58048056D01*
X126793466Y-58109379D01*
X126796300Y-58135737D01*
X126796300Y-61200517D01*
X126796301Y-61200522D01*
X126827308Y-61275384D01*
X126902049Y-61350125D01*
X126902055Y-61350130D01*
X132961292Y-67409367D01*
X132994777Y-67470690D01*
X132989793Y-67540382D01*
X132975188Y-67568169D01*
X132962467Y-67586337D01*
X132869107Y-67786548D01*
X132869104Y-67786554D01*
X132811930Y-67999929D01*
X132811929Y-67999937D01*
X132792677Y-68219997D01*
X132792677Y-68220002D01*
X132811929Y-68440062D01*
X132811930Y-68440070D01*
X132869104Y-68653445D01*
X132869105Y-68653447D01*
X132869106Y-68653450D01*
X132888760Y-68695598D01*
X132962466Y-68853662D01*
X132962468Y-68853666D01*
X133089170Y-69034615D01*
X133089175Y-69034621D01*
X133245378Y-69190824D01*
X133245384Y-69190829D01*
X133426333Y-69317531D01*
X133426335Y-69317532D01*
X133426338Y-69317534D01*
X133545748Y-69373215D01*
X133555189Y-69377618D01*
X133607628Y-69423790D01*
X133626780Y-69490984D01*
X133606564Y-69557865D01*
X133555189Y-69602382D01*
X133426340Y-69662465D01*
X133426338Y-69662466D01*
X133245377Y-69789175D01*
X133089175Y-69945377D01*
X132962466Y-70126338D01*
X132962465Y-70126340D01*
X132869107Y-70326548D01*
X132869104Y-70326554D01*
X132811930Y-70539929D01*
X132811929Y-70539937D01*
X132792677Y-70759997D01*
X132792677Y-70760002D01*
X132811929Y-70980062D01*
X132811930Y-70980070D01*
X132869104Y-71193445D01*
X132869105Y-71193447D01*
X132869106Y-71193450D01*
X132962466Y-71393662D01*
X132962468Y-71393666D01*
X133089170Y-71574615D01*
X133089175Y-71574621D01*
X133245378Y-71730824D01*
X133245384Y-71730829D01*
X133426333Y-71857531D01*
X133426335Y-71857532D01*
X133426338Y-71857534D01*
X133500811Y-71892261D01*
X133555189Y-71917618D01*
X133607628Y-71963790D01*
X133626780Y-72030984D01*
X133606564Y-72097865D01*
X133555189Y-72142382D01*
X133426340Y-72202465D01*
X133426338Y-72202466D01*
X133245377Y-72329175D01*
X133089175Y-72485377D01*
X132962466Y-72666338D01*
X132962465Y-72666340D01*
X132869107Y-72866548D01*
X132869104Y-72866554D01*
X132811930Y-73079929D01*
X132811929Y-73079937D01*
X132792677Y-73299997D01*
X132792677Y-73300002D01*
X132811929Y-73520062D01*
X132811930Y-73520070D01*
X132869104Y-73733445D01*
X132869105Y-73733447D01*
X132869106Y-73733450D01*
X132932725Y-73869882D01*
X132962466Y-73933662D01*
X132962468Y-73933666D01*
X133089170Y-74114615D01*
X133089175Y-74114621D01*
X133245378Y-74270824D01*
X133245384Y-74270829D01*
X133390621Y-74372525D01*
X133434246Y-74427102D01*
X133441440Y-74496600D01*
X133409917Y-74558955D01*
X133349687Y-74594369D01*
X133319498Y-74598100D01*
X127189296Y-74598100D01*
X127122257Y-74578415D01*
X127076502Y-74525611D01*
X127066558Y-74456453D01*
X127095583Y-74392897D01*
X127130279Y-74365045D01*
X127217661Y-74317756D01*
X127323509Y-74260474D01*
X127519744Y-74107738D01*
X127688164Y-73924785D01*
X127824173Y-73716607D01*
X127924063Y-73488881D01*
X127985108Y-73247821D01*
X127996580Y-73109379D01*
X128005643Y-73000005D01*
X128005643Y-72999994D01*
X127985109Y-72752187D01*
X127985107Y-72752175D01*
X127924063Y-72511118D01*
X127824173Y-72283393D01*
X127688166Y-72075217D01*
X127649005Y-72032677D01*
X127519744Y-71892262D01*
X127323509Y-71739526D01*
X127323507Y-71739525D01*
X127323506Y-71739524D01*
X127104811Y-71621172D01*
X127104802Y-71621169D01*
X126869616Y-71540429D01*
X126624335Y-71499500D01*
X126375665Y-71499500D01*
X126130383Y-71540429D01*
X125895197Y-71621169D01*
X125895188Y-71621172D01*
X125676493Y-71739524D01*
X125480257Y-71892261D01*
X125311833Y-72075217D01*
X125175826Y-72283393D01*
X125075936Y-72511118D01*
X125014892Y-72752175D01*
X125014890Y-72752187D01*
X124994357Y-72999994D01*
X124994357Y-73000005D01*
X125014890Y-73247812D01*
X125014892Y-73247824D01*
X125075936Y-73488881D01*
X125175826Y-73716606D01*
X125311833Y-73924782D01*
X125342291Y-73957868D01*
X125480256Y-74107738D01*
X125562560Y-74171798D01*
X125676488Y-74260472D01*
X125676492Y-74260475D01*
X125731317Y-74290144D01*
X125780908Y-74339363D01*
X125796300Y-74399199D01*
X125796300Y-74474100D01*
X125776615Y-74541139D01*
X125723811Y-74586894D01*
X125672300Y-74598100D01*
X122753161Y-74598100D01*
X122753153Y-74598099D01*
X122738719Y-74598099D01*
X122657682Y-74598099D01*
X122657680Y-74598099D01*
X122657678Y-74598100D01*
X122613825Y-74616264D01*
X122613825Y-74616265D01*
X122598319Y-74622688D01*
X122582812Y-74629111D01*
X122562818Y-74649106D01*
X122525511Y-74686413D01*
X122525510Y-74686414D01*
X121943812Y-75268111D01*
X121882489Y-75301596D01*
X121815177Y-75297472D01*
X121671795Y-75247301D01*
X121500004Y-75227945D01*
X121499996Y-75227945D01*
X121328204Y-75247301D01*
X121165016Y-75304402D01*
X121018632Y-75396382D01*
X120896382Y-75518632D01*
X120804402Y-75665016D01*
X120747301Y-75828204D01*
X120727945Y-75999996D01*
X120727945Y-76000003D01*
X120747301Y-76171795D01*
X120804402Y-76334983D01*
X120891541Y-76473662D01*
X120896383Y-76481368D01*
X121018632Y-76603617D01*
X121165018Y-76695598D01*
X121328202Y-76752698D01*
X121385468Y-76759150D01*
X121499996Y-76772055D01*
X121500000Y-76772055D01*
X121500004Y-76772055D01*
X121598170Y-76760993D01*
X121671798Y-76752698D01*
X121834982Y-76695598D01*
X121981368Y-76603617D01*
X122103617Y-76481368D01*
X122195598Y-76334982D01*
X122252698Y-76171798D01*
X122272055Y-76000000D01*
X122252698Y-75828202D01*
X122202527Y-75684820D01*
X122198966Y-75615041D01*
X122231886Y-75556187D01*
X122746256Y-75041819D01*
X122807579Y-75008334D01*
X122833937Y-75005500D01*
X125959481Y-75005500D01*
X126289420Y-75005500D01*
X126356459Y-75025185D01*
X126402214Y-75077989D01*
X126412158Y-75147147D01*
X126383133Y-75210703D01*
X126330374Y-75246542D01*
X126165016Y-75304402D01*
X126018632Y-75396382D01*
X125896382Y-75518632D01*
X125804402Y-75665016D01*
X125747301Y-75828204D01*
X125727945Y-75999996D01*
X125727945Y-76000003D01*
X125747301Y-76171795D01*
X125804402Y-76334983D01*
X125891541Y-76473662D01*
X125896383Y-76481368D01*
X126018632Y-76603617D01*
X126165018Y-76695598D01*
X126213254Y-76712476D01*
X126270030Y-76753197D01*
X126295778Y-76818150D01*
X126296300Y-76829518D01*
X126296300Y-87864262D01*
X126276615Y-87931301D01*
X126259981Y-87951944D01*
X126134296Y-88077628D01*
X126072973Y-88111112D01*
X126003281Y-88106128D01*
X125947348Y-88064256D01*
X125926408Y-88020380D01*
X125924063Y-88011119D01*
X125824173Y-87783393D01*
X125688166Y-87575217D01*
X125666557Y-87551744D01*
X125519744Y-87392262D01*
X125323509Y-87239526D01*
X125323507Y-87239525D01*
X125323506Y-87239524D01*
X125104811Y-87121172D01*
X125104802Y-87121169D01*
X124869616Y-87040429D01*
X124624335Y-86999500D01*
X124375665Y-86999500D01*
X124130383Y-87040429D01*
X123895197Y-87121169D01*
X123895188Y-87121172D01*
X123676493Y-87239524D01*
X123480257Y-87392261D01*
X123311833Y-87575217D01*
X123175826Y-87783393D01*
X123075936Y-88011118D01*
X123014892Y-88252175D01*
X123014890Y-88252187D01*
X122994357Y-88499994D01*
X122994357Y-88500005D01*
X123014890Y-88747812D01*
X123014892Y-88747824D01*
X123075936Y-88988881D01*
X123175826Y-89216606D01*
X123311833Y-89424782D01*
X123311836Y-89424785D01*
X123480256Y-89607738D01*
X123676491Y-89760474D01*
X123895190Y-89878828D01*
X124130386Y-89959571D01*
X124375665Y-90000500D01*
X124624335Y-90000500D01*
X124869614Y-89959571D01*
X125104810Y-89878828D01*
X125323509Y-89760474D01*
X125519744Y-89607738D01*
X125688164Y-89424785D01*
X125824173Y-89216607D01*
X125924063Y-88988881D01*
X125975824Y-88784480D01*
X126011363Y-88724327D01*
X126048574Y-88700363D01*
X126115387Y-88672689D01*
X126172689Y-88615387D01*
X126172689Y-88615386D01*
X126190127Y-88597948D01*
X126190129Y-88597945D01*
X126412318Y-88375756D01*
X126473641Y-88342271D01*
X126543333Y-88347255D01*
X126587680Y-88375756D01*
X129268111Y-91056187D01*
X129301596Y-91117510D01*
X129297472Y-91184822D01*
X129247301Y-91328204D01*
X129227945Y-91499996D01*
X129227945Y-91500003D01*
X129247301Y-91671795D01*
X129304402Y-91834983D01*
X129396382Y-91981367D01*
X129396383Y-91981368D01*
X129518632Y-92103617D01*
X129665018Y-92195598D01*
X129828202Y-92252698D01*
X129885468Y-92259150D01*
X129999996Y-92272055D01*
X130000000Y-92272055D01*
X130000004Y-92272055D01*
X130098170Y-92260993D01*
X130171798Y-92252698D01*
X130334982Y-92195598D01*
X130481368Y-92103617D01*
X130603617Y-91981368D01*
X130695598Y-91834982D01*
X130752698Y-91671798D01*
X130772055Y-91500000D01*
X130752698Y-91328202D01*
X130695598Y-91165018D01*
X130668338Y-91121635D01*
X130603617Y-91018632D01*
X130481367Y-90896382D01*
X130334983Y-90804402D01*
X130171795Y-90747301D01*
X130000004Y-90727945D01*
X129999996Y-90727945D01*
X129828204Y-90747301D01*
X129684822Y-90797472D01*
X129615043Y-90801033D01*
X129556187Y-90768111D01*
X126740019Y-87951943D01*
X126706534Y-87890620D01*
X126703700Y-87864262D01*
X126703700Y-87723609D01*
X146629942Y-87723609D01*
X146676768Y-87760055D01*
X146676770Y-87760056D01*
X146895385Y-87878364D01*
X146895396Y-87878369D01*
X147130506Y-87959083D01*
X147375707Y-88000000D01*
X147624293Y-88000000D01*
X147869493Y-87959083D01*
X148104603Y-87878369D01*
X148104614Y-87878364D01*
X148323228Y-87760057D01*
X148323231Y-87760055D01*
X148370056Y-87723609D01*
X147500000Y-86853553D01*
X146629942Y-87723609D01*
X126703700Y-87723609D01*
X126703700Y-76829518D01*
X126723385Y-76762479D01*
X126776189Y-76716724D01*
X126786740Y-76712478D01*
X126834982Y-76695598D01*
X126981368Y-76603617D01*
X127103617Y-76481368D01*
X127195598Y-76334982D01*
X127252698Y-76171798D01*
X127272055Y-76000000D01*
X127252698Y-75828202D01*
X127195598Y-75665018D01*
X127167268Y-75619932D01*
X127103617Y-75518632D01*
X126981367Y-75396382D01*
X126834983Y-75304402D01*
X126669626Y-75246542D01*
X126612850Y-75205820D01*
X126587102Y-75140868D01*
X126600558Y-75072306D01*
X126648945Y-75021903D01*
X126710580Y-75005500D01*
X132864894Y-75005500D01*
X132931933Y-75025185D01*
X132977688Y-75077989D01*
X132987632Y-75147147D01*
X132966469Y-75200621D01*
X132962467Y-75206338D01*
X132962465Y-75206341D01*
X132869107Y-75406548D01*
X132869104Y-75406554D01*
X132811930Y-75619929D01*
X132811929Y-75619937D01*
X132792677Y-75839997D01*
X132792677Y-75840002D01*
X132811929Y-76060062D01*
X132811930Y-76060070D01*
X132869104Y-76273445D01*
X132869105Y-76273447D01*
X132869106Y-76273450D01*
X132962466Y-76473662D01*
X132962468Y-76473666D01*
X133089170Y-76654615D01*
X133089175Y-76654621D01*
X133245378Y-76810824D01*
X133245384Y-76810829D01*
X133426333Y-76937531D01*
X133426335Y-76937532D01*
X133426338Y-76937534D01*
X133545748Y-76993215D01*
X133555189Y-76997618D01*
X133607628Y-77043790D01*
X133626780Y-77110984D01*
X133606564Y-77177865D01*
X133555189Y-77222382D01*
X133426340Y-77282465D01*
X133426338Y-77282466D01*
X133245377Y-77409175D01*
X133089175Y-77565377D01*
X132962466Y-77746338D01*
X132962465Y-77746340D01*
X132869107Y-77946548D01*
X132869104Y-77946554D01*
X132811930Y-78159929D01*
X132811929Y-78159937D01*
X132792677Y-78379997D01*
X132792677Y-78380002D01*
X132811929Y-78600062D01*
X132811930Y-78600070D01*
X132869104Y-78813445D01*
X132869105Y-78813447D01*
X132869106Y-78813450D01*
X132907778Y-78896382D01*
X132962466Y-79013662D01*
X132962468Y-79013666D01*
X133089170Y-79194615D01*
X133089175Y-79194621D01*
X133245378Y-79350824D01*
X133245384Y-79350829D01*
X133426333Y-79477531D01*
X133426335Y-79477532D01*
X133426338Y-79477534D01*
X133545748Y-79533215D01*
X133555189Y-79537618D01*
X133607628Y-79583790D01*
X133626780Y-79650984D01*
X133606564Y-79717865D01*
X133555189Y-79762382D01*
X133426340Y-79822465D01*
X133426338Y-79822466D01*
X133245377Y-79949175D01*
X133089175Y-80105377D01*
X132962466Y-80286338D01*
X132962465Y-80286340D01*
X132869107Y-80486548D01*
X132869104Y-80486554D01*
X132811930Y-80699929D01*
X132811929Y-80699937D01*
X132792677Y-80919997D01*
X132792677Y-80920002D01*
X132811929Y-81140062D01*
X132811930Y-81140070D01*
X132869104Y-81353445D01*
X132869105Y-81353447D01*
X132869106Y-81353450D01*
X132942628Y-81511119D01*
X132962466Y-81553662D01*
X132962468Y-81553666D01*
X133089170Y-81734615D01*
X133089175Y-81734621D01*
X133245378Y-81890824D01*
X133245384Y-81890829D01*
X133426333Y-82017531D01*
X133426335Y-82017532D01*
X133426338Y-82017534D01*
X133545748Y-82073215D01*
X133555189Y-82077618D01*
X133607628Y-82123790D01*
X133626780Y-82190984D01*
X133606564Y-82257865D01*
X133555189Y-82302382D01*
X133426340Y-82362465D01*
X133426338Y-82362466D01*
X133245377Y-82489175D01*
X133089175Y-82645377D01*
X132962466Y-82826338D01*
X132962465Y-82826340D01*
X132869107Y-83026548D01*
X132869104Y-83026554D01*
X132811930Y-83239929D01*
X132811929Y-83239937D01*
X132792677Y-83459997D01*
X132792677Y-83460002D01*
X132811929Y-83680062D01*
X132811930Y-83680070D01*
X132869104Y-83893445D01*
X132869105Y-83893447D01*
X132869106Y-83893450D01*
X132962466Y-84093662D01*
X132962468Y-84093666D01*
X133089170Y-84274615D01*
X133089175Y-84274621D01*
X133245378Y-84430824D01*
X133245384Y-84430829D01*
X133426333Y-84557531D01*
X133426335Y-84557532D01*
X133426338Y-84557534D01*
X133545748Y-84613215D01*
X133555189Y-84617618D01*
X133607628Y-84663790D01*
X133626780Y-84730984D01*
X133606564Y-84797865D01*
X133555189Y-84842382D01*
X133426340Y-84902465D01*
X133426338Y-84902466D01*
X133245377Y-85029175D01*
X133089175Y-85185377D01*
X132962466Y-85366338D01*
X132962465Y-85366340D01*
X132869107Y-85566548D01*
X132869104Y-85566554D01*
X132811930Y-85779929D01*
X132811929Y-85779937D01*
X132792677Y-85999997D01*
X132792677Y-86000002D01*
X132811929Y-86220062D01*
X132811930Y-86220070D01*
X132869104Y-86433445D01*
X132869105Y-86433447D01*
X132869106Y-86433450D01*
X132900139Y-86500000D01*
X132962466Y-86633662D01*
X132962468Y-86633666D01*
X133089170Y-86814615D01*
X133089175Y-86814621D01*
X133245378Y-86970824D01*
X133245384Y-86970829D01*
X133426333Y-87097531D01*
X133426335Y-87097532D01*
X133426338Y-87097534D01*
X133626550Y-87190894D01*
X133839932Y-87248070D01*
X133997123Y-87261822D01*
X134059998Y-87267323D01*
X134060000Y-87267323D01*
X134060002Y-87267323D01*
X134115017Y-87262509D01*
X134280068Y-87248070D01*
X134493450Y-87190894D01*
X134693662Y-87097534D01*
X134874620Y-86970826D01*
X135030826Y-86814620D01*
X135157534Y-86633662D01*
X135219864Y-86499994D01*
X145994859Y-86499994D01*
X145994859Y-86500005D01*
X146015385Y-86747729D01*
X146015387Y-86747738D01*
X146076412Y-86988717D01*
X146176266Y-87216364D01*
X146276564Y-87369882D01*
X147146447Y-86500000D01*
X147146447Y-86499999D01*
X147853553Y-86499999D01*
X147853553Y-86500001D01*
X148723434Y-87369882D01*
X148823731Y-87216369D01*
X148923587Y-86988717D01*
X148984612Y-86747738D01*
X148984614Y-86747729D01*
X149005141Y-86500005D01*
X149005141Y-86499994D01*
X148984614Y-86252270D01*
X148984612Y-86252261D01*
X148923587Y-86011282D01*
X148823731Y-85783630D01*
X148723434Y-85630116D01*
X147853553Y-86499999D01*
X147146447Y-86499999D01*
X146276564Y-85630116D01*
X146176267Y-85783632D01*
X146076412Y-86011282D01*
X146015387Y-86252261D01*
X146015385Y-86252270D01*
X145994859Y-86499994D01*
X135219864Y-86499994D01*
X135250894Y-86433450D01*
X135308070Y-86220068D01*
X135327323Y-86000000D01*
X135308070Y-85779932D01*
X135250894Y-85566550D01*
X135157534Y-85366339D01*
X135094550Y-85276388D01*
X146629942Y-85276388D01*
X146629942Y-85276390D01*
X147500000Y-86146447D01*
X147500001Y-86146447D01*
X148370057Y-85276390D01*
X148370056Y-85276389D01*
X148323229Y-85239943D01*
X148104614Y-85121635D01*
X148104603Y-85121630D01*
X147869493Y-85040916D01*
X147624293Y-85000000D01*
X147375707Y-85000000D01*
X147130506Y-85040916D01*
X146895396Y-85121630D01*
X146895390Y-85121632D01*
X146676761Y-85239949D01*
X146629942Y-85276388D01*
X135094550Y-85276388D01*
X135030826Y-85185380D01*
X134874620Y-85029174D01*
X134874616Y-85029171D01*
X134874615Y-85029170D01*
X134693666Y-84902468D01*
X134693658Y-84902464D01*
X134564811Y-84842382D01*
X134512371Y-84796210D01*
X134493219Y-84729017D01*
X134513435Y-84662135D01*
X134564811Y-84617618D01*
X134570802Y-84614824D01*
X134693662Y-84557534D01*
X134874620Y-84430826D01*
X135030826Y-84274620D01*
X135157534Y-84093662D01*
X135250894Y-83893450D01*
X135308070Y-83680068D01*
X135327323Y-83460000D01*
X135327285Y-83459571D01*
X135308070Y-83239937D01*
X135308070Y-83239932D01*
X135250894Y-83026550D01*
X135157534Y-82826339D01*
X135030826Y-82645380D01*
X134874620Y-82489174D01*
X134874616Y-82489171D01*
X134874615Y-82489170D01*
X134693666Y-82362468D01*
X134693658Y-82362464D01*
X134564811Y-82302382D01*
X134512371Y-82256210D01*
X134493219Y-82189017D01*
X134513435Y-82122135D01*
X134564811Y-82077618D01*
X134570802Y-82074824D01*
X134693662Y-82017534D01*
X134874620Y-81890826D01*
X135030826Y-81734620D01*
X135157534Y-81553662D01*
X135250894Y-81353450D01*
X135308070Y-81140068D01*
X135327323Y-80920000D01*
X135308070Y-80699932D01*
X135250894Y-80486550D01*
X135157534Y-80286339D01*
X135030826Y-80105380D01*
X134874620Y-79949174D01*
X134874616Y-79949171D01*
X134874615Y-79949170D01*
X134693666Y-79822468D01*
X134693658Y-79822464D01*
X134564811Y-79762382D01*
X134512371Y-79716210D01*
X134493219Y-79649017D01*
X134513435Y-79582135D01*
X134564811Y-79537618D01*
X134570802Y-79534824D01*
X134693662Y-79477534D01*
X134874620Y-79350826D01*
X135030826Y-79194620D01*
X135157534Y-79013662D01*
X135250894Y-78813450D01*
X135308070Y-78600068D01*
X135327323Y-78380000D01*
X135308070Y-78159932D01*
X135250894Y-77946550D01*
X135157534Y-77746339D01*
X135030826Y-77565380D01*
X134874620Y-77409174D01*
X134874616Y-77409171D01*
X134874615Y-77409170D01*
X134693666Y-77282468D01*
X134693658Y-77282464D01*
X134564811Y-77222382D01*
X134512371Y-77176210D01*
X134493219Y-77109017D01*
X134513435Y-77042135D01*
X134564811Y-76997618D01*
X134570802Y-76994824D01*
X134693662Y-76937534D01*
X134874620Y-76810826D01*
X135030826Y-76654620D01*
X135157534Y-76473662D01*
X135250894Y-76273450D01*
X135284637Y-76147517D01*
X135321002Y-76087858D01*
X135383849Y-76057329D01*
X135453224Y-76065624D01*
X135492093Y-76091931D01*
X137259981Y-77859819D01*
X137293466Y-77921142D01*
X137296300Y-77947500D01*
X137296300Y-79170481D01*
X137276615Y-79237520D01*
X137223811Y-79283275D01*
X137213257Y-79287522D01*
X137165014Y-79304403D01*
X137018632Y-79396382D01*
X136896382Y-79518632D01*
X136804402Y-79665016D01*
X136747301Y-79828204D01*
X136727945Y-79999996D01*
X136727945Y-80000003D01*
X136747301Y-80171795D01*
X136804402Y-80334983D01*
X136896382Y-80481367D01*
X136896383Y-80481368D01*
X137018632Y-80603617D01*
X137165018Y-80695598D01*
X137328202Y-80752698D01*
X137385468Y-80759150D01*
X137499996Y-80772055D01*
X137500000Y-80772055D01*
X137500004Y-80772055D01*
X137598170Y-80760993D01*
X137671798Y-80752698D01*
X137834982Y-80695598D01*
X137981368Y-80603617D01*
X138103617Y-80481368D01*
X138195598Y-80334982D01*
X138252698Y-80171798D01*
X138272055Y-80000000D01*
X138266328Y-79949175D01*
X138252698Y-79828204D01*
X138252698Y-79828202D01*
X138195598Y-79665018D01*
X138184479Y-79647323D01*
X138103617Y-79518632D01*
X138084981Y-79499996D01*
X145727945Y-79499996D01*
X145727945Y-79500003D01*
X145747301Y-79671795D01*
X145804402Y-79834983D01*
X145896382Y-79981367D01*
X146018632Y-80103617D01*
X146127140Y-80171798D01*
X146165018Y-80195598D01*
X146213254Y-80212476D01*
X146270030Y-80253197D01*
X146295778Y-80318150D01*
X146296300Y-80329518D01*
X146296300Y-81052732D01*
X146293818Y-81052732D01*
X146289115Y-81105297D01*
X146277534Y-81127717D01*
X146175826Y-81283393D01*
X146075936Y-81511118D01*
X146014892Y-81752175D01*
X146014890Y-81752187D01*
X145994357Y-81999994D01*
X145994357Y-82000005D01*
X146014890Y-82247812D01*
X146014892Y-82247824D01*
X146075936Y-82488881D01*
X146175826Y-82716606D01*
X146311833Y-82924782D01*
X146311836Y-82924785D01*
X146480256Y-83107738D01*
X146676491Y-83260474D01*
X146895190Y-83378828D01*
X147130386Y-83459571D01*
X147375665Y-83500500D01*
X147624335Y-83500500D01*
X147869614Y-83459571D01*
X148104810Y-83378828D01*
X148323509Y-83260474D01*
X148519744Y-83107738D01*
X148688164Y-82924785D01*
X148824173Y-82716607D01*
X148924063Y-82488881D01*
X148985108Y-82247821D01*
X148988082Y-82211930D01*
X149005643Y-82000005D01*
X149005643Y-81999994D01*
X148985109Y-81752187D01*
X148985107Y-81752175D01*
X148924063Y-81511118D01*
X148824173Y-81283393D01*
X148688166Y-81075217D01*
X148545280Y-80920002D01*
X148519744Y-80892262D01*
X148323509Y-80739526D01*
X148323507Y-80739525D01*
X148323506Y-80739524D01*
X148104811Y-80621172D01*
X148104802Y-80621169D01*
X147869616Y-80540429D01*
X147624335Y-80499500D01*
X147375665Y-80499500D01*
X147130383Y-80540429D01*
X146895197Y-80621169D01*
X146895183Y-80621175D01*
X146886717Y-80625757D01*
X146818389Y-80640352D01*
X146753017Y-80615689D01*
X146711356Y-80559598D01*
X146703700Y-80516702D01*
X146703700Y-80329518D01*
X146723385Y-80262479D01*
X146776189Y-80216724D01*
X146786740Y-80212478D01*
X146834982Y-80195598D01*
X146981368Y-80103617D01*
X147103617Y-79981368D01*
X147195598Y-79834982D01*
X147252698Y-79671798D01*
X147264067Y-79570894D01*
X147272055Y-79500003D01*
X147272055Y-79499996D01*
X147252698Y-79328204D01*
X147252698Y-79328202D01*
X147195598Y-79165018D01*
X147103617Y-79018632D01*
X146981368Y-78896383D01*
X146981367Y-78896382D01*
X146834983Y-78804402D01*
X146671795Y-78747301D01*
X146500004Y-78727945D01*
X146499996Y-78727945D01*
X146328204Y-78747301D01*
X146165016Y-78804402D01*
X146018632Y-78896382D01*
X145896382Y-79018632D01*
X145804402Y-79165016D01*
X145747301Y-79328204D01*
X145727945Y-79499996D01*
X138084981Y-79499996D01*
X137981367Y-79396382D01*
X137834984Y-79304403D01*
X137834985Y-79304403D01*
X137786743Y-79287522D01*
X137729968Y-79246799D01*
X137704222Y-79181846D01*
X137703700Y-79170481D01*
X137703700Y-77771245D01*
X137703698Y-77771240D01*
X137672691Y-77696378D01*
X137615386Y-77639073D01*
X135106542Y-75130230D01*
X135092648Y-75113672D01*
X135030827Y-75025381D01*
X135005442Y-74999996D01*
X134874620Y-74869174D01*
X134866204Y-74863281D01*
X134786322Y-74807346D01*
X134769765Y-74793453D01*
X134680167Y-74703855D01*
X134680165Y-74703852D01*
X134600774Y-74624461D01*
X134567289Y-74563138D01*
X134572273Y-74493446D01*
X134614145Y-74437513D01*
X134636040Y-74424403D01*
X134693662Y-74397534D01*
X134874620Y-74270826D01*
X135030826Y-74114620D01*
X135157534Y-73933662D01*
X135250894Y-73733450D01*
X135308070Y-73520068D01*
X135327323Y-73300000D01*
X135326231Y-73287522D01*
X135310646Y-73109379D01*
X135308070Y-73079932D01*
X135250894Y-72866550D01*
X135157534Y-72666339D01*
X135030826Y-72485380D01*
X134874620Y-72329174D01*
X134874616Y-72329171D01*
X134874615Y-72329170D01*
X134693666Y-72202468D01*
X134693658Y-72202464D01*
X134564811Y-72142382D01*
X134512371Y-72096210D01*
X134493219Y-72029017D01*
X134513435Y-71962135D01*
X134564811Y-71917618D01*
X134619189Y-71892261D01*
X134693662Y-71857534D01*
X134874620Y-71730826D01*
X135030826Y-71574620D01*
X135083080Y-71499994D01*
X152494357Y-71499994D01*
X152494357Y-71500000D01*
X152514890Y-71747812D01*
X152514892Y-71747824D01*
X152575936Y-71988881D01*
X152675826Y-72216606D01*
X152811833Y-72424782D01*
X152811836Y-72424785D01*
X152980256Y-72607738D01*
X153176491Y-72760474D01*
X153176493Y-72760475D01*
X153372498Y-72866548D01*
X153395190Y-72878828D01*
X153630386Y-72959571D01*
X153875665Y-73000500D01*
X154124335Y-73000500D01*
X154369614Y-72959571D01*
X154604810Y-72878828D01*
X154823509Y-72760474D01*
X154823519Y-72760465D01*
X154827802Y-72757669D01*
X154828915Y-72759372D01*
X154885813Y-72736924D01*
X154954353Y-72750490D01*
X154984664Y-72772739D01*
X155259981Y-73048056D01*
X155293466Y-73109379D01*
X155296300Y-73135737D01*
X155296300Y-73170481D01*
X155276615Y-73237520D01*
X155223811Y-73283275D01*
X155213257Y-73287522D01*
X155165014Y-73304403D01*
X155018632Y-73396382D01*
X154896382Y-73518632D01*
X154804402Y-73665016D01*
X154747301Y-73828204D01*
X154727945Y-73999996D01*
X154727945Y-74000003D01*
X154747301Y-74171795D01*
X154804402Y-74334983D01*
X154896382Y-74481367D01*
X155018632Y-74603617D01*
X155150401Y-74686414D01*
X155165018Y-74695598D01*
X155328202Y-74752698D01*
X155385468Y-74759150D01*
X155499996Y-74772055D01*
X155500000Y-74772055D01*
X155500004Y-74772055D01*
X155598170Y-74760993D01*
X155671798Y-74752698D01*
X155834982Y-74695598D01*
X155981368Y-74603617D01*
X156103617Y-74481368D01*
X156195598Y-74334982D01*
X156252698Y-74171798D01*
X156272055Y-74000000D01*
X156264580Y-73933662D01*
X156252698Y-73828204D01*
X156252698Y-73828202D01*
X156195598Y-73665018D01*
X156103617Y-73518632D01*
X155981368Y-73396383D01*
X155981367Y-73396382D01*
X155834984Y-73304403D01*
X155834985Y-73304403D01*
X155786743Y-73287522D01*
X155729968Y-73246799D01*
X155704222Y-73181846D01*
X155703700Y-73170481D01*
X155703700Y-72959482D01*
X155703698Y-72959477D01*
X155672691Y-72884615D01*
X155269126Y-72481050D01*
X155235641Y-72419727D01*
X155240625Y-72350035D01*
X155252999Y-72325547D01*
X155280385Y-72283630D01*
X155324173Y-72216607D01*
X155424063Y-71988881D01*
X155485108Y-71747821D01*
X155485761Y-71739949D01*
X155505643Y-71500000D01*
X155505643Y-71499994D01*
X155485109Y-71252187D01*
X155485107Y-71252175D01*
X155424063Y-71011118D01*
X155324173Y-70783393D01*
X155188166Y-70575217D01*
X155155681Y-70539929D01*
X155019744Y-70392262D01*
X154823509Y-70239526D01*
X154823507Y-70239525D01*
X154823506Y-70239524D01*
X154604811Y-70121172D01*
X154604802Y-70121169D01*
X154369616Y-70040429D01*
X154124335Y-69999500D01*
X153875665Y-69999500D01*
X153630383Y-70040429D01*
X153395197Y-70121169D01*
X153395188Y-70121172D01*
X153176493Y-70239524D01*
X152980257Y-70392261D01*
X152811833Y-70575217D01*
X152675826Y-70783393D01*
X152575936Y-71011118D01*
X152514892Y-71252175D01*
X152514890Y-71252187D01*
X152494357Y-71499994D01*
X135083080Y-71499994D01*
X135157534Y-71393662D01*
X135250894Y-71193450D01*
X135308070Y-70980068D01*
X135322509Y-70815017D01*
X135327323Y-70760002D01*
X135327323Y-70759997D01*
X135311157Y-70575217D01*
X135308070Y-70539932D01*
X135250894Y-70326550D01*
X135157534Y-70126339D01*
X135030826Y-69945380D01*
X134874620Y-69789174D01*
X134874616Y-69789171D01*
X134874615Y-69789170D01*
X134693666Y-69662468D01*
X134693658Y-69662464D01*
X134564811Y-69602382D01*
X134512371Y-69556210D01*
X134493219Y-69489017D01*
X134513435Y-69422135D01*
X134564811Y-69377618D01*
X134570802Y-69374824D01*
X134693662Y-69317534D01*
X134874620Y-69190826D01*
X135030826Y-69034620D01*
X135157534Y-68853662D01*
X135250894Y-68653450D01*
X135308070Y-68440068D01*
X135327323Y-68220000D01*
X135308070Y-67999932D01*
X135250894Y-67786550D01*
X135157534Y-67586339D01*
X135030826Y-67405380D01*
X134874620Y-67249174D01*
X134874616Y-67249171D01*
X134874615Y-67249170D01*
X134693666Y-67122468D01*
X134693658Y-67122464D01*
X134564811Y-67062382D01*
X134512371Y-67016210D01*
X134493219Y-66949017D01*
X134513435Y-66882135D01*
X134564811Y-66837618D01*
X134570802Y-66834824D01*
X134693662Y-66777534D01*
X134874620Y-66650826D01*
X135030826Y-66494620D01*
X135157534Y-66313662D01*
X135250894Y-66113450D01*
X135308070Y-65900068D01*
X135324120Y-65716607D01*
X135327323Y-65680002D01*
X135327323Y-65679997D01*
X135320103Y-65597474D01*
X135308070Y-65459932D01*
X135250894Y-65246550D01*
X135157534Y-65046339D01*
X135125083Y-64999994D01*
X140494357Y-64999994D01*
X140494357Y-65000000D01*
X140514890Y-65247812D01*
X140514892Y-65247824D01*
X140575936Y-65488881D01*
X140675826Y-65716606D01*
X140811833Y-65924782D01*
X140811836Y-65924785D01*
X140980256Y-66107738D01*
X141176491Y-66260474D01*
X141395190Y-66378828D01*
X141630386Y-66459571D01*
X141692708Y-66469970D01*
X141755593Y-66500419D01*
X141792034Y-66560034D01*
X141796300Y-66592279D01*
X141796300Y-67540517D01*
X141796301Y-67540523D01*
X141806536Y-67565234D01*
X141814003Y-67634704D01*
X141806345Y-67658320D01*
X141806702Y-67658445D01*
X141747301Y-67828204D01*
X141727945Y-67999996D01*
X141727945Y-68000000D01*
X141747301Y-68171795D01*
X141804402Y-68334983D01*
X141896382Y-68481367D01*
X141896383Y-68481368D01*
X142018632Y-68603617D01*
X142165018Y-68695598D01*
X142328202Y-68752698D01*
X142385468Y-68759150D01*
X142499996Y-68772055D01*
X142500000Y-68772055D01*
X142500004Y-68772055D01*
X142598170Y-68760993D01*
X142671798Y-68752698D01*
X142834982Y-68695598D01*
X142981368Y-68603617D01*
X143103617Y-68481368D01*
X143195598Y-68334982D01*
X143252698Y-68171798D01*
X143272055Y-68000000D01*
X143272047Y-67999932D01*
X143252698Y-67828204D01*
X143252698Y-67828202D01*
X143216100Y-67723609D01*
X153129942Y-67723609D01*
X153176768Y-67760055D01*
X153176770Y-67760056D01*
X153395385Y-67878364D01*
X153395396Y-67878369D01*
X153630506Y-67959083D01*
X153875707Y-68000000D01*
X154124293Y-68000000D01*
X154369493Y-67959083D01*
X154604603Y-67878369D01*
X154604614Y-67878364D01*
X154823228Y-67760057D01*
X154823231Y-67760055D01*
X154870056Y-67723609D01*
X154000000Y-66853553D01*
X153129942Y-67723609D01*
X143216100Y-67723609D01*
X143195598Y-67665018D01*
X143191389Y-67658320D01*
X143103617Y-67518632D01*
X142981367Y-67396382D01*
X142834983Y-67304402D01*
X142671795Y-67247301D01*
X142500004Y-67227945D01*
X142499996Y-67227945D01*
X142341583Y-67245793D01*
X142272761Y-67233738D01*
X142221382Y-67186389D01*
X142203700Y-67122573D01*
X142203700Y-66592279D01*
X142223385Y-66525240D01*
X142252520Y-66499994D01*
X152494859Y-66499994D01*
X152494859Y-66500005D01*
X152515385Y-66747729D01*
X152515387Y-66747738D01*
X152576412Y-66988717D01*
X152676266Y-67216364D01*
X152776564Y-67369882D01*
X153646447Y-66500000D01*
X153646447Y-66499999D01*
X154353553Y-66499999D01*
X154353553Y-66500001D01*
X155223434Y-67369882D01*
X155323731Y-67216369D01*
X155423587Y-66988717D01*
X155484612Y-66747738D01*
X155484614Y-66747729D01*
X155505141Y-66500005D01*
X155505141Y-66499994D01*
X155484614Y-66252270D01*
X155484612Y-66252261D01*
X155423587Y-66011282D01*
X155323731Y-65783630D01*
X155223434Y-65630116D01*
X154353553Y-66499999D01*
X153646447Y-66499999D01*
X152776564Y-65630116D01*
X152676267Y-65783632D01*
X152576412Y-66011282D01*
X152515387Y-66252261D01*
X152515385Y-66252270D01*
X152494859Y-66499994D01*
X142252520Y-66499994D01*
X142276189Y-66479485D01*
X142307290Y-66469970D01*
X142369614Y-66459571D01*
X142604810Y-66378828D01*
X142823509Y-66260474D01*
X143019744Y-66107738D01*
X143188164Y-65924785D01*
X143324173Y-65716607D01*
X143424063Y-65488881D01*
X143477874Y-65276388D01*
X153129942Y-65276388D01*
X153129942Y-65276390D01*
X154000000Y-66146447D01*
X154000001Y-66146447D01*
X154870057Y-65276390D01*
X154870056Y-65276389D01*
X154823229Y-65239943D01*
X154604614Y-65121635D01*
X154604603Y-65121630D01*
X154369493Y-65040916D01*
X154124293Y-65000000D01*
X153875707Y-65000000D01*
X153630506Y-65040916D01*
X153395396Y-65121630D01*
X153395390Y-65121632D01*
X153176761Y-65239949D01*
X153129942Y-65276388D01*
X143477874Y-65276388D01*
X143485108Y-65247821D01*
X143485214Y-65246550D01*
X143505643Y-65000000D01*
X143505643Y-64999994D01*
X143485109Y-64752187D01*
X143485107Y-64752175D01*
X143424063Y-64511118D01*
X143324173Y-64283393D01*
X143188166Y-64075217D01*
X143077149Y-63954621D01*
X143019744Y-63892262D01*
X142823509Y-63739526D01*
X142823507Y-63739525D01*
X142823506Y-63739524D01*
X142604811Y-63621172D01*
X142604802Y-63621169D01*
X142369616Y-63540429D01*
X142124335Y-63499500D01*
X141875665Y-63499500D01*
X141630383Y-63540429D01*
X141395197Y-63621169D01*
X141395188Y-63621172D01*
X141176493Y-63739524D01*
X140980257Y-63892261D01*
X140811833Y-64075217D01*
X140675826Y-64283393D01*
X140575936Y-64511118D01*
X140514892Y-64752175D01*
X140514890Y-64752187D01*
X140494357Y-64999994D01*
X135125083Y-64999994D01*
X135030826Y-64865380D01*
X134874620Y-64709174D01*
X134874616Y-64709171D01*
X134874615Y-64709170D01*
X134693666Y-64582468D01*
X134693658Y-64582464D01*
X134564811Y-64522382D01*
X134512371Y-64476210D01*
X134493219Y-64409017D01*
X134513435Y-64342135D01*
X134564811Y-64297618D01*
X134570802Y-64294824D01*
X134693662Y-64237534D01*
X134874620Y-64110826D01*
X135030826Y-63954620D01*
X135157534Y-63773662D01*
X135250894Y-63573450D01*
X135308070Y-63360068D01*
X135327323Y-63140000D01*
X135308070Y-62919932D01*
X135250894Y-62706550D01*
X135157534Y-62506339D01*
X135030826Y-62325380D01*
X134874620Y-62169174D01*
X134874616Y-62169171D01*
X134874615Y-62169170D01*
X134693666Y-62042468D01*
X134693658Y-62042464D01*
X134564811Y-61982382D01*
X134512371Y-61936210D01*
X134493219Y-61869017D01*
X134513435Y-61802135D01*
X134564811Y-61757618D01*
X134570802Y-61754824D01*
X134693662Y-61697534D01*
X134874620Y-61570826D01*
X135030826Y-61414620D01*
X135157534Y-61233662D01*
X135162222Y-61223609D01*
X141129942Y-61223609D01*
X141176768Y-61260055D01*
X141176770Y-61260056D01*
X141395385Y-61378364D01*
X141395396Y-61378369D01*
X141630506Y-61459083D01*
X141875707Y-61500000D01*
X142124293Y-61500000D01*
X142369493Y-61459083D01*
X142604603Y-61378369D01*
X142604614Y-61378364D01*
X142823228Y-61260057D01*
X142823231Y-61260055D01*
X142870056Y-61223609D01*
X142000000Y-60353553D01*
X141129942Y-61223609D01*
X135162222Y-61223609D01*
X135250894Y-61033450D01*
X135308070Y-60820068D01*
X135327323Y-60600000D01*
X135308070Y-60379932D01*
X135250894Y-60166550D01*
X135173228Y-59999994D01*
X140494859Y-59999994D01*
X140494859Y-60000005D01*
X140515385Y-60247729D01*
X140515387Y-60247738D01*
X140576412Y-60488717D01*
X140676266Y-60716364D01*
X140776564Y-60869882D01*
X141646447Y-60000000D01*
X141646447Y-59999999D01*
X142353553Y-59999999D01*
X142353553Y-60000001D01*
X143223434Y-60869882D01*
X143323731Y-60716369D01*
X143374776Y-60599997D01*
X160732677Y-60599997D01*
X160732677Y-60600002D01*
X160751929Y-60820062D01*
X160751930Y-60820070D01*
X160809104Y-61033445D01*
X160809105Y-61033447D01*
X160809106Y-61033450D01*
X160887010Y-61200517D01*
X160902466Y-61233662D01*
X160902468Y-61233666D01*
X161029170Y-61414615D01*
X161029175Y-61414621D01*
X161185378Y-61570824D01*
X161185384Y-61570829D01*
X161366333Y-61697531D01*
X161366335Y-61697532D01*
X161366338Y-61697534D01*
X161485748Y-61753215D01*
X161495189Y-61757618D01*
X161547628Y-61803790D01*
X161566780Y-61870984D01*
X161546564Y-61937865D01*
X161495189Y-61982382D01*
X161366340Y-62042465D01*
X161366338Y-62042466D01*
X161185377Y-62169175D01*
X161029175Y-62325377D01*
X160902466Y-62506338D01*
X160902465Y-62506340D01*
X160809107Y-62706548D01*
X160809104Y-62706554D01*
X160751930Y-62919929D01*
X160751929Y-62919937D01*
X160732677Y-63139997D01*
X160732677Y-63140002D01*
X160751929Y-63360062D01*
X160751930Y-63360070D01*
X160809104Y-63573445D01*
X160809105Y-63573447D01*
X160809106Y-63573450D01*
X160831358Y-63621169D01*
X160902466Y-63773662D01*
X160902468Y-63773666D01*
X161029170Y-63954615D01*
X161029175Y-63954621D01*
X161185378Y-64110824D01*
X161185384Y-64110829D01*
X161366333Y-64237531D01*
X161366335Y-64237532D01*
X161366338Y-64237534D01*
X161485748Y-64293215D01*
X161495189Y-64297618D01*
X161547628Y-64343790D01*
X161566780Y-64410984D01*
X161546564Y-64477865D01*
X161495189Y-64522382D01*
X161366340Y-64582465D01*
X161366338Y-64582466D01*
X161185377Y-64709175D01*
X161029175Y-64865377D01*
X160902466Y-65046338D01*
X160902465Y-65046340D01*
X160809107Y-65246548D01*
X160809104Y-65246554D01*
X160751930Y-65459929D01*
X160751929Y-65459937D01*
X160732677Y-65679997D01*
X160732677Y-65680002D01*
X160751929Y-65900062D01*
X160751930Y-65900070D01*
X160809104Y-66113445D01*
X160809105Y-66113447D01*
X160809106Y-66113450D01*
X160873839Y-66252270D01*
X160902466Y-66313662D01*
X160902468Y-66313666D01*
X161029170Y-66494615D01*
X161029175Y-66494621D01*
X161185378Y-66650824D01*
X161185384Y-66650829D01*
X161366333Y-66777531D01*
X161366335Y-66777532D01*
X161366338Y-66777534D01*
X161485748Y-66833215D01*
X161495189Y-66837618D01*
X161547628Y-66883790D01*
X161566780Y-66950984D01*
X161546564Y-67017865D01*
X161495189Y-67062382D01*
X161366340Y-67122465D01*
X161366338Y-67122466D01*
X161185377Y-67249175D01*
X161029175Y-67405377D01*
X160902466Y-67586338D01*
X160902465Y-67586340D01*
X160809107Y-67786548D01*
X160809104Y-67786554D01*
X160751930Y-67999929D01*
X160751929Y-67999937D01*
X160732677Y-68219997D01*
X160732677Y-68220002D01*
X160751929Y-68440062D01*
X160751930Y-68440070D01*
X160809104Y-68653445D01*
X160809105Y-68653447D01*
X160809106Y-68653450D01*
X160828760Y-68695598D01*
X160902466Y-68853662D01*
X160902468Y-68853666D01*
X161029170Y-69034615D01*
X161029175Y-69034621D01*
X161185378Y-69190824D01*
X161185384Y-69190829D01*
X161366333Y-69317531D01*
X161366335Y-69317532D01*
X161366338Y-69317534D01*
X161485748Y-69373215D01*
X161495189Y-69377618D01*
X161547628Y-69423790D01*
X161566780Y-69490984D01*
X161546564Y-69557865D01*
X161495189Y-69602382D01*
X161366340Y-69662465D01*
X161366338Y-69662466D01*
X161185377Y-69789175D01*
X161029175Y-69945377D01*
X160902466Y-70126338D01*
X160902465Y-70126340D01*
X160809107Y-70326548D01*
X160809104Y-70326554D01*
X160751930Y-70539929D01*
X160751929Y-70539937D01*
X160732677Y-70759997D01*
X160732677Y-70760002D01*
X160751929Y-70980062D01*
X160751930Y-70980070D01*
X160809104Y-71193445D01*
X160809105Y-71193447D01*
X160809106Y-71193450D01*
X160902466Y-71393662D01*
X160902468Y-71393666D01*
X161029170Y-71574615D01*
X161029175Y-71574621D01*
X161185378Y-71730824D01*
X161185384Y-71730829D01*
X161366333Y-71857531D01*
X161366335Y-71857532D01*
X161366338Y-71857534D01*
X161440811Y-71892261D01*
X161495189Y-71917618D01*
X161547628Y-71963790D01*
X161566780Y-72030984D01*
X161546564Y-72097865D01*
X161495189Y-72142382D01*
X161366340Y-72202465D01*
X161366338Y-72202466D01*
X161185377Y-72329175D01*
X161029175Y-72485377D01*
X160902466Y-72666338D01*
X160902465Y-72666340D01*
X160809107Y-72866548D01*
X160809104Y-72866554D01*
X160751930Y-73079929D01*
X160751929Y-73079937D01*
X160732677Y-73299997D01*
X160732677Y-73300002D01*
X160751929Y-73520062D01*
X160751930Y-73520070D01*
X160809104Y-73733445D01*
X160809105Y-73733447D01*
X160809106Y-73733450D01*
X160872725Y-73869882D01*
X160902466Y-73933662D01*
X160902468Y-73933666D01*
X161029170Y-74114615D01*
X161029175Y-74114621D01*
X161185378Y-74270824D01*
X161185384Y-74270829D01*
X161366333Y-74397531D01*
X161366335Y-74397532D01*
X161366338Y-74397534D01*
X161452074Y-74437513D01*
X161495189Y-74457618D01*
X161547628Y-74503790D01*
X161566780Y-74570984D01*
X161546564Y-74637865D01*
X161495189Y-74682382D01*
X161366340Y-74742465D01*
X161366338Y-74742466D01*
X161185377Y-74869175D01*
X161029175Y-75025377D01*
X160902466Y-75206338D01*
X160902465Y-75206340D01*
X160809107Y-75406548D01*
X160809104Y-75406554D01*
X160751930Y-75619929D01*
X160751929Y-75619937D01*
X160732677Y-75839997D01*
X160732677Y-75840002D01*
X160751929Y-76060062D01*
X160751930Y-76060070D01*
X160809104Y-76273445D01*
X160809105Y-76273447D01*
X160809106Y-76273450D01*
X160902466Y-76473662D01*
X160902468Y-76473666D01*
X161029170Y-76654615D01*
X161029175Y-76654621D01*
X161185378Y-76810824D01*
X161185384Y-76810829D01*
X161366333Y-76937531D01*
X161366335Y-76937532D01*
X161366338Y-76937534D01*
X161485748Y-76993215D01*
X161495189Y-76997618D01*
X161547628Y-77043790D01*
X161566780Y-77110984D01*
X161546564Y-77177865D01*
X161495189Y-77222382D01*
X161366340Y-77282465D01*
X161366338Y-77282466D01*
X161185377Y-77409175D01*
X161029175Y-77565377D01*
X160902466Y-77746338D01*
X160902465Y-77746340D01*
X160809107Y-77946548D01*
X160809104Y-77946554D01*
X160751930Y-78159929D01*
X160751929Y-78159937D01*
X160732677Y-78379997D01*
X160732677Y-78380002D01*
X160751929Y-78600062D01*
X160751930Y-78600070D01*
X160809104Y-78813445D01*
X160809105Y-78813447D01*
X160809106Y-78813450D01*
X160847778Y-78896382D01*
X160902466Y-79013662D01*
X160902468Y-79013666D01*
X161029170Y-79194615D01*
X161029175Y-79194621D01*
X161185378Y-79350824D01*
X161185384Y-79350829D01*
X161366333Y-79477531D01*
X161366335Y-79477532D01*
X161366338Y-79477534D01*
X161485748Y-79533215D01*
X161495189Y-79537618D01*
X161547628Y-79583790D01*
X161566780Y-79650984D01*
X161546564Y-79717865D01*
X161495189Y-79762382D01*
X161366340Y-79822465D01*
X161366338Y-79822466D01*
X161185377Y-79949175D01*
X161029175Y-80105377D01*
X160902466Y-80286338D01*
X160902465Y-80286340D01*
X160809107Y-80486548D01*
X160809104Y-80486554D01*
X160751930Y-80699929D01*
X160751929Y-80699937D01*
X160732677Y-80919997D01*
X160732677Y-80920002D01*
X160751929Y-81140062D01*
X160751930Y-81140070D01*
X160809104Y-81353445D01*
X160809105Y-81353447D01*
X160809106Y-81353450D01*
X160882628Y-81511119D01*
X160902466Y-81553662D01*
X160902468Y-81553666D01*
X161029170Y-81734615D01*
X161029175Y-81734621D01*
X161185378Y-81890824D01*
X161185384Y-81890829D01*
X161366333Y-82017531D01*
X161366335Y-82017532D01*
X161366338Y-82017534D01*
X161485748Y-82073215D01*
X161495189Y-82077618D01*
X161547628Y-82123790D01*
X161566780Y-82190984D01*
X161546564Y-82257865D01*
X161495189Y-82302382D01*
X161366340Y-82362465D01*
X161366338Y-82362466D01*
X161185377Y-82489175D01*
X161029175Y-82645377D01*
X160902466Y-82826338D01*
X160902465Y-82826340D01*
X160809107Y-83026548D01*
X160809104Y-83026554D01*
X160751930Y-83239929D01*
X160751929Y-83239937D01*
X160732677Y-83459997D01*
X160732677Y-83460002D01*
X160751929Y-83680062D01*
X160751930Y-83680070D01*
X160809104Y-83893445D01*
X160809105Y-83893447D01*
X160809106Y-83893450D01*
X160902466Y-84093662D01*
X160902468Y-84093666D01*
X161029170Y-84274615D01*
X161029175Y-84274621D01*
X161185378Y-84430824D01*
X161185384Y-84430829D01*
X161366333Y-84557531D01*
X161366335Y-84557532D01*
X161366338Y-84557534D01*
X161485748Y-84613215D01*
X161495189Y-84617618D01*
X161547628Y-84663790D01*
X161566780Y-84730984D01*
X161546564Y-84797865D01*
X161495189Y-84842382D01*
X161366340Y-84902465D01*
X161366338Y-84902466D01*
X161185377Y-85029175D01*
X161029175Y-85185377D01*
X160902466Y-85366338D01*
X160902465Y-85366340D01*
X160809107Y-85566548D01*
X160809104Y-85566554D01*
X160751930Y-85779929D01*
X160751929Y-85779937D01*
X160732677Y-85999997D01*
X160732677Y-86000002D01*
X160751929Y-86220062D01*
X160751930Y-86220070D01*
X160809104Y-86433445D01*
X160809105Y-86433447D01*
X160809106Y-86433450D01*
X160840139Y-86500000D01*
X160902466Y-86633662D01*
X160902468Y-86633666D01*
X161029170Y-86814615D01*
X161029175Y-86814621D01*
X161185378Y-86970824D01*
X161185384Y-86970829D01*
X161366333Y-87097531D01*
X161366335Y-87097532D01*
X161366338Y-87097534D01*
X161566550Y-87190894D01*
X161779932Y-87248070D01*
X161937123Y-87261822D01*
X161999998Y-87267323D01*
X162000000Y-87267323D01*
X162000002Y-87267323D01*
X162055017Y-87262509D01*
X162220068Y-87248070D01*
X162433450Y-87190894D01*
X162633662Y-87097534D01*
X162814620Y-86970826D01*
X162970826Y-86814620D01*
X163097534Y-86633662D01*
X163190894Y-86433450D01*
X163248070Y-86220068D01*
X163267323Y-86000000D01*
X163248070Y-85779932D01*
X163190894Y-85566550D01*
X163097534Y-85366339D01*
X162970826Y-85185380D01*
X162814620Y-85029174D01*
X162814616Y-85029171D01*
X162814615Y-85029170D01*
X162633666Y-84902468D01*
X162633658Y-84902464D01*
X162504811Y-84842382D01*
X162452371Y-84796210D01*
X162433219Y-84729017D01*
X162453435Y-84662135D01*
X162504811Y-84617618D01*
X162510802Y-84614824D01*
X162633662Y-84557534D01*
X162814620Y-84430826D01*
X162970826Y-84274620D01*
X163097534Y-84093662D01*
X163190894Y-83893450D01*
X163248070Y-83680068D01*
X163267323Y-83460000D01*
X163267285Y-83459571D01*
X163248070Y-83239937D01*
X163248070Y-83239932D01*
X163190894Y-83026550D01*
X163097534Y-82826339D01*
X162970826Y-82645380D01*
X162814620Y-82489174D01*
X162814616Y-82489171D01*
X162814615Y-82489170D01*
X162633666Y-82362468D01*
X162633658Y-82362464D01*
X162504811Y-82302382D01*
X162452371Y-82256210D01*
X162433219Y-82189017D01*
X162453435Y-82122135D01*
X162504811Y-82077618D01*
X162510802Y-82074824D01*
X162633662Y-82017534D01*
X162814620Y-81890826D01*
X162970826Y-81734620D01*
X163097534Y-81553662D01*
X163190894Y-81353450D01*
X163248070Y-81140068D01*
X163267323Y-80920000D01*
X163248070Y-80699932D01*
X163190894Y-80486550D01*
X163097534Y-80286339D01*
X162970826Y-80105380D01*
X162814620Y-79949174D01*
X162814616Y-79949171D01*
X162814615Y-79949170D01*
X162633666Y-79822468D01*
X162633658Y-79822464D01*
X162504811Y-79762382D01*
X162452371Y-79716210D01*
X162433219Y-79649017D01*
X162453435Y-79582135D01*
X162504811Y-79537618D01*
X162510802Y-79534824D01*
X162633662Y-79477534D01*
X162814620Y-79350826D01*
X162970826Y-79194620D01*
X163097534Y-79013662D01*
X163190894Y-78813450D01*
X163248070Y-78600068D01*
X163267323Y-78380000D01*
X163248070Y-78159932D01*
X163190894Y-77946550D01*
X163097534Y-77746339D01*
X162970826Y-77565380D01*
X162814620Y-77409174D01*
X162814616Y-77409171D01*
X162814615Y-77409170D01*
X162633666Y-77282468D01*
X162633658Y-77282464D01*
X162504811Y-77222382D01*
X162452371Y-77176210D01*
X162433219Y-77109017D01*
X162453435Y-77042135D01*
X162504811Y-76997618D01*
X162510802Y-76994824D01*
X162633662Y-76937534D01*
X162814620Y-76810826D01*
X162970826Y-76654620D01*
X163097534Y-76473662D01*
X163190894Y-76273450D01*
X163248070Y-76060068D01*
X163267323Y-75840000D01*
X163248070Y-75619932D01*
X163190894Y-75406550D01*
X163097534Y-75206339D01*
X162970826Y-75025380D01*
X162814620Y-74869174D01*
X162814616Y-74869171D01*
X162814615Y-74869170D01*
X162633666Y-74742468D01*
X162633658Y-74742464D01*
X162504811Y-74682382D01*
X162452371Y-74636210D01*
X162433219Y-74569017D01*
X162453435Y-74502135D01*
X162504811Y-74457618D01*
X162547926Y-74437513D01*
X162633662Y-74397534D01*
X162814620Y-74270826D01*
X162970826Y-74114620D01*
X163097534Y-73933662D01*
X163190894Y-73733450D01*
X163248070Y-73520068D01*
X163267323Y-73300000D01*
X163266231Y-73287522D01*
X163250646Y-73109379D01*
X163248070Y-73079932D01*
X163190894Y-72866550D01*
X163097534Y-72666339D01*
X162970826Y-72485380D01*
X162814620Y-72329174D01*
X162814616Y-72329171D01*
X162814615Y-72329170D01*
X162633666Y-72202468D01*
X162633658Y-72202464D01*
X162504811Y-72142382D01*
X162452371Y-72096210D01*
X162433219Y-72029017D01*
X162453435Y-71962135D01*
X162504811Y-71917618D01*
X162559189Y-71892261D01*
X162633662Y-71857534D01*
X162814620Y-71730826D01*
X162970826Y-71574620D01*
X163097534Y-71393662D01*
X163190894Y-71193450D01*
X163248070Y-70980068D01*
X163262509Y-70815017D01*
X163267323Y-70760002D01*
X163267323Y-70759997D01*
X163251157Y-70575217D01*
X163248070Y-70539932D01*
X163190894Y-70326550D01*
X163097534Y-70126339D01*
X162970826Y-69945380D01*
X162814620Y-69789174D01*
X162814616Y-69789171D01*
X162814615Y-69789170D01*
X162633666Y-69662468D01*
X162633658Y-69662464D01*
X162504811Y-69602382D01*
X162452371Y-69556210D01*
X162433219Y-69489017D01*
X162453435Y-69422135D01*
X162504811Y-69377618D01*
X162510802Y-69374824D01*
X162633662Y-69317534D01*
X162814620Y-69190826D01*
X162970826Y-69034620D01*
X163097534Y-68853662D01*
X163190894Y-68653450D01*
X163248070Y-68440068D01*
X163267323Y-68220000D01*
X163248070Y-67999932D01*
X163190894Y-67786550D01*
X163097534Y-67586339D01*
X162970826Y-67405380D01*
X162814620Y-67249174D01*
X162814616Y-67249171D01*
X162814615Y-67249170D01*
X162633666Y-67122468D01*
X162633658Y-67122464D01*
X162504811Y-67062382D01*
X162452371Y-67016210D01*
X162433219Y-66949017D01*
X162453435Y-66882135D01*
X162504811Y-66837618D01*
X162510802Y-66834824D01*
X162633662Y-66777534D01*
X162814620Y-66650826D01*
X162970826Y-66494620D01*
X163097534Y-66313662D01*
X163190894Y-66113450D01*
X163248070Y-65900068D01*
X163264120Y-65716607D01*
X163267323Y-65680002D01*
X163267323Y-65679997D01*
X163260103Y-65597474D01*
X163248070Y-65459932D01*
X163190894Y-65246550D01*
X163097534Y-65046339D01*
X162970826Y-64865380D01*
X162814620Y-64709174D01*
X162814616Y-64709171D01*
X162814615Y-64709170D01*
X162633666Y-64582468D01*
X162633658Y-64582464D01*
X162504811Y-64522382D01*
X162452371Y-64476210D01*
X162433219Y-64409017D01*
X162453435Y-64342135D01*
X162504811Y-64297618D01*
X162510802Y-64294824D01*
X162633662Y-64237534D01*
X162814620Y-64110826D01*
X162970826Y-63954620D01*
X163097534Y-63773662D01*
X163190894Y-63573450D01*
X163248070Y-63360068D01*
X163267323Y-63140000D01*
X163248070Y-62919932D01*
X163190894Y-62706550D01*
X163097534Y-62506339D01*
X162970826Y-62325380D01*
X162814620Y-62169174D01*
X162814616Y-62169171D01*
X162814615Y-62169170D01*
X162633666Y-62042468D01*
X162633658Y-62042464D01*
X162504811Y-61982382D01*
X162452371Y-61936210D01*
X162433219Y-61869017D01*
X162453435Y-61802135D01*
X162504811Y-61757618D01*
X162510802Y-61754824D01*
X162633662Y-61697534D01*
X162814620Y-61570826D01*
X162970826Y-61414620D01*
X163097534Y-61233662D01*
X163190894Y-61033450D01*
X163248070Y-60820068D01*
X163267323Y-60600000D01*
X163248070Y-60379932D01*
X163190894Y-60166550D01*
X163097534Y-59966339D01*
X162970826Y-59785380D01*
X162814620Y-59629174D01*
X162814616Y-59629171D01*
X162814615Y-59629170D01*
X162698085Y-59547575D01*
X162654460Y-59492998D01*
X162647266Y-59423500D01*
X162678789Y-59361145D01*
X162739019Y-59325731D01*
X162769208Y-59322000D01*
X162809828Y-59322000D01*
X162809844Y-59321999D01*
X162869372Y-59315598D01*
X162869379Y-59315596D01*
X163004086Y-59265354D01*
X163004093Y-59265350D01*
X163119187Y-59179190D01*
X163119190Y-59179187D01*
X163205350Y-59064093D01*
X163205354Y-59064086D01*
X163255596Y-58929379D01*
X163255598Y-58929372D01*
X163261999Y-58869844D01*
X163262000Y-58869827D01*
X163262000Y-58310000D01*
X162442251Y-58310000D01*
X162473381Y-58256081D01*
X162508000Y-58126880D01*
X162508000Y-57993120D01*
X162473381Y-57863919D01*
X162442251Y-57810000D01*
X163262000Y-57810000D01*
X163262000Y-57250172D01*
X163261999Y-57250155D01*
X163255598Y-57190627D01*
X163255596Y-57190620D01*
X163205354Y-57055913D01*
X163205350Y-57055906D01*
X163119190Y-56940812D01*
X163119187Y-56940809D01*
X163004093Y-56854649D01*
X163004086Y-56854645D01*
X162869379Y-56804403D01*
X162869372Y-56804401D01*
X162809844Y-56798000D01*
X162250000Y-56798000D01*
X162250000Y-57617748D01*
X162196081Y-57586619D01*
X162066880Y-57552000D01*
X161933120Y-57552000D01*
X161803919Y-57586619D01*
X161750000Y-57617748D01*
X161750000Y-56798000D01*
X161190155Y-56798000D01*
X161130627Y-56804401D01*
X161130620Y-56804403D01*
X160995913Y-56854645D01*
X160995906Y-56854649D01*
X160880812Y-56940809D01*
X160880809Y-56940812D01*
X160794649Y-57055906D01*
X160794645Y-57055913D01*
X160744403Y-57190620D01*
X160744401Y-57190627D01*
X160738000Y-57250155D01*
X160738000Y-57810000D01*
X161557749Y-57810000D01*
X161526619Y-57863919D01*
X161492000Y-57993120D01*
X161492000Y-58126880D01*
X161526619Y-58256081D01*
X161557749Y-58310000D01*
X160738000Y-58310000D01*
X160738000Y-58869844D01*
X160744401Y-58929372D01*
X160744403Y-58929379D01*
X160794645Y-59064086D01*
X160794649Y-59064093D01*
X160880809Y-59179187D01*
X160880812Y-59179190D01*
X160995906Y-59265350D01*
X160995913Y-59265354D01*
X161130620Y-59315596D01*
X161130627Y-59315598D01*
X161190155Y-59321999D01*
X161190172Y-59322000D01*
X161230793Y-59322000D01*
X161297832Y-59341685D01*
X161343587Y-59394489D01*
X161353531Y-59463647D01*
X161324506Y-59527203D01*
X161301916Y-59547575D01*
X161185377Y-59629175D01*
X161029175Y-59785377D01*
X160902466Y-59966338D01*
X160902465Y-59966340D01*
X160809107Y-60166548D01*
X160809104Y-60166554D01*
X160751930Y-60379929D01*
X160751929Y-60379937D01*
X160732677Y-60599997D01*
X143374776Y-60599997D01*
X143423587Y-60488717D01*
X143484612Y-60247738D01*
X143484614Y-60247729D01*
X143505141Y-60000005D01*
X143505141Y-59999994D01*
X143484614Y-59752270D01*
X143484612Y-59752261D01*
X143423587Y-59511282D01*
X143323731Y-59283630D01*
X143223434Y-59130116D01*
X142353553Y-59999999D01*
X141646447Y-59999999D01*
X140776564Y-59130116D01*
X140676267Y-59283632D01*
X140576412Y-59511282D01*
X140515387Y-59752261D01*
X140515385Y-59752270D01*
X140494859Y-59999994D01*
X135173228Y-59999994D01*
X135157534Y-59966339D01*
X135030826Y-59785380D01*
X134874620Y-59629174D01*
X134874616Y-59629171D01*
X134874615Y-59629170D01*
X134758085Y-59547575D01*
X134714460Y-59492998D01*
X134707266Y-59423500D01*
X134738789Y-59361145D01*
X134799019Y-59325731D01*
X134829208Y-59322000D01*
X134869828Y-59322000D01*
X134869844Y-59321999D01*
X134929372Y-59315598D01*
X134929379Y-59315596D01*
X135064086Y-59265354D01*
X135064093Y-59265350D01*
X135179187Y-59179190D01*
X135179190Y-59179187D01*
X135265350Y-59064093D01*
X135265354Y-59064086D01*
X135315596Y-58929379D01*
X135315598Y-58929372D01*
X135321999Y-58869844D01*
X135322000Y-58869827D01*
X135322000Y-58776388D01*
X141129942Y-58776388D01*
X141129942Y-58776390D01*
X142000000Y-59646447D01*
X142000001Y-59646447D01*
X142870057Y-58776390D01*
X142870056Y-58776389D01*
X142823229Y-58739943D01*
X142604614Y-58621635D01*
X142604603Y-58621630D01*
X142369493Y-58540916D01*
X142124293Y-58500000D01*
X141875707Y-58500000D01*
X141630506Y-58540916D01*
X141395396Y-58621630D01*
X141395390Y-58621632D01*
X141176761Y-58739949D01*
X141129942Y-58776388D01*
X135322000Y-58776388D01*
X135322000Y-58310000D01*
X134502251Y-58310000D01*
X134533381Y-58256081D01*
X134568000Y-58126880D01*
X134568000Y-57993120D01*
X134533381Y-57863919D01*
X134502251Y-57810000D01*
X135322000Y-57810000D01*
X135322000Y-57250172D01*
X135321999Y-57250155D01*
X135315598Y-57190627D01*
X135315596Y-57190620D01*
X135265354Y-57055913D01*
X135265350Y-57055906D01*
X135179190Y-56940812D01*
X135179187Y-56940809D01*
X135064093Y-56854649D01*
X135064086Y-56854645D01*
X134929379Y-56804403D01*
X134929372Y-56804401D01*
X134869844Y-56798000D01*
X134310000Y-56798000D01*
X134310000Y-57617748D01*
X134256081Y-57586619D01*
X134126880Y-57552000D01*
X133993120Y-57552000D01*
X133863919Y-57586619D01*
X133810000Y-57617748D01*
X133810000Y-56798000D01*
X133250155Y-56798000D01*
X133190627Y-56804401D01*
X133190620Y-56804403D01*
X133055913Y-56854645D01*
X133055906Y-56854649D01*
X132940812Y-56940809D01*
X132940809Y-56940812D01*
X132854649Y-57055906D01*
X132854645Y-57055913D01*
X132804403Y-57190620D01*
X132804401Y-57190627D01*
X132798000Y-57250155D01*
X132798000Y-57810000D01*
X133617749Y-57810000D01*
X133586619Y-57863919D01*
X133552000Y-57993120D01*
X133552000Y-58126880D01*
X133586619Y-58256081D01*
X133617749Y-58310000D01*
X132798000Y-58310000D01*
X132798000Y-58869844D01*
X132804401Y-58929372D01*
X132804403Y-58929379D01*
X132854645Y-59064086D01*
X132854649Y-59064093D01*
X132940809Y-59179187D01*
X132940812Y-59179190D01*
X133055906Y-59265350D01*
X133055913Y-59265354D01*
X133190620Y-59315596D01*
X133190627Y-59315598D01*
X133250155Y-59321999D01*
X133250172Y-59322000D01*
X133290793Y-59322000D01*
X133357832Y-59341685D01*
X133403587Y-59394489D01*
X133413531Y-59463647D01*
X133384506Y-59527203D01*
X133361916Y-59547575D01*
X133245377Y-59629175D01*
X133089175Y-59785377D01*
X132962466Y-59966338D01*
X132962465Y-59966340D01*
X132869107Y-60166548D01*
X132869104Y-60166554D01*
X132811930Y-60379929D01*
X132811929Y-60379937D01*
X132792677Y-60599997D01*
X132792677Y-60600002D01*
X132811929Y-60820062D01*
X132811930Y-60820070D01*
X132869104Y-61033445D01*
X132869105Y-61033447D01*
X132869106Y-61033450D01*
X132947010Y-61200517D01*
X132962466Y-61233662D01*
X132962468Y-61233666D01*
X133089170Y-61414615D01*
X133089175Y-61414621D01*
X133245378Y-61570824D01*
X133245384Y-61570829D01*
X133426333Y-61697531D01*
X133426335Y-61697532D01*
X133426338Y-61697534D01*
X133545748Y-61753215D01*
X133555189Y-61757618D01*
X133607628Y-61803790D01*
X133626780Y-61870984D01*
X133606564Y-61937865D01*
X133555189Y-61982382D01*
X133426340Y-62042465D01*
X133426338Y-62042466D01*
X133245377Y-62169175D01*
X133089175Y-62325377D01*
X132962466Y-62506338D01*
X132962465Y-62506340D01*
X132869107Y-62706548D01*
X132869104Y-62706554D01*
X132811930Y-62919929D01*
X132811929Y-62919937D01*
X132792677Y-63139997D01*
X132792677Y-63140002D01*
X132811929Y-63360062D01*
X132811930Y-63360070D01*
X132869104Y-63573445D01*
X132869105Y-63573447D01*
X132869106Y-63573450D01*
X132891358Y-63621169D01*
X132962466Y-63773662D01*
X132962468Y-63773666D01*
X133089170Y-63954615D01*
X133089175Y-63954621D01*
X133245378Y-64110824D01*
X133245384Y-64110829D01*
X133426333Y-64237531D01*
X133426335Y-64237532D01*
X133426338Y-64237534D01*
X133545748Y-64293215D01*
X133555189Y-64297618D01*
X133607628Y-64343790D01*
X133626780Y-64410984D01*
X133606564Y-64477865D01*
X133555189Y-64522382D01*
X133426340Y-64582465D01*
X133426338Y-64582466D01*
X133245377Y-64709175D01*
X133089175Y-64865377D01*
X132962466Y-65046338D01*
X132962465Y-65046340D01*
X132869107Y-65246548D01*
X132869104Y-65246554D01*
X132811930Y-65459929D01*
X132811929Y-65459937D01*
X132792677Y-65679997D01*
X132792677Y-65680002D01*
X132811929Y-65900062D01*
X132811930Y-65900070D01*
X132869104Y-66113445D01*
X132869105Y-66113447D01*
X132869106Y-66113450D01*
X132933839Y-66252270D01*
X132962466Y-66313662D01*
X132962468Y-66313666D01*
X133089170Y-66494615D01*
X133089175Y-66494621D01*
X133245378Y-66650824D01*
X133245384Y-66650829D01*
X133426333Y-66777531D01*
X133426335Y-66777532D01*
X133426338Y-66777534D01*
X133545748Y-66833215D01*
X133555189Y-66837618D01*
X133607628Y-66883790D01*
X133626780Y-66950984D01*
X133606564Y-67017865D01*
X133555189Y-67062382D01*
X133426337Y-67122467D01*
X133408169Y-67135188D01*
X133341962Y-67157514D01*
X133274196Y-67140501D01*
X133249367Y-67121292D01*
X127240019Y-61111944D01*
X127206534Y-61050621D01*
X127203700Y-61024263D01*
X127203700Y-58054961D01*
X127203701Y-58054952D01*
X127203701Y-57959483D01*
X127203701Y-57959482D01*
X127172689Y-57884614D01*
X127172689Y-57884613D01*
X127115387Y-57827311D01*
X127108322Y-57820246D01*
X127108315Y-57820240D01*
X125730130Y-56442055D01*
X125730128Y-56442052D01*
X125655384Y-56367308D01*
X125580522Y-56336301D01*
X125580520Y-56336300D01*
X125580519Y-56336300D01*
X125580517Y-56336300D01*
X123438708Y-56336300D01*
X123371669Y-56316615D01*
X123325914Y-56263811D01*
X123318933Y-56244393D01*
X123273905Y-56076344D01*
X123273904Y-56076343D01*
X123273903Y-56076337D01*
X123174035Y-55862171D01*
X123110935Y-55772055D01*
X123038496Y-55668600D01*
X123038495Y-55668599D01*
X122916179Y-55546283D01*
X122882696Y-55484963D01*
X122887680Y-55415271D01*
X122929551Y-55359337D01*
X122960529Y-55342422D01*
X123092086Y-55293354D01*
X123092093Y-55293350D01*
X123207187Y-55207190D01*
X123207190Y-55207187D01*
X123293350Y-55092093D01*
X123293354Y-55092086D01*
X123343596Y-54957379D01*
X123343598Y-54957372D01*
X123349999Y-54897844D01*
X123350000Y-54897827D01*
X123350000Y-54250000D01*
X122433012Y-54250000D01*
X122465925Y-54192993D01*
X122500000Y-54065826D01*
X122500000Y-53934174D01*
X122465925Y-53807007D01*
X122433012Y-53750000D01*
X123350000Y-53750000D01*
X123350000Y-53102172D01*
X123349999Y-53102155D01*
X123343598Y-53042627D01*
X123343596Y-53042620D01*
X123293354Y-52907913D01*
X123293350Y-52907906D01*
X123207190Y-52792812D01*
X123207187Y-52792809D01*
X123092093Y-52706649D01*
X123092086Y-52706645D01*
X122957379Y-52656403D01*
X122957372Y-52656401D01*
X122897844Y-52650000D01*
X122250000Y-52650000D01*
X122250000Y-53566988D01*
X122192993Y-53534075D01*
X122065826Y-53500000D01*
X121934174Y-53500000D01*
X121807007Y-53534075D01*
X121750000Y-53566988D01*
X121750000Y-52650000D01*
X121102155Y-52650000D01*
X121042627Y-52656401D01*
X121042620Y-52656403D01*
X120907913Y-52706645D01*
X120907906Y-52706649D01*
X120792812Y-52792809D01*
X120792809Y-52792812D01*
X120706649Y-52907906D01*
X120706645Y-52907913D01*
X120656403Y-53042620D01*
X120656401Y-53042627D01*
X120650000Y-53102155D01*
X120650000Y-53750000D01*
X121566988Y-53750000D01*
X121534075Y-53807007D01*
X121500000Y-53934174D01*
X121500000Y-54065826D01*
X121534075Y-54192993D01*
X121566988Y-54250000D01*
X120650000Y-54250000D01*
X120650000Y-54897844D01*
X120656401Y-54957372D01*
X120656403Y-54957379D01*
X120706645Y-55092086D01*
X120706649Y-55092093D01*
X120792809Y-55207187D01*
X120792812Y-55207190D01*
X120907906Y-55293350D01*
X120907913Y-55293354D01*
X121039470Y-55342421D01*
X121095403Y-55384292D01*
X121119821Y-55449756D01*
X121104970Y-55518029D01*
X121083819Y-55546284D01*
X120961503Y-55668600D01*
X120825965Y-55862169D01*
X120825964Y-55862171D01*
X120726098Y-56076335D01*
X120726094Y-56076344D01*
X120664938Y-56304586D01*
X120664936Y-56304596D01*
X120644341Y-56539999D01*
X117381500Y-56539999D01*
X117381500Y-54209384D01*
X117401185Y-54142345D01*
X117417819Y-54121703D01*
X123121703Y-48417819D01*
X123183026Y-48384334D01*
X123209384Y-48381500D01*
X125290615Y-48381500D01*
X125357654Y-48401185D01*
X125378296Y-48417819D01*
X128082181Y-51121704D01*
X128115666Y-51183027D01*
X128118500Y-51209385D01*
X128118500Y-52765098D01*
X128098815Y-52832137D01*
X128060473Y-52870091D01*
X128018635Y-52896379D01*
X127896382Y-53018632D01*
X127804402Y-53165016D01*
X127747301Y-53328204D01*
X127727945Y-53499996D01*
X127727945Y-53500003D01*
X127747301Y-53671795D01*
X127804402Y-53834983D01*
X127896382Y-53981367D01*
X128018632Y-54103617D01*
X128105216Y-54158022D01*
X128165018Y-54195598D01*
X128328202Y-54252698D01*
X128385468Y-54259150D01*
X128499996Y-54272055D01*
X128500000Y-54272055D01*
X128500004Y-54272055D01*
X128598170Y-54260993D01*
X128671798Y-54252698D01*
X128834982Y-54195598D01*
X128981368Y-54103617D01*
X129103617Y-53981368D01*
X129195598Y-53834982D01*
X129252698Y-53671798D01*
X129262376Y-53585899D01*
X129266273Y-53551317D01*
X133257966Y-53551317D01*
X133257966Y-53551322D01*
X133277048Y-53903274D01*
X133318812Y-54158022D01*
X133333890Y-54250000D01*
X133334073Y-54251113D01*
X133334074Y-54251116D01*
X133428366Y-54590728D01*
X133428367Y-54590730D01*
X133558828Y-54918164D01*
X133558837Y-54918182D01*
X133693296Y-55171798D01*
X133723935Y-55229589D01*
X133919502Y-55518029D01*
X133921738Y-55521326D01*
X133921745Y-55521336D01*
X134118267Y-55752698D01*
X134149926Y-55789970D01*
X134405820Y-56032366D01*
X134686422Y-56245674D01*
X134988442Y-56427394D01*
X134988446Y-56427395D01*
X134988450Y-56427398D01*
X135308328Y-56575390D01*
X135308332Y-56575390D01*
X135308339Y-56575394D01*
X135642362Y-56687939D01*
X135986595Y-56763711D01*
X136337003Y-56801820D01*
X136337009Y-56801820D01*
X136689471Y-56801820D01*
X136689477Y-56801820D01*
X137039885Y-56763711D01*
X137384118Y-56687939D01*
X137718141Y-56575394D01*
X137718148Y-56575390D01*
X137718151Y-56575390D01*
X138038029Y-56427398D01*
X138038038Y-56427394D01*
X138340058Y-56245674D01*
X138620660Y-56032366D01*
X138876554Y-55789970D01*
X139104741Y-55521328D01*
X139302545Y-55229589D01*
X139467647Y-54918174D01*
X139598111Y-54590734D01*
X139692408Y-54251108D01*
X139749431Y-53903277D01*
X139768514Y-53551320D01*
X139768514Y-53551317D01*
X156257966Y-53551317D01*
X156257966Y-53551322D01*
X156277048Y-53903274D01*
X156318812Y-54158022D01*
X156333890Y-54250000D01*
X156334073Y-54251113D01*
X156334074Y-54251116D01*
X156428366Y-54590728D01*
X156428367Y-54590730D01*
X156558828Y-54918164D01*
X156558837Y-54918182D01*
X156693296Y-55171798D01*
X156723935Y-55229589D01*
X156919502Y-55518029D01*
X156921738Y-55521326D01*
X156921745Y-55521336D01*
X157118267Y-55752698D01*
X157149926Y-55789970D01*
X157405820Y-56032366D01*
X157686422Y-56245674D01*
X157988442Y-56427394D01*
X157988446Y-56427395D01*
X157988450Y-56427398D01*
X158308328Y-56575390D01*
X158308332Y-56575390D01*
X158308339Y-56575394D01*
X158642362Y-56687939D01*
X158986595Y-56763711D01*
X159337003Y-56801820D01*
X159337009Y-56801820D01*
X159689471Y-56801820D01*
X159689477Y-56801820D01*
X160039885Y-56763711D01*
X160384118Y-56687939D01*
X160718141Y-56575394D01*
X160718148Y-56575390D01*
X160718151Y-56575390D01*
X161038029Y-56427398D01*
X161038038Y-56427394D01*
X161340058Y-56245674D01*
X161620660Y-56032366D01*
X161876554Y-55789970D01*
X162104741Y-55521328D01*
X162302545Y-55229589D01*
X162467647Y-54918174D01*
X162598111Y-54590734D01*
X162692408Y-54251108D01*
X162749431Y-53903277D01*
X162768514Y-53551320D01*
X162765731Y-53500000D01*
X162749431Y-53199365D01*
X162749431Y-53199363D01*
X162692408Y-52851532D01*
X162636453Y-52650000D01*
X162598113Y-52511911D01*
X162598112Y-52511909D01*
X162467651Y-52184475D01*
X162467642Y-52184457D01*
X162302544Y-51873050D01*
X162104741Y-51581312D01*
X162104737Y-51581307D01*
X162104734Y-51581303D01*
X161876554Y-51312670D01*
X161767517Y-51209385D01*
X161620660Y-51070274D01*
X161620653Y-51070268D01*
X161620650Y-51070266D01*
X161340055Y-50856964D01*
X161038042Y-50675248D01*
X161038029Y-50675241D01*
X160718151Y-50527249D01*
X160718146Y-50527248D01*
X160718143Y-50527247D01*
X160718141Y-50527246D01*
X160611672Y-50491372D01*
X160384120Y-50414701D01*
X160039883Y-50338928D01*
X159689478Y-50300820D01*
X159689477Y-50300820D01*
X159337003Y-50300820D01*
X159337001Y-50300820D01*
X158986596Y-50338928D01*
X158642359Y-50414701D01*
X158308333Y-50527248D01*
X158308328Y-50527249D01*
X157988450Y-50675241D01*
X157988437Y-50675248D01*
X157686424Y-50856964D01*
X157405829Y-51070266D01*
X157405820Y-51070274D01*
X157149925Y-51312670D01*
X156921745Y-51581303D01*
X156921738Y-51581313D01*
X156723935Y-51873050D01*
X156558837Y-52184457D01*
X156558828Y-52184475D01*
X156428367Y-52511909D01*
X156428366Y-52511911D01*
X156334074Y-52851523D01*
X156334073Y-52851526D01*
X156277048Y-53199365D01*
X156257966Y-53551317D01*
X139768514Y-53551317D01*
X139765731Y-53500000D01*
X139749431Y-53199365D01*
X139749431Y-53199363D01*
X139692408Y-52851532D01*
X139636453Y-52650000D01*
X139598113Y-52511911D01*
X139598112Y-52511909D01*
X139467651Y-52184475D01*
X139467642Y-52184457D01*
X139302544Y-51873050D01*
X139104741Y-51581312D01*
X139104737Y-51581307D01*
X139104734Y-51581303D01*
X138876554Y-51312670D01*
X138767517Y-51209385D01*
X138620660Y-51070274D01*
X138620653Y-51070268D01*
X138620650Y-51070266D01*
X138340055Y-50856964D01*
X138038042Y-50675248D01*
X138038029Y-50675241D01*
X137718151Y-50527249D01*
X137718146Y-50527248D01*
X137718143Y-50527247D01*
X137718141Y-50527246D01*
X137611672Y-50491372D01*
X137384120Y-50414701D01*
X137039883Y-50338928D01*
X136689478Y-50300820D01*
X136689477Y-50300820D01*
X136337003Y-50300820D01*
X136337001Y-50300820D01*
X135986596Y-50338928D01*
X135642359Y-50414701D01*
X135308333Y-50527248D01*
X135308328Y-50527249D01*
X134988450Y-50675241D01*
X134988437Y-50675248D01*
X134686424Y-50856964D01*
X134405829Y-51070266D01*
X134405820Y-51070274D01*
X134149925Y-51312670D01*
X133921745Y-51581303D01*
X133921738Y-51581313D01*
X133723935Y-51873050D01*
X133558837Y-52184457D01*
X133558828Y-52184475D01*
X133428367Y-52511909D01*
X133428366Y-52511911D01*
X133334074Y-52851523D01*
X133334073Y-52851526D01*
X133277048Y-53199365D01*
X133257966Y-53551317D01*
X129266273Y-53551317D01*
X129272055Y-53500003D01*
X129272055Y-53499996D01*
X129252698Y-53328204D01*
X129252698Y-53328202D01*
X129195598Y-53165018D01*
X129103617Y-53018632D01*
X128981368Y-52896383D01*
X128981364Y-52896379D01*
X128939527Y-52870091D01*
X128893236Y-52817756D01*
X128881500Y-52765098D01*
X128881500Y-51060227D01*
X128881501Y-51060214D01*
X128881501Y-50949777D01*
X128881501Y-50949775D01*
X128855502Y-50852747D01*
X128805276Y-50765753D01*
X125734247Y-47694724D01*
X125647254Y-47644499D01*
X125647255Y-47644499D01*
X125622996Y-47637999D01*
X125550225Y-47618500D01*
X122949775Y-47618500D01*
X122877003Y-47637999D01*
X122852745Y-47644499D01*
X122765754Y-47694723D01*
X122765751Y-47694725D01*
X122694722Y-47765755D01*
X116748312Y-53712164D01*
X116748311Y-53712164D01*
X116748312Y-53712165D01*
X116694722Y-53765754D01*
X116644499Y-53852745D01*
X116644499Y-53852746D01*
X116618500Y-53949775D01*
X116618500Y-53949777D01*
X116618500Y-74265098D01*
X116598815Y-74332137D01*
X116560473Y-74370091D01*
X116518635Y-74396379D01*
X116396382Y-74518632D01*
X116304402Y-74665016D01*
X116247301Y-74828204D01*
X116227945Y-74999996D01*
X115000000Y-74999996D01*
X115000000Y-36881995D01*
X116699500Y-36881995D01*
X116699500Y-37118004D01*
X116699501Y-37118020D01*
X116730306Y-37352010D01*
X116791394Y-37579993D01*
X116881714Y-37798045D01*
X116881719Y-37798056D01*
X116952677Y-37920957D01*
X116999727Y-38002450D01*
X116999729Y-38002453D01*
X116999730Y-38002454D01*
X117143406Y-38189697D01*
X117143412Y-38189704D01*
X117310295Y-38356587D01*
X117310301Y-38356592D01*
X117497550Y-38500273D01*
X117628918Y-38576118D01*
X117701943Y-38618280D01*
X117701948Y-38618282D01*
X117701951Y-38618284D01*
X117920007Y-38708606D01*
X118147986Y-38769693D01*
X118381989Y-38800500D01*
X118381996Y-38800500D01*
X118618004Y-38800500D01*
X118618011Y-38800500D01*
X118852014Y-38769693D01*
X119079993Y-38708606D01*
X119298049Y-38618284D01*
X119502450Y-38500273D01*
X119689699Y-38356592D01*
X119856592Y-38189699D01*
X120000273Y-38002450D01*
X120118284Y-37798049D01*
X120208606Y-37579993D01*
X120269693Y-37352014D01*
X120300500Y-37118011D01*
X120300500Y-36881989D01*
X120269693Y-36647986D01*
X120208606Y-36420007D01*
X120118284Y-36201951D01*
X120118282Y-36201948D01*
X120118280Y-36201943D01*
X120076118Y-36128918D01*
X120000273Y-35997550D01*
X119856592Y-35810301D01*
X119856587Y-35810295D01*
X119689704Y-35643412D01*
X119689697Y-35643406D01*
X119502454Y-35499730D01*
X119502453Y-35499729D01*
X119502450Y-35499727D01*
X119420957Y-35452677D01*
X119298056Y-35381719D01*
X119298045Y-35381714D01*
X119079993Y-35291394D01*
X118852010Y-35230306D01*
X118618020Y-35199501D01*
X118618017Y-35199500D01*
X118618011Y-35199500D01*
X118381989Y-35199500D01*
X118381983Y-35199500D01*
X118381979Y-35199501D01*
X118147989Y-35230306D01*
X117920006Y-35291394D01*
X117701954Y-35381714D01*
X117701943Y-35381719D01*
X117497545Y-35499730D01*
X117310302Y-35643406D01*
X117310295Y-35643412D01*
X117143412Y-35810295D01*
X117143406Y-35810302D01*
X116999730Y-35997545D01*
X116881719Y-36201943D01*
X116881714Y-36201954D01*
X116791394Y-36420006D01*
X116730306Y-36647989D01*
X116699501Y-36881979D01*
X116699500Y-36881995D01*
X115000000Y-36881995D01*
X115000000Y-33624000D01*
X115019685Y-33556961D01*
X115072489Y-33511206D01*
X115124000Y-33500000D01*
X142315041Y-33500000D01*
X142382080Y-33519685D01*
G37*
%TD.AperFunction*%
%TA.AperFunction,Conductor*%
G36*
X154382080Y-33519685D02*
G01*
X154427835Y-33572489D01*
X154437779Y-33641647D01*
X154408754Y-33705203D01*
X154349976Y-33742977D01*
X154328924Y-33747220D01*
X154328204Y-33747301D01*
X154165016Y-33804402D01*
X154018632Y-33896382D01*
X153896382Y-34018632D01*
X153804402Y-34165016D01*
X153747301Y-34328204D01*
X153727945Y-34499996D01*
X153727945Y-34500003D01*
X153747301Y-34671795D01*
X153804402Y-34834983D01*
X153896382Y-34981367D01*
X154018631Y-35103616D01*
X154018634Y-35103618D01*
X154060471Y-35129906D01*
X154106763Y-35182240D01*
X154118500Y-35234900D01*
X154118500Y-39290615D01*
X154098815Y-39357654D01*
X154082181Y-39378296D01*
X152878296Y-40582181D01*
X152816973Y-40615666D01*
X152790615Y-40618500D01*
X143209385Y-40618500D01*
X143142346Y-40598815D01*
X143121704Y-40582181D01*
X142917819Y-40378296D01*
X142884334Y-40316973D01*
X142881500Y-40290615D01*
X142881500Y-35234900D01*
X142901185Y-35167861D01*
X142939529Y-35129906D01*
X142981368Y-35103617D01*
X143103617Y-34981368D01*
X143195598Y-34834982D01*
X143252698Y-34671798D01*
X143272055Y-34500000D01*
X143252698Y-34328202D01*
X143195598Y-34165018D01*
X143103617Y-34018632D01*
X142981368Y-33896383D01*
X142981367Y-33896382D01*
X142834983Y-33804402D01*
X142671795Y-33747301D01*
X142671076Y-33747220D01*
X142670642Y-33747037D01*
X142665009Y-33745752D01*
X142665234Y-33744765D01*
X142606662Y-33720154D01*
X142567107Y-33662559D01*
X142564969Y-33592722D01*
X142600927Y-33532816D01*
X142663564Y-33501860D01*
X142684959Y-33500000D01*
X154315041Y-33500000D01*
X154382080Y-33519685D01*
G37*
%TD.AperFunction*%
%TD*%
M02*
