%TF.GenerationSoftware,KiCad,Pcbnew,8.0.8-8.0.8-0~ubuntu24.04.1*%
%TF.CreationDate,2025-02-14T12:49:09-06:00*%
%TF.ProjectId,tof_module,746f665f-6d6f-4647-956c-652e6b696361,rev?*%
%TF.SameCoordinates,Original*%
%TF.FileFunction,Soldermask,Top*%
%TF.FilePolarity,Negative*%
%FSLAX46Y46*%
G04 Gerber Fmt 4.6, Leading zero omitted, Abs format (unit mm)*
G04 Created by KiCad (PCBNEW 8.0.8-8.0.8-0~ubuntu24.04.1) date 2025-02-14 12:49:09*
%MOMM*%
%LPD*%
G01*
G04 APERTURE LIST*
G04 APERTURE END LIST*
G36*
X124296679Y-88036874D02*
G01*
X124298143Y-88040410D01*
X124298143Y-90390410D01*
X124296679Y-90393946D01*
X124293143Y-90395410D01*
X124283039Y-90395410D01*
X122953247Y-90395410D01*
X122943143Y-90395410D01*
X122939607Y-90393946D01*
X122938143Y-90390410D01*
X122938143Y-88040410D01*
X122939607Y-88036874D01*
X122943143Y-88035410D01*
X124293143Y-88035410D01*
X124296679Y-88036874D01*
G37*
G36*
X111138268Y-89117612D02*
G01*
X111170711Y-89139289D01*
X111192388Y-89171732D01*
X111200000Y-89210000D01*
X111200000Y-89645000D01*
X111192388Y-89683268D01*
X111170711Y-89715711D01*
X111138268Y-89737388D01*
X111100000Y-89745000D01*
X110900000Y-89745000D01*
X110861732Y-89737388D01*
X110829289Y-89715711D01*
X110807612Y-89683268D01*
X110800000Y-89645000D01*
X110800000Y-89210000D01*
X110807612Y-89171732D01*
X110829289Y-89139289D01*
X110861732Y-89117612D01*
X110900000Y-89110000D01*
X111100000Y-89110000D01*
X111138268Y-89117612D01*
G37*
G36*
X113241615Y-88675818D02*
G01*
X113290017Y-88681434D01*
X113306555Y-88688736D01*
X113328387Y-88693079D01*
X113351759Y-88708695D01*
X113371224Y-88717290D01*
X113384517Y-88730583D01*
X113405438Y-88744562D01*
X113419416Y-88765482D01*
X113432709Y-88778775D01*
X113441302Y-88798238D01*
X113456921Y-88821613D01*
X113461264Y-88843446D01*
X113468565Y-88859982D01*
X113474178Y-88908372D01*
X113475000Y-88912500D01*
X113475000Y-89412500D01*
X113474178Y-89416627D01*
X113468565Y-89465017D01*
X113461264Y-89481551D01*
X113456921Y-89503387D01*
X113441301Y-89526763D01*
X113432709Y-89546224D01*
X113419418Y-89559514D01*
X113405438Y-89580438D01*
X113384514Y-89594418D01*
X113371224Y-89607709D01*
X113351763Y-89616301D01*
X113328387Y-89631921D01*
X113306551Y-89636264D01*
X113290017Y-89643565D01*
X113241629Y-89649178D01*
X113237500Y-89650000D01*
X112762500Y-89650000D01*
X112758373Y-89649179D01*
X112709982Y-89643565D01*
X112693446Y-89636264D01*
X112671613Y-89631921D01*
X112648238Y-89616302D01*
X112628775Y-89607709D01*
X112615482Y-89594416D01*
X112594562Y-89580438D01*
X112580583Y-89559517D01*
X112567290Y-89546224D01*
X112558695Y-89526759D01*
X112543079Y-89503387D01*
X112538736Y-89481555D01*
X112531434Y-89465017D01*
X112525818Y-89416616D01*
X112525000Y-89412500D01*
X112525000Y-88912500D01*
X112525818Y-88908385D01*
X112531434Y-88859982D01*
X112538736Y-88843442D01*
X112543079Y-88821613D01*
X112558694Y-88798242D01*
X112567290Y-88778775D01*
X112580585Y-88765479D01*
X112594562Y-88744562D01*
X112615479Y-88730585D01*
X112628775Y-88717290D01*
X112648242Y-88708694D01*
X112671613Y-88693079D01*
X112693442Y-88688736D01*
X112709982Y-88681434D01*
X112758384Y-88675818D01*
X112762500Y-88675000D01*
X113237500Y-88675000D01*
X113241615Y-88675818D01*
G37*
G36*
X115241615Y-88675818D02*
G01*
X115290017Y-88681434D01*
X115306555Y-88688736D01*
X115328387Y-88693079D01*
X115351759Y-88708695D01*
X115371224Y-88717290D01*
X115384517Y-88730583D01*
X115405438Y-88744562D01*
X115419416Y-88765482D01*
X115432709Y-88778775D01*
X115441302Y-88798238D01*
X115456921Y-88821613D01*
X115461264Y-88843446D01*
X115468565Y-88859982D01*
X115474178Y-88908372D01*
X115475000Y-88912500D01*
X115475000Y-89412500D01*
X115474178Y-89416627D01*
X115468565Y-89465017D01*
X115461264Y-89481551D01*
X115456921Y-89503387D01*
X115441301Y-89526763D01*
X115432709Y-89546224D01*
X115419418Y-89559514D01*
X115405438Y-89580438D01*
X115384514Y-89594418D01*
X115371224Y-89607709D01*
X115351763Y-89616301D01*
X115328387Y-89631921D01*
X115306551Y-89636264D01*
X115290017Y-89643565D01*
X115241629Y-89649178D01*
X115237500Y-89650000D01*
X114762500Y-89650000D01*
X114758373Y-89649179D01*
X114709982Y-89643565D01*
X114693446Y-89636264D01*
X114671613Y-89631921D01*
X114648238Y-89616302D01*
X114628775Y-89607709D01*
X114615482Y-89594416D01*
X114594562Y-89580438D01*
X114580583Y-89559517D01*
X114567290Y-89546224D01*
X114558695Y-89526759D01*
X114543079Y-89503387D01*
X114538736Y-89481555D01*
X114531434Y-89465017D01*
X114525818Y-89416616D01*
X114525000Y-89412500D01*
X114525000Y-88912500D01*
X114525818Y-88908385D01*
X114531434Y-88859982D01*
X114538736Y-88843442D01*
X114543079Y-88821613D01*
X114558694Y-88798242D01*
X114567290Y-88778775D01*
X114580585Y-88765479D01*
X114594562Y-88744562D01*
X114615479Y-88730585D01*
X114628775Y-88717290D01*
X114648242Y-88708694D01*
X114671613Y-88693079D01*
X114693442Y-88688736D01*
X114709982Y-88681434D01*
X114758384Y-88675818D01*
X114762500Y-88675000D01*
X115237500Y-88675000D01*
X115241615Y-88675818D01*
G37*
G36*
X117241615Y-88675818D02*
G01*
X117290017Y-88681434D01*
X117306555Y-88688736D01*
X117328387Y-88693079D01*
X117351759Y-88708695D01*
X117371224Y-88717290D01*
X117384517Y-88730583D01*
X117405438Y-88744562D01*
X117419416Y-88765482D01*
X117432709Y-88778775D01*
X117441302Y-88798238D01*
X117456921Y-88821613D01*
X117461264Y-88843446D01*
X117468565Y-88859982D01*
X117474178Y-88908372D01*
X117475000Y-88912500D01*
X117475000Y-89412500D01*
X117474178Y-89416627D01*
X117468565Y-89465017D01*
X117461264Y-89481551D01*
X117456921Y-89503387D01*
X117441301Y-89526763D01*
X117432709Y-89546224D01*
X117419418Y-89559514D01*
X117405438Y-89580438D01*
X117384514Y-89594418D01*
X117371224Y-89607709D01*
X117351763Y-89616301D01*
X117328387Y-89631921D01*
X117306551Y-89636264D01*
X117290017Y-89643565D01*
X117241629Y-89649178D01*
X117237500Y-89650000D01*
X116762500Y-89650000D01*
X116758373Y-89649179D01*
X116709982Y-89643565D01*
X116693446Y-89636264D01*
X116671613Y-89631921D01*
X116648238Y-89616302D01*
X116628775Y-89607709D01*
X116615482Y-89594416D01*
X116594562Y-89580438D01*
X116580583Y-89559517D01*
X116567290Y-89546224D01*
X116558695Y-89526759D01*
X116543079Y-89503387D01*
X116538736Y-89481555D01*
X116531434Y-89465017D01*
X116525818Y-89416616D01*
X116525000Y-89412500D01*
X116525000Y-88912500D01*
X116525818Y-88908385D01*
X116531434Y-88859982D01*
X116538736Y-88843442D01*
X116543079Y-88821613D01*
X116558694Y-88798242D01*
X116567290Y-88778775D01*
X116580585Y-88765479D01*
X116594562Y-88744562D01*
X116615479Y-88730585D01*
X116628775Y-88717290D01*
X116648242Y-88708694D01*
X116671613Y-88693079D01*
X116693442Y-88688736D01*
X116709982Y-88681434D01*
X116758384Y-88675818D01*
X116762500Y-88675000D01*
X117237500Y-88675000D01*
X117241615Y-88675818D01*
G37*
G36*
X119241615Y-88675818D02*
G01*
X119290017Y-88681434D01*
X119306555Y-88688736D01*
X119328387Y-88693079D01*
X119351759Y-88708695D01*
X119371224Y-88717290D01*
X119384517Y-88730583D01*
X119405438Y-88744562D01*
X119419416Y-88765482D01*
X119432709Y-88778775D01*
X119441302Y-88798238D01*
X119456921Y-88821613D01*
X119461264Y-88843446D01*
X119468565Y-88859982D01*
X119474178Y-88908372D01*
X119475000Y-88912500D01*
X119475000Y-89412500D01*
X119474178Y-89416627D01*
X119468565Y-89465017D01*
X119461264Y-89481551D01*
X119456921Y-89503387D01*
X119441301Y-89526763D01*
X119432709Y-89546224D01*
X119419418Y-89559514D01*
X119405438Y-89580438D01*
X119384514Y-89594418D01*
X119371224Y-89607709D01*
X119351763Y-89616301D01*
X119328387Y-89631921D01*
X119306551Y-89636264D01*
X119290017Y-89643565D01*
X119241629Y-89649178D01*
X119237500Y-89650000D01*
X118762500Y-89650000D01*
X118758373Y-89649179D01*
X118709982Y-89643565D01*
X118693446Y-89636264D01*
X118671613Y-89631921D01*
X118648238Y-89616302D01*
X118628775Y-89607709D01*
X118615482Y-89594416D01*
X118594562Y-89580438D01*
X118580583Y-89559517D01*
X118567290Y-89546224D01*
X118558695Y-89526759D01*
X118543079Y-89503387D01*
X118538736Y-89481555D01*
X118531434Y-89465017D01*
X118525818Y-89416616D01*
X118525000Y-89412500D01*
X118525000Y-88912500D01*
X118525818Y-88908385D01*
X118531434Y-88859982D01*
X118538736Y-88843442D01*
X118543079Y-88821613D01*
X118558694Y-88798242D01*
X118567290Y-88778775D01*
X118580585Y-88765479D01*
X118594562Y-88744562D01*
X118615479Y-88730585D01*
X118628775Y-88717290D01*
X118648242Y-88708694D01*
X118671613Y-88693079D01*
X118693442Y-88688736D01*
X118709982Y-88681434D01*
X118758384Y-88675818D01*
X118762500Y-88675000D01*
X119237500Y-88675000D01*
X119241615Y-88675818D01*
G37*
G36*
X121241615Y-88675818D02*
G01*
X121290017Y-88681434D01*
X121306555Y-88688736D01*
X121328387Y-88693079D01*
X121351759Y-88708695D01*
X121371224Y-88717290D01*
X121384517Y-88730583D01*
X121405438Y-88744562D01*
X121419416Y-88765482D01*
X121432709Y-88778775D01*
X121441302Y-88798238D01*
X121456921Y-88821613D01*
X121461264Y-88843446D01*
X121468565Y-88859982D01*
X121474178Y-88908372D01*
X121475000Y-88912500D01*
X121475000Y-89412500D01*
X121474178Y-89416627D01*
X121468565Y-89465017D01*
X121461264Y-89481551D01*
X121456921Y-89503387D01*
X121441301Y-89526763D01*
X121432709Y-89546224D01*
X121419418Y-89559514D01*
X121405438Y-89580438D01*
X121384514Y-89594418D01*
X121371224Y-89607709D01*
X121351763Y-89616301D01*
X121328387Y-89631921D01*
X121306551Y-89636264D01*
X121290017Y-89643565D01*
X121241629Y-89649178D01*
X121237500Y-89650000D01*
X120762500Y-89650000D01*
X120758373Y-89649179D01*
X120709982Y-89643565D01*
X120693446Y-89636264D01*
X120671613Y-89631921D01*
X120648238Y-89616302D01*
X120628775Y-89607709D01*
X120615482Y-89594416D01*
X120594562Y-89580438D01*
X120580583Y-89559517D01*
X120567290Y-89546224D01*
X120558695Y-89526759D01*
X120543079Y-89503387D01*
X120538736Y-89481555D01*
X120531434Y-89465017D01*
X120525818Y-89416616D01*
X120525000Y-89412500D01*
X120525000Y-88912500D01*
X120525818Y-88908385D01*
X120531434Y-88859982D01*
X120538736Y-88843442D01*
X120543079Y-88821613D01*
X120558694Y-88798242D01*
X120567290Y-88778775D01*
X120580585Y-88765479D01*
X120594562Y-88744562D01*
X120615479Y-88730585D01*
X120628775Y-88717290D01*
X120648242Y-88708694D01*
X120671613Y-88693079D01*
X120693442Y-88688736D01*
X120709982Y-88681434D01*
X120758384Y-88675818D01*
X120762500Y-88675000D01*
X121237500Y-88675000D01*
X121241615Y-88675818D01*
G37*
G36*
X109754157Y-87689651D02*
G01*
X109755621Y-87693187D01*
X109755621Y-89043187D01*
X109754157Y-89046723D01*
X109750621Y-89048187D01*
X109740517Y-89048187D01*
X107410725Y-89048187D01*
X107400621Y-89048187D01*
X107397085Y-89046723D01*
X107395621Y-89043187D01*
X107395621Y-87693187D01*
X107397085Y-87689651D01*
X107400621Y-87688187D01*
X109750621Y-87688187D01*
X109754157Y-87689651D01*
G37*
G36*
X111138268Y-88302612D02*
G01*
X111170711Y-88324289D01*
X111192388Y-88356732D01*
X111200000Y-88395000D01*
X111200000Y-88830000D01*
X111192388Y-88868268D01*
X111170711Y-88900711D01*
X111138268Y-88922388D01*
X111100000Y-88930000D01*
X110900000Y-88930000D01*
X110861732Y-88922388D01*
X110829289Y-88900711D01*
X110807612Y-88868268D01*
X110800000Y-88830000D01*
X110800000Y-88395000D01*
X110807612Y-88356732D01*
X110829289Y-88324289D01*
X110861732Y-88302612D01*
X110900000Y-88295000D01*
X111100000Y-88295000D01*
X111138268Y-88302612D01*
G37*
G36*
X113241615Y-86850818D02*
G01*
X113290017Y-86856434D01*
X113306555Y-86863736D01*
X113328387Y-86868079D01*
X113351759Y-86883695D01*
X113371224Y-86892290D01*
X113384517Y-86905583D01*
X113405438Y-86919562D01*
X113419416Y-86940482D01*
X113432709Y-86953775D01*
X113441302Y-86973238D01*
X113456921Y-86996613D01*
X113461264Y-87018446D01*
X113468565Y-87034982D01*
X113474178Y-87083372D01*
X113475000Y-87087500D01*
X113475000Y-87587500D01*
X113474178Y-87591627D01*
X113468565Y-87640017D01*
X113461264Y-87656551D01*
X113456921Y-87678387D01*
X113441301Y-87701763D01*
X113432709Y-87721224D01*
X113419418Y-87734514D01*
X113405438Y-87755438D01*
X113384514Y-87769418D01*
X113371224Y-87782709D01*
X113351763Y-87791301D01*
X113328387Y-87806921D01*
X113306551Y-87811264D01*
X113290017Y-87818565D01*
X113241629Y-87824178D01*
X113237500Y-87825000D01*
X112762500Y-87825000D01*
X112758373Y-87824179D01*
X112709982Y-87818565D01*
X112693446Y-87811264D01*
X112671613Y-87806921D01*
X112648238Y-87791302D01*
X112628775Y-87782709D01*
X112615482Y-87769416D01*
X112594562Y-87755438D01*
X112580583Y-87734517D01*
X112567290Y-87721224D01*
X112558695Y-87701759D01*
X112543079Y-87678387D01*
X112538736Y-87656555D01*
X112531434Y-87640017D01*
X112525818Y-87591616D01*
X112525000Y-87587500D01*
X112525000Y-87087500D01*
X112525818Y-87083385D01*
X112531434Y-87034982D01*
X112538736Y-87018442D01*
X112543079Y-86996613D01*
X112558694Y-86973242D01*
X112567290Y-86953775D01*
X112580585Y-86940479D01*
X112594562Y-86919562D01*
X112615479Y-86905585D01*
X112628775Y-86892290D01*
X112648242Y-86883694D01*
X112671613Y-86868079D01*
X112693442Y-86863736D01*
X112709982Y-86856434D01*
X112758384Y-86850818D01*
X112762500Y-86850000D01*
X113237500Y-86850000D01*
X113241615Y-86850818D01*
G37*
G36*
X115241615Y-86850818D02*
G01*
X115290017Y-86856434D01*
X115306555Y-86863736D01*
X115328387Y-86868079D01*
X115351759Y-86883695D01*
X115371224Y-86892290D01*
X115384517Y-86905583D01*
X115405438Y-86919562D01*
X115419416Y-86940482D01*
X115432709Y-86953775D01*
X115441302Y-86973238D01*
X115456921Y-86996613D01*
X115461264Y-87018446D01*
X115468565Y-87034982D01*
X115474178Y-87083372D01*
X115475000Y-87087500D01*
X115475000Y-87587500D01*
X115474178Y-87591627D01*
X115468565Y-87640017D01*
X115461264Y-87656551D01*
X115456921Y-87678387D01*
X115441301Y-87701763D01*
X115432709Y-87721224D01*
X115419418Y-87734514D01*
X115405438Y-87755438D01*
X115384514Y-87769418D01*
X115371224Y-87782709D01*
X115351763Y-87791301D01*
X115328387Y-87806921D01*
X115306551Y-87811264D01*
X115290017Y-87818565D01*
X115241629Y-87824178D01*
X115237500Y-87825000D01*
X114762500Y-87825000D01*
X114758373Y-87824179D01*
X114709982Y-87818565D01*
X114693446Y-87811264D01*
X114671613Y-87806921D01*
X114648238Y-87791302D01*
X114628775Y-87782709D01*
X114615482Y-87769416D01*
X114594562Y-87755438D01*
X114580583Y-87734517D01*
X114567290Y-87721224D01*
X114558695Y-87701759D01*
X114543079Y-87678387D01*
X114538736Y-87656555D01*
X114531434Y-87640017D01*
X114525818Y-87591616D01*
X114525000Y-87587500D01*
X114525000Y-87087500D01*
X114525818Y-87083385D01*
X114531434Y-87034982D01*
X114538736Y-87018442D01*
X114543079Y-86996613D01*
X114558694Y-86973242D01*
X114567290Y-86953775D01*
X114580585Y-86940479D01*
X114594562Y-86919562D01*
X114615479Y-86905585D01*
X114628775Y-86892290D01*
X114648242Y-86883694D01*
X114671613Y-86868079D01*
X114693442Y-86863736D01*
X114709982Y-86856434D01*
X114758384Y-86850818D01*
X114762500Y-86850000D01*
X115237500Y-86850000D01*
X115241615Y-86850818D01*
G37*
G36*
X117241615Y-86850818D02*
G01*
X117290017Y-86856434D01*
X117306555Y-86863736D01*
X117328387Y-86868079D01*
X117351759Y-86883695D01*
X117371224Y-86892290D01*
X117384517Y-86905583D01*
X117405438Y-86919562D01*
X117419416Y-86940482D01*
X117432709Y-86953775D01*
X117441302Y-86973238D01*
X117456921Y-86996613D01*
X117461264Y-87018446D01*
X117468565Y-87034982D01*
X117474178Y-87083372D01*
X117475000Y-87087500D01*
X117475000Y-87587500D01*
X117474178Y-87591627D01*
X117468565Y-87640017D01*
X117461264Y-87656551D01*
X117456921Y-87678387D01*
X117441301Y-87701763D01*
X117432709Y-87721224D01*
X117419418Y-87734514D01*
X117405438Y-87755438D01*
X117384514Y-87769418D01*
X117371224Y-87782709D01*
X117351763Y-87791301D01*
X117328387Y-87806921D01*
X117306551Y-87811264D01*
X117290017Y-87818565D01*
X117241629Y-87824178D01*
X117237500Y-87825000D01*
X116762500Y-87825000D01*
X116758373Y-87824179D01*
X116709982Y-87818565D01*
X116693446Y-87811264D01*
X116671613Y-87806921D01*
X116648238Y-87791302D01*
X116628775Y-87782709D01*
X116615482Y-87769416D01*
X116594562Y-87755438D01*
X116580583Y-87734517D01*
X116567290Y-87721224D01*
X116558695Y-87701759D01*
X116543079Y-87678387D01*
X116538736Y-87656555D01*
X116531434Y-87640017D01*
X116525818Y-87591616D01*
X116525000Y-87587500D01*
X116525000Y-87087500D01*
X116525818Y-87083385D01*
X116531434Y-87034982D01*
X116538736Y-87018442D01*
X116543079Y-86996613D01*
X116558694Y-86973242D01*
X116567290Y-86953775D01*
X116580585Y-86940479D01*
X116594562Y-86919562D01*
X116615479Y-86905585D01*
X116628775Y-86892290D01*
X116648242Y-86883694D01*
X116671613Y-86868079D01*
X116693442Y-86863736D01*
X116709982Y-86856434D01*
X116758384Y-86850818D01*
X116762500Y-86850000D01*
X117237500Y-86850000D01*
X117241615Y-86850818D01*
G37*
G36*
X119241615Y-86850818D02*
G01*
X119290017Y-86856434D01*
X119306555Y-86863736D01*
X119328387Y-86868079D01*
X119351759Y-86883695D01*
X119371224Y-86892290D01*
X119384517Y-86905583D01*
X119405438Y-86919562D01*
X119419416Y-86940482D01*
X119432709Y-86953775D01*
X119441302Y-86973238D01*
X119456921Y-86996613D01*
X119461264Y-87018446D01*
X119468565Y-87034982D01*
X119474178Y-87083372D01*
X119475000Y-87087500D01*
X119475000Y-87587500D01*
X119474178Y-87591627D01*
X119468565Y-87640017D01*
X119461264Y-87656551D01*
X119456921Y-87678387D01*
X119441301Y-87701763D01*
X119432709Y-87721224D01*
X119419418Y-87734514D01*
X119405438Y-87755438D01*
X119384514Y-87769418D01*
X119371224Y-87782709D01*
X119351763Y-87791301D01*
X119328387Y-87806921D01*
X119306551Y-87811264D01*
X119290017Y-87818565D01*
X119241629Y-87824178D01*
X119237500Y-87825000D01*
X118762500Y-87825000D01*
X118758373Y-87824179D01*
X118709982Y-87818565D01*
X118693446Y-87811264D01*
X118671613Y-87806921D01*
X118648238Y-87791302D01*
X118628775Y-87782709D01*
X118615482Y-87769416D01*
X118594562Y-87755438D01*
X118580583Y-87734517D01*
X118567290Y-87721224D01*
X118558695Y-87701759D01*
X118543079Y-87678387D01*
X118538736Y-87656555D01*
X118531434Y-87640017D01*
X118525818Y-87591616D01*
X118525000Y-87587500D01*
X118525000Y-87087500D01*
X118525818Y-87083385D01*
X118531434Y-87034982D01*
X118538736Y-87018442D01*
X118543079Y-86996613D01*
X118558694Y-86973242D01*
X118567290Y-86953775D01*
X118580585Y-86940479D01*
X118594562Y-86919562D01*
X118615479Y-86905585D01*
X118628775Y-86892290D01*
X118648242Y-86883694D01*
X118671613Y-86868079D01*
X118693442Y-86863736D01*
X118709982Y-86856434D01*
X118758384Y-86850818D01*
X118762500Y-86850000D01*
X119237500Y-86850000D01*
X119241615Y-86850818D01*
G37*
G36*
X121241615Y-86850818D02*
G01*
X121290017Y-86856434D01*
X121306555Y-86863736D01*
X121328387Y-86868079D01*
X121351759Y-86883695D01*
X121371224Y-86892290D01*
X121384517Y-86905583D01*
X121405438Y-86919562D01*
X121419416Y-86940482D01*
X121432709Y-86953775D01*
X121441302Y-86973238D01*
X121456921Y-86996613D01*
X121461264Y-87018446D01*
X121468565Y-87034982D01*
X121474178Y-87083372D01*
X121475000Y-87087500D01*
X121475000Y-87587500D01*
X121474178Y-87591627D01*
X121468565Y-87640017D01*
X121461264Y-87656551D01*
X121456921Y-87678387D01*
X121441301Y-87701763D01*
X121432709Y-87721224D01*
X121419418Y-87734514D01*
X121405438Y-87755438D01*
X121384514Y-87769418D01*
X121371224Y-87782709D01*
X121351763Y-87791301D01*
X121328387Y-87806921D01*
X121306551Y-87811264D01*
X121290017Y-87818565D01*
X121241629Y-87824178D01*
X121237500Y-87825000D01*
X120762500Y-87825000D01*
X120758373Y-87824179D01*
X120709982Y-87818565D01*
X120693446Y-87811264D01*
X120671613Y-87806921D01*
X120648238Y-87791302D01*
X120628775Y-87782709D01*
X120615482Y-87769416D01*
X120594562Y-87755438D01*
X120580583Y-87734517D01*
X120567290Y-87721224D01*
X120558695Y-87701759D01*
X120543079Y-87678387D01*
X120538736Y-87656555D01*
X120531434Y-87640017D01*
X120525818Y-87591616D01*
X120525000Y-87587500D01*
X120525000Y-87087500D01*
X120525818Y-87083385D01*
X120531434Y-87034982D01*
X120538736Y-87018442D01*
X120543079Y-86996613D01*
X120558694Y-86973242D01*
X120567290Y-86953775D01*
X120580585Y-86940479D01*
X120594562Y-86919562D01*
X120615479Y-86905585D01*
X120628775Y-86892290D01*
X120648242Y-86883694D01*
X120671613Y-86868079D01*
X120693442Y-86863736D01*
X120709982Y-86856434D01*
X120758384Y-86850818D01*
X120762500Y-86850000D01*
X121237500Y-86850000D01*
X121241615Y-86850818D01*
G37*
G36*
X117848268Y-85407612D02*
G01*
X117880711Y-85429289D01*
X117902388Y-85461732D01*
X117910000Y-85500000D01*
X117910000Y-85700000D01*
X117902388Y-85738268D01*
X117880711Y-85770711D01*
X117848268Y-85792388D01*
X117810000Y-85800000D01*
X117375000Y-85800000D01*
X117336732Y-85792388D01*
X117304289Y-85770711D01*
X117282612Y-85738268D01*
X117275000Y-85700000D01*
X117275000Y-85500000D01*
X117282612Y-85461732D01*
X117304289Y-85429289D01*
X117336732Y-85407612D01*
X117375000Y-85400000D01*
X117810000Y-85400000D01*
X117848268Y-85407612D01*
G37*
G36*
X118663268Y-85407612D02*
G01*
X118695711Y-85429289D01*
X118717388Y-85461732D01*
X118725000Y-85500000D01*
X118725000Y-85700000D01*
X118717388Y-85738268D01*
X118695711Y-85770711D01*
X118663268Y-85792388D01*
X118625000Y-85800000D01*
X118190000Y-85800000D01*
X118151732Y-85792388D01*
X118119289Y-85770711D01*
X118097612Y-85738268D01*
X118090000Y-85700000D01*
X118090000Y-85500000D01*
X118097612Y-85461732D01*
X118119289Y-85429289D01*
X118151732Y-85407612D01*
X118190000Y-85400000D01*
X118625000Y-85400000D01*
X118663268Y-85407612D01*
G37*
G36*
X122791615Y-83925818D02*
G01*
X122840017Y-83931434D01*
X122856555Y-83938736D01*
X122878387Y-83943079D01*
X122901759Y-83958695D01*
X122921224Y-83967290D01*
X122934517Y-83980583D01*
X122955438Y-83994562D01*
X122969416Y-84015482D01*
X122982709Y-84028775D01*
X122991302Y-84048238D01*
X123006921Y-84071613D01*
X123011264Y-84093446D01*
X123018565Y-84109982D01*
X123024178Y-84158372D01*
X123025000Y-84162500D01*
X123025000Y-84637500D01*
X123024178Y-84641627D01*
X123018565Y-84690017D01*
X123011264Y-84706551D01*
X123006921Y-84728387D01*
X122991301Y-84751763D01*
X122982709Y-84771224D01*
X122969418Y-84784514D01*
X122955438Y-84805438D01*
X122934514Y-84819418D01*
X122921224Y-84832709D01*
X122901763Y-84841301D01*
X122878387Y-84856921D01*
X122856551Y-84861264D01*
X122840017Y-84868565D01*
X122791629Y-84874178D01*
X122787500Y-84875000D01*
X122287500Y-84875000D01*
X122283373Y-84874179D01*
X122234982Y-84868565D01*
X122218446Y-84861264D01*
X122196613Y-84856921D01*
X122173238Y-84841302D01*
X122153775Y-84832709D01*
X122140482Y-84819416D01*
X122119562Y-84805438D01*
X122105583Y-84784517D01*
X122092290Y-84771224D01*
X122083695Y-84751759D01*
X122068079Y-84728387D01*
X122063736Y-84706555D01*
X122056434Y-84690017D01*
X122050818Y-84641616D01*
X122050000Y-84637500D01*
X122050000Y-84162500D01*
X122050818Y-84158385D01*
X122056434Y-84109982D01*
X122063736Y-84093442D01*
X122068079Y-84071613D01*
X122083694Y-84048242D01*
X122092290Y-84028775D01*
X122105585Y-84015479D01*
X122119562Y-83994562D01*
X122140479Y-83980585D01*
X122153775Y-83967290D01*
X122173242Y-83958694D01*
X122196613Y-83943079D01*
X122218442Y-83938736D01*
X122234982Y-83931434D01*
X122283384Y-83925818D01*
X122287500Y-83925000D01*
X122787500Y-83925000D01*
X122791615Y-83925818D01*
G37*
G36*
X124616615Y-83925818D02*
G01*
X124665017Y-83931434D01*
X124681555Y-83938736D01*
X124703387Y-83943079D01*
X124726759Y-83958695D01*
X124746224Y-83967290D01*
X124759517Y-83980583D01*
X124780438Y-83994562D01*
X124794416Y-84015482D01*
X124807709Y-84028775D01*
X124816302Y-84048238D01*
X124831921Y-84071613D01*
X124836264Y-84093446D01*
X124843565Y-84109982D01*
X124849178Y-84158372D01*
X124850000Y-84162500D01*
X124850000Y-84637500D01*
X124849178Y-84641627D01*
X124843565Y-84690017D01*
X124836264Y-84706551D01*
X124831921Y-84728387D01*
X124816301Y-84751763D01*
X124807709Y-84771224D01*
X124794418Y-84784514D01*
X124780438Y-84805438D01*
X124759514Y-84819418D01*
X124746224Y-84832709D01*
X124726763Y-84841301D01*
X124703387Y-84856921D01*
X124681551Y-84861264D01*
X124665017Y-84868565D01*
X124616629Y-84874178D01*
X124612500Y-84875000D01*
X124112500Y-84875000D01*
X124108373Y-84874179D01*
X124059982Y-84868565D01*
X124043446Y-84861264D01*
X124021613Y-84856921D01*
X123998238Y-84841302D01*
X123978775Y-84832709D01*
X123965482Y-84819416D01*
X123944562Y-84805438D01*
X123930583Y-84784517D01*
X123917290Y-84771224D01*
X123908695Y-84751759D01*
X123893079Y-84728387D01*
X123888736Y-84706555D01*
X123881434Y-84690017D01*
X123875818Y-84641616D01*
X123875000Y-84637500D01*
X123875000Y-84162500D01*
X123875818Y-84158385D01*
X123881434Y-84109982D01*
X123888736Y-84093442D01*
X123893079Y-84071613D01*
X123908694Y-84048242D01*
X123917290Y-84028775D01*
X123930585Y-84015479D01*
X123944562Y-83994562D01*
X123965479Y-83980585D01*
X123978775Y-83967290D01*
X123998242Y-83958694D01*
X124021613Y-83943079D01*
X124043442Y-83938736D01*
X124059982Y-83931434D01*
X124108384Y-83925818D01*
X124112500Y-83925000D01*
X124612500Y-83925000D01*
X124616615Y-83925818D01*
G37*
G36*
X109767595Y-83114392D02*
G01*
X109769059Y-83117928D01*
X109769059Y-84467928D01*
X109767595Y-84471464D01*
X109764059Y-84472928D01*
X109753955Y-84472928D01*
X107424163Y-84472928D01*
X107414059Y-84472928D01*
X107410523Y-84471464D01*
X107409059Y-84467928D01*
X107409059Y-83117928D01*
X107410523Y-83114392D01*
X107414059Y-83112928D01*
X109764059Y-83112928D01*
X109767595Y-83114392D01*
G37*
G36*
X114700000Y-83773500D02*
G01*
X114200000Y-83773500D01*
X114200000Y-83258500D01*
X114700000Y-83258500D01*
X114700000Y-83773500D01*
G37*
G36*
X115450000Y-83773500D02*
G01*
X114950000Y-83773500D01*
X114950000Y-83258500D01*
X115450000Y-83258500D01*
X115450000Y-83773500D01*
G37*
G36*
X116200000Y-83773500D02*
G01*
X115700000Y-83773500D01*
X115700000Y-83258500D01*
X116200000Y-83258500D01*
X116200000Y-83773500D01*
G37*
G36*
X116950000Y-83773500D02*
G01*
X116450000Y-83773500D01*
X116450000Y-83258500D01*
X116950000Y-83258500D01*
X116950000Y-83773500D01*
G37*
G36*
X117700000Y-83773500D02*
G01*
X117200000Y-83773500D01*
X117200000Y-83258500D01*
X117700000Y-83258500D01*
X117700000Y-83773500D01*
G37*
G36*
X118450000Y-83773500D02*
G01*
X117950000Y-83773500D01*
X117950000Y-83258500D01*
X118450000Y-83258500D01*
X118450000Y-83773500D01*
G37*
G36*
X119300000Y-83458000D02*
G01*
X119229755Y-83458000D01*
X119200000Y-83487755D01*
X119200000Y-83773500D01*
X118700000Y-83773500D01*
X118700000Y-83258500D01*
X119199985Y-83258500D01*
X119200000Y-83258498D01*
X119200000Y-83258000D01*
X119300000Y-83258000D01*
X119300000Y-83458000D01*
G37*
G36*
X117858000Y-83058000D02*
G01*
X115542000Y-83058000D01*
X115542000Y-81858000D01*
X117858000Y-81858000D01*
X117858000Y-83058000D01*
G37*
G36*
X122791615Y-81825818D02*
G01*
X122840017Y-81831434D01*
X122856555Y-81838736D01*
X122878387Y-81843079D01*
X122901759Y-81858695D01*
X122921224Y-81867290D01*
X122934517Y-81880583D01*
X122955438Y-81894562D01*
X122969416Y-81915482D01*
X122982709Y-81928775D01*
X122991302Y-81948238D01*
X123006921Y-81971613D01*
X123011264Y-81993446D01*
X123018565Y-82009982D01*
X123024178Y-82058372D01*
X123025000Y-82062500D01*
X123025000Y-82537500D01*
X123024178Y-82541627D01*
X123018565Y-82590017D01*
X123011264Y-82606551D01*
X123006921Y-82628387D01*
X122991301Y-82651763D01*
X122982709Y-82671224D01*
X122969418Y-82684514D01*
X122955438Y-82705438D01*
X122934514Y-82719418D01*
X122921224Y-82732709D01*
X122901763Y-82741301D01*
X122878387Y-82756921D01*
X122856551Y-82761264D01*
X122840017Y-82768565D01*
X122791629Y-82774178D01*
X122787500Y-82775000D01*
X122287500Y-82775000D01*
X122283373Y-82774179D01*
X122234982Y-82768565D01*
X122218446Y-82761264D01*
X122196613Y-82756921D01*
X122173238Y-82741302D01*
X122153775Y-82732709D01*
X122140482Y-82719416D01*
X122119562Y-82705438D01*
X122105583Y-82684517D01*
X122092290Y-82671224D01*
X122083695Y-82651759D01*
X122068079Y-82628387D01*
X122063736Y-82606555D01*
X122056434Y-82590017D01*
X122050818Y-82541616D01*
X122050000Y-82537500D01*
X122050000Y-82062500D01*
X122050818Y-82058385D01*
X122056434Y-82009982D01*
X122063736Y-81993442D01*
X122068079Y-81971613D01*
X122083694Y-81948242D01*
X122092290Y-81928775D01*
X122105585Y-81915479D01*
X122119562Y-81894562D01*
X122140479Y-81880585D01*
X122153775Y-81867290D01*
X122173242Y-81858694D01*
X122196613Y-81843079D01*
X122218442Y-81838736D01*
X122234982Y-81831434D01*
X122283384Y-81825818D01*
X122287500Y-81825000D01*
X122787500Y-81825000D01*
X122791615Y-81825818D01*
G37*
G36*
X124616615Y-81825818D02*
G01*
X124665017Y-81831434D01*
X124681555Y-81838736D01*
X124703387Y-81843079D01*
X124726759Y-81858695D01*
X124746224Y-81867290D01*
X124759517Y-81880583D01*
X124780438Y-81894562D01*
X124794416Y-81915482D01*
X124807709Y-81928775D01*
X124816302Y-81948238D01*
X124831921Y-81971613D01*
X124836264Y-81993446D01*
X124843565Y-82009982D01*
X124849178Y-82058372D01*
X124850000Y-82062500D01*
X124850000Y-82537500D01*
X124849178Y-82541627D01*
X124843565Y-82590017D01*
X124836264Y-82606551D01*
X124831921Y-82628387D01*
X124816301Y-82651763D01*
X124807709Y-82671224D01*
X124794418Y-82684514D01*
X124780438Y-82705438D01*
X124759514Y-82719418D01*
X124746224Y-82732709D01*
X124726763Y-82741301D01*
X124703387Y-82756921D01*
X124681551Y-82761264D01*
X124665017Y-82768565D01*
X124616629Y-82774178D01*
X124612500Y-82775000D01*
X124112500Y-82775000D01*
X124108373Y-82774179D01*
X124059982Y-82768565D01*
X124043446Y-82761264D01*
X124021613Y-82756921D01*
X123998238Y-82741302D01*
X123978775Y-82732709D01*
X123965482Y-82719416D01*
X123944562Y-82705438D01*
X123930583Y-82684517D01*
X123917290Y-82671224D01*
X123908695Y-82651759D01*
X123893079Y-82628387D01*
X123888736Y-82606555D01*
X123881434Y-82590017D01*
X123875818Y-82541616D01*
X123875000Y-82537500D01*
X123875000Y-82062500D01*
X123875818Y-82058385D01*
X123881434Y-82009982D01*
X123888736Y-81993442D01*
X123893079Y-81971613D01*
X123908694Y-81948242D01*
X123917290Y-81928775D01*
X123930585Y-81915479D01*
X123944562Y-81894562D01*
X123965479Y-81880585D01*
X123978775Y-81867290D01*
X123998242Y-81858694D01*
X124021613Y-81843079D01*
X124043442Y-81838736D01*
X124059982Y-81831434D01*
X124108384Y-81825818D01*
X124112500Y-81825000D01*
X124612500Y-81825000D01*
X124616615Y-81825818D01*
G37*
G36*
X111938268Y-82097612D02*
G01*
X111970711Y-82119289D01*
X111992388Y-82151732D01*
X112000000Y-82190000D01*
X112000000Y-82625000D01*
X111992388Y-82663268D01*
X111970711Y-82695711D01*
X111938268Y-82717388D01*
X111900000Y-82725000D01*
X111700000Y-82725000D01*
X111661732Y-82717388D01*
X111629289Y-82695711D01*
X111607612Y-82663268D01*
X111600000Y-82625000D01*
X111600000Y-82190000D01*
X111607612Y-82151732D01*
X111629289Y-82119289D01*
X111661732Y-82097612D01*
X111700000Y-82090000D01*
X111900000Y-82090000D01*
X111938268Y-82097612D01*
G37*
G36*
X114299500Y-82708000D02*
G01*
X113764500Y-82708000D01*
X113764500Y-82208000D01*
X114299500Y-82208000D01*
X114299500Y-82708000D01*
G37*
G36*
X119635500Y-82708000D02*
G01*
X119100500Y-82708000D01*
X119100500Y-82208000D01*
X119635500Y-82208000D01*
X119635500Y-82708000D01*
G37*
G36*
X111938268Y-81282612D02*
G01*
X111970711Y-81304289D01*
X111992388Y-81336732D01*
X112000000Y-81375000D01*
X112000000Y-81810000D01*
X111992388Y-81848268D01*
X111970711Y-81880711D01*
X111938268Y-81902388D01*
X111900000Y-81910000D01*
X111700000Y-81910000D01*
X111661732Y-81902388D01*
X111629289Y-81880711D01*
X111607612Y-81848268D01*
X111600000Y-81810000D01*
X111600000Y-81375000D01*
X111607612Y-81336732D01*
X111629289Y-81304289D01*
X111661732Y-81282612D01*
X111700000Y-81275000D01*
X111900000Y-81275000D01*
X111938268Y-81282612D01*
G37*
G36*
X114700000Y-81657500D02*
G01*
X114200000Y-81657500D01*
X114200000Y-81142500D01*
X114700000Y-81142500D01*
X114700000Y-81657500D01*
G37*
G36*
X115450000Y-81657500D02*
G01*
X114950000Y-81657500D01*
X114950000Y-81142500D01*
X115450000Y-81142500D01*
X115450000Y-81657500D01*
G37*
G36*
X116200000Y-81657500D02*
G01*
X115700000Y-81657500D01*
X115700000Y-81142500D01*
X116200000Y-81142500D01*
X116200000Y-81657500D01*
G37*
G36*
X116950000Y-81657500D02*
G01*
X116450000Y-81657500D01*
X116450000Y-81142500D01*
X116950000Y-81142500D01*
X116950000Y-81657500D01*
G37*
G36*
X117700000Y-81657500D02*
G01*
X117200000Y-81657500D01*
X117200000Y-81142500D01*
X117700000Y-81142500D01*
X117700000Y-81657500D01*
G37*
G36*
X118450000Y-81657500D02*
G01*
X117950000Y-81657500D01*
X117950000Y-81142500D01*
X118450000Y-81142500D01*
X118450000Y-81657500D01*
G37*
G36*
X119200000Y-81657500D02*
G01*
X118700000Y-81657500D01*
X118700000Y-81142500D01*
X119200000Y-81142500D01*
X119200000Y-81657500D01*
G37*
G36*
X122791615Y-79725818D02*
G01*
X122840017Y-79731434D01*
X122856555Y-79738736D01*
X122878387Y-79743079D01*
X122901759Y-79758695D01*
X122921224Y-79767290D01*
X122934517Y-79780583D01*
X122955438Y-79794562D01*
X122969416Y-79815482D01*
X122982709Y-79828775D01*
X122991302Y-79848238D01*
X123006921Y-79871613D01*
X123011264Y-79893446D01*
X123018565Y-79909982D01*
X123024178Y-79958372D01*
X123025000Y-79962500D01*
X123025000Y-80437500D01*
X123024178Y-80441627D01*
X123018565Y-80490017D01*
X123011264Y-80506551D01*
X123006921Y-80528387D01*
X122991301Y-80551763D01*
X122982709Y-80571224D01*
X122969418Y-80584514D01*
X122955438Y-80605438D01*
X122934514Y-80619418D01*
X122921224Y-80632709D01*
X122901763Y-80641301D01*
X122878387Y-80656921D01*
X122856551Y-80661264D01*
X122840017Y-80668565D01*
X122791629Y-80674178D01*
X122787500Y-80675000D01*
X122287500Y-80675000D01*
X122283373Y-80674179D01*
X122234982Y-80668565D01*
X122218446Y-80661264D01*
X122196613Y-80656921D01*
X122173238Y-80641302D01*
X122153775Y-80632709D01*
X122140482Y-80619416D01*
X122119562Y-80605438D01*
X122105583Y-80584517D01*
X122092290Y-80571224D01*
X122083695Y-80551759D01*
X122068079Y-80528387D01*
X122063736Y-80506555D01*
X122056434Y-80490017D01*
X122050818Y-80441616D01*
X122050000Y-80437500D01*
X122050000Y-79962500D01*
X122050818Y-79958385D01*
X122056434Y-79909982D01*
X122063736Y-79893442D01*
X122068079Y-79871613D01*
X122083694Y-79848242D01*
X122092290Y-79828775D01*
X122105585Y-79815479D01*
X122119562Y-79794562D01*
X122140479Y-79780585D01*
X122153775Y-79767290D01*
X122173242Y-79758694D01*
X122196613Y-79743079D01*
X122218442Y-79738736D01*
X122234982Y-79731434D01*
X122283384Y-79725818D01*
X122287500Y-79725000D01*
X122787500Y-79725000D01*
X122791615Y-79725818D01*
G37*
G36*
X124616615Y-79725818D02*
G01*
X124665017Y-79731434D01*
X124681555Y-79738736D01*
X124703387Y-79743079D01*
X124726759Y-79758695D01*
X124746224Y-79767290D01*
X124759517Y-79780583D01*
X124780438Y-79794562D01*
X124794416Y-79815482D01*
X124807709Y-79828775D01*
X124816302Y-79848238D01*
X124831921Y-79871613D01*
X124836264Y-79893446D01*
X124843565Y-79909982D01*
X124849178Y-79958372D01*
X124850000Y-79962500D01*
X124850000Y-80437500D01*
X124849178Y-80441627D01*
X124843565Y-80490017D01*
X124836264Y-80506551D01*
X124831921Y-80528387D01*
X124816301Y-80551763D01*
X124807709Y-80571224D01*
X124794418Y-80584514D01*
X124780438Y-80605438D01*
X124759514Y-80619418D01*
X124746224Y-80632709D01*
X124726763Y-80641301D01*
X124703387Y-80656921D01*
X124681551Y-80661264D01*
X124665017Y-80668565D01*
X124616629Y-80674178D01*
X124612500Y-80675000D01*
X124112500Y-80675000D01*
X124108373Y-80674179D01*
X124059982Y-80668565D01*
X124043446Y-80661264D01*
X124021613Y-80656921D01*
X123998238Y-80641302D01*
X123978775Y-80632709D01*
X123965482Y-80619416D01*
X123944562Y-80605438D01*
X123930583Y-80584517D01*
X123917290Y-80571224D01*
X123908695Y-80551759D01*
X123893079Y-80528387D01*
X123888736Y-80506555D01*
X123881434Y-80490017D01*
X123875818Y-80441616D01*
X123875000Y-80437500D01*
X123875000Y-79962500D01*
X123875818Y-79958385D01*
X123881434Y-79909982D01*
X123888736Y-79893442D01*
X123893079Y-79871613D01*
X123908694Y-79848242D01*
X123917290Y-79828775D01*
X123930585Y-79815479D01*
X123944562Y-79794562D01*
X123965479Y-79780585D01*
X123978775Y-79767290D01*
X123998242Y-79758694D01*
X124021613Y-79743079D01*
X124043442Y-79738736D01*
X124059982Y-79731434D01*
X124108384Y-79725818D01*
X124112500Y-79725000D01*
X124612500Y-79725000D01*
X124616615Y-79725818D01*
G37*
G36*
X116248268Y-79207612D02*
G01*
X116280711Y-79229289D01*
X116302388Y-79261732D01*
X116310000Y-79300000D01*
X116310000Y-79500000D01*
X116302388Y-79538268D01*
X116280711Y-79570711D01*
X116248268Y-79592388D01*
X116210000Y-79600000D01*
X115775000Y-79600000D01*
X115736732Y-79592388D01*
X115704289Y-79570711D01*
X115682612Y-79538268D01*
X115675000Y-79500000D01*
X115675000Y-79300000D01*
X115682612Y-79261732D01*
X115704289Y-79229289D01*
X115736732Y-79207612D01*
X115775000Y-79200000D01*
X116210000Y-79200000D01*
X116248268Y-79207612D01*
G37*
G36*
X117063268Y-79207612D02*
G01*
X117095711Y-79229289D01*
X117117388Y-79261732D01*
X117125000Y-79300000D01*
X117125000Y-79500000D01*
X117117388Y-79538268D01*
X117095711Y-79570711D01*
X117063268Y-79592388D01*
X117025000Y-79600000D01*
X116590000Y-79600000D01*
X116551732Y-79592388D01*
X116519289Y-79570711D01*
X116497612Y-79538268D01*
X116490000Y-79500000D01*
X116490000Y-79300000D01*
X116497612Y-79261732D01*
X116519289Y-79229289D01*
X116551732Y-79207612D01*
X116590000Y-79200000D01*
X117025000Y-79200000D01*
X117063268Y-79207612D01*
G37*
G36*
X110274856Y-76401464D02*
G01*
X110276320Y-76405000D01*
X110276320Y-78755000D01*
X110274856Y-78758536D01*
X110271320Y-78760000D01*
X110261216Y-78760000D01*
X108931424Y-78760000D01*
X108921320Y-78760000D01*
X108917784Y-78758536D01*
X108916320Y-78755000D01*
X108916320Y-76405000D01*
X108917784Y-76401464D01*
X108921320Y-76400000D01*
X110271320Y-76400000D01*
X110274856Y-76401464D01*
G37*
G36*
X114466974Y-76401464D02*
G01*
X114468438Y-76405000D01*
X114468438Y-78755000D01*
X114466974Y-78758536D01*
X114463438Y-78760000D01*
X114453334Y-78760000D01*
X113123542Y-78760000D01*
X113113438Y-78760000D01*
X113109902Y-78758536D01*
X113108438Y-78755000D01*
X113108438Y-76405000D01*
X113109902Y-76401464D01*
X113113438Y-76400000D01*
X114463438Y-76400000D01*
X114466974Y-76401464D01*
G37*
G36*
X119687664Y-76401464D02*
G01*
X119689128Y-76405000D01*
X119689128Y-78755000D01*
X119687664Y-78758536D01*
X119684128Y-78760000D01*
X119674024Y-78760000D01*
X118344232Y-78760000D01*
X118334128Y-78760000D01*
X118330592Y-78758536D01*
X118329128Y-78755000D01*
X118329128Y-76405000D01*
X118330592Y-76401464D01*
X118334128Y-76400000D01*
X119684128Y-76400000D01*
X119687664Y-76401464D01*
G37*
M02*
