M48
; DRILL file {KiCad 8.0.8-8.0.8-0~ubuntu24.04.1} date 2025-02-14T12:49:02-0600
; FORMAT={-:-/ absolute / inch / decimal}
; #@! TF.CreationDate,2025-02-14T12:49:02-06:00
; #@! TF.GenerationSoftware,Kicad,Pcbnew,8.0.8-8.0.8-0~ubuntu24.04.1
; #@! TF.FileFunction,Plated,1,2,PTH
FMAT,2
INCH
; #@! TA.AperFunction,Plated,PTH,ViaDrill
T1C0.0130
; #@! TA.AperFunction,Plated,PTH,ComponentDrill
T2C0.0315
%
G90
G05
T1
X4.2913Y-3.378
X4.3071Y-3.189
X4.3386Y-3.4331
X4.4016Y-3.5276
X4.4488Y-3.2047
X4.4488Y-3.3228
X4.4488Y-3.3937
X4.4961Y-3.1654
X4.5276Y-3.3307
X4.5276Y-3.3937
X4.5512Y-3.1654
X4.5827Y-3.0709
X4.5906Y-3.3307
X4.6457Y-3.4016
X4.6535Y-3.1654
X4.6693Y-3.3307
X4.7402Y-3.1969
X4.7717Y-3.2441
X4.7795Y-3.2835
X4.8583Y-3.4094
X4.8661Y-3.0709
T2
X4.2943Y-3.4791
X4.2948Y-3.2989
X4.3148Y-3.074
X4.4799Y-3.074
X4.6854Y-3.074
X4.8669Y-3.4927
M30
