%TF.GenerationSoftware,KiCad,Pcbnew,8.0.8-8.0.8-0~ubuntu24.04.1*%
%TF.CreationDate,2025-02-14T12:49:08-06:00*%
%TF.ProjectId,tof_module,746f665f-6d6f-4647-956c-652e6b696361,rev?*%
%TF.SameCoordinates,Original*%
%TF.FileFunction,Paste,Top*%
%TF.FilePolarity,Positive*%
%FSLAX46Y46*%
G04 Gerber Fmt 4.6, Leading zero omitted, Abs format (unit mm)*
G04 Created by KiCad (PCBNEW 8.0.8-8.0.8-0~ubuntu24.04.1) date 2025-02-14 12:49:08*
%MOMM*%
%LPD*%
G01*
G04 APERTURE LIST*
G04 Aperture macros list*
%AMRoundRect*
0 Rectangle with rounded corners*
0 $1 Rounding radius*
0 $2 $3 $4 $5 $6 $7 $8 $9 X,Y pos of 4 corners*
0 Add a 4 corners polygon primitive as box body*
4,1,4,$2,$3,$4,$5,$6,$7,$8,$9,$2,$3,0*
0 Add four circle primitives for the rounded corners*
1,1,$1+$1,$2,$3*
1,1,$1+$1,$4,$5*
1,1,$1+$1,$6,$7*
1,1,$1+$1,$8,$9*
0 Add four rect primitives between the rounded corners*
20,1,$1+$1,$2,$3,$4,$5,0*
20,1,$1+$1,$4,$5,$6,$7,0*
20,1,$1+$1,$6,$7,$8,$9,0*
20,1,$1+$1,$8,$9,$2,$3,0*%
G04 Aperture macros list end*
%ADD10RoundRect,0.237500X0.237500X-0.250000X0.237500X0.250000X-0.237500X0.250000X-0.237500X-0.250000X0*%
%ADD11RoundRect,0.237500X-0.250000X-0.237500X0.250000X-0.237500X0.250000X0.237500X-0.250000X0.237500X0*%
%ADD12RoundRect,0.237500X0.250000X0.237500X-0.250000X0.237500X-0.250000X-0.237500X0.250000X-0.237500X0*%
%ADD13R,0.100000X0.200000*%
%ADD14R,0.500000X0.515000*%
%ADD15R,0.535000X0.500000*%
%ADD16R,2.316000X1.200000*%
%ADD17RoundRect,0.090000X0.139000X0.090000X-0.139000X0.090000X-0.139000X-0.090000X0.139000X-0.090000X0*%
%ADD18RoundRect,0.090000X0.090000X-0.139000X0.090000X0.139000X-0.090000X0.139000X-0.090000X-0.139000X0*%
%ADD19RoundRect,0.090000X-0.090000X0.139000X-0.090000X-0.139000X0.090000X-0.139000X0.090000X0.139000X0*%
G04 APERTURE END LIST*
D10*
%TO.C,R3*%
X117000000Y-89162500D03*
X117000000Y-87337500D03*
%TD*%
D11*
%TO.C,R7*%
X122537500Y-82300000D03*
X124362500Y-82300000D03*
%TD*%
D10*
%TO.C,R5*%
X121000000Y-89162500D03*
X121000000Y-87337500D03*
%TD*%
D11*
%TO.C,R8*%
X122537500Y-84400000D03*
X124362500Y-84400000D03*
%TD*%
D12*
%TO.C,R6*%
X124362500Y-80200000D03*
X122537500Y-80200000D03*
%TD*%
D10*
%TO.C,R4*%
X119000000Y-89162500D03*
X119000000Y-87337500D03*
%TD*%
D13*
%TO.C,U1*%
X119250000Y-83358000D03*
D14*
X118950000Y-83516000D03*
X118200000Y-83516000D03*
X117450000Y-83516000D03*
X116700000Y-83516000D03*
X115950000Y-83516000D03*
X115200000Y-83516000D03*
X114450000Y-83516000D03*
D15*
X119368000Y-82458000D03*
D16*
X116700000Y-82458000D03*
D15*
X114032000Y-82458000D03*
D14*
X118950000Y-81400000D03*
X118200000Y-81400000D03*
X117450000Y-81400000D03*
X116700000Y-81400000D03*
X115950000Y-81400000D03*
X115200000Y-81400000D03*
X114450000Y-81400000D03*
%TD*%
D17*
%TO.C,C3*%
X116832500Y-79400000D03*
X115967500Y-79400000D03*
%TD*%
D18*
%TO.C,C1*%
X111800000Y-82432500D03*
X111800000Y-81567500D03*
%TD*%
D17*
%TO.C,C2*%
X118432500Y-85600000D03*
X117567500Y-85600000D03*
%TD*%
D10*
%TO.C,R1*%
X113000000Y-89162500D03*
X113000000Y-87337500D03*
%TD*%
%TO.C,R2*%
X115000000Y-89162500D03*
X115000000Y-87337500D03*
%TD*%
D19*
%TO.C,C4*%
X111000000Y-88587500D03*
X111000000Y-89452500D03*
%TD*%
M02*
