%TF.GenerationSoftware,KiCad,Pcbnew,8.0.8-8.0.8-0~ubuntu24.04.1*%
%TF.CreationDate,2025-02-14T12:49:08-06:00*%
%TF.ProjectId,tof_module,746f665f-6d6f-4647-956c-652e6b696361,rev?*%
%TF.SameCoordinates,Original*%
%TF.FileFunction,Legend,Top*%
%TF.FilePolarity,Positive*%
%FSLAX46Y46*%
G04 Gerber Fmt 4.6, Leading zero omitted, Abs format (unit mm)*
G04 Created by KiCad (PCBNEW 8.0.8-8.0.8-0~ubuntu24.04.1) date 2025-02-14 12:49:08*
%MOMM*%
%LPD*%
G01*
G04 APERTURE LIST*
%ADD10C,0.150000*%
%ADD11C,0.254000*%
%ADD12C,0.120000*%
%ADD13C,0.200000*%
%ADD14C,0.100000*%
G04 APERTURE END LIST*
D10*
X113400000Y-79600000D02*
X114400000Y-79600000D01*
X114400000Y-80600000D01*
X113400000Y-80600000D01*
X113400000Y-79600000D01*
D11*
X116004318Y-83425619D02*
X117032413Y-83425619D01*
X117032413Y-83425619D02*
X117153365Y-83365142D01*
X117153365Y-83365142D02*
X117213842Y-83304666D01*
X117213842Y-83304666D02*
X117274318Y-83183714D01*
X117274318Y-83183714D02*
X117274318Y-82941809D01*
X117274318Y-82941809D02*
X117213842Y-82820857D01*
X117213842Y-82820857D02*
X117153365Y-82760380D01*
X117153365Y-82760380D02*
X117032413Y-82699904D01*
X117032413Y-82699904D02*
X116004318Y-82699904D01*
X117274318Y-81429904D02*
X117274318Y-82155619D01*
X117274318Y-81792762D02*
X116004318Y-81792762D01*
X116004318Y-81792762D02*
X116185746Y-81913714D01*
X116185746Y-81913714D02*
X116306699Y-82034666D01*
X116306699Y-82034666D02*
X116367175Y-82155619D01*
D12*
%TO.C,R3*%
X116477500Y-88504724D02*
X116477500Y-87995276D01*
X117522500Y-88504724D02*
X117522500Y-87995276D01*
%TO.C,R7*%
X123195276Y-81777500D02*
X123704724Y-81777500D01*
X123195276Y-82822500D02*
X123704724Y-82822500D01*
%TO.C,R5*%
X120477500Y-88504724D02*
X120477500Y-87995276D01*
X121522500Y-88504724D02*
X121522500Y-87995276D01*
%TO.C,R8*%
X123195276Y-83877500D02*
X123704724Y-83877500D01*
X123195276Y-84922500D02*
X123704724Y-84922500D01*
%TO.C,R6*%
X123704724Y-79677500D02*
X123195276Y-79677500D01*
X123704724Y-80722500D02*
X123195276Y-80722500D01*
%TO.C,R4*%
X118477500Y-88504724D02*
X118477500Y-87995276D01*
X119522500Y-88504724D02*
X119522500Y-87995276D01*
D13*
%TO.C,U1*%
X113500000Y-80943000D02*
X113900000Y-80943000D01*
X113500000Y-81858000D02*
X113500000Y-80943000D01*
X113500000Y-83973000D02*
X113500000Y-83058000D01*
X113900000Y-83973000D02*
X113500000Y-83973000D01*
D14*
X118950000Y-84458000D02*
X118950000Y-84458000D01*
X118950000Y-84558000D02*
X118950000Y-84558000D01*
D13*
X119500000Y-80943000D02*
X119900000Y-80943000D01*
X119500000Y-83973000D02*
X119900000Y-83973000D01*
X119900000Y-80943000D02*
X119900000Y-81858000D01*
X119900000Y-83973000D02*
X119900000Y-83058000D01*
D14*
X118950000Y-84458000D02*
G75*
G02*
X118950000Y-84558000I0J-50000D01*
G01*
X118950000Y-84558000D02*
G75*
G02*
X118950000Y-84458000I0J50000D01*
G01*
D12*
%TO.C,R1*%
X112477500Y-88504724D02*
X112477500Y-87995276D01*
X113522500Y-88504724D02*
X113522500Y-87995276D01*
%TO.C,R2*%
X114477500Y-88504724D02*
X114477500Y-87995276D01*
X115522500Y-88504724D02*
X115522500Y-87995276D01*
%TD*%
M02*
