%TF.GenerationSoftware,KiCad,Pcbnew,8.0.8-8.0.8-0~ubuntu24.04.1*%
%TF.CreationDate,2025-02-14T12:49:03-06:00*%
%TF.ProjectId,tof_module,746f665f-6d6f-4647-956c-652e6b696361,rev?*%
%TF.SameCoordinates,Original*%
%TF.FileFunction,Drillmap*%
%TF.FilePolarity,Positive*%
%FSLAX45Y45*%
G04 Gerber Fmt 4.5, Leading zero omitted, Abs format (unit mm)*
G04 Created by KiCad (PCBNEW 8.0.8-8.0.8-0~ubuntu24.04.1) date 2025-02-14 12:49:03*
%MOMM*%
%LPD*%
G01*
G04 APERTURE LIST*
%ADD10C,0.050000*%
%ADD11C,0.200000*%
G04 APERTURE END LIST*
D10*
X10740000Y-7640000D02*
X12580000Y-7640000D01*
X12580000Y-9040000D01*
X10740000Y-9040000D01*
X10740000Y-7640000D01*
D11*
X10998277Y-9353984D02*
X10998277Y-9153984D01*
X10998277Y-9153984D02*
X11045896Y-9153984D01*
X11045896Y-9153984D02*
X11074467Y-9163508D01*
X11074467Y-9163508D02*
X11093515Y-9182555D01*
X11093515Y-9182555D02*
X11103039Y-9201603D01*
X11103039Y-9201603D02*
X11112563Y-9239698D01*
X11112563Y-9239698D02*
X11112563Y-9268270D01*
X11112563Y-9268270D02*
X11103039Y-9306365D01*
X11103039Y-9306365D02*
X11093515Y-9325412D01*
X11093515Y-9325412D02*
X11074467Y-9344460D01*
X11074467Y-9344460D02*
X11045896Y-9353984D01*
X11045896Y-9353984D02*
X10998277Y-9353984D01*
X11198277Y-9353984D02*
X11198277Y-9220650D01*
X11198277Y-9258746D02*
X11207801Y-9239698D01*
X11207801Y-9239698D02*
X11217324Y-9230174D01*
X11217324Y-9230174D02*
X11236372Y-9220650D01*
X11236372Y-9220650D02*
X11255420Y-9220650D01*
X11322086Y-9353984D02*
X11322086Y-9220650D01*
X11322086Y-9153984D02*
X11312562Y-9163508D01*
X11312562Y-9163508D02*
X11322086Y-9173031D01*
X11322086Y-9173031D02*
X11331610Y-9163508D01*
X11331610Y-9163508D02*
X11322086Y-9153984D01*
X11322086Y-9153984D02*
X11322086Y-9173031D01*
X11445896Y-9353984D02*
X11426848Y-9344460D01*
X11426848Y-9344460D02*
X11417324Y-9325412D01*
X11417324Y-9325412D02*
X11417324Y-9153984D01*
X11550658Y-9353984D02*
X11531610Y-9344460D01*
X11531610Y-9344460D02*
X11522086Y-9325412D01*
X11522086Y-9325412D02*
X11522086Y-9153984D01*
X11779229Y-9353984D02*
X11779229Y-9153984D01*
X11779229Y-9153984D02*
X11845896Y-9296841D01*
X11845896Y-9296841D02*
X11912562Y-9153984D01*
X11912562Y-9153984D02*
X11912562Y-9353984D01*
X12093515Y-9353984D02*
X12093515Y-9249222D01*
X12093515Y-9249222D02*
X12083991Y-9230174D01*
X12083991Y-9230174D02*
X12064943Y-9220650D01*
X12064943Y-9220650D02*
X12026848Y-9220650D01*
X12026848Y-9220650D02*
X12007801Y-9230174D01*
X12093515Y-9344460D02*
X12074467Y-9353984D01*
X12074467Y-9353984D02*
X12026848Y-9353984D01*
X12026848Y-9353984D02*
X12007801Y-9344460D01*
X12007801Y-9344460D02*
X11998277Y-9325412D01*
X11998277Y-9325412D02*
X11998277Y-9306365D01*
X11998277Y-9306365D02*
X12007801Y-9287317D01*
X12007801Y-9287317D02*
X12026848Y-9277793D01*
X12026848Y-9277793D02*
X12074467Y-9277793D01*
X12074467Y-9277793D02*
X12093515Y-9268270D01*
X12188753Y-9220650D02*
X12188753Y-9420650D01*
X12188753Y-9230174D02*
X12207801Y-9220650D01*
X12207801Y-9220650D02*
X12245896Y-9220650D01*
X12245896Y-9220650D02*
X12264943Y-9230174D01*
X12264943Y-9230174D02*
X12274467Y-9239698D01*
X12274467Y-9239698D02*
X12283991Y-9258746D01*
X12283991Y-9258746D02*
X12283991Y-9315889D01*
X12283991Y-9315889D02*
X12274467Y-9334936D01*
X12274467Y-9334936D02*
X12264943Y-9344460D01*
X12264943Y-9344460D02*
X12245896Y-9353984D01*
X12245896Y-9353984D02*
X12207801Y-9353984D01*
X12207801Y-9353984D02*
X12188753Y-9344460D01*
X12369705Y-9334936D02*
X12379229Y-9344460D01*
X12379229Y-9344460D02*
X12369705Y-9353984D01*
X12369705Y-9353984D02*
X12360182Y-9344460D01*
X12360182Y-9344460D02*
X12369705Y-9334936D01*
X12369705Y-9334936D02*
X12369705Y-9353984D01*
X12369705Y-9230174D02*
X12379229Y-9239698D01*
X12379229Y-9239698D02*
X12369705Y-9249222D01*
X12369705Y-9249222D02*
X12360182Y-9239698D01*
X12360182Y-9239698D02*
X12369705Y-9230174D01*
X12369705Y-9230174D02*
X12369705Y-9249222D01*
M02*
