%TF.GenerationSoftware,KiCad,Pcbnew,8.0.8-8.0.8-0~ubuntu24.04.1*%
%TF.CreationDate,2025-02-14T12:49:08-06:00*%
%TF.ProjectId,tof_module,746f665f-6d6f-4647-956c-652e6b696361,rev?*%
%TF.SameCoordinates,Original*%
%TF.FileFunction,Copper,L2,Bot*%
%TF.FilePolarity,Positive*%
%FSLAX46Y46*%
G04 Gerber Fmt 4.6, Leading zero omitted, Abs format (unit mm)*
G04 Created by KiCad (PCBNEW 8.0.8-8.0.8-0~ubuntu24.04.1) date 2025-02-14 12:49:08*
%MOMM*%
%LPD*%
G01*
G04 APERTURE LIST*
G04 Aperture macros list*
%AMFreePoly0*
4,1,5,0.675000,-1.175000,-0.675000,-1.175000,-0.675000,1.175000,0.675000,1.175000,0.675000,-1.175000,0.675000,-1.175000,$1*%
G04 Aperture macros list end*
%TA.AperFunction,ComponentPad*%
%ADD10FreePoly0,0.000000*%
%TD*%
%TA.AperFunction,ComponentPad*%
%ADD11FreePoly0,270.000000*%
%TD*%
%TA.AperFunction,ComponentPad*%
%ADD12FreePoly0,180.000000*%
%TD*%
%TA.AperFunction,ViaPad*%
%ADD13C,0.533400*%
%TD*%
%TA.AperFunction,Conductor*%
%ADD14C,0.152400*%
%TD*%
G04 APERTURE END LIST*
D10*
%TO.P,J3,1,Pin_1*%
%TO.N,/tof_circuit/SDA*%
X123618143Y-89215410D03*
%TD*%
D11*
%TO.P,J1,1,Pin_1*%
%TO.N,/tof_circuit/CORE_1V8*%
X108589059Y-83792928D03*
%TD*%
%TO.P,J4,1,Pin_1*%
%TO.N,/tof_circuit/SCL*%
X108575621Y-88368187D03*
%TD*%
D12*
%TO.P,J6,1,Pin_1*%
%TO.N,GND*%
X113788438Y-77580000D03*
%TD*%
%TO.P,J5,1,Pin_1*%
%TO.N,/tof_circuit/LPn*%
X109596320Y-77580000D03*
%TD*%
%TO.P,J2,1,Pin_1*%
%TO.N,/tof_circuit/AVDD*%
X119009128Y-77580000D03*
%TD*%
D13*
%TO.N,GND*%
X111800000Y-89600000D03*
X114200000Y-80400000D03*
X123400000Y-86600000D03*
X120400000Y-81200000D03*
X118000000Y-86400000D03*
X123600000Y-78000000D03*
X110200000Y-87200000D03*
X109400000Y-81000000D03*
X113000000Y-84400000D03*
X109000000Y-85800000D03*
X113000000Y-81400000D03*
X116400000Y-78000000D03*
%TO.N,/tof_circuit/SDA*%
X116600000Y-84600000D03*
X115000000Y-86200000D03*
%TO.N,/tof_circuit/SCL*%
X115000000Y-84600000D03*
X113000000Y-86200000D03*
%TO.N,/tof_circuit/LPn*%
X118600000Y-84600000D03*
%TO.N,Net-(U1-NCS)*%
X118200000Y-80400000D03*
X121200000Y-82400000D03*
%TO.N,Net-(U1-MISO)*%
X115600000Y-80400000D03*
X121400000Y-83400000D03*
%TD*%
D14*
%TO.N,/tof_circuit/SDA*%
X116600000Y-84600000D02*
X116600000Y-86000000D01*
X123302733Y-88400000D02*
X123618143Y-88715410D01*
X115000000Y-86200000D02*
X115200000Y-86000000D01*
X115200000Y-86000000D02*
X116600000Y-86000000D01*
X119000000Y-88400000D02*
X123302733Y-88400000D01*
X116600000Y-86000000D02*
X119000000Y-88400000D01*
%TO.N,/tof_circuit/SCL*%
X113000000Y-85800000D02*
X113800000Y-85800000D01*
X113000000Y-85800000D02*
X110800000Y-85800000D01*
X113800000Y-85800000D02*
X115000000Y-84600000D01*
X109075621Y-87524379D02*
X109075621Y-88368187D01*
X113000000Y-85800000D02*
X113000000Y-86200000D01*
X110800000Y-85800000D02*
X109075621Y-87524379D01*
%TO.N,/tof_circuit/LPn*%
X111710929Y-80200000D02*
X109596320Y-78085391D01*
X118600000Y-84600000D02*
X117300460Y-84600000D01*
X112900460Y-80200000D02*
X111710929Y-80200000D01*
X117300460Y-84600000D02*
X112900460Y-80200000D01*
%TO.N,Net-(U1-NCS)*%
X121200000Y-80400000D02*
X121200000Y-82400000D01*
X118200000Y-80400000D02*
X121200000Y-80400000D01*
%TO.N,Net-(U1-MISO)*%
X115600000Y-80400000D02*
X118600000Y-83400000D01*
X118600000Y-83400000D02*
X121400000Y-83400000D01*
%TD*%
%TA.AperFunction,Conductor*%
%TO.N,GND*%
G36*
X114202698Y-85787889D02*
G01*
X114258631Y-85829761D01*
X114283048Y-85895225D01*
X114276406Y-85945025D01*
X114247301Y-86028204D01*
X114227945Y-86199996D01*
X114227945Y-86200003D01*
X114247301Y-86371795D01*
X114304402Y-86534983D01*
X114396382Y-86681367D01*
X114396383Y-86681368D01*
X114518632Y-86803617D01*
X114665018Y-86895598D01*
X114828202Y-86952698D01*
X114885468Y-86959150D01*
X114999996Y-86972055D01*
X115000000Y-86972055D01*
X115000004Y-86972055D01*
X115098170Y-86960993D01*
X115171798Y-86952698D01*
X115334982Y-86895598D01*
X115481368Y-86803617D01*
X115603617Y-86681368D01*
X115695598Y-86534982D01*
X115752698Y-86371798D01*
X115752698Y-86371796D01*
X115752699Y-86371794D01*
X115759231Y-86313818D01*
X115786297Y-86249403D01*
X115843891Y-86209848D01*
X115882451Y-86203700D01*
X116464263Y-86203700D01*
X116531302Y-86223385D01*
X116551944Y-86240019D01*
X118820240Y-88508315D01*
X118820243Y-88508319D01*
X118827311Y-88515387D01*
X118884613Y-88572689D01*
X118915625Y-88585534D01*
X118959482Y-88603701D01*
X118959483Y-88603701D01*
X119054953Y-88603701D01*
X119054961Y-88603700D01*
X122313643Y-88603700D01*
X122380682Y-88623385D01*
X122426437Y-88676189D01*
X122437643Y-88727700D01*
X122437643Y-89876000D01*
X122417958Y-89943039D01*
X122365154Y-89988794D01*
X122313643Y-90000000D01*
X108124000Y-90000000D01*
X108056961Y-89980315D01*
X108011206Y-89927511D01*
X108000000Y-89876000D01*
X108000000Y-89672687D01*
X108019685Y-89605648D01*
X108072489Y-89559893D01*
X108124000Y-89548687D01*
X109750621Y-89548687D01*
X109822561Y-89543542D01*
X109960613Y-89503006D01*
X110081653Y-89425218D01*
X110175875Y-89316481D01*
X110235645Y-89185603D01*
X110256121Y-89043187D01*
X110256121Y-87693187D01*
X110250976Y-87621247D01*
X110210440Y-87483195D01*
X110132652Y-87362155D01*
X110023915Y-87267933D01*
X110023911Y-87267931D01*
X109909182Y-87215536D01*
X109856379Y-87169781D01*
X109836694Y-87102742D01*
X109856379Y-87035702D01*
X109873008Y-87015066D01*
X110848057Y-86040019D01*
X110909380Y-86006534D01*
X110935738Y-86003700D01*
X112111306Y-86003700D01*
X112178345Y-86023385D01*
X112224100Y-86076189D01*
X112234526Y-86141582D01*
X112227945Y-86199994D01*
X112227945Y-86200003D01*
X112247301Y-86371795D01*
X112304402Y-86534983D01*
X112396382Y-86681367D01*
X112396383Y-86681368D01*
X112518632Y-86803617D01*
X112665018Y-86895598D01*
X112828202Y-86952698D01*
X112885468Y-86959150D01*
X112999996Y-86972055D01*
X113000000Y-86972055D01*
X113000004Y-86972055D01*
X113098170Y-86960993D01*
X113171798Y-86952698D01*
X113334982Y-86895598D01*
X113481368Y-86803617D01*
X113603617Y-86681368D01*
X113695598Y-86534982D01*
X113752698Y-86371798D01*
X113769420Y-86223385D01*
X113772055Y-86200003D01*
X113772055Y-86199997D01*
X113764425Y-86132280D01*
X113776479Y-86063458D01*
X113823828Y-86012078D01*
X113840194Y-86003834D01*
X113840518Y-86003700D01*
X113840519Y-86003700D01*
X113915387Y-85972689D01*
X113972689Y-85915387D01*
X113972689Y-85915386D01*
X113990127Y-85897948D01*
X113990128Y-85897945D01*
X114071685Y-85816388D01*
X114133006Y-85782905D01*
X114202698Y-85787889D01*
G37*
%TD.AperFunction*%
%TA.AperFunction,Conductor*%
G36*
X112551477Y-76819685D02*
G01*
X112597232Y-76872489D01*
X112608438Y-76924000D01*
X112608438Y-77330000D01*
X114968438Y-77330000D01*
X114968438Y-76924000D01*
X114988123Y-76856961D01*
X115040927Y-76811206D01*
X115092438Y-76800000D01*
X117704628Y-76800000D01*
X117771667Y-76819685D01*
X117817422Y-76872489D01*
X117828628Y-76924000D01*
X117828628Y-78755002D01*
X117833772Y-78826940D01*
X117862466Y-78924660D01*
X117864731Y-78932374D01*
X117874310Y-78964994D01*
X117952095Y-79086030D01*
X117952099Y-79086034D01*
X118060347Y-79179832D01*
X118060834Y-79180254D01*
X118101302Y-79198735D01*
X118191708Y-79240023D01*
X118191711Y-79240023D01*
X118191712Y-79240024D01*
X118334128Y-79260500D01*
X118334131Y-79260500D01*
X119684128Y-79260500D01*
X119756068Y-79255355D01*
X119894120Y-79214819D01*
X120015160Y-79137031D01*
X120109382Y-79028294D01*
X120169152Y-78897416D01*
X120189628Y-78755000D01*
X120189628Y-76924000D01*
X120209313Y-76856961D01*
X120262117Y-76811206D01*
X120313628Y-76800000D01*
X125476000Y-76800000D01*
X125543039Y-76819685D01*
X125588794Y-76872489D01*
X125600000Y-76924000D01*
X125600000Y-89876000D01*
X125580315Y-89943039D01*
X125527511Y-89988794D01*
X125476000Y-90000000D01*
X124922643Y-90000000D01*
X124855604Y-89980315D01*
X124809849Y-89927511D01*
X124798643Y-89876000D01*
X124798643Y-88040410D01*
X124798643Y-88040409D01*
X124793498Y-87968470D01*
X124752962Y-87830418D01*
X124675174Y-87709378D01*
X124656485Y-87693184D01*
X124566442Y-87615160D01*
X124566440Y-87615158D01*
X124566437Y-87615156D01*
X124566433Y-87615154D01*
X124435562Y-87555386D01*
X124435557Y-87555385D01*
X124293143Y-87534910D01*
X122943143Y-87534910D01*
X122943140Y-87534910D01*
X122871202Y-87540054D01*
X122733148Y-87580592D01*
X122612112Y-87658377D01*
X122612108Y-87658381D01*
X122517893Y-87767110D01*
X122517887Y-87767119D01*
X122458119Y-87897990D01*
X122458118Y-87897995D01*
X122437643Y-88040409D01*
X122437643Y-88072300D01*
X122417958Y-88139339D01*
X122365154Y-88185094D01*
X122313643Y-88196300D01*
X119135737Y-88196300D01*
X119068698Y-88176615D01*
X119048056Y-88159981D01*
X116840019Y-85951944D01*
X116806534Y-85890621D01*
X116803700Y-85864263D01*
X116803700Y-85429518D01*
X116823385Y-85362479D01*
X116876189Y-85316724D01*
X116886740Y-85312478D01*
X116934982Y-85295598D01*
X117081368Y-85203617D01*
X117203617Y-85081368D01*
X117295598Y-84934982D01*
X117312476Y-84886745D01*
X117353197Y-84829970D01*
X117418150Y-84804222D01*
X117429518Y-84803700D01*
X117770482Y-84803700D01*
X117837521Y-84823385D01*
X117883276Y-84876189D01*
X117887524Y-84886746D01*
X117904402Y-84934983D01*
X117996382Y-85081367D01*
X118118632Y-85203617D01*
X118264075Y-85295006D01*
X118265018Y-85295598D01*
X118428202Y-85352698D01*
X118485468Y-85359150D01*
X118599996Y-85372055D01*
X118600000Y-85372055D01*
X118600004Y-85372055D01*
X118698170Y-85360993D01*
X118771798Y-85352698D01*
X118934982Y-85295598D01*
X119081368Y-85203617D01*
X119203617Y-85081368D01*
X119295598Y-84934982D01*
X119352698Y-84771798D01*
X119372055Y-84600000D01*
X119352698Y-84428202D01*
X119295598Y-84265018D01*
X119295005Y-84264075D01*
X119203617Y-84118632D01*
X119081367Y-83996382D01*
X118934983Y-83904402D01*
X118765225Y-83845002D01*
X118766175Y-83842286D01*
X118716467Y-83814480D01*
X118683611Y-83752818D01*
X118689307Y-83683181D01*
X118731749Y-83627678D01*
X118797459Y-83603932D01*
X118805040Y-83603700D01*
X120570482Y-83603700D01*
X120637521Y-83623385D01*
X120683276Y-83676189D01*
X120687524Y-83686746D01*
X120704402Y-83734983D01*
X120796382Y-83881367D01*
X120796383Y-83881368D01*
X120918632Y-84003617D01*
X121065018Y-84095598D01*
X121228202Y-84152698D01*
X121285468Y-84159150D01*
X121399996Y-84172055D01*
X121400000Y-84172055D01*
X121400004Y-84172055D01*
X121498170Y-84160993D01*
X121571798Y-84152698D01*
X121734982Y-84095598D01*
X121881368Y-84003617D01*
X122003617Y-83881368D01*
X122095598Y-83734982D01*
X122152698Y-83571798D01*
X122172055Y-83400000D01*
X122152698Y-83228202D01*
X122095598Y-83065018D01*
X122003617Y-82918632D01*
X121931087Y-82846102D01*
X121897602Y-82784779D01*
X121901727Y-82717466D01*
X121952698Y-82571799D01*
X121952698Y-82571796D01*
X121972055Y-82400003D01*
X121972055Y-82399996D01*
X121952698Y-82228204D01*
X121952698Y-82228202D01*
X121895598Y-82065018D01*
X121803617Y-81918632D01*
X121681368Y-81796383D01*
X121681367Y-81796382D01*
X121534984Y-81704403D01*
X121534985Y-81704403D01*
X121486743Y-81687522D01*
X121429968Y-81646799D01*
X121404222Y-81581846D01*
X121403700Y-81570481D01*
X121403700Y-80359482D01*
X121403698Y-80359477D01*
X121372691Y-80284615D01*
X121315384Y-80227308D01*
X121240522Y-80196301D01*
X121240520Y-80196300D01*
X121240519Y-80196300D01*
X121240517Y-80196300D01*
X119029518Y-80196300D01*
X118962479Y-80176615D01*
X118916724Y-80123811D01*
X118912476Y-80113254D01*
X118908557Y-80102055D01*
X118895598Y-80065018D01*
X118829598Y-79959981D01*
X118803617Y-79918632D01*
X118681367Y-79796382D01*
X118534983Y-79704402D01*
X118371795Y-79647301D01*
X118200004Y-79627945D01*
X118199996Y-79627945D01*
X118028204Y-79647301D01*
X117865016Y-79704402D01*
X117718632Y-79796382D01*
X117596382Y-79918632D01*
X117504402Y-80065016D01*
X117447301Y-80228204D01*
X117427945Y-80399996D01*
X117427945Y-80400003D01*
X117447301Y-80571795D01*
X117504402Y-80734983D01*
X117596382Y-80881367D01*
X117718632Y-81003617D01*
X117820467Y-81067605D01*
X117865018Y-81095598D01*
X118028202Y-81152698D01*
X118085468Y-81159150D01*
X118199996Y-81172055D01*
X118200000Y-81172055D01*
X118200004Y-81172055D01*
X118298170Y-81160993D01*
X118371798Y-81152698D01*
X118534982Y-81095598D01*
X118681368Y-81003617D01*
X118803617Y-80881368D01*
X118895598Y-80734982D01*
X118912476Y-80686745D01*
X118953197Y-80629970D01*
X119018150Y-80604222D01*
X119029518Y-80603700D01*
X120872300Y-80603700D01*
X120939339Y-80623385D01*
X120985094Y-80676189D01*
X120996300Y-80727700D01*
X120996300Y-81570481D01*
X120976615Y-81637520D01*
X120923811Y-81683275D01*
X120913257Y-81687522D01*
X120865014Y-81704403D01*
X120718632Y-81796382D01*
X120596382Y-81918632D01*
X120504402Y-82065016D01*
X120447301Y-82228204D01*
X120427945Y-82399996D01*
X120427945Y-82400003D01*
X120447301Y-82571795D01*
X120504402Y-82734983D01*
X120596382Y-82881367D01*
X120668912Y-82953897D01*
X120702397Y-83015220D01*
X120698274Y-83082529D01*
X120687525Y-83113251D01*
X120646805Y-83170028D01*
X120581853Y-83195778D01*
X120570482Y-83196300D01*
X118735737Y-83196300D01*
X118668698Y-83176615D01*
X118648056Y-83159981D01*
X116331888Y-80843813D01*
X116298403Y-80782490D01*
X116302528Y-80715177D01*
X116352698Y-80571799D01*
X116352698Y-80571796D01*
X116372055Y-80400003D01*
X116372055Y-80399996D01*
X116352698Y-80228204D01*
X116352698Y-80228202D01*
X116295598Y-80065018D01*
X116229598Y-79959981D01*
X116203617Y-79918632D01*
X116081367Y-79796382D01*
X115934983Y-79704402D01*
X115771795Y-79647301D01*
X115600004Y-79627945D01*
X115599996Y-79627945D01*
X115428204Y-79647301D01*
X115265016Y-79704402D01*
X115118632Y-79796382D01*
X114996382Y-79918632D01*
X114904402Y-80065016D01*
X114847301Y-80228204D01*
X114827945Y-80399996D01*
X114827945Y-80400003D01*
X114847301Y-80571795D01*
X114904402Y-80734983D01*
X114996382Y-80881367D01*
X115118632Y-81003617D01*
X115220467Y-81067605D01*
X115265018Y-81095598D01*
X115428202Y-81152698D01*
X115485468Y-81159150D01*
X115599996Y-81172055D01*
X115600000Y-81172055D01*
X115600004Y-81172055D01*
X115714532Y-81159150D01*
X115771798Y-81152698D01*
X115771799Y-81152698D01*
X115915177Y-81102528D01*
X115984956Y-81098966D01*
X116043813Y-81131888D01*
X118420240Y-83508315D01*
X118420243Y-83508319D01*
X118427311Y-83515387D01*
X118484613Y-83572689D01*
X118515625Y-83585534D01*
X118549635Y-83599622D01*
X118604036Y-83643463D01*
X118626100Y-83709757D01*
X118608820Y-83777456D01*
X118557682Y-83825066D01*
X118516064Y-83837401D01*
X118428204Y-83847301D01*
X118265016Y-83904402D01*
X118118632Y-83996382D01*
X117996382Y-84118632D01*
X117904402Y-84265016D01*
X117887524Y-84313254D01*
X117846803Y-84370030D01*
X117781850Y-84395778D01*
X117770482Y-84396300D01*
X117436197Y-84396300D01*
X117369158Y-84376615D01*
X117348516Y-84359981D01*
X117338241Y-84349706D01*
X117308880Y-84302977D01*
X117295599Y-84265020D01*
X117295598Y-84265017D01*
X117203617Y-84118632D01*
X117081367Y-83996382D01*
X116934982Y-83904401D01*
X116934978Y-83904400D01*
X116897018Y-83891117D01*
X116850292Y-83861757D01*
X113090590Y-80102055D01*
X113090588Y-80102052D01*
X113015844Y-80027308D01*
X112940982Y-79996301D01*
X112940980Y-79996300D01*
X112940979Y-79996300D01*
X112940977Y-79996300D01*
X111846666Y-79996300D01*
X111779627Y-79976615D01*
X111758985Y-79959981D01*
X110792701Y-78993697D01*
X110759216Y-78932374D01*
X110757644Y-78888373D01*
X110776820Y-78755000D01*
X110776820Y-77830000D01*
X112608438Y-77830000D01*
X112608438Y-78755002D01*
X112613578Y-78826870D01*
X112654072Y-78964781D01*
X112731783Y-79085703D01*
X112840414Y-79179832D01*
X112840415Y-79179833D01*
X112971159Y-79239543D01*
X112971163Y-79239544D01*
X113113439Y-79259999D01*
X113113441Y-79260000D01*
X113538438Y-79260000D01*
X113538438Y-78395686D01*
X113542832Y-78400080D01*
X113634044Y-78452741D01*
X113735777Y-78480000D01*
X113841099Y-78480000D01*
X113942832Y-78452741D01*
X114034044Y-78400080D01*
X114038438Y-78395686D01*
X114038438Y-79260000D01*
X114463438Y-79260000D01*
X114463440Y-79259999D01*
X114535308Y-79254859D01*
X114673219Y-79214365D01*
X114794141Y-79136654D01*
X114888270Y-79028023D01*
X114888271Y-79028022D01*
X114947981Y-78897278D01*
X114947982Y-78897274D01*
X114968437Y-78754998D01*
X114968438Y-78754997D01*
X114968438Y-77830000D01*
X114104124Y-77830000D01*
X114034044Y-77759920D01*
X113942832Y-77707259D01*
X113841099Y-77680000D01*
X113735777Y-77680000D01*
X113634044Y-77707259D01*
X113542832Y-77759920D01*
X113472752Y-77830000D01*
X112608438Y-77830000D01*
X110776820Y-77830000D01*
X110776820Y-76924000D01*
X110796505Y-76856961D01*
X110849309Y-76811206D01*
X110900820Y-76800000D01*
X112484438Y-76800000D01*
X112551477Y-76819685D01*
G37*
%TD.AperFunction*%
%TA.AperFunction,Conductor*%
G36*
X108358859Y-76819685D02*
G01*
X108404614Y-76872489D01*
X108415820Y-76924000D01*
X108415820Y-78755002D01*
X108420964Y-78826940D01*
X108449658Y-78924660D01*
X108451923Y-78932374D01*
X108461502Y-78964994D01*
X108539287Y-79086030D01*
X108539291Y-79086034D01*
X108647539Y-79179832D01*
X108648026Y-79180254D01*
X108688494Y-79198735D01*
X108778900Y-79240023D01*
X108778903Y-79240023D01*
X108778904Y-79240024D01*
X108921320Y-79260500D01*
X108921323Y-79260500D01*
X110271320Y-79260500D01*
X110343260Y-79255355D01*
X110376986Y-79245451D01*
X110446854Y-79245451D01*
X110499602Y-79276748D01*
X111531169Y-80308315D01*
X111531172Y-80308319D01*
X111538240Y-80315387D01*
X111595542Y-80372689D01*
X111626554Y-80385534D01*
X111670411Y-80403701D01*
X111670412Y-80403701D01*
X111765882Y-80403701D01*
X111765890Y-80403700D01*
X112764723Y-80403700D01*
X112831762Y-80423385D01*
X112852404Y-80440019D01*
X116186861Y-83774476D01*
X116220346Y-83835799D01*
X116215362Y-83905491D01*
X116173490Y-83961424D01*
X116165154Y-83967150D01*
X116118632Y-83996382D01*
X115996382Y-84118632D01*
X115904994Y-84264075D01*
X115852659Y-84310366D01*
X115783605Y-84321014D01*
X115719757Y-84292639D01*
X115695006Y-84264075D01*
X115603617Y-84118632D01*
X115481367Y-83996382D01*
X115334983Y-83904402D01*
X115171795Y-83847301D01*
X115000004Y-83827945D01*
X114999996Y-83827945D01*
X114828204Y-83847301D01*
X114665016Y-83904402D01*
X114518632Y-83996382D01*
X114396382Y-84118632D01*
X114304402Y-84265016D01*
X114247301Y-84428204D01*
X114227945Y-84599996D01*
X114227945Y-84600003D01*
X114247301Y-84771795D01*
X114297472Y-84915177D01*
X114301033Y-84984956D01*
X114268111Y-85043812D01*
X113751944Y-85559981D01*
X113690621Y-85593466D01*
X113664263Y-85596300D01*
X113516960Y-85596300D01*
X113450987Y-85577293D01*
X113334984Y-85504403D01*
X113334983Y-85504402D01*
X113171795Y-85447301D01*
X113000004Y-85427945D01*
X112999996Y-85427945D01*
X112828204Y-85447301D01*
X112665016Y-85504402D01*
X112665015Y-85504403D01*
X112549013Y-85577293D01*
X112483040Y-85596300D01*
X110840519Y-85596300D01*
X110759481Y-85596300D01*
X110759479Y-85596300D01*
X110759477Y-85596301D01*
X110684615Y-85627308D01*
X110684613Y-85627310D01*
X109160557Y-87151368D01*
X109099234Y-87184853D01*
X109072876Y-87187687D01*
X108124000Y-87187687D01*
X108056961Y-87168002D01*
X108011206Y-87115198D01*
X108000000Y-87063687D01*
X108000000Y-85097428D01*
X108019685Y-85030389D01*
X108072489Y-84984634D01*
X108124000Y-84973428D01*
X109764059Y-84973428D01*
X109835999Y-84968283D01*
X109974051Y-84927747D01*
X110095091Y-84849959D01*
X110189313Y-84741222D01*
X110249083Y-84610344D01*
X110269559Y-84467928D01*
X110269559Y-83117928D01*
X110264414Y-83045988D01*
X110223878Y-82907936D01*
X110146090Y-82786896D01*
X110065964Y-82717466D01*
X110037358Y-82692678D01*
X110037356Y-82692676D01*
X110037353Y-82692674D01*
X110037349Y-82692672D01*
X109906478Y-82632904D01*
X109906473Y-82632903D01*
X109764059Y-82612428D01*
X108124000Y-82612428D01*
X108056961Y-82592743D01*
X108011206Y-82539939D01*
X108000000Y-82488428D01*
X108000000Y-76924000D01*
X108019685Y-76856961D01*
X108072489Y-76811206D01*
X108124000Y-76800000D01*
X108291820Y-76800000D01*
X108358859Y-76819685D01*
G37*
%TD.AperFunction*%
%TD*%
M02*
