%TF.GenerationSoftware,KiCad,Pcbnew,8.0.8-8.0.8-0~ubuntu24.04.1*%
%TF.CreationDate,2025-02-14T12:49:08-06:00*%
%TF.ProjectId,tof_module,746f665f-6d6f-4647-956c-652e6b696361,rev?*%
%TF.SameCoordinates,Original*%
%TF.FileFunction,Copper,L1,Top*%
%TF.FilePolarity,Positive*%
%FSLAX46Y46*%
G04 Gerber Fmt 4.6, Leading zero omitted, Abs format (unit mm)*
G04 Created by KiCad (PCBNEW 8.0.8-8.0.8-0~ubuntu24.04.1) date 2025-02-14 12:49:08*
%MOMM*%
%LPD*%
G01*
G04 APERTURE LIST*
G04 Aperture macros list*
%AMRoundRect*
0 Rectangle with rounded corners*
0 $1 Rounding radius*
0 $2 $3 $4 $5 $6 $7 $8 $9 X,Y pos of 4 corners*
0 Add a 4 corners polygon primitive as box body*
4,1,4,$2,$3,$4,$5,$6,$7,$8,$9,$2,$3,0*
0 Add four circle primitives for the rounded corners*
1,1,$1+$1,$2,$3*
1,1,$1+$1,$4,$5*
1,1,$1+$1,$6,$7*
1,1,$1+$1,$8,$9*
0 Add four rect primitives between the rounded corners*
20,1,$1+$1,$2,$3,$4,$5,0*
20,1,$1+$1,$4,$5,$6,$7,0*
20,1,$1+$1,$6,$7,$8,$9,0*
20,1,$1+$1,$8,$9,$2,$3,0*%
%AMFreePoly0*
4,1,5,0.675000,-1.175000,-0.675000,-1.175000,-0.675000,1.175000,0.675000,1.175000,0.675000,-1.175000,0.675000,-1.175000,$1*%
G04 Aperture macros list end*
%TA.AperFunction,SMDPad,CuDef*%
%ADD10RoundRect,0.237500X0.237500X-0.250000X0.237500X0.250000X-0.237500X0.250000X-0.237500X-0.250000X0*%
%TD*%
%TA.AperFunction,SMDPad,CuDef*%
%ADD11RoundRect,0.237500X-0.250000X-0.237500X0.250000X-0.237500X0.250000X0.237500X-0.250000X0.237500X0*%
%TD*%
%TA.AperFunction,ComponentPad*%
%ADD12FreePoly0,0.000000*%
%TD*%
%TA.AperFunction,SMDPad,CuDef*%
%ADD13RoundRect,0.237500X0.250000X0.237500X-0.250000X0.237500X-0.250000X-0.237500X0.250000X-0.237500X0*%
%TD*%
%TA.AperFunction,ComponentPad*%
%ADD14FreePoly0,270.000000*%
%TD*%
%TA.AperFunction,SMDPad,CuDef*%
%ADD15R,0.100000X0.200000*%
%TD*%
%TA.AperFunction,SMDPad,CuDef*%
%ADD16R,0.500000X0.515000*%
%TD*%
%TA.AperFunction,SMDPad,CuDef*%
%ADD17R,0.535000X0.500000*%
%TD*%
%TA.AperFunction,SMDPad,CuDef*%
%ADD18R,2.316000X1.200000*%
%TD*%
%TA.AperFunction,ComponentPad*%
%ADD19FreePoly0,180.000000*%
%TD*%
%TA.AperFunction,SMDPad,CuDef*%
%ADD20RoundRect,0.100000X0.217500X0.100000X-0.217500X0.100000X-0.217500X-0.100000X0.217500X-0.100000X0*%
%TD*%
%TA.AperFunction,SMDPad,CuDef*%
%ADD21RoundRect,0.100000X0.100000X-0.217500X0.100000X0.217500X-0.100000X0.217500X-0.100000X-0.217500X0*%
%TD*%
%TA.AperFunction,SMDPad,CuDef*%
%ADD22RoundRect,0.100000X-0.100000X0.217500X-0.100000X-0.217500X0.100000X-0.217500X0.100000X0.217500X0*%
%TD*%
%TA.AperFunction,ViaPad*%
%ADD23C,0.533400*%
%TD*%
%TA.AperFunction,Conductor*%
%ADD24C,0.152400*%
%TD*%
%TA.AperFunction,Conductor*%
%ADD25C,0.508000*%
%TD*%
G04 APERTURE END LIST*
D10*
%TO.P,R3,1*%
%TO.N,/tof_circuit/CORE_1V8*%
X117000000Y-89162500D03*
%TO.P,R3,2*%
%TO.N,/tof_circuit/LPn*%
X117000000Y-87337500D03*
%TD*%
D11*
%TO.P,R7,1*%
%TO.N,Net-(U1-NCS)*%
X122537500Y-82300000D03*
%TO.P,R7,2*%
%TO.N,GND*%
X124362500Y-82300000D03*
%TD*%
D12*
%TO.P,J3,1,Pin_1*%
%TO.N,/tof_circuit/SDA*%
X123618143Y-89215410D03*
%TD*%
D10*
%TO.P,R5,1*%
%TO.N,/tof_circuit/CORE_1V8*%
X121000000Y-89162500D03*
%TO.P,R5,2*%
%TO.N,Net-(U1-SYNC)*%
X121000000Y-87337500D03*
%TD*%
D11*
%TO.P,R8,1*%
%TO.N,Net-(U1-MISO)*%
X122537500Y-84400000D03*
%TO.P,R8,2*%
%TO.N,GND*%
X124362500Y-84400000D03*
%TD*%
D13*
%TO.P,R6,1*%
%TO.N,GND*%
X124362500Y-80200000D03*
%TO.P,R6,2*%
X122537500Y-80200000D03*
%TD*%
D10*
%TO.P,R4,1*%
%TO.N,/tof_circuit/CORE_1V8*%
X119000000Y-89162500D03*
%TO.P,R4,2*%
%TO.N,Net-(U1-INT_1)*%
X119000000Y-87337500D03*
%TD*%
D14*
%TO.P,J1,1,Pin_1*%
%TO.N,/tof_circuit/CORE_1V8*%
X108589059Y-83792928D03*
%TD*%
D15*
%TO.P,U1,1,INT_1*%
%TO.N,Net-(U1-INT_1)*%
X119250000Y-83358000D03*
D16*
%TO.P,U1,A1,INT_2*%
X118950000Y-83516000D03*
%TO.P,U1,A2,XSHUT*%
%TO.N,/tof_circuit/LPn*%
X118200000Y-83516000D03*
%TO.P,U1,A3,IOVDD*%
%TO.N,/tof_circuit/CORE_1V8*%
X117450000Y-83516000D03*
%TO.P,U1,A4,MOSI*%
%TO.N,/tof_circuit/SDA*%
X116700000Y-83516000D03*
%TO.P,U1,A5,MCLK*%
%TO.N,/tof_circuit/SCL*%
X115950000Y-83516000D03*
%TO.P,U1,A6,SWD_IO*%
%TO.N,GND*%
X115200000Y-83516000D03*
%TO.P,U1,A7,SWD_CLK*%
X114450000Y-83516000D03*
D17*
%TO.P,U1,B1,SYNC*%
%TO.N,Net-(U1-SYNC)*%
X119368000Y-82458000D03*
D18*
%TO.P,U1,B4,GND_1*%
%TO.N,GND*%
X116700000Y-82458000D03*
D17*
%TO.P,U1,B7,CORE_1V8*%
%TO.N,/tof_circuit/CORE_1V8*%
X114032000Y-82458000D03*
D16*
%TO.P,U1,C1,SPI_I2C_N*%
%TO.N,GND*%
X118950000Y-81400000D03*
%TO.P,U1,C2,NCS*%
%TO.N,Net-(U1-NCS)*%
X118200000Y-81400000D03*
%TO.P,U1,C3,GND_2*%
%TO.N,GND*%
X117450000Y-81400000D03*
%TO.P,U1,C4,VDD*%
%TO.N,/tof_circuit/AVDD*%
X116700000Y-81400000D03*
%TO.P,U1,C5,MISO*%
%TO.N,Net-(U1-MISO)*%
X115950000Y-81400000D03*
%TO.P,U1,C6,ATEST1*%
%TO.N,GND*%
X115200000Y-81400000D03*
%TO.P,U1,C7,GND_3*%
X114450000Y-81400000D03*
%TD*%
D14*
%TO.P,J4,1,Pin_1*%
%TO.N,/tof_circuit/SCL*%
X108575621Y-88368187D03*
%TD*%
D19*
%TO.P,J6,1,Pin_1*%
%TO.N,GND*%
X113788438Y-77580000D03*
%TD*%
D20*
%TO.P,C3,1*%
%TO.N,/tof_circuit/AVDD*%
X116807500Y-79400000D03*
%TO.P,C3,2*%
%TO.N,GND*%
X115992500Y-79400000D03*
%TD*%
D19*
%TO.P,J5,1,Pin_1*%
%TO.N,/tof_circuit/LPn*%
X109596320Y-77580000D03*
%TD*%
D21*
%TO.P,C1,1*%
%TO.N,/tof_circuit/CORE_1V8*%
X111800000Y-82407500D03*
%TO.P,C1,2*%
%TO.N,GND*%
X111800000Y-81592500D03*
%TD*%
D20*
%TO.P,C2,1*%
%TO.N,GND*%
X118407500Y-85600000D03*
%TO.P,C2,2*%
%TO.N,/tof_circuit/CORE_1V8*%
X117592500Y-85600000D03*
%TD*%
D19*
%TO.P,J2,1,Pin_1*%
%TO.N,/tof_circuit/AVDD*%
X119009128Y-77580000D03*
%TD*%
D10*
%TO.P,R1,1*%
%TO.N,/tof_circuit/CORE_1V8*%
X113000000Y-89162500D03*
%TO.P,R1,2*%
%TO.N,/tof_circuit/SCL*%
X113000000Y-87337500D03*
%TD*%
%TO.P,R2,1*%
%TO.N,/tof_circuit/CORE_1V8*%
X115000000Y-89162500D03*
%TO.P,R2,2*%
%TO.N,/tof_circuit/SDA*%
X115000000Y-87337500D03*
%TD*%
D22*
%TO.P,C4,1*%
%TO.N,/tof_circuit/CORE_1V8*%
X111000000Y-88612500D03*
%TO.P,C4,2*%
%TO.N,GND*%
X111000000Y-89427500D03*
%TD*%
D23*
%TO.N,GND*%
X111800000Y-89600000D03*
X114200000Y-80400000D03*
X123400000Y-86600000D03*
X120400000Y-81200000D03*
X118000000Y-86400000D03*
X123600000Y-78000000D03*
X110200000Y-87200000D03*
X109400000Y-81000000D03*
X113000000Y-84400000D03*
X109000000Y-85800000D03*
X113000000Y-81400000D03*
X116400000Y-78000000D03*
%TO.N,/tof_circuit/SDA*%
X116600000Y-84600000D03*
X115000000Y-86200000D03*
%TO.N,/tof_circuit/SCL*%
X115000000Y-84600000D03*
X113000000Y-86200000D03*
%TO.N,/tof_circuit/LPn*%
X118600000Y-84600000D03*
%TO.N,Net-(U1-NCS)*%
X118200000Y-80400000D03*
X121200000Y-82400000D03*
%TO.N,Net-(U1-MISO)*%
X115600000Y-80400000D03*
X121400000Y-83400000D03*
%TD*%
D24*
%TO.N,GND*%
X118950000Y-81400000D02*
X120200000Y-81400000D01*
X114450000Y-83516000D02*
X113884000Y-83516000D01*
X118000000Y-86400000D02*
X118200000Y-86400000D01*
X113884000Y-83516000D02*
X113000000Y-84400000D01*
X117400000Y-80000000D02*
X117400000Y-81350000D01*
X118301900Y-82458000D02*
X118950000Y-81809900D01*
X117400000Y-81350000D02*
X117450000Y-81400000D01*
X111627500Y-89427500D02*
X111800000Y-89600000D01*
X115200000Y-83516000D02*
X114450000Y-83516000D01*
X118407500Y-86192500D02*
X118407500Y-85600000D01*
X116700000Y-82458000D02*
X118301900Y-82458000D01*
X115200000Y-81400000D02*
X114450000Y-81400000D01*
X120200000Y-81400000D02*
X120400000Y-81200000D01*
X118200000Y-86400000D02*
X118407500Y-86192500D01*
X122242200Y-79904700D02*
X117495300Y-79904700D01*
X111000000Y-89427500D02*
X111627500Y-89427500D01*
X118950000Y-81809900D02*
X118950000Y-81400000D01*
X117495300Y-79904700D02*
X117400000Y-80000000D01*
X122537500Y-80200000D02*
X122242200Y-79904700D01*
D25*
%TO.N,/tof_circuit/CORE_1V8*%
X113000000Y-89162500D02*
X121000000Y-89162500D01*
X117200000Y-85400000D02*
X117400000Y-85600000D01*
X111800000Y-82407500D02*
X113981500Y-82407500D01*
X117450000Y-85550000D02*
X117400000Y-85600000D01*
X112450000Y-88612500D02*
X113000000Y-89162500D01*
X112000000Y-85400000D02*
X117200000Y-85400000D01*
X111000000Y-86400000D02*
X111000000Y-88612500D01*
X109096131Y-83800000D02*
X111800000Y-83800000D01*
X109089059Y-83792928D02*
X109096131Y-83800000D01*
X111800000Y-85600000D02*
X111000000Y-86400000D01*
X111800000Y-85600000D02*
X112000000Y-85400000D01*
X117400000Y-85600000D02*
X117592500Y-85600000D01*
X111800000Y-83800000D02*
X111800000Y-85600000D01*
X111000000Y-88612500D02*
X112450000Y-88612500D01*
X111800000Y-83800000D02*
X111800000Y-82407500D01*
X117450000Y-83516000D02*
X117450000Y-85550000D01*
X113981500Y-82407500D02*
X114032000Y-82458000D01*
%TO.N,/tof_circuit/AVDD*%
X116700000Y-81400000D02*
X116700000Y-79507500D01*
X118007500Y-78200000D02*
X116807500Y-79400000D01*
X116700000Y-79507500D02*
X116807500Y-79400000D01*
X119009128Y-78200000D02*
X118007500Y-78200000D01*
D24*
%TO.N,/tof_circuit/SDA*%
X115000000Y-86200000D02*
X115000000Y-87337500D01*
X116700000Y-84500000D02*
X116600000Y-84600000D01*
X116700000Y-83516000D02*
X116700000Y-84500000D01*
%TO.N,/tof_circuit/SCL*%
X113000000Y-86200000D02*
X113000000Y-87337500D01*
X115000000Y-84600000D02*
X115950000Y-83650000D01*
X115950000Y-83650000D02*
X115950000Y-83516000D01*
%TO.N,/tof_circuit/LPn*%
X119200000Y-84600000D02*
X119400000Y-84800000D01*
X119200000Y-84600000D02*
X118600000Y-84600000D01*
X117862500Y-87337500D02*
X117000000Y-87337500D01*
X119400000Y-85800000D02*
X117862500Y-87337500D01*
X118200000Y-83600000D02*
X119200000Y-84600000D01*
X118200000Y-83516000D02*
X118200000Y-83600000D01*
X119400000Y-84800000D02*
X119400000Y-85800000D01*
%TO.N,Net-(U1-INT_1)*%
X119000000Y-87337500D02*
X120000000Y-86337500D01*
X120000000Y-86337500D02*
X120000000Y-84566000D01*
X119000000Y-87337500D02*
X119000000Y-87000000D01*
X120000000Y-84566000D02*
X118950000Y-83516000D01*
%TO.N,Net-(U1-SYNC)*%
X119368000Y-82458000D02*
X121000000Y-84090000D01*
X121000000Y-84090000D02*
X121000000Y-86937500D01*
%TO.N,Net-(U1-NCS)*%
X118200000Y-81400000D02*
X118200000Y-80400000D01*
X122437500Y-82400000D02*
X122537500Y-82300000D01*
X121200000Y-82400000D02*
X122437500Y-82400000D01*
%TO.N,Net-(U1-MISO)*%
X115600000Y-80400000D02*
X115950000Y-80750000D01*
X115950000Y-80750000D02*
X115950000Y-81400000D01*
X122400000Y-84400000D02*
X122537500Y-84400000D01*
X121400000Y-83400000D02*
X122400000Y-84400000D01*
%TD*%
%TA.AperFunction,Conductor*%
%TO.N,GND*%
G36*
X111967539Y-89013685D02*
G01*
X112013294Y-89066489D01*
X112024500Y-89118000D01*
X112024500Y-89461669D01*
X112024501Y-89461687D01*
X112034825Y-89562752D01*
X112049040Y-89605648D01*
X112089092Y-89726516D01*
X112141143Y-89810904D01*
X112159583Y-89878295D01*
X112138661Y-89944959D01*
X112085019Y-89989729D01*
X112035604Y-90000000D01*
X111787968Y-90000000D01*
X111720929Y-89980315D01*
X111675174Y-89927511D01*
X111665230Y-89858353D01*
X111673407Y-89828548D01*
X111684554Y-89801634D01*
X111684555Y-89801630D01*
X111699999Y-89684330D01*
X111700000Y-89684316D01*
X111700000Y-89627500D01*
X111367237Y-89627500D01*
X111300198Y-89607815D01*
X111254443Y-89555011D01*
X111244499Y-89485853D01*
X111273524Y-89422297D01*
X111319785Y-89388939D01*
X111355322Y-89374219D01*
X111402841Y-89354536D01*
X111528282Y-89258282D01*
X111528283Y-89258279D01*
X111534729Y-89253334D01*
X111536860Y-89256111D01*
X111584068Y-89230334D01*
X111610426Y-89227500D01*
X111699999Y-89227500D01*
X111699999Y-89170676D01*
X111695195Y-89134184D01*
X111705961Y-89065149D01*
X111752341Y-89012894D01*
X111818134Y-88994000D01*
X111900500Y-88994000D01*
X111967539Y-89013685D01*
G37*
%TD.AperFunction*%
%TA.AperFunction,Conductor*%
G36*
X125543039Y-76819685D02*
G01*
X125588794Y-76872489D01*
X125600000Y-76924000D01*
X125600000Y-89876000D01*
X125580315Y-89943039D01*
X125527511Y-89988794D01*
X125476000Y-90000000D01*
X124922643Y-90000000D01*
X124855604Y-89980315D01*
X124809849Y-89927511D01*
X124798643Y-89876000D01*
X124798643Y-88040410D01*
X124798643Y-88040409D01*
X124793498Y-87968470D01*
X124752962Y-87830418D01*
X124693409Y-87737752D01*
X124675175Y-87709379D01*
X124675171Y-87709375D01*
X124566442Y-87615160D01*
X124566440Y-87615158D01*
X124566437Y-87615156D01*
X124566433Y-87615154D01*
X124435562Y-87555386D01*
X124435557Y-87555385D01*
X124293143Y-87534910D01*
X122943143Y-87534910D01*
X122943140Y-87534910D01*
X122871202Y-87540054D01*
X122733148Y-87580592D01*
X122612112Y-87658377D01*
X122612108Y-87658381D01*
X122517893Y-87767110D01*
X122517887Y-87767119D01*
X122458119Y-87897990D01*
X122458118Y-87897995D01*
X122437643Y-88040409D01*
X122437643Y-89876000D01*
X122417958Y-89943039D01*
X122365154Y-89988794D01*
X122313643Y-90000000D01*
X121964396Y-90000000D01*
X121897357Y-89980315D01*
X121851602Y-89927511D01*
X121841658Y-89858353D01*
X121858856Y-89810905D01*
X121910908Y-89726516D01*
X121965174Y-89562753D01*
X121975500Y-89461677D01*
X121975499Y-88863324D01*
X121965174Y-88762247D01*
X121910908Y-88598484D01*
X121820340Y-88451650D01*
X121706371Y-88337681D01*
X121672886Y-88276358D01*
X121677870Y-88206666D01*
X121706371Y-88162319D01*
X121759394Y-88109296D01*
X121820340Y-88048350D01*
X121910908Y-87901516D01*
X121965174Y-87737753D01*
X121975500Y-87636677D01*
X121975499Y-87038324D01*
X121965174Y-86937247D01*
X121910908Y-86773484D01*
X121820340Y-86626650D01*
X121698350Y-86504660D01*
X121596185Y-86441644D01*
X121551518Y-86414093D01*
X121551513Y-86414091D01*
X121541868Y-86410895D01*
X121387753Y-86359826D01*
X121387750Y-86359825D01*
X121315097Y-86352403D01*
X121250405Y-86326007D01*
X121210254Y-86268826D01*
X121203700Y-86229045D01*
X121203700Y-84288693D01*
X121223385Y-84221654D01*
X121276189Y-84175899D01*
X121341583Y-84165473D01*
X121354154Y-84166889D01*
X121399997Y-84172055D01*
X121399998Y-84172054D01*
X121400000Y-84172055D01*
X121411614Y-84170746D01*
X121480435Y-84182799D01*
X121531816Y-84230147D01*
X121549500Y-84293966D01*
X121549500Y-84686669D01*
X121549501Y-84686687D01*
X121559825Y-84787752D01*
X121580438Y-84849956D01*
X121614092Y-84951516D01*
X121704660Y-85098350D01*
X121826650Y-85220340D01*
X121973484Y-85310908D01*
X122137247Y-85365174D01*
X122238323Y-85375500D01*
X122836676Y-85375499D01*
X122836684Y-85375498D01*
X122836687Y-85375498D01*
X122892030Y-85369844D01*
X122937753Y-85365174D01*
X123101516Y-85310908D01*
X123248350Y-85220340D01*
X123362675Y-85106014D01*
X123423994Y-85072532D01*
X123493686Y-85077516D01*
X123538034Y-85106017D01*
X123651961Y-85219944D01*
X123651965Y-85219947D01*
X123798688Y-85310448D01*
X123798699Y-85310453D01*
X123962347Y-85364680D01*
X124063351Y-85374999D01*
X124612500Y-85374999D01*
X124661640Y-85374999D01*
X124661654Y-85374998D01*
X124762652Y-85364680D01*
X124926300Y-85310453D01*
X124926311Y-85310448D01*
X125073034Y-85219947D01*
X125073038Y-85219944D01*
X125194944Y-85098038D01*
X125194947Y-85098034D01*
X125285448Y-84951311D01*
X125285453Y-84951300D01*
X125339680Y-84787652D01*
X125349999Y-84686654D01*
X125350000Y-84686641D01*
X125350000Y-84650000D01*
X124612500Y-84650000D01*
X124612500Y-85374999D01*
X124063351Y-85374999D01*
X124112499Y-85374998D01*
X124112500Y-85374998D01*
X124112500Y-83414456D01*
X124091696Y-83376357D01*
X124096680Y-83306665D01*
X124110256Y-83285541D01*
X124612500Y-83285541D01*
X124633304Y-83323641D01*
X124628320Y-83393333D01*
X124612500Y-83417949D01*
X124612500Y-84150000D01*
X125349999Y-84150000D01*
X125349999Y-84113360D01*
X125349998Y-84113345D01*
X125339680Y-84012347D01*
X125285453Y-83848699D01*
X125285448Y-83848688D01*
X125194947Y-83701965D01*
X125194944Y-83701961D01*
X125073038Y-83580055D01*
X125073034Y-83580052D01*
X124926311Y-83489551D01*
X124926300Y-83489546D01*
X124860389Y-83467706D01*
X124802944Y-83427934D01*
X124776121Y-83363418D01*
X124788436Y-83294642D01*
X124835979Y-83243442D01*
X124860389Y-83232294D01*
X124926300Y-83210453D01*
X124926311Y-83210448D01*
X125073034Y-83119947D01*
X125073038Y-83119944D01*
X125194944Y-82998038D01*
X125194947Y-82998034D01*
X125285448Y-82851311D01*
X125285453Y-82851300D01*
X125339680Y-82687652D01*
X125349999Y-82586654D01*
X125350000Y-82586641D01*
X125350000Y-82550000D01*
X124612500Y-82550000D01*
X124612500Y-83285541D01*
X124110256Y-83285541D01*
X124112500Y-83282049D01*
X124112500Y-81314456D01*
X124091696Y-81276357D01*
X124096680Y-81206665D01*
X124110256Y-81185541D01*
X124612500Y-81185541D01*
X124633304Y-81223641D01*
X124628320Y-81293333D01*
X124612500Y-81317949D01*
X124612500Y-82050000D01*
X125349999Y-82050000D01*
X125349999Y-82013360D01*
X125349998Y-82013345D01*
X125339680Y-81912347D01*
X125285453Y-81748699D01*
X125285448Y-81748688D01*
X125194947Y-81601965D01*
X125194944Y-81601961D01*
X125073038Y-81480055D01*
X125073034Y-81480052D01*
X124926311Y-81389551D01*
X124926300Y-81389546D01*
X124860389Y-81367706D01*
X124802944Y-81327934D01*
X124776121Y-81263418D01*
X124788436Y-81194642D01*
X124835979Y-81143442D01*
X124860389Y-81132294D01*
X124926300Y-81110453D01*
X124926311Y-81110448D01*
X125073034Y-81019947D01*
X125073038Y-81019944D01*
X125194944Y-80898038D01*
X125194947Y-80898034D01*
X125285448Y-80751311D01*
X125285453Y-80751300D01*
X125339680Y-80587652D01*
X125349999Y-80486654D01*
X125350000Y-80486641D01*
X125350000Y-80450000D01*
X124612500Y-80450000D01*
X124612500Y-81185541D01*
X124110256Y-81185541D01*
X124112500Y-81182049D01*
X124112500Y-80450000D01*
X121550001Y-80450000D01*
X121550001Y-80486654D01*
X121560319Y-80587652D01*
X121614546Y-80751300D01*
X121614551Y-80751311D01*
X121705052Y-80898034D01*
X121705055Y-80898038D01*
X121826961Y-81019944D01*
X121826965Y-81019947D01*
X121973688Y-81110448D01*
X121973701Y-81110454D01*
X122038815Y-81132030D01*
X122096260Y-81171802D01*
X122123084Y-81236317D01*
X122110770Y-81305093D01*
X122063227Y-81356294D01*
X122038818Y-81367441D01*
X121973490Y-81389089D01*
X121973481Y-81389093D01*
X121826648Y-81479661D01*
X121704659Y-81601650D01*
X121674768Y-81650111D01*
X121622819Y-81696835D01*
X121553856Y-81708056D01*
X121528276Y-81702055D01*
X121379826Y-81650111D01*
X121371798Y-81647302D01*
X121371797Y-81647301D01*
X121371795Y-81647301D01*
X121200004Y-81627945D01*
X121199996Y-81627945D01*
X121028204Y-81647301D01*
X120865016Y-81704402D01*
X120718632Y-81796382D01*
X120596382Y-81918632D01*
X120504402Y-82065016D01*
X120447301Y-82228204D01*
X120427945Y-82399996D01*
X120427945Y-82400003D01*
X120447301Y-82571795D01*
X120504402Y-82734983D01*
X120596382Y-82881367D01*
X120668912Y-82953897D01*
X120702397Y-83015220D01*
X120698273Y-83082532D01*
X120655188Y-83205663D01*
X120614466Y-83262439D01*
X120549514Y-83288187D01*
X120480952Y-83274731D01*
X120450465Y-83252390D01*
X120154419Y-82956344D01*
X120120934Y-82895021D01*
X120125917Y-82825331D01*
X120129591Y-82815483D01*
X120136000Y-82755873D01*
X120135999Y-82160128D01*
X120129591Y-82100517D01*
X120110749Y-82050000D01*
X120079297Y-81965671D01*
X120079293Y-81965664D01*
X119993047Y-81850455D01*
X119993044Y-81850452D01*
X119877835Y-81764206D01*
X119877830Y-81764203D01*
X119780666Y-81727963D01*
X119724733Y-81686091D01*
X119717976Y-81667976D01*
X119700000Y-81650000D01*
X119074500Y-81650000D01*
X119007461Y-81630315D01*
X118961706Y-81577511D01*
X118950500Y-81526000D01*
X118950499Y-81274000D01*
X118970183Y-81206961D01*
X119022987Y-81161206D01*
X119074499Y-81150000D01*
X119700000Y-81150000D01*
X119700000Y-81094672D01*
X119699999Y-81094655D01*
X119693598Y-81035127D01*
X119693596Y-81035120D01*
X119643354Y-80900413D01*
X119643350Y-80900406D01*
X119557190Y-80785312D01*
X119557187Y-80785309D01*
X119442093Y-80699149D01*
X119442086Y-80699145D01*
X119307379Y-80648903D01*
X119307372Y-80648901D01*
X119247844Y-80642500D01*
X119083488Y-80642500D01*
X119016449Y-80622815D01*
X118970694Y-80570011D01*
X118960268Y-80504617D01*
X118972055Y-80400003D01*
X118972055Y-80399996D01*
X118952698Y-80228204D01*
X118952698Y-80228202D01*
X118895598Y-80065018D01*
X118803617Y-79918632D01*
X118798330Y-79913345D01*
X121550000Y-79913345D01*
X121550000Y-79950000D01*
X122287500Y-79950000D01*
X122287500Y-79225000D01*
X122787500Y-79225000D01*
X122787500Y-79950000D01*
X124112500Y-79950000D01*
X124612500Y-79950000D01*
X125349999Y-79950000D01*
X125349999Y-79913360D01*
X125349998Y-79913345D01*
X125339680Y-79812347D01*
X125285453Y-79648699D01*
X125285448Y-79648688D01*
X125194947Y-79501965D01*
X125194944Y-79501961D01*
X125073038Y-79380055D01*
X125073034Y-79380052D01*
X124926311Y-79289551D01*
X124926300Y-79289546D01*
X124762652Y-79235319D01*
X124661654Y-79225000D01*
X124612500Y-79225000D01*
X124612500Y-79950000D01*
X124112500Y-79950000D01*
X124112500Y-79225000D01*
X124112499Y-79224999D01*
X124063361Y-79225000D01*
X124063343Y-79225001D01*
X123962347Y-79235319D01*
X123798699Y-79289546D01*
X123798688Y-79289551D01*
X123651965Y-79380052D01*
X123651961Y-79380055D01*
X123537681Y-79494336D01*
X123476358Y-79527821D01*
X123406666Y-79522837D01*
X123362319Y-79494336D01*
X123248038Y-79380055D01*
X123248034Y-79380052D01*
X123101311Y-79289551D01*
X123101300Y-79289546D01*
X122937652Y-79235319D01*
X122836654Y-79225000D01*
X122787500Y-79225000D01*
X122287500Y-79225000D01*
X122287499Y-79224999D01*
X122238361Y-79225000D01*
X122238343Y-79225001D01*
X122137347Y-79235319D01*
X121973699Y-79289546D01*
X121973688Y-79289551D01*
X121826965Y-79380052D01*
X121826961Y-79380055D01*
X121705055Y-79501961D01*
X121705052Y-79501965D01*
X121614551Y-79648688D01*
X121614546Y-79648699D01*
X121560319Y-79812347D01*
X121550000Y-79913345D01*
X118798330Y-79913345D01*
X118681368Y-79796383D01*
X118681367Y-79796382D01*
X118534983Y-79704402D01*
X118371795Y-79647301D01*
X118200004Y-79627945D01*
X118199996Y-79627945D01*
X118028204Y-79647301D01*
X117865016Y-79704402D01*
X117865012Y-79704404D01*
X117803550Y-79743023D01*
X117736313Y-79762023D01*
X117669478Y-79741655D01*
X117624265Y-79688386D01*
X117614640Y-79621846D01*
X117625500Y-79539361D01*
X117625499Y-79260640D01*
X117625480Y-79260499D01*
X117622166Y-79235319D01*
X117617296Y-79198329D01*
X117628062Y-79129297D01*
X117652551Y-79094469D01*
X117729402Y-79017618D01*
X117790723Y-78984135D01*
X117860415Y-78989119D01*
X117916348Y-79030991D01*
X117921396Y-79038261D01*
X117952095Y-79086030D01*
X117952099Y-79086034D01*
X118033632Y-79156683D01*
X118060834Y-79180254D01*
X118062895Y-79181195D01*
X118191708Y-79240023D01*
X118191711Y-79240023D01*
X118191712Y-79240024D01*
X118334128Y-79260500D01*
X118334131Y-79260500D01*
X119684128Y-79260500D01*
X119756068Y-79255355D01*
X119894120Y-79214819D01*
X120015160Y-79137031D01*
X120109382Y-79028294D01*
X120169152Y-78897416D01*
X120189628Y-78755000D01*
X120189628Y-76924000D01*
X120209313Y-76856961D01*
X120262117Y-76811206D01*
X120313628Y-76800000D01*
X125476000Y-76800000D01*
X125543039Y-76819685D01*
G37*
%TD.AperFunction*%
%TA.AperFunction,Conductor*%
G36*
X111361539Y-84201185D02*
G01*
X111407294Y-84253989D01*
X111418500Y-84305500D01*
X111418500Y-85390615D01*
X111398815Y-85457654D01*
X111382181Y-85478296D01*
X110694725Y-86165751D01*
X110694723Y-86165754D01*
X110644499Y-86252745D01*
X110644114Y-86254183D01*
X110618500Y-86349775D01*
X110618500Y-86349777D01*
X110618500Y-87792938D01*
X110598815Y-87859977D01*
X110569987Y-87891313D01*
X110556691Y-87901516D01*
X110471713Y-87966722D01*
X110467802Y-87970634D01*
X110406479Y-88004119D01*
X110336787Y-87999135D01*
X110280854Y-87957263D01*
X110256437Y-87891799D01*
X110256121Y-87882953D01*
X110256121Y-87693187D01*
X110250976Y-87621247D01*
X110210440Y-87483195D01*
X110132652Y-87362155D01*
X110023915Y-87267933D01*
X110023911Y-87267931D01*
X109893040Y-87208163D01*
X109893035Y-87208162D01*
X109750621Y-87187687D01*
X108124000Y-87187687D01*
X108056961Y-87168002D01*
X108011206Y-87115198D01*
X108000000Y-87063687D01*
X108000000Y-85097428D01*
X108019685Y-85030389D01*
X108072489Y-84984634D01*
X108124000Y-84973428D01*
X109764059Y-84973428D01*
X109835999Y-84968283D01*
X109974051Y-84927747D01*
X110095091Y-84849959D01*
X110189313Y-84741222D01*
X110239398Y-84631551D01*
X110249082Y-84610347D01*
X110249083Y-84610342D01*
X110269559Y-84467928D01*
X110269559Y-84305500D01*
X110289244Y-84238461D01*
X110342048Y-84192706D01*
X110393559Y-84181500D01*
X111294500Y-84181500D01*
X111361539Y-84201185D01*
G37*
%TD.AperFunction*%
%TA.AperFunction,Conductor*%
G36*
X118032763Y-86284476D02*
G01*
X118033072Y-86284476D01*
X118033370Y-86284555D01*
X118150675Y-86299999D01*
X118206946Y-86299999D01*
X118273986Y-86319682D01*
X118319742Y-86372486D01*
X118329686Y-86441644D01*
X118300662Y-86505200D01*
X118294630Y-86511680D01*
X118179657Y-86626653D01*
X118105538Y-86746819D01*
X118053590Y-86793544D01*
X117984628Y-86804765D01*
X117920546Y-86776922D01*
X117894462Y-86746819D01*
X117820342Y-86626653D01*
X117820339Y-86626649D01*
X117705870Y-86512180D01*
X117672385Y-86450857D01*
X117677369Y-86381165D01*
X117719241Y-86325232D01*
X117784705Y-86300815D01*
X117793547Y-86300499D01*
X117849360Y-86300499D01*
X117849362Y-86300499D01*
X117882903Y-86296083D01*
X117966762Y-86285044D01*
X117966771Y-86285040D01*
X117968879Y-86284476D01*
X117971076Y-86284476D01*
X117974821Y-86283983D01*
X117974886Y-86284476D01*
X118025183Y-86284476D01*
X118025312Y-86283495D01*
X118032763Y-86284476D01*
G37*
%TD.AperFunction*%
%TA.AperFunction,Conductor*%
G36*
X113241475Y-82808685D02*
G01*
X113287230Y-82861489D01*
X113290618Y-82869667D01*
X113320702Y-82950328D01*
X113320706Y-82950335D01*
X113406952Y-83065544D01*
X113406955Y-83065547D01*
X113522164Y-83151793D01*
X113522171Y-83151797D01*
X113619333Y-83188036D01*
X113675267Y-83229907D01*
X113682024Y-83248024D01*
X113700000Y-83266000D01*
X114326000Y-83266000D01*
X114393039Y-83285685D01*
X114438794Y-83338489D01*
X114450000Y-83390000D01*
X114450000Y-83642000D01*
X114430315Y-83709039D01*
X114377511Y-83754794D01*
X114326000Y-83766000D01*
X113700000Y-83766000D01*
X113700000Y-83821344D01*
X113706401Y-83880872D01*
X113706403Y-83880879D01*
X113756645Y-84015586D01*
X113756649Y-84015593D01*
X113842809Y-84130687D01*
X113842812Y-84130690D01*
X113957906Y-84216850D01*
X113957913Y-84216854D01*
X114092620Y-84267096D01*
X114140815Y-84272278D01*
X114205367Y-84299016D01*
X114245215Y-84356408D01*
X114248453Y-84423157D01*
X114247300Y-84428205D01*
X114227945Y-84599996D01*
X114227945Y-84600003D01*
X114247301Y-84771796D01*
X114247301Y-84771799D01*
X114275906Y-84853545D01*
X114279468Y-84923324D01*
X114244740Y-84983951D01*
X114182746Y-85016179D01*
X114158865Y-85018500D01*
X112305500Y-85018500D01*
X112238461Y-84998815D01*
X112192706Y-84946011D01*
X112181500Y-84894500D01*
X112181500Y-83227061D01*
X112201185Y-83160022D01*
X112230012Y-83128686D01*
X112328282Y-83053282D01*
X112424536Y-82927841D01*
X112432783Y-82907933D01*
X112450339Y-82865548D01*
X112494180Y-82811144D01*
X112560474Y-82789079D01*
X112564900Y-82789000D01*
X113174436Y-82789000D01*
X113241475Y-82808685D01*
G37*
%TD.AperFunction*%
%TA.AperFunction,Conductor*%
G36*
X108358859Y-76819685D02*
G01*
X108404614Y-76872489D01*
X108415820Y-76924000D01*
X108415820Y-78755002D01*
X108420964Y-78826940D01*
X108461502Y-78964994D01*
X108539287Y-79086030D01*
X108539291Y-79086034D01*
X108620824Y-79156683D01*
X108648026Y-79180254D01*
X108650087Y-79181195D01*
X108778900Y-79240023D01*
X108778903Y-79240023D01*
X108778904Y-79240024D01*
X108921320Y-79260500D01*
X108921323Y-79260500D01*
X110271320Y-79260500D01*
X110343260Y-79255355D01*
X110481312Y-79214819D01*
X110602352Y-79137031D01*
X110696574Y-79028294D01*
X110756344Y-78897416D01*
X110776820Y-78755000D01*
X110776820Y-77830000D01*
X112608438Y-77830000D01*
X112608438Y-78755002D01*
X112613578Y-78826870D01*
X112654072Y-78964781D01*
X112731783Y-79085703D01*
X112840414Y-79179832D01*
X112840415Y-79179833D01*
X112971159Y-79239543D01*
X112971163Y-79239544D01*
X113113439Y-79259999D01*
X113113441Y-79260000D01*
X113538438Y-79260000D01*
X113538438Y-78395686D01*
X113542832Y-78400080D01*
X113634044Y-78452741D01*
X113735777Y-78480000D01*
X113841099Y-78480000D01*
X113942832Y-78452741D01*
X114034044Y-78400080D01*
X114038438Y-78395686D01*
X114038438Y-79260000D01*
X114463438Y-79260000D01*
X114463440Y-79259999D01*
X114535308Y-79254859D01*
X114673219Y-79214365D01*
X114794141Y-79136654D01*
X114888270Y-79028023D01*
X114888271Y-79028022D01*
X114947981Y-78897278D01*
X114947982Y-78897274D01*
X114968437Y-78754998D01*
X114968438Y-78754997D01*
X114968438Y-77830000D01*
X114104124Y-77830000D01*
X114034044Y-77759920D01*
X113942832Y-77707259D01*
X113841099Y-77680000D01*
X113735777Y-77680000D01*
X113634044Y-77707259D01*
X113542832Y-77759920D01*
X113472752Y-77830000D01*
X112608438Y-77830000D01*
X110776820Y-77830000D01*
X110776820Y-76924000D01*
X110796505Y-76856961D01*
X110849309Y-76811206D01*
X110900820Y-76800000D01*
X112484438Y-76800000D01*
X112551477Y-76819685D01*
X112597232Y-76872489D01*
X112608438Y-76924000D01*
X112608438Y-77330000D01*
X114968438Y-77330000D01*
X114968438Y-76924000D01*
X114988123Y-76856961D01*
X115040927Y-76811206D01*
X115092438Y-76800000D01*
X117704628Y-76800000D01*
X117771667Y-76819685D01*
X117817422Y-76872489D01*
X117828628Y-76924000D01*
X117828628Y-77791161D01*
X117808943Y-77858200D01*
X117778088Y-77887672D01*
X117779702Y-77889776D01*
X117773250Y-77894726D01*
X117702222Y-77965755D01*
X117004795Y-78663181D01*
X116943472Y-78696666D01*
X116917114Y-78699500D01*
X116550637Y-78699500D01*
X116433236Y-78714955D01*
X116431111Y-78715525D01*
X116428910Y-78715525D01*
X116425181Y-78716016D01*
X116425116Y-78715525D01*
X116374816Y-78715525D01*
X116374688Y-78716505D01*
X116367251Y-78715525D01*
X116366937Y-78715526D01*
X116366632Y-78715444D01*
X116249330Y-78700000D01*
X116192500Y-78700000D01*
X116192500Y-78789573D01*
X116172815Y-78856612D01*
X116166164Y-78864885D01*
X116166666Y-78865271D01*
X116161720Y-78871716D01*
X116161718Y-78871718D01*
X116090147Y-78964992D01*
X116065463Y-78997160D01*
X116031061Y-79080215D01*
X115987220Y-79134618D01*
X115920926Y-79156683D01*
X115853226Y-79139404D01*
X115805616Y-79088266D01*
X115792500Y-79032762D01*
X115792500Y-78700000D01*
X115792499Y-78699999D01*
X115735676Y-78700000D01*
X115618371Y-78715442D01*
X115618366Y-78715444D01*
X115472414Y-78775899D01*
X115347075Y-78872075D01*
X115250899Y-78997413D01*
X115190444Y-79143368D01*
X115182987Y-79200000D01*
X115804703Y-79200000D01*
X115839139Y-79181195D01*
X115908831Y-79186178D01*
X115964765Y-79228048D01*
X115989184Y-79293512D01*
X115989500Y-79302360D01*
X115989501Y-79475999D01*
X115969817Y-79543039D01*
X115917013Y-79588794D01*
X115865501Y-79600000D01*
X115182990Y-79600000D01*
X115182988Y-79600001D01*
X115191504Y-79664690D01*
X115188110Y-79665136D01*
X115186735Y-79719267D01*
X115147479Y-79777066D01*
X115134660Y-79786311D01*
X115118635Y-79796380D01*
X115118629Y-79796385D01*
X114996382Y-79918632D01*
X114904402Y-80065016D01*
X114847301Y-80228204D01*
X114827945Y-80399996D01*
X114827945Y-80400003D01*
X114839732Y-80504617D01*
X114827678Y-80573438D01*
X114780328Y-80624818D01*
X114716512Y-80642500D01*
X114700000Y-80642500D01*
X114700000Y-81276000D01*
X114680315Y-81343039D01*
X114627511Y-81388794D01*
X114576000Y-81400000D01*
X114450000Y-81400000D01*
X114450000Y-81526000D01*
X114430315Y-81593039D01*
X114377511Y-81638794D01*
X114326000Y-81650000D01*
X113700000Y-81650000D01*
X113684112Y-81665887D01*
X113680315Y-81678820D01*
X113627511Y-81724575D01*
X113619334Y-81727963D01*
X113522169Y-81764203D01*
X113522164Y-81764206D01*
X113406955Y-81850452D01*
X113406952Y-81850455D01*
X113315388Y-81972769D01*
X113313265Y-81971180D01*
X113273617Y-82010831D01*
X113214188Y-82026000D01*
X112618135Y-82026000D01*
X112551096Y-82006315D01*
X112505341Y-81953511D01*
X112495196Y-81885815D01*
X112499998Y-81849333D01*
X112500000Y-81849316D01*
X112500000Y-81792500D01*
X112410426Y-81792500D01*
X112343387Y-81772815D01*
X112335121Y-81766154D01*
X112334729Y-81766666D01*
X112328283Y-81761720D01*
X112328282Y-81761718D01*
X112202841Y-81665464D01*
X112202840Y-81665463D01*
X112202838Y-81665462D01*
X112119785Y-81631061D01*
X112065381Y-81587220D01*
X112043316Y-81520926D01*
X112060595Y-81453227D01*
X112111732Y-81405616D01*
X112167237Y-81392500D01*
X112499999Y-81392500D01*
X112499999Y-81335675D01*
X112484557Y-81218371D01*
X112484555Y-81218366D01*
X112433312Y-81094655D01*
X113700000Y-81094655D01*
X113700000Y-81150000D01*
X114200000Y-81150000D01*
X114200000Y-80642500D01*
X114152155Y-80642500D01*
X114092627Y-80648901D01*
X114092620Y-80648903D01*
X113957913Y-80699145D01*
X113957906Y-80699149D01*
X113842812Y-80785309D01*
X113842809Y-80785312D01*
X113756649Y-80900406D01*
X113756645Y-80900413D01*
X113706403Y-81035120D01*
X113706401Y-81035127D01*
X113700000Y-81094655D01*
X112433312Y-81094655D01*
X112424100Y-81072414D01*
X112327924Y-80947075D01*
X112202586Y-80850899D01*
X112056631Y-80790444D01*
X112000000Y-80782987D01*
X112000000Y-81404705D01*
X112018804Y-81439142D01*
X112013820Y-81508834D01*
X111971948Y-81564767D01*
X111906484Y-81589184D01*
X111897638Y-81589500D01*
X111702361Y-81589500D01*
X111635322Y-81569815D01*
X111589567Y-81517011D01*
X111579623Y-81447853D01*
X111600000Y-81403233D01*
X111600000Y-80782987D01*
X111543368Y-80790444D01*
X111397413Y-80850899D01*
X111272075Y-80947075D01*
X111175899Y-81072413D01*
X111115445Y-81218365D01*
X111115444Y-81218369D01*
X111100000Y-81335669D01*
X111100000Y-81392500D01*
X111432763Y-81392500D01*
X111499802Y-81412185D01*
X111545557Y-81464989D01*
X111555501Y-81534147D01*
X111526476Y-81597703D01*
X111480215Y-81631061D01*
X111397161Y-81665462D01*
X111393885Y-81667976D01*
X111271718Y-81761718D01*
X111271716Y-81761720D01*
X111265271Y-81766666D01*
X111263139Y-81763888D01*
X111215932Y-81789666D01*
X111189574Y-81792500D01*
X111100001Y-81792500D01*
X111100001Y-81849324D01*
X111115442Y-81966628D01*
X111115524Y-81966931D01*
X111115524Y-81967244D01*
X111116504Y-81974689D01*
X111115524Y-81974817D01*
X111115526Y-82025116D01*
X111116017Y-82025181D01*
X111115526Y-82028903D01*
X111115527Y-82031106D01*
X111114956Y-82033235D01*
X111099500Y-82150638D01*
X111099500Y-82664363D01*
X111114953Y-82781753D01*
X111114956Y-82781762D01*
X111151367Y-82869667D01*
X111175464Y-82927841D01*
X111271718Y-83053282D01*
X111369986Y-83128686D01*
X111411189Y-83185113D01*
X111418500Y-83227061D01*
X111418500Y-83294500D01*
X111398815Y-83361539D01*
X111346011Y-83407294D01*
X111294500Y-83418500D01*
X110393559Y-83418500D01*
X110326520Y-83398815D01*
X110280765Y-83346011D01*
X110269559Y-83294500D01*
X110269559Y-83117928D01*
X110264414Y-83045988D01*
X110223878Y-82907936D01*
X110183196Y-82844634D01*
X110146091Y-82786897D01*
X110146087Y-82786893D01*
X110037358Y-82692678D01*
X110037356Y-82692676D01*
X110037353Y-82692674D01*
X110026578Y-82687753D01*
X109906478Y-82632904D01*
X109906473Y-82632903D01*
X109764059Y-82612428D01*
X108124000Y-82612428D01*
X108056961Y-82592743D01*
X108011206Y-82539939D01*
X108000000Y-82488428D01*
X108000000Y-76924000D01*
X108019685Y-76856961D01*
X108072489Y-76811206D01*
X108124000Y-76800000D01*
X108291820Y-76800000D01*
X108358859Y-76819685D01*
G37*
%TD.AperFunction*%
%TA.AperFunction,Conductor*%
G36*
X116893039Y-82177684D02*
G01*
X116938794Y-82230488D01*
X116950000Y-82281999D01*
X116950000Y-82334000D01*
X116930315Y-82401039D01*
X116877511Y-82446794D01*
X116826000Y-82458000D01*
X116574000Y-82458000D01*
X116506961Y-82438315D01*
X116461206Y-82385511D01*
X116450000Y-82334000D01*
X116450000Y-82281999D01*
X116469685Y-82214960D01*
X116522489Y-82169205D01*
X116573996Y-82157999D01*
X116826000Y-82157999D01*
X116893039Y-82177684D01*
G37*
%TD.AperFunction*%
%TA.AperFunction,Conductor*%
G36*
X117426827Y-80061995D02*
G01*
X117462479Y-80122084D01*
X117459986Y-80191909D01*
X117459373Y-80193704D01*
X117447301Y-80228204D01*
X117427945Y-80399996D01*
X117427945Y-80400003D01*
X117439732Y-80504617D01*
X117427678Y-80573438D01*
X117380328Y-80624818D01*
X117316512Y-80642500D01*
X117205500Y-80642500D01*
X117138461Y-80622815D01*
X117092706Y-80570011D01*
X117081500Y-80518500D01*
X117081500Y-80206989D01*
X117101185Y-80139950D01*
X117153989Y-80094195D01*
X117174237Y-80088387D01*
X117173906Y-80087149D01*
X117181752Y-80085045D01*
X117181762Y-80085044D01*
X117294880Y-80038188D01*
X117364347Y-80030720D01*
X117426827Y-80061995D01*
G37*
%TD.AperFunction*%
%TD*%
M02*
